<svg width="16" height="16" viewBox="0 0 16 16" fill="none" xmlns="http://www.w3.org/2000/svg">
<path fill-rule="evenodd" clip-rule="evenodd" d="M10.7501 1.75L14.4996 1.7505C14.9137 1.75056 15.2494 2.08626 15.2495 2.5004L15.25 6.2499L13.75 6.2501L13.7497 4.31092L10.5286 7.5321L9.4679 6.47144L12.6891 3.25026L10.7499 3.25L10.7501 1.75ZM8 5.25H4.25V12.75H11.75V9H13.25V13C13.25 13.3315 13.1183 13.6495 12.8839 13.8839C12.6495 14.1183 12.3315 14.25 12 14.25H4C3.66848 14.25 3.35054 14.1183 3.11612 13.8839C2.8817 13.6495 2.75 13.3315 2.75 13V5C2.75 4.66848 2.8817 4.35054 3.11612 4.11612C3.35054 3.8817 3.66848 3.75 4 3.75H8V5.25Z" fill="#21324B"/>
</svg>
