<svg width="16" height="16" viewBox="0 0 16 16" fill="none" xmlns="http://www.w3.org/2000/svg">
<path fill-rule="evenodd" clip-rule="evenodd" d="M4.47005 3.5371C3.57639 4.02455 3.25 4.57469 3.25 5C3.25 5.42531 3.57639 5.97545 4.47005 6.4629C5.33535 6.93488 6.58198 7.25 8 7.25C9.41802 7.25 10.6647 6.93488 11.5299 6.4629C12.4236 5.97545 12.75 5.42531 12.75 5C12.75 4.57469 12.4236 4.02455 11.5299 3.5371C10.6647 3.06512 9.41802 2.75 8 2.75C6.58198 2.75 5.33535 3.06512 4.47005 3.5371ZM3.75177 2.22026C2.65482 2.81859 1.75 3.76845 1.75 5V8V11C1.75 12.2315 2.65482 13.1814 3.75177 13.7797C4.87708 14.3935 6.38046 14.75 8 14.75C9.61954 14.75 11.1229 14.3935 12.2482 13.7797C13.3452 13.1814 14.25 12.2315 14.25 11V8V5C14.25 3.76845 13.3452 2.81859 12.2482 2.22026C11.1229 1.60645 9.61954 1.25 8 1.25C6.38046 1.25 4.87708 1.60645 3.75177 2.22026ZM12.75 10.4708V11C12.75 11.4253 12.4236 11.9754 11.5299 12.4629C10.6647 12.9349 9.41802 13.25 8 13.25C6.58198 13.25 5.33535 12.9349 4.47005 12.4629C3.57639 11.9754 3.25 11.4253 3.25 11V10.4708C3.41062 10.5823 3.57881 10.6854 3.75177 10.7797C4.87708 11.3935 6.38046 11.75 8 11.75C9.61954 11.75 11.1229 11.3935 12.2482 10.7797C12.4212 10.6854 12.5894 10.5823 12.75 10.4708ZM3.25 8C3.25 8.42531 3.57639 8.97545 4.47005 9.4629C5.33535 9.93488 6.58198 10.25 8 10.25C9.41802 10.25 10.6647 9.93488 11.5299 9.4629C12.4236 8.97545 12.75 8.42531 12.75 8V7.47076C12.5894 7.58231 12.4212 7.6854 12.2482 7.77974C11.1229 8.39355 9.61954 8.75 8 8.75C6.38046 8.75 4.87708 8.39355 3.75177 7.77974C3.57881 7.6854 3.41062 7.58231 3.25 7.47076V8Z" fill="#21324B"/>
</svg>
