<svg width="16" height="16" viewBox="0 0 16 16" fill="none" xmlns="http://www.w3.org/2000/svg">
<path fill-rule="evenodd" clip-rule="evenodd" d="M14.1599 0.488465C14.7325 2.13899 14.7325 4.29478 14.2946 5.35583C14.0757 5.87794 14.0588 6.48425 14.2272 7.0232C14.4462 7.68004 14.5641 8.37057 14.5641 9.11162C14.5641 12.8 11.583 15.7474 7.91145 15.68C4.42514 15.6295 1.47777 12.6653 1.39356 9.19583C1.37672 8.43794 1.49461 7.68004 1.7304 7.00636C1.91566 6.46741 1.91566 5.87794 1.69672 5.35583C1.27566 4.31162 1.25882 2.15583 1.83145 0.471623C1.96619 0.168465 2.43777 0.269518 2.43777 0.589518V0.707412C2.53882 2.30741 3.14514 3.26741 4.02093 3.58741C4.15566 3.65478 4.32408 3.63794 4.45882 3.55373C5.48619 2.93057 6.68198 2.5432 7.97882 2.5432C9.27566 2.5432 10.4883 2.91373 11.4988 3.55373C11.6504 3.65478 11.8693 3.65478 12.0041 3.58741C12.863 3.16636 13.4357 2.30741 13.5367 0.724254V0.60636C13.5536 0.28636 14.0083 0.185307 14.1599 0.488465ZM8.07987 4.10952C5.2504 4.04215 2.92619 6.36636 2.99356 9.21268C3.02724 11.8906 5.23356 14.0632 7.89461 14.1306C10.7409 14.1643 13.0483 11.8569 12.9978 9.02741C12.9472 6.34952 10.7578 4.1432 8.07987 4.10952ZM7.57462 6.75377L8.75357 8.57272L9.89883 10.3917C9.9662 10.4927 9.99988 10.6106 9.99988 10.7285C9.99988 10.9475 9.88199 11.1496 9.69672 11.2675C9.47778 11.4022 9.19146 11.4022 8.97251 11.2506C8.8883 11.2001 8.82093 11.1496 8.78725 11.0653L8.13041 10.1222C8.07988 10.0211 7.96199 10.0211 7.87778 10.1054L6.95146 11.1832C6.83356 11.3011 6.68199 11.3854 6.49672 11.3854C6.34514 11.3854 6.17672 11.3348 6.05883 11.2338C5.8062 10.998 5.78935 10.5938 6.02514 10.3411L7.27146 8.97693C7.32199 8.89272 7.35567 8.77482 7.2883 8.67377L6.49672 7.42745C6.42935 7.3264 6.39567 7.20851 6.39567 7.09061C6.39567 6.87166 6.51356 6.66956 6.69883 6.55166C7.00199 6.3664 7.38935 6.45061 7.57462 6.75377Z" fill="#21324B"/>
</svg>
