<svg width="403" height="821" viewBox="0 0 403 821" fill="none" xmlns="http://www.w3.org/2000/svg">
<path d="M398.587 196.283H399.2C400.857 196.283 402.2 197.626 402.2 199.283V250.482C402.2 252.139 400.857 253.482 399.2 253.482H398.587V196.283Z" fill="#313232"/>
<path d="M398.587 196.283H399.2C400.857 196.283 402.2 197.626 402.2 199.283V250.482C402.2 252.139 400.857 253.482 399.2 253.482H398.587V196.283Z" fill="url(#paint0_linear)"/>
<path d="M398.587 196.283H399.2C400.857 196.283 402.2 197.626 402.2 199.283V250.482C402.2 252.139 400.857 253.482 399.2 253.482H398.587V196.283Z" fill="url(#paint1_linear)"/>
<path d="M398.587 196.283H399.2C400.857 196.283 402.2 197.626 402.2 199.283V250.482C402.2 252.139 400.857 253.482 399.2 253.482H398.587V196.283Z" fill="url(#paint2_radial)"/>
<path d="M398.587 308.875H399.2C400.857 308.875 402.2 310.218 402.2 311.875V420.273C402.2 421.93 400.857 423.273 399.2 423.273H398.587V308.875Z" fill="#070707"/>
<path fill-rule="evenodd" clip-rule="evenodd" d="M53.5865 0C23.9915 0 0 23.9915 0 53.5866V766.468C0 796.063 23.9915 820.055 53.5865 820.055H346.205C375.8 820.055 399.792 796.063 399.792 766.468V53.5865C399.792 23.9915 375.8 0 346.205 0H53.5865Z" fill="#0C0C0C"/>
<g filter="url(#filter0_f)">
<path fill-rule="evenodd" clip-rule="evenodd" d="M57.1991 3.61259H342.592C371.855 3.61259 395.577 27.3345 395.577 56.597V763.458C395.577 792.72 371.855 816.442 342.592 816.442H57.1991C27.9366 816.442 4.21467 792.72 4.21467 763.458V56.597C4.21467 27.3345 27.9366 3.61259 57.1991 3.61259ZM3.61258 56.597C3.61258 27.002 27.6041 3.0105 57.1991 3.0105H342.592C372.188 3.0105 396.179 27.002 396.179 56.597V763.458C396.179 793.053 372.187 817.044 342.592 817.044H57.1991C27.6041 817.044 3.61258 793.053 3.61258 763.458V56.597ZM63.2201 9.63355H336.572C365.834 9.63355 389.556 33.3555 389.556 62.618V757.437C389.556 786.699 365.834 810.421 336.572 810.421H63.2201C33.9576 810.421 10.2356 786.699 10.2356 757.437V62.618C10.2356 33.3555 33.9576 9.63355 63.2201 9.63355ZM9.63353 62.618C9.63353 33.023 33.625 9.03146 63.2201 9.03146H336.572C366.167 9.03146 390.158 33.023 390.158 62.618V757.437C390.158 787.032 366.167 811.023 336.572 811.023H63.2201C33.625 811.023 9.63353 787.032 9.63353 757.437V62.618Z" fill="white" fill-opacity="0.4"/>
</g>
<g filter="url(#filter1_f)">
<path fill-rule="evenodd" clip-rule="evenodd" d="M52.9844 12.343C30.705 12.343 12.644 30.404 12.644 52.6835V761.35C12.644 787.121 33.5355 808.013 59.3064 808.013V812.829C30.8753 812.829 7.82725 789.781 7.82725 761.35V52.6835C7.82725 27.7438 28.0448 7.52625 52.9844 7.52625H348.312C376.079 7.52625 398.587 30.0351 398.587 57.8012H393.771C393.771 32.6954 373.418 12.343 348.312 12.343H52.9844Z" fill="url(#paint3_linear)"/>
</g>
<g filter="url(#filter2_f)">
<path fill-rule="evenodd" clip-rule="evenodd" d="M289.006 8.1283H346.807C371.747 8.1283 391.964 28.3459 391.964 53.2855V767.672C391.964 792.612 371.747 812.829 346.807 812.829H53.8876C28.948 812.829 8.73039 792.612 8.73039 767.672V719.203H13.5472V767.672C13.5472 789.952 31.6082 808.013 53.8876 808.013H346.807C369.087 808.013 387.148 789.952 387.148 767.672V53.2855C387.148 31.0061 369.087 12.9451 346.807 12.9451H289.006V8.1283Z" fill="url(#paint4_linear)"/>
<path fill-rule="evenodd" clip-rule="evenodd" d="M289.006 8.1283H346.807C371.747 8.1283 391.964 28.3459 391.964 53.2855V767.672C391.964 792.612 371.747 812.829 346.807 812.829H53.8876C28.948 812.829 8.73039 792.612 8.73039 767.672V719.203H13.5472V767.672C13.5472 789.952 31.6082 808.013 53.8876 808.013H346.807C369.087 808.013 387.148 789.952 387.148 767.672V53.2855C387.148 31.0061 369.087 12.9451 346.807 12.9451H289.006V8.1283Z" fill="url(#paint5_radial)"/>
</g>
<path fill-rule="evenodd" clip-rule="evenodd" d="M52.3823 12.0419C30.4355 12.0419 12.644 29.8333 12.644 51.7802V768.274C12.644 790.221 30.4355 808.013 52.3823 808.013H347.409C369.356 808.013 387.148 790.221 387.148 768.274V51.7802C387.148 29.8333 369.356 12.0419 347.409 12.0419H52.3823Z" fill="black"/>
<mask id="mask0" mask-type="alpha" maskUnits="userSpaceOnUse" x="19" y="20" width="361" height="781">
<path fill-rule="evenodd" clip-rule="evenodd" d="M54.7907 20.4713C35.1715 20.4713 19.2671 36.3758 19.2671 55.995V765.264C19.2671 784.883 35.1715 800.788 54.7907 800.788H343.797C363.416 800.788 379.32 784.883 379.32 765.264V55.995C379.32 36.3758 363.416 20.4713 343.797 20.4713H54.7907Z" fill="#FF8080"/>
</mask>
<g mask="url(#mask0)">
<rect width="360" height="781" transform="translate(19 20)" fill="#4E00CD"/>
<rect width="360" height="781" transform="translate(19 20)" fill="url(#paint6_radial)"/>
<rect x="51" y="166" width="296" height="346" rx="8" fill="#0E1827" fill-opacity="0.85"/>
<path d="M112.395 210H114.389L117.144 200.195H117.247L120.001 210H121.989L125.626 196.909H123.543L120.999 207.053H120.877L118.224 196.909H116.166L113.514 207.047H113.392L110.842 196.909H108.764L112.395 210ZM130.539 210.198C132.68 210.198 134.195 209.143 134.63 207.545L132.821 207.219C132.476 208.146 131.645 208.619 130.558 208.619C128.922 208.619 127.822 207.558 127.771 205.666H134.751V204.989C134.751 201.441 132.629 200.054 130.405 200.054C127.669 200.054 125.866 202.138 125.866 205.155C125.866 208.204 127.643 210.198 130.539 210.198ZM127.777 204.234C127.854 202.841 128.864 201.633 130.417 201.633C131.9 201.633 132.872 202.732 132.878 204.234H127.777ZM138.783 196.909H136.872V210H138.783V196.909ZM145.49 210.198C147.81 210.198 149.312 208.805 149.523 206.893H147.663C147.42 207.955 146.596 208.581 145.503 208.581C143.885 208.581 142.843 207.232 142.843 205.091C142.843 202.988 143.905 201.665 145.503 201.665C146.717 201.665 147.459 202.432 147.663 203.352H149.523C149.319 201.371 147.701 200.054 145.471 200.054C142.703 200.054 140.913 202.138 140.913 205.136C140.913 208.095 142.639 210.198 145.49 210.198ZM155.703 210.198C158.47 210.198 160.279 208.172 160.279 205.136C160.279 202.08 158.47 200.054 155.703 200.054C152.935 200.054 151.126 202.08 151.126 205.136C151.126 208.172 152.935 210.198 155.703 210.198ZM155.709 208.594C153.9 208.594 153.056 207.015 153.056 205.129C153.056 203.25 153.9 201.652 155.709 201.652C157.505 201.652 158.349 203.25 158.349 205.129C158.349 207.015 157.505 208.594 155.709 208.594ZM162.413 210H164.324V203.947C164.324 202.624 165.251 201.703 166.337 201.703C167.399 201.703 168.134 202.406 168.134 203.474V210H170.038V203.742C170.038 202.56 170.761 201.703 172.007 201.703C173.017 201.703 173.848 202.266 173.848 203.595V210H175.759V203.416C175.759 201.173 174.506 200.054 172.729 200.054C171.317 200.054 170.256 200.732 169.783 201.78H169.68C169.252 200.706 168.351 200.054 167.041 200.054C165.743 200.054 164.778 200.7 164.369 201.78H164.247V200.182H162.413V210ZM182.552 210.198C184.694 210.198 186.209 209.143 186.643 207.545L184.834 207.219C184.489 208.146 183.658 208.619 182.572 208.619C180.935 208.619 179.836 207.558 179.785 205.666H186.765V204.989C186.765 201.441 184.643 200.054 182.418 200.054C179.682 200.054 177.88 202.138 177.88 205.155C177.88 208.204 179.657 210.198 182.552 210.198ZM179.791 204.234C179.868 202.841 180.878 201.633 182.431 201.633C183.914 201.633 184.886 202.732 184.892 204.234H179.791ZM198.232 200.182H196.219V197.83H194.307V200.182H192.869V201.716H194.307V207.513C194.301 209.297 195.663 210.16 197.171 210.128C197.778 210.121 198.187 210.006 198.411 209.923L198.066 208.344C197.938 208.37 197.702 208.428 197.395 208.428C196.775 208.428 196.219 208.223 196.219 207.117V201.716H198.232V200.182ZM204.376 210.198C207.144 210.198 208.953 208.172 208.953 205.136C208.953 202.08 207.144 200.054 204.376 200.054C201.609 200.054 199.8 202.08 199.8 205.136C199.8 208.172 201.609 210.198 204.376 210.198ZM204.383 208.594C202.574 208.594 201.73 207.015 201.73 205.129C201.73 203.25 202.574 201.652 204.383 201.652C206.179 201.652 207.023 203.25 207.023 205.129C207.023 207.015 206.179 208.594 204.383 208.594ZM217.761 204.17C217.761 202.604 218.72 201.71 220.05 201.71C221.347 201.71 222.134 202.56 222.134 203.985V210H224.045V203.755C224.045 201.326 222.709 200.054 220.702 200.054C219.225 200.054 218.26 200.738 217.806 201.78H217.685V200.182H215.85V210H217.761V204.17ZM230.84 210.198C232.981 210.198 234.496 209.143 234.93 207.545L233.122 207.219C232.776 208.146 231.945 208.619 230.859 208.619C229.222 208.619 228.123 207.558 228.072 205.666H235.052V204.989C235.052 201.441 232.93 200.054 230.705 200.054C227.97 200.054 226.167 202.138 226.167 205.155C226.167 208.204 227.944 210.198 230.84 210.198ZM228.078 204.234C228.155 202.841 229.165 201.633 230.718 201.633C232.201 201.633 233.173 202.732 233.179 204.234H228.078ZM239.283 210H241.227L243.221 202.911H243.368L245.362 210H247.312L250.195 200.182H248.22L246.308 207.36H246.212L244.295 200.182H242.32L240.389 207.392H240.293L238.369 200.182H236.394L239.283 210ZM252.037 210L253.239 206.536H258.353L259.548 210H261.644L256.933 196.909H254.652L249.941 210H252.037ZM253.814 204.874L255.745 199.287H255.847L257.777 204.874H253.814ZM263.381 213.682H265.293V208.472H265.408C265.753 209.099 266.456 210.192 268.246 210.192C270.624 210.192 272.349 208.287 272.349 205.11C272.349 201.927 270.598 200.054 268.227 200.054C266.405 200.054 265.747 201.166 265.408 201.773H265.248V200.182H263.381V213.682ZM265.254 205.091C265.254 203.039 266.149 201.678 267.818 201.678C269.55 201.678 270.419 203.141 270.419 205.091C270.419 207.06 269.524 208.562 267.818 208.562C266.175 208.562 265.254 207.156 265.254 205.091ZM274.491 213.682H276.402V208.472H276.517C276.862 209.099 277.565 210.192 279.355 210.192C281.733 210.192 283.459 208.287 283.459 205.11C283.459 201.927 281.707 200.054 279.336 200.054C277.514 200.054 276.856 201.166 276.517 201.773H276.357V200.182H274.491V213.682ZM276.364 205.091C276.364 203.039 277.259 201.678 278.927 201.678C280.659 201.678 281.528 203.141 281.528 205.091C281.528 207.06 280.634 208.562 278.927 208.562C277.284 208.562 276.364 207.156 276.364 205.091ZM288.01 196.909H285.907L286.073 206.235H287.844L288.01 196.909ZM286.955 210.121C287.652 210.121 288.234 209.553 288.234 208.843C288.234 208.146 287.652 207.571 286.955 207.571C286.252 207.571 285.677 208.146 285.677 208.843C285.677 209.553 286.252 210.121 286.955 210.121Z" fill="white"/>
<path d="M109.823 232H111.144V228.016H113.53C116.071 228.016 117.216 226.471 117.216 224.543C117.216 222.614 116.071 221.091 113.509 221.091H109.823V232ZM111.144 226.844V222.263H113.466C115.24 222.263 115.917 223.232 115.917 224.543C115.917 225.853 115.24 226.844 113.488 226.844H111.144ZM120.431 221.091H119.174V232H120.431V221.091ZM126.164 232.17C127.826 232.17 129.04 231.339 129.424 230.104L128.209 229.763C127.89 230.615 127.149 231.041 126.164 231.041C124.688 231.041 123.671 230.088 123.612 228.335H129.552V227.803C129.552 224.756 127.741 223.712 126.036 223.712C123.82 223.712 122.35 225.459 122.35 227.973C122.35 230.487 123.799 232.17 126.164 232.17ZM123.612 227.249C123.698 225.975 124.598 224.841 126.036 224.841C127.4 224.841 128.273 225.864 128.273 227.249H123.612ZM133.872 232.192C135.299 232.192 136.045 231.425 136.301 230.892H136.365V232H137.622V226.609C137.622 224.01 135.64 223.712 134.596 223.712C133.36 223.712 131.954 224.138 131.315 225.629L132.508 226.055C132.785 225.459 133.44 224.82 134.639 224.82C135.795 224.82 136.365 225.432 136.365 226.482V226.524C136.365 227.131 135.747 227.078 134.255 227.27C132.737 227.467 131.08 227.803 131.08 229.678C131.08 231.276 132.316 232.192 133.872 232.192ZM134.063 231.062C133.062 231.062 132.338 230.615 132.338 229.741C132.338 228.783 133.211 228.484 134.191 228.357C134.724 228.293 136.152 228.143 136.365 227.888V229.038C136.365 230.061 135.555 231.062 134.063 231.062ZM145.712 225.651C145.317 224.489 144.433 223.712 142.814 223.712C141.088 223.712 139.81 224.692 139.81 226.077C139.81 227.206 140.481 227.962 141.983 228.314L143.347 228.634C144.172 228.825 144.561 229.219 144.561 229.784C144.561 230.487 143.815 231.062 142.643 231.062C141.615 231.062 140.971 230.62 140.747 229.741L139.554 230.04C139.847 231.43 140.992 232.17 142.665 232.17C144.566 232.17 145.861 231.132 145.861 229.72C145.861 228.58 145.147 227.861 143.687 227.504L142.473 227.206C141.504 226.966 141.067 226.641 141.067 226.013C141.067 225.31 141.812 224.798 142.814 224.798C143.911 224.798 144.364 225.406 144.582 225.97L145.712 225.651ZM151.183 232.17C152.845 232.17 154.06 231.339 154.443 230.104L153.229 229.763C152.909 230.615 152.169 231.041 151.183 231.041C149.708 231.041 148.691 230.088 148.632 228.335H154.571V227.803C154.571 224.756 152.76 223.712 151.056 223.712C148.84 223.712 147.37 225.459 147.37 227.973C147.37 230.487 148.818 232.17 151.183 232.17ZM148.632 227.249C148.717 225.975 149.617 224.841 151.056 224.841C152.419 224.841 153.293 225.864 153.293 227.249H148.632ZM166.498 225.651C166.104 224.489 165.219 223.712 163.6 223.712C161.874 223.712 160.596 224.692 160.596 226.077C160.596 227.206 161.267 227.962 162.769 228.314L164.133 228.634C164.958 228.825 165.347 229.219 165.347 229.784C165.347 230.487 164.601 231.062 163.43 231.062C162.402 231.062 161.757 230.62 161.533 229.741L160.34 230.04C160.633 231.43 161.778 232.17 163.451 232.17C165.353 232.17 166.647 231.132 166.647 229.72C166.647 228.58 165.933 227.861 164.474 227.504L163.259 227.206C162.29 226.966 161.853 226.641 161.853 226.013C161.853 225.31 162.599 224.798 163.6 224.798C164.697 224.798 165.15 225.406 165.368 225.97L166.498 225.651ZM168.539 232H169.796V223.818H168.539V232ZM169.178 222.455C169.668 222.455 170.073 222.071 170.073 221.602C170.073 221.134 169.668 220.75 169.178 220.75C168.688 220.75 168.284 221.134 168.284 221.602C168.284 222.071 168.688 222.455 169.178 222.455ZM175.401 235.239C177.362 235.239 178.938 234.344 178.938 232.234V223.818H177.724V225.118H177.596C177.319 224.692 176.808 223.712 175.21 223.712C173.143 223.712 171.715 225.352 171.715 227.866C171.715 230.423 173.207 231.872 175.188 231.872C176.786 231.872 177.298 230.935 177.575 230.487H177.681V232.149C177.681 233.513 176.722 234.131 175.401 234.131C173.915 234.131 173.393 233.348 173.058 232.895L172.056 233.598C172.568 234.456 173.574 235.239 175.401 235.239ZM175.359 230.743C173.782 230.743 172.972 229.55 172.972 227.845C172.972 226.183 173.761 224.841 175.359 224.841C176.893 224.841 177.702 226.077 177.702 227.845C177.702 229.656 176.872 230.743 175.359 230.743ZM182.497 227.078C182.497 225.651 183.381 224.841 184.585 224.841C185.751 224.841 186.46 225.603 186.46 226.886V232H187.717V226.801C187.717 224.713 186.603 223.712 184.947 223.712C183.711 223.712 182.944 224.266 182.56 225.097H182.454V223.818H181.239V232H182.497V227.078ZM194.233 232H195.49V223.818H194.233V232ZM194.872 222.455C195.362 222.455 195.767 222.071 195.767 221.602C195.767 221.134 195.362 220.75 194.872 220.75C194.382 220.75 193.977 221.134 193.977 221.602C193.977 222.071 194.382 222.455 194.872 222.455ZM199.049 227.078C199.049 225.651 199.933 224.841 201.137 224.841C202.304 224.841 203.012 225.603 203.012 226.886V232H204.269V226.801C204.269 224.713 203.156 223.712 201.5 223.712C200.264 223.712 199.497 224.266 199.113 225.097H199.007V223.818H197.792V232H199.049V227.078ZM214.344 223.818H212.596V221.858H211.339V223.818H210.103V224.884H211.339V229.997C211.339 231.425 212.49 232.107 213.555 232.107C214.024 232.107 214.322 232.021 214.493 231.957L214.237 230.828C214.13 230.849 213.96 230.892 213.683 230.892C213.129 230.892 212.596 230.722 212.596 229.656V224.884H214.344V223.818ZM219.471 232.17C221.686 232.17 223.178 230.487 223.178 227.952C223.178 225.395 221.686 223.712 219.471 223.712C217.255 223.712 215.763 225.395 215.763 227.952C215.763 230.487 217.255 232.17 219.471 232.17ZM219.471 231.041C217.787 231.041 217.02 229.592 217.02 227.952C217.02 226.311 217.787 224.841 219.471 224.841C221.154 224.841 221.921 226.311 221.921 227.952C221.921 229.592 221.154 231.041 219.471 231.041ZM232.639 232.17C234.451 232.17 235.644 231.062 235.857 229.614H234.6C234.365 230.509 233.62 231.041 232.639 231.041C231.148 231.041 230.189 229.805 230.189 227.909C230.189 226.055 231.169 224.841 232.639 224.841C233.747 224.841 234.408 225.523 234.6 226.268H235.857C235.644 224.734 234.344 223.712 232.618 223.712C230.402 223.712 228.932 225.459 228.932 227.952C228.932 230.402 230.338 232.17 232.639 232.17ZM241.018 232.17C243.234 232.17 244.726 230.487 244.726 227.952C244.726 225.395 243.234 223.712 241.018 223.712C238.802 223.712 237.311 225.395 237.311 227.952C237.311 230.487 238.802 232.17 241.018 232.17ZM241.018 231.041C239.335 231.041 238.568 229.592 238.568 227.952C238.568 226.311 239.335 224.841 241.018 224.841C242.702 224.841 243.469 226.311 243.469 227.952C243.469 229.592 242.702 231.041 241.018 231.041ZM247.902 227.078C247.902 225.651 248.786 224.841 249.99 224.841C251.156 224.841 251.865 225.603 251.865 226.886V232H253.122V226.801C253.122 224.713 252.009 223.712 250.352 223.712C249.116 223.712 248.349 224.266 247.966 225.097H247.859V223.818H246.645V232H247.902V227.078ZM258.977 223.818H257.23V221.858H255.973V223.818H254.737V224.884H255.973V229.997C255.973 231.425 257.124 232.107 258.189 232.107C258.658 232.107 258.956 232.021 259.126 231.957L258.871 230.828C258.764 230.849 258.594 230.892 258.317 230.892C257.763 230.892 257.23 230.722 257.23 229.656V224.884H258.977V223.818ZM260.868 232H262.125V223.818H260.868V232ZM261.508 222.455C261.998 222.455 262.402 222.071 262.402 221.602C262.402 221.134 261.998 220.75 261.508 220.75C261.017 220.75 260.613 221.134 260.613 221.602C260.613 222.071 261.017 222.455 261.508 222.455ZM265.685 227.078C265.685 225.651 266.569 224.841 267.773 224.841C268.94 224.841 269.648 225.603 269.648 226.886V232H270.905V226.801C270.905 224.713 269.792 223.712 268.135 223.712C266.899 223.712 266.132 224.266 265.749 225.097H265.642V223.818H264.428V232H265.685V227.078ZM278.359 228.655C278.359 230.189 277.187 230.892 276.249 230.892C275.205 230.892 274.459 230.125 274.459 228.932V223.818H273.202V229.017C273.202 231.105 274.31 232.107 275.844 232.107C277.08 232.107 277.89 231.446 278.273 230.615H278.359V232H279.616V223.818H278.359V228.655ZM285.349 232.17C287.01 232.17 288.225 231.339 288.608 230.104L287.394 229.763C287.074 230.615 286.334 231.041 285.349 231.041C283.873 231.041 282.856 230.088 282.797 228.335H288.736V227.803C288.736 224.756 286.925 223.712 285.221 223.712C283.005 223.712 281.535 225.459 281.535 227.973C281.535 230.487 282.983 232.17 285.349 232.17ZM282.797 227.249C282.882 225.975 283.782 224.841 285.221 224.841C286.584 224.841 287.458 225.864 287.458 227.249H282.797Z" fill="white"/>
<path d="M83 266C83 263.791 84.7908 262 87 262H311C313.209 262 315 263.791 315 266V294C315 296.209 313.209 298 311 298H87C84.7908 298 83 296.209 83 294V266Z" fill="white" fill-opacity="0.1"/>
<path d="M94.321 285H100.99V283.828H95.642V280.121H100.564V278.949H95.642V275.263H100.905V274.091H94.321V285ZM103.115 285H104.372V279.886C104.372 278.688 105.246 277.841 106.226 277.841C107.18 277.841 107.846 278.464 107.846 279.396V285H109.124V279.673C109.124 278.619 109.784 277.841 110.935 277.841C111.83 277.841 112.597 278.315 112.597 279.524V285H113.854V279.524C113.854 277.601 112.821 276.712 111.361 276.712C110.189 276.712 109.332 277.25 108.911 278.097H108.826C108.421 277.223 107.707 276.712 106.631 276.712C105.566 276.712 104.777 277.223 104.436 278.097H104.33V276.818H103.115V285ZM118.56 285.192C119.988 285.192 120.733 284.425 120.989 283.892H121.053V285H122.31V279.609C122.31 277.01 120.329 276.712 119.285 276.712C118.049 276.712 116.643 277.138 116.003 278.629L117.197 279.055C117.474 278.459 118.129 277.82 119.327 277.82C120.483 277.82 121.053 278.432 121.053 279.482V279.524C121.053 280.131 120.435 280.078 118.944 280.27C117.426 280.467 115.769 280.803 115.769 282.678C115.769 284.276 117.005 285.192 118.56 285.192ZM118.752 284.062C117.751 284.062 117.026 283.615 117.026 282.741C117.026 281.783 117.9 281.484 118.88 281.357C119.412 281.293 120.84 281.143 121.053 280.888V282.038C121.053 283.061 120.243 284.062 118.752 284.062ZM124.605 285H125.862V276.818H124.605V285ZM125.244 275.455C125.734 275.455 126.139 275.071 126.139 274.602C126.139 274.134 125.734 273.75 125.244 273.75C124.754 273.75 124.349 274.134 124.349 274.602C124.349 275.071 124.754 275.455 125.244 275.455ZM129.421 274.091H128.164V285H129.421V274.091Z" fill="white" fill-opacity="0.4"/>
<path d="M83 312C83 309.791 84.7908 308 87 308H311C313.209 308 315 309.791 315 312V340C315 342.209 313.209 344 311 344H87C84.7908 344 83 342.209 83 340V312Z" fill="white" fill-opacity="0.1"/>
<path d="M94.321 331H95.642V327.016H98.0284C100.569 327.016 101.714 325.471 101.714 323.543C101.714 321.614 100.569 320.091 98.0071 320.091H94.321V331ZM95.642 325.844V321.263H97.9645C99.7383 321.263 100.415 322.232 100.415 323.543C100.415 324.853 99.7383 325.844 97.9858 325.844H95.642ZM106.08 331.192C107.507 331.192 108.253 330.425 108.509 329.892H108.573V331H109.83V325.609C109.83 323.01 107.848 322.712 106.804 322.712C105.568 322.712 104.162 323.138 103.523 324.629L104.716 325.055C104.993 324.459 105.648 323.82 106.847 323.82C108.003 323.82 108.573 324.432 108.573 325.482V325.524C108.573 326.131 107.955 326.078 106.463 326.27C104.945 326.467 103.289 326.803 103.289 328.678C103.289 330.276 104.524 331.192 106.08 331.192ZM106.271 330.062C105.27 330.062 104.546 329.615 104.546 328.741C104.546 327.783 105.419 327.484 106.399 327.357C106.932 327.293 108.36 327.143 108.573 326.888V328.038C108.573 329.061 107.763 330.062 106.271 330.062ZM117.92 324.651C117.525 323.489 116.641 322.712 115.022 322.712C113.296 322.712 112.018 323.692 112.018 325.077C112.018 326.206 112.689 326.962 114.191 327.314L115.555 327.634C116.38 327.825 116.769 328.219 116.769 328.784C116.769 329.487 116.023 330.062 114.851 330.062C113.823 330.062 113.179 329.62 112.955 328.741L111.762 329.04C112.055 330.43 113.2 331.17 114.873 331.17C116.774 331.17 118.069 330.132 118.069 328.72C118.069 327.58 117.355 326.861 115.895 326.504L114.681 326.206C113.712 325.966 113.275 325.641 113.275 325.013C113.275 324.31 114.02 323.798 115.022 323.798C116.119 323.798 116.572 324.406 116.79 324.97L117.92 324.651ZM125.757 324.651C125.362 323.489 124.478 322.712 122.859 322.712C121.133 322.712 119.855 323.692 119.855 325.077C119.855 326.206 120.526 326.962 122.028 327.314L123.391 327.634C124.217 327.825 124.606 328.219 124.606 328.784C124.606 329.487 123.86 330.062 122.688 330.062C121.66 330.062 121.016 329.62 120.792 328.741L119.599 329.04C119.892 330.43 121.037 331.17 122.71 331.17C124.611 331.17 125.906 330.132 125.906 328.72C125.906 327.58 125.192 326.861 123.732 326.504L122.518 326.206C121.548 325.966 121.112 325.641 121.112 325.013C121.112 324.31 121.857 323.798 122.859 323.798C123.956 323.798 124.409 324.406 124.627 324.97L125.757 324.651ZM129.652 331H130.887L132.677 324.714H132.805L134.595 331H135.831L138.324 322.818H137.003L135.234 329.061H135.149L133.423 322.818H132.081L130.334 329.082H130.248L128.48 322.818H127.159L129.652 331ZM143.031 331.17C145.247 331.17 146.738 329.487 146.738 326.952C146.738 324.395 145.247 322.712 143.031 322.712C140.815 322.712 139.324 324.395 139.324 326.952C139.324 329.487 140.815 331.17 143.031 331.17ZM143.031 330.041C141.348 330.041 140.581 328.592 140.581 326.952C140.581 325.311 141.348 323.841 143.031 323.841C144.714 323.841 145.481 325.311 145.481 326.952C145.481 328.592 144.714 330.041 143.031 330.041ZM148.657 331H149.914V325.822C149.914 324.714 150.788 323.905 151.981 323.905C152.317 323.905 152.663 323.969 152.748 323.99V322.712C152.604 322.701 152.274 322.69 152.088 322.69C151.108 322.69 150.255 323.244 149.957 324.054H149.872V322.818H148.657V331ZM157.079 331.17C158.656 331.17 159.188 330.19 159.465 329.743H159.614V331H160.829V320.091H159.572V324.118H159.465C159.188 323.692 158.698 322.712 157.1 322.712C155.033 322.712 153.606 324.352 153.606 326.93C153.606 329.53 155.033 331.17 157.079 331.17ZM157.249 330.041C155.673 330.041 154.863 328.656 154.863 326.909C154.863 325.183 155.651 323.841 157.249 323.841C158.783 323.841 159.593 325.077 159.593 326.909C159.593 328.763 158.762 330.041 157.249 330.041Z" fill="white" fill-opacity="0.4"/>
<path d="M83 358C83 355.791 84.7908 354 87 354H311C313.209 354 315 355.791 315 358V386C315 388.209 313.209 390 311 390H87C84.7908 390 83 388.209 83 386V358Z" fill="#9C73DF"/>
<path d="M83 358C83 355.791 84.7908 354 87 354H311C313.209 354 315 355.791 315 358V386C315 388.209 313.209 390 311 390H87C84.7908 390 83 388.209 83 386V358Z" fill="url(#paint7_radial)" fill-opacity="0.65"/>
<path d="M178.148 368.957H179.736C179.688 367.21 178.143 365.942 175.927 365.942C173.738 365.942 172.06 367.194 172.06 369.074C172.06 370.592 173.147 371.482 174.899 371.956L176.188 372.307C177.355 372.616 178.255 373 178.255 373.969C178.255 375.034 177.238 375.738 175.837 375.738C174.569 375.738 173.514 375.173 173.418 373.985H171.767C171.874 375.961 173.402 377.181 175.847 377.181C178.409 377.181 179.885 375.833 179.885 373.985C179.885 372.02 178.132 371.258 176.747 370.917L175.682 370.64C174.83 370.422 173.695 370.022 173.701 368.978C173.701 368.051 174.548 367.364 175.89 367.364C177.142 367.364 178.031 367.95 178.148 368.957ZM181.724 377H183.317V368.818H181.724V377ZM182.528 367.556C183.077 367.556 183.535 367.13 183.535 366.608C183.535 366.086 183.077 365.654 182.528 365.654C181.974 365.654 181.522 366.086 181.522 366.608C181.522 367.13 181.974 367.556 182.528 367.556ZM188.89 380.239C190.972 380.239 192.581 379.285 192.581 377.181V368.818H191.02V370.145H190.903C190.621 369.638 190.056 368.712 188.533 368.712C186.557 368.712 185.102 370.272 185.102 372.877C185.102 375.487 186.589 376.877 188.522 376.877C190.024 376.877 190.605 376.031 190.893 375.509H190.994V377.117C190.994 378.401 190.115 378.955 188.906 378.955C187.579 378.955 187.063 378.289 186.78 377.82L185.411 378.385C185.843 379.386 186.935 380.239 188.89 380.239ZM188.874 375.556C187.451 375.556 186.711 374.464 186.711 372.856C186.711 371.284 187.436 370.065 188.874 370.065C190.264 370.065 191.01 371.199 191.01 372.856C191.01 374.544 190.248 375.556 188.874 375.556ZM196.31 372.142C196.31 370.837 197.109 370.091 198.217 370.091C199.298 370.091 199.953 370.8 199.953 371.988V377H201.546V371.796C201.546 369.772 200.433 368.712 198.76 368.712C197.53 368.712 196.725 369.282 196.347 370.15H196.246V368.818H194.717V377H196.31V372.142ZM214.795 366.091V373.133C214.795 374.614 213.772 375.679 212.11 375.679C210.454 375.679 209.425 374.614 209.425 373.133V366.091H207.78V373.266C207.78 375.556 209.495 377.181 212.11 377.181C214.726 377.181 216.446 375.556 216.446 373.266V366.091H214.795ZM218.711 380.068H220.304V375.727H220.4C220.687 376.249 221.273 377.16 222.765 377.16C224.746 377.16 226.185 375.572 226.185 372.925C226.185 370.272 224.725 368.712 222.749 368.712C221.231 368.712 220.682 369.638 220.4 370.145H220.267V368.818H218.711V380.068ZM220.272 372.909C220.272 371.199 221.018 370.065 222.408 370.065C223.852 370.065 224.576 371.284 224.576 372.909C224.576 374.55 223.83 375.801 222.408 375.801C221.039 375.801 220.272 374.63 220.272 372.909Z" fill="white"/>
<path d="M196.12 422.165C198.426 422.165 199.933 420.477 199.933 417.946C199.933 415.4 198.426 413.712 196.12 413.712C193.813 413.712 192.306 415.4 192.306 417.946C192.306 420.477 193.813 422.165 196.12 422.165ZM196.125 420.828C194.617 420.828 193.914 419.512 193.914 417.941C193.914 416.375 194.617 415.043 196.125 415.043C197.622 415.043 198.325 416.375 198.325 417.941C198.325 419.512 197.622 420.828 196.125 420.828ZM201.711 422H203.304V417.004C203.304 415.933 204.13 415.161 205.259 415.161C205.589 415.161 205.962 415.219 206.09 415.256V413.733C205.93 413.712 205.616 413.696 205.413 413.696C204.455 413.696 203.634 414.239 203.336 415.118H203.251V413.818H201.711V422Z" fill="white" fill-opacity="0.4"/>
<path d="M83 448C83 445.791 84.7908 444 87 444H311C313.209 444 315 445.791 315 448V476C315 478.209 313.209 480 311 480H87C84.7908 480 83 478.209 83 476V448Z" fill="white"/>
<path fill-rule="evenodd" clip-rule="evenodd" d="M125.72 462.159C125.72 461.663 125.675 461.185 125.593 460.727H119V463.435H122.767C122.605 464.31 122.112 465.051 121.37 465.548V467.304H123.633C124.956 466.085 125.72 464.291 125.72 462.159Z" fill="#4285F4"/>
<path fill-rule="evenodd" clip-rule="evenodd" d="M119 469C120.89 469 122.474 468.373 123.633 467.304L121.37 465.548C120.744 465.968 119.942 466.216 119 466.216C117.177 466.216 115.634 464.985 115.083 463.33H112.745V465.144C113.896 467.431 116.264 469 119 469Z" fill="#34A853"/>
<path fill-rule="evenodd" clip-rule="evenodd" d="M115.083 463.33C114.943 462.91 114.864 462.461 114.864 462C114.864 461.539 114.943 461.09 115.083 460.67V458.856H112.745C112.27 459.801 112 460.87 112 462C112 463.129 112.27 464.199 112.745 465.144L115.083 463.33Z" fill="#FBBC05"/>
<path fill-rule="evenodd" clip-rule="evenodd" d="M119 457.784C120.028 457.784 120.95 458.137 121.676 458.831L123.684 456.823C122.471 455.694 120.887 455 119 455C116.264 455 113.896 456.569 112.745 458.856L115.083 460.67C115.634 459.015 117.177 457.784 119 457.784Z" fill="#EA4335"/>
<path d="M142.259 459.638C141.886 457.305 140.059 455.942 137.753 455.942C134.93 455.942 132.847 458.056 132.847 461.545C132.847 465.034 134.919 467.149 137.753 467.149C140.15 467.149 141.902 465.647 142.259 463.49L140.597 463.484C140.315 464.88 139.143 465.647 137.763 465.647C135.894 465.647 134.482 464.214 134.482 461.545C134.482 458.898 135.888 457.444 137.769 457.444C139.159 457.444 140.326 458.227 140.597 459.638H142.259ZM147.547 467.165C149.854 467.165 151.361 465.477 151.361 462.946C151.361 460.4 149.854 458.712 147.547 458.712C145.241 458.712 143.733 460.4 143.733 462.946C143.733 465.477 145.241 467.165 147.547 467.165ZM147.553 465.828C146.045 465.828 145.342 464.512 145.342 462.941C145.342 461.375 146.045 460.043 147.553 460.043C149.049 460.043 149.753 461.375 149.753 462.941C149.753 464.512 149.049 465.828 147.553 465.828ZM154.732 462.142C154.732 460.837 155.531 460.091 156.639 460.091C157.72 460.091 158.375 460.8 158.375 461.988V467H159.968V461.796C159.968 459.772 158.855 458.712 157.182 458.712C155.951 458.712 155.147 459.282 154.769 460.15H154.668V458.818H153.139V467H154.732V462.142ZM165.923 458.818H164.245V456.858H162.652V458.818H161.454V460.097H162.652V464.928C162.647 466.414 163.782 467.133 165.039 467.107C165.545 467.101 165.886 467.005 166.072 466.936L165.785 465.62C165.678 465.642 165.481 465.69 165.225 465.69C164.709 465.69 164.245 465.519 164.245 464.598V460.097H165.923V458.818ZM167.685 467H169.278V458.818H167.685V467ZM168.489 457.556C169.038 457.556 169.496 457.13 169.496 456.608C169.496 456.086 169.038 455.654 168.489 455.654C167.935 455.654 167.482 456.086 167.482 456.608C167.482 457.13 167.935 457.556 168.489 457.556ZM173.013 462.142C173.013 460.837 173.812 460.091 174.92 460.091C176.001 460.091 176.656 460.8 176.656 461.988V467H178.249V461.796C178.249 459.772 177.136 458.712 175.463 458.712C174.233 458.712 173.428 459.282 173.05 460.15H172.949V458.818H171.42V467H173.013V462.142ZM185.568 463.607C185.573 464.997 184.54 465.658 183.645 465.658C182.66 465.658 181.978 464.944 181.978 463.831V458.818H180.385V464.022C180.385 466.052 181.498 467.107 183.07 467.107C184.3 467.107 185.137 466.457 185.515 465.583H185.6V467H187.166V458.818H185.568V463.607ZM192.832 467.165C194.617 467.165 195.879 466.286 196.241 464.955L194.734 464.683C194.446 465.455 193.754 465.849 192.848 465.849C191.485 465.849 190.568 464.965 190.526 463.388H196.343V462.824C196.343 459.868 194.574 458.712 192.72 458.712C190.441 458.712 188.938 460.448 188.938 462.962C188.938 465.503 190.419 467.165 192.832 467.165ZM190.531 462.195C190.595 461.034 191.437 460.027 192.731 460.027C193.967 460.027 194.777 460.944 194.782 462.195H190.531ZM203.853 467H205.473L207.134 461.093H207.257L208.919 467H210.544L212.946 458.818H211.3L209.707 464.8H209.627L208.029 458.818H206.383L204.775 464.827H204.695L203.092 458.818H201.446L203.853 467ZM214.457 467H216.05V458.818H214.457V467ZM215.262 457.556C215.81 457.556 216.268 457.13 216.268 456.608C216.268 456.086 215.81 455.654 215.262 455.654C214.708 455.654 214.255 456.086 214.255 456.608C214.255 457.13 214.708 457.556 215.262 457.556ZM222.012 458.818H220.334V456.858H218.741V458.818H217.543V460.097H218.741V464.928C218.736 466.414 219.871 467.133 221.128 467.107C221.634 467.101 221.975 467.005 222.161 466.936L221.873 465.62C221.767 465.642 221.57 465.69 221.314 465.69C220.797 465.69 220.334 465.519 220.334 464.598V460.097H222.012V458.818ZM225.542 462.142C225.542 460.837 226.368 460.091 227.502 460.091C228.6 460.091 229.255 460.789 229.255 461.988V467H230.848V461.796C230.848 459.756 229.729 458.712 228.046 458.712C226.773 458.712 226.006 459.266 225.622 460.15H225.521V456.091H223.95V467H225.542V462.142ZM244.453 459.537H246.142C245.774 457.412 243.958 455.942 241.604 455.942C238.78 455.942 236.719 458.067 236.719 461.551C236.719 465.002 238.722 467.149 241.678 467.149C244.326 467.149 246.217 465.413 246.217 462.659V461.418H241.929V462.776H244.624C244.587 464.534 243.425 465.647 241.678 465.647C239.755 465.647 238.354 464.193 238.354 461.54C238.354 458.898 239.766 457.444 241.614 457.444C243.063 457.444 244.043 458.243 244.453 459.537ZM251.624 467.165C253.931 467.165 255.438 465.477 255.438 462.946C255.438 460.4 253.931 458.712 251.624 458.712C249.318 458.712 247.811 460.4 247.811 462.946C247.811 465.477 249.318 467.165 251.624 467.165ZM251.63 465.828C250.122 465.828 249.419 464.512 249.419 462.941C249.419 461.375 250.122 460.043 251.63 460.043C253.127 460.043 253.83 461.375 253.83 462.941C253.83 464.512 253.127 465.828 251.63 465.828ZM260.663 467.165C262.969 467.165 264.476 465.477 264.476 462.946C264.476 460.4 262.969 458.712 260.663 458.712C258.356 458.712 256.849 460.4 256.849 462.946C256.849 465.477 258.356 467.165 260.663 467.165ZM260.668 465.828C259.16 465.828 258.457 464.512 258.457 462.941C258.457 461.375 259.16 460.043 260.668 460.043C262.165 460.043 262.868 461.375 262.868 462.941C262.868 464.512 262.165 465.828 260.668 465.828ZM269.685 470.239C271.767 470.239 273.376 469.285 273.376 467.181V458.818H271.815V460.145H271.698C271.416 459.638 270.851 458.712 269.328 458.712C267.352 458.712 265.897 460.272 265.897 462.877C265.897 465.487 267.383 466.877 269.317 466.877C270.819 466.877 271.4 466.031 271.687 465.509H271.789V467.117C271.789 468.401 270.91 468.955 269.701 468.955C268.374 468.955 267.858 468.289 267.575 467.82L266.206 468.385C266.638 469.386 267.73 470.239 269.685 470.239ZM269.669 465.556C268.246 465.556 267.506 464.464 267.506 462.856C267.506 461.284 268.23 460.065 269.669 460.065C271.059 460.065 271.805 461.199 271.805 462.856C271.805 464.544 271.043 465.556 269.669 465.556ZM277.105 456.091H275.512V467H277.105V456.091ZM282.774 467.165C284.558 467.165 285.821 466.286 286.183 464.955L284.675 464.683C284.388 465.455 283.695 465.849 282.79 465.849C281.426 465.849 280.51 464.965 280.467 463.388H286.284V462.824C286.284 459.868 284.516 458.712 282.662 458.712C280.382 458.712 278.88 460.448 278.88 462.962C278.88 465.503 280.361 467.165 282.774 467.165ZM280.473 462.195C280.536 461.034 281.378 460.027 282.672 460.027C283.908 460.027 284.718 460.944 284.723 462.195H280.473Z" fill="#21324B"/>
<path d="M165.059 726.142C165.059 724.837 165.858 724.091 166.966 724.091C168.047 724.091 168.702 724.8 168.702 725.988V731H170.295V725.796C170.295 723.772 169.182 722.712 167.509 722.712C166.279 722.712 165.474 723.282 165.096 724.15H164.995V722.818H163.466V731H165.059V726.142ZM175.957 731.165C177.742 731.165 179.004 730.286 179.366 728.955L177.859 728.683C177.571 729.455 176.879 729.849 175.973 729.849C174.61 729.849 173.693 728.965 173.651 727.388H179.468V726.824C179.468 723.868 177.699 722.712 175.845 722.712C173.566 722.712 172.063 724.448 172.063 726.962C172.063 729.503 173.544 731.165 175.957 731.165ZM173.656 726.195C173.72 725.034 174.562 724.027 175.856 724.027C177.092 724.027 177.902 724.944 177.907 726.195H173.656ZM182.994 731H184.613L186.275 725.093H186.398L188.06 731H189.684L192.087 722.818H190.441L188.848 728.8H188.768L187.17 722.818H185.524L183.915 728.827H183.835L182.232 722.818H180.586L182.994 731ZM195.979 731.181C197.332 731.181 198.094 730.494 198.397 729.881H198.461V731H200.017V725.567C200.017 723.186 198.142 722.712 196.842 722.712C195.361 722.712 193.997 723.308 193.465 724.8L194.962 725.141C195.196 724.56 195.793 724.001 196.863 724.001C197.891 724.001 198.419 724.539 198.419 725.466V725.503C198.419 726.083 197.822 726.073 196.352 726.243C194.802 726.424 193.214 726.829 193.214 728.688C193.214 730.297 194.424 731.181 195.979 731.181ZM196.325 729.903C195.425 729.903 194.775 729.498 194.775 728.71C194.775 727.857 195.532 727.554 196.453 727.431C196.97 727.362 198.195 727.223 198.424 726.994V728.049C198.424 729.018 197.652 729.903 196.325 729.903ZM202.138 734.068H203.731V729.727H203.827C204.114 730.249 204.7 731.16 206.192 731.16C208.173 731.16 209.611 729.572 209.611 726.925C209.611 724.272 208.152 722.712 206.176 722.712C204.658 722.712 204.109 723.638 203.827 724.145H203.693V722.818H202.138V734.068ZM203.699 726.909C203.699 725.199 204.444 724.065 205.835 724.065C207.278 724.065 208.003 725.284 208.003 726.909C208.003 728.55 207.257 729.801 205.835 729.801C204.466 729.801 203.699 728.63 203.699 726.909ZM211.396 734.068H212.989V729.727H213.084C213.372 730.249 213.958 731.16 215.449 731.16C217.431 731.16 218.869 729.572 218.869 726.925C218.869 724.272 217.41 722.712 215.433 722.712C213.915 722.712 213.367 723.638 213.084 724.145H212.951V722.818H211.396V734.068ZM212.957 726.909C212.957 725.199 213.702 724.065 215.093 724.065C216.536 724.065 217.261 725.284 217.261 726.909C217.261 728.55 216.515 729.801 215.093 729.801C213.724 729.801 212.957 728.63 212.957 726.909ZM221.703 731.101C222.284 731.101 222.768 730.627 222.768 730.036C222.768 729.455 222.284 728.976 221.703 728.976C221.117 728.976 220.638 729.455 220.638 730.036C220.638 730.627 221.117 731.101 221.703 731.101ZM224.902 731H226.494V722.818H224.902V731ZM225.706 721.556C226.255 721.556 226.713 721.13 226.713 720.608C226.713 720.086 226.255 719.654 225.706 719.654C225.152 719.654 224.699 720.086 224.699 720.608C224.699 721.13 225.152 721.556 225.706 721.556ZM232.083 731.165C234.39 731.165 235.897 729.477 235.897 726.946C235.897 724.4 234.39 722.712 232.083 722.712C229.777 722.712 228.27 724.4 228.27 726.946C228.27 729.477 229.777 731.165 232.083 731.165ZM232.089 729.828C230.581 729.828 229.878 728.512 229.878 726.941C229.878 725.375 230.581 724.043 232.089 724.043C233.586 724.043 234.289 725.375 234.289 726.941C234.289 728.512 233.586 729.828 232.089 729.828Z" fill="#E7587B"/>
<g clip-path="url(#clip0)">
<g clip-path="url(#clip1)">
<path d="M131.961 110.604C130.874 110.604 130.101 110.032 129.644 108.887C129.215 107.743 129 105.912 129 103.395C129 99.6756 129.529 96.1425 130.588 92.7954C130.845 91.9658 131.26 91.365 131.832 90.9931C132.433 90.5926 133.263 90.3923 134.321 90.3923C134.893 90.3923 135.294 90.4639 135.523 90.6069C135.751 90.7499 135.866 91.0217 135.866 91.4222C135.866 91.8799 135.651 92.9098 135.222 94.5119C134.936 95.6562 134.707 96.6575 134.536 97.5157C134.364 98.3739 134.221 99.4324 134.106 100.691C135.051 98.2309 136.109 96.2284 137.282 94.6835C138.455 93.1387 139.599 92.0373 140.715 91.3793C141.859 90.7213 142.903 90.3923 143.847 90.3923C145.707 90.3923 146.637 91.3221 146.637 93.1816C146.637 94.2973 146.322 96.3142 145.693 99.2322C145.149 101.721 144.877 103.366 144.877 104.167C144.877 105.311 145.292 105.884 146.122 105.884C146.694 105.884 147.366 105.54 148.139 104.854C148.94 104.138 149.998 102.994 151.314 101.421C151.657 101.02 152.044 100.82 152.473 100.82C152.845 100.82 153.131 100.992 153.331 101.335C153.56 101.678 153.674 102.15 153.674 102.751C153.674 103.895 153.403 104.782 152.859 105.411C151.629 106.928 150.299 108.172 148.868 109.145C147.466 110.117 145.864 110.604 144.062 110.604C142.603 110.604 141.502 110.189 140.758 109.359C140.014 108.501 139.642 107.271 139.642 105.669C139.642 104.868 139.842 103.438 140.243 101.378C140.615 99.5755 140.801 98.331 140.801 97.6444C140.801 97.1867 140.643 96.9579 140.329 96.9579C139.957 96.9579 139.428 97.4442 138.741 98.4169C138.083 99.3609 137.396 100.62 136.681 102.193C135.995 103.767 135.437 105.426 135.008 107.171C134.693 108.515 134.321 109.431 133.892 109.917C133.491 110.375 132.848 110.604 131.961 110.604Z" fill="white"/>
<path d="M169.341 100.82C169.713 100.82 169.999 100.992 170.199 101.335C170.428 101.678 170.543 102.15 170.543 102.751C170.543 103.895 170.271 104.782 169.727 105.411C168.669 106.699 167.167 107.886 165.222 108.973C163.305 110.06 161.245 110.604 159.042 110.604C156.038 110.604 153.707 109.789 152.048 108.158C150.388 106.527 149.559 104.296 149.559 101.464C149.559 99.4897 149.974 97.6587 150.803 95.9709C151.633 94.2544 152.777 92.8955 154.236 91.8943C155.724 90.893 157.397 90.3923 159.257 90.3923C160.916 90.3923 162.246 90.893 163.248 91.8943C164.249 92.8669 164.75 94.1972 164.75 95.8851C164.75 97.859 164.034 99.5612 162.604 100.992C161.202 102.393 158.813 103.509 155.438 104.339C156.153 105.655 157.512 106.313 159.514 106.313C160.802 106.313 162.261 105.869 163.891 104.982C165.551 104.067 166.981 102.88 168.183 101.421C168.526 101.02 168.912 100.82 169.341 100.82ZM158.527 94.5977C157.469 94.5977 156.568 95.2128 155.824 96.4429C155.109 97.6731 154.751 99.1607 154.751 100.906V100.992C156.439 100.591 157.769 99.9903 158.742 99.1893C159.715 98.3882 160.201 97.4585 160.201 96.4C160.201 95.8564 160.044 95.4273 159.729 95.1126C159.443 94.7693 159.042 94.5977 158.527 94.5977Z" fill="white"/>
<path d="M199.271 97.3441C199.356 97.3155 199.499 97.3011 199.7 97.3011C200.129 97.3011 200.458 97.4442 200.687 97.7303C200.915 98.0163 201.03 98.4026 201.03 98.8889C201.03 99.7757 200.858 100.477 200.515 100.992C200.172 101.478 199.657 101.836 198.97 102.064C197.654 102.493 196.252 102.708 194.765 102.708C193.506 102.708 192.319 102.536 191.203 102.193C190.373 103.538 189.458 104.925 188.457 106.356C187.312 107.986 186.325 109.102 185.496 109.703C184.695 110.303 183.779 110.604 182.749 110.604C181.605 110.604 180.733 110.16 180.132 109.274C179.56 108.387 179.202 106.928 179.059 104.897L178.844 101.764C177.958 104.167 177.157 105.998 176.441 107.257C175.755 108.515 175.054 109.388 174.339 109.874C173.652 110.361 172.837 110.604 171.893 110.604C170.72 110.604 169.79 110.146 169.103 109.231C168.445 108.315 168.031 106.87 167.859 104.897C167.516 100.891 167.344 97.387 167.344 94.3831V92.8812C167.373 91.9372 167.63 91.2792 168.116 90.9073C168.603 90.5354 169.332 90.3494 170.305 90.3494C171.049 90.3494 171.592 90.5211 171.936 90.8644C172.308 91.1791 172.493 91.7226 172.493 92.495C172.493 95.7849 172.694 100.062 173.094 105.326C175.04 101.235 176.828 96.9722 178.458 92.5379C178.773 91.6797 179.145 91.1075 179.574 90.8215C180.032 90.5068 180.575 90.3494 181.205 90.3494C181.977 90.3494 182.506 90.5068 182.792 90.8215C183.107 91.1361 183.264 91.694 183.264 92.495C183.264 95.7849 183.465 100.062 183.865 105.326C185.582 102.78 186.869 100.748 187.727 99.2322C187.298 98.4026 187.084 97.4156 187.084 96.2713C187.084 95.2986 187.298 94.3545 187.727 93.4391C188.156 92.5236 188.743 91.7798 189.487 91.2077C190.23 90.6355 191.074 90.3494 192.018 90.3494C192.848 90.3494 193.52 90.6498 194.035 91.2506C194.55 91.8227 194.808 92.6667 194.808 93.7824C194.808 95.0697 194.464 96.543 193.778 98.2023C194.865 98.1451 196.31 97.9305 198.112 97.5586L199.271 97.3441Z" fill="white"/>
<path d="M208.119 110.604C206.145 110.604 204.357 110.117 202.755 109.145C201.181 108.172 199.937 106.77 199.021 104.939C198.106 103.08 197.648 100.891 197.648 98.3739C197.648 94.0255 198.578 90.0061 200.438 86.3157C202.297 82.5967 205.043 79.6215 208.677 77.39C212.31 75.13 216.672 74 221.765 74C223.081 74 224.482 74.1001 225.97 74.3004C227.486 74.5006 228.859 74.801 230.09 75.2015C230.891 75.4304 231.291 76.0026 231.291 76.918C231.291 77.6618 231.005 78.3627 230.433 79.0207C229.889 79.6787 229.246 80.0077 228.502 80.0077C228.273 80.0077 228.101 79.9934 227.987 79.9647C226.499 79.6215 225.226 79.3783 224.168 79.2353C223.109 79.0636 221.994 78.9778 220.821 78.9778C217.187 78.9778 214.098 79.8646 211.552 81.6383C209.006 83.3834 207.103 85.7006 205.844 88.59C204.586 91.4794 203.956 94.5977 203.956 97.9448C203.956 100.376 204.428 102.265 205.372 103.609C206.345 104.925 207.604 105.583 209.149 105.583C210.894 105.583 212.424 104.868 213.74 103.438C215.056 102.007 216.258 99.6899 217.345 96.4858C218.432 93.2817 219.505 88.9333 220.563 83.4406C220.735 82.6396 221.078 82.096 221.593 81.81C222.108 81.5239 222.795 81.3808 223.653 81.3808C225.684 81.3808 226.7 82.0388 226.7 83.3548C226.7 83.5837 226.657 83.8697 226.571 84.213C225.827 86.988 225.14 90.0633 224.511 93.4391C223.91 96.7862 223.61 99.3323 223.61 101.077C223.61 102.622 223.839 103.752 224.297 104.467C224.754 105.154 225.455 105.497 226.399 105.497C227.315 105.497 228.187 105.197 229.017 104.596C229.846 103.967 230.891 102.908 232.149 101.421C232.493 101.02 232.879 100.82 233.308 100.82C233.68 100.82 233.966 100.992 234.166 101.335C234.395 101.678 234.51 102.15 234.51 102.751C234.51 103.867 234.238 104.754 233.694 105.411C232.292 107.099 230.919 108.387 229.575 109.274C228.23 110.16 226.585 110.604 224.64 110.604C222.637 110.604 221.021 110.032 219.791 108.887C218.561 107.714 217.788 106.069 217.474 103.952C215.357 108.387 212.238 110.604 208.119 110.604Z" fill="white"/>
<path d="M253.954 100.82C254.326 100.82 254.612 100.992 254.813 101.335C255.041 101.678 255.156 102.15 255.156 102.751C255.156 103.895 254.884 104.782 254.34 105.411C253.11 106.928 251.78 108.172 250.35 109.145C248.948 110.117 247.346 110.604 245.544 110.604C244.027 110.604 242.797 110.06 241.853 108.973C240.222 110.032 238.52 110.575 236.747 110.604C236.375 116.125 235.531 120.731 234.215 124.421C232.899 128.14 230.968 130 228.422 130C226.877 130 225.733 129.442 224.989 128.326C224.245 127.211 223.873 125.666 223.873 123.692C223.873 120.888 224.517 117.613 225.804 113.865C227.091 110.146 229.08 106.041 231.769 101.549C231.769 97.3727 231.74 94.469 231.683 92.8383C231.654 92.0087 231.983 91.3507 232.67 90.8644C233.357 90.378 234.215 90.1349 235.245 90.1349C235.845 90.1349 236.275 90.2636 236.532 90.5211C236.818 90.7499 236.976 91.222 237.004 91.9372C237.004 92.6524 237.018 93.1816 237.047 93.5249C237.962 92.3806 238.864 91.5653 239.75 91.0789C240.637 90.564 241.581 90.3065 242.583 90.3065C244.185 90.3065 245.486 90.9502 246.488 92.2375C247.518 93.5249 248.032 95.2128 248.032 97.3011C248.032 98.8174 247.789 100.291 247.303 101.721C246.817 103.151 246.144 104.453 245.286 105.626C245.887 105.798 246.388 105.884 246.788 105.884C247.732 105.884 248.633 105.54 249.491 104.854C250.35 104.167 251.451 103.023 252.796 101.421C253.139 101.02 253.525 100.82 253.954 100.82ZM236.961 106.484C237.991 106.255 238.935 105.698 239.793 104.811C240.68 103.895 241.381 102.78 241.896 101.464C242.411 100.119 242.668 98.7172 242.668 97.2582C242.668 96.4 242.497 95.7563 242.154 95.3272C241.81 94.8695 241.353 94.6406 240.78 94.6406C239.75 94.6406 238.506 95.7277 237.047 97.9019C237.018 99.1607 237.004 101.006 237.004 103.438C237.004 104.754 236.99 105.769 236.961 106.484ZM228.765 125.795C229.537 125.795 230.181 124.107 230.696 120.731C231.211 117.384 231.54 113.207 231.683 108.201C230.453 111.062 229.48 113.794 228.765 116.397C228.05 119 227.692 121.189 227.692 122.962C227.692 123.878 227.807 124.579 228.036 125.065C228.236 125.551 228.479 125.795 228.765 125.795Z" fill="white"/>
<path d="M268.692 97.3011C268.692 99.5612 268.163 101.707 267.104 103.738C266.075 105.74 264.687 107.371 262.942 108.63C261.226 109.889 259.38 110.547 257.406 110.604C257.034 116.125 256.191 120.731 254.875 124.421C253.559 128.14 251.628 130 249.081 130C247.537 130 246.392 129.442 245.648 128.326C244.905 127.211 244.533 125.666 244.533 123.692C244.533 120.888 245.176 117.613 246.464 113.865C247.751 110.146 249.739 106.041 252.429 101.549C252.429 97.3727 252.4 94.469 252.343 92.8383C252.314 92.0087 252.643 91.3507 253.33 90.8644C254.016 90.378 254.875 90.1349 255.904 90.1349C256.505 90.1349 256.934 90.2636 257.192 90.5211C257.478 90.7499 257.635 91.222 257.664 91.9372C257.664 92.6524 257.678 93.1816 257.707 93.5249C258.622 92.3806 259.523 91.5653 260.41 91.0789C261.297 90.564 262.241 90.3065 263.242 90.3065C264.844 90.3065 266.146 90.9502 267.147 92.2375C268.177 93.5249 268.692 95.2128 268.692 97.3011ZM257.621 106.484C258.651 106.255 259.595 105.698 260.453 104.811C261.34 103.895 262.041 102.78 262.556 101.464C263.071 100.119 263.328 98.7172 263.328 97.2582C263.328 96.4 263.157 95.7563 262.813 95.3272C262.47 94.8695 262.012 94.6406 261.44 94.6406C260.41 94.6406 259.166 95.7277 257.707 97.9019C257.678 99.1607 257.664 101.006 257.664 103.438C257.664 104.754 257.65 105.769 257.621 106.484ZM249.425 125.795C250.197 125.795 250.841 124.107 251.356 120.731C251.871 117.384 252.2 113.207 252.343 108.201C251.113 111.062 250.14 113.794 249.425 116.397C248.71 119 248.352 121.189 248.352 122.962C248.352 123.878 248.466 124.579 248.695 125.065C248.896 125.551 249.139 125.795 249.425 125.795Z" fill="white"/>
</g>
</g>
<g clip-path="url(#clip2)">
<path fill-rule="evenodd" clip-rule="evenodd" d="M289.473 37.8455H300.309V27.0094L289.473 37.8455Z" fill="white"/>
<path fill-rule="evenodd" clip-rule="evenodd" d="M313.381 27.6867V27.0094L311.059 27.0094V27.6867H308.737V37.8455H315.703V27.6867H313.381Z" fill="white"/>
<path fill-rule="evenodd" clip-rule="evenodd" d="M329.619 30.3703C329.619 30.7989 329.504 31.1778 329.274 31.507C329.044 31.8362 328.733 32.0904 328.339 32.2696C328.807 32.4527 329.18 32.7235 329.458 33.0819C329.737 33.4403 329.876 33.8533 329.876 34.3208C329.876 35.1117 329.612 35.7233 329.084 36.1558C328.556 36.5883 327.885 36.8045 327.071 36.8045C326.206 36.8045 325.5 36.5883 324.952 36.1558C324.405 35.7233 324.131 35.1117 324.131 34.3208C324.131 33.8533 324.275 33.4403 324.561 33.0819C324.847 32.7235 325.236 32.4527 325.727 32.2696C325.314 32.0904 324.989 31.8362 324.751 31.507C324.513 31.1778 324.394 30.7989 324.394 30.3703C324.394 29.6184 324.64 29.0438 325.131 28.6464C325.622 28.249 326.264 28.0503 327.059 28.0503C327.811 28.0503 328.426 28.25 328.903 28.6493C329.38 29.0486 329.619 29.6223 329.619 30.3703ZM328.462 34.2682C328.462 33.8514 328.327 33.5095 328.059 33.2426C327.79 32.9758 327.457 32.8423 327.059 32.8423C326.623 32.8423 326.262 32.9758 325.978 33.2426C325.694 33.5095 325.551 33.8514 325.551 34.2682C325.551 34.6929 325.693 35.0328 325.975 35.288C326.258 35.5432 326.623 35.6708 327.071 35.6708C327.468 35.6708 327.799 35.5432 328.064 35.288C328.329 35.0328 328.462 34.6929 328.462 34.2682ZM328.199 30.4229C328.199 30.0567 328.092 29.7596 327.877 29.5317C327.663 29.3038 327.39 29.1899 327.059 29.1899C326.685 29.1899 326.384 29.2999 326.156 29.52C325.928 29.7402 325.814 30.0411 325.814 30.4229C325.814 30.8047 325.931 31.1135 326.165 31.3492C326.399 31.5849 326.701 31.7027 327.071 31.7027C327.398 31.7027 327.668 31.5849 327.88 31.3492C328.093 31.1135 328.199 30.8047 328.199 30.4229ZM332.699 36.6817H331.284V35.3201H332.699V36.6817ZM332.699 31.5625H331.284V30.2009H332.699V31.5625ZM339.787 33.6371C339.787 34.6188 339.535 35.3922 339.03 35.9571C338.526 36.522 337.851 36.8045 337.006 36.8045C336.16 36.8045 335.482 36.521 334.972 35.9542C334.461 35.3873 334.206 34.6149 334.206 33.6371V31.2235C334.206 30.2456 334.46 29.4723 334.966 28.9035C335.472 28.3347 336.148 28.0503 336.994 28.0503C337.839 28.0503 338.516 28.3347 339.025 28.9035C339.533 29.4723 339.787 30.2456 339.787 31.2235V33.6371ZM338.367 31.0073C338.367 30.4385 338.246 29.9934 338.005 29.672C337.763 29.3506 337.426 29.1899 336.994 29.1899C336.557 29.1899 336.22 29.3506 335.983 29.672C335.745 29.9934 335.626 30.4385 335.626 31.0073V33.8416C335.626 34.4182 335.747 34.8672 335.989 35.1886C336.23 35.51 336.569 35.6707 337.006 35.6707C337.442 35.6707 337.778 35.511 338.014 35.1915C338.249 34.8721 338.367 34.4221 338.367 33.8416V31.0073ZM346.59 33.6371C346.59 34.6188 346.337 35.3922 345.833 35.9571C345.328 36.522 344.653 36.8045 343.808 36.8045C342.962 36.8045 342.285 36.521 341.774 35.9542C341.264 35.3873 341.009 34.6149 341.009 33.6371V31.2235C341.009 30.2456 341.262 29.4723 341.768 28.9035C342.275 28.3347 342.951 28.0503 343.796 28.0503C344.642 28.0503 345.318 28.3347 345.827 28.9035C346.335 29.4723 346.59 30.2456 346.59 31.2235V33.6371ZM345.169 31.0073C345.169 30.4385 345.049 29.9934 344.807 29.672C344.566 29.3506 344.229 29.1899 343.796 29.1899C343.36 29.1899 343.023 29.3506 342.785 29.672C342.548 29.9934 342.429 30.4385 342.429 31.0073V33.8416C342.429 34.4182 342.549 34.8672 342.791 35.1886C343.033 35.51 343.372 35.6707 343.808 35.6707C344.244 35.6707 344.58 35.511 344.816 35.1915C345.052 34.8721 345.169 34.4221 345.169 33.8416V31.0073Z" fill="white"/>
</g>
</g>
<defs>
<filter id="filter0_f" x="1.61258" y="1.0105" width="396.566" height="818.034" filterUnits="userSpaceOnUse" color-interpolation-filters="sRGB">
<feFlood flood-opacity="0" result="BackgroundImageFix"/>
<feBlend mode="normal" in="SourceGraphic" in2="BackgroundImageFix" result="shape"/>
<feGaussianBlur stdDeviation="1" result="effect1_foregroundBlur"/>
</filter>
<filter id="filter1_f" x="5.82725" y="5.52625" width="394.76" height="809.303" filterUnits="userSpaceOnUse" color-interpolation-filters="sRGB">
<feFlood flood-opacity="0" result="BackgroundImageFix"/>
<feBlend mode="normal" in="SourceGraphic" in2="BackgroundImageFix" result="shape"/>
<feGaussianBlur stdDeviation="1" result="effect1_foregroundBlur"/>
</filter>
<filter id="filter2_f" x="6.73039" y="6.1283" width="387.234" height="808.701" filterUnits="userSpaceOnUse" color-interpolation-filters="sRGB">
<feFlood flood-opacity="0" result="BackgroundImageFix"/>
<feBlend mode="normal" in="SourceGraphic" in2="BackgroundImageFix" result="shape"/>
<feGaussianBlur stdDeviation="1" result="effect1_foregroundBlur"/>
</filter>
<linearGradient id="paint0_linear" x1="398.587" y1="225.786" x2="402.2" y2="225.786" gradientUnits="userSpaceOnUse">
<stop stop-color="#313131"/>
<stop offset="0.630208" stop-color="#717174"/>
<stop offset="1" stop-color="#444445"/>
</linearGradient>
<linearGradient id="paint1_linear" x1="400.394" y1="196.283" x2="400.394" y2="253.482" gradientUnits="userSpaceOnUse">
<stop stop-color="#343434"/>
<stop offset="0.140406" stop-color="#353535" stop-opacity="0"/>
<stop offset="0.885417" stop-color="#494949" stop-opacity="0.525253"/>
<stop offset="1" stop-color="#1B1B1B"/>
</linearGradient>
<radialGradient id="paint2_radial" cx="0" cy="0" r="1" gradientUnits="userSpaceOnUse" gradientTransform="translate(399.491 199.294) rotate(90) scale(2.10734)">
<stop stop-color="white"/>
<stop offset="0.757464" stop-color="white" stop-opacity="0.35"/>
<stop offset="1" stop-color="white" stop-opacity="0"/>
</radialGradient>
<linearGradient id="paint3_linear" x1="10.2356" y1="338.077" x2="189.058" y2="419.962" gradientUnits="userSpaceOnUse">
<stop stop-color="white" stop-opacity="0.54"/>
<stop offset="0.947121" stop-color="white" stop-opacity="0"/>
</linearGradient>
<linearGradient id="paint4_linear" x1="386.847" y1="434.111" x2="210.131" y2="351.022" gradientUnits="userSpaceOnUse">
<stop stop-color="white" stop-opacity="0.54"/>
<stop offset="1" stop-color="white" stop-opacity="0"/>
</linearGradient>
<radialGradient id="paint5_radial" cx="0" cy="0" r="1" gradientUnits="userSpaceOnUse" gradientTransform="translate(376.611 798.981) rotate(-133.776) scale(219.309 103.753)">
<stop/>
<stop offset="1" stop-opacity="0"/>
</radialGradient>
<radialGradient id="paint6_radial" cx="0" cy="0" r="1" gradientUnits="userSpaceOnUse" gradientTransform="translate(360 781) rotate(-114.747) scale(859.977 653.878)">
<stop stop-color="#310082"/>
<stop offset="1" stop-color="#310082" stop-opacity="0"/>
</radialGradient>
<radialGradient id="paint7_radial" cx="0" cy="0" r="1" gradientUnits="userSpaceOnUse" gradientTransform="translate(315 390) rotate(-171.18) scale(234.776 71.1485)">
<stop stop-color="#310082"/>
<stop offset="1" stop-color="#310082" stop-opacity="0"/>
</radialGradient>
<clipPath id="clip0">
<rect width="139.692" height="56" fill="white" transform="translate(129 74)"/>
</clipPath>
<clipPath id="clip1">
<rect width="139.692" height="56" fill="white" transform="translate(129 74)"/>
</clipPath>
<clipPath id="clip2">
<rect width="57.1165" height="12.0401" fill="white" transform="translate(289.473 26.4073)"/>
</clipPath>
</defs>
</svg>
