<svg width="928" height="80" viewBox="0 0 928 80" fill="none" xmlns="http://www.w3.org/2000/svg">
<g clip-path="url(#clip0)">
<path d="M30 61.9998C23.6 61.1998 7.33333 66.9998 0 69.9998V79.5H928V10H714L671 15H507L389 20L380 41H309C295.4 41 205.333 47.6667 162 51C120.667 54.9999 36.4 62.7998 30 61.9998Z" fill="#3787FF" fill-opacity="0.15"/>
<rect width="4" height="12" transform="translate(0 68)" fill="#0D3777"/>
<rect width="4" height="7" transform="translate(6 73)" fill="#3787FF"/>
<rect width="4" height="8" transform="translate(12 72)" fill="#3787FF"/>
<rect width="4" height="7" transform="translate(18 73)" fill="#3787FF"/>
<rect width="4" height="11" transform="translate(24 69)" fill="#3787FF"/>
<rect width="4" height="8" transform="translate(30 72)" fill="#3787FF"/>
<rect width="4" height="16" transform="translate(36 64)" fill="#0D3777"/>
<rect width="4" height="11" transform="translate(42 69)" fill="#0D3777"/>
<rect width="4" height="14" transform="translate(48 66)" fill="#3787FF"/>
<rect width="4" height="7" transform="translate(54 73)" fill="#3787FF"/>
<rect width="4" height="7" transform="translate(60 73)" fill="#3787FF"/>
<rect width="4" height="9" transform="translate(66 71)" fill="#3787FF"/>
<rect width="4" height="11" transform="translate(72 69)" fill="#3787FF"/>
<rect width="4" height="13" transform="translate(78 67)" fill="#0D3777"/>
<rect width="4" height="11" transform="translate(84 69)" fill="#0D3777"/>
<rect width="4" height="7" transform="translate(90 73)" fill="#3787FF"/>
<rect width="4" height="8" transform="translate(96 72)" fill="#3787FF"/>
<rect width="4" height="7" transform="translate(102 73)" fill="#3787FF"/>
<rect width="4" height="11" transform="translate(108 69)" fill="#3787FF"/>
<rect width="4" height="8" transform="translate(114 72)" fill="#3787FF"/>
<rect width="4" height="6" transform="translate(120 74)" fill="#0D3777"/>
<rect width="4" height="8" transform="translate(126 72)" fill="#0D3777"/>
<rect width="4" height="7" transform="translate(132 73)" fill="#3787FF"/>
<rect width="4" height="8" transform="translate(138 72)" fill="#3787FF"/>
<rect width="4" height="7" transform="translate(144 73)" fill="#3787FF"/>
<rect width="4" height="11" transform="translate(150 69)" fill="#3787FF"/>
<rect width="4" height="8" transform="translate(156 72)" fill="#3787FF"/>
<rect width="4" height="16" transform="translate(162 64)" fill="#0D3777"/>
<rect width="4" height="11" transform="translate(168 69)" fill="#0D3777"/>
<rect width="4" height="14" transform="translate(174 66)" fill="#3787FF"/>
<rect width="4" height="7" transform="translate(180 73)" fill="#3787FF"/>
<rect width="4" height="7" transform="translate(186 73)" fill="#3787FF"/>
<rect width="4" height="9" transform="translate(192 71)" fill="#3787FF"/>
<rect width="4" height="11" transform="translate(198 69)" fill="#3787FF"/>
<rect width="4" height="13" transform="translate(204 67)" fill="#0D3777"/>
<rect width="4" height="11" transform="translate(210 69)" fill="#0D3777"/>
<rect width="4" height="7" transform="translate(216 73)" fill="#3787FF"/>
<rect width="4" height="8" transform="translate(222 72)" fill="#3787FF"/>
<rect width="4" height="7" transform="translate(228 73)" fill="#3787FF"/>
<rect width="4" height="11" transform="translate(234 69)" fill="#3787FF"/>
<rect width="4" height="8" transform="translate(240 72)" fill="#3787FF"/>
<rect width="4" height="6" transform="translate(246 74)" fill="#0D3777"/>
<rect width="4" height="8" transform="translate(252 72)" fill="#0D3777"/>
<rect width="4" height="7" transform="translate(258 73)" fill="#3787FF"/>
<rect width="4" height="8" transform="translate(264 72)" fill="#3787FF"/>
<rect width="4" height="7" transform="translate(270 73)" fill="#3787FF"/>
<rect width="4" height="11" transform="translate(276 69)" fill="#3787FF"/>
<rect width="4" height="8" transform="translate(282 72)" fill="#3787FF"/>
<rect width="4" height="16" transform="translate(288 64)" fill="#0D3777"/>
<rect width="4" height="11" transform="translate(294 69)" fill="#0D3777"/>
<rect width="4" height="14" transform="translate(300 66)" fill="#3787FF"/>
<rect width="4" height="7" transform="translate(306 73)" fill="#3787FF"/>
<rect width="4" height="7" transform="translate(312 73)" fill="#3787FF"/>
<rect width="4" height="9" transform="translate(318 71)" fill="#3787FF"/>
<rect width="4" height="11" transform="translate(324 69)" fill="#3787FF"/>
<rect width="4" height="13" transform="translate(330 67)" fill="#0D3777"/>
<rect width="4" height="11" transform="translate(336 69)" fill="#0D3777"/>
<rect width="4" height="47" transform="translate(342 33)" fill="#3787FF"/>
<rect width="4" height="48" transform="translate(348 32)" fill="#3787FF"/>
<rect width="4" height="47" transform="translate(354 33)" fill="#3787FF"/>
<rect width="4" height="51" transform="translate(360 29)" fill="#3787FF"/>
<rect width="4" height="48" transform="translate(366 32)" fill="#3787FF"/>
<rect width="4" height="46" transform="translate(372 34)" fill="#0D3777"/>
<rect width="4" height="48" transform="translate(378 32)" fill="#0D3777"/>
<rect width="4" height="7" transform="translate(384 73)" fill="#3787FF"/>
<rect width="4" height="8" transform="translate(390 72)" fill="#3787FF"/>
<rect width="4" height="7" transform="translate(396 73)" fill="#3787FF"/>
<rect width="4" height="11" transform="translate(402 69)" fill="#3787FF"/>
<rect width="4" height="8" transform="translate(408 72)" fill="#3787FF"/>
<rect width="4" height="16" transform="translate(414 64)" fill="#0D3777"/>
<rect width="4" height="11" transform="translate(420 69)" fill="#0D3777"/>
<rect width="4" height="7" transform="translate(426 73)" fill="#3787FF"/>
<rect width="4" height="8" transform="translate(432 72)" fill="#3787FF"/>
<rect width="4" height="7" transform="translate(438 73)" fill="#3787FF"/>
<rect width="4" height="11" transform="translate(444 69)" fill="#3787FF"/>
<rect width="4" height="8" transform="translate(450 72)" fill="#3787FF"/>
<rect width="4" height="16" transform="translate(456 64)" fill="#0D3777"/>
<rect width="4" height="11" transform="translate(462 69)" fill="#0D3777"/>
<rect width="4" height="14" transform="translate(468 66)" fill="#3787FF"/>
<rect width="4" height="7" transform="translate(474 73)" fill="#3787FF"/>
<rect width="4" height="7" transform="translate(480 73)" fill="#3787FF"/>
<rect width="4" height="9" transform="translate(486 71)" fill="#3787FF"/>
<rect width="4" height="11" transform="translate(492 69)" fill="#3787FF"/>
<rect width="4" height="13" transform="translate(498 67)" fill="#0D3777"/>
<rect width="4" height="11" transform="translate(504 69)" fill="#0D3777"/>
<rect width="4" height="7" transform="translate(510 73)" fill="#3787FF"/>
<rect width="4" height="8" transform="translate(516 72)" fill="#3787FF"/>
<rect width="4" height="7" transform="translate(522 73)" fill="#3787FF"/>
<rect width="4" height="11" transform="translate(528 69)" fill="#3787FF"/>
<rect width="4" height="8" transform="translate(534 72)" fill="#3787FF"/>
<rect width="4" height="6" transform="translate(540 74)" fill="#0D3777"/>
<rect width="4" height="8" transform="translate(546 72)" fill="#0D3777"/>
<rect width="4" height="7" transform="translate(552 73)" fill="#3787FF"/>
<rect width="4" height="8" transform="translate(558 72)" fill="#3787FF"/>
<rect width="4" height="7" transform="translate(564 73)" fill="#3787FF"/>
<rect width="4" height="11" transform="translate(570 69)" fill="#3787FF"/>
<rect width="4" height="8" transform="translate(576 72)" fill="#3787FF"/>
<rect width="4" height="16" transform="translate(582 64)" fill="#0D3777"/>
<rect width="4" height="11" transform="translate(588 69)" fill="#0D3777"/>
<rect width="4" height="14" transform="translate(594 66)" fill="#3787FF"/>
<rect width="4" height="7" transform="translate(600 73)" fill="#3787FF"/>
<rect width="4" height="7" transform="translate(606 73)" fill="#3787FF"/>
<rect width="4" height="9" transform="translate(612 71)" fill="#3787FF"/>
<rect width="4" height="11" transform="translate(618 69)" fill="#3787FF"/>
<rect width="4" height="13" transform="translate(624 67)" fill="#0D3777"/>
<rect width="4" height="11" transform="translate(630 69)" fill="#0D3777"/>
<rect width="4" height="7" transform="translate(636 73)" fill="#3787FF"/>
<rect width="4" height="8" transform="translate(642 72)" fill="#3787FF"/>
<rect width="4" height="7" transform="translate(648 73)" fill="#3787FF"/>
<rect width="4" height="11" transform="translate(654 69)" fill="#3787FF"/>
<rect width="4" height="8" transform="translate(660 72)" fill="#3787FF"/>
<rect width="4" height="6" transform="translate(666 74)" fill="#0D3777"/>
<rect width="4" height="8" transform="translate(672 72)" fill="#0D3777"/>
<rect width="4" height="7" transform="translate(678 73)" fill="#3787FF"/>
<rect width="4" height="8" transform="translate(684 72)" fill="#3787FF"/>
<rect width="4" height="7" transform="translate(690 73)" fill="#3787FF"/>
<rect width="4" height="11" transform="translate(696 69)" fill="#3787FF"/>
<rect width="4" height="8" transform="translate(702 72)" fill="#3787FF"/>
<rect width="4" height="16" transform="translate(708 64)" fill="#0D3777"/>
<rect width="4" height="11" transform="translate(714 69)" fill="#0D3777"/>
<rect width="4" height="14" transform="translate(720 66)" fill="#3787FF"/>
<rect width="4" height="7" transform="translate(726 73)" fill="#3787FF"/>
<rect width="4" height="7" transform="translate(732 73)" fill="#3787FF"/>
<rect width="4" height="9" transform="translate(738 71)" fill="#3787FF"/>
<rect width="4" height="11" transform="translate(744 69)" fill="#3787FF"/>
<rect width="4" height="13" transform="translate(750 67)" fill="#0D3777"/>
<rect width="4" height="11" transform="translate(756 69)" fill="#0D3777"/>
<rect width="4" height="14" transform="translate(762 66)" fill="#3787FF"/>
<rect width="4" height="7" transform="translate(768 73)" fill="#3787FF"/>
<rect width="4" height="7" transform="translate(774 73)" fill="#3787FF"/>
<rect width="4" height="9" transform="translate(780 71)" fill="#3787FF"/>
<rect width="4" height="11" transform="translate(786 69)" fill="#3787FF"/>
<rect width="4" height="13" transform="translate(792 67)" fill="#0D3777"/>
<rect width="4" height="11" transform="translate(798 69)" fill="#0D3777"/>
<rect width="4" height="14" transform="translate(804 66)" fill="#3787FF"/>
<rect width="4" height="7" transform="translate(810 73)" fill="#3787FF"/>
<rect width="4" height="7" transform="translate(816 73)" fill="#3787FF"/>
<rect width="4" height="9" transform="translate(822 71)" fill="#3787FF"/>
<rect width="4" height="11" transform="translate(828 69)" fill="#3787FF"/>
<rect width="4" height="13" transform="translate(834 67)" fill="#0D3777"/>
<rect width="4" height="11" transform="translate(840 69)" fill="#0D3777"/>
<rect width="4" height="7" transform="translate(846 73)" fill="#3787FF"/>
<rect width="4" height="8" transform="translate(852 72)" fill="#3787FF"/>
<rect width="4" height="7" transform="translate(858 73)" fill="#3787FF"/>
<rect width="4" height="11" transform="translate(864 69)" fill="#3787FF"/>
<rect width="4" height="8" transform="translate(870 72)" fill="#3787FF"/>
<rect width="4" height="6" transform="translate(876 74)" fill="#0D3777"/>
<rect width="4" height="8" transform="translate(882 72)" fill="#0D3777"/>
<rect width="4" height="7" transform="translate(888 73)" fill="#3787FF"/>
<rect width="4" height="8" transform="translate(894 72)" fill="#3787FF"/>
<rect width="4" height="7" transform="translate(900 73)" fill="#3787FF"/>
<rect width="4" height="11" transform="translate(906 69)" fill="#3787FF"/>
<rect width="4" height="8" transform="translate(912 72)" fill="#3787FF"/>
<rect width="4" height="6" transform="translate(918 74)" fill="#0D3777"/>
<rect width="4" height="8" transform="translate(924 72)" fill="#0D3777"/>
</g>
<defs>
<clipPath id="clip0">
<path d="M0 2C0 0.895429 0.895431 0 2 0H926C927.105 0 928 0.895431 928 2V78C928 79.1046 927.105 80 926 80H2.00001C0.895442 80 0 79.1046 0 78V2Z" fill="white"/>
</clipPath>
</defs>
</svg>
