<svg width="200" height="200" viewBox="0 0 200 200" fill="none" xmlns="http://www.w3.org/2000/svg">
<rect width="200" height="200" fill="white" fill-opacity="0.15"/>
<rect width="200" height="200" fill="#263245" fill-opacity="0.08"/>
<path fill-rule="evenodd" clip-rule="evenodd" d="M71 84C71 67.9837 83.9837 55 100 55C116.016 55 129 67.9837 129 84C129 100.016 116.016 113 100 113C83.9837 113 71 100.016 71 84ZM100 49C80.67 49 65 64.67 65 84C65 97.6014 72.7585 109.391 84.0914 115.184C79.3584 116.509 74.7892 118.425 70.496 120.903C61.5257 126.08 54.0757 133.527 48.8946 142.495C48.0657 143.929 48.5568 145.764 49.9914 146.593C51.4261 147.422 53.261 146.931 54.0898 145.496C58.7443 137.44 65.4368 130.75 73.4952 126.099C81.5536 121.448 90.694 119 99.9982 119C109.302 119 118.443 121.449 126.501 126.1C134.559 130.751 141.252 137.441 145.906 145.497C146.735 146.932 148.57 147.423 150.004 146.594C151.439 145.765 151.93 143.93 151.101 142.496C145.92 133.527 138.471 126.081 129.5 120.903C125.208 118.426 120.639 116.509 115.907 115.185C127.241 109.392 135 97.6021 135 84C135 64.67 119.33 49 100 49Z" fill="white" fill-opacity="0.15"/>
<path fill-rule="evenodd" clip-rule="evenodd" d="M71 84C71 67.9837 83.9837 55 100 55C116.016 55 129 67.9837 129 84C129 100.016 116.016 113 100 113C83.9837 113 71 100.016 71 84ZM100 49C80.67 49 65 64.67 65 84C65 97.6014 72.7585 109.391 84.0914 115.184C79.3584 116.509 74.7892 118.425 70.496 120.903C61.5257 126.08 54.0757 133.527 48.8946 142.495C48.0657 143.929 48.5568 145.764 49.9914 146.593C51.4261 147.422 53.261 146.931 54.0898 145.496C58.7443 137.44 65.4368 130.75 73.4952 126.099C81.5536 121.448 90.694 119 99.9982 119C109.302 119 118.443 121.449 126.501 126.1C134.559 130.751 141.252 137.441 145.906 145.497C146.735 146.932 148.57 147.423 150.004 146.594C151.439 145.765 151.93 143.93 151.101 142.496C145.92 133.527 138.471 126.081 129.5 120.903C125.208 118.426 120.639 116.509 115.907 115.185C127.241 109.392 135 97.6021 135 84C135 64.67 119.33 49 100 49Z" fill="#263245" fill-opacity="0.25"/>
</svg>
