<svg width="480" height="267" viewBox="0 0 480 267" fill="none" xmlns="http://www.w3.org/2000/svg">
<rect x="0.5" y="0.5" width="479" height="266" rx="7.5" fill="white" stroke="#C2CAD6"/>
<rect x="115" y="5" width="240" height="14" rx="4" fill="#EAEDF0"/>
<rect width="478" height="1" transform="translate(1 22)" fill="#C2CAD6"/>
<circle cx="11.2305" cy="12" r="3" fill="#EAEDF0"/>
<circle cx="21.2305" cy="12" r="3" fill="#EAEDF0"/>
<circle cx="31.2305" cy="12" r="3" fill="#EAEDF0"/>
<path d="M216 44H264V48C264 50.2091 262.209 52 260 52H220C217.791 52 216 50.2091 216 48V44Z" fill="#F4F7F9"/>
<rect width="106" height="76" transform="translate(187 162)" fill="#F4F7F9"/>
<rect x="228" y="170" width="24" height="2" rx="1" fill="#C2CAD6"/>
<path d="M228.774 186.61C228.727 186.61 228.684 186.603 228.644 186.59C228.517 186.563 228.427 186.487 228.374 186.36C228.334 186.247 228.344 186.12 228.404 185.98C228.464 185.84 228.55 185.683 228.664 185.51C228.704 185.45 228.74 185.39 228.774 185.33C228.814 185.263 228.847 185.203 228.874 185.15C228.894 185.123 228.91 185.09 228.924 185.05C228.724 185.017 228.49 185.01 228.224 185.03C227.964 185.043 227.67 185.093 227.344 185.18C227.05 185.253 226.74 185.35 226.414 185.47C226.087 185.583 225.74 185.72 225.374 185.88C225.3 185.913 225.227 185.917 225.154 185.89C225.08 185.857 225.027 185.803 224.994 185.73C224.954 185.657 224.95 185.58 224.984 185.5C225.017 185.42 225.07 185.363 225.144 185.33C225.524 185.163 225.88 185.02 226.214 184.9C226.554 184.773 226.88 184.673 227.194 184.6C228.014 184.393 228.684 184.36 229.204 184.5C229.357 184.54 229.464 184.633 229.524 184.78C229.584 184.933 229.57 185.1 229.484 185.28C229.397 185.453 229.294 185.637 229.174 185.83C229.16 185.843 229.147 185.86 229.134 185.88C229.127 185.9 229.117 185.923 229.104 185.95C229.257 185.917 229.48 185.85 229.774 185.75C230.074 185.65 230.49 185.503 231.024 185.31C231.097 185.283 231.17 185.29 231.244 185.33C231.324 185.363 231.377 185.42 231.404 185.5C231.437 185.573 231.437 185.65 231.404 185.73C231.37 185.803 231.31 185.857 231.224 185.89C230.917 185.997 230.637 186.093 230.384 186.18C230.13 186.267 229.904 186.34 229.704 186.4C229.43 186.48 229.224 186.537 229.084 186.57C228.95 186.597 228.847 186.61 228.774 186.61ZM232.482 186.41C232.449 186.41 232.422 186.407 232.402 186.4C232.296 186.373 232.219 186.333 232.172 186.28C232.132 186.22 232.106 186.173 232.092 186.14C232.039 185.993 232.052 185.843 232.132 185.69C232.219 185.53 232.326 185.363 232.452 185.19C232.492 185.137 232.529 185.08 232.562 185.02C232.596 184.96 232.629 184.903 232.662 184.85C232.669 184.843 232.679 184.83 232.692 184.81C232.652 184.823 232.602 184.843 232.542 184.87C232.489 184.897 232.426 184.937 232.352 184.99C232.232 185.063 232.106 185.16 231.972 185.28C231.839 185.393 231.702 185.513 231.562 185.64C231.529 185.673 231.492 185.707 231.452 185.74C231.419 185.767 231.386 185.797 231.352 185.83C231.292 185.883 231.222 185.91 231.142 185.91C231.056 185.903 230.986 185.867 230.932 185.8C230.872 185.74 230.846 185.67 230.852 185.59C230.859 185.503 230.892 185.433 230.952 185.38C230.986 185.347 231.022 185.317 231.062 185.29C231.096 185.257 231.129 185.223 231.162 185.19C231.322 185.043 231.479 184.907 231.632 184.78C231.792 184.647 231.946 184.533 232.092 184.44C232.246 184.347 232.396 184.28 232.542 184.24C232.696 184.193 232.842 184.19 232.982 184.23C233.096 184.263 233.176 184.31 233.222 184.37C233.269 184.43 233.299 184.483 233.312 184.53C233.372 184.683 233.359 184.84 233.272 185C233.186 185.16 233.076 185.337 232.942 185.53C232.929 185.543 232.912 185.567 232.892 185.6C232.879 185.627 232.862 185.653 232.842 185.68C232.942 185.64 233.069 185.593 233.222 185.54C233.382 185.48 233.579 185.403 233.812 185.31C233.899 185.283 233.979 185.29 234.052 185.33C234.126 185.363 234.176 185.42 234.202 185.5C234.236 185.573 234.232 185.65 234.192 185.73C234.159 185.803 234.106 185.857 234.032 185.89C233.819 185.963 233.626 186.03 233.452 186.09C233.279 186.15 233.132 186.203 233.012 186.25C232.946 186.277 232.886 186.3 232.832 186.32C232.786 186.333 232.742 186.347 232.702 186.36C232.649 186.373 232.606 186.387 232.572 186.4C232.546 186.407 232.516 186.41 232.482 186.41ZM234.706 187.28C234.653 187.28 234.603 187.277 234.556 187.27C234.516 187.263 234.473 187.253 234.426 187.24C234.306 187.207 234.223 187.137 234.176 187.03C234.116 186.897 234.116 186.737 234.176 186.55C234.243 186.357 234.35 186.11 234.496 185.81C234.523 185.757 234.55 185.697 234.576 185.63C234.603 185.563 234.633 185.5 234.666 185.44C234.58 185.473 234.486 185.53 234.386 185.61C234.293 185.683 234.196 185.76 234.096 185.84C234.03 185.893 233.956 185.913 233.876 185.9C233.79 185.887 233.72 185.85 233.666 185.79C233.613 185.723 233.593 185.65 233.606 185.57C233.62 185.49 233.656 185.42 233.716 185.36C233.81 185.293 233.906 185.22 234.006 185.14C234.106 185.06 234.213 184.993 234.326 184.94C234.6 184.8 234.85 184.763 235.076 184.83C235.183 184.85 235.263 184.917 235.316 185.03C235.37 185.143 235.366 185.277 235.306 185.43C235.253 185.583 235.16 185.8 235.026 186.08C234.993 186.16 234.956 186.24 234.916 186.32C234.883 186.4 234.85 186.477 234.816 186.55C234.803 186.577 234.793 186.6 234.786 186.62C234.78 186.64 234.773 186.66 234.766 186.68C234.833 186.673 234.916 186.653 235.016 186.62C235.123 186.587 235.243 186.537 235.376 186.47C235.516 186.397 235.676 186.3 235.856 186.18C236.036 186.06 236.243 185.91 236.476 185.73C236.656 185.583 236.826 185.44 236.986 185.3C237.146 185.16 237.286 185.033 237.406 184.92C237.526 184.807 237.623 184.713 237.696 184.64C237.77 184.567 237.806 184.53 237.806 184.53C237.886 184.437 237.983 184.407 238.096 184.44C238.15 184.453 238.193 184.477 238.226 184.51C238.26 184.543 238.286 184.577 238.306 184.61C238.353 184.703 238.356 184.813 238.316 184.94C238.276 185.067 238.203 185.263 238.096 185.53C238.056 185.617 238.016 185.703 237.976 185.79C237.943 185.877 237.91 185.957 237.876 186.03C237.87 186.063 237.86 186.1 237.846 186.14C237.94 186.127 238.04 186.09 238.146 186.03C238.253 185.97 238.36 185.903 238.466 185.83C238.573 185.757 238.673 185.68 238.766 185.6C238.86 185.513 238.943 185.44 239.016 185.38C239.083 185.32 239.156 185.293 239.236 185.3C239.316 185.307 239.386 185.34 239.446 185.4C239.5 185.467 239.523 185.54 239.516 185.62C239.516 185.7 239.483 185.77 239.416 185.83C239.263 185.97 239.106 186.103 238.946 186.23C238.786 186.35 238.623 186.457 238.456 186.55C238.296 186.637 238.133 186.7 237.966 186.74C237.8 186.773 237.636 186.77 237.476 186.73C237.37 186.69 237.293 186.623 237.246 186.53C237.206 186.437 237.193 186.337 237.206 186.23C237.226 186.117 237.266 185.973 237.326 185.8C237.253 185.867 237.176 185.93 237.096 185.99C237.023 186.05 236.943 186.117 236.856 186.19C235.936 186.917 235.22 187.28 234.706 187.28ZM244.892 187.28C244.838 187.28 244.788 187.277 244.742 187.27C244.702 187.263 244.658 187.253 244.612 187.24C244.492 187.207 244.408 187.137 244.362 187.03C244.302 186.897 244.302 186.737 244.362 186.55C244.428 186.357 244.535 186.11 244.682 185.81C244.708 185.757 244.735 185.697 244.762 185.63C244.788 185.563 244.818 185.5 244.852 185.44C244.765 185.473 244.672 185.53 244.572 185.61C244.478 185.683 244.382 185.76 244.282 185.84C244.215 185.893 244.142 185.913 244.062 185.9C243.975 185.887 243.905 185.85 243.852 185.79C243.798 185.723 243.778 185.65 243.792 185.57C243.805 185.49 243.842 185.42 243.902 185.36C243.995 185.293 244.092 185.22 244.192 185.14C244.292 185.06 244.398 184.993 244.512 184.94C244.785 184.8 245.035 184.763 245.262 184.83C245.368 184.85 245.448 184.917 245.502 185.03C245.555 185.143 245.552 185.277 245.492 185.43C245.438 185.583 245.345 185.8 245.212 186.08C245.178 186.16 245.142 186.24 245.102 186.32C245.068 186.4 245.035 186.477 245.002 186.55C244.988 186.577 244.978 186.6 244.972 186.62C244.965 186.64 244.958 186.66 244.952 186.68C245.018 186.673 245.102 186.653 245.202 186.62C245.308 186.587 245.428 186.537 245.562 186.47C245.702 186.397 245.862 186.3 246.042 186.18C246.222 186.06 246.428 185.91 246.662 185.73C246.842 185.583 247.012 185.44 247.172 185.3C247.332 185.16 247.472 185.033 247.592 184.92C247.712 184.807 247.808 184.713 247.882 184.64C247.955 184.567 247.992 184.53 247.992 184.53C248.072 184.437 248.168 184.407 248.282 184.44C248.335 184.453 248.378 184.477 248.412 184.51C248.445 184.543 248.472 184.577 248.492 184.61C248.538 184.703 248.542 184.813 248.502 184.94C248.462 185.067 248.388 185.263 248.282 185.53C248.242 185.617 248.202 185.703 248.162 185.79C248.128 185.877 248.095 185.957 248.062 186.03C248.055 186.063 248.045 186.1 248.032 186.14C248.125 186.127 248.225 186.09 248.332 186.03C248.438 185.97 248.545 185.903 248.652 185.83C248.758 185.757 248.858 185.68 248.952 185.6C249.045 185.513 249.128 185.44 249.202 185.38C249.268 185.32 249.342 185.293 249.422 185.3C249.502 185.307 249.572 185.34 249.632 185.4C249.685 185.467 249.708 185.54 249.702 185.62C249.702 185.7 249.668 185.77 249.602 185.83C249.448 185.97 249.292 186.103 249.132 186.23C248.972 186.35 248.808 186.457 248.642 186.55C248.482 186.637 248.318 186.7 248.152 186.74C247.985 186.773 247.822 186.77 247.662 186.73C247.555 186.69 247.478 186.623 247.432 186.53C247.392 186.437 247.378 186.337 247.392 186.23C247.412 186.117 247.452 185.973 247.512 185.8C247.438 185.867 247.362 185.93 247.282 185.99C247.208 186.05 247.128 186.117 247.042 186.19C246.122 186.917 245.405 187.28 244.892 187.28ZM250.214 187.28C250.161 187.28 250.111 187.277 250.064 187.27C250.024 187.263 249.981 187.253 249.934 187.24C249.814 187.207 249.731 187.137 249.684 187.03C249.624 186.897 249.624 186.737 249.684 186.55C249.751 186.357 249.857 186.11 250.004 185.81C250.031 185.757 250.057 185.697 250.084 185.63C250.111 185.563 250.141 185.5 250.174 185.44C250.087 185.473 249.994 185.53 249.894 185.61C249.801 185.683 249.704 185.76 249.604 185.84C249.537 185.893 249.464 185.913 249.384 185.9C249.297 185.887 249.227 185.85 249.174 185.79C249.121 185.723 249.101 185.65 249.114 185.57C249.127 185.49 249.164 185.42 249.224 185.36C249.317 185.293 249.414 185.22 249.514 185.14C249.614 185.06 249.721 184.993 249.834 184.94C250.107 184.8 250.357 184.763 250.584 184.83C250.691 184.85 250.771 184.917 250.824 185.03C250.877 185.143 250.874 185.277 250.814 185.43C250.761 185.583 250.667 185.8 250.534 186.08C250.501 186.16 250.464 186.24 250.424 186.32C250.391 186.4 250.357 186.477 250.324 186.55C250.311 186.577 250.301 186.6 250.294 186.62C250.287 186.64 250.281 186.66 250.274 186.68C250.341 186.673 250.424 186.653 250.524 186.62C250.631 186.587 250.751 186.537 250.884 186.47C251.024 186.397 251.184 186.3 251.364 186.18C251.544 186.06 251.751 185.91 251.984 185.73C252.164 185.583 252.334 185.44 252.494 185.3C252.654 185.16 252.794 185.033 252.914 184.92C253.034 184.807 253.131 184.713 253.204 184.64C253.277 184.567 253.314 184.53 253.314 184.53C253.394 184.437 253.491 184.407 253.604 184.44C253.657 184.453 253.701 184.477 253.734 184.51C253.767 184.543 253.794 184.577 253.814 184.61C253.861 184.703 253.864 184.813 253.824 184.94C253.784 185.067 253.711 185.263 253.604 185.53C253.564 185.617 253.524 185.703 253.484 185.79C253.451 185.877 253.417 185.957 253.384 186.03C253.377 186.063 253.367 186.1 253.354 186.14C253.447 186.127 253.547 186.09 253.654 186.03C253.761 185.97 253.867 185.903 253.974 185.83C254.081 185.757 254.181 185.68 254.274 185.6C254.367 185.513 254.451 185.44 254.524 185.38C254.591 185.32 254.664 185.293 254.744 185.3C254.824 185.307 254.894 185.34 254.954 185.4C255.007 185.467 255.031 185.54 255.024 185.62C255.024 185.7 254.991 185.77 254.924 185.83C254.771 185.97 254.614 186.103 254.454 186.23C254.294 186.35 254.131 186.457 253.964 186.55C253.804 186.637 253.641 186.7 253.474 186.74C253.307 186.773 253.144 186.77 252.984 186.73C252.877 186.69 252.801 186.623 252.754 186.53C252.714 186.437 252.701 186.337 252.714 186.23C252.734 186.117 252.774 185.973 252.834 185.8C252.761 185.867 252.684 185.93 252.604 185.99C252.531 186.05 252.451 186.117 252.364 186.19C251.444 186.917 250.727 187.28 250.214 187.28Z" fill="#21324B"/>
<rect x="199" y="194" width="82" height="14" rx="7" fill="black"/>
<path d="M243.981 203.306C243.839 203.634 243.672 203.935 243.477 204.212C243.212 204.59 242.995 204.852 242.828 204.997C242.569 205.235 242.291 205.357 241.993 205.364C241.78 205.364 241.522 205.304 241.223 205.18C240.922 205.058 240.646 204.997 240.393 204.997C240.128 204.997 239.844 205.058 239.539 205.18C239.235 205.304 238.99 205.368 238.802 205.374C238.517 205.386 238.233 205.261 237.949 204.997C237.768 204.839 237.541 204.568 237.27 204.184C236.979 203.775 236.739 203.3 236.552 202.758C236.351 202.173 236.25 201.606 236.25 201.058C236.25 200.43 236.386 199.888 236.658 199.434C236.871 199.069 237.156 198.781 237.512 198.57C237.867 198.359 238.252 198.251 238.666 198.244C238.892 198.244 239.19 198.314 239.559 198.452C239.927 198.59 240.163 198.66 240.267 198.66C240.344 198.66 240.607 198.578 241.052 198.415C241.473 198.263 241.829 198.201 242.12 198.225C242.908 198.289 243.501 198.6 243.895 199.16C243.19 199.588 242.841 200.186 242.848 200.954C242.854 201.552 243.071 202.05 243.497 202.445C243.691 202.629 243.907 202.771 244.147 202.871C244.095 203.022 244.04 203.167 243.981 203.306ZM242.172 196.188C242.172 196.656 242.001 197.094 241.66 197.499C241.248 197.981 240.749 198.259 240.209 198.216C240.202 198.159 240.198 198.1 240.198 198.038C240.198 197.588 240.394 197.106 240.742 196.712C240.915 196.513 241.136 196.347 241.404 196.215C241.672 196.084 241.925 196.012 242.162 196C242.169 196.063 242.172 196.125 242.172 196.188Z" fill="white"/>
<path d="M233.866 222.61C233.82 222.61 233.776 222.603 233.736 222.59C233.61 222.563 233.52 222.487 233.466 222.36C233.426 222.247 233.436 222.12 233.496 221.98C233.556 221.84 233.643 221.683 233.756 221.51C233.796 221.45 233.833 221.39 233.866 221.33C233.906 221.263 233.94 221.203 233.966 221.15C233.986 221.123 234.003 221.09 234.016 221.05C233.816 221.017 233.583 221.01 233.316 221.03C233.056 221.043 232.763 221.093 232.436 221.18C232.143 221.253 231.833 221.35 231.506 221.47C231.18 221.583 230.833 221.72 230.466 221.88C230.393 221.913 230.32 221.917 230.246 221.89C230.173 221.857 230.12 221.803 230.086 221.73C230.046 221.657 230.043 221.58 230.076 221.5C230.11 221.42 230.163 221.363 230.236 221.33C230.616 221.163 230.973 221.02 231.306 220.9C231.646 220.773 231.973 220.673 232.286 220.6C233.106 220.393 233.776 220.36 234.296 220.5C234.45 220.54 234.556 220.633 234.616 220.78C234.676 220.933 234.663 221.1 234.576 221.28C234.49 221.453 234.386 221.637 234.266 221.83C234.253 221.843 234.24 221.86 234.226 221.88C234.22 221.9 234.21 221.923 234.196 221.95C234.35 221.917 234.573 221.85 234.866 221.75C235.166 221.65 235.583 221.503 236.116 221.31C236.19 221.283 236.263 221.29 236.336 221.33C236.416 221.363 236.47 221.42 236.496 221.5C236.53 221.573 236.53 221.65 236.496 221.73C236.463 221.803 236.403 221.857 236.316 221.89C236.01 221.997 235.73 222.093 235.476 222.18C235.223 222.267 234.996 222.34 234.796 222.4C234.523 222.48 234.316 222.537 234.176 222.57C234.043 222.597 233.94 222.61 233.866 222.61ZM237.575 222.41C237.542 222.41 237.515 222.407 237.495 222.4C237.388 222.373 237.312 222.333 237.265 222.28C237.225 222.22 237.198 222.173 237.185 222.14C237.132 221.993 237.145 221.843 237.225 221.69C237.312 221.53 237.418 221.363 237.545 221.19C237.585 221.137 237.622 221.08 237.655 221.02C237.688 220.96 237.722 220.903 237.755 220.85C237.762 220.843 237.772 220.83 237.785 220.81C237.745 220.823 237.695 220.843 237.635 220.87C237.582 220.897 237.518 220.937 237.445 220.99C237.325 221.063 237.198 221.16 237.065 221.28C236.932 221.393 236.795 221.513 236.655 221.64C236.622 221.673 236.585 221.707 236.545 221.74C236.512 221.767 236.478 221.797 236.445 221.83C236.385 221.883 236.315 221.91 236.235 221.91C236.148 221.903 236.078 221.867 236.025 221.8C235.965 221.74 235.938 221.67 235.945 221.59C235.952 221.503 235.985 221.433 236.045 221.38C236.078 221.347 236.115 221.317 236.155 221.29C236.188 221.257 236.222 221.223 236.255 221.19C236.415 221.043 236.572 220.907 236.725 220.78C236.885 220.647 237.038 220.533 237.185 220.44C237.338 220.347 237.488 220.28 237.635 220.24C237.788 220.193 237.935 220.19 238.075 220.23C238.188 220.263 238.268 220.31 238.315 220.37C238.362 220.43 238.392 220.483 238.405 220.53C238.465 220.683 238.452 220.84 238.365 221C238.278 221.16 238.168 221.337 238.035 221.53C238.022 221.543 238.005 221.567 237.985 221.6C237.972 221.627 237.955 221.653 237.935 221.68C238.035 221.64 238.162 221.593 238.315 221.54C238.475 221.48 238.672 221.403 238.905 221.31C238.992 221.283 239.072 221.29 239.145 221.33C239.218 221.363 239.268 221.42 239.295 221.5C239.328 221.573 239.325 221.65 239.285 221.73C239.252 221.803 239.198 221.857 239.125 221.89C238.912 221.963 238.718 222.03 238.545 222.09C238.372 222.15 238.225 222.203 238.105 222.25C238.038 222.277 237.978 222.3 237.925 222.32C237.878 222.333 237.835 222.347 237.795 222.36C237.742 222.373 237.698 222.387 237.665 222.4C237.638 222.407 237.608 222.41 237.575 222.41ZM239.799 223.28C239.746 223.28 239.696 223.277 239.649 223.27C239.609 223.263 239.566 223.253 239.519 223.24C239.399 223.207 239.316 223.137 239.269 223.03C239.209 222.897 239.209 222.737 239.269 222.55C239.336 222.357 239.442 222.11 239.589 221.81C239.616 221.757 239.642 221.697 239.669 221.63C239.696 221.563 239.726 221.5 239.759 221.44C239.672 221.473 239.579 221.53 239.479 221.61C239.386 221.683 239.289 221.76 239.189 221.84C239.122 221.893 239.049 221.913 238.969 221.9C238.882 221.887 238.812 221.85 238.759 221.79C238.706 221.723 238.686 221.65 238.699 221.57C238.712 221.49 238.749 221.42 238.809 221.36C238.902 221.293 238.999 221.22 239.099 221.14C239.199 221.06 239.306 220.993 239.419 220.94C239.692 220.8 239.942 220.763 240.169 220.83C240.276 220.85 240.356 220.917 240.409 221.03C240.462 221.143 240.459 221.277 240.399 221.43C240.346 221.583 240.252 221.8 240.119 222.08C240.086 222.16 240.049 222.24 240.009 222.32C239.976 222.4 239.942 222.477 239.909 222.55C239.896 222.577 239.886 222.6 239.879 222.62C239.872 222.64 239.866 222.66 239.859 222.68C239.926 222.673 240.009 222.653 240.109 222.62C240.216 222.587 240.336 222.537 240.469 222.47C240.609 222.397 240.769 222.3 240.949 222.18C241.129 222.06 241.336 221.91 241.569 221.73C241.749 221.583 241.919 221.44 242.079 221.3C242.239 221.16 242.379 221.033 242.499 220.92C242.619 220.807 242.716 220.713 242.789 220.64C242.862 220.567 242.899 220.53 242.899 220.53C242.979 220.437 243.076 220.407 243.189 220.44C243.242 220.453 243.286 220.477 243.319 220.51C243.352 220.543 243.379 220.577 243.399 220.61C243.446 220.703 243.449 220.813 243.409 220.94C243.369 221.067 243.296 221.263 243.189 221.53C243.149 221.617 243.109 221.703 243.069 221.79C243.036 221.877 243.002 221.957 242.969 222.03C242.962 222.063 242.952 222.1 242.939 222.14C243.032 222.127 243.132 222.09 243.239 222.03C243.346 221.97 243.452 221.903 243.559 221.83C243.666 221.757 243.766 221.68 243.859 221.6C243.952 221.513 244.036 221.44 244.109 221.38C244.176 221.32 244.249 221.293 244.329 221.3C244.409 221.307 244.479 221.34 244.539 221.4C244.592 221.467 244.616 221.54 244.609 221.62C244.609 221.7 244.576 221.77 244.509 221.83C244.356 221.97 244.199 222.103 244.039 222.23C243.879 222.35 243.716 222.457 243.549 222.55C243.389 222.637 243.226 222.7 243.059 222.74C242.892 222.773 242.729 222.77 242.569 222.73C242.462 222.69 242.386 222.623 242.339 222.53C242.299 222.437 242.286 222.337 242.299 222.23C242.319 222.117 242.359 221.973 242.419 221.8C242.346 221.867 242.269 221.93 242.189 221.99C242.116 222.05 242.036 222.117 241.949 222.19C241.029 222.917 240.312 223.28 239.799 223.28ZM245.121 223.28C245.068 223.28 245.018 223.277 244.971 223.27C244.931 223.263 244.888 223.253 244.841 223.24C244.721 223.207 244.638 223.137 244.591 223.03C244.531 222.897 244.531 222.737 244.591 222.55C244.658 222.357 244.765 222.11 244.911 221.81C244.938 221.757 244.965 221.697 244.991 221.63C245.018 221.563 245.048 221.5 245.081 221.44C244.995 221.473 244.901 221.53 244.801 221.61C244.708 221.683 244.611 221.76 244.511 221.84C244.445 221.893 244.371 221.913 244.291 221.9C244.205 221.887 244.135 221.85 244.081 221.79C244.028 221.723 244.008 221.65 244.021 221.57C244.035 221.49 244.071 221.42 244.131 221.36C244.225 221.293 244.321 221.22 244.421 221.14C244.521 221.06 244.628 220.993 244.741 220.94C245.015 220.8 245.265 220.763 245.491 220.83C245.598 220.85 245.678 220.917 245.731 221.03C245.785 221.143 245.781 221.277 245.721 221.43C245.668 221.583 245.575 221.8 245.441 222.08C245.408 222.16 245.371 222.24 245.331 222.32C245.298 222.4 245.265 222.477 245.231 222.55C245.218 222.577 245.208 222.6 245.201 222.62C245.195 222.64 245.188 222.66 245.181 222.68C245.248 222.673 245.331 222.653 245.431 222.62C245.538 222.587 245.658 222.537 245.791 222.47C245.931 222.397 246.091 222.3 246.271 222.18C246.451 222.06 246.658 221.91 246.891 221.73C247.071 221.583 247.241 221.44 247.401 221.3C247.561 221.16 247.701 221.033 247.821 220.92C247.941 220.807 248.038 220.713 248.111 220.64C248.185 220.567 248.221 220.53 248.221 220.53C248.301 220.437 248.398 220.407 248.511 220.44C248.565 220.453 248.608 220.477 248.641 220.51C248.675 220.543 248.701 220.577 248.721 220.61C248.768 220.703 248.771 220.813 248.731 220.94C248.691 221.067 248.618 221.263 248.511 221.53C248.471 221.617 248.431 221.703 248.391 221.79C248.358 221.877 248.325 221.957 248.291 222.03C248.285 222.063 248.275 222.1 248.261 222.14C248.355 222.127 248.455 222.09 248.561 222.03C248.668 221.97 248.775 221.903 248.881 221.83C248.988 221.757 249.088 221.68 249.181 221.6C249.275 221.513 249.358 221.44 249.431 221.38C249.498 221.32 249.571 221.293 249.651 221.3C249.731 221.307 249.801 221.34 249.861 221.4C249.915 221.467 249.938 221.54 249.931 221.62C249.931 221.7 249.898 221.77 249.831 221.83C249.678 221.97 249.521 222.103 249.361 222.23C249.201 222.35 249.038 222.457 248.871 222.55C248.711 222.637 248.548 222.7 248.381 222.74C248.215 222.773 248.051 222.77 247.891 222.73C247.785 222.69 247.708 222.623 247.661 222.53C247.621 222.437 247.608 222.337 247.621 222.23C247.641 222.117 247.681 221.973 247.741 221.8C247.668 221.867 247.591 221.93 247.511 221.99C247.438 222.05 247.358 222.117 247.271 222.19C246.351 222.917 245.635 223.28 245.121 223.28Z" fill="#9CA7B7"/>
<rect x="186.5" y="43.5" width="107" height="195" rx="13.5" stroke="#C2CAD6"/>
</svg>
