<svg width="24" height="24" viewBox="0 0 24 24" fill="none" xmlns="http://www.w3.org/2000/svg">
<path d="M17.5324 14.6032C17.3341 14.6032 17.1401 14.5444 16.9752 14.4342C16.8102 14.324 16.6817 14.1673 16.6057 13.984C16.5298 13.8007 16.51 13.5991 16.5487 13.4045C16.5874 13.2099 16.6829 13.0312 16.8232 12.8909C16.9635 12.7506 17.1422 12.6551 17.3368 12.6164C17.5313 12.5777 17.733 12.5976 17.9163 12.6735C18.0996 12.7494 18.2562 12.878 18.3664 13.0429C18.4767 13.2079 18.5355 13.4018 18.5355 13.6002C18.5355 13.8662 18.4298 14.1213 18.2417 14.3094C18.0536 14.4976 17.7985 14.6032 17.5324 14.6032ZM6.48846 14.6032C6.29008 14.6032 6.09615 14.5444 5.9312 14.4342C5.76625 14.324 5.63768 14.1673 5.56176 13.984C5.48585 13.8007 5.46599 13.5991 5.50469 13.4045C5.54339 13.2099 5.63892 13.0312 5.7792 12.8909C5.91948 12.7506 6.09821 12.6551 6.29278 12.6164C6.48735 12.5777 6.68903 12.5976 6.87231 12.6735C7.0556 12.7494 7.21225 12.878 7.32247 13.0429C7.43268 13.2079 7.49151 13.4018 7.49151 13.6002C7.49151 13.8662 7.38583 14.1213 7.19772 14.3094C7.00961 14.4976 6.75449 14.6032 6.48846 14.6032ZM17.8877 8.58494L19.8938 5.12652C19.9208 5.07916 19.9383 5.02693 19.9451 4.97281C19.9519 4.91869 19.948 4.86376 19.9335 4.81117C19.9191 4.75858 19.8943 4.70937 19.8608 4.66636C19.8272 4.62335 19.7855 4.58739 19.738 4.56055C19.6906 4.53371 19.6382 4.51652 19.5841 4.50996C19.5299 4.5034 19.475 4.5076 19.4225 4.52233C19.37 4.53706 19.3209 4.56201 19.278 4.59577C19.2352 4.62953 19.1994 4.67141 19.1728 4.71903L17.1458 8.21925C15.5359 7.48357 13.7857 7.10571 12.0157 7.11172C10.2436 7.10738 8.49098 7.48141 6.87505 8.2088L4.84806 4.70858C4.79373 4.61354 4.70398 4.54388 4.59844 4.51484C4.49289 4.4858 4.38013 4.49973 4.28483 4.5536C4.18953 4.60746 4.11944 4.69688 4.08989 4.80228C4.06033 4.90769 4.07372 5.02051 4.12712 5.11607L6.12277 8.57449C4.39726 9.51557 2.9337 10.8721 1.86461 12.5214C0.79551 14.1706 0.154636 16.0605 0 18.0199H24C23.8501 16.0619 23.2122 14.1726 22.1445 12.5246C21.0768 10.8765 19.6133 9.52206 17.8877 8.58494Z" fill="#3DDC84"/>
</svg>
