<svg width="24" height="24" viewBox="0 0 24 24" fill="none" xmlns="http://www.w3.org/2000/svg">
<path d="M21.7117 11.084H14.3814L7.96786 17.4989L11.6321 21.1633L21.7117 11.084Z" fill="#54C5F8"/>
<path d="M6.13514 15.666L2.46928 12.0002L14.3816 0.0878906H21.7119L6.13514 15.666Z" fill="#54C5F8"/>
<path d="M11.6322 21.1626L14.3815 23.9119H21.7118L15.298 17.498L11.6322 21.1626Z" fill="#01579B"/>
<path d="M11.6322 21.1625L17.0685 19.2808L15.298 17.498L11.6322 21.1625Z" fill="url(#paint0_linear)"/>
<path d="M11.6326 13.833L7.96758 17.498L11.6326 21.1631L15.2977 17.498L11.6326 13.833Z" fill="#29B6F6"/>
<path d="M21.7119 11.0838L15.2982 17.4974L21.7119 23.9125H14.3816L11.6323 21.1632L7.96668 17.4974L14.3818 11.0836H21.7119V11.0838ZM14.3816 0.0878906L2.46928 12.0002L6.13514 15.666L21.7119 0.0878906H14.3816Z" fill="url(#paint1_radial)"/>
<defs>
<linearGradient id="paint0_linear" x1="12.7014" y1="21.8707" x2="15.4314" y2="19.1407" gradientUnits="userSpaceOnUse">
<stop stop-color="#1A237E" stop-opacity="0.4"/>
<stop offset="1" stop-color="#1A237E" stop-opacity="0"/>
</linearGradient>
<radialGradient id="paint1_radial" cx="0" cy="0" r="1" gradientUnits="userSpaceOnUse" gradientTransform="translate(3.01085 1.71229) scale(29.1481)">
<stop stop-color="white" stop-opacity="0.1"/>
<stop offset="1" stop-color="white" stop-opacity="0"/>
</radialGradient>
</defs>
</svg>
