<svg width="24" height="24" viewBox="0 0 24 24" fill="none" xmlns="http://www.w3.org/2000/svg">
<path fill-rule="evenodd" clip-rule="evenodd" d="M22.0799 12.2385C22.0799 11.494 22.013 10.7781 21.889 10.0908H11.9999V14.1524H17.6508C17.4074 15.4649 16.6676 16.5769 15.5556 17.3214V19.956H18.949C20.9344 18.128 22.0799 15.4362 22.0799 12.2385Z" fill="#4285F4"/>
<path fill-rule="evenodd" clip-rule="evenodd" d="M11.9999 22.5001C14.8349 22.5001 17.2117 21.5598 18.949 19.9562L15.5556 17.3217C14.6154 17.9517 13.4126 18.3239 11.9999 18.3239C9.26518 18.3239 6.95042 16.4769 6.12475 13.9951H2.61682V16.7156C4.34453 20.1471 7.89542 22.5001 11.9999 22.5001Z" fill="#34A853"/>
<path fill-rule="evenodd" clip-rule="evenodd" d="M6.12474 13.9946C5.91474 13.3646 5.79542 12.6916 5.79542 11.9996C5.79542 11.3076 5.91474 10.6346 6.12474 10.0046V7.28418H2.61681C1.90568 8.70167 1.5 10.3053 1.5 11.9996C1.5 13.6939 1.90568 15.2975 2.61681 16.715L6.12474 13.9946Z" fill="#FBBC05"/>
<path fill-rule="evenodd" clip-rule="evenodd" d="M11.9999 5.6761C13.5415 5.6761 14.9256 6.20587 16.0138 7.24632L19.0253 4.23475C17.2069 2.54045 14.8301 1.5 11.9999 1.5C7.89542 1.5 4.34454 3.85294 2.61682 7.2845L6.12475 10.0049C6.95042 7.52313 9.26518 5.6761 11.9999 5.6761Z" fill="#EA4335"/>
</svg>
