<svg width="32" height="32" viewBox="0 0 32 32" fill="none" xmlns="http://www.w3.org/2000/svg">
<rect x="2" y="2" width="28" height="28" fill="#F7DF1E"/>
<path fill-rule="evenodd" clip-rule="evenodd" d="M20.809 23.8751C21.373 24.796 22.1068 25.4729 23.4046 25.4729C24.4948 25.4729 25.1912 24.928 25.1912 24.1751C25.1912 23.2729 24.4757 22.9533 23.2757 22.4285L22.6179 22.1462C20.7192 21.3373 19.4579 20.324 19.4579 18.1818C19.4579 16.2085 20.9615 14.7062 23.3112 14.7062C24.9841 14.7062 26.1868 15.2885 27.0535 16.8129L25.0046 18.1285C24.5535 17.3196 24.0668 17.0009 23.3112 17.0009C22.5406 17.0009 22.0521 17.4898 22.0521 18.1285C22.0521 18.9178 22.541 19.2373 23.6699 19.7262L24.3277 20.008C26.5632 20.9667 27.8255 21.944 27.8255 24.1413C27.8255 26.5102 25.9646 27.808 23.4655 27.808C21.0219 27.808 19.4432 26.6436 18.6708 25.1173L20.809 23.8751ZM11.5143 24.1033C11.9277 24.8366 12.3037 25.4566 13.2077 25.4566C14.0721 25.4566 14.6174 25.1184 14.6174 23.8033V14.8566H17.2486V23.8389C17.2486 26.5633 15.6512 27.8033 13.3197 27.8033C11.213 27.8033 9.993 26.7131 9.37256 25.4L11.5143 24.1033Z" fill="black"/>
</svg>
