<svg width="24" height="24" viewBox="0 0 24 24" fill="none" xmlns="http://www.w3.org/2000/svg">
<path d="M11.2141 0.00645849C11.1625 0.0111499 10.9982 0.0275698 10.8504 0.0392982C7.44164 0.346584 4.24868 2.18561 2.22639 5.01217C1.10029 6.58379 0.380059 8.36652 0.107918 10.2548C0.0117302 10.9139 0 11.1086 0 12.0023C0 12.8961 0.0117302 13.0908 0.107918 13.7499C0.760117 18.256 3.96716 22.0419 8.31672 23.4447C9.0956 23.6956 9.91672 23.8669 10.8504 23.9701C11.2141 24.01 12.7859 24.01 13.1496 23.9701C14.7613 23.7918 16.1267 23.3931 17.4733 22.7058C17.6798 22.6002 17.7196 22.5721 17.6915 22.5486C17.6727 22.5345 16.793 21.3546 15.7372 19.9285L13.8182 17.3365L11.4135 13.778C10.0903 11.8217 9.00176 10.222 8.99238 10.222C8.98299 10.2196 8.97361 11.8006 8.96891 13.7311C8.96188 17.1113 8.95953 17.2473 8.9173 17.3271C8.85631 17.442 8.80938 17.4889 8.71085 17.5405C8.63578 17.5781 8.57009 17.5851 8.21584 17.5851H7.80997L7.70205 17.5171C7.63167 17.4725 7.58006 17.4139 7.54487 17.3458L7.4956 17.2403L7.50029 12.5372L7.50733 7.8317L7.58006 7.74022C7.6176 7.69096 7.69736 7.62763 7.75367 7.59713C7.84985 7.55022 7.88739 7.54553 8.29325 7.54553C8.77185 7.54553 8.85161 7.56429 8.97595 7.70034C9.01114 7.73787 10.3132 9.69888 11.871 12.061C13.4287 14.4231 15.5589 17.6484 16.6053 19.2318L18.5056 22.11L18.6018 22.0466C19.4534 21.493 20.3543 20.7049 21.0674 19.8839C22.5853 18.141 23.5636 16.0158 23.8921 13.7499C23.9883 13.0908 24 12.8961 24 12.0023C24 11.1086 23.9883 10.9139 23.8921 10.2548C23.2399 5.74872 20.0328 1.96277 15.6833 0.560043C14.9161 0.311399 14.0997 0.140163 13.1848 0.0369525C12.9595 0.0134956 11.4088 -0.0123071 11.2141 0.00645849ZM16.1267 7.26404C16.2393 7.32034 16.3308 7.42824 16.3636 7.54084C16.3824 7.60182 16.3871 8.90603 16.3824 11.8452L16.3754 16.0627L15.6317 14.9227L14.8856 13.7827V10.7169C14.8856 8.73479 14.895 7.62059 14.9091 7.56664C14.9466 7.43528 15.0287 7.33207 15.1413 7.27108C15.2375 7.22182 15.2727 7.21713 15.6411 7.21713C15.9883 7.21713 16.0493 7.22182 16.1267 7.26404Z" fill="#21324B"/>
</svg>
