<svg width="142" height="48" viewBox="0 0 142 48" fill="none" xmlns="http://www.w3.org/2000/svg">
<g clip-path="url(#clip0)">
<g clip-path="url(#clip1)">
<path fill-rule="evenodd" clip-rule="evenodd" d="M75.8224 22.8273H82.995V17.125H86.7895V31.7528H82.995V26.0506H75.8224V31.7528H72.1616V17.125H75.8224V22.8273ZM101.262 17.125H95.4053C93.783 17.125 92.7956 17.4318 92.0483 18.1792C91.304 18.9235 91.0184 19.8683 91.0184 21.5361V27.3478C91.0184 29.0156 91.304 29.9574 92.0483 30.7047C92.7926 31.4521 93.7799 31.7589 95.4053 31.7589H101.262C102.885 31.7589 103.872 31.4521 104.619 30.7047C105.367 29.9604 105.649 29.0156 105.649 27.3478V21.5361C105.649 19.8683 105.364 18.9265 104.619 18.1792C103.872 17.4318 102.885 17.125 101.262 17.125ZM101.986 27.4329C101.986 28.2896 101.7 28.5296 100.67 28.5296H95.9977C94.9678 28.5296 94.6822 28.2896 94.6822 27.4329V21.445C94.6822 20.5883 94.9678 20.3483 95.9977 20.3483H100.67C101.724 20.3483 101.986 20.567 101.986 21.445V27.4329ZM114.726 22.9792H119.967C121.589 22.9792 122.598 23.286 123.324 24.0334C123.98 24.6926 124.354 25.765 124.354 26.9285V27.8065C124.354 28.9701 123.98 30.0212 123.324 30.7017C122.598 31.4491 121.61 31.7559 119.967 31.7559H109.966V28.5326H119.353C120.383 28.5326 120.668 28.2926 120.668 27.4359V26.9984C120.668 26.1417 120.383 25.9017 119.353 25.9017H114.113C112.487 25.9017 111.479 25.5918 110.756 24.8475C110.099 24.1883 109.726 23.1159 109.726 21.9523V21.0744C109.726 19.9108 110.096 18.8597 110.756 18.1792C111.482 17.4318 112.466 17.125 114.113 17.125H123.591V20.3483H114.726C113.696 20.3483 113.411 20.5883 113.411 21.445V21.8825C113.411 22.7392 113.696 22.9792 114.726 22.9792ZM126.674 20.3483V17.125H141.588V20.3483H135.973V31.7528H132.31V20.3483H126.674Z" fill="white"/>
<path d="M63.3964 17.0098H57.5392C55.9169 17.0098 54.9296 17.3166 54.1822 18.0639C53.4379 18.8082 53.1523 19.7531 53.1523 21.4179V23.6386V24.3222V31.75H56.8161V24.3252V23.6417V21.3328C56.8161 20.4761 57.1017 20.2361 58.1316 20.2361H62.804C63.8582 20.2361 64.1194 20.4548 64.1194 21.3328V23.6417V24.3252V31.7531H67.7832V24.3252V23.6417V21.4209C67.7832 19.7531 67.4977 18.8113 66.7534 18.067C66.009 17.3166 65.0217 17.0098 63.3964 17.0098Z" fill="white"/>
<g clip-path="url(#clip2)">
<g clip-path="url(#clip3)">
<path d="M40.724 10.2866L24.0304 0.647089C22.5327 -0.215696 20.6734 -0.215696 19.1727 0.647089C17.6749 1.51291 16.7453 3.12304 16.7453 4.85165V6.10937L15.6577 5.48051C14.16 4.61772 12.3008 4.61772 10.8 5.48051C9.30228 6.34633 8.37266 7.95646 8.37266 9.6881V10.9458L7.28506 10.317C5.78734 9.45418 3.9281 9.45418 2.42734 10.317C0.929617 11.1828 0 12.7929 0 14.5246V44.7281C0 45.597 0.504301 46.4051 1.2881 46.7818C2.06886 47.1615 3.01671 47.0582 3.69722 46.5205L11.9757 39.9919L24.7413 47.362C25.0937 47.5656 25.4886 47.6658 25.8835 47.6658C26.2785 47.6658 26.6734 47.5625 27.0258 47.362C27.7306 46.9549 28.1681 46.1985 28.1681 45.3843V27.2081C28.1681 24.2248 26.5641 21.4481 23.9818 19.9565L19.7954 17.5382V4.85468C19.7954 4.21063 20.1418 3.60911 20.7008 3.28709C21.2597 2.96506 21.9524 2.96506 22.5114 3.28709L39.2051 12.9235C40.8486 13.8714 41.8694 15.6425 41.8694 17.5382V40.1711C41.8694 40.8152 41.523 41.4167 40.964 41.7387L36.5408 44.2937V22.3716C36.5408 19.3884 34.9367 16.6116 32.3544 15.12L22.077 9.18684V12.7018L30.8324 17.757C32.4759 18.7048 33.4967 20.4729 33.4967 22.3716V45.6091C33.4967 46.4203 33.9342 47.1797 34.639 47.5868C34.9914 47.7904 35.3863 47.8906 35.7813 47.8906C36.1762 47.8906 36.5711 47.7873 36.9235 47.5868L42.4891 44.3727C43.9868 43.5068 44.9165 41.8967 44.9165 40.1651V17.5322C44.9104 14.558 43.3063 11.7782 40.724 10.2866ZM22.4537 22.5934C24.0972 23.5413 25.118 25.3094 25.118 27.2081V44.0689L14.5458 37.9656L17.9392 35.2921C19.1149 34.3656 19.7894 32.9772 19.7894 31.4795V21.0592L22.4537 22.5934ZM16.7453 19.2972V31.4734C16.7453 32.0324 16.4932 32.5519 16.0557 32.8952L3.04405 43.1544V14.5215C3.04405 13.8775 3.39038 13.2759 3.94937 12.9539C4.50835 12.6319 5.20101 12.6319 5.76 12.9539L8.37266 14.4608V36.0456L11.4167 33.6456V9.6881C11.4167 9.04405 11.763 8.44253 12.322 8.12051C12.881 7.79848 13.5737 7.79848 14.1327 8.12051L16.7453 9.62734V15.7792L13.7013 14.0203V17.5382L16.7453 19.2972Z" fill="white"/>
</g>
</g>
</g>
</g>
<defs>
<clipPath id="clip0">
<rect width="141.57" height="48" fill="white"/>
</clipPath>
<clipPath id="clip1">
<rect width="141.57" height="48" fill="white"/>
</clipPath>
<clipPath id="clip2">
<rect width="44.9165" height="47.8906" fill="white"/>
</clipPath>
<clipPath id="clip3">
<rect width="44.9165" height="47.8906" fill="white"/>
</clipPath>
</defs>
</svg>
