<svg width="24" height="24" viewBox="0 0 24 24" fill="none" xmlns="http://www.w3.org/2000/svg">
<g clip-path="url(#clip0)">
<path fill-rule="evenodd" clip-rule="evenodd" d="M7.29184 19.6172C7.27403 19.5858 7.25817 19.5532 7.24435 19.5198C7.14847 19.298 7.11895 19.0531 7.15936 18.8149H1.4879L9.91636 3.9826L12.6834 8.84671L13.4857 7.42697L11.0736 3.17775C11.0062 3.05527 10.5987 2.40039 9.89636 2.40039C9.57892 2.40039 9.124 2.53787 8.75407 3.18775L0.215628 18.2C0.143142 18.33 -0.209294 19.0124 0.140642 19.6172C0.300613 19.8922 0.640551 20.2196 1.39041 20.2196H8.54161C7.79675 20.2196 7.45181 19.8972 7.29184 19.6172Z" fill="#00C58E"/>
<path fill-rule="evenodd" clip-rule="evenodd" d="M23.7339 18.1994L16.7177 5.83911C16.6452 5.70914 16.2403 5.05176 15.5354 5.05176C15.218 5.05176 14.7631 5.18673 14.3931 5.83661L13.4858 7.42632L14.2931 8.84607L15.5429 6.63397L22.4842 18.8142H19.8446C19.8784 19.0156 19.8595 19.2223 19.7896 19.4141C19.7749 19.4565 19.7565 19.4975 19.7347 19.5366L19.7122 19.5816C19.3572 20.1865 18.5899 20.219 18.4399 20.219H22.5691C22.7216 20.219 23.4865 20.1865 23.8414 19.5816C23.9989 19.3067 24.1114 18.8442 23.7339 18.1994Z" fill="#108775"/>
<path d="M19.7126 19.582L19.7351 19.5371C19.757 19.4979 19.7754 19.4569 19.7901 19.4146C19.8599 19.2227 19.8788 19.016 19.8451 18.8147C19.8062 18.5975 19.7282 18.3892 19.6151 18.1998L14.2986 8.8465L13.4862 7.42676L12.6789 8.8465L7.36484 18.1998C7.26166 18.3914 7.19232 18.5995 7.15987 18.8147C7.11711 19.0522 7.14402 19.297 7.23736 19.5196C7.25118 19.553 7.26704 19.5855 7.28485 19.617C7.44482 19.892 7.78476 20.2194 8.53462 20.2194H18.4328C18.5903 20.2194 19.3576 20.1869 19.7126 19.582ZM13.4862 10.2662L18.3453 18.8147H8.62961L13.4862 10.2662Z" fill="#2F495E"/>
</g>
<defs>
<clipPath id="clip0">
<rect width="24" height="24" fill="white"/>
</clipPath>
</defs>
</svg>
