<svg width="24" height="24" viewBox="0 0 24 24" fill="none" xmlns="http://www.w3.org/2000/svg">
<path fill-rule="evenodd" clip-rule="evenodd" d="M24 12.0015C24 10.4116 22.009 8.90484 18.9564 7.97047C19.6608 4.85918 19.3477 2.38384 17.9682 1.59134C17.6515 1.40619 17.2814 1.3181 16.8773 1.3174V1.3125C15.532 1.3125 13.7709 2.27133 11.9902 3.9346C10.2095 2.28111 8.44843 1.33207 7.10314 1.33207V1.33696C6.69221 1.33696 6.32042 1.42502 5.99755 1.61091C4.62291 2.40341 4.31472 4.87385 5.02405 7.97536C1.98125 8.91462 0 10.4165 0 12.0015C0 13.5913 1.99103 15.0981 5.04362 16.0324C4.33918 19.1437 4.65226 21.6191 6.0318 22.4116C6.34978 22.5975 6.72157 22.6855 7.13249 22.6855C8.47778 22.6855 10.2389 21.7267 12.0196 20.0634C13.8002 21.7169 15.5614 22.6659 16.9066 22.6659C17.3176 22.6659 17.6894 22.5779 18.0122 22.392C19.3869 21.5995 19.6951 19.1291 18.9857 16.0275C22.0188 15.0932 24 13.5865 24 12.0015ZM12.768 4.69774C14.3603 3.21785 15.855 2.40601 16.8724 2.40342V2.4083C17.0974 2.4083 17.2784 2.45233 17.4301 2.53549C18.0954 2.91707 18.384 4.36998 18.159 6.23871C18.1052 6.69856 18.0171 7.18286 17.9095 7.67695C16.9507 7.44214 15.9038 7.26114 14.8031 7.14373C14.1427 6.23871 13.4578 5.41686 12.768 4.69774ZM7.10314 2.42298C8.11578 2.42298 9.61761 3.23015 11.2124 4.70263C10.5275 5.42175 9.84264 6.23871 9.19201 7.14373C8.08642 7.26114 7.03954 7.44214 6.08072 7.68184C5.9682 7.19265 5.88504 6.71813 5.82634 6.26317C5.59641 4.39444 5.88015 2.94153 6.54056 2.55506C6.68732 2.467 6.87811 2.42787 7.10314 2.42787V2.42298ZM17.6306 8.73856C17.4496 9.36962 17.2246 10.0203 16.9702 10.6709C16.7697 10.2795 16.5593 9.88817 16.3294 9.49681C16.1043 9.10546 15.8646 8.72388 15.6249 8.35209C16.3196 8.45482 16.9898 8.58202 17.6306 8.73856ZM14.2112 15.8171C14.6172 15.2349 15.0086 14.6088 15.3901 13.9484C15.757 13.3075 16.0946 12.652 16.4028 11.9965C16.0946 11.3409 15.757 10.6903 15.3852 10.0495C15.0037 9.39393 14.6074 8.77265 14.2014 8.19051C13.4774 8.1318 12.7387 8.09756 12 8.09756C11.2564 8.09756 10.5177 8.1318 9.78882 8.1954C9.38279 8.77754 8.99143 9.40372 8.60986 10.0641C8.24296 10.705 7.90052 11.3605 7.59722 12.016C7.90541 12.6716 8.24296 13.3222 8.61475 13.963C8.99632 14.6186 9.39257 15.2398 9.79861 15.822C10.5226 15.8807 11.2613 15.9149 12 15.9149C12.7436 15.9149 13.4823 15.8807 14.2112 15.8171ZM16.9703 13.3125C17.2344 13.968 17.4595 14.6235 17.6454 15.2595C17.0045 15.416 16.3294 15.5481 15.6299 15.6508C15.8696 15.2742 16.1093 14.8877 16.3343 14.4915C16.5593 14.1001 16.7697 13.7038 16.9703 13.3125ZM10.6498 16.9669C11.0999 17.5392 11.5548 18.0627 12.0098 18.5323C12.4598 18.0627 12.9148 17.5392 13.3551 16.9669C12.9099 16.9913 12.4549 17.0011 11.9951 17.0011C11.5401 17.0011 11.0901 16.9865 10.6498 16.9669ZM8.37017 15.6508C7.67551 15.5481 7.00531 15.4209 6.36446 15.2644C6.54546 14.6333 6.7705 13.9827 7.02488 13.332C7.22545 13.7234 7.4358 14.1148 7.66573 14.5061C7.89565 14.8975 8.13046 15.2791 8.37017 15.6508ZM13.3453 7.03621C12.8952 6.46385 12.4403 5.9404 11.9853 5.47078C11.5353 5.9404 11.0803 6.46385 10.64 7.03621C11.0852 7.01175 11.5402 7.00196 12 7.00196C12.455 7.00196 12.905 7.01664 13.3453 7.03621ZM8.36529 8.35209C8.12558 8.72878 7.88587 9.11524 7.66084 9.51149C7.43581 9.90285 7.22546 10.2942 7.02489 10.6856C6.76072 10.03 6.53569 9.37452 6.3498 8.73856C6.99064 8.58691 7.66574 8.45482 8.36529 8.35209ZM1.08601 12.0015C1.08601 12.7695 2.20627 13.7382 3.93803 14.4768C4.36363 14.6578 4.82348 14.8242 5.30778 14.9758C5.58173 14.0219 5.94374 13.0288 6.3938 12.0113C5.93885 10.9889 5.57195 9.9909 5.29311 9.03208C4.81859 9.18373 4.35874 9.34516 3.93803 9.52617C2.20627 10.26 1.08601 11.2335 1.08601 12.0015ZM6.5699 21.4673C5.9046 21.0858 5.61597 19.6329 5.841 17.7641C5.89481 17.3043 5.98287 16.82 6.09049 16.3259C7.04932 16.5607 8.0962 16.7417 9.19689 16.8591C9.85731 17.7641 10.5422 18.586 11.232 19.3051C9.63717 20.7874 8.14023 21.5994 7.1227 21.5994C6.90256 21.5945 6.71666 21.5505 6.5699 21.4673ZM17.4595 21.4479C18.1199 21.0615 18.4036 19.6086 18.1737 17.7398C18.1199 17.2849 18.0318 16.8104 17.9193 16.3163C16.9605 16.556 15.9136 16.737 14.808 16.8544C14.1574 17.7594 13.4725 18.5764 12.7876 19.2955C14.3824 20.768 15.8842 21.5751 16.8969 21.5751C17.1219 21.5751 17.3127 21.536 17.4595 21.4479ZM20.0571 14.4767C19.6364 14.6577 19.1765 14.8191 18.702 14.9708C18.4232 14.0119 18.0563 13.014 17.6013 11.9915C18.0514 10.974 18.4134 9.98095 18.6873 9.02701C19.1716 9.17867 19.6315 9.34499 20.062 9.526C21.7937 10.2647 22.914 11.2333 22.914 12.0013C22.9091 12.7694 21.7888 13.7429 20.0571 14.4767ZM14.2307 12.0015C14.2307 13.2362 13.2298 14.2371 11.9951 14.2371C10.7604 14.2371 9.75946 13.2362 9.75946 12.0015C9.75946 10.7668 10.7604 9.76585 11.9951 9.76585C13.2298 9.76585 14.2307 10.7668 14.2307 12.0015Z" fill="#61DAFB"/>
</svg>
