<svg fill="none" height="1000" viewBox="0 0 929 1000" width="929" xmlns="http://www.w3.org/2000/svg" xmlns:xlink="http://www.w3.org/1999/xlink"><filter id="a" color-interpolation-filters="sRGB" filterUnits="userSpaceOnUse" height="968" width="897" x="16" y="19"><feFlood flood-opacity="0" result="BackgroundImageFix"/><feColorMatrix in="SourceAlpha" type="matrix" values="0 0 0 0 0 0 0 0 0 0 0 0 0 0 0 0 0 0 127 0"/><feOffset dy="7"/><feGaussianBlur stdDeviation="4.5"/><feColorMatrix type="matrix" values="0 0 0 0 0 0 0 0 0 0 0 0 0 0 0 0 0 0 0.202934 0"/><feBlend in2="BackgroundImageFix" mode="normal" result="effect1_dropShadow"/><feBlend in="SourceGraphic" in2="effect1_dropShadow" mode="normal" result="shape"/></filter><g filter="url(#a)"><path clip-rule="evenodd" d="m410.901 34.4752c-35.733 17.9669-111.058 52.9466-151.864 80.8508-40.806 27.905-35.733 53.901-53.599 71.868s-71.465 62.884-107.1982 89.834c-35.7327 26.951-26.7995 98.818-35.7327 125.769-8.9332 26.95-26.7995 89.834-35.7327 116.785-8.9332 26.95 17.8663 62.884 35.7327 98.818 17.8664 35.933 62.5319 134.751 80.3989 170.685 17.866 35.934 71.465 17.967 116.131 53.901s107.198 80.851 151.864 107.801c44.666 26.951 62.532 26.951 107.198 0 44.666-26.95 107.198-71.867 151.864-107.801s98.265-17.967 116.131-53.901c17.867-35.934 62.533-134.752 80.399-170.685 17.866-35.934 44.666-71.868 35.733-98.818-8.934-26.951-26.8-89.835-35.733-116.785-8.933-26.951 0-98.818-35.733-125.769-35.732-26.95-77.21-61.265-107.198-89.834-29.987-28.569-17.866-44.917-53.599-71.868-35.733-26.9501-116.131-62.8839-151.864-80.8508s-71.465-17.9669-107.198 0z" fill="#fff" fill-rule="evenodd"/></g><path clip-rule="evenodd" d="m284.731 190.341 167.193 114.125c3.774 2.513 8.181 3.889 12.705 3.966 4.53-.033 8.95-1.413 12.705-3.966l167.32-114.509c6.502-4.655 10.087-12.415 9.435-20.421-.652-8.007-5.444-15.075-12.611-18.602l-167.193-82.7789c-6.343-3.0774-13.732-3.0774-20.074 0l-166.685 82.7789c-7.297 3.546-12.152 10.751-12.729 18.888-.577 8.138 3.212 15.965 9.934 20.519zm236.688 149.949c.013 7.568 3.718 14.647 9.91 18.935l134.034 91.608c8.58 5.916 20.061 5.176 27.823-1.792l112.437-100.563c5.011-4.477 7.793-10.96 7.597-17.703s-3.351-13.052-8.613-17.225l-107.355-85.85c-7.803-6.199-18.689-6.613-26.934-1.024l-138.989 95.062c-6.083 4.211-9.773 11.12-9.91 18.552zm-333.371 124.616c5.417 4.866 8.202 12.044 7.496 19.32-.704 7.318-4.93 13.821-11.308 17.4l-80.039 47.979c-8.1137 4.849-18.358 4.15-25.7475-1.758-7.3894-5.908-10.3891-15.797-7.539-24.855l29.6015-93.142c2.323-7.38 8.209-13.067 15.627-15.097 7.413-2.158 15.407-.266 21.09 4.989zm434.119 9.724-144.706-99.028c-7.691-5.174-17.719-5.174-25.41 0l-144.706 99.028c-5.756 3.984-9.402 10.386-9.91 17.4-.375 7.064 2.424 13.923 7.623 18.68l144.579 129.35c4.17 3.719 9.549 5.768 15.119 5.758 5.567-.002 10.943-2.049 15.119-5.758l144.579-129.35c5.214-4.737 7.978-11.624 7.496-18.68-.404-7.014-4.018-13.442-9.783-17.4zm-385.968-25.589-112.31-100.563c-5.053-4.591-7.842-11.19-7.623-18.04.122-6.752 3.247-13.091 8.512-17.272l107.355-86.362c7.858-6.181 18.765-6.594 27.061-1.023l138.862 95.061c6.445 4.227 10.332 11.447 10.332 19.192s-3.887 14.965-10.332 19.191l-133.907 91.607c-8.633 5.89-20.129 5.154-27.95-1.791zm576.666 144.448-114.343-68.449c-8.491-5.118-19.3-4.081-26.679 2.558l-139.752 124.745c-5.895 5.265-8.664 13.227-7.318 21.045s6.614 14.378 13.924 17.338l193.874 78.557c2.659 1.104 5.509 1.67 8.385 1.663 8.998.028 17.166-5.288 20.836-13.562l60.093-134.596c4.891-10.651.996-23.302-9.02-29.299zm15.88-163.639 29.602 93.142h-.254c2.189 6.968.946 14.568-3.348 20.46-4.293 5.891-11.12 9.365-18.377 9.351-4.071.014-8.068-1.092-11.561-3.198l-80.167-47.979c-6.246-3.654-10.325-10.151-10.926-17.4-.748-7.282 2.044-14.478 7.496-19.32l50.819-45.291c5.741-5.145 13.674-7.022 21.09-4.99 7.413 2.118 13.28 7.834 15.626 15.225zm-424.082 243.475c1.366-7.786-1.375-15.728-7.242-20.982l-139.751-124.745c-7.38-6.639-18.189-7.676-26.68-2.558l-114.343 68.449c-9.9 6.023-13.817 18.514-9.147 29.171l60.22 134.596c4.989 11.223 17.888 16.475 29.221 11.899l193.747-78.557c7.312-2.934 12.599-9.467 13.975-17.273zm68.605 38.383 155.506 62.948c7.603 3.254 12.856 10.405 13.721 18.68.984 8.377-2.737 16.611-9.656 21.366l-155.632 108.112c-3.73 2.62-8.158 4.047-12.705 4.094-4.544-.071-8.965-1.495-12.705-4.094l-155.505-108.112c-6.945-4.743-10.711-12.968-9.783-21.366 1.038-8.361 6.48-15.505 14.229-18.68l155.506-62.948c5.468-2.18 11.556-2.18 17.024 0z" fill="#bf4722" fill-rule="evenodd"/></svg>