<svg width="24" height="24" viewBox="0 0 24 24" fill="none" xmlns="http://www.w3.org/2000/svg">
<path d="M12.0002 1.5C6.20122 1.5 1.5 6.2012 1.5 12.0003C1.5 17.7997 6.20122 22.5005 12.0002 22.5005C17.7998 22.5005 22.5005 17.7997 22.5005 12.0003C22.5005 6.20158 17.7999 1.5 12.0002 1.5Z" fill="#1ED760"/>
<path d="M16.8154 16.6446C16.6273 16.9531 16.2236 17.0509 15.9151 16.8616C13.4498 15.3556 10.3462 15.0146 6.69122 15.8497C6.33901 15.9299 5.98793 15.7092 5.90768 15.3569C5.82706 15.0045 6.04686 14.6535 6.39995 14.5732C10.3998 13.659 13.8307 14.0528 16.5985 15.7443C16.9069 15.9337 17.0047 16.3362 16.8154 16.6446ZM18.1006 13.7851C17.8636 14.1707 17.3596 14.2923 16.9746 14.0554C14.1522 12.3201 9.84982 11.8177 6.51142 12.8311C6.07846 12.9618 5.62118 12.7178 5.48977 12.2856C5.35937 11.8526 5.6035 11.3962 6.0357 11.2646C9.84906 10.1075 14.5898 10.668 17.831 12.6598C18.2159 12.8968 18.3376 13.4007 18.1006 13.7851ZM18.2109 10.8079C14.8268 8.7978 9.24332 8.61298 6.01226 9.59364C5.49341 9.75101 4.94472 9.4581 4.78749 8.93924C4.63025 8.42013 4.9229 7.8718 5.44213 7.71406C9.15117 6.58807 15.317 6.80562 19.2133 9.11867C19.6809 9.39565 19.8339 9.9984 19.5568 10.4645C19.281 10.9312 18.6761 11.085 18.2109 10.8079Z" fill="black"/>
</svg>
