<svg width="24" height="24" viewBox="0 0 24 24" fill="none" xmlns="http://www.w3.org/2000/svg">
<path d="M20.7205 3.17549C18.4911 -0.0143176 14.088 -0.959685 10.9046 1.06825L5.31384 4.63106C4.55927 5.10499 3.9118 5.73104 3.41277 6.46925C2.91374 7.20746 2.57411 8.0416 2.41557 8.91844C2.14822 10.3984 2.38207 11.9252 3.08011 13.2573C2.6017 13.983 2.2757 14.7984 2.12188 15.6539C1.9622 16.5501 1.9833 17.4692 2.18394 18.3572C2.38457 19.2451 2.76069 20.084 3.29019 20.8245C5.51963 24.0143 9.92277 24.9597 13.1062 22.9318L18.6969 19.3839C19.4506 18.909 20.0974 18.2827 20.5963 17.5446C21.0952 16.8066 21.4354 15.973 21.5952 15.0966C21.8615 13.6171 21.6269 12.091 20.9285 10.7599C21.4066 10.0338 21.7333 9.2186 21.8889 8.36323C22.048 7.467 22.0267 6.548 21.8261 5.66013C21.6255 4.77225 21.2496 3.93336 20.7205 3.19264" fill="#FF3E00"/>
<path d="M10.3579 21.1336C9.47777 21.362 8.54873 21.3149 7.69619 20.9987C6.84365 20.6824 6.10864 20.1122 5.59036 19.3651C5.27214 18.9199 5.04619 18.4156 4.9258 17.8817C4.80542 17.3479 4.79303 16.7954 4.88938 16.2567C4.921 16.0815 4.96542 15.9088 5.02229 15.7401L5.12733 15.4186L5.41458 15.6329C6.07485 16.115 6.81198 16.4817 7.59471 16.7176L7.80908 16.7798L7.78979 16.9942C7.76916 17.2881 7.85181 17.58 8.02345 17.8195C8.17984 18.0442 8.40135 18.2157 8.65814 18.3108C8.91493 18.4058 9.19468 18.4199 9.45973 18.3511C9.58092 18.3185 9.69654 18.268 9.80272 18.2011L15.3849 14.6382C15.522 14.552 15.6395 14.438 15.73 14.3036C15.8204 14.1692 15.8818 14.0174 15.9101 13.8579C15.9387 13.6954 15.9344 13.5288 15.8976 13.3679C15.8608 13.207 15.7921 13.0551 15.6957 12.9212C15.5393 12.6964 15.3178 12.5249 15.061 12.4299C14.8042 12.3348 14.5245 12.3207 14.2594 12.3895C14.1381 12.4217 14.0224 12.4723 13.9165 12.5396L11.7728 13.9008C11.4222 14.1231 11.0398 14.2908 10.6388 14.3982C9.76005 14.6252 8.8329 14.5776 7.98206 14.2618C7.13122 13.946 6.39754 13.3771 5.87976 12.6318C5.5625 12.1861 5.33744 11.6816 5.2178 11.1479C5.09816 10.6141 5.08635 10.0618 5.18306 9.5234C5.27773 8.99494 5.48163 8.49205 5.78173 8.04689C6.08182 7.60172 6.47152 7.22408 6.92588 6.93811L12.5252 3.37529C12.8737 3.15343 13.2539 2.98574 13.6528 2.87796C14.5326 2.64941 15.4614 2.69646 16.3136 3.01274C17.1659 3.32902 17.9005 3.8993 18.4182 4.6465C18.7368 5.09153 18.9631 5.5958 19.0839 6.12962C19.2046 6.66345 19.2174 7.21604 19.1213 7.75485C19.0879 7.93109 19.0435 8.10506 18.9884 8.27577L18.8812 8.59733L18.5961 8.38296C17.9345 7.89724 17.1951 7.52755 16.4096 7.28967L16.1952 7.22751L16.2145 7.01314C16.2393 6.71776 16.1588 6.42314 15.9873 6.18139C15.8299 5.96049 15.609 5.79274 15.354 5.70045C15.0989 5.60817 14.8218 5.59571 14.5596 5.66476C14.4382 5.69692 14.3226 5.74753 14.2166 5.81481L8.62369 9.3712C8.48709 9.45753 8.36988 9.57126 8.27948 9.7052C8.18908 9.83914 8.12745 9.99038 8.09848 10.1494C8.07046 10.3123 8.07497 10.4791 8.11176 10.6403C8.14856 10.8014 8.2169 10.9537 8.31285 11.0883C8.46852 11.311 8.68824 11.4811 8.94284 11.5761C9.19745 11.671 9.47491 11.6863 9.73841 11.6199C9.85944 11.5869 9.975 11.5364 10.0814 11.4699L12.2251 10.1108C12.5754 9.88603 12.9588 9.7175 13.3612 9.61129C14.2409 9.38221 15.1696 9.42878 16.0219 9.74469C16.8742 10.0606 17.6089 10.6306 18.1267 11.3777C18.445 11.8228 18.6712 12.3271 18.792 12.8609C18.9127 13.3947 18.9256 13.9472 18.8298 14.486C18.7351 15.0145 18.5312 15.5174 18.2311 15.9626C17.931 16.4077 17.5413 16.7854 17.087 17.0713L11.4941 20.6342C11.1428 20.8572 10.7597 21.0256 10.3579 21.1336Z" fill="white"/>
</svg>
