<svg width="24" height="24" viewBox="0 0 97 155" fill="none" xmlns="http://www.w3.org/2000/svg">
<path d="M32.2931 94.2987C31.8899 94.5291 31.5368 94.8378 31.2545 95.2066C30.9722 95.5753 30.7664 95.9968 30.6492 96.4462C30.532 96.8956 30.5058 97.3639 30.5721 97.8235C30.6384 98.2832 30.7959 98.725 31.0353 99.123C35.8595 107.093 29.1476 114.222 28.9388 114.433C28.3303 115.13 27.9951 116.024 27.9951 116.949C27.9951 117.875 28.3303 118.769 28.9388 119.466C29.2659 119.801 29.6575 120.067 30.0901 120.248C30.5228 120.428 30.9874 120.519 31.4561 120.515C32.3947 120.482 33.2894 120.109 33.9734 119.466C37.7471 115.689 43.1995 105.833 37.1174 95.5566C36.6168 94.7809 35.8435 94.2213 34.9502 93.9884C34.0569 93.7555 33.1087 93.8662 32.2931 94.2987Z" fill="url(#paint0_linear_2516_5484)"/>
<path d="M38.5834 72.2781C39.359 71.7776 39.9187 71.0042 40.1516 70.1109C40.3845 69.2176 40.2738 68.2695 39.8413 67.4539C39.6273 67.0442 39.3304 66.6835 38.9695 66.3947C38.6085 66.106 38.1915 65.8955 37.7448 65.7767C36.8148 65.605 35.854 65.7528 35.0186 66.196C34.3889 66.6153 28.7214 69.9712 28.3083 76.0533C28.0979 80.0374 29.9855 83.6038 34.18 86.9581C34.8529 87.4504 35.6519 87.7413 36.4838 87.7967C37.1948 87.8079 37.8919 87.5995 38.4802 87.2001C39.0685 86.8006 39.5192 86.2295 39.7711 85.5645C40.023 84.8996 40.0637 84.1731 39.8877 83.4842C39.7117 82.7952 39.3276 82.1773 38.7876 81.7146C37.3193 80.4567 35.4317 78.5691 35.4317 76.6815C35.4317 74.7939 37.7448 72.9078 38.5834 72.2781Z" fill="url(#paint1_linear_2516_5484)"/>
<path d="M87.6598 73.7472C87.0869 69.5245 85.198 65.5897 82.2613 62.5016C79.3247 59.4136 75.4897 57.3295 71.301 56.5453V39.9838H80.3244C80.7937 39.9881 81.2592 39.8988 81.6937 39.7212C82.1281 39.5436 82.5228 39.2812 82.8547 38.9493C83.1866 38.6174 83.449 38.2227 83.6266 37.7882C83.8042 37.3538 83.8935 36.8883 83.8892 36.419V23.8354C86.3808 23.1074 88.5677 21.5881 90.1194 19.5071C91.6711 17.4262 92.5033 14.8967 92.4902 12.3009C92.4542 9.09864 91.1568 6.03974 88.8796 3.788C86.6025 1.53626 83.5292 0.273367 80.3267 0.273367C77.1242 0.273367 74.0509 1.53626 71.7737 3.788C69.4966 6.03974 68.1992 9.09864 68.1632 12.3009C68.1501 14.8967 68.9823 17.4262 70.534 19.5071C72.0857 21.5881 74.2726 23.1074 76.7642 23.8354V33.0631H67.7301C67.2608 33.0588 66.7953 33.148 66.3608 33.3256C65.9264 33.5033 65.5317 33.7657 65.1998 34.0976C64.8679 34.4295 64.6055 34.8242 64.4279 35.2586C64.2503 35.693 64.161 36.1585 64.1653 36.6279V51.5183C61.6785 49.8701 58.7597 48.9943 55.7763 49.001C54.5085 49.0369 53.2458 49.1771 52.0011 49.4203V23.8354C54.4927 23.1074 56.6796 21.5881 58.2313 19.5071C59.783 17.4262 60.6152 14.8967 60.602 12.3009C60.6201 10.6921 60.3189 9.09566 59.7157 7.60406C59.1125 6.11247 58.2195 4.75534 57.0882 3.61128C55.9569 2.46722 54.6099 1.55895 53.1252 0.93907C51.6405 0.319185 50.0475 0 48.4386 0C46.8296 0 45.2367 0.319185 43.752 0.93907C42.2672 1.55895 40.9202 2.46722 39.789 3.61128C38.6577 4.75534 37.7646 6.11247 37.1615 7.60406C36.5583 9.09566 36.257 10.6921 36.2751 12.3009C36.262 14.8967 37.0941 17.4262 38.6458 19.5071C40.1976 21.5881 42.3845 23.1074 44.8761 23.8354V49.4203C43.6313 49.1772 42.3686 49.0369 41.1009 49.001C38.1174 48.9943 35.1987 49.8701 32.7118 51.5183V36.6279C32.7161 36.1585 32.6269 35.693 32.4493 35.2586C32.2716 34.8242 32.0092 34.4295 31.6773 34.0976C31.3454 33.7657 30.9508 33.5033 30.5163 33.3256C30.0819 33.148 29.6164 33.0588 29.147 33.0631H20.1298V23.8354C22.6215 23.1074 24.8084 21.5881 26.3601 19.5071C27.9118 17.4262 28.744 14.8967 28.7308 12.3009C28.6948 9.09864 27.3975 6.03974 25.1203 3.788C22.8431 1.53626 19.7698 0.273367 16.5673 0.273367C13.3649 0.273367 10.2916 1.53626 8.0144 3.788C5.73721 6.03974 4.43986 9.09864 4.40388 12.3009C4.39074 14.8967 5.22291 17.4262 6.77462 19.5071C8.32633 21.5881 10.5132 23.1074 13.0049 23.8354V36.419C13.0006 36.8883 13.0898 37.3538 13.2674 37.7882C13.4451 38.2227 13.7075 38.6174 14.0394 38.9493C14.3712 39.2812 14.7659 39.5436 15.2004 39.7212C15.6348 39.8988 16.1003 39.9881 16.5697 39.9838H25.5869V56.5514C21.3982 57.3356 17.5632 59.4198 14.6266 62.5078C11.6899 65.5958 9.80099 69.5306 9.22811 73.7534C7.06034 74.8661 5.15738 76.4322 3.64844 78.3455C2.1395 80.2587 1.0599 82.4742 0.482952 84.8416C-0.0939949 87.2089 -0.154782 89.6727 0.304714 92.0657C0.76421 94.4586 1.73323 96.7247 3.14599 98.71C1.97233 101.124 1.39707 103.786 1.46879 106.469C1.46515 109.093 2.02555 111.687 3.11203 114.075C4.1985 116.463 5.78566 118.59 7.76594 120.311C7.9819 124.817 9.53276 129.157 12.2214 132.779C14.91 136.401 18.6149 139.142 22.8653 140.654C24.0975 144.549 26.521 147.96 29.7941 150.405C33.0672 152.851 37.0251 154.207 41.1101 154.285C43.5641 154.304 45.9944 153.804 48.2412 152.816C50.488 153.804 52.9183 154.304 55.3723 154.285C59.4574 154.207 63.4152 152.851 66.6883 150.405C69.9615 147.96 72.3849 144.549 73.6172 140.654C77.8731 139.151 81.5837 136.412 84.2737 132.788C86.9637 129.164 88.5107 124.819 88.7165 120.311C90.7135 118.604 92.3122 116.48 93.4002 114.088C94.4881 111.697 95.0388 109.096 95.0136 106.469C95.0051 103.794 94.4336 101.15 93.3364 98.71C95.4014 95.8398 96.5027 92.3885 96.4819 88.8527C96.6664 85.7452 95.9271 82.6527 94.3572 79.9647C92.7873 77.2766 90.457 75.1133 87.6598 73.7472ZM75.2867 12.3009C75.2876 11.3059 75.5834 10.3334 76.1368 9.50641C76.6902 8.67943 77.4763 8.03504 78.3958 7.65467C79.3153 7.27429 80.3269 7.17501 81.3028 7.36936C82.2787 7.56371 83.1751 8.04297 83.8787 8.74659C84.5823 9.4502 85.0616 10.3466 85.256 11.3225C85.4503 12.2984 85.351 13.31 84.9706 14.2295C84.5903 15.149 83.9459 15.9351 83.1189 16.4885C82.2919 17.0419 81.3195 17.3377 80.3244 17.3386C79.6602 17.3479 79.001 17.224 78.3856 16.9741C77.7702 16.7242 77.2111 16.3535 76.7414 15.8839C76.2718 15.4142 75.9011 14.8551 75.6512 14.2397C75.4013 13.6243 75.2774 12.9651 75.2867 12.3009ZM11.9512 12.3009C11.9521 11.3057 12.2481 10.333 12.8017 9.50593C13.3553 8.67885 14.1417 8.03446 15.0614 7.65422C15.9812 7.27399 16.9931 7.17497 17.9691 7.3697C18.9451 7.56442 19.8415 8.04414 20.5449 8.74822C21.2483 9.45229 21.7272 10.3491 21.9211 11.3253C22.1149 12.3015 22.015 13.3133 21.6339 14.2327C21.2528 15.1521 20.6077 15.9379 19.7801 16.4907C18.9525 17.0436 17.9796 17.3386 16.9843 17.3386C16.3159 17.365 15.6493 17.2528 15.0264 17.0089C14.4035 16.765 13.8378 16.3948 13.365 15.9216C12.8922 15.4483 12.5225 14.8823 12.2792 14.2592C12.0359 13.6361 11.9242 12.9693 11.9512 12.3009ZM43.6182 12.3009C43.6191 11.3057 43.9151 10.333 44.4687 9.50593C45.0223 8.67885 45.8086 8.03446 46.7284 7.65422C47.6482 7.27399 48.66 7.17497 49.636 7.3697C50.612 7.56442 51.5084 8.04414 52.2119 8.74822C52.9153 9.45229 53.3942 10.3491 53.588 11.3253C53.7819 12.3015 53.6819 13.3133 53.3008 14.2327C52.9198 15.1521 52.2746 15.9379 51.4471 16.4907C50.6195 17.0436 49.6466 17.3386 48.6513 17.3386C47.9874 17.3475 47.3285 17.2233 46.7134 16.9732C46.0984 16.7232 45.5397 16.3524 45.0704 15.8827C44.601 15.4131 44.2306 14.8542 43.9809 14.239C43.7312 13.6238 43.6089 12.9648 43.6182 12.3009ZM45.0865 146.94C43.6966 147.444 42.2205 147.666 40.7439 147.594C39.2673 147.522 37.8198 147.157 36.4855 146.521C34.9256 145.765 33.5299 144.709 32.3785 143.414C31.227 142.118 30.3424 140.608 29.7752 138.97C29.5648 138.132 29.5648 137.293 29.3559 136.244C29.2649 135.774 29.3407 135.286 29.5703 134.866C29.7999 134.445 30.1689 134.118 30.6138 133.94C30.9963 133.708 31.4263 133.565 31.8717 133.521C32.4776 133.575 33.0575 133.792 33.5489 134.151L35.2261 135.409C35.581 135.692 35.9893 135.901 36.4267 136.023C36.8642 136.145 37.3217 136.178 37.772 136.119C38.2223 136.06 38.6562 135.911 39.0476 135.681C39.4391 135.451 39.7801 135.144 40.0503 134.779C40.3436 134.437 40.5532 134.031 40.6625 133.595C40.7718 133.158 40.7778 132.701 40.68 132.262C40.4734 131.395 40.0392 130.6 39.4221 129.958L37.9538 128.28C36.4404 127.127 34.6265 126.434 32.7294 126.286C30.8323 126.137 28.9326 126.538 27.2579 127.442C25.1442 128.626 23.5674 130.579 22.8545 132.894C20.5631 131.545 18.638 129.654 17.2484 127.387C15.8588 125.119 15.0472 122.546 14.8848 119.891C15.1469 117.749 16.0787 115.744 17.5473 114.163C19.0159 112.581 20.9463 111.503 23.0634 111.083C23.5101 110.964 23.9271 110.754 24.2881 110.465C24.649 110.176 24.9459 109.816 25.1599 109.406C25.619 108.576 25.7677 107.609 25.5792 106.68C25.4726 106.237 25.2789 105.82 25.0094 105.453C24.74 105.086 24.4001 104.776 24.0096 104.542C23.6192 104.307 23.186 104.153 22.7353 104.088C22.2846 104.023 21.8255 104.048 21.3847 104.162C19.0941 104.683 16.9308 105.656 15.0219 107.024C13.113 108.393 11.4972 110.13 10.2694 112.132C9.2087 110.352 8.63258 108.326 8.59839 106.254C8.57712 104.013 9.23521 101.817 10.486 99.9572C10.9354 99.2877 11.1392 98.4833 11.0627 97.6806C10.9863 96.8779 10.6344 96.1264 10.0667 95.5538C9.08425 94.5587 8.31734 93.3719 7.8138 92.0674C7.31025 90.7628 7.08087 89.3686 7.13995 87.9715C7.19903 86.5744 7.54531 85.2044 8.1572 83.9471C8.76909 82.6897 9.63346 81.5719 10.6964 80.6633C11.8139 83.3 13.4748 85.6714 15.5709 87.6226C17.6669 89.5739 20.1509 91.0612 22.8607 91.9874C23.2567 92.1585 23.6884 92.2307 24.1185 92.1978C24.8453 92.1982 25.555 91.9781 26.1541 91.5668C26.7532 91.1556 27.2136 90.5723 27.4745 89.894C27.6815 89.4694 27.7891 89.0033 27.7891 88.5309C27.7891 88.0586 27.6815 87.5924 27.4745 87.1678C27.0725 86.3463 26.4083 85.6822 25.5869 85.2802C23.2592 84.5408 21.1831 83.1685 19.5906 81.3168C17.9982 79.465 16.9522 77.2068 16.5697 74.7947C16.6928 71.5163 18.0644 68.4089 20.4037 66.1087C22.743 63.8085 25.8731 62.4894 29.1532 62.4216H29.7829C30.4706 62.5074 31.1677 62.3703 31.7718 62.0305C32.3758 61.6908 32.855 61.1662 33.1388 60.534C33.8822 58.9277 35.0639 57.5639 36.5479 56.5993C38.032 55.6348 39.7581 55.1087 41.5278 55.0816C42.835 55.0571 44.1292 55.3446 45.3031 55.9202V146.938L45.0865 146.94ZM87.0301 95.9761C86.5083 96.574 86.1871 97.3204 86.1119 98.1104C86.0367 98.9003 86.2112 99.694 86.6108 100.38C87.8616 102.24 88.5197 104.435 88.4984 106.677C88.4613 108.747 87.8831 110.771 86.8212 112.548C85.6175 110.526 84.0088 108.774 82.0961 107.402C80.1834 106.03 78.0079 105.068 75.706 104.577C74.776 104.405 73.8152 104.553 72.9798 104.996C72.5701 105.21 72.2094 105.507 71.9206 105.868C71.6319 106.229 71.4214 106.646 71.3026 107.093C71.1309 108.023 71.2787 108.984 71.7219 109.819C71.9359 110.229 72.2327 110.59 72.5937 110.878C72.9546 111.167 73.3717 111.377 73.8184 111.496C75.9056 111.904 77.8144 112.951 79.2799 114.492C80.7454 116.033 81.695 117.992 81.997 120.097C81.8632 122.786 81.0652 125.4 79.6745 127.705C78.2837 130.01 76.3435 131.934 74.0272 133.306C73.3144 130.99 71.7376 129.038 69.6239 127.854C67.9628 126.904 66.0543 126.475 64.1467 126.625C62.2391 126.775 60.4206 127.495 58.9279 128.692L57.2507 129.95C56.8746 130.208 56.5646 130.551 56.346 130.951C56.1274 131.352 56.0064 131.798 55.9928 132.254C55.8741 133.143 56.0993 134.043 56.6226 134.771C56.8945 135.134 57.2363 135.438 57.6278 135.667C58.0192 135.896 58.4525 136.044 58.902 136.102C59.3515 136.161 59.8082 136.129 60.2453 136.009C60.6823 135.888 61.0908 135.682 61.4468 135.401L63.124 134.143C63.5317 133.809 64.033 133.609 64.5589 133.571C65.0847 133.534 65.6094 133.66 66.0606 133.933C66.5055 134.11 66.8745 134.438 67.1041 134.858C67.3337 135.279 67.4095 135.766 67.3185 136.236C67.3175 137.093 67.1758 137.943 66.8992 138.754C66.3673 140.435 65.4978 141.991 64.344 143.325C63.1902 144.659 61.7764 145.744 60.1889 146.513C58.8553 147.152 57.4076 147.518 55.9307 147.59C54.4537 147.662 52.9773 147.438 51.5879 146.932V56.7603C52.7618 56.1847 54.056 55.8973 55.3631 55.9217C57.1329 55.9488 58.859 56.4749 60.3431 57.4395C61.8271 58.404 63.0088 59.7678 63.7521 61.3741C64.0359 62.0061 64.5148 62.5304 65.1186 62.8702C65.7223 63.2099 66.4191 63.3471 67.1065 63.2617H67.9451C71.2141 63.3641 74.3245 64.6944 76.6566 66.9875C78.9886 69.2805 80.3711 72.368 80.5287 75.6348C80.1092 78.0326 79.0499 80.2726 77.4627 82.1182C75.8756 83.9638 73.8194 85.3466 71.5115 86.1203C70.69 86.5223 70.0258 87.1865 69.6239 88.0079C69.4168 88.4325 69.3092 88.8987 69.3092 89.371C69.3092 89.8434 69.4168 90.3096 69.6239 90.7342C69.9203 91.3874 70.3896 91.9473 70.9811 92.3533C71.5725 92.7593 72.2636 92.9961 72.9798 93.038C73.4099 93.0709 73.8416 92.9987 74.2377 92.8276C76.9303 91.8694 79.3986 90.3705 81.4905 88.4231C83.5824 86.4756 85.2538 84.1208 86.4019 81.5035C87.462 82.3681 88.3271 83.4472 88.9406 84.6699C89.5541 85.8926 89.902 87.2312 89.9614 88.5978C90.0209 89.9645 89.7906 91.3283 89.2857 92.5996C88.7807 93.871 88.0126 95.0212 87.0316 95.9746L87.0301 95.9761Z" fill="url(#paint2_linear_2516_5484)"/>
<path d="M66.2659 99.1246C66.5372 98.7244 66.7236 98.2729 66.8133 97.7978C66.9031 97.3228 66.8944 96.8344 66.7878 96.3628C66.6811 95.8913 66.4789 95.4466 66.1934 95.0564C65.908 94.6662 65.5456 94.3387 65.1285 94.0943C64.7114 93.8498 64.2485 93.6936 63.7686 93.6352C63.2887 93.5768 62.8019 93.6176 62.3384 93.755C61.8749 93.8924 61.4445 94.1234 61.0739 94.4339C60.7032 94.7443 60.4003 95.1275 60.1838 95.5598C54.3121 105.626 59.7645 115.482 63.3308 119.467C63.6579 119.803 64.0496 120.069 64.4822 120.249C64.9148 120.43 65.3795 120.521 65.8481 120.516C66.7779 120.445 67.6602 120.077 68.3654 119.467C68.7128 119.147 68.9901 118.758 69.1797 118.324C69.3693 117.891 69.4672 117.424 69.4672 116.951C69.4672 116.478 69.3693 116.01 69.1797 115.577C68.9901 115.144 68.7128 114.755 68.3654 114.434C68.3639 114.224 61.6521 107.094 66.2659 99.1246Z" fill="url(#paint3_linear_2516_5484)"/>
<path d="M58.7173 81.7154C58.1774 82.1781 57.7932 82.796 57.6172 83.4849C57.4412 84.1739 57.482 84.9003 57.7338 85.5653C57.9857 86.2302 58.4365 86.8014 59.0248 87.2008C59.613 87.6003 60.3102 87.8086 61.0211 87.7975C61.4417 87.8186 61.8622 87.7553 62.2579 87.6113C62.6536 87.4672 63.0164 87.2454 63.325 86.9589C67.5195 83.603 69.4071 79.8278 69.1967 76.0541C68.7774 70.1824 63.1146 66.616 62.4864 66.1968C62.0863 65.9254 61.6347 65.7391 61.1596 65.6493C60.6846 65.5596 60.1962 65.5683 59.7246 65.6749C59.2531 65.7815 58.8084 65.9838 58.4182 66.2692C58.028 66.5546 57.7006 66.9171 57.4561 67.3342C57.2116 67.7513 57.0554 68.2141 56.997 68.694C56.9387 69.1739 56.9794 69.6607 57.1168 70.1242C57.2542 70.5878 57.4853 71.0182 57.7957 71.3888C58.1061 71.7594 58.4893 72.0623 58.9216 72.2789C59.7543 72.7419 60.4822 73.3721 61.0597 74.1299C61.6372 74.8876 62.0518 75.7566 62.2775 76.6823C62.0732 78.5683 60.1856 80.4559 58.7173 81.7154Z" fill="url(#paint4_linear_2516_5484)"/>
<defs>
<linearGradient id="paint0_linear_2516_5484" x1="27.9951" y1="93.8691" x2="48.1649" y2="104.076" gradientUnits="userSpaceOnUse">
<stop stop-color="white"/>
<stop offset="1" stop-color="white" stop-opacity="0.45"/>
</linearGradient>
<linearGradient id="paint1_linear_2516_5484" x1="28.2925" y1="65.707" x2="46.8398" y2="77.15" gradientUnits="userSpaceOnUse">
<stop stop-color="white"/>
<stop offset="1" stop-color="white" stop-opacity="0.45"/>
</linearGradient>
<linearGradient id="paint2_linear_2516_5484" x1="0" y1="0" x2="136.948" y2="97.4672" gradientUnits="userSpaceOnUse">
<stop stop-color="white"/>
<stop offset="1" stop-color="white" stop-opacity="0.45"/>
</linearGradient>
<linearGradient id="paint3_linear_2516_5484" x1="57.5928" y1="93.6094" x2="77.8663" y2="103.789" gradientUnits="userSpaceOnUse">
<stop stop-color="white"/>
<stop offset="1" stop-color="white" stop-opacity="0.45"/>
</linearGradient>
<linearGradient id="paint4_linear_2516_5484" x1="56.9712" y1="65.5879" x2="75.7557" y2="77.3657" gradientUnits="userSpaceOnUse">
<stop stop-color="white"/>
<stop offset="1" stop-color="white" stop-opacity="0.45"/>
</linearGradient>
</defs>
</svg>
