<svg width="24" height="24" viewBox="0 0 24 24" fill="none"
  xmlns="http://www.w3.org/2000/svg">
  <path d="M16.5156 9.34766H21.0156V4.84766" stroke="url(#paint0_linear_1689_6526)" stroke-width="1.5" stroke-linejoin="round"/>
  <path d="M6.16602 6.16637C6.9321 5.40029 7.84157 4.7926 8.84251 4.37799C9.84344 3.96339 10.9162 3.75 11.9996 3.75C13.0831 3.75 14.1558 3.96339 15.1568 4.37799C16.1577 4.7926 17.0672 5.40029 17.8333 6.16637L21.0153 9.34835" stroke="url(#paint1_linear_1689_6526)" stroke-width="1.5" stroke-linejoin="round"/>
  <path d="M7.48438 14.6523H2.98438V19.1523" stroke="url(#paint2_linear_1689_6526)" stroke-width="1.5" stroke-linejoin="round"/>
  <path d="M17.8336 17.8343C17.0675 18.6004 16.1581 19.2081 15.1571 19.6227C14.1562 20.0373 13.0834 20.2507 12 20.2507C10.9166 20.2507 9.84378 20.0373 8.84285 19.6227C7.84191 19.2081 6.93244 18.6004 6.16635 17.8343L2.98438 14.6523" stroke="url(#paint3_linear_1689_6526)" stroke-width="1.5" stroke-linejoin="round"/>
  <defs>
    <linearGradient id="paint0_linear_1689_6526" x1="16.5807" y1="5.26236" x2="21.2555" y2="6.42575" gradientUnits="userSpaceOnUse">
      <stop stop-color="white"/>
      <stop offset="1" stop-color="white" stop-opacity="0.35"/>
    </linearGradient>
    <linearGradient id="paint1_linear_1689_6526" x1="6.38067" y1="4.26593" x2="17.7905" y2="11.7975" gradientUnits="userSpaceOnUse">
      <stop stop-color="white"/>
      <stop offset="1" stop-color="white" stop-opacity="0.35"/>
    </linearGradient>
    <linearGradient id="paint2_linear_1689_6526" x1="3.04943" y1="15.067" x2="7.72421" y2="16.2304" gradientUnits="userSpaceOnUse">
      <stop stop-color="white"/>
      <stop offset="1" stop-color="white" stop-opacity="0.35"/>
    </linearGradient>
    <linearGradient id="paint3_linear_1689_6526" x1="3.19903" y1="15.1683" x2="14.6089" y2="22.6998" gradientUnits="userSpaceOnUse">
      <stop stop-color="white"/>
      <stop offset="1" stop-color="white" stop-opacity="0.35"/>
    </linearGradient>
  </defs>
</svg>
  