<svg width="25" height="25" viewBox="0 0 25 25" fill="none" xmlns="http://www.w3.org/2000/svg">
<path fill-rule="evenodd" clip-rule="evenodd" d="M4.17806 9.04687L8.04687 5.17806C8.28428 4.94065 8.6692 4.94065 8.90661 5.17806L12.7754 9.04687C13.0128 9.28428 13.0128 9.6692 12.7754 9.90661C12.538 10.144 12.1531 10.144 11.9157 9.90661L9.08466 7.07559L9.08466 17.7664H7.86881L7.86881 7.07559L5.03779 9.90661C4.80038 10.144 4.41547 10.144 4.17806 9.90661C3.94065 9.6692 3.94065 9.28428 4.17806 9.04687Z" fill="white"/>
<path fill-rule="evenodd" clip-rule="evenodd" d="M16.9531 13.2246L20.8219 17.0934C21.0594 17.3308 21.0594 17.7157 20.8219 17.9531L16.9531 21.8219C16.7157 22.0594 16.3308 22.0594 16.0934 21.8219C15.856 21.5845 15.856 21.1996 16.0934 20.9622L18.9244 18.1312H8.23357V16.9153H18.9244L16.0934 14.0843C15.856 13.8469 15.856 13.462 16.0934 13.2246C16.3308 12.9872 16.7157 12.9872 16.9531 13.2246Z" fill="white"/>
</svg>
