<svg width="24" height="24" fill="none" xmlns="http://www.w3.org/2000/svg"><path d="M21 16V8a2 2 0 0 0-1-1.73l-7-4a2 2 0 0 0-2 0l-7 4A2 2 0 0 0 3 8v8a2 2 0 0 0 1 1.73l7 4a2 2 0 0 0 2 0l7-4A2 2 0 0 0 21 16Z" stroke="url(#a)" stroke-linecap="round" stroke-linejoin="round"/><path d="M3.27 6.96 12 12.01l8.73-5.05" stroke="url(#b)" stroke-linecap="round" stroke-linejoin="round"/><path d="M12 22.08V12" stroke="url(#c)" stroke-linecap="round" stroke-linejoin="round"/><defs><linearGradient id="a" x1="3.26" y1="3.845" x2="22.169" y2="8.081" gradientUnits="userSpaceOnUse"><stop stop-color="#fff"/><stop offset="1" stop-color="#fff" stop-opacity=".35"/></linearGradient><linearGradient id="b" x1="3.522" y1="7.426" x2="14.59" y2="16.949" gradientUnits="userSpaceOnUse"><stop stop-color="#fff"/><stop offset="1" stop-color="#fff" stop-opacity=".35"/></linearGradient><linearGradient id="c" x1="12.014" y1="12.929" x2="13.117" y2="12.956" gradientUnits="userSpaceOnUse"><stop stop-color="#fff"/><stop offset="1" stop-color="#fff" stop-opacity=".35"/></linearGradient></defs></svg>