<svg width="24" height="24" fill="none" xmlns="http://www.w3.org/2000/svg"><path d="M12 22c5.523 0 10-4.477 10-10S17.523 2 12 2 2 6.477 2 12s4.477 10 10 10Z" stroke="url(#a)" stroke-linecap="round" stroke-linejoin="round"/><path d="M12 18a6 6 0 1 0 0-12 6 6 0 0 0 0 12Z" stroke="url(#b)" stroke-linecap="round" stroke-linejoin="round"/><path d="M12 14a2 2 0 1 0 0-4 2 2 0 0 0 0 4Z" stroke="url(#c)" stroke-linecap="round" stroke-linejoin="round"/><defs><linearGradient id="a" x1="2.289" y1="3.843" x2="23.066" y2="9.014" gradientUnits="userSpaceOnUse"><stop stop-color="#fff"/><stop offset="1" stop-color="#fff" stop-opacity=".35"/></linearGradient><linearGradient id="b" x1="6.173" y1="7.106" x2="18.64" y2="10.208" gradientUnits="userSpaceOnUse"><stop stop-color="#fff"/><stop offset="1" stop-color="#fff" stop-opacity=".35"/></linearGradient><linearGradient id="c" x1="10.058" y1="10.369" x2="14.213" y2="11.403" gradientUnits="userSpaceOnUse"><stop stop-color="#fff"/><stop offset="1" stop-color="#fff" stop-opacity=".35"/></linearGradient></defs></svg>