<svg width="24" height="24" viewBox="0 0 24 24" fill="none" xmlns="http://www.w3.org/2000/svg">
<path d="M12 8C16.9706 8 21 6.65685 21 5C21 3.34315 16.9706 2 12 2C7.02944 2 3 3.34315 3 5C3 6.65685 7.02944 8 12 8Z" stroke="url(#paint0_linear_591_17937)" stroke-linecap="round" stroke-linejoin="round"/>
<path d="M21 12C21 13.66 17 15 12 15C7 15 3 13.66 3 12" stroke="url(#paint1_linear_591_17937)" stroke-linecap="round" stroke-linejoin="round"/>
<path d="M3 5V19C3 20.66 7 22 12 22C17 22 21 20.66 21 19V5" stroke="url(#paint2_linear_591_17937)" stroke-linecap="round" stroke-linejoin="round"/>
<defs>
<linearGradient id="paint0_linear_591_17937" x1="3.2602" y1="2.55294" x2="16.0105" y2="12.0722" gradientUnits="userSpaceOnUse">
<stop stop-color="white"/>
<stop offset="1" stop-color="white" stop-opacity="0.35"/>
</linearGradient>
<linearGradient id="paint1_linear_591_17937" x1="3.2602" y1="12.2765" x2="9.40872" y2="21.4573" gradientUnits="userSpaceOnUse">
<stop stop-color="white"/>
<stop offset="1" stop-color="white" stop-opacity="0.35"/>
</linearGradient>
<linearGradient id="paint2_linear_591_17937" x1="3.2602" y1="6.56666" x2="21.8282" y2="11.4594" gradientUnits="userSpaceOnUse">
<stop stop-color="white"/>
<stop offset="1" stop-color="white" stop-opacity="0.35"/>
</linearGradient>
</defs>
</svg>
