<svg width="1110" height="1110" fill="none" xmlns="http://www.w3.org/2000/svg"><path d="M466.646 403.646a.502.502 0 0 0 0 .708l3.182 3.182a.502.502 0 0 0 .708-.708L467.707 404l2.829-2.828a.502.502 0 0 0-.708-.708l-3.182 3.182Zm.354.854h2.267v-1H467v1Zm9.067 0h4.533v-1h-4.533v1Zm11.333 0h4.533v-1H487.4v1Zm11.333 0H501v-1h-2.267v1Zm2.267 0c.594 0 1.165.094 1.7.268l.309-.951A6.485 6.485 0 0 0 501 403.5v1Zm5.232 3.8a5.48 5.48 0 0 1 .268 1.7h1c0-.7-.111-1.376-.317-2.009l-.951.309Zm.268 1.7v1.933h1V410h-1Zm0 7.733v3.867h1v-3.867h-1Zm0 9.667v3.867h1V427.4h-1Zm0 9.667v3.866h1v-3.866h-1Zm0 9.666v3.867h1v-3.867h-1Zm0 9.667v3.867h1V456.4h-1Zm0 9.667v3.866h1v-3.866h-1Zm0 9.666v3.867h1v-3.867h-1Zm0 9.667v3.867h1V485.4h-1Zm0 9.667v3.866h1v-3.866h-1Zm0 9.666v3.867h1v-3.867h-1Zm0 9.667v3.867h1V514.4h-1Zm0 9.667v3.866h1v-3.866h-1Zm0 9.666v3.867h1v-3.867h-1Zm0 9.667v3.867h1V543.4h-1Zm0 9.667V555h1v-1.933h-1ZM362.646 442.646a.502.502 0 0 0 0 .708l3.182 3.182a.502.502 0 0 0 .708-.708L363.707 443l2.829-2.828a.502.502 0 0 0-.708-.708l-3.182 3.182Zm.354.854h2.033v-1H363v1Zm8.133 0h4.067v-1h-4.067v1Zm10.167 0h4.067v-1H381.3v1Zm10.167 0h4.066v-1h-4.066v1Zm10.166 0h4.067v-1h-4.067v1Zm10.167 0h4.067v-1H411.8v1Zm10.167 0h4.066v-1h-4.066v1Zm10.166 0h4.067v-1h-4.067v1Zm10.167 0h4.067v-1H442.3v1Zm10.167 0h4.066v-1h-4.066v1Zm10.166 0h4.067v-1h-4.067v1Zm10.167 0h4.067v-1H472.8v1Zm10.167 0H485v-1h-2.033v1Zm2.033 0a5.48 5.48 0 0 1 1.7.268l.309-.951A6.485 6.485 0 0 0 485 442.5v1Zm5.232 3.8a5.48 5.48 0 0 1 .268 1.7h1c0-.7-.111-1.376-.317-2.009l-.951.309Zm.268 1.7v1.927h1V449h-1Zm0 7.709v3.855h1v-3.855h-1Zm0 9.636v3.855h1v-3.855h-1Zm0 9.637v3.854h1v-3.854h-1Zm0 9.636v3.855h1v-3.855h-1Zm0 9.637v3.854h1v-3.854h-1Zm0 9.636v3.854h1v-3.854h-1Zm0 9.636v3.855h1v-3.855h-1Zm0 9.637v3.854h1v-3.854h-1Zm0 9.636v3.855h1V533.8h-1Zm0 9.636v3.855h1v-3.855h-1Zm0 9.637V555h1v-1.927h-1Zm-71.854-54.427a.502.502 0 0 0 0 .708l3.182 3.182a.502.502 0 0 0 .708-.708L419.707 499l2.829-2.828a.502.502 0 0 0-.708-.708l-3.182 3.182ZM469 499v-.5.5Zm-50 .5h2v-1h-2v1Zm8 0h4v-1h-4v1Zm10 0h4v-1h-4v1Zm10 0h4v-1h-4v1Zm10 0h4v-1h-4v1Zm10 0h2v-1h-2v1Zm2 0a5.48 5.48 0 0 1 1.7.268l.309-.951A6.485 6.485 0 0 0 469 498.5v1Zm5.232 3.8a5.48 5.48 0 0 1 .268 1.7h1c0-.7-.111-1.376-.317-2.009l-.951.309Zm.268 1.7v2h1v-2h-1Zm0 8v4h1v-4h-1Zm0 10v4h1v-4h-1Zm0 10v4h1v-4h-1Zm0 10v4h1v-4h-1Zm0 10v2h1v-2h-1Zm-7.854 153.354a.502.502 0 0 1 0-.708l3.182-3.182a.502.502 0 0 1 .708.708L467.707 706l2.829 2.828a.502.502 0 0 1-.708.708l-3.182-3.182Zm.354-.854h2.267v1H467v-1Zm9.067 0h4.533v1h-4.533v-1Zm11.333 0h4.533v1H487.4v-1Zm11.333 0H501v1h-2.267v-1Zm2.267 0c.594 0 1.165-.094 1.7-.268l.309.951a6.485 6.485 0 0 1-2.009.317v-1Zm5.232-3.8a5.48 5.48 0 0 0 .268-1.7h1c0 .7-.111 1.376-.317 2.009l-.951-.309Zm.268-1.7v-1.933h1V700h-1Zm0-7.733V688.4h1v3.867h-1Zm0-9.667v-3.867h1v3.867h-1Zm0-9.667v-3.866h1v3.866h-1Zm0-9.666V659.4h1v3.867h-1Zm0-9.667v-3.867h1v3.867h-1Zm0-9.667v-3.866h1v3.866h-1Zm0-9.666V630.4h1v3.867h-1Zm0-9.667v-3.867h1v3.867h-1Zm0-9.667v-3.866h1v3.866h-1Zm0-9.666V601.4h1v3.867h-1Zm0-9.667v-3.867h1v3.867h-1Zm0-9.667v-3.866h1v3.866h-1Zm0-9.666V572.4h1v3.867h-1Zm0-9.667v-3.867h1v3.867h-1Zm0-9.667V555h1v1.933h-1ZM362.646 667.354a.502.502 0 0 1 0-.708l3.182-3.182a.502.502 0 0 1 .708.708L363.707 667l2.829 2.828a.502.502 0 0 1-.708.708l-3.182-3.182Zm.354-.854h2.033v1H363v-1Zm8.133 0h4.067v1h-4.067v-1Zm10.167 0h4.067v1H381.3v-1Zm10.167 0h4.066v1h-4.066v-1Zm10.166 0h4.067v1h-4.067v-1Zm10.167 0h4.067v1H411.8v-1Zm10.167 0h4.066v1h-4.066v-1Zm10.166 0h4.067v1h-4.067v-1Zm10.167 0h4.067v1H442.3v-1Zm10.167 0h4.066v1h-4.066v-1Zm10.166 0h4.067v1h-4.067v-1Zm10.167 0h4.067v1H472.8v-1Zm10.167 0H485v1h-2.033v-1Zm2.033 0a5.48 5.48 0 0 0 1.7-.268l.309.951a6.485 6.485 0 0 1-2.009.317v-1Zm5.232-3.8a5.48 5.48 0 0 0 .268-1.7h1c0 .7-.111 1.376-.317 2.009l-.951-.309Zm.268-1.7v-1.927h1V661h-1Zm0-7.709v-3.855h1v3.855h-1Zm0-9.636V639.8h1v3.855h-1Zm0-9.637v-3.854h1v3.854h-1Zm0-9.636v-3.855h1v3.855h-1Zm0-9.637v-3.854h1v3.854h-1Zm0-9.636v-3.854h1v3.854h-1Zm0-9.636v-3.855h1v3.855h-1Zm0-9.637v-3.854h1v3.854h-1Zm0-9.636v-3.855h1v3.855h-1Zm0-9.636v-3.855h1v3.855h-1Zm0-9.637V555h1v1.927h-1Zm-71.854 54.427a.502.502 0 0 1 0-.708l3.182-3.182a.502.502 0 0 1 .708.708L419.707 611l2.829 2.828a.502.502 0 0 1-.708.708l-3.182-3.182ZM469 611v.5-.5Zm-50-.5h2v1h-2v-1Zm8 0h4v1h-4v-1Zm10 0h4v1h-4v-1Zm10 0h4v1h-4v-1Zm10 0h4v1h-4v-1Zm10 0h2v1h-2v-1Zm2 0a5.48 5.48 0 0 0 1.7-.268l.309.951a6.485 6.485 0 0 1-2.009.317v-1Zm5.232-3.8a5.48 5.48 0 0 0 .268-1.7h1c0 .7-.111 1.376-.317 2.009l-.951-.309Zm.268-1.7v-2h1v2h-1Zm0-8v-4h1v4h-1Zm0-10v-4h1v4h-1Zm0-10v-4h1v4h-1Zm0-10v-4h1v4h-1Zm0-10v-2h1v2h-1Zm167.854-153.354a.502.502 0 0 1 0 .708l-3.182 3.182a.502.502 0 0 1-.708-.708l2.829-2.828-2.829-2.828a.502.502 0 0 1 .708-.708l3.182 3.182Zm-.354.854h-2.267v-1H642v1Zm-9.067 0H628.4v-1h4.533v1Zm-11.333 0h-4.533v-1h4.533v1Zm-11.333 0H608v-1h2.267v1Zm-2.267 0c-.594 0-1.165.094-1.7.268l-.309-.951A6.485 6.485 0 0 1 608 403.5v1Zm-5.232 3.8a5.48 5.48 0 0 0-.268 1.7h-1c0-.7.111-1.376.317-2.009l.951.309Zm-.268 1.7v1.933h-1V410h1Zm0 7.733v3.867h-1v-3.867h1Zm0 9.667v3.867h-1V427.4h1Zm0 9.667v3.866h-1v-3.866h1Zm0 9.666v3.867h-1v-3.867h1Zm0 9.667v3.867h-1V456.4h1Zm0 9.667v3.866h-1v-3.866h1Zm0 9.666v3.867h-1v-3.867h1Zm0 9.667v3.867h-1V485.4h1Zm0 9.667v3.866h-1v-3.866h1Zm0 9.666v3.867h-1v-3.867h1Zm0 9.667v3.867h-1V514.4h1Zm0 9.667v3.866h-1v-3.866h1Zm0 9.666v3.867h-1v-3.867h1Zm0 9.667v3.867h-1V543.4h1Zm0 9.667V555h-1v-1.933h1Zm143.854-110.421a.502.502 0 0 1 0 .708l-3.182 3.182a.502.502 0 0 1-.708-.708l2.829-2.828-2.829-2.828a.502.502 0 0 1 .708-.708l3.182 3.182Zm-.354.854h-2.033v-1H746v1Zm-8.133 0H733.8v-1h4.067v1Zm-10.167 0h-4.067v-1h4.067v1Zm-10.167 0h-4.066v-1h4.066v1Zm-10.166 0H703.3v-1h4.067v1Zm-10.167 0h-4.067v-1h4.067v1Zm-10.167 0h-4.066v-1h4.066v1Zm-10.166 0H672.8v-1h4.067v1Zm-10.167 0h-4.067v-1h4.067v1Zm-10.167 0h-4.066v-1h4.066v1Zm-10.166 0H642.3v-1h4.067v1Zm-10.167 0h-4.067v-1h4.067v1Zm-10.167 0H624v-1h2.033v1Zm-2.033 0a5.48 5.48 0 0 0-1.7.268l-.309-.951A6.485 6.485 0 0 1 624 442.5v1Zm-5.232 3.8a5.48 5.48 0 0 0-.268 1.7h-1c0-.7.111-1.376.317-2.009l.951.309Zm-.268 1.7v1.927h-1V449h1Zm0 7.709v3.855h-1v-3.855h1Zm0 9.636v3.855h-1v-3.855h1Zm0 9.637v3.854h-1v-3.854h1Zm0 9.636v3.855h-1v-3.855h1Zm0 9.637v3.854h-1v-3.854h1Zm0 9.636v3.854h-1v-3.854h1Zm0 9.636v3.855h-1v-3.855h1Zm0 9.637v3.854h-1v-3.854h1Zm0 9.636v3.855h-1V533.8h1Zm0 9.636v3.855h-1v-3.855h1Zm0 9.637V555h-1v-1.927h1Zm71.854-54.427a.502.502 0 0 1 0 .708l-3.182 3.182a.502.502 0 0 1-.708-.708l2.829-2.828-2.829-2.828a.502.502 0 0 1 .708-.708l3.182 3.182ZM640 499v-.5.5Zm50 .5h-2v-1h2v1Zm-8 0h-4v-1h4v1Zm-10 0h-4v-1h4v1Zm-10 0h-4v-1h4v1Zm-10 0h-4v-1h4v1Zm-10 0h-2v-1h2v1Zm-2 0a5.48 5.48 0 0 0-1.7.268l-.309-.951A6.485 6.485 0 0 1 640 498.5v1Zm-5.232 3.8a5.48 5.48 0 0 0-.268 1.7h-1c0-.7.111-1.376.317-2.009l.951.309Zm-.268 1.7v2h-1v-2h1Zm0 8v4h-1v-4h1Zm0 10v4h-1v-4h1Zm0 10v4h-1v-4h1Zm0 10v4h-1v-4h1Zm0 10v2h-1v-2h1Zm7.854 153.354a.502.502 0 0 0 0-.708l-3.182-3.182a.502.502 0 0 0-.708.708l2.829 2.828-2.829 2.828a.502.502 0 0 0 .708.708l3.182-3.182ZM642 705.5h-2.267v1H642v-1Zm-9.067 0H628.4v1h4.533v-1Zm-11.333 0h-4.533v1h4.533v-1Zm-11.333 0H608v1h2.267v-1Zm-2.267 0a5.486 5.486 0 0 1-1.7-.268l-.309.951a6.485 6.485 0 0 0 2.009.317v-1Zm-5.232-3.8a5.48 5.48 0 0 1-.268-1.7h-1c0 .7.111 1.376.317 2.009l.951-.309Zm-.268-1.7v-1.933h-1V700h1Zm0-7.733V688.4h-1v3.867h1Zm0-9.667v-3.867h-1v3.867h1Zm0-9.667v-3.866h-1v3.866h1Zm0-9.666V659.4h-1v3.867h1Zm0-9.667v-3.867h-1v3.867h1Zm0-9.667v-3.866h-1v3.866h1Zm0-9.666V630.4h-1v3.867h1Zm0-9.667v-3.867h-1v3.867h1Zm0-9.667v-3.866h-1v3.866h1Zm0-9.666V601.4h-1v3.867h1Zm0-9.667v-3.867h-1v3.867h1Zm0-9.667v-3.866h-1v3.866h1Zm0-9.666V572.4h-1v3.867h1Zm0-9.667v-3.867h-1v3.867h1Zm0-9.667V555h-1v1.933h1Zm143.854 110.421a.502.502 0 0 0 0-.708l-3.182-3.182a.502.502 0 0 0-.708.708l2.829 2.828-2.829 2.828a.502.502 0 0 0 .708.708l3.182-3.182ZM746 666.5h-2.033v1H746v-1Zm-8.133 0H733.8v1h4.067v-1Zm-10.167 0h-4.067v1h4.067v-1Zm-10.167 0h-4.066v1h4.066v-1Zm-10.166 0H703.3v1h4.067v-1Zm-10.167 0h-4.067v1h4.067v-1Zm-10.167 0h-4.066v1h4.066v-1Zm-10.166 0H672.8v1h4.067v-1Zm-10.167 0h-4.067v1h4.067v-1Zm-10.167 0h-4.066v1h4.066v-1Zm-10.166 0H642.3v1h4.067v-1Zm-10.167 0h-4.067v1h4.067v-1Zm-10.167 0H624v1h2.033v-1Zm-2.033 0a5.48 5.48 0 0 1-1.7-.268l-.309.951a6.485 6.485 0 0 0 2.009.317v-1Zm-5.232-3.8a5.48 5.48 0 0 1-.268-1.7h-1c0 .7.111 1.376.317 2.009l.951-.309Zm-.268-1.7v-1.927h-1V661h1Zm0-7.709v-3.855h-1v3.855h1Zm0-9.636V639.8h-1v3.855h1Zm0-9.637v-3.854h-1v3.854h1Zm0-9.636v-3.855h-1v3.855h1Zm0-9.637v-3.854h-1v3.854h1Zm0-9.636v-3.854h-1v3.854h1Zm0-9.636v-3.855h-1v3.855h1Zm0-9.637v-3.854h-1v3.854h1Zm0-9.636v-3.855h-1v3.855h1Zm0-9.636v-3.855h-1v3.855h1Zm0-9.637V555h-1v1.927h1Zm71.854 54.427a.502.502 0 0 0 0-.708l-3.182-3.182a.502.502 0 0 0-.708.708l2.829 2.828-2.829 2.828a.502.502 0 0 0 .708.708l3.182-3.182ZM640 611v.5-.5Zm50-.5h-2v1h2v-1Zm-8 0h-4v1h4v-1Zm-10 0h-4v1h4v-1Zm-10 0h-4v1h4v-1Zm-10 0h-4v1h4v-1Zm-10 0h-2v1h2v-1Zm-2 0a5.48 5.48 0 0 1-1.7-.268l-.309.951a6.485 6.485 0 0 0 2.009.317v-1Zm-5.232-3.8a5.48 5.48 0 0 1-.268-1.7h-1c0 .7.111 1.376.317 2.009l.951-.309Zm-.268-1.7v-2h-1v2h1Zm0-8v-4h-1v4h1Zm0-10v-4h-1v4h1Zm0-10v-4h-1v4h1Zm0-10v-4h-1v4h1Zm0-10v-2h-1v2h1Z" fill="#262626"/><path d="M369.646 554.646a.502.502 0 0 0 0 .708l3.182 3.182a.502.502 0 0 0 .708-.708L370.707 555l2.829-2.828a.502.502 0 0 0-.708-.708l-3.182 3.182Zm370.708.708a.502.502 0 0 0 0-.708l-3.182-3.182a.502.502 0 0 0-.708.708l2.829 2.828-2.829 2.828a.502.502 0 0 0 .708.708l3.182-3.182ZM370 555.5h2v-1h-2v1Zm8 0h4v-1h-4v1Zm10 0h4v-1h-4v1Zm10 0h4v-1h-4v1Zm10 0h4v-1h-4v1Zm10 0h4v-1h-4v1Zm10 0h4v-1h-4v1Zm10 0h4v-1h-4v1Zm10 0h4v-1h-4v1Zm10 0h4v-1h-4v1Zm10 0h4v-1h-4v1Zm10 0h4v-1h-4v1Zm10 0h4v-1h-4v1Zm10 0h4v-1h-4v1Zm10 0h4v-1h-4v1Zm10 0h4v-1h-4v1Zm10 0h4v-1h-4v1Zm10 0h4v-1h-4v1Zm10 0h4v-1h-4v1Zm10 0h4v-1h-4v1Zm10 0h4v-1h-4v1Zm10 0h4v-1h-4v1Zm10 0h4v-1h-4v1Zm10 0h4v-1h-4v1Zm10 0h4v-1h-4v1Zm10 0h4v-1h-4v1Zm10 0h4v-1h-4v1Zm10 0h4v-1h-4v1Zm10 0h4v-1h-4v1Zm10 0h4v-1h-4v1Zm10 0h4v-1h-4v1Zm10 0h4v-1h-4v1Zm10 0h4v-1h-4v1Zm10 0h4v-1h-4v1Zm10 0h4v-1h-4v1Zm10 0h4v-1h-4v1Zm10 0h4v-1h-4v1Zm10 0h2v-1h-2v1Z" fill="#262626"/><path d="M652 404h-44a6 6 0 0 0-6 6v145" stroke="url(#a)" stroke-dasharray="4 6"/><rect x="651.5" y="380.5" width="47" height="47" rx="5.5" fill="#080808"/><g clip-path="url(#b)"><path d="M675 405.815a2.139 2.139 0 1 0 0-4.278 2.139 2.139 0 0 0 0 4.278Z" fill="#61DAFB"/><path d="M675 408.06c6.34 0 11.478-1.962 11.478-4.382 0-2.421-5.138-4.383-11.478-4.383-6.339 0-11.478 1.962-11.478 4.383 0 2.42 5.139 4.382 11.478 4.382Z" stroke="#61DAFB"/><path d="M671.205 405.868c3.17 5.49 7.438 8.959 9.534 7.749 2.097-1.21 1.226-6.642-1.943-12.132-3.17-5.49-7.439-8.959-9.535-7.749s-1.226 6.642 1.944 12.132Z" stroke="#61DAFB"/><path d="M671.205 401.486c-3.17 5.49-4.04 10.921-1.944 12.131 2.096 1.211 6.365-2.259 9.535-7.749 3.169-5.49 4.039-10.921 1.943-12.132-2.096-1.21-6.365 2.26-9.534 7.75Z" stroke="#61DAFB"/></g><rect x="651.5" y="380.5" width="47" height="47" rx="5.5" stroke="#262626"/><rect x="755.5" y="419.5" width="47" height="47" rx="5.5" fill="#080808"/><g clip-path="url(#c)"><mask id="d" style="mask-type:alpha" maskUnits="userSpaceOnUse" x="767" y="431" width="24" height="24"><path d="M779 455c6.627 0 12-5.373 12-12s-5.373-12-12-12-12 5.373-12 12 5.373 12 12 12Z" fill="#000"/></mask><g mask="url(#d)"><path d="M779 455c6.627 0 12-5.373 12-12s-5.373-12-12-12-12 5.373-12 12 5.373 12 12 12Z" fill="#fff"/><path d="m786.935 452.002-10.716-13.803H774.2v9.596h1.615v-7.545l9.852 12.729c.444-.298.868-.624 1.268-.977Z" fill="url(#e)"/><path d="M783.933 438.199h-1.6v9.6h1.6v-9.6Z" fill="url(#f)"/></g></g><rect x="755.5" y="419.5" width="47" height="47" rx="5.5" stroke="#262626"/><rect x="699.5" y="475.5" width="47" height="47" rx="5.5" fill="#080808"/><g clip-path="url(#g)"><path d="M733.459 488.816c-2.667-3.841-7.976-4.966-11.793-2.544l-6.727 4.305a7.647 7.647 0 0 0-3.474 5.162c-.318 1.786-.049 3.621.807 5.211a7.39 7.39 0 0 0-1.15 2.887 8.23 8.23 0 0 0 1.395 6.214c2.691 3.841 7.975 4.967 11.792 2.545l6.728-4.282a7.646 7.646 0 0 0 3.474-5.162c.318-1.786.048-3.62-.808-5.211a7.378 7.378 0 0 0 1.15-2.887 8.062 8.062 0 0 0-1.394-6.238Z" fill="#FF3E00"/><path d="M721.006 510.42a5.334 5.334 0 0 1-5.725-2.129c-.783-1.076-1.076-2.422-.856-3.743.049-.22.098-.416.147-.636l.122-.391.343.244a8.91 8.91 0 0 0 2.642 1.321l.244.074-.024.244c-.024.343.073.71.269 1.003a1.62 1.62 0 0 0 1.737.661c.147-.049.294-.098.416-.171l6.703-4.282c.343-.22.563-.538.636-.929a1.517 1.517 0 0 0-.244-1.126 1.608 1.608 0 0 0-1.737-.636 2.074 2.074 0 0 0-.416.172l-2.569 1.639a4.575 4.575 0 0 1-1.37.587 5.333 5.333 0 0 1-5.725-2.129 4.94 4.94 0 0 1-.831-3.743 4.632 4.632 0 0 1 2.104-3.107l6.727-4.281a5.342 5.342 0 0 1 1.37-.612 5.334 5.334 0 0 1 5.725 2.129c.783 1.076 1.077 2.422.856 3.743-.049.22-.097.416-.171.636l-.122.391-.343-.244a8.91 8.91 0 0 0-2.642-1.321l-.245-.074.025-.244a1.641 1.641 0 0 0-.269-1.004 1.608 1.608 0 0 0-1.737-.636 2.074 2.074 0 0 0-.416.172l-6.703 4.281c-.343.22-.563.538-.637.93a1.52 1.52 0 0 0 .245 1.125 1.606 1.606 0 0 0 1.737.636c.147-.049.294-.098.416-.171l2.569-1.639a5.342 5.342 0 0 1 1.37-.612 5.333 5.333 0 0 1 5.725 2.129c.783 1.076 1.076 2.422.856 3.743a4.632 4.632 0 0 1-2.104 3.107l-6.728 4.281a5.342 5.342 0 0 1-1.37.612Z" fill="#fff"/></g><rect x="699.5" y="475.5" width="47" height="47" rx="5.5" stroke="#262626"/><rect x="755.5" y="531.5" width="47" height="47" rx="5.5" fill="#080808"/><path d="M771.14 558.874v-5.678h1.106v5.678h-1.106Zm.559-6.554a.703.703 0 0 1-.496-.192.628.628 0 0 1-.203-.466c0-.183.068-.338.203-.466a.694.694 0 0 1 .496-.196.68.68 0 0 1 .491.196.612.612 0 0 1 .207.466.62.62 0 0 1-.207.466.688.688 0 0 1-.491.192Zm8.699 2.769c0 .808-.148 1.503-.443 2.085a3.254 3.254 0 0 1-1.217 1.338c-.512.311-1.095.466-1.748.466-.656 0-1.241-.155-1.756-.466-.513-.313-.917-.76-1.213-1.342-.295-.582-.443-1.275-.443-2.081 0-.809.148-1.502.443-2.082.296-.581.7-1.027 1.213-1.338.515-.313 1.1-.469 1.756-.469.653 0 1.236.156 1.748.469.516.311.921.757 1.217 1.338.295.58.443 1.273.443 2.082Zm-1.131 0c0-.616-.1-1.135-.299-1.557-.198-.424-.469-.744-.814-.961a2.112 2.112 0 0 0-1.164-.329c-.436 0-.826.11-1.168.329-.343.217-.614.537-.814.961-.197.422-.295.941-.295 1.557s.098 1.136.295 1.56c.2.421.471.742.814.961.342.217.732.325 1.168.325.434 0 .822-.108 1.164-.325.345-.219.616-.54.814-.961.199-.424.299-.944.299-1.56Zm6.685-1.797a1.077 1.077 0 0 0-.488-.813c-.286-.195-.646-.292-1.08-.292-.31 0-.579.049-.805.148a1.241 1.241 0 0 0-.529.399.942.942 0 0 0-.185.573c0 .18.042.335.126.466.086.13.198.24.336.329.141.086.291.159.451.218.16.056.314.103.462.14l.74.192c.241.06.489.14.743.241.254.101.489.234.706.399.217.165.392.37.525.614.135.244.203.536.203.876 0 .429-.111.809-.333 1.142-.219.333-.538.595-.957.788-.417.192-.921.288-1.512.288-.567 0-1.057-.09-1.471-.27a2.27 2.27 0 0 1-.973-.765 2.223 2.223 0 0 1-.388-1.183h1.146c.022.273.111.501.266.684.158.18.359.314.603.403.246.086.516.129.81.129a2.3 2.3 0 0 0 .861-.151c.254-.104.453-.247.599-.429a1.02 1.02 0 0 0 .218-.647.796.796 0 0 0-.192-.551 1.426 1.426 0 0 0-.514-.355 5.04 5.04 0 0 0-.729-.248l-.894-.244c-.606-.165-1.087-.408-1.442-.728-.352-.32-.529-.744-.529-1.272 0-.436.119-.817.355-1.142.237-.325.557-.578.962-.758.404-.182.86-.273 1.367-.273.513 0 .965.09 1.357.27.394.179.705.427.932.743.226.313.345.672.355 1.079h-1.102Z" fill="#fff"/><rect x="755.5" y="531.5" width="47" height="47" rx="5.5" stroke="#262626"/><rect x="699.5" y="587.5" width="47" height="47" rx="5.5" fill="#080808"/><g clip-path="url(#h)"><path d="M718.349 597.08a.826.826 0 0 0-.393.102.831.831 0 0 0-.321 1.123l.893 1.612c-2.151 1.331-3.577 3.604-3.577 6.198v.482a2.253 2.253 0 0 0-3.951 1.477v6.939a2.253 2.253 0 0 0 3.951 1.476v.972a2.39 2.39 0 0 0 2.383 2.383h.604v3.086a2.255 2.255 0 0 0 2.253 2.253 2.254 2.254 0 0 0 2.252-2.253v-3.086h1.046v3.086a2.254 2.254 0 0 0 2.252 2.253 2.255 2.255 0 0 0 2.253-2.253v-3.086h.604a2.39 2.39 0 0 0 2.383-2.383v-.972a2.253 2.253 0 0 0 3.951-1.476v-6.939a2.253 2.253 0 0 0-3.951-1.477v-.482c0-2.594-1.429-4.865-3.579-6.196l.895-1.614a.831.831 0 0 0-.321-1.123.825.825 0 0 0-1.123.322l-.936 1.691a8.507 8.507 0 0 0-2.951-.523 8.529 8.529 0 0 0-2.951.52l-.936-1.688a.825.825 0 0 0-.73-.424Z" fill="#fff"/><path d="M713.253 606.408c-.928 0-1.666.738-1.666 1.666v6.938c0 .928.738 1.666 1.666 1.666.927 0 1.665-.738 1.665-1.666v-6.938c0-.928-.738-1.666-1.665-1.666Zm19.427 0c-.928 0-1.666.738-1.666 1.666v6.938c0 .928.738 1.666 1.666 1.666.927 0 1.666-.738 1.666-1.666v-6.938c0-.928-.739-1.666-1.666-1.666Zm-12.489 7.918c-.928 0-1.666.738-1.666 1.666v6.938c0 .928.738 1.666 1.666 1.666.927 0 1.665-.738 1.665-1.666v-6.938c0-.928-.738-1.666-1.665-1.666Zm5.55 0c-.927 0-1.665.738-1.665 1.666v6.938c0 .928.738 1.666 1.665 1.666.928 0 1.666-.738 1.666-1.666v-6.938c0-.928-.738-1.666-1.666-1.666Z" fill="#A4C639"/><path d="M718.354 597.666a.228.228 0 0 0-.112.031.229.229 0 0 0-.092.321l1.174 2.12c-2.258 1.174-3.783 3.407-3.786 5.969h14.856c-.003-2.562-1.528-4.795-3.785-5.969l1.173-2.12a.229.229 0 0 0-.092-.321.233.233 0 0 0-.321.091l-1.189 2.143a7.921 7.921 0 0 0-3.214-.673 7.921 7.921 0 0 0-3.214.673l-1.189-2.143a.232.232 0 0 0-.209-.122Zm-2.816 9.027v10.768c0 .994.801 1.795 1.796 1.795h11.264c.995 0 1.796-.801 1.796-1.795v-10.768h-14.856Z" fill="#A4C639"/><path d="M719.538 602.148a.624.624 0 0 0-.62.62c0 .339.281.62.62.62.339 0 .62-.281.62-.62a.624.624 0 0 0-.62-.62Zm6.856 0a.624.624 0 0 0-.619.62c0 .339.28.62.619.62.34 0 .62-.281.62-.62 0-.339-.28-.62-.62-.62Z" fill="#fff"/></g><rect x="699.5" y="587.5" width="47" height="47" rx="5.5" stroke="#262626"/><rect x="755.5" y="642.5" width="47" height="47" rx="5.5" fill="#080808"/><g clip-path="url(#i)"><path d="m780.675 661.924-.821 1.422-2.809-4.865-8.623 14.933h5.839c0 .786.636 1.422 1.422 1.422h-7.261a1.421 1.421 0 0 1-1.231-2.133l8.623-14.933a1.422 1.422 0 0 1 2.463 0l2.398 4.154Z" fill="#00C58E"/><path d="m786.9 672.703-5.403-9.357-.822-1.422-.821 1.422-5.403 9.357a1.422 1.422 0 0 0 1.232 2.133h9.984a1.422 1.422 0 0 0 1.232-2.133h.001Zm-11.217.711 4.992-8.646 4.992 8.646h-9.984Z" fill="#2F495E"/><path d="M790.763 674.125c-.254.44-.723.711-1.231.711h-3.865c.785 0 1.422-.636 1.422-1.422h2.44l-6.923-11.99-1.109 1.922-.822-1.422.7-1.211a1.421 1.421 0 0 1 2.463 0l6.925 11.99c.254.44.254.982 0 1.422Z" fill="#108775"/></g><rect x="755.5" y="642.5" width="47" height="47" rx="5.5" stroke="#262626"/><rect x="651.5" y="682.5" width="47" height="47" rx="5.5" fill="#080808"/><g clip-path="url(#j)"><path d="M676.448 694c6.172 0 9.239 2.937 9.239 7.629 0 3.51-2.158 5.799-5.074 6.18 2.461.496 3.9 1.908 4.165 4.692l.039.512.033.479.029.448.02.338.022.398.011.227.016.362.013.341.006.196.009.314.007.359.003.174.005.503.001.525v.314h-6.364v-.131l.003-.254.003-.248.011-.6.003-.201.002-.315v-.202l-.002-.212-.002-.166-.006-.232-.007-.246-.01-.262-.013-.28-.008-.146-.013-.229-.015-.24-.023-.34-.02-.27a14.215 14.215 0 0 0-.02-.244l-.016-.157c-.211-1.844-.942-2.598-2.195-2.85l-.106-.019a3.593 3.593 0 0 0-.219-.033l-.112-.014-.058-.006-.116-.01-.119-.008-.121-.007-.123-.004-.125-.003-.127-.002H665v-4.997h10.313c.168 0 .332-.004.49-.01l.156-.008.153-.01.15-.012.073-.007.145-.015c.095-.012.187-.024.278-.039l.134-.022c1.673-.304 2.51-1.192 2.51-2.926 0-1.945-1.363-3.124-4.089-3.124H665V694h11.448Zm-4.719 20.265c.835 0 1.185.464 1.309.908l.017.064.013.063.009.05.004.025.006.048.005.048.001.023.003.046.001.023v2.428H665v-3.726h6.729Z" fill="#fff"/></g><rect x="651.5" y="682.5" width="47" height="47" rx="5.5" stroke="#262626"/><rect x="411.5" y="380.5" width="47" height="47" rx="5.5" fill="#080808"/><path d="M441.5 410.607c.172-1.434.12-1.644 1.189-1.412l.271.024c.822.037 1.896-.132 2.528-.426 1.359-.63 2.165-1.683.825-1.407-3.057.631-3.268-.404-3.268-.404 3.228-4.79 4.578-10.87 3.413-12.358-3.177-4.06-8.676-2.14-8.768-2.09l-.03.005c-.604-.125-1.28-.2-2.039-.212-1.383-.023-2.433.362-3.229.966 0 0-9.811-4.041-9.355 5.083.097 1.941 2.783 14.688 5.986 10.838 1.17-1.408 2.301-2.598 2.301-2.598a2.974 2.974 0 0 0 1.94.495l.055-.046a2.1 2.1 0 0 0 .021.548c-.825.922-.582 1.084-2.232 1.423-1.669.344-.688.956-.048 1.116.776.194 2.571.469 3.785-1.229l-.049.194c.324.259.302 1.861.348 3.006.046 1.144.122 2.213.356 2.842.233.63.508 2.252 2.676 1.788 1.812-.388 3.197-.947 3.324-6.146Z" fill="#000" stroke="#000" stroke-width="6"/><path d="M446.313 407.386c-3.058.631-3.268-.404-3.268-.404 3.228-4.79 4.578-10.87 3.413-12.358-3.177-4.06-8.676-2.14-8.768-2.09l-.03.005c-.604-.125-1.28-.2-2.04-.212-1.383-.023-2.432.362-3.229.966 0 0-9.81-4.041-9.354 5.083.097 1.942 2.782 14.688 5.985 10.838 1.171-1.408 2.302-2.598 2.302-2.598a2.966 2.966 0 0 0 1.939.495l.055-.046c-.017.175-.009.345.022.548-.825.922-.583 1.084-2.232 1.423-1.669.344-.689.956-.049 1.116.777.195 2.572.469 3.785-1.229l-.048.194c.323.259.55 1.684.512 2.976-.038 1.293-.064 2.18.191 2.873.255.692.509 2.251 2.677 1.787 1.812-.388 2.751-1.395 2.881-3.073.093-1.193.303-1.017.316-2.083l.168-.506c.194-1.617.031-2.139 1.147-1.896l.272.024c.821.037 1.897-.132 2.528-.426 1.359-.63 2.165-1.683.825-1.407Z" fill="#336791"/><path d="M434.976 408.314c-.084 3.01.021 6.041.315 6.777.295.737.926 2.169 3.094 1.705 1.812-.389 2.471-1.14 2.757-2.799.211-1.221.617-4.611.669-5.305m-9.435-15.466s-9.817-4.012-9.361 5.112c.098 1.942 2.783 14.689 5.986 10.839 1.17-1.408 2.229-2.513 2.229-2.513m6.449-14.17c-.339.107 5.461-2.12 8.758 2.092 1.165 1.488-.185 7.568-3.413 12.359" stroke="#fff" stroke-linecap="round" stroke-linejoin="round"/><path d="M443.024 406.946s.21 1.035 3.268.404c1.339-.277.533.776-.826 1.407-1.115.518-3.615.65-3.655-.065-.106-1.845 1.315-1.284 1.213-1.746Zm0 0c-.093-.417-.728-.825-1.149-1.844-.367-.89-5.032-7.71 1.294-6.697.232-.048-1.65-6.018-7.57-6.115-5.919-.097-5.725 7.279-5.725 7.279" stroke="#fff" stroke-linecap="round" stroke-linejoin="bevel"/><path d="M433.318 407.575c-.825.922-.582 1.084-2.232 1.423-1.669.344-.688.956-.048 1.116.776.195 2.571.47 3.784-1.229.37-.517-.002-1.342-.509-1.553-.245-.101-.573-.229-.995.243Z" stroke="#fff" stroke-linecap="round" stroke-linejoin="round"/><path d="M433.265 407.56c-.084-.542.178-1.187.458-1.942.42-1.132 1.391-2.264.615-5.855-.579-2.676-4.461-.557-4.464-.194-.002.362.176 1.839-.065 3.558-.314 2.244 1.428 4.141 3.433 3.947" stroke="#fff" stroke-linecap="round" stroke-linejoin="round"/><path d="M432.341 399.513c-.018.124.227.455.545.499.318.045.591-.214.608-.338.017-.124-.227-.26-.546-.305-.318-.044-.59.021-.607.144Zm9.689-.252c.018.124-.226.455-.545.499-.318.045-.591-.214-.608-.338-.017-.124.227-.26.546-.304.318-.045.59.02.607.143Z" fill="#fff" stroke="#fff"/><path d="M443.17 398.404c.052.972-.21 1.635-.243 2.669-.049 1.505.717 3.226-.437 4.95" stroke="#fff" stroke-linecap="round" stroke-linejoin="round"/><rect x="411.5" y="380.5" width="47" height="47" rx="5.5" stroke="#262626"/><rect x="307.5" y="419.5" width="47" height="47" rx="5.5" fill="#080808"/><path d="m321.585 448.662.863.498 9.609-16.643-.863-.498-9.609 16.643Z" fill="#E535AB"/><path d="M340.606 447.332h-19.218v.996h19.218v-.996Z" fill="#E535AB"/><path d="m321.769 447.891 9.612 5.55.498-.862-9.612-5.55-.498.862Zm8.35-14.464 9.612 5.55.498-.863-9.612-5.55-.498.863Z" fill="#E535AB"/><path d="m321.771 438.11.498.863 9.613-5.55-.498-.863-9.613 5.55Z" fill="#E535AB"/><path d="m329.945 432.517 9.609 16.643.863-.498-9.609-16.643-.863.498Zm-6.799 4.932h-.996v11.1h.996v-11.1Z" fill="#E535AB"/><path d="M339.85 437.449h-.996v11.1h.996v-11.1Z" fill="#E535AB"/><path d="m330.776 452.266.435.754 8.361-4.827-.435-.754-8.361 4.827Z" fill="#E535AB"/><path d="M341.17 448.874a2.097 2.097 0 0 1-2.862.768 2.097 2.097 0 0 1-.768-2.862 2.097 2.097 0 0 1 2.862-.768 2.088 2.088 0 0 1 .768 2.862Zm-16.716-9.654a2.097 2.097 0 0 1-2.862.768 2.097 2.097 0 0 1-.768-2.862 2.097 2.097 0 0 1 2.862-.768 2.099 2.099 0 0 1 .768 2.862Zm-3.624 9.654a2.099 2.099 0 0 1 .768-2.862 2.099 2.099 0 0 1 2.862.768 2.096 2.096 0 0 1-3.63 2.094Zm16.716-9.654a2.099 2.099 0 0 1 .768-2.862 2.099 2.099 0 0 1 2.862.768 2.099 2.099 0 0 1-.768 2.862 2.097 2.097 0 0 1-2.862-.768ZM331 454.749a2.092 2.092 0 0 1-2.094-2.094c0-1.158.936-2.094 2.094-2.094s2.094.936 2.094 2.094a2.096 2.096 0 0 1-2.094 2.094Zm0-19.309a2.092 2.092 0 0 1-2.094-2.094c0-1.158.936-2.094 2.094-2.094s2.094.936 2.094 2.094A2.092 2.092 0 0 1 331 435.44Z" fill="#E535AB"/><rect x="307.5" y="419.5" width="47" height="47" rx="5.5" stroke="#262626"/><rect x="307.5" y="531.5" width="47" height="47" rx="5.5" fill="#080808"/><g clip-path="url(#k)"><path d="m324.43 564.824-5.221-9.043a1.56 1.56 0 0 1 0-1.561l5.221-9.043c.279-.482.793-.78 1.35-.781h10.446c.555.003 1.067.3 1.345.781l5.22 9.043a1.56 1.56 0 0 1 0 1.561l-5.221 9.043c-.279.482-.793.78-1.35.781h-10.444a1.563 1.563 0 0 1-1.347-.781h.001Z" fill="#4386FA"/><path opacity=".1" d="M334.261 552.088s1.451 3.481-.527 5.454c-1.979 1.974-5.581.711-5.581.711l7.328 7.348h.744a1.56 1.56 0 0 0 1.35-.781l3.456-5.984-6.77-6.748Z" fill="#000"/><path d="m335.975 559.212-1.6-1.604a.237.237 0 0 0-.059-.045 4.362 4.362 0 1 0-.762.764c.011.021.026.04.042.056l1.604 1.604a.252.252 0 0 0 .355 0l.42-.42a.252.252 0 0 0 0-.355Zm-5.11-1.037a3.287 3.287 0 0 1-3.032-2.026 3.28 3.28 0 1 1 3.032 2.026Zm-2.097-3.456v1.356c.209.368.511.676.877.89v-2.255l-.877.009Zm1.64-1.125v3.665c.29.053.587.053.877 0v-3.665h-.877Zm2.537 2.478v-.804h-.876v1.688c.365-.214.667-.52.877-.888l-.001.004Z" fill="#fff"/></g><rect x="307.5" y="531.5" width="47" height="47" rx="5.5" stroke="#262626"/><rect x="363.5" y="587.5" width="47" height="47" rx="5.5" fill="#080808"/><path d="m393.585 610.205-4.807 1.569-4.181 1.846-1.17.309c-.298.283-.61.57-.948.861-.37.319-.716.61-.981.821-.294.232-.73.668-.952.944-.33.414-.592.854-.704 1.192-.2.61-.102 1.228.283 1.798.494.727 1.479 1.468 2.627 1.973.584.258 1.569.588 2.31.774 1.232.312 3.615.65 4.926.701.265.011.621.011.636 0 .029-.018.232-.407.469-.89.806-1.646 1.387-3.19 1.703-4.509.189-.799.338-1.863.436-3.124a25.75 25.75 0 0 0 .015-1.933 13.568 13.568 0 0 0-.182-1.703.415.415 0 0 1-.011-.149c.015-.011.058-.026.65-.196l-.119-.284Zm-1.097.643c.043 0 .159 1.115.188 1.82.008.149.004.247-.003.247-.029 0-.614-.345-1.032-.606a28.023 28.023 0 0 1-1.162-.774c-.037-.026-.033-.029.265-.131.505-.171 1.704-.556 1.744-.556Zm-2.449.807c.033 0 .116.047.316.17.748.469 1.766 1.036 2.202 1.225.134.058.148.036-.16.247-.661.45-1.486.893-2.496 1.34-.178.08-.327.142-.331.142a.986.986 0 0 1 .044-.2c.243-.905.381-1.82.389-2.554.003-.363.003-.363.036-.374-.007.004-.004.004 0 .004Zm-.505.192c.022.022.007.836-.022 1.057a9.211 9.211 0 0 1-.417 1.835c-.015.018-.513-.469-.676-.658a4.933 4.933 0 0 1-.669-.973c-.083-.164-.214-.483-.203-.494.058-.04 1.973-.781 1.987-.767Zm-2.376.934c.004 0 .007 0 .011.003a.741.741 0 0 1 .055.131c.116.316.377.781.603 1.079a6.142 6.142 0 0 0 1.017 1.057c.022.022.029.018-.563.244-.687.261-1.435.523-2.293.799l-.613.2c-.033.011-.022-.008.072-.156.425-.665 1.072-1.969 1.435-2.892.062-.16.124-.32.135-.356.014-.051.032-.069.079-.095.026-.007.051-.014.062-.014Zm-.726.301c.011.008-.175.396-.356.752a28.243 28.243 0 0 1-1.254 2.184c-.087.141-.17.272-.181.287-.018.025-.026.018-.084-.095a3.368 3.368 0 0 1-.28-.843 3.398 3.398 0 0 1 .019-1.082c.047-.225.043-.222.152-.276.465-.236 1.969-.941 1.984-.927Zm6.266.255v.152c0 .81-.087 1.922-.214 2.732a3.9 3.9 0 0 1-.044.262s-.105-.029-.229-.066a9.357 9.357 0 0 1-1.671-.715c-.352-.193-.864-.509-.85-.524l.334-.178c.713-.37 1.395-.77 1.988-1.166.221-.149.555-.388.628-.454l.058-.043Zm-9.009 1.075c.014 0 .011.029-.011.16a4.812 4.812 0 0 0-.04.388c-.029.531.058.923.32 1.461.072.149.131.272.127.276-.026.022-2.431.727-3.186.934l-.436.119c-.026.008-.029.004-.018-.058.083-.534.49-1.231 1.057-1.82.378-.392.679-.621 1.195-.915.371-.211.941-.527.985-.541 0-.004.003-.004.007-.004Zm5.667 1.013a1.52 1.52 0 0 1 .196.106c.778.45 1.86.868 2.783 1.082l.084.019-.117.065c-.483.269-2.07.93-3.694 1.537a34.43 34.43 0 0 0-.513.192.294.294 0 0 1-.083.026c0-.004.065-.131.149-.287.454-.85.912-1.886 1.144-2.605.029-.069.047-.131.051-.135Zm-.578.189c.004.004-.025.08-.061.168a23.095 23.095 0 0 1-1.261 2.539c-.134.24-.247.432-.251.432a7.21 7.21 0 0 1-.243-.145c-.77-.472-1.453-1.054-1.9-1.617l-.065-.08.33-.09a23.882 23.882 0 0 0 3.19-1.101c.142-.058.258-.106.261-.106Zm3.59 1.254c.003.083-.182.832-.335 1.373-.127.454-.236.81-.436 1.438a9.631 9.631 0 0 1-.167.505 15.245 15.245 0 0 1-3-.842 8.577 8.577 0 0 1-.64-.284c-.007-.007.211-.109.487-.229 1.653-.723 3.368-1.544 3.956-1.896a.485.485 0 0 1 .135-.065Zm-8.287.283c.007.007-.454.672-1.101 1.577l-.584.824c-.099.138-.247.356-.331.487l-.153.236-.163-.138a6.022 6.022 0 0 1-.676-.69c-.312-.389-.523-.799-.606-1.173-.04-.175-.04-.262-.004-.273.054-.014 1.024-.243 1.933-.454a149.117 149.117 0 0 0 1.685-.396Zm.465.178.116.131a6.851 6.851 0 0 0 1.704 1.395c.117.065.204.123.196.127-.025.018-2.245.806-3.273 1.163-.577.203-1.053.366-1.057.366a.548.548 0 0 1-.073-.047l-.065-.047.105-.153c.342-.494.771-1.035 1.704-2.161l.643-.774Zm2.899 2.074c.004-.003.164.055.36.128.472.178.846.29 1.348.417.617.157 1.511.309 2.038.353.08.007.123.014.109.025-.026.015-.56.193-.952.316a250.943 250.943 0 0 1-4.636 1.363c-.036.007-.156-.026-.156-.04 0-.008.087-.12.193-.244a21.745 21.745 0 0 0 1.475-1.983c.119-.182.221-.331.221-.335Zm-.639.019c.003.003-.254.417-.705 1.129-.193.302-.407.643-.483.763-.073.117-.182.298-.244.4l-.105.185-.054-.014a31.57 31.57 0 0 1-1.294-.458 8.888 8.888 0 0 1-.846-.389c-.291-.156-.654-.389-.625-.396.007-.003.505-.138 1.104-.301 1.592-.433 2.474-.683 3.052-.865.105-.033.196-.058.2-.054Zm4.523 1.06h.003c.015.037-.574 1.671-.788 2.187-.047.117-.065.146-.091.142a72.63 72.63 0 0 1-1.435-.2c-.904-.138-2.423-.403-2.804-.49l-.088-.018.542-.124c1.162-.261 1.722-.403 2.288-.578.716-.217 1.425-.49 2.14-.824a1.81 1.81 0 0 1 .233-.095Z" fill="url(#l)"/><path d="M388.641 599c-.08-.011-1.369.454-2.201.792-1.123.458-1.995.894-2.532 1.272-.2.141-.451.392-.491.49a.35.35 0 0 0-.021.124l.486.461 1.159.371 2.758.494 3.153.541.032-.273c-.01 0-.018-.003-.028-.003l-.415-.066-.083-.149a27.75 27.75 0 0 1-1.177-2.325 11.939 11.939 0 0 1-.531-1.464c-.061-.247-.069-.261-.109-.265Zm-.058.186h.004c.003.003.018.105.033.225.061.508.174.999.352 1.529.134.4.134.378-.022.331-.37-.102-2.031-.389-3.233-.556a4.686 4.686 0 0 1-.356-.055c-.015-.014.868-.475 1.257-.657.498-.229 1.863-.799 1.965-.817Zm-3.502 1.627.142.047c.77.262 2.706.632 3.774.72.12.01.222.021.225.021a1.64 1.64 0 0 1-.228.12c-.516.258-1.083.574-1.475.818-.116.072-.222.13-.236.13-.015 0-.091-.014-.171-.025l-.145-.022-.364-.356a133.75 133.75 0 0 0-1.333-1.282l-.189-.171Zm-.145.113.512.639c.28.352.563.697.625.774.062.076.113.138.109.141-.015.011-.741-.13-1.126-.217a9.254 9.254 0 0 1-.803-.211l-.2-.066v-.05c.004-.244.313-.607.836-.978l.047-.032Zm4.352.871c.015 0 .033.033.076.131.124.273.509 1.007.603 1.148.029.048.08.051-.432-.032-1.232-.2-1.628-.266-1.628-.273 0-.003.037-.029.084-.054.382-.211.767-.48 1.108-.767l.174-.145c.004-.008.011-.011.015-.008Z" fill="url(#m)"/><path d="M378.915 601.504s-.08.127-.004.316c.047.116.185.258.341.403 0 0 1.617 1.577 1.813 1.802.894 1.032 1.283 2.049 1.319 3.451.022.901-.149 1.693-.574 2.612-.756 1.65-2.351 3.47-4.81 5.49l.36-.12c.232-.175.548-.36 1.289-.767 1.711-.937 3.637-1.798 5.998-2.685 3.4-1.278 8.991-2.775 12.174-3.262l.33-.051-.051-.08c-.29-.45-.49-.73-.73-1.028-.697-.864-1.544-1.565-2.579-2.147-1.424-.795-3.266-1.416-5.598-1.878a63.652 63.652 0 0 0-2.191-.374 228.222 228.222 0 0 1-3.923-.639c-.425-.073-1.061-.182-1.483-.273a9.306 9.306 0 0 1-.962-.258c-.262-.102-.64-.203-.719-.512Zm.937.908c.003-.003.062.018.138.044.138.047.316.101.527.16.159.043.319.086.479.127.218.054.4.105.403.105.026.026.393 1.199.516 1.649.047.171.084.316.08.316a.75.75 0 0 1-.091-.141c-.425-.749-1.097-1.508-1.874-2.118a1.497 1.497 0 0 1-.178-.142Zm1.787.494c.018 0 .098.011.196.033.618.138 1.726.349 2.434.469.12.018.215.04.215.047a.41.41 0 0 1-.098.062c-.12.061-.603.348-.763.457-.404.269-.767.56-1.028.821-.106.106-.197.193-.197.193s-.021-.062-.04-.138a11.668 11.668 0 0 0-.65-1.78 1.665 1.665 0 0 1-.073-.167c0 .007 0 .003.004.003Zm3.146.6c.022.007.058.13.131.403a5.956 5.956 0 0 1 .153 1.976l-.011.036-.189-.061a57.509 57.509 0 0 0-1.562-.462 6.136 6.136 0 0 1-.56-.167c0-.022.451-.472.643-.643.367-.323 1.362-1.093 1.395-1.082Zm.251.036c.011-.011 1.504.247 2.183.378.505.098 1.239.25 1.283.269.021.007-.055.05-.298.159-.959.433-1.671.821-2.38 1.294a11.46 11.46 0 0 1-.345.225c-.004 0-.007-.105-.007-.233 0-.69-.138-1.387-.393-1.976a.526.526 0 0 1-.043-.116Zm3.862.763c.01.011-.037.305-.08.479-.131.542-.484 1.345-.916 2.1a2.297 2.297 0 0 1-.152.247 1.449 1.449 0 0 1-.218-.116 11.89 11.89 0 0 0-1.424-.698c-.146-.061-.273-.112-.277-.119-.025-.022 1.145-.796 1.762-1.167.491-.297 1.29-.741 1.305-.726Zm.276.043c.032 0 .694.182 1.039.284.853.254 1.834.614 2.474.904l.265.12-.186.044c-1.562.359-2.898.774-4.188 1.297-.106.043-.2.08-.207.08a.966.966 0 0 1 .076-.186c.389-.824.639-1.685.701-2.419.004-.069.015-.124.026-.124Zm-6.583 1.512c.011-.011.516.109.788.185.414.116 1.294.41 1.294.432 0 .004-.099.087-.215.189-.476.396-.933.814-1.482 1.344a4.637 4.637 0 0 1-.309.284c-.007 0-.011-.022-.007-.051.084-.611.065-1.395-.051-2.191-.011-.102-.022-.189-.018-.192Zm10.611.011c.008.007-.232.385-.385.599-.218.312-.537.727-1.26 1.635-.382.479-.81 1.021-.952 1.202-.145.182-.265.334-.269.334-.004 0-.051-.065-.102-.145a7.492 7.492 0 0 0-1.471-1.624 8.118 8.118 0 0 0-.269-.218.425.425 0 0 1-.072-.061c0-.011.617-.277 1.086-.465.821-.335 1.94-.734 2.779-.992.44-.138.908-.273.915-.265Zm.28.072a.841.841 0 0 1 .207.102 12.3 12.3 0 0 1 2.431 1.824c.192.189.668.683.661.686 0 0-.167.015-.363.029-1.53.117-3.488.44-5.37.894-.127.029-.24.054-.247.054-.007 0 .135-.141.313-.312 1.104-1.064 1.609-1.736 2.205-2.935.083-.178.156-.331.163-.342-.003 0-.003 0 0 0Zm-8.09.829c.051.01.523.232.879.41.327.163.817.425.843.447a6.02 6.02 0 0 1-.385.2c-.683.341-1.268.664-1.878 1.035-.175.105-.32.193-.324.193-.014 0-.011-.015.087-.193a7.59 7.59 0 0 0 .738-2.002c.014-.054.029-.09.04-.09Zm-.472.087c.01.011-.113.457-.189.701a8.993 8.993 0 0 1-.643 1.475c-.058.101-.146.25-.193.334l-.091.145-.203-.196a2.686 2.686 0 0 0-.676-.498.95.95 0 0 1-.174-.101c0-.029.621-.592 1.097-.999.341-.295 1.061-.872 1.072-.861Zm2.888 1.188.178.116c.407.265.886.617 1.253.926.207.171.607.531.687.618l.043.047-.294.084c-1.664.461-2.95.871-4.45 1.424a5.475 5.475 0 0 1-.32.112c-.022 0-.04.018.334-.327.959-.882 1.809-1.856 2.442-2.804l.127-.196Zm-.76.189c.008.007-.49.708-.788 1.104a49.48 49.48 0 0 1-1.424 1.78c-.182.214-.338.392-.345.396-.011.004-.015-.051-.015-.134 0-.44-.112-.909-.308-1.308-.084-.167-.098-.207-.08-.225.069-.062 1.126-.665 1.794-1.025.451-.24 1.155-.596 1.166-.588Zm-4.591 1.126a3.923 3.923 0 0 1 .813.516c.008.007-.087.083-.21.174-.346.247-.869.643-1.174.886-.32.255-.33.262-.294.207.24-.366.36-.574.487-.839a6.91 6.91 0 0 0 .305-.759.589.589 0 0 1 .073-.185Zm1.224.959c.018-.004.04.029.138.174.207.309.367.723.407 1.057l.007.073-.498.193c-.89.345-1.711.686-2.267.94a48.6 48.6 0 0 0-.606.291c-.178.091-.324.16-.324.156 0-.003.113-.087.251-.189 1.086-.788 2.027-1.653 2.732-2.517.076-.091.145-.175.153-.178h.007Zm-.563.138c.014.014-.4.483-.683.77a12.035 12.035 0 0 1-2.256 1.82l-.218.138c-.026.015.007-.022.385-.432.24-.258.421-.476.628-.745a1.23 1.23 0 0 1 .364-.345c.534-.385 1.765-1.221 1.78-1.206Z" fill="url(#n)"/><rect x="363.5" y="587.5" width="47" height="47" rx="5.5" stroke="#262626"/><rect x="363.5" y="475.5" width="47" height="47" rx="5.5" fill="#080808"/><path d="M375 502.318v-7.219h2.573c.56 0 1.024.096 1.393.289.371.192.649.459.832.8.183.338.275.73.275 1.174 0 .442-.093.831-.279 1.167-.183.334-.46.593-.832.779-.369.186-.833.278-1.392.278h-1.95v-.937h1.851c.353 0 .639-.051.86-.152a.997.997 0 0 0 .49-.441 1.44 1.44 0 0 0 .155-.694c0-.273-.052-.509-.158-.709a1.032 1.032 0 0 0-.49-.458c-.221-.108-.511-.162-.871-.162h-1.368v6.285H375Zm3.564-3.257 1.784 3.257h-1.241l-1.749-3.257h1.206Zm2.834 3.257v-7.219h4.527v.937h-3.437v2.2h3.201v.934h-3.201v2.211h3.479v.937h-4.569Zm9.92-5.323a1.03 1.03 0 0 0-.466-.775c-.272-.186-.616-.279-1.029-.279-.296 0-.552.047-.769.141a1.19 1.19 0 0 0-.504.381.902.902 0 0 0-.176.546c0 .172.04.32.12.445.082.124.189.229.321.313.134.083.277.152.43.208.152.054.299.099.44.134l.705.184c.231.056.467.132.709.229.242.096.467.223.673.38.207.158.374.353.501.586.129.232.194.511.194.835 0 .409-.106.772-.317 1.089-.21.318-.514.568-.914.751-.397.184-.877.275-1.441.275-.541 0-1.009-.085-1.403-.257a2.17 2.17 0 0 1-.928-.73 2.12 2.12 0 0 1-.37-1.128h1.093c.021.261.106.478.254.652.15.172.342.3.575.385.235.082.492.123.772.123.307 0 .581-.048.821-.145.242-.098.432-.235.571-.409a.964.964 0 0 0 .208-.616.76.76 0 0 0-.183-.526 1.353 1.353 0 0 0-.49-.338 4.818 4.818 0 0 0-.695-.236l-.853-.233c-.578-.157-1.036-.389-1.375-.694-.336-.306-.504-.71-.504-1.213 0-.416.113-.779.339-1.089a2.21 2.21 0 0 1 .916-.723c.386-.174.82-.261 1.305-.261.488 0 .92.086 1.293.257.376.172.672.408.889.709.216.298.329.642.338 1.029h-1.05Zm2.094-.959v-.937H399v.937h-2.253v6.282h-1.085v-6.282h-2.25Z" fill="#fff"/><rect x="363.5" y="475.5" width="47" height="47" rx="5.5" stroke="#262626"/><rect x="307.5" y="642.5" width="47" height="47" rx="5.5" fill="#080808"/><path fill-rule="evenodd" clip-rule="evenodd" d="M343 666.161c0-1.707-.826-3.054-2.406-3.054-1.587 0-2.547 1.347-2.547 3.04 0 2.007 1.133 3.02 2.76 3.02.793 0 1.393-.18 1.847-.433v-1.333a3.553 3.553 0 0 1-1.634.366c-.646 0-1.22-.226-1.293-1.013h3.26c0-.087.013-.433.013-.593Zm-3.293-.634c0-.753.46-1.066.88-1.066.407 0 .84.313.84 1.066h-1.72Zm-4.234-2.42c-.653 0-1.073.307-1.306.52l-.087-.413h-1.467v7.773l1.667-.353.007-1.887c.24.174.593.42 1.18.42 1.193 0 2.28-.96 2.28-3.073-.007-1.933-1.107-2.987-2.274-2.987Zm-.4 4.594c-.393 0-.626-.14-.786-.314l-.007-2.473c.173-.193.413-.327.793-.327.607 0 1.027.68 1.027 1.554 0 .893-.413 1.56-1.027 1.56Zm-4.753-4.988 1.673-.36V661l-1.673.353v1.36Z" fill="#635BFF"/><path d="M331.993 663.219h-1.673v5.833h1.673v-5.833Z" fill="#635BFF"/><path fill-rule="evenodd" clip-rule="evenodd" d="m328.527 663.713-.107-.494h-1.44v5.834h1.667v-3.954c.393-.513 1.06-.42 1.266-.346v-1.534c-.213-.08-.993-.226-1.386.494Zm-3.334-1.94-1.626.347-.007 5.34c0 .987.74 1.713 1.727 1.713.546 0 .946-.1 1.166-.22V667.6c-.213.087-1.266.393-1.266-.593v-2.367h1.266v-1.42h-1.266l.006-1.447Zm-4.506 3.141c0-.26.213-.36.566-.36.507 0 1.147.153 1.654.427v-1.567a4.4 4.4 0 0 0-1.654-.307c-1.353 0-2.253.707-2.253 1.887 0 1.84 2.533 1.547 2.533 2.34 0 .307-.266.407-.64.407-.553 0-1.26-.227-1.82-.534v1.587c.62.267 1.247.38 1.82.38 1.387 0 2.34-.687 2.34-1.88-.006-1.987-2.546-1.633-2.546-2.38Z" fill="#635BFF"/><rect x="307.5" y="642.5" width="47" height="47" rx="5.5" stroke="#262626"/><rect x="411.5" y="682.5" width="47" height="47" rx="5.5" fill="#080808"/><g clip-path="url(#o)"><mask id="p" style="mask-type:luminance" maskUnits="userSpaceOnUse" x="418" y="694" width="35" height="24"><path d="M418.007 694.062h34.178v23.875h-34.178v-23.875Z" fill="#00A1E0"/></mask><g mask="url(#p)"><path fill-rule="evenodd" clip-rule="evenodd" d="M432.199 696.675a5.995 5.995 0 0 1 4.335-1.859c2.262 0 4.222 1.256 5.277 3.129a7.28 7.28 0 0 1 2.978-.635c4.072 0 7.376 3.33 7.376 7.439s-3.304 7.438-7.376 7.438c-.497 0-.982-.05-1.457-.144a5.4 5.4 0 0 1-4.7 2.764 5.371 5.371 0 0 1-2.362-.542 6.15 6.15 0 0 1-5.654 3.744 6.141 6.141 0 0 1-5.768-4.021 5.645 5.645 0 0 1-1.174.122c-3.153 0-5.704-2.588-5.704-5.767a5.795 5.795 0 0 1 2.852-5.001 6.636 6.636 0 0 1 6.101-9.274 6.616 6.616 0 0 1 5.277 2.614" fill="#00A1E0"/></g><path fill-rule="evenodd" clip-rule="evenodd" d="M422.951 706.477c-.022.056.007.068.014.078.064.047.13.08.195.118.349.185.679.239 1.023.239.701 0 1.137-.373 1.137-.974v-.012c0-.555-.493-.758-.952-.902l-.061-.02c-.348-.112-.648-.211-.648-.439v-.012c0-.196.176-.341.447-.341.302 0 .661.101.891.228 0 0 .068.044.093-.022l.143-.384c.014-.037-.01-.065-.034-.079a1.983 1.983 0 0 0-1.005-.27h-.07c-.642 0-1.091.388-1.091.944v.011c0 .586.495.777.958.909l.074.023c.337.104.628.194.628.43v.012c0 .217-.189.379-.493.379-.119 0-.495-.002-.904-.26-.049-.029-.077-.05-.115-.073-.021-.012-.071-.034-.093.032l-.138.384m10.266 0c-.021.056.008.068.015.078.064.047.129.08.195.118.349.185.678.239 1.023.239.701 0 1.137-.373 1.137-.974v-.012c0-.555-.492-.758-.953-.902l-.06-.02c-.348-.112-.648-.211-.648-.439v-.012c0-.196.176-.341.447-.341.302 0 .66.101.891.228 0 0 .068.044.093-.022.013-.035.131-.349.142-.384.013-.037-.01-.065-.034-.079a1.983 1.983 0 0 0-1.005-.27h-.07c-.643 0-1.091.388-1.091.944v.011c0 .586.495.777.957.909l.075.023c.338.104.628.194.628.43v.012c0 .217-.19.379-.494.379-.118 0-.496-.002-.903-.26-.05-.029-.079-.049-.116-.073-.013-.008-.072-.031-.092.032l-.138.384m7.011-1.176c0 .34-.063.607-.187.797-.124.187-.31.279-.571.279-.26 0-.446-.091-.568-.278-.122-.188-.184-.457-.184-.796 0-.34.062-.606.184-.793.122-.186.307-.276.568-.276.262 0 .448.091.571.276.125.187.187.453.187.793m.586-.63a1.407 1.407 0 0 0-.267-.509 1.273 1.273 0 0 0-.45-.342 1.478 1.478 0 0 0-.628-.125c-.239 0-.448.042-.628.125a1.294 1.294 0 0 0-.45.342 1.405 1.405 0 0 0-.266.509 2.19 2.19 0 0 0-.087.63c0 .224.029.436.087.629.057.195.147.366.266.509.12.143.271.258.45.339.18.082.391.123.628.123.238 0 .449-.041.627-.123.179-.081.331-.196.45-.339.119-.143.209-.314.266-.509.057-.193.086-.405.086-.629 0-.224-.029-.437-.086-.63m4.813 1.608c-.019-.057-.075-.035-.075-.035a1.38 1.38 0 0 1-.272.078 2.144 2.144 0 0 1-.321.023c-.283 0-.509-.085-.67-.252-.162-.167-.252-.436-.251-.8.001-.332.081-.581.225-.772.142-.188.361-.286.65-.286.241 0 .426.028.619.089 0 0 .046.02.068-.041l.144-.399c.016-.045-.022-.064-.036-.069a2.201 2.201 0 0 0-.391-.099 2.992 2.992 0 0 0-.44-.03 1.6 1.6 0 0 0-.652.126 1.354 1.354 0 0 0-.756.851 2.004 2.004 0 0 0-.096.63c0 .486.131.879.39 1.167.259.289.648.434 1.156.434.3 0 .608-.06.829-.148 0 0 .042-.02.024-.07l-.145-.397m1.025-1.306c.028-.189.079-.346.16-.468.122-.186.307-.288.567-.288.26 0 .432.103.555.288.082.123.118.285.131.468l-1.42-.001.007.001Zm1.972-.415a1.255 1.255 0 0 0-.253-.464 1.171 1.171 0 0 0-.377-.286 1.424 1.424 0 0 0-.568-.115 1.56 1.56 0 0 0-.655.126 1.313 1.313 0 0 0-.456.348 1.427 1.427 0 0 0-.269.516 2.214 2.214 0 0 0-.087.632c0 .228.03.441.09.633.06.194.157.363.288.504.13.142.297.252.498.33.2.078.443.118.72.117.573-.002.875-.13.998-.199.022-.012.043-.033.017-.094l-.129-.364c-.02-.054-.075-.034-.075-.034-.142.053-.343.148-.814.147-.308-.001-.536-.091-.679-.234-.146-.146-.219-.358-.23-.66l1.985.002s.053-.001.058-.052c.002-.021.068-.407-.059-.853h-.003Zm-17.843.415c.028-.189.08-.346.161-.468.122-.186.307-.288.567-.288.26 0 .432.103.555.288.082.123.118.285.131.468l-1.42-.001.006.001Zm1.973-.415a1.241 1.241 0 0 0-.254-.464 1.15 1.15 0 0 0-.377-.286 1.417 1.417 0 0 0-.568-.115c-.247 0-.472.041-.654.126a1.313 1.313 0 0 0-.456.348 1.427 1.427 0 0 0-.269.516 2.214 2.214 0 0 0-.087.632c0 .228.03.441.09.633.06.194.157.363.287.504.13.142.297.252.498.33.2.078.441.118.72.117.573-.002.875-.13.998-.199.022-.012.043-.033.017-.094l-.13-.364c-.02-.054-.074-.034-.074-.034-.142.053-.343.148-.815.147-.306-.001-.535-.091-.678-.234-.146-.146-.219-.358-.23-.66l1.985.002s.052-.001.058-.052c.002-.021.068-.407-.059-.853h-.002Zm-6.257 1.709a.384.384 0 0 1-.115-.118.477.477 0 0 1-.059-.257c0-.174.058-.299.177-.384-.001.001.171-.148.575-.143.181.003.36.019.538.046v.901h.001s-.252.054-.536.071c-.403.024-.582-.116-.58-.116h-.001Zm.789-1.395a4.348 4.348 0 0 0-.309-.009c-.17 0-.335.021-.488.063a1.265 1.265 0 0 0-.413.192.943.943 0 0 0-.288.327.955.955 0 0 0-.106.457c0 .176.03.328.091.453.059.123.148.23.259.31.11.08.246.139.403.175.156.035.332.053.525.053.204 0 .406-.017.602-.05.167-.029.333-.061.499-.097.066-.015.139-.035.139-.035.049-.013.046-.065.046-.065l-.002-1.81c0-.397-.106-.692-.315-.874-.209-.182-.514-.274-.91-.274-.148 0-.388.02-.531.049 0 0-.432.084-.611.224 0 0-.039.024-.018.078l.141.377c.017.049.065.032.065.032s.015-.005.033-.016c.38-.207.863-.201.863-.201.213 0 .379.043.49.128.108.083.163.209.163.473v.084c-.169-.025-.326-.039-.326-.039l-.002-.005Zm15.958-1.022a.046.046 0 0 0 .004-.021.052.052 0 0 0-.004-.021.057.057 0 0 0-.03-.029 1.733 1.733 0 0 0-.332-.056.976.976 0 0 0-.511.082.87.87 0 0 0-.334.247l-.001-.241c0-.033-.023-.06-.057-.06h-.507c-.033 0-.057.027-.057.06v2.953a.06.06 0 0 0 .06.06h.52a.061.061 0 0 0 .043-.017.064.064 0 0 0 .018-.043v-1.483c0-.198.021-.396.065-.52a.741.741 0 0 1 .173-.291.598.598 0 0 1 .245-.147.968.968 0 0 1 .267-.038c.103 0 .217.027.217.027.038.004.06-.019.073-.054.034-.09.13-.362.149-.416" fill="#FFFFFE"/><path fill-rule="evenodd" clip-rule="evenodd" d="M438.381 702.487a1.64 1.64 0 0 0-.465-.067c-.359 0-.641.101-.84.301-.197.199-.331.501-.398.899l-.024.135h-.45s-.055-.003-.067.057l-.074.412c-.005.04.012.064.065.064h.438l-.445 2.481a3.06 3.06 0 0 1-.118.489.998.998 0 0 1-.139.282.368.368 0 0 1-.181.14.733.733 0 0 1-.233.033.943.943 0 0 1-.159-.017.497.497 0 0 1-.107-.035s-.051-.02-.072.032l-.147.403c-.014.039.006.07.031.079a1.19 1.19 0 0 0 .471.08c.183 0 .349-.025.487-.075a.902.902 0 0 0 .366-.256 1.31 1.31 0 0 0 .258-.443 3.88 3.88 0 0 0 .174-.666l.446-2.527h.653s.055.002.067-.057l.074-.413c.005-.039-.012-.064-.065-.063h-.634c.003-.015.032-.238.105-.447a.57.57 0 0 1 .139-.212.405.405 0 0 1 .166-.103.767.767 0 0 1 .375-.014c.062.013.086.02.102.024.064.02.073.001.086-.03l.151-.417c.016-.044-.022-.063-.036-.069Zm-8.855 4.287c0 .033-.024.061-.057.061h-.526c-.033 0-.057-.028-.057-.061v-4.23c0-.033.024-.06.057-.06h.526c.033 0 .057.027.057.06v4.23Z" fill="#FFFFFE"/></g><rect x="411.5" y="682.5" width="47" height="47" rx="5.5" stroke="#262626"/><g opacity=".6"><g opacity=".19" filter="url(#q)"><circle cx="555" cy="555" r="180" fill="url(#r)" fill-opacity=".9"/></g><g opacity=".4" filter="url(#s)"><circle cx="555" cy="555.006" r="63.498" fill="url(#t)"/></g><g opacity=".4" filter="url(#u)"><circle cx="555.002" cy="554.997" r="69.796" fill="#000"/></g><g opacity=".9" filter="url(#v)"><circle cx="554.999" cy="555.002" r="73.994" fill="url(#w)" fill-opacity=".9"/></g><g opacity=".3" filter="url(#x)"><circle cx="554.999" cy="554.994" r="48.805" fill="#000"/></g><circle opacity=".05" cx="554.999" cy="554.999" r="65.073" stroke="url(#y)" stroke-opacity=".6" stroke-width="1.462"/><circle opacity=".1" cx="555.004" cy="554.997" r="51.429" stroke="url(#z)" stroke-opacity=".6" stroke-width="1.462"/><circle opacity=".2" cx="554.995" cy="555.004" r="38.834" stroke="url(#A)" stroke-opacity=".6" stroke-width="1.462"/></g><g filter="url(#B)"><rect x="523" y="523" width="64" height="64" rx="32" fill="#000"/><rect x="523.25" y="523.25" width="63.5" height="63.5" rx="31.75" stroke="url(#C)" stroke-opacity=".2" stroke-width=".5"/><g filter="url(#D)"><path d="m567.491 545.383-11.417-6.58a3.351 3.351 0 0 0-3.323 0 3.32 3.32 0 0 0-1.659 2.869v.859l-.744-.43a3.351 3.351 0 0 0-3.323 0 3.326 3.326 0 0 0-1.66 2.875v.858l-.744-.429a3.349 3.349 0 0 0-3.322 0 3.323 3.323 0 0 0-1.66 2.87v20.613a1.564 1.564 0 0 0 .881 1.403 1.564 1.564 0 0 0 1.647-.179l5.661-4.457 8.732 5.03a1.588 1.588 0 0 0 1.562 0c.482-.278.782-.794.782-1.35v-12.402a5.736 5.736 0 0 0-2.864-4.95l-2.863-1.65v-8.657a1.243 1.243 0 0 1 .621-1.071 1.24 1.24 0 0 1 1.237.001l11.417 6.577a3.641 3.641 0 0 1 1.822 3.149v15.446c0 .441-.237.85-.619 1.07l-3.025 1.743V553.63a5.725 5.725 0 0 0-2.863-4.948l-7.029-4.049v2.399l5.988 3.449a3.649 3.649 0 0 1 1.822 3.149v15.859c0 .553.299 1.072.781 1.351a1.592 1.592 0 0 0 1.562 0l3.807-2.194a3.324 3.324 0 0 0 1.661-2.872v-15.446a5.75 5.75 0 0 0-2.868-4.945Zm-12.497 8.399a3.644 3.644 0 0 1 1.822 3.15v11.506l-7.229-4.165 2.321-1.825a3.293 3.293 0 0 0 1.265-2.602v-7.11l1.822 1.047-.001-.001Zm-3.903-2.249v8.309c0 .382-.173.737-.472.97l-8.899 7.003v-19.543a1.242 1.242 0 0 1 .62-1.07 1.231 1.231 0 0 1 1.237 0l1.788 1.029v14.731l2.081-1.638v-16.35a1.246 1.246 0 0 1 .62-1.072 1.243 1.243 0 0 1 1.238.002l1.787 1.028v4.199l-2.08-1.2v2.401l2.082 1.201h-.002Z" fill="#fff"/></g></g><defs><linearGradient id="a" x1="652" y1="404" x2="565.973" y2="531.274" gradientUnits="userSpaceOnUse"><stop stop-color="#262626" stop-opacity="0"/><stop offset=".057" stop-color="#262626"/><stop offset=".95" stop-color="#262626"/><stop offset="1" stop-color="#262626" stop-opacity="0"/></linearGradient><linearGradient id="e" x1="781.534" y1="446.533" x2="786.267" y2="452.399" gradientUnits="userSpaceOnUse"><stop/><stop offset="1" stop-opacity="0"/></linearGradient><linearGradient id="f" x1="783.133" y1="438.199" x2="783.107" y2="445.249" gradientUnits="userSpaceOnUse"><stop/><stop offset="1" stop-opacity="0"/></linearGradient><linearGradient id="l" x1="383.357" y1="620.627" x2="385.095" y2="619.6" gradientUnits="userSpaceOnUse"><stop stop-color="#909CA9"/><stop offset="1" stop-color="#EDEDEE"/></linearGradient><linearGradient id="m" x1="383.408" y1="601.265" x2="384.807" y2="601.265" gradientUnits="userSpaceOnUse"><stop stop-color="#939FAB"/><stop offset="1" stop-color="#DCDEE1"/></linearGradient><linearGradient id="r" x1="375" y1="555" x2="735" y2="555" gradientUnits="userSpaceOnUse"><stop stop-color="#001638"/><stop offset="1" stop-color="#00398E"/></linearGradient><linearGradient id="t" x1="491.502" y1="555.006" x2="618.499" y2="555.006" gradientUnits="userSpaceOnUse"><stop stop-color="#001638"/><stop offset="1" stop-color="#00398E"/></linearGradient><linearGradient id="w" x1="481.005" y1="555.002" x2="628.993" y2="555.002" gradientUnits="userSpaceOnUse"><stop stop-color="#001638"/><stop offset="1" stop-color="#00398E"/></linearGradient><linearGradient id="y" x1="554.999" y1="489.926" x2="554.999" y2="620.072" gradientUnits="userSpaceOnUse"><stop stop-color="#4791FF"/><stop offset="1" stop-color="#99C2FF"/></linearGradient><linearGradient id="z" x1="555.004" y1="503.568" x2="555.004" y2="606.426" gradientUnits="userSpaceOnUse"><stop stop-color="#4791FF"/><stop offset="1" stop-color="#99C2FF"/></linearGradient><linearGradient id="A" x1="554.995" y1="516.17" x2="554.995" y2="593.838" gradientUnits="userSpaceOnUse"><stop stop-color="#4791FF"/><stop offset="1" stop-color="#99C2FF"/></linearGradient><linearGradient id="C" x1="555" y1="523" x2="555" y2="587" gradientUnits="userSpaceOnUse"><stop stop-color="#fff"/><stop offset="1" stop-color="#fff" stop-opacity="0"/></linearGradient><clipPath id="b"><path fill="#fff" transform="translate(663 393)" d="M0 0h24v21.353H0z"/></clipPath><clipPath id="c"><path fill="#fff" transform="translate(767 431)" d="M0 0h24v24H0z"/></clipPath><clipPath id="g"><path fill="#fff" transform="translate(711 485)" d="M0 0h24v28.869H0z"/></clipPath><clipPath id="h"><path fill="#fff" transform="translate(711 597)" d="M0 0h24v28.219H0z"/></clipPath><clipPath id="i"><path fill="#fff" transform="translate(767 657)" d="M0 0h24v17.88H0z"/></clipPath><clipPath id="j"><path fill="#fff" transform="translate(665 694)" d="M0 0h20.687v24H0z"/></clipPath><clipPath id="k"><path fill="#fff" transform="translate(319 543)" d="M0 0h24v24H0z"/></clipPath><clipPath id="o"><path fill="#fff" transform="translate(418 694)" d="M0 0h34.304v24H0z"/></clipPath><filter id="q" x=".61" y=".61" width="1108.78" height="1108.78" filterUnits="userSpaceOnUse" color-interpolation-filters="sRGB"><feFlood flood-opacity="0" result="BackgroundImageFix"/><feBlend in="SourceGraphic" in2="BackgroundImageFix" result="shape"/><feGaussianBlur stdDeviation="187.195" result="effect1_foregroundBlur_764_21917"/></filter><filter id="s" x="383.28" y="383.286" width="343.442" height="343.441" filterUnits="userSpaceOnUse" color-interpolation-filters="sRGB"><feFlood flood-opacity="0" result="BackgroundImageFix"/><feBlend in="SourceGraphic" in2="BackgroundImageFix" result="shape"/><feGaussianBlur stdDeviation="54.111" result="effect1_foregroundBlur_764_21917"/></filter><filter id="u" x="400.383" y="400.378" width="309.237" height="309.237" filterUnits="userSpaceOnUse" color-interpolation-filters="sRGB"><feFlood flood-opacity="0" result="BackgroundImageFix"/><feBlend in="SourceGraphic" in2="BackgroundImageFix" result="shape"/><feGaussianBlur stdDeviation="42.411" result="effect1_foregroundBlur_764_21917"/></filter><filter id="v" x="407.882" y="407.885" width="294.235" height="294.235" filterUnits="userSpaceOnUse" color-interpolation-filters="sRGB"><feFlood flood-opacity="0" result="BackgroundImageFix"/><feBlend in="SourceGraphic" in2="BackgroundImageFix" result="shape"/><feGaussianBlur stdDeviation="36.562" result="effect1_foregroundBlur_764_21917"/></filter><filter id="x" x="421.372" y="421.367" width="267.255" height="267.255" filterUnits="userSpaceOnUse" color-interpolation-filters="sRGB"><feFlood flood-opacity="0" result="BackgroundImageFix"/><feBlend in="SourceGraphic" in2="BackgroundImageFix" result="shape"/><feGaussianBlur stdDeviation="42.411" result="effect1_foregroundBlur_764_21917"/></filter><filter id="B" x="507" y="508" width="96" height="99" filterUnits="userSpaceOnUse" color-interpolation-filters="sRGB"><feFlood flood-opacity="0" result="BackgroundImageFix"/><feGaussianBlur in="BackgroundImageFix" stdDeviation="7.5"/><feComposite in2="SourceAlpha" operator="in" result="effect1_backgroundBlur_764_21917"/><feColorMatrix in="SourceAlpha" values="0 0 0 0 0 0 0 0 0 0 0 0 0 0 0 0 0 0 127 0" result="hardAlpha"/><feOffset dy="4"/><feGaussianBlur stdDeviation="8"/><feComposite in2="hardAlpha" operator="out"/><feColorMatrix values="0 0 0 0 0 0 0 0 0 0 0 0 0 0 0 0 0 0 0.25 0"/><feBlend in2="effect1_backgroundBlur_764_21917" result="effect2_dropShadow_764_21917"/><feBlend in="SourceGraphic" in2="effect2_dropShadow_764_21917" result="shape"/></filter><filter id="D" x="522.227" y="526.608" width="65.544" height="67.507" filterUnits="userSpaceOnUse" color-interpolation-filters="sRGB"><feFlood flood-opacity="0" result="BackgroundImageFix"/><feColorMatrix in="SourceAlpha" values="0 0 0 0 0 0 0 0 0 0 0 0 0 0 0 0 0 0 127 0" result="hardAlpha"/><feOffset dy="5.659"/><feGaussianBlur stdDeviation="8.706"/><feColorMatrix values="0 0 0 0 0 0 0 0 0 0 0 0 0 0 0 0 0 0 0.3 0"/><feBlend in2="BackgroundImageFix" result="effect1_dropShadow_764_21917"/><feBlend in="SourceGraphic" in2="effect1_dropShadow_764_21917" result="shape"/></filter><radialGradient id="n" cx="0" cy="0" r="1" gradientUnits="userSpaceOnUse" gradientTransform="matrix(-1.7829 -.26783 .53578 -3.5667 385.936 607.68)"><stop stop-color="#EE352C"/><stop offset="1" stop-color="#A91D22"/></radialGradient></defs></svg>