<svg width="24" height="24" fill="none" xmlns="http://www.w3.org/2000/svg"><path d="M12 8c4.97 0 9-1.343 9-3s-4.03-3-9-3-9 1.343-9 3 4.03 3 9 3Z" stroke="url(#a)" stroke-linecap="round" stroke-linejoin="round"/><path d="M21 12c0 1.66-4 3-9 3s-9-1.34-9-3" stroke="url(#b)" stroke-linecap="round" stroke-linejoin="round"/><path d="M3 5v14c0 1.66 4 3 9 3s9-1.34 9-3V5" stroke="url(#c)" stroke-linecap="round" stroke-linejoin="round"/><defs><linearGradient id="a" x1="3.26" y1="2.553" x2="16.011" y2="12.072" gradientUnits="userSpaceOnUse"><stop stop-color="#fff"/><stop offset="1" stop-color="#fff" stop-opacity=".35"/></linearGradient><linearGradient id="b" x1="3.26" y1="12.277" x2="9.409" y2="21.457" gradientUnits="userSpaceOnUse"><stop stop-color="#fff"/><stop offset="1" stop-color="#fff" stop-opacity=".35"/></linearGradient><linearGradient id="c" x1="3.26" y1="6.567" x2="21.828" y2="11.459" gradientUnits="userSpaceOnUse"><stop stop-color="#fff"/><stop offset="1" stop-color="#fff" stop-opacity=".35"/></linearGradient></defs></svg>