<svg width="1110" height="1110" viewBox="0 0 1110 1110" fill="none" xmlns="http://www.w3.org/2000/svg">
<path d="M466.646 403.646C466.451 403.842 466.451 404.158 466.646 404.354L469.828 407.536C470.024 407.731 470.34 407.731 470.536 407.536C470.731 407.34 470.731 407.024 470.536 406.828L467.707 404L470.536 401.172C470.731 400.976 470.731 400.66 470.536 400.464C470.34 400.269 470.024 400.269 469.828 400.464L466.646 403.646ZM467 404.5H469.267V403.5H467V404.5ZM476.067 404.5H480.6V403.5H476.067V404.5ZM487.4 404.5H491.933V403.5H487.4V404.5ZM498.733 404.5H501V403.5H498.733V404.5ZM501 404.5C501.594 404.5 502.165 404.594 502.7 404.768L503.009 403.817C502.376 403.611 501.7 403.5 501 403.5V404.5ZM506.232 408.3C506.406 408.834 506.5 409.406 506.5 410H507.5C507.5 409.3 507.389 408.624 507.183 407.991L506.232 408.3ZM506.5 410V411.933H507.5V410H506.5ZM506.5 417.733V421.6H507.5V417.733H506.5ZM506.5 427.4V431.267H507.5V427.4H506.5ZM506.5 437.067V440.933H507.5V437.067H506.5ZM506.5 446.733V450.6H507.5V446.733H506.5ZM506.5 456.4V460.267H507.5V456.4H506.5ZM506.5 466.067V469.933H507.5V466.067H506.5ZM506.5 475.733V479.6H507.5V475.733H506.5ZM506.5 485.4V489.267H507.5V485.4H506.5ZM506.5 495.067V498.933H507.5V495.067H506.5ZM506.5 504.733V508.6H507.5V504.733H506.5ZM506.5 514.4V518.267H507.5V514.4H506.5ZM506.5 524.067V527.933H507.5V524.067H506.5ZM506.5 533.733V537.6H507.5V533.733H506.5ZM506.5 543.4V547.267H507.5V543.4H506.5ZM506.5 553.067V555H507.5V553.067H506.5Z" fill="#262626"/>
<path d="M362.646 442.646C362.451 442.842 362.451 443.158 362.646 443.354L365.828 446.536C366.024 446.731 366.34 446.731 366.536 446.536C366.731 446.34 366.731 446.024 366.536 445.828L363.707 443L366.536 440.172C366.731 439.976 366.731 439.66 366.536 439.464C366.34 439.269 366.024 439.269 365.828 439.464L362.646 442.646ZM363 443.5H365.033V442.5H363L363 443.5ZM371.133 443.5H375.2V442.5H371.133V443.5ZM381.3 443.5H385.367V442.5H381.3V443.5ZM391.467 443.5H395.533V442.5H391.467V443.5ZM401.633 443.5H405.7V442.5H401.633V443.5ZM411.8 443.5H415.867V442.5H411.8V443.5ZM421.967 443.5H426.033V442.5H421.967V443.5ZM432.133 443.5H436.2V442.5H432.133V443.5ZM442.3 443.5H446.367V442.5H442.3V443.5ZM452.467 443.5H456.533V442.5H452.467V443.5ZM462.633 443.5H466.7V442.5H462.633V443.5ZM472.8 443.5H476.867V442.5H472.8V443.5ZM482.967 443.5H485V442.5H482.967V443.5ZM485 443.5C485.594 443.5 486.166 443.594 486.7 443.768L487.009 442.817C486.376 442.611 485.7 442.5 485 442.5V443.5ZM490.232 447.3C490.406 447.834 490.5 448.406 490.5 449H491.5C491.5 448.3 491.389 447.624 491.183 446.991L490.232 447.3ZM490.5 449V450.927H491.5V449H490.5ZM490.5 456.709V460.564H491.5V456.709H490.5ZM490.5 466.345V470.2H491.5V466.345H490.5ZM490.5 475.982V479.836H491.5V475.982H490.5ZM490.5 485.618V489.473H491.5V485.618H490.5ZM490.5 495.255V499.109H491.5V495.255H490.5ZM490.5 504.891V508.745H491.5V504.891H490.5ZM490.5 514.527V518.382H491.5V514.527H490.5ZM490.5 524.164V528.018H491.5V524.164H490.5ZM490.5 533.8V537.655H491.5V533.8H490.5ZM490.5 543.436V547.291H491.5V543.436H490.5ZM490.5 553.073V555H491.5V553.073H490.5Z" fill="#262626"/>
<path d="M418.646 498.646C418.451 498.842 418.451 499.158 418.646 499.354L421.828 502.536C422.024 502.731 422.34 502.731 422.536 502.536C422.731 502.34 422.731 502.024 422.536 501.828L419.707 499L422.536 496.172C422.731 495.976 422.731 495.66 422.536 495.464C422.34 495.269 422.024 495.269 421.828 495.464L418.646 498.646ZM469 499V498.5V499ZM419 499.5H421V498.5H419L419 499.5ZM427 499.5H431V498.5H427V499.5ZM437 499.5H441V498.5H437V499.5ZM447 499.5H451V498.5H447V499.5ZM457 499.5H461V498.5H457V499.5ZM467 499.5H469V498.5H467V499.5ZM469 499.5C469.594 499.5 470.166 499.594 470.7 499.768L471.009 498.817C470.376 498.611 469.7 498.5 469 498.5V499.5ZM474.232 503.3C474.406 503.834 474.5 504.406 474.5 505H475.5C475.5 504.3 475.389 503.624 475.183 502.991L474.232 503.3ZM474.5 505V507H475.5V505H474.5ZM474.5 513V517H475.5V513H474.5ZM474.5 523V527H475.5V523H474.5ZM474.5 533V537H475.5V533H474.5ZM474.5 543V547H475.5V543H474.5ZM474.5 553V555H475.5V553H474.5Z" fill="#262626"/>
<path d="M466.646 706.354C466.451 706.158 466.451 705.842 466.646 705.646L469.828 702.464C470.024 702.269 470.34 702.269 470.536 702.464C470.731 702.66 470.731 702.976 470.536 703.172L467.707 706L470.536 708.828C470.731 709.024 470.731 709.34 470.536 709.536C470.34 709.731 470.024 709.731 469.828 709.536L466.646 706.354ZM467 705.5H469.267V706.5H467V705.5ZM476.067 705.5H480.6V706.5H476.067V705.5ZM487.4 705.5H491.933V706.5H487.4V705.5ZM498.733 705.5H501V706.5H498.733V705.5ZM501 705.5C501.594 705.5 502.165 705.406 502.7 705.232L503.009 706.183C502.376 706.389 501.7 706.5 501 706.5V705.5ZM506.232 701.7C506.406 701.166 506.5 700.594 506.5 700H507.5C507.5 700.7 507.389 701.376 507.183 702.009L506.232 701.7ZM506.5 700V698.067H507.5V700H506.5ZM506.5 692.267V688.4H507.5V692.267H506.5ZM506.5 682.6V678.733H507.5V682.6H506.5ZM506.5 672.933V669.067H507.5V672.933H506.5ZM506.5 663.267V659.4H507.5V663.267H506.5ZM506.5 653.6V649.733H507.5V653.6H506.5ZM506.5 643.933V640.067H507.5V643.933H506.5ZM506.5 634.267V630.4H507.5V634.267H506.5ZM506.5 624.6V620.733H507.5V624.6H506.5ZM506.5 614.933V611.067H507.5V614.933H506.5ZM506.5 605.267V601.4H507.5V605.267H506.5ZM506.5 595.6V591.733H507.5V595.6H506.5ZM506.5 585.933V582.067H507.5V585.933H506.5ZM506.5 576.267V572.4H507.5V576.267H506.5ZM506.5 566.6V562.733H507.5V566.6H506.5ZM506.5 556.933V555H507.5V556.933H506.5Z" fill="#262626"/>
<path d="M362.646 667.354C362.451 667.158 362.451 666.842 362.646 666.646L365.828 663.464C366.024 663.269 366.34 663.269 366.536 663.464C366.731 663.66 366.731 663.976 366.536 664.172L363.707 667L366.536 669.828C366.731 670.024 366.731 670.34 366.536 670.536C366.34 670.731 366.024 670.731 365.828 670.536L362.646 667.354ZM363 666.5H365.033V667.5H363L363 666.5ZM371.133 666.5H375.2V667.5H371.133V666.5ZM381.3 666.5H385.367V667.5H381.3V666.5ZM391.467 666.5H395.533V667.5H391.467V666.5ZM401.633 666.5H405.7V667.5H401.633V666.5ZM411.8 666.5H415.867V667.5H411.8V666.5ZM421.967 666.5H426.033V667.5H421.967V666.5ZM432.133 666.5H436.2V667.5H432.133V666.5ZM442.3 666.5H446.367V667.5H442.3V666.5ZM452.467 666.5H456.533V667.5H452.467V666.5ZM462.633 666.5H466.7V667.5H462.633V666.5ZM472.8 666.5H476.867V667.5H472.8V666.5ZM482.967 666.5H485V667.5H482.967V666.5ZM485 666.5C485.594 666.5 486.166 666.406 486.7 666.232L487.009 667.183C486.376 667.389 485.7 667.5 485 667.5V666.5ZM490.232 662.7C490.406 662.166 490.5 661.594 490.5 661H491.5C491.5 661.7 491.389 662.376 491.183 663.009L490.232 662.7ZM490.5 661V659.073H491.5V661H490.5ZM490.5 653.291V649.436H491.5V653.291H490.5ZM490.5 643.655V639.8H491.5V643.655H490.5ZM490.5 634.018V630.164H491.5V634.018H490.5ZM490.5 624.382V620.527H491.5V624.382H490.5ZM490.5 614.745V610.891H491.5V614.745H490.5ZM490.5 605.109V601.255H491.5V605.109H490.5ZM490.5 595.473V591.618H491.5V595.473H490.5ZM490.5 585.836V581.982H491.5V585.836H490.5ZM490.5 576.2V572.345H491.5V576.2H490.5ZM490.5 566.564V562.709H491.5V566.564H490.5ZM490.5 556.927V555H491.5V556.927H490.5Z" fill="#262626"/>
<path d="M418.646 611.354C418.451 611.158 418.451 610.842 418.646 610.646L421.828 607.464C422.024 607.269 422.34 607.269 422.536 607.464C422.731 607.66 422.731 607.976 422.536 608.172L419.707 611L422.536 613.828C422.731 614.024 422.731 614.34 422.536 614.536C422.34 614.731 422.024 614.731 421.828 614.536L418.646 611.354ZM469 611V611.5V611ZM419 610.5H421V611.5H419L419 610.5ZM427 610.5H431V611.5H427V610.5ZM437 610.5H441V611.5H437V610.5ZM447 610.5H451V611.5H447V610.5ZM457 610.5H461V611.5H457V610.5ZM467 610.5H469V611.5H467V610.5ZM469 610.5C469.594 610.5 470.166 610.406 470.7 610.232L471.009 611.183C470.376 611.389 469.7 611.5 469 611.5V610.5ZM474.232 606.7C474.406 606.166 474.5 605.594 474.5 605H475.5C475.5 605.7 475.389 606.376 475.183 607.009L474.232 606.7ZM474.5 605V603H475.5V605H474.5ZM474.5 597V593H475.5V597H474.5ZM474.5 587V583H475.5V587H474.5ZM474.5 577V573H475.5V577H474.5ZM474.5 567V563H475.5V567H474.5ZM474.5 557V555H475.5V557H474.5Z" fill="#262626"/>
<path d="M642.354 403.646C642.549 403.842 642.549 404.158 642.354 404.354L639.172 407.536C638.976 407.731 638.66 407.731 638.464 407.536C638.269 407.34 638.269 407.024 638.464 406.828L641.293 404L638.464 401.172C638.269 400.976 638.269 400.66 638.464 400.464C638.66 400.269 638.976 400.269 639.172 400.464L642.354 403.646ZM642 404.5H639.733V403.5H642V404.5ZM632.933 404.5H628.4V403.5H632.933V404.5ZM621.6 404.5H617.067V403.5H621.6V404.5ZM610.267 404.5H608V403.5H610.267V404.5ZM608 404.5C607.406 404.5 606.835 404.594 606.3 404.768L605.991 403.817C606.624 403.611 607.3 403.5 608 403.5V404.5ZM602.768 408.3C602.594 408.834 602.5 409.406 602.5 410H601.5C601.5 409.3 601.611 408.624 601.817 407.991L602.768 408.3ZM602.5 410V411.933H601.5V410H602.5ZM602.5 417.733V421.6H601.5V417.733H602.5ZM602.5 427.4V431.267H601.5V427.4H602.5ZM602.5 437.067V440.933H601.5V437.067H602.5ZM602.5 446.733V450.6H601.5V446.733H602.5ZM602.5 456.4V460.267H601.5V456.4H602.5ZM602.5 466.067V469.933H601.5V466.067H602.5ZM602.5 475.733V479.6H601.5V475.733H602.5ZM602.5 485.4V489.267H601.5V485.4H602.5ZM602.5 495.067V498.933H601.5V495.067H602.5ZM602.5 504.733V508.6H601.5V504.733H602.5ZM602.5 514.4V518.267H601.5V514.4H602.5ZM602.5 524.067V527.933H601.5V524.067H602.5ZM602.5 533.733V537.6H601.5V533.733H602.5ZM602.5 543.4V547.267H601.5V543.4H602.5ZM602.5 553.067V555H601.5V553.067H602.5Z" fill="#262626"/>
<path d="M746.354 442.646C746.549 442.842 746.549 443.158 746.354 443.354L743.172 446.536C742.976 446.731 742.66 446.731 742.464 446.536C742.269 446.34 742.269 446.024 742.464 445.828L745.293 443L742.464 440.172C742.269 439.976 742.269 439.66 742.464 439.464C742.66 439.269 742.976 439.269 743.172 439.464L746.354 442.646ZM746 443.5H743.967V442.5H746L746 443.5ZM737.867 443.5H733.8V442.5H737.867V443.5ZM727.7 443.5H723.633V442.5H727.7V443.5ZM717.533 443.5H713.467V442.5H717.533V443.5ZM707.367 443.5H703.3V442.5H707.367V443.5ZM697.2 443.5H693.133V442.5H697.2V443.5ZM687.033 443.5H682.967V442.5H687.033V443.5ZM676.867 443.5H672.8V442.5H676.867V443.5ZM666.7 443.5H662.633V442.5H666.7V443.5ZM656.533 443.5H652.467V442.5H656.533V443.5ZM646.367 443.5H642.3V442.5H646.367V443.5ZM636.2 443.5H632.133V442.5H636.2V443.5ZM626.033 443.5H624V442.5H626.033V443.5ZM624 443.5C623.406 443.5 622.834 443.594 622.3 443.768L621.991 442.817C622.624 442.611 623.3 442.5 624 442.5V443.5ZM618.768 447.3C618.594 447.834 618.5 448.406 618.5 449H617.5C617.5 448.3 617.611 447.624 617.817 446.991L618.768 447.3ZM618.5 449V450.927H617.5V449H618.5ZM618.5 456.709V460.564H617.5V456.709H618.5ZM618.5 466.345V470.2H617.5V466.345H618.5ZM618.5 475.982V479.836H617.5V475.982H618.5ZM618.5 485.618V489.473H617.5V485.618H618.5ZM618.5 495.255V499.109H617.5V495.255H618.5ZM618.5 504.891V508.745H617.5V504.891H618.5ZM618.5 514.527V518.382H617.5V514.527H618.5ZM618.5 524.164V528.018H617.5V524.164H618.5ZM618.5 533.8V537.655H617.5V533.8H618.5ZM618.5 543.436V547.291H617.5V543.436H618.5ZM618.5 553.073V555H617.5V553.073H618.5Z" fill="#262626"/>
<path d="M690.354 498.646C690.549 498.842 690.549 499.158 690.354 499.354L687.172 502.536C686.976 502.731 686.66 502.731 686.464 502.536C686.269 502.34 686.269 502.024 686.464 501.828L689.293 499L686.464 496.172C686.269 495.976 686.269 495.66 686.464 495.464C686.66 495.269 686.976 495.269 687.172 495.464L690.354 498.646ZM640 499V498.5V499ZM690 499.5H688V498.5H690L690 499.5ZM682 499.5H678V498.5H682V499.5ZM672 499.5H668V498.5H672V499.5ZM662 499.5H658V498.5H662V499.5ZM652 499.5H648V498.5H652V499.5ZM642 499.5H640V498.5H642V499.5ZM640 499.5C639.406 499.5 638.834 499.594 638.3 499.768L637.991 498.817C638.624 498.611 639.3 498.5 640 498.5V499.5ZM634.768 503.3C634.594 503.834 634.5 504.406 634.5 505H633.5C633.5 504.3 633.611 503.624 633.817 502.991L634.768 503.3ZM634.5 505V507H633.5V505H634.5ZM634.5 513V517H633.5V513H634.5ZM634.5 523V527H633.5V523H634.5ZM634.5 533V537H633.5V533H634.5ZM634.5 543V547H633.5V543H634.5ZM634.5 553V555H633.5V553H634.5Z" fill="#262626"/>
<path d="M642.354 706.354C642.549 706.158 642.549 705.842 642.354 705.646L639.172 702.464C638.976 702.269 638.66 702.269 638.464 702.464C638.269 702.66 638.269 702.976 638.464 703.172L641.293 706L638.464 708.828C638.269 709.024 638.269 709.34 638.464 709.536C638.66 709.731 638.976 709.731 639.172 709.536L642.354 706.354ZM642 705.5H639.733V706.5H642V705.5ZM632.933 705.5H628.4V706.5H632.933V705.5ZM621.6 705.5H617.067V706.5H621.6V705.5ZM610.267 705.5H608V706.5H610.267V705.5ZM608 705.5C607.406 705.5 606.835 705.406 606.3 705.232L605.991 706.183C606.624 706.389 607.3 706.5 608 706.5V705.5ZM602.768 701.7C602.594 701.166 602.5 700.594 602.5 700H601.5C601.5 700.7 601.611 701.376 601.817 702.009L602.768 701.7ZM602.5 700V698.067H601.5V700H602.5ZM602.5 692.267V688.4H601.5V692.267H602.5ZM602.5 682.6V678.733H601.5V682.6H602.5ZM602.5 672.933V669.067H601.5V672.933H602.5ZM602.5 663.267V659.4H601.5V663.267H602.5ZM602.5 653.6V649.733H601.5V653.6H602.5ZM602.5 643.933V640.067H601.5V643.933H602.5ZM602.5 634.267V630.4H601.5V634.267H602.5ZM602.5 624.6V620.733H601.5V624.6H602.5ZM602.5 614.933V611.067H601.5V614.933H602.5ZM602.5 605.267V601.4H601.5V605.267H602.5ZM602.5 595.6V591.733H601.5V595.6H602.5ZM602.5 585.933V582.067H601.5V585.933H602.5ZM602.5 576.267V572.4H601.5V576.267H602.5ZM602.5 566.6V562.733H601.5V566.6H602.5ZM602.5 556.933V555H601.5V556.933H602.5Z" fill="#262626"/>
<path d="M746.354 667.354C746.549 667.158 746.549 666.842 746.354 666.646L743.172 663.464C742.976 663.269 742.66 663.269 742.464 663.464C742.269 663.66 742.269 663.976 742.464 664.172L745.293 667L742.464 669.828C742.269 670.024 742.269 670.34 742.464 670.536C742.66 670.731 742.976 670.731 743.172 670.536L746.354 667.354ZM746 666.5H743.967V667.5H746L746 666.5ZM737.867 666.5H733.8V667.5H737.867V666.5ZM727.7 666.5H723.633V667.5H727.7V666.5ZM717.533 666.5H713.467V667.5H717.533V666.5ZM707.367 666.5H703.3V667.5H707.367V666.5ZM697.2 666.5H693.133V667.5H697.2V666.5ZM687.033 666.5H682.967V667.5H687.033V666.5ZM676.867 666.5H672.8V667.5H676.867V666.5ZM666.7 666.5H662.633V667.5H666.7V666.5ZM656.533 666.5H652.467V667.5H656.533V666.5ZM646.367 666.5H642.3V667.5H646.367V666.5ZM636.2 666.5H632.133V667.5H636.2V666.5ZM626.033 666.5H624V667.5H626.033V666.5ZM624 666.5C623.406 666.5 622.834 666.406 622.3 666.232L621.991 667.183C622.624 667.389 623.3 667.5 624 667.5V666.5ZM618.768 662.7C618.594 662.166 618.5 661.594 618.5 661H617.5C617.5 661.7 617.611 662.376 617.817 663.009L618.768 662.7ZM618.5 661V659.073H617.5V661H618.5ZM618.5 653.291V649.436H617.5V653.291H618.5ZM618.5 643.655V639.8H617.5V643.655H618.5ZM618.5 634.018V630.164H617.5V634.018H618.5ZM618.5 624.382V620.527H617.5V624.382H618.5ZM618.5 614.745V610.891H617.5V614.745H618.5ZM618.5 605.109V601.255H617.5V605.109H618.5ZM618.5 595.473V591.618H617.5V595.473H618.5ZM618.5 585.836V581.982H617.5V585.836H618.5ZM618.5 576.2V572.345H617.5V576.2H618.5ZM618.5 566.564V562.709H617.5V566.564H618.5ZM618.5 556.927V555H617.5V556.927H618.5Z" fill="#262626"/>
<path d="M690.354 611.354C690.549 611.158 690.549 610.842 690.354 610.646L687.172 607.464C686.976 607.269 686.66 607.269 686.464 607.464C686.269 607.66 686.269 607.976 686.464 608.172L689.293 611L686.464 613.828C686.269 614.024 686.269 614.34 686.464 614.536C686.66 614.731 686.976 614.731 687.172 614.536L690.354 611.354ZM640 611V611.5V611ZM690 610.5H688V611.5H690L690 610.5ZM682 610.5H678V611.5H682V610.5ZM672 610.5H668V611.5H672V610.5ZM662 610.5H658V611.5H662V610.5ZM652 610.5H648V611.5H652V610.5ZM642 610.5H640V611.5H642V610.5ZM640 610.5C639.406 610.5 638.834 610.406 638.3 610.232L637.991 611.183C638.624 611.389 639.3 611.5 640 611.5V610.5ZM634.768 606.7C634.594 606.166 634.5 605.594 634.5 605H633.5C633.5 605.7 633.611 606.376 633.817 607.009L634.768 606.7ZM634.5 605V603H633.5V605H634.5ZM634.5 597V593H633.5V597H634.5ZM634.5 587V583H633.5V587H634.5ZM634.5 577V573H633.5V577H634.5ZM634.5 567V563H633.5V567H634.5ZM634.5 557V555H633.5V557H634.5Z" fill="#262626"/>
<path d="M369.646 554.646C369.451 554.842 369.451 555.158 369.646 555.354L372.828 558.536C373.024 558.731 373.34 558.731 373.536 558.536C373.731 558.34 373.731 558.024 373.536 557.828L370.707 555L373.536 552.172C373.731 551.976 373.731 551.66 373.536 551.464C373.34 551.269 373.024 551.269 372.828 551.464L369.646 554.646ZM740.354 555.354C740.549 555.158 740.549 554.842 740.354 554.646L737.172 551.464C736.976 551.269 736.66 551.269 736.464 551.464C736.269 551.66 736.269 551.976 736.464 552.172L739.293 555L736.464 557.828C736.269 558.024 736.269 558.34 736.464 558.536C736.66 558.731 736.976 558.731 737.172 558.536L740.354 555.354ZM370 555.5L372 555.5L372 554.5L370 554.5L370 555.5ZM378 555.5L382 555.5L382 554.5L378 554.5L378 555.5ZM388 555.5L392 555.5L392 554.5L388 554.5L388 555.5ZM398 555.5L402 555.5L402 554.5L398 554.5L398 555.5ZM408 555.5L412 555.5L412 554.5L408 554.5L408 555.5ZM418 555.5L422 555.5L422 554.5L418 554.5L418 555.5ZM428 555.5L432 555.5L432 554.5L428 554.5L428 555.5ZM438 555.5L442 555.5L442 554.5L438 554.5L438 555.5ZM448 555.5L452 555.5L452 554.5L448 554.5L448 555.5ZM458 555.5L462 555.5L462 554.5L458 554.5L458 555.5ZM468 555.5L472 555.5L472 554.5L468 554.5L468 555.5ZM478 555.5L482 555.5L482 554.5L478 554.5L478 555.5ZM488 555.5L492 555.5L492 554.5L488 554.5L488 555.5ZM498 555.5L502 555.5L502 554.5L498 554.5L498 555.5ZM508 555.5L512 555.5L512 554.5L508 554.5L508 555.5ZM518 555.5L522 555.5L522 554.5L518 554.5L518 555.5ZM528 555.5L532 555.5L532 554.5L528 554.5L528 555.5ZM538 555.5L542 555.5L542 554.5L538 554.5L538 555.5ZM548 555.5L552 555.5L552 554.5L548 554.5L548 555.5ZM558 555.5L562 555.5L562 554.5L558 554.5L558 555.5ZM568 555.5L572 555.5L572 554.5L568 554.5L568 555.5ZM578 555.5L582 555.5L582 554.5L578 554.5L578 555.5ZM588 555.5L592 555.5L592 554.5L588 554.5L588 555.5ZM598 555.5L602 555.5L602 554.5L598 554.5L598 555.5ZM608 555.5L612 555.5L612 554.5L608 554.5L608 555.5ZM618 555.5L622 555.5L622 554.5L618 554.5L618 555.5ZM628 555.5L632 555.5L632 554.5L628 554.5L628 555.5ZM638 555.5L642 555.5L642 554.5L638 554.5L638 555.5ZM648 555.5L652 555.5L652 554.5L648 554.5L648 555.5ZM658 555.5L662 555.5L662 554.5L658 554.5L658 555.5ZM668 555.5L672 555.5L672 554.5L668 554.5L668 555.5ZM678 555.5L682 555.5L682 554.5L678 554.5L678 555.5ZM688 555.5L692 555.5L692 554.5L688 554.5L688 555.5ZM698 555.5L702 555.5L702 554.5L698 554.5L698 555.5ZM708 555.5L712 555.5L712 554.5L708 554.5L708 555.5ZM718 555.5L722 555.5L722 554.5L718 554.5L718 555.5ZM728 555.5L732 555.5L732 554.5L728 554.5L728 555.5ZM738 555.5L740 555.5L740 554.5L738 554.5L738 555.5Z" fill="#262626"/>
<path d="M652 404H608C604.686 404 602 406.686 602 410V555" stroke="url(#paint0_linear_764_21917)" stroke-dasharray="4 6"/>
<rect x="651.5" y="380.5" width="47" height="47" rx="5.5" fill="#080808"/>
<g clip-path="url(#clip0_764_21917)">
<path d="M675 405.815C676.181 405.815 677.139 404.858 677.139 403.676C677.139 402.495 676.181 401.537 675 401.537C673.819 401.537 672.861 402.495 672.861 403.676C672.861 404.858 673.819 405.815 675 405.815Z" fill="#61DAFB"/>
<path d="M675 408.06C681.34 408.06 686.478 406.098 686.478 403.678C686.478 401.257 681.34 399.295 675 399.295C668.661 399.295 663.522 401.257 663.522 403.678C663.522 406.098 668.661 408.06 675 408.06Z" stroke="#61DAFB"/>
<path d="M671.205 405.868C674.375 411.358 678.643 414.827 680.739 413.617C682.836 412.407 681.965 406.975 678.796 401.485C675.626 395.995 671.357 392.526 669.261 393.736C667.165 394.946 668.035 400.378 671.205 405.868Z" stroke="#61DAFB"/>
<path d="M671.205 401.486C668.035 406.976 667.165 412.407 669.261 413.617C671.357 414.828 675.626 411.358 678.796 405.868C681.965 400.378 682.835 394.947 680.739 393.736C678.643 392.526 674.374 395.996 671.205 401.486Z" stroke="#61DAFB"/>
</g>
<rect x="651.5" y="380.5" width="47" height="47" rx="5.5" stroke="#262626"/>
<rect x="755.5" y="419.5" width="47" height="47" rx="5.5" fill="#080808"/>
<g clip-path="url(#clip1_764_21917)">
<mask id="mask0_764_21917" style="mask-type:alpha" maskUnits="userSpaceOnUse" x="767" y="431" width="24" height="24">
<path d="M779 455C785.627 455 791 449.627 791 443C791 436.373 785.627 431 779 431C772.373 431 767 436.373 767 443C767 449.627 772.373 455 779 455Z" fill="black"/>
</mask>
<g mask="url(#mask0_764_21917)">
<path d="M779 455C785.627 455 791 449.627 791 443C791 436.373 785.627 431 779 431C772.373 431 767 436.373 767 443C767 449.627 772.373 455 779 455Z" fill="white"/>
<path d="M786.935 452.002L776.219 438.199H774.2V447.795H775.815V440.25L785.667 452.979C786.111 452.681 786.535 452.355 786.935 452.002Z" fill="url(#paint1_linear_764_21917)"/>
<path d="M783.933 438.199H782.333V447.799H783.933V438.199Z" fill="url(#paint2_linear_764_21917)"/>
</g>
</g>
<rect x="755.5" y="419.5" width="47" height="47" rx="5.5" stroke="#262626"/>
<rect x="699.5" y="475.5" width="47" height="47" rx="5.5" fill="#080808"/>
<g clip-path="url(#clip2_764_21917)">
<path d="M733.459 488.816C730.792 484.975 725.483 483.85 721.666 486.272L714.939 490.577C713.104 491.727 711.832 493.611 711.465 495.739C711.147 497.525 711.416 499.36 712.272 500.95C711.685 501.831 711.293 502.81 711.122 503.837C710.731 506.015 711.244 508.265 712.517 510.051C715.208 513.892 720.492 515.018 724.309 512.596L731.037 508.314C732.871 507.165 734.144 505.281 734.511 503.152C734.829 501.366 734.559 499.532 733.703 497.941C734.29 497.061 734.682 496.082 734.853 495.054C735.269 492.853 734.755 490.602 733.459 488.816Z" fill="#FF3E00"/>
<path d="M721.006 510.42C718.829 510.982 716.553 510.126 715.281 508.291C714.498 507.215 714.205 505.869 714.425 504.548C714.474 504.328 714.523 504.132 714.572 503.912L714.694 503.521L715.037 503.765C715.844 504.352 716.725 504.793 717.679 505.086L717.923 505.16L717.899 505.404C717.875 505.747 717.972 506.114 718.168 506.407C718.56 506.97 719.245 507.239 719.905 507.068C720.052 507.019 720.199 506.97 720.321 506.897L727.024 502.615C727.367 502.395 727.587 502.077 727.66 501.686C727.734 501.294 727.636 500.878 727.416 500.56C727.024 499.998 726.339 499.753 725.679 499.924C725.532 499.973 725.385 500.022 725.263 500.096L722.694 501.735C722.278 502.004 721.813 502.199 721.324 502.322C719.147 502.885 716.872 502.028 715.599 500.193C714.841 499.117 714.523 497.771 714.768 496.45C714.988 495.178 715.771 494.028 716.872 493.343L723.599 489.062C724.015 488.793 724.48 488.597 724.969 488.45C727.147 487.888 729.422 488.744 730.694 490.579C731.477 491.655 731.771 493.001 731.55 494.322C731.501 494.542 731.453 494.738 731.379 494.958L731.257 495.349L730.914 495.105C730.107 494.518 729.226 494.077 728.272 493.784L728.027 493.71L728.052 493.466C728.076 493.123 727.979 492.756 727.783 492.462C727.391 491.9 726.706 491.655 726.046 491.826C725.899 491.875 725.752 491.924 725.63 491.998L718.927 496.279C718.584 496.499 718.364 496.817 718.29 497.209C718.217 497.6 718.315 498.016 718.535 498.334C718.927 498.897 719.612 499.141 720.272 498.97C720.419 498.921 720.566 498.872 720.688 498.799L723.257 497.16C723.673 496.891 724.138 496.695 724.627 496.548C726.804 495.985 729.079 496.842 730.352 498.677C731.135 499.753 731.428 501.099 731.208 502.42C730.988 503.692 730.205 504.842 729.104 505.527L722.376 509.808C721.96 510.077 721.495 510.273 721.006 510.42Z" fill="white"/>
</g>
<rect x="699.5" y="475.5" width="47" height="47" rx="5.5" stroke="#262626"/>
<rect x="755.5" y="531.5" width="47" height="47" rx="5.5" fill="#080808"/>
<path d="M771.14 558.874V553.196H772.246V558.874H771.14ZM771.699 552.32C771.506 552.32 771.341 552.256 771.203 552.128C771.068 551.997 771 551.842 771 551.662C771 551.479 771.068 551.324 771.203 551.196C771.341 551.065 771.506 551 771.699 551C771.891 551 772.055 551.065 772.19 551.196C772.328 551.324 772.397 551.479 772.397 551.662C772.397 551.842 772.328 551.997 772.19 552.128C772.055 552.256 771.891 552.32 771.699 552.32Z" fill="white"/>
<path d="M780.398 555.089C780.398 555.897 780.25 556.592 779.955 557.174C779.659 557.753 779.254 558.199 778.738 558.512C778.226 558.823 777.643 558.978 776.99 558.978C776.334 558.978 775.749 558.823 775.234 558.512C774.721 558.199 774.317 557.752 774.021 557.17C773.726 556.588 773.578 555.895 773.578 555.089C773.578 554.28 773.726 553.587 774.021 553.007C774.317 552.426 774.721 551.98 775.234 551.669C775.749 551.356 776.334 551.2 776.99 551.2C777.643 551.2 778.226 551.356 778.738 551.669C779.254 551.98 779.659 552.426 779.955 553.007C780.25 553.587 780.398 554.28 780.398 555.089ZM779.267 555.089C779.267 554.473 779.167 553.954 778.968 553.532C778.77 553.108 778.499 552.788 778.154 552.571C777.812 552.352 777.424 552.242 776.99 552.242C776.554 552.242 776.164 552.352 775.822 552.571C775.479 552.788 775.208 553.108 775.008 553.532C774.811 553.954 774.713 554.473 774.713 555.089C774.713 555.705 774.811 556.225 775.008 556.649C775.208 557.07 775.479 557.391 775.822 557.61C776.164 557.827 776.554 557.935 776.99 557.935C777.424 557.935 777.812 557.827 778.154 557.61C778.499 557.391 778.77 557.07 778.968 556.649C779.167 556.225 779.267 555.705 779.267 555.089Z" fill="white"/>
<path d="M785.952 553.292C785.913 552.942 785.75 552.671 785.464 552.479C785.178 552.284 784.818 552.187 784.384 552.187C784.074 552.187 783.805 552.236 783.579 552.335C783.352 552.431 783.176 552.564 783.05 552.734C782.927 552.901 782.865 553.092 782.865 553.307C782.865 553.487 782.907 553.642 782.991 553.773C783.077 553.903 783.189 554.013 783.327 554.102C783.468 554.188 783.618 554.261 783.778 554.32C783.938 554.376 784.092 554.423 784.24 554.46L784.98 554.652C785.221 554.712 785.469 554.792 785.723 554.893C785.977 554.994 786.212 555.127 786.429 555.292C786.646 555.457 786.821 555.662 786.954 555.906C787.089 556.15 787.157 556.442 787.157 556.782C787.157 557.211 787.046 557.591 786.824 557.924C786.605 558.257 786.286 558.519 785.867 558.712C785.45 558.904 784.946 559 784.355 559C783.788 559 783.298 558.91 782.884 558.73C782.47 558.55 782.145 558.295 781.911 557.965C781.677 557.632 781.548 557.238 781.523 556.782H782.669C782.691 557.055 782.78 557.283 782.935 557.466C783.093 557.646 783.294 557.78 783.538 557.869C783.784 557.955 784.054 557.998 784.348 557.998C784.67 557.998 784.957 557.948 785.209 557.847C785.463 557.743 785.662 557.6 785.808 557.418C785.953 557.233 786.026 557.017 786.026 556.771C786.026 556.547 785.962 556.363 785.834 556.22C785.708 556.077 785.537 555.959 785.32 555.865C785.105 555.771 784.863 555.689 784.591 555.617L783.697 555.373C783.091 555.208 782.61 554.965 782.255 554.645C781.903 554.325 781.726 553.901 781.726 553.373C781.726 552.937 781.845 552.556 782.081 552.231C782.318 551.906 782.638 551.653 783.043 551.473C783.447 551.291 783.903 551.2 784.41 551.2C784.923 551.2 785.375 551.29 785.767 551.47C786.161 551.649 786.472 551.897 786.699 552.213C786.925 552.526 787.044 552.885 787.054 553.292H785.952Z" fill="white"/>
<rect x="755.5" y="531.5" width="47" height="47" rx="5.5" stroke="#262626"/>
<rect x="699.5" y="587.5" width="47" height="47" rx="5.5" fill="#080808"/>
<g clip-path="url(#clip3_764_21917)">
<path d="M718.349 597.08C718.217 597.081 718.081 597.113 717.956 597.182C717.561 597.401 717.416 597.909 717.635 598.305L718.528 599.917C716.377 601.248 714.951 603.521 714.951 606.115C714.951 606.126 714.951 606.142 714.951 606.159C714.951 606.164 714.951 606.167 714.951 606.174C714.951 606.182 714.951 606.195 714.951 606.197V606.597C714.538 606.122 713.931 605.822 713.252 605.822C712.009 605.822 711 606.831 711 608.074V615.013C711 616.256 712.009 617.265 713.252 617.265C713.931 617.265 714.538 616.965 714.951 616.489V617.461C714.951 618.772 716.023 619.844 717.334 619.844H717.938V622.93C717.938 624.173 718.948 625.183 720.191 625.183C721.434 625.183 722.443 624.173 722.443 622.93V619.844H723.489V622.93C723.489 624.173 724.498 625.183 725.741 625.183C726.984 625.183 727.994 624.173 727.994 622.93V619.844H728.598C729.909 619.844 730.981 618.772 730.981 617.461V616.489C731.394 616.965 732.001 617.265 732.68 617.265C733.923 617.265 734.932 616.256 734.932 615.013V608.074C734.932 606.831 733.923 605.822 732.68 605.822C732.001 605.822 731.394 606.122 730.981 606.597V606.204V606.197C730.981 606.185 730.981 606.172 730.981 606.174C730.981 606.149 730.981 606.13 730.981 606.115C730.981 603.521 729.552 601.25 727.402 599.919L728.297 598.305C728.516 597.909 728.371 597.401 727.976 597.182C727.851 597.113 727.715 597.081 727.583 597.08C727.291 597.077 727.004 597.231 726.853 597.504L725.917 599.195C725.002 598.857 724.006 598.672 722.966 598.672C721.927 598.672 720.929 598.855 720.015 599.192L719.079 597.504C718.928 597.231 718.641 597.077 718.349 597.08Z" fill="white"/>
<path d="M713.253 606.408C712.325 606.408 711.587 607.146 711.587 608.074V615.012C711.587 615.94 712.325 616.678 713.253 616.678C714.18 616.678 714.918 615.94 714.918 615.012V608.074C714.918 607.146 714.18 606.408 713.253 606.408ZM732.68 606.408C731.752 606.408 731.014 607.146 731.014 608.074V615.012C731.014 615.94 731.752 616.678 732.68 616.678C733.607 616.678 734.346 615.94 734.346 615.012V608.074C734.346 607.146 733.607 606.408 732.68 606.408Z" fill="#A4C639"/>
<path d="M720.191 614.326C719.263 614.326 718.525 615.064 718.525 615.992V622.93C718.525 623.858 719.263 624.596 720.191 624.596C721.118 624.596 721.856 623.858 721.856 622.93V615.992C721.856 615.064 721.118 614.326 720.191 614.326ZM725.741 614.326C724.814 614.326 724.076 615.064 724.076 615.992V622.93C724.076 623.858 724.814 624.596 725.741 624.596C726.669 624.596 727.407 623.858 727.407 622.93V615.992C727.407 615.064 726.669 614.326 725.741 614.326Z" fill="#A4C639"/>
<path d="M718.354 597.666C718.315 597.666 718.278 597.677 718.242 597.697C718.123 597.762 718.084 597.899 718.15 598.018L719.324 600.138C717.066 601.312 715.541 603.545 715.538 606.107H730.394C730.391 603.545 728.866 601.312 726.609 600.138L727.782 598.018C727.848 597.899 727.809 597.762 727.69 597.697C727.654 597.677 727.617 597.666 727.578 597.666C727.494 597.665 727.414 597.707 727.369 597.788L726.18 599.931C725.208 599.5 724.117 599.258 722.966 599.258C721.815 599.258 720.724 599.5 719.752 599.931L718.563 597.788C718.518 597.707 718.439 597.665 718.354 597.666ZM715.538 606.693V617.461C715.538 618.455 716.339 619.256 717.334 619.256H728.598C729.593 619.256 730.394 618.455 730.394 617.461V606.693H715.538Z" fill="#A4C639"/>
<path d="M719.538 602.148C719.199 602.148 718.918 602.429 718.918 602.768C718.918 603.107 719.199 603.388 719.538 603.388C719.877 603.388 720.158 603.107 720.158 602.768C720.158 602.429 719.877 602.148 719.538 602.148ZM726.394 602.148C726.055 602.148 725.775 602.429 725.775 602.768C725.775 603.107 726.055 603.388 726.394 603.388C726.734 603.388 727.014 603.107 727.014 602.768C727.014 602.429 726.734 602.148 726.394 602.148Z" fill="white"/>
</g>
<rect x="699.5" y="587.5" width="47" height="47" rx="5.5" stroke="#262626"/>
<rect x="755.5" y="642.5" width="47" height="47" rx="5.5" fill="#080808"/>
<g clip-path="url(#clip4_764_21917)">
<path d="M780.675 661.924L779.854 663.346L777.045 658.481L768.422 673.414H774.261C774.261 674.2 774.897 674.836 775.683 674.836H768.422C767.914 674.836 767.445 674.565 767.191 674.125C766.937 673.685 766.937 673.143 767.191 672.703L775.814 657.77C776.068 657.33 776.537 657.059 777.046 657.059C777.554 657.059 778.023 657.33 778.277 657.77L780.675 661.924Z" fill="#00C58E"/>
<path d="M786.9 672.703L781.497 663.346L780.675 661.924L779.854 663.346L774.451 672.703C774.197 673.143 774.197 673.685 774.451 674.125C774.705 674.565 775.175 674.836 775.683 674.836H785.667C786.175 674.836 786.644 674.566 786.899 674.125C787.153 673.685 787.153 673.143 786.899 672.703H786.9ZM775.683 673.414L780.675 664.768L785.667 673.414L775.683 673.414Z" fill="#2F495E"/>
<path d="M790.763 674.125C790.509 674.565 790.04 674.836 789.532 674.836H785.667C786.452 674.836 787.089 674.2 787.089 673.414H789.529L782.606 661.424L781.497 663.346L780.675 661.924L781.375 660.713C781.629 660.273 782.098 660.002 782.606 660.002C783.114 660.002 783.584 660.273 783.838 660.713L790.763 672.703C791.017 673.143 791.017 673.685 790.763 674.125Z" fill="#108775"/>
</g>
<rect x="755.5" y="642.5" width="47" height="47" rx="5.5" stroke="#262626"/>
<rect x="651.5" y="682.5" width="47" height="47" rx="5.5" fill="#080808"/>
<g clip-path="url(#clip5_764_21917)">
<path d="M676.448 694C682.62 694 685.687 696.937 685.687 701.629C685.687 705.139 683.529 707.428 680.613 707.809C683.074 708.305 684.513 709.717 684.778 712.501L684.817 713.013L684.85 713.492L684.879 713.94L684.899 714.278L684.921 714.676L684.932 714.903L684.948 715.265L684.961 715.606L684.967 715.802L684.976 716.116L684.983 716.475L684.986 716.649L684.991 717.152L684.992 717.677L684.992 717.991H678.628L678.628 717.86L678.631 717.606L678.634 717.358L678.645 716.758L678.648 716.557L678.65 716.242L678.65 716.04L678.648 715.828L678.646 715.662L678.64 715.43L678.633 715.184L678.623 714.922L678.61 714.642L678.602 714.496L678.589 714.267L678.574 714.027L678.551 713.687L678.531 713.417C678.525 713.333 678.518 713.252 678.511 713.173L678.495 713.016C678.284 711.172 677.553 710.418 676.3 710.166L676.194 710.147C676.123 710.134 676.05 710.123 675.975 710.114L675.863 710.1C675.844 710.098 675.824 710.096 675.805 710.094L675.689 710.084L675.57 710.076L675.449 710.069L675.326 710.065L675.201 710.062L675.074 710.06L665 710.06V705.063H675.313C675.481 705.063 675.645 705.059 675.803 705.053L675.959 705.045L676.112 705.035L676.262 705.023C676.286 705.021 676.311 705.019 676.335 705.016L676.48 705.001C676.575 704.989 676.667 704.977 676.758 704.962L676.892 704.94C678.565 704.636 679.402 703.748 679.402 702.014C679.402 700.069 678.039 698.89 675.313 698.89H665V694H676.448ZM671.729 714.265C672.564 714.265 672.914 714.729 673.038 715.173L673.055 715.237L673.068 715.3L673.077 715.35L673.081 715.375L673.087 715.423L673.092 715.471L673.093 715.494L673.096 715.54L673.097 715.563L673.097 715.607V717.991H665V714.265H671.729Z" fill="white"/>
</g>
<rect x="651.5" y="682.5" width="47" height="47" rx="5.5" stroke="#262626"/>
<rect x="411.5" y="380.5" width="47" height="47" rx="5.5" fill="#080808"/>
<path d="M441.5 410.607C441.672 409.173 441.62 408.963 442.689 409.195L442.96 409.219C443.782 409.256 444.856 409.087 445.488 408.793C446.847 408.163 447.653 407.11 446.313 407.386C443.256 408.017 443.045 406.982 443.045 406.982C446.273 402.192 447.623 396.112 446.458 394.624C443.281 390.564 437.782 392.484 437.69 392.534L437.66 392.539C437.056 392.414 436.38 392.339 435.621 392.327C434.238 392.304 433.188 392.689 432.392 393.293C432.392 393.293 422.581 389.252 423.037 398.376C423.134 400.317 425.82 413.064 429.023 409.214C430.193 407.806 431.324 406.616 431.324 406.616C431.886 406.989 432.559 407.179 433.264 407.111L433.319 407.065C433.301 407.239 433.309 407.41 433.34 407.613C432.515 408.535 432.758 408.697 431.108 409.036C429.439 409.38 430.42 409.992 431.06 410.152C431.836 410.346 433.631 410.621 434.845 408.923L434.796 409.117C435.12 409.376 435.098 410.978 435.144 412.123C435.19 413.267 435.266 414.336 435.5 414.965C435.733 415.595 436.008 417.217 438.176 416.753C439.988 416.365 441.373 415.806 441.5 410.607Z" fill="black" stroke="black" stroke-width="6"/>
<path d="M446.313 407.386C443.255 408.017 443.045 406.982 443.045 406.982C446.273 402.192 447.623 396.112 446.458 394.624C443.281 390.564 437.782 392.484 437.69 392.534L437.66 392.539C437.056 392.414 436.38 392.339 435.62 392.327C434.237 392.304 433.188 392.689 432.391 393.293C432.391 393.293 422.581 389.252 423.037 398.376C423.134 400.318 425.819 413.064 429.022 409.214C430.193 407.806 431.324 406.616 431.324 406.616C431.886 406.989 432.558 407.18 433.263 407.111L433.318 407.065C433.301 407.24 433.309 407.41 433.34 407.613C432.515 408.535 432.757 408.697 431.108 409.036C429.439 409.38 430.419 409.992 431.059 410.152C431.836 410.347 433.631 410.621 434.844 408.923L434.796 409.117C435.119 409.376 435.346 410.801 435.308 412.093C435.27 413.386 435.244 414.273 435.499 414.966C435.754 415.658 436.008 417.217 438.176 416.753C439.988 416.365 440.927 415.358 441.057 413.68C441.15 412.487 441.36 412.663 441.373 411.597L441.541 411.091C441.735 409.474 441.572 408.952 442.688 409.195L442.96 409.219C443.781 409.256 444.857 409.087 445.488 408.793C446.847 408.163 447.653 407.11 446.313 407.386H446.313Z" fill="#336791"/>
<path d="M434.976 408.314C434.892 411.324 434.997 414.355 435.291 415.091C435.586 415.828 436.217 417.26 438.385 416.796C440.197 416.407 440.856 415.656 441.142 413.997C441.353 412.776 441.759 409.386 441.811 408.692" stroke="white" stroke-linecap="round" stroke-linejoin="round"/>
<path d="M432.376 393.226C432.376 393.226 422.559 389.214 423.015 398.338C423.113 400.28 425.798 413.027 429.001 409.177C430.171 407.769 431.23 406.664 431.23 406.664" stroke="white" stroke-linecap="round" stroke-linejoin="round"/>
<path d="M437.679 392.494C437.34 392.601 443.14 390.374 446.437 394.586C447.602 396.074 446.252 402.154 443.024 406.945" stroke="white" stroke-linecap="round" stroke-linejoin="round"/>
<path d="M443.024 406.946C443.024 406.946 443.234 407.981 446.292 407.35C447.631 407.073 446.825 408.126 445.466 408.757C444.351 409.275 441.851 409.407 441.811 408.692C441.705 406.847 443.126 407.408 443.024 406.946ZM443.024 406.946C442.931 406.529 442.296 406.121 441.875 405.102C441.508 404.212 436.843 397.392 443.169 398.405C443.401 398.357 441.519 392.387 435.599 392.29C429.68 392.193 429.874 399.569 429.874 399.569" stroke="white" stroke-linecap="round" stroke-linejoin="bevel"/>
<path d="M433.318 407.575C432.493 408.497 432.736 408.659 431.086 408.998C429.417 409.342 430.398 409.954 431.038 410.114C431.814 410.309 433.609 410.584 434.822 408.885C435.192 408.368 434.82 407.543 434.313 407.332C434.068 407.231 433.74 407.103 433.318 407.575Z" stroke="white" stroke-linecap="round" stroke-linejoin="round"/>
<path d="M433.265 407.56C433.181 407.018 433.443 406.373 433.723 405.618C434.143 404.486 435.114 403.354 434.338 399.763C433.759 397.087 429.877 399.206 429.874 399.569C429.872 399.931 430.05 401.408 429.809 403.127C429.495 405.371 431.237 407.268 433.242 407.074" stroke="white" stroke-linecap="round" stroke-linejoin="round"/>
<path d="M432.341 399.513C432.323 399.637 432.568 399.968 432.886 400.012C433.204 400.057 433.477 399.798 433.494 399.674C433.511 399.55 433.267 399.414 432.948 399.369C432.63 399.325 432.358 399.39 432.341 399.513H432.341Z" fill="white" stroke="white"/>
<path d="M442.03 399.261C442.048 399.385 441.804 399.716 441.485 399.76C441.167 399.805 440.894 399.546 440.877 399.422C440.86 399.298 441.104 399.162 441.423 399.118C441.741 399.073 442.013 399.138 442.03 399.261V399.261Z" fill="white" stroke="white"/>
<path d="M443.17 398.404C443.222 399.376 442.96 400.039 442.927 401.073C442.878 402.578 443.644 404.299 442.49 406.023" stroke="white" stroke-linecap="round" stroke-linejoin="round"/>
<rect x="411.5" y="380.5" width="47" height="47" rx="5.5" stroke="#262626"/>
<rect x="307.5" y="419.5" width="47" height="47" rx="5.5" fill="#080808"/>
<path d="M321.585 448.662L322.448 449.16L332.057 432.517L331.194 432.019L321.585 448.662Z" fill="#E535AB"/>
<path d="M340.606 447.332H321.388V448.328H340.606V447.332Z" fill="#E535AB"/>
<path d="M321.769 447.891L331.381 453.441L331.879 452.579L322.267 447.029L321.769 447.891Z" fill="#E535AB"/>
<path d="M330.119 433.427L339.731 438.977L340.229 438.114L330.617 432.564L330.119 433.427Z" fill="#E535AB"/>
<path d="M321.771 438.11L322.269 438.973L331.882 433.423L331.384 432.56L321.771 438.11Z" fill="#E535AB"/>
<path d="M329.945 432.517L339.554 449.16L340.417 448.662L330.808 432.019L329.945 432.517Z" fill="#E535AB"/>
<path d="M323.146 437.449H322.15V448.549H323.146V437.449Z" fill="#E535AB"/>
<path d="M339.85 437.449H338.854V448.549H339.85V437.449Z" fill="#E535AB"/>
<path d="M330.776 452.266L331.211 453.02L339.572 448.193L339.137 447.439L330.776 452.266Z" fill="#E535AB"/>
<path d="M341.17 448.874C340.594 449.876 339.31 450.218 338.308 449.642C337.306 449.066 336.964 447.782 337.54 446.78C338.116 445.778 339.4 445.436 340.402 446.012C341.41 446.594 341.752 447.872 341.17 448.874Z" fill="#E535AB"/>
<path d="M324.454 439.22C323.878 440.222 322.594 440.564 321.592 439.988C320.59 439.412 320.248 438.128 320.824 437.126C321.4 436.124 322.684 435.782 323.686 436.358C324.688 436.94 325.03 438.218 324.454 439.22Z" fill="#E535AB"/>
<path d="M320.83 448.874C320.254 447.872 320.596 446.594 321.598 446.012C322.6 445.436 323.878 445.778 324.46 446.78C325.036 447.782 324.694 449.06 323.692 449.642C322.684 450.218 321.406 449.876 320.83 448.874Z" fill="#E535AB"/>
<path d="M337.546 439.22C336.97 438.218 337.312 436.94 338.314 436.358C339.316 435.782 340.594 436.124 341.176 437.126C341.752 438.128 341.41 439.406 340.408 439.988C339.406 440.564 338.122 440.222 337.546 439.22Z" fill="#E535AB"/>
<path d="M331 454.749C329.842 454.749 328.906 453.813 328.906 452.655C328.906 451.497 329.842 450.561 331 450.561C332.158 450.561 333.094 451.497 333.094 452.655C333.094 453.807 332.158 454.749 331 454.749Z" fill="#E535AB"/>
<path d="M331 435.44C329.842 435.44 328.906 434.504 328.906 433.346C328.906 432.188 329.842 431.252 331 431.252C332.158 431.252 333.094 432.188 333.094 433.346C333.094 434.504 332.158 435.44 331 435.44Z" fill="#E535AB"/>
<rect x="307.5" y="419.5" width="47" height="47" rx="5.5" stroke="#262626"/>
<rect x="307.5" y="531.5" width="47" height="47" rx="5.5" fill="#080808"/>
<g clip-path="url(#clip6_764_21917)">
<path d="M324.43 564.824L319.209 555.781C318.93 555.298 318.93 554.703 319.209 554.22L324.43 545.177C324.709 544.695 325.223 544.397 325.78 544.396H336.226C336.781 544.399 337.293 544.696 337.571 545.177L342.791 554.22C343.07 554.703 343.07 555.298 342.791 555.781L337.57 564.824C337.291 565.306 336.777 565.604 336.22 565.605H325.776C325.22 565.603 324.707 565.305 324.429 564.824H324.43Z" fill="#4386FA"/>
<path opacity="0.1" d="M334.261 552.088C334.261 552.088 335.712 555.569 333.734 557.542C331.755 559.516 328.153 558.253 328.153 558.253L335.481 565.601H336.225C336.782 565.6 337.297 565.303 337.575 564.82L341.031 558.836L334.261 552.088Z" fill="black"/>
<path d="M335.975 559.212L334.375 557.608C334.358 557.59 334.338 557.575 334.316 557.563C334.997 556.686 335.317 555.583 335.213 554.478C335.108 553.373 334.587 552.35 333.754 551.616C332.921 550.882 331.84 550.494 330.73 550.53C329.621 550.565 328.567 551.023 327.783 551.809C327 552.594 326.545 553.649 326.512 554.759C326.479 555.868 326.87 556.948 327.606 557.779C328.341 558.61 329.366 559.13 330.471 559.231C331.577 559.333 332.679 559.01 333.554 558.327C333.565 558.348 333.58 558.367 333.596 558.383L335.2 559.987C335.247 560.034 335.311 560.061 335.378 560.061C335.444 560.061 335.508 560.034 335.555 559.987L335.975 559.567C336.022 559.52 336.049 559.456 336.049 559.39C336.049 559.323 336.022 559.259 335.975 559.212ZM330.865 558.175C330.216 558.175 329.582 557.982 329.042 557.622C328.502 557.261 328.082 556.749 327.833 556.149C327.585 555.55 327.52 554.89 327.647 554.253C327.773 553.617 328.086 553.032 328.545 552.573C329.004 552.114 329.588 551.802 330.225 551.675C330.861 551.549 331.521 551.614 332.121 551.862C332.72 552.11 333.233 552.531 333.593 553.071C333.954 553.61 334.146 554.245 334.146 554.894C334.146 555.764 333.8 556.598 333.185 557.214C332.57 557.829 331.735 558.175 330.865 558.175ZM328.768 554.719V556.075C328.977 556.443 329.279 556.751 329.645 556.965V554.71L328.768 554.719ZM330.408 553.594V557.259C330.698 557.312 330.995 557.312 331.285 557.259V553.594H330.408ZM332.945 556.072V555.268H332.069V556.956C332.434 556.742 332.736 556.436 332.946 556.068L332.945 556.072Z" fill="white"/>
</g>
<rect x="307.5" y="531.5" width="47" height="47" rx="5.5" stroke="#262626"/>
<rect x="363.5" y="587.5" width="47" height="47" rx="5.5" fill="#080808"/>
<path d="M393.585 610.205L388.778 611.774L384.597 613.62L383.427 613.929C383.129 614.212 382.817 614.499 382.479 614.79C382.109 615.109 381.763 615.4 381.498 615.611C381.204 615.843 380.768 616.279 380.546 616.555C380.216 616.969 379.954 617.409 379.842 617.747C379.642 618.357 379.74 618.975 380.125 619.545C380.619 620.272 381.604 621.013 382.752 621.518C383.336 621.776 384.321 622.106 385.062 622.292C386.294 622.604 388.677 622.942 389.988 622.993C390.253 623.004 390.609 623.004 390.624 622.993C390.653 622.975 390.856 622.586 391.093 622.103C391.899 620.457 392.48 618.913 392.796 617.594C392.985 616.795 393.134 615.731 393.232 614.47C393.258 614.118 393.269 612.937 393.247 612.537C393.214 611.884 393.156 611.353 393.065 610.834C393.051 610.757 393.047 610.688 393.054 610.685C393.069 610.674 393.112 610.659 393.704 610.489L393.585 610.205V610.205H393.585V610.205ZM392.488 610.848C392.531 610.848 392.647 611.963 392.676 612.668C392.684 612.817 392.68 612.915 392.673 612.915C392.644 612.915 392.059 612.57 391.641 612.309C391.278 612.08 390.588 611.622 390.479 611.535C390.442 611.509 390.446 611.506 390.744 611.404C391.249 611.233 392.448 610.848 392.488 610.848ZM390.039 611.655C390.072 611.655 390.155 611.702 390.355 611.825C391.103 612.294 392.121 612.861 392.557 613.05C392.691 613.108 392.705 613.086 392.397 613.297C391.736 613.747 390.911 614.19 389.901 614.637C389.723 614.717 389.574 614.779 389.57 614.779C389.563 614.779 389.585 614.688 389.614 614.579C389.857 613.674 389.995 612.759 390.003 612.025C390.006 611.662 390.006 611.662 390.039 611.651C390.032 611.655 390.035 611.655 390.039 611.655ZM389.534 611.847C389.556 611.869 389.541 612.683 389.512 612.904C389.447 613.435 389.345 613.929 389.178 614.485C389.138 614.619 389.102 614.732 389.095 614.739C389.08 614.757 388.582 614.27 388.419 614.081C388.135 613.754 387.914 613.427 387.75 613.108C387.667 612.944 387.536 612.625 387.547 612.614C387.605 612.574 389.52 611.833 389.534 611.847ZM387.158 612.781C387.162 612.781 387.165 612.781 387.169 612.784C387.176 612.792 387.202 612.85 387.224 612.915C387.34 613.231 387.601 613.696 387.827 613.994C388.074 614.321 388.397 614.67 388.666 614.899C388.753 614.971 388.833 615.04 388.844 615.051C388.866 615.073 388.873 615.069 388.281 615.295C387.594 615.556 386.846 615.818 385.988 616.094C385.784 616.16 385.579 616.227 385.375 616.294C385.342 616.305 385.353 616.286 385.447 616.138C385.872 615.473 386.519 614.169 386.882 613.246C386.944 613.086 387.006 612.926 387.017 612.89C387.031 612.839 387.049 612.821 387.096 612.795C387.122 612.788 387.147 612.781 387.158 612.781ZM386.432 613.082C386.443 613.09 386.257 613.478 386.076 613.834C385.723 614.521 385.338 615.197 384.822 616.018C384.735 616.159 384.652 616.29 384.641 616.305C384.623 616.33 384.615 616.323 384.557 616.21C384.434 615.967 384.332 615.654 384.277 615.367C384.223 615.084 384.234 614.59 384.296 614.285C384.343 614.06 384.339 614.063 384.448 614.009C384.913 613.773 386.417 613.068 386.432 613.082ZM392.698 613.337V613.489C392.698 614.299 392.611 615.411 392.484 616.221C392.462 616.363 392.444 616.479 392.44 616.483C392.44 616.483 392.335 616.454 392.211 616.417C391.667 616.247 391.074 615.996 390.54 615.702C390.188 615.509 389.676 615.193 389.69 615.178C389.694 615.175 389.846 615.095 390.024 615C390.737 614.63 391.419 614.23 392.012 613.834C392.233 613.685 392.567 613.446 392.64 613.38L392.698 613.337ZM383.689 614.412C383.703 614.412 383.7 614.441 383.678 614.572C383.663 614.666 383.645 614.841 383.638 614.96C383.609 615.491 383.696 615.883 383.958 616.421C384.03 616.57 384.089 616.693 384.085 616.697C384.059 616.719 381.654 617.424 380.899 617.631C380.674 617.692 380.477 617.747 380.463 617.75C380.437 617.758 380.434 617.754 380.445 617.692C380.528 617.158 380.935 616.461 381.502 615.872C381.88 615.48 382.181 615.251 382.697 614.957C383.068 614.746 383.638 614.43 383.682 614.416C383.682 614.412 383.685 614.412 383.689 614.412ZM389.356 615.425C389.36 615.422 389.447 615.469 389.552 615.531C390.33 615.981 391.412 616.399 392.335 616.613L392.419 616.632L392.302 616.697C391.819 616.966 390.232 617.627 388.608 618.234C388.372 618.321 388.139 618.408 388.095 618.426C388.052 618.444 388.012 618.455 388.012 618.452C388.012 618.448 388.077 618.321 388.161 618.165C388.615 617.315 389.073 616.279 389.305 615.56C389.334 615.491 389.352 615.429 389.356 615.425ZM388.778 615.614C388.782 615.618 388.753 615.694 388.717 615.782C388.401 616.548 387.986 617.384 387.456 618.321C387.322 618.561 387.209 618.753 387.205 618.753C387.202 618.753 387.093 618.688 386.962 618.608C386.192 618.136 385.509 617.554 385.062 616.991L384.997 616.911L385.327 616.821C386.512 616.497 387.518 616.148 388.517 615.72C388.659 615.662 388.775 615.614 388.778 615.614ZM392.368 616.868C392.371 616.951 392.186 617.7 392.033 618.241C391.906 618.695 391.797 619.051 391.597 619.679C391.51 619.956 391.434 620.184 391.43 620.184C391.427 620.184 391.405 620.181 391.383 620.174C390.304 619.977 389.338 619.705 388.43 619.342C388.175 619.24 387.812 619.076 387.79 619.058C387.783 619.051 388.001 618.949 388.277 618.829C389.93 618.106 391.645 617.285 392.233 616.933C392.302 616.89 392.357 616.868 392.368 616.868ZM384.081 617.151C384.088 617.158 383.627 617.823 382.98 618.728C382.755 619.044 382.494 619.414 382.396 619.552C382.297 619.69 382.149 619.908 382.065 620.039L381.912 620.275L381.749 620.137C381.556 619.977 381.222 619.636 381.073 619.447C380.761 619.058 380.55 618.648 380.467 618.274C380.427 618.099 380.427 618.012 380.463 618.001C380.517 617.987 381.487 617.758 382.396 617.547C382.901 617.431 383.485 617.293 383.696 617.242C383.907 617.191 384.078 617.151 384.081 617.151ZM384.546 617.329L384.662 617.46C385.186 618.045 385.72 618.477 386.366 618.855C386.483 618.92 386.57 618.978 386.562 618.982C386.537 619 384.317 619.788 383.289 620.145C382.712 620.348 382.236 620.511 382.232 620.511C382.228 620.511 382.196 620.49 382.159 620.464L382.094 620.417L382.199 620.264C382.541 619.77 382.97 619.229 383.903 618.103L384.546 617.329ZM387.445 619.403C387.449 619.4 387.609 619.458 387.805 619.531C388.277 619.709 388.651 619.821 389.153 619.948C389.77 620.105 390.664 620.257 391.191 620.301C391.271 620.308 391.314 620.315 391.3 620.326C391.274 620.341 390.74 620.519 390.348 620.642C389.723 620.838 387.816 621.402 386.261 621.848C385.974 621.932 385.727 622.001 385.712 622.005C385.676 622.012 385.556 621.979 385.556 621.965C385.556 621.957 385.643 621.845 385.749 621.721C386.272 621.096 386.791 620.399 387.224 619.738C387.343 619.556 387.445 619.407 387.445 619.403ZM386.806 619.422C386.809 619.425 386.552 619.839 386.101 620.551C385.908 620.853 385.694 621.194 385.618 621.314C385.545 621.431 385.436 621.612 385.374 621.714L385.269 621.899L385.215 621.885C385.084 621.848 384.165 621.525 383.921 621.427C383.62 621.307 383.307 621.162 383.075 621.038C382.784 620.882 382.421 620.649 382.45 620.642C382.457 620.639 382.955 620.504 383.554 620.341C385.146 619.908 386.028 619.658 386.606 619.476C386.711 619.443 386.802 619.418 386.806 619.422ZM391.329 620.482H391.332C391.347 620.519 390.758 622.153 390.544 622.669C390.497 622.786 390.479 622.815 390.453 622.811C390.391 622.807 389.538 622.688 389.018 622.611C388.114 622.473 386.595 622.208 386.214 622.121L386.126 622.103L386.668 621.979C387.83 621.718 388.39 621.576 388.956 621.401C389.672 621.184 390.381 620.911 391.096 620.577C391.209 620.526 391.303 620.486 391.329 620.482Z" fill="url(#paint3_linear_764_21917)"/>
<path d="M388.641 599C388.561 598.989 387.272 599.454 386.44 599.792C385.317 600.25 384.445 600.686 383.908 601.064C383.708 601.205 383.457 601.456 383.417 601.554C383.403 601.59 383.396 601.634 383.396 601.678L383.882 602.139L385.041 602.51L387.799 603.004L390.952 603.545L390.984 603.272C390.974 603.272 390.966 603.269 390.956 603.269L390.541 603.203L390.458 603.054C390.029 602.299 389.557 601.362 389.281 600.729C389.066 600.239 388.863 599.672 388.75 599.265C388.689 599.018 388.681 599.004 388.641 599V599H388.641V599ZM388.583 599.186H388.587C388.59 599.189 388.605 599.291 388.62 599.411C388.681 599.919 388.794 600.41 388.972 600.94C389.106 601.34 389.106 601.318 388.95 601.271C388.58 601.169 386.919 600.882 385.717 600.715C385.524 600.689 385.361 600.664 385.361 600.66C385.346 600.646 386.229 600.185 386.618 600.003C387.116 599.774 388.481 599.204 388.583 599.186ZM385.081 600.813L385.223 600.86C385.993 601.122 387.929 601.492 388.997 601.58C389.117 601.59 389.219 601.601 389.222 601.601C389.226 601.605 389.124 601.659 388.994 601.721C388.478 601.979 387.911 602.295 387.519 602.539C387.403 602.611 387.297 602.669 387.283 602.669C387.268 602.669 387.192 602.655 387.112 602.644L386.967 602.622L386.603 602.266C385.964 601.645 385.463 601.165 385.27 600.984L385.081 600.813ZM384.936 600.926L385.448 601.565C385.728 601.917 386.011 602.262 386.073 602.339C386.135 602.415 386.186 602.477 386.182 602.48C386.167 602.491 385.441 602.35 385.056 602.263C384.66 602.172 384.496 602.128 384.253 602.052L384.053 601.986V601.936C384.057 601.692 384.366 601.329 384.889 600.958L384.936 600.926ZM389.288 601.797C389.303 601.797 389.321 601.83 389.364 601.928C389.488 602.201 389.873 602.935 389.967 603.076C389.996 603.124 390.047 603.127 389.535 603.044C388.303 602.844 387.907 602.778 387.907 602.771C387.907 602.768 387.944 602.742 387.991 602.717C388.373 602.506 388.758 602.237 389.099 601.95C389.183 601.881 389.259 601.816 389.273 601.805C389.277 601.797 389.284 601.794 389.288 601.797Z" fill="url(#paint4_linear_764_21917)"/>
<path d="M378.915 601.504C378.915 601.504 378.835 601.631 378.911 601.82C378.958 601.936 379.096 602.078 379.252 602.223C379.252 602.223 380.869 603.8 381.065 604.025C381.959 605.057 382.348 606.074 382.384 607.476C382.406 608.377 382.235 609.169 381.81 610.088C381.054 611.738 379.459 613.558 377 615.578L377.36 615.458C377.592 615.283 377.908 615.098 378.649 614.691C380.36 613.754 382.286 612.893 384.647 612.006C388.047 610.728 393.638 609.231 396.821 608.744L397.151 608.693L397.1 608.613C396.81 608.163 396.61 607.883 396.37 607.585C395.673 606.721 394.826 606.02 393.791 605.438C392.367 604.643 390.525 604.022 388.193 603.56C387.753 603.473 386.787 603.306 386.002 603.186C384.338 602.928 383.263 602.75 382.079 602.547C381.654 602.474 381.018 602.365 380.596 602.274C380.379 602.227 379.961 602.129 379.634 602.016C379.372 601.914 378.994 601.813 378.915 601.504ZM379.852 602.412C379.855 602.409 379.914 602.43 379.99 602.456C380.128 602.503 380.306 602.557 380.517 602.616C380.676 602.659 380.836 602.702 380.996 602.743C381.214 602.797 381.396 602.848 381.399 602.848C381.425 602.874 381.792 604.047 381.915 604.497C381.962 604.668 381.999 604.813 381.995 604.813C381.991 604.817 381.952 604.755 381.904 604.672C381.479 603.923 380.807 603.164 380.03 602.554C379.928 602.481 379.852 602.416 379.852 602.412ZM381.639 602.906C381.657 602.906 381.737 602.917 381.835 602.939C382.453 603.077 383.561 603.288 384.269 603.408C384.389 603.426 384.484 603.448 384.484 603.455C384.484 603.462 384.44 603.487 384.386 603.517C384.266 603.578 383.783 603.865 383.623 603.974C383.219 604.243 382.856 604.534 382.595 604.795C382.489 604.901 382.398 604.988 382.398 604.988C382.398 604.988 382.377 604.926 382.358 604.85C382.228 604.345 381.955 603.596 381.708 603.07C381.668 602.986 381.635 602.91 381.635 602.903C381.635 602.91 381.635 602.906 381.639 602.906ZM384.785 603.506C384.807 603.513 384.843 603.636 384.916 603.909C385.05 604.436 385.112 605.024 385.09 605.573C385.083 605.725 385.076 605.867 385.069 605.885L385.058 605.921L384.869 605.86C384.48 605.736 383.848 605.551 383.307 605.398C382.998 605.315 382.747 605.238 382.747 605.231C382.747 605.209 383.198 604.759 383.39 604.588C383.757 604.265 384.752 603.495 384.785 603.506ZM385.036 603.542C385.047 603.531 386.54 603.789 387.219 603.92C387.724 604.018 388.458 604.17 388.502 604.189C388.523 604.196 388.447 604.239 388.204 604.348C387.245 604.781 386.533 605.169 385.824 605.642C385.639 605.765 385.483 605.867 385.479 605.867C385.475 605.867 385.472 605.762 385.472 605.634C385.472 604.944 385.334 604.247 385.079 603.658C385.054 603.6 385.032 603.546 385.036 603.542ZM388.898 604.305C388.908 604.316 388.861 604.61 388.818 604.784C388.687 605.326 388.334 606.129 387.902 606.884C387.826 607.019 387.757 607.128 387.75 607.131C387.742 607.135 387.644 607.08 387.532 607.015C387.11 606.768 386.631 606.535 386.108 606.317C385.962 606.256 385.835 606.205 385.831 606.198C385.806 606.176 386.976 605.402 387.593 605.031C388.084 604.734 388.883 604.29 388.898 604.305ZM389.174 604.348C389.206 604.348 389.868 604.53 390.213 604.632C391.066 604.886 392.047 605.246 392.687 605.536L392.952 605.656L392.766 605.7C391.204 606.059 389.868 606.474 388.578 606.997C388.472 607.04 388.378 607.077 388.371 607.077C388.364 607.077 388.4 606.993 388.447 606.891C388.836 606.067 389.086 605.206 389.148 604.472C389.152 604.403 389.163 604.348 389.174 604.348ZM382.591 605.86C382.602 605.849 383.107 605.969 383.379 606.045C383.793 606.161 384.673 606.455 384.673 606.477C384.673 606.481 384.574 606.564 384.458 606.666C383.982 607.062 383.525 607.48 382.976 608.01C382.813 608.167 382.675 608.294 382.667 608.294C382.66 608.294 382.656 608.272 382.66 608.243C382.744 607.632 382.725 606.848 382.609 606.052C382.598 605.95 382.587 605.863 382.591 605.86ZM393.202 605.871C393.21 605.878 392.97 606.256 392.817 606.47C392.599 606.782 392.28 607.197 391.557 608.105C391.175 608.584 390.747 609.126 390.605 609.307C390.46 609.489 390.34 609.641 390.336 609.641C390.332 609.641 390.285 609.576 390.234 609.496C389.828 608.886 389.341 608.352 388.763 607.872C388.654 607.781 388.534 607.683 388.494 607.654C388.454 607.625 388.422 607.596 388.422 607.593C388.422 607.582 389.039 607.316 389.508 607.128C390.329 606.793 391.448 606.394 392.287 606.136C392.727 605.998 393.195 605.863 393.202 605.871ZM393.482 605.943C393.497 605.94 393.584 605.983 393.689 606.045C394.572 606.55 395.437 607.2 396.12 607.869C396.312 608.058 396.788 608.552 396.781 608.555C396.781 608.555 396.614 608.57 396.418 608.584C394.888 608.701 392.93 609.024 391.048 609.478C390.921 609.507 390.808 609.532 390.801 609.532C390.794 609.532 390.936 609.391 391.114 609.22C392.218 608.156 392.723 607.484 393.319 606.285C393.402 606.107 393.475 605.954 393.482 605.943C393.479 605.943 393.479 605.943 393.482 605.943ZM385.392 606.772C385.443 606.782 385.915 607.004 386.271 607.182C386.598 607.345 387.088 607.607 387.114 607.629C387.117 607.632 386.943 607.723 386.729 607.829C386.046 608.17 385.461 608.493 384.851 608.864C384.676 608.969 384.531 609.057 384.527 609.057C384.513 609.057 384.516 609.042 384.614 608.864C384.941 608.268 385.203 607.556 385.352 606.862C385.366 606.808 385.381 606.772 385.392 606.772ZM384.92 606.859C384.93 606.87 384.807 607.316 384.731 607.56C384.582 608.021 384.331 608.599 384.088 609.035C384.03 609.136 383.942 609.285 383.895 609.369L383.804 609.514L383.601 609.318C383.365 609.089 383.172 608.948 382.925 608.82C382.827 608.77 382.751 608.726 382.751 608.719C382.751 608.69 383.372 608.127 383.848 607.72C384.189 607.425 384.909 606.848 384.92 606.859ZM387.808 608.047L387.986 608.163C388.393 608.428 388.872 608.78 389.239 609.089C389.446 609.26 389.846 609.62 389.926 609.707L389.969 609.754L389.675 609.838C388.011 610.299 386.725 610.709 385.225 611.262C385.058 611.323 384.916 611.374 384.905 611.374C384.883 611.374 384.865 611.392 385.239 611.047C386.198 610.165 387.048 609.191 387.681 608.243L387.808 608.047ZM387.048 608.236C387.056 608.243 386.558 608.944 386.26 609.34C385.904 609.812 385.272 610.604 384.836 611.12C384.654 611.334 384.498 611.512 384.491 611.516C384.48 611.52 384.476 611.465 384.476 611.382C384.476 610.942 384.364 610.473 384.168 610.074C384.084 609.907 384.07 609.867 384.088 609.849C384.157 609.787 385.214 609.184 385.882 608.824C386.333 608.584 387.037 608.228 387.048 608.236ZM382.457 609.362C382.467 609.362 382.551 609.405 382.645 609.456C382.878 609.583 383.085 609.725 383.27 609.878C383.278 609.885 383.183 609.961 383.06 610.052C382.714 610.299 382.191 610.695 381.886 610.938C381.566 611.193 381.556 611.2 381.592 611.145C381.832 610.779 381.952 610.571 382.079 610.306C382.191 610.07 382.304 609.79 382.384 609.547C382.413 609.442 382.449 609.362 382.457 609.362ZM383.681 610.321C383.699 610.317 383.721 610.35 383.819 610.495C384.026 610.804 384.186 611.218 384.226 611.552L384.233 611.625L383.735 611.818C382.845 612.163 382.024 612.504 381.468 612.758C381.312 612.831 381.04 612.962 380.862 613.049C380.684 613.14 380.538 613.209 380.538 613.205C380.538 613.202 380.651 613.118 380.789 613.016C381.875 612.228 382.816 611.363 383.521 610.499C383.597 610.408 383.666 610.324 383.674 610.321L383.681 610.321ZM383.118 610.459C383.132 610.473 382.718 610.942 382.435 611.229C381.734 611.945 381.04 612.504 380.179 613.049C380.07 613.118 379.972 613.18 379.961 613.187C379.935 613.202 379.968 613.165 380.346 612.755C380.586 612.497 380.767 612.279 380.974 612.01C381.112 611.832 381.138 611.807 381.338 611.665C381.872 611.28 383.103 610.444 383.118 610.459Z" fill="url(#paint5_radial_764_21917)"/>
<rect x="363.5" y="587.5" width="47" height="47" rx="5.5" stroke="#262626"/>
<rect x="363.5" y="475.5" width="47" height="47" rx="5.5" fill="#080808"/>
<path d="M375 502.318V495.099H377.573C378.133 495.099 378.597 495.195 378.966 495.388C379.337 495.58 379.615 495.847 379.798 496.188C379.981 496.526 380.073 496.918 380.073 497.362C380.073 497.804 379.98 498.193 379.794 498.529C379.611 498.863 379.334 499.122 378.962 499.308C378.593 499.494 378.129 499.586 377.57 499.586H375.62V498.649H377.471C377.824 498.649 378.11 498.598 378.331 498.497C378.555 498.396 378.718 498.249 378.821 498.056C378.925 497.864 378.976 497.632 378.976 497.362C378.976 497.089 378.924 496.853 378.818 496.653C378.714 496.454 378.551 496.301 378.328 496.195C378.107 496.087 377.817 496.033 377.457 496.033H376.089V502.318H375ZM378.564 499.061L380.348 502.318H379.107L377.358 499.061H378.564Z" fill="white"/>
<path d="M381.398 502.318V495.099H385.925V496.036H382.488V498.236H385.689V499.17H382.488V501.381H385.967V502.318H381.398Z" fill="white"/>
<path d="M391.318 496.995C391.28 496.662 391.125 496.403 390.852 496.22C390.58 496.034 390.236 495.941 389.823 495.941C389.527 495.941 389.271 495.988 389.054 496.082C388.838 496.174 388.67 496.301 388.55 496.463C388.433 496.623 388.374 496.805 388.374 497.009C388.374 497.181 388.414 497.329 388.494 497.454C388.576 497.578 388.683 497.683 388.815 497.767C388.949 497.85 389.092 497.919 389.245 497.975C389.397 498.029 389.544 498.074 389.685 498.109L390.39 498.293C390.621 498.349 390.857 498.425 391.099 498.522C391.341 498.618 391.566 498.745 391.772 498.902C391.979 499.06 392.146 499.255 392.273 499.488C392.402 499.72 392.467 499.999 392.467 500.323C392.467 500.732 392.361 501.095 392.15 501.412C391.94 501.73 391.636 501.98 391.236 502.163C390.839 502.347 390.359 502.438 389.795 502.438C389.254 502.438 388.786 502.353 388.392 502.181C387.997 502.009 387.688 501.766 387.464 501.451C387.241 501.134 387.118 500.758 387.094 500.323H388.187C388.208 500.584 388.293 500.801 388.441 500.975C388.591 501.147 388.783 501.275 389.016 501.36C389.251 501.442 389.508 501.483 389.788 501.483C390.095 501.483 390.369 501.435 390.609 501.338C390.851 501.24 391.041 501.103 391.18 500.929C391.319 500.753 391.388 500.548 391.388 500.313C391.388 500.099 391.327 499.924 391.205 499.787C391.085 499.651 390.922 499.538 390.715 499.449C390.51 499.36 390.279 499.281 390.02 499.213L389.167 498.98C388.589 498.823 388.131 498.591 387.792 498.286C387.456 497.98 387.288 497.576 387.288 497.073C387.288 496.657 387.401 496.294 387.627 495.984C387.852 495.673 388.158 495.432 388.543 495.261C388.929 495.087 389.363 495 389.848 495C390.336 495 390.768 495.086 391.141 495.257C391.517 495.429 391.813 495.665 392.03 495.966C392.246 496.264 392.359 496.608 392.368 496.995H391.318Z" fill="white"/>
<path d="M393.412 496.036V495.099H399V496.036H396.747V502.318H395.662V496.036H393.412Z" fill="white"/>
<rect x="363.5" y="475.5" width="47" height="47" rx="5.5" stroke="#262626"/>
<rect x="307.5" y="642.5" width="47" height="47" rx="5.5" fill="#080808"/>
<path fill-rule="evenodd" clip-rule="evenodd" d="M343 666.161C343 664.454 342.174 663.107 340.594 663.107C339.007 663.107 338.047 664.454 338.047 666.147C338.047 668.154 339.18 669.167 340.807 669.167C341.6 669.167 342.2 668.987 342.654 668.734V667.401C342.2 667.627 341.68 667.767 341.02 667.767C340.374 667.767 339.8 667.541 339.727 666.754H342.987C342.987 666.667 343 666.321 343 666.161ZM339.707 665.527C339.707 664.774 340.167 664.461 340.587 664.461C340.994 664.461 341.427 664.774 341.427 665.527H339.707Z" fill="#635BFF"/>
<path fill-rule="evenodd" clip-rule="evenodd" d="M335.473 663.107C334.82 663.107 334.4 663.414 334.167 663.627L334.08 663.214H332.613V670.987L334.28 670.634L334.287 668.747C334.527 668.921 334.88 669.167 335.467 669.167C336.66 669.167 337.747 668.207 337.747 666.094C337.74 664.161 336.64 663.107 335.473 663.107ZM335.073 667.701C334.68 667.701 334.447 667.561 334.287 667.387L334.28 664.914C334.453 664.721 334.693 664.587 335.073 664.587C335.68 664.587 336.1 665.267 336.1 666.141C336.1 667.034 335.687 667.701 335.073 667.701Z" fill="#635BFF"/>
<path fill-rule="evenodd" clip-rule="evenodd" d="M330.32 662.713L331.993 662.353V661L330.32 661.353V662.713Z" fill="#635BFF"/>
<path d="M331.993 663.219H330.32V669.052H331.993V663.219Z" fill="#635BFF"/>
<path fill-rule="evenodd" clip-rule="evenodd" d="M328.527 663.713L328.42 663.219H326.98V669.053H328.647V665.099C329.04 664.586 329.707 664.679 329.913 664.753V663.219C329.7 663.139 328.92 662.993 328.527 663.713Z" fill="#635BFF"/>
<path fill-rule="evenodd" clip-rule="evenodd" d="M325.193 661.773L323.567 662.12L323.56 667.46C323.56 668.447 324.3 669.173 325.287 669.173C325.833 669.173 326.233 669.073 326.453 668.953V667.6C326.24 667.687 325.187 667.993 325.187 667.007V664.64H326.453V663.22H325.187L325.193 661.773Z" fill="#635BFF"/>
<path fill-rule="evenodd" clip-rule="evenodd" d="M320.687 664.914C320.687 664.654 320.9 664.554 321.253 664.554C321.76 664.554 322.4 664.707 322.907 664.981V663.414C322.353 663.194 321.807 663.107 321.253 663.107C319.9 663.107 319 663.814 319 664.994C319 666.834 321.533 666.541 321.533 667.334C321.533 667.641 321.267 667.741 320.893 667.741C320.34 667.741 319.633 667.514 319.073 667.207V668.794C319.693 669.061 320.32 669.174 320.893 669.174C322.28 669.174 323.233 668.487 323.233 667.294C323.227 665.307 320.687 665.661 320.687 664.914Z" fill="#635BFF"/>
<rect x="307.5" y="642.5" width="47" height="47" rx="5.5" stroke="#262626"/>
<rect x="411.5" y="682.5" width="47" height="47" rx="5.5" fill="#080808"/>
<g clip-path="url(#clip7_764_21917)">
<mask id="mask1_764_21917" style="mask-type:luminance" maskUnits="userSpaceOnUse" x="418" y="694" width="35" height="24">
<path d="M418.007 694.062H452.185V717.937H418.007V694.062Z" fill="#00A1E0"/>
</mask>
<g mask="url(#mask1_764_21917)">
<path fill-rule="evenodd" clip-rule="evenodd" d="M432.199 696.675C433.302 695.527 434.838 694.816 436.534 694.816C438.796 694.816 440.756 696.072 441.811 697.945C442.748 697.526 443.763 697.309 444.789 697.31C448.861 697.31 452.165 700.64 452.165 704.749C452.165 708.858 448.861 712.187 444.789 712.187C444.292 712.187 443.807 712.137 443.332 712.043C442.408 713.689 440.643 714.807 438.632 714.807C437.814 714.809 437.006 714.623 436.27 714.265C435.334 716.463 433.154 718.009 430.616 718.009C427.964 718.009 425.715 716.338 424.848 713.988C424.462 714.07 424.069 714.11 423.674 714.11C420.521 714.11 417.97 711.522 417.97 708.343C417.97 706.207 419.118 704.347 420.822 703.342C420.461 702.509 420.275 701.611 420.275 700.703C420.275 697.034 423.253 694.068 426.923 694.068C429.071 694.068 430.994 695.092 432.2 696.682" fill="#00A1E0"/>
</g>
<path fill-rule="evenodd" clip-rule="evenodd" d="M422.951 706.477C422.929 706.533 422.958 706.545 422.965 706.555C423.029 706.602 423.095 706.635 423.16 706.673C423.509 706.858 423.839 706.912 424.183 706.912C424.884 706.912 425.32 706.539 425.32 705.938V705.926C425.32 705.371 424.827 705.168 424.368 705.024L424.307 705.004C423.959 704.892 423.659 704.793 423.659 704.565V704.553C423.659 704.357 423.835 704.212 424.106 704.212C424.408 704.212 424.767 704.313 424.997 704.44C424.997 704.44 425.065 704.484 425.09 704.418C425.103 704.383 425.221 704.069 425.233 704.034C425.247 703.997 425.223 703.969 425.199 703.955C424.935 703.794 424.571 703.685 424.194 703.685L424.124 703.685C423.482 703.685 423.033 704.073 423.033 704.629V704.64C423.033 705.226 423.528 705.417 423.991 705.549L424.065 705.572C424.402 705.676 424.693 705.766 424.693 706.002V706.014C424.693 706.231 424.504 706.393 424.2 706.393C424.081 706.393 423.705 706.391 423.296 706.133C423.247 706.104 423.219 706.083 423.181 706.06C423.16 706.048 423.11 706.026 423.088 706.092L422.95 706.476M433.216 706.476C433.195 706.532 433.224 706.544 433.231 706.554C433.295 706.601 433.36 706.634 433.426 706.672C433.775 706.857 434.104 706.911 434.449 706.911C435.15 706.911 435.586 706.538 435.586 705.937V705.925C435.586 705.37 435.094 705.167 434.633 705.023L434.573 705.003C434.225 704.891 433.925 704.792 433.925 704.564V704.552C433.925 704.356 434.101 704.211 434.372 704.211C434.674 704.211 435.032 704.312 435.263 704.439C435.263 704.439 435.331 704.483 435.356 704.417C435.369 704.382 435.487 704.068 435.498 704.033C435.511 703.996 435.488 703.968 435.464 703.954C435.2 703.793 434.836 703.684 434.459 703.684L434.389 703.684C433.746 703.684 433.298 704.072 433.298 704.628V704.639C433.298 705.225 433.793 705.416 434.255 705.548L434.33 705.571C434.668 705.675 434.958 705.765 434.958 706.001V706.013C434.958 706.23 434.768 706.392 434.464 706.392C434.346 706.392 433.968 706.39 433.561 706.132C433.511 706.103 433.482 706.083 433.445 706.059C433.432 706.051 433.373 706.028 433.353 706.091L433.215 706.475M440.226 705.299C440.226 705.639 440.163 705.906 440.039 706.096C439.915 706.283 439.729 706.375 439.468 706.375C439.208 706.375 439.022 706.284 438.9 706.097C438.778 705.909 438.716 705.64 438.716 705.301C438.716 704.961 438.778 704.695 438.9 704.508C439.022 704.322 439.207 704.232 439.468 704.232C439.73 704.232 439.916 704.323 440.039 704.508C440.164 704.695 440.226 704.961 440.226 705.301M440.812 704.671C440.754 704.476 440.665 704.305 440.545 704.162C440.426 704.019 440.275 703.903 440.095 703.82C439.917 703.737 439.706 703.695 439.467 703.695C439.228 703.695 439.019 703.737 438.839 703.82C438.66 703.904 438.508 704.019 438.389 704.162C438.27 704.305 438.18 704.476 438.123 704.671C438.065 704.864 438.036 705.076 438.036 705.301C438.036 705.525 438.065 705.737 438.123 705.93C438.18 706.125 438.27 706.296 438.389 706.439C438.509 706.582 438.66 706.697 438.839 706.778C439.019 706.86 439.23 706.901 439.467 706.901C439.705 706.901 439.916 706.86 440.094 706.778C440.273 706.697 440.425 706.582 440.544 706.439C440.663 706.296 440.753 706.125 440.81 705.93C440.867 705.737 440.896 705.525 440.896 705.301C440.896 705.077 440.867 704.864 440.81 704.671M445.623 706.279C445.604 706.222 445.548 706.244 445.548 706.244C445.463 706.276 445.372 706.307 445.276 706.322C445.178 706.337 445.069 706.345 444.955 706.345C444.672 706.345 444.446 706.26 444.285 706.093C444.123 705.926 444.033 705.657 444.034 705.293C444.035 704.961 444.115 704.712 444.259 704.521C444.401 704.333 444.62 704.235 444.909 704.235C445.15 704.235 445.335 704.263 445.528 704.324C445.528 704.324 445.574 704.344 445.596 704.283C445.647 704.141 445.685 704.039 445.74 703.884C445.756 703.839 445.718 703.82 445.704 703.815C445.628 703.785 445.449 703.736 445.313 703.716C445.186 703.697 445.039 703.686 444.873 703.686C444.627 703.686 444.408 703.729 444.221 703.812C444.034 703.895 443.876 704.011 443.75 704.154C443.624 704.297 443.529 704.468 443.465 704.663C443.401 704.856 443.369 705.069 443.369 705.293C443.369 705.779 443.5 706.172 443.759 706.46C444.018 706.749 444.407 706.894 444.915 706.894C445.215 706.894 445.523 706.834 445.744 706.746C445.744 706.746 445.786 706.726 445.768 706.676L445.623 706.279M446.648 704.973C446.676 704.784 446.727 704.627 446.808 704.505C446.93 704.319 447.115 704.217 447.375 704.217C447.635 704.217 447.807 704.32 447.93 704.505C448.012 704.628 448.048 704.79 448.061 704.973L446.641 704.972L446.648 704.973ZM448.62 704.558C448.57 704.371 448.447 704.181 448.367 704.094C448.238 703.957 448.114 703.861 447.99 703.808C447.81 703.731 447.617 703.692 447.422 703.693C447.174 703.693 446.949 703.734 446.767 703.819C446.585 703.905 446.431 704.022 446.311 704.167C446.19 704.313 446.1 704.485 446.042 704.683C445.984 704.877 445.955 705.091 445.955 705.315C445.955 705.543 445.985 705.756 446.045 705.948C446.105 706.142 446.202 706.311 446.333 706.452C446.463 706.594 446.63 706.704 446.831 706.782C447.031 706.86 447.274 706.9 447.551 706.899C448.124 706.897 448.426 706.769 448.549 706.7C448.571 706.688 448.592 706.667 448.566 706.606L448.437 706.242C448.417 706.188 448.362 706.208 448.362 706.208C448.22 706.261 448.019 706.356 447.548 706.355C447.24 706.354 447.012 706.264 446.869 706.121C446.723 705.975 446.65 705.763 446.639 705.461L448.624 705.463C448.624 705.463 448.677 705.462 448.682 705.411C448.684 705.39 448.75 705.004 448.623 704.558L448.62 704.558ZM430.777 704.973C430.805 704.784 430.857 704.627 430.938 704.505C431.06 704.319 431.245 704.217 431.505 704.217C431.765 704.217 431.937 704.32 432.06 704.505C432.142 704.628 432.178 704.79 432.191 704.973L430.771 704.972L430.777 704.973ZM432.75 704.558C432.7 704.371 432.577 704.181 432.496 704.094C432.368 703.957 432.244 703.861 432.119 703.808C431.94 703.731 431.747 703.692 431.551 703.693C431.304 703.693 431.079 703.734 430.897 703.819C430.715 703.905 430.561 704.022 430.441 704.167C430.32 704.313 430.23 704.485 430.172 704.683C430.114 704.877 430.085 705.091 430.085 705.315C430.085 705.543 430.115 705.756 430.175 705.948C430.235 706.142 430.332 706.311 430.462 706.452C430.592 706.594 430.759 706.704 430.96 706.782C431.16 706.86 431.401 706.9 431.68 706.899C432.253 706.897 432.555 706.769 432.678 706.7C432.7 706.688 432.721 706.667 432.695 706.606L432.565 706.242C432.545 706.188 432.491 706.208 432.491 706.208C432.349 706.261 432.148 706.356 431.676 706.355C431.37 706.354 431.141 706.264 430.998 706.121C430.852 705.975 430.779 705.763 430.768 705.461L432.753 705.463C432.753 705.463 432.805 705.462 432.811 705.411C432.813 705.39 432.879 705.004 432.752 704.558L432.75 704.558ZM426.493 706.267C426.415 706.205 426.404 706.19 426.378 706.149C426.339 706.088 426.319 706.002 426.319 705.892C426.319 705.718 426.377 705.593 426.496 705.508C426.495 705.509 426.667 705.36 427.071 705.365C427.252 705.368 427.431 705.384 427.609 705.411V706.312H427.61C427.61 706.312 427.358 706.366 427.074 706.383C426.671 706.407 426.492 706.267 426.494 706.267L426.493 706.267ZM427.282 704.872C427.201 704.866 427.097 704.863 426.973 704.863C426.803 704.863 426.638 704.884 426.485 704.926C426.33 704.968 426.191 705.032 426.072 705.118C425.952 705.203 425.853 705.315 425.784 705.445C425.714 705.575 425.678 705.729 425.678 705.902C425.678 706.078 425.708 706.23 425.769 706.355C425.828 706.478 425.917 706.585 426.028 706.665C426.138 706.745 426.274 706.804 426.431 706.84C426.587 706.875 426.763 706.893 426.956 706.893C427.16 706.893 427.362 706.876 427.558 706.843C427.725 706.814 427.891 706.782 428.057 706.746C428.123 706.731 428.196 706.711 428.196 706.711C428.245 706.698 428.242 706.646 428.242 706.646L428.24 704.836C428.24 704.439 428.134 704.144 427.925 703.962C427.716 703.78 427.411 703.688 427.015 703.688C426.867 703.688 426.627 703.708 426.484 703.737C426.484 703.737 426.052 703.821 425.873 703.961C425.873 703.961 425.834 703.985 425.855 704.039L425.996 704.416C426.013 704.465 426.061 704.448 426.061 704.448C426.061 704.448 426.076 704.443 426.094 704.432C426.474 704.225 426.957 704.231 426.957 704.231C427.17 704.231 427.336 704.274 427.447 704.359C427.555 704.442 427.61 704.568 427.61 704.832V704.916C427.441 704.891 427.284 704.877 427.284 704.877L427.282 704.872ZM443.24 703.85C443.243 703.844 443.244 703.837 443.244 703.829C443.244 703.822 443.243 703.815 443.24 703.808C443.237 703.802 443.233 703.796 443.228 703.791C443.223 703.786 443.217 703.782 443.21 703.779C443.176 703.766 443.008 703.731 442.878 703.723C442.63 703.707 442.491 703.749 442.367 703.805C442.244 703.86 442.108 703.949 442.033 704.052L442.032 703.811C442.032 703.778 442.009 703.751 441.975 703.751H441.468C441.435 703.751 441.411 703.778 441.411 703.811V706.764C441.411 706.78 441.417 706.795 441.429 706.807C441.44 706.818 441.455 706.824 441.471 706.824H441.991C442.007 706.824 442.023 706.818 442.034 706.807C442.045 706.795 442.052 706.78 442.052 706.764V705.281C442.052 705.083 442.073 704.885 442.117 704.761C442.16 704.638 442.218 704.54 442.29 704.47C442.359 704.402 442.443 704.351 442.535 704.323C442.622 704.298 442.712 704.285 442.802 704.285C442.905 704.285 443.019 704.312 443.019 704.312C443.057 704.316 443.079 704.293 443.092 704.258C443.126 704.168 443.222 703.896 443.241 703.842" fill="#FFFFFE"/>
<path fill-rule="evenodd" clip-rule="evenodd" d="M438.381 702.487C438.317 702.468 438.251 702.452 438.185 702.441C438.096 702.426 438.006 702.419 437.916 702.42C437.557 702.42 437.275 702.521 437.076 702.721C436.879 702.92 436.745 703.222 436.678 703.62L436.654 703.755H436.204C436.204 703.755 436.149 703.752 436.137 703.812L436.063 704.224C436.058 704.264 436.075 704.288 436.128 704.288H436.566L436.121 706.769C436.087 706.969 436.047 707.133 436.003 707.258C435.959 707.381 435.917 707.473 435.864 707.54C435.814 707.604 435.766 707.652 435.683 707.68C435.615 707.703 435.536 707.713 435.45 707.713C435.402 707.713 435.338 707.705 435.291 707.696C435.244 707.686 435.219 707.676 435.184 707.661C435.184 707.661 435.133 707.641 435.112 707.693C435.096 707.735 434.979 708.056 434.965 708.096C434.951 708.135 434.971 708.166 434.996 708.175C435.054 708.196 435.097 708.209 435.177 708.228C435.287 708.254 435.38 708.255 435.467 708.255C435.65 708.255 435.816 708.23 435.954 708.18C436.093 708.13 436.213 708.043 436.32 707.924C436.436 707.797 436.508 707.663 436.578 707.481C436.646 707.3 436.705 707.076 436.752 706.815L437.198 704.288H437.851C437.851 704.288 437.906 704.29 437.918 704.231L437.992 703.818C437.997 703.779 437.98 703.754 437.927 703.755H437.293C437.296 703.74 437.325 703.517 437.398 703.308C437.429 703.218 437.487 703.146 437.537 703.096C437.583 703.049 437.64 703.013 437.703 702.993C437.772 702.971 437.844 702.961 437.916 702.962C437.975 702.962 438.034 702.969 438.078 702.979C438.14 702.992 438.164 702.999 438.18 703.003C438.244 703.023 438.253 703.004 438.266 702.973L438.417 702.556C438.433 702.512 438.395 702.493 438.381 702.487ZM429.526 706.774C429.526 706.807 429.502 706.835 429.469 706.835H428.943C428.91 706.835 428.886 706.807 428.886 706.774V702.544C428.886 702.511 428.91 702.484 428.943 702.484H429.469C429.502 702.484 429.526 702.511 429.526 702.544V706.774Z" fill="#FFFFFE"/>
</g>
<rect x="411.5" y="682.5" width="47" height="47" rx="5.5" stroke="#262626"/>
<g opacity="0.6">
<g opacity="0.19" filter="url(#filter0_f_764_21917)">
<circle cx="555" cy="555" r="180" fill="url(#paint6_linear_764_21917)" fill-opacity="0.9"/>
</g>
<g opacity="0.4" filter="url(#filter1_f_764_21917)">
<circle cx="555" cy="555.006" r="63.4985" fill="url(#paint7_linear_764_21917)"/>
</g>
<g opacity="0.4" filter="url(#filter2_f_764_21917)">
<circle cx="555.002" cy="554.997" r="69.796" fill="black"/>
</g>
<g opacity="0.9" filter="url(#filter3_f_764_21917)">
<circle cx="554.999" cy="555.002" r="73.9941" fill="url(#paint8_linear_764_21917)" fill-opacity="0.9"/>
</g>
<g opacity="0.3" filter="url(#filter4_f_764_21917)">
<circle cx="554.999" cy="554.994" r="48.8047" fill="black"/>
</g>
<circle opacity="0.05" cx="554.999" cy="554.999" r="65.0729" stroke="url(#paint9_linear_764_21917)" stroke-opacity="0.6" stroke-width="1.46246"/>
<circle opacity="0.1" cx="555.004" cy="554.997" r="51.4286" stroke="url(#paint10_linear_764_21917)" stroke-opacity="0.6" stroke-width="1.46246"/>
<circle opacity="0.2" cx="554.995" cy="555.004" r="38.8338" stroke="url(#paint11_linear_764_21917)" stroke-opacity="0.6" stroke-width="1.46246"/>
</g>
<g filter="url(#filter5_bd_764_21917)">
<rect x="523" y="523" width="64" height="64" rx="32" fill="black"/>
<rect x="523.25" y="523.25" width="63.5" height="63.5" rx="31.75" stroke="url(#paint12_linear_764_21917)" stroke-opacity="0.2" stroke-width="0.5"/>
<g filter="url(#filter6_d_764_21917)">
<path d="M567.491 545.383L556.074 538.803C555.568 538.514 554.995 538.361 554.413 538.361C553.83 538.361 553.257 538.514 552.751 538.803C552.248 539.094 551.829 539.512 551.538 540.016C551.247 540.52 551.093 541.091 551.092 541.672V542.531L550.348 542.101C549.842 541.812 549.269 541.66 548.686 541.66C548.103 541.66 547.53 541.812 547.025 542.101C546.52 542.393 546.102 542.812 545.81 543.317C545.519 543.821 545.366 544.393 545.365 544.976V545.834L544.621 545.405C544.115 545.116 543.543 544.963 542.96 544.963C542.377 544.963 541.805 545.116 541.299 545.405C540.795 545.696 540.377 546.114 540.085 546.618C539.794 547.122 539.64 547.693 539.639 548.275V568.888C539.639 569.181 539.723 569.468 539.878 569.716C540.034 569.964 540.257 570.163 540.52 570.291C540.784 570.418 541.078 570.469 541.369 570.437C541.661 570.406 541.937 570.293 542.167 570.112L547.828 565.655L556.56 570.685C556.799 570.82 557.068 570.891 557.341 570.891C557.615 570.891 557.884 570.82 558.122 570.685C558.604 570.407 558.904 569.891 558.904 569.335V556.933C558.902 555.929 558.636 554.944 558.134 554.075C557.631 553.206 556.909 552.485 556.04 551.983L553.177 550.333V541.676C553.178 541.458 553.235 541.245 553.344 541.057C553.453 540.869 553.609 540.713 553.798 540.605C553.986 540.497 554.199 540.44 554.416 540.44C554.634 540.44 554.847 540.497 555.035 540.606L566.452 547.183C567.005 547.502 567.464 547.961 567.784 548.514C568.104 549.067 568.273 549.693 568.274 550.332V565.778C568.274 566.219 568.037 566.628 567.655 566.848L564.63 568.591V553.63C564.628 552.627 564.363 551.642 563.86 550.773C563.358 549.905 562.636 549.183 561.767 548.682L554.738 544.633V547.032L560.726 550.481C561.279 550.801 561.738 551.259 562.058 551.812C562.378 552.365 562.547 552.992 562.548 553.63V569.489C562.548 570.042 562.847 570.561 563.329 570.84C563.567 570.974 563.836 571.045 564.11 571.045C564.384 571.045 564.653 570.974 564.891 570.84L568.698 568.646C569.722 568.055 570.359 566.957 570.359 565.774V550.328C570.354 549.325 570.087 548.341 569.584 547.473C569.081 546.606 568.359 545.885 567.491 545.383ZM554.994 553.782C555.547 554.101 556.007 554.56 556.327 555.113C556.646 555.666 556.815 556.293 556.816 556.932V568.438L549.587 564.273L551.908 562.448C552.303 562.14 552.622 561.745 552.842 561.294C553.061 560.843 553.174 560.348 553.173 559.846V552.736L554.995 553.783L554.994 553.782ZM551.091 551.533V559.842C551.091 560.224 550.918 560.579 550.619 560.812L541.72 567.815V548.272C541.72 548.055 541.778 547.842 541.886 547.654C541.995 547.466 542.152 547.31 542.34 547.202C542.528 547.093 542.741 547.036 542.958 547.036C543.176 547.037 543.389 547.094 543.577 547.202L545.365 548.231V562.962L547.446 561.324V544.974C547.447 544.757 547.504 544.543 547.613 544.355C547.722 544.167 547.878 544.011 548.066 543.902C548.255 543.794 548.468 543.737 548.686 543.737C548.903 543.738 549.116 543.795 549.304 543.904L551.091 544.932V549.131L549.011 547.931V550.332L551.093 551.533H551.091Z" fill="white"/>
</g>
</g>
<defs>
<filter id="filter0_f_764_21917" x="0.609589" y="0.609589" width="1108.78" height="1108.78" filterUnits="userSpaceOnUse" color-interpolation-filters="sRGB">
<feFlood flood-opacity="0" result="BackgroundImageFix"/>
<feBlend mode="normal" in="SourceGraphic" in2="BackgroundImageFix" result="shape"/>
<feGaussianBlur stdDeviation="187.195" result="effect1_foregroundBlur_764_21917"/>
</filter>
<filter id="filter1_f_764_21917" x="383.28" y="383.286" width="343.442" height="343.441" filterUnits="userSpaceOnUse" color-interpolation-filters="sRGB">
<feFlood flood-opacity="0" result="BackgroundImageFix"/>
<feBlend mode="normal" in="SourceGraphic" in2="BackgroundImageFix" result="shape"/>
<feGaussianBlur stdDeviation="54.1111" result="effect1_foregroundBlur_764_21917"/>
</filter>
<filter id="filter2_f_764_21917" x="400.383" y="400.378" width="309.237" height="309.237" filterUnits="userSpaceOnUse" color-interpolation-filters="sRGB">
<feFlood flood-opacity="0" result="BackgroundImageFix"/>
<feBlend mode="normal" in="SourceGraphic" in2="BackgroundImageFix" result="shape"/>
<feGaussianBlur stdDeviation="42.4114" result="effect1_foregroundBlur_764_21917"/>
</filter>
<filter id="filter3_f_764_21917" x="407.882" y="407.885" width="294.235" height="294.235" filterUnits="userSpaceOnUse" color-interpolation-filters="sRGB">
<feFlood flood-opacity="0" result="BackgroundImageFix"/>
<feBlend mode="normal" in="SourceGraphic" in2="BackgroundImageFix" result="shape"/>
<feGaussianBlur stdDeviation="36.5616" result="effect1_foregroundBlur_764_21917"/>
</filter>
<filter id="filter4_f_764_21917" x="421.372" y="421.367" width="267.255" height="267.255" filterUnits="userSpaceOnUse" color-interpolation-filters="sRGB">
<feFlood flood-opacity="0" result="BackgroundImageFix"/>
<feBlend mode="normal" in="SourceGraphic" in2="BackgroundImageFix" result="shape"/>
<feGaussianBlur stdDeviation="42.4114" result="effect1_foregroundBlur_764_21917"/>
</filter>
<filter id="filter5_bd_764_21917" x="507" y="508" width="96" height="99" filterUnits="userSpaceOnUse" color-interpolation-filters="sRGB">
<feFlood flood-opacity="0" result="BackgroundImageFix"/>
<feGaussianBlur in="BackgroundImageFix" stdDeviation="7.5"/>
<feComposite in2="SourceAlpha" operator="in" result="effect1_backgroundBlur_764_21917"/>
<feColorMatrix in="SourceAlpha" type="matrix" values="0 0 0 0 0 0 0 0 0 0 0 0 0 0 0 0 0 0 127 0" result="hardAlpha"/>
<feOffset dy="4"/>
<feGaussianBlur stdDeviation="8"/>
<feComposite in2="hardAlpha" operator="out"/>
<feColorMatrix type="matrix" values="0 0 0 0 0 0 0 0 0 0 0 0 0 0 0 0 0 0 0.25 0"/>
<feBlend mode="normal" in2="effect1_backgroundBlur_764_21917" result="effect2_dropShadow_764_21917"/>
<feBlend mode="normal" in="SourceGraphic" in2="effect2_dropShadow_764_21917" result="shape"/>
</filter>
<filter id="filter6_d_764_21917" x="522.227" y="526.608" width="65.5437" height="67.5071" filterUnits="userSpaceOnUse" color-interpolation-filters="sRGB">
<feFlood flood-opacity="0" result="BackgroundImageFix"/>
<feColorMatrix in="SourceAlpha" type="matrix" values="0 0 0 0 0 0 0 0 0 0 0 0 0 0 0 0 0 0 127 0" result="hardAlpha"/>
<feOffset dy="5.65882"/>
<feGaussianBlur stdDeviation="8.70588"/>
<feColorMatrix type="matrix" values="0 0 0 0 0 0 0 0 0 0 0 0 0 0 0 0 0 0 0.3 0"/>
<feBlend mode="normal" in2="BackgroundImageFix" result="effect1_dropShadow_764_21917"/>
<feBlend mode="normal" in="SourceGraphic" in2="effect1_dropShadow_764_21917" result="shape"/>
</filter>
<linearGradient id="paint0_linear_764_21917" x1="652" y1="404" x2="565.973" y2="531.274" gradientUnits="userSpaceOnUse">
<stop stop-color="#262626" stop-opacity="0"/>
<stop offset="0.0566652" stop-color="#262626"/>
<stop offset="0.949922" stop-color="#262626"/>
<stop offset="1" stop-color="#262626" stop-opacity="0"/>
</linearGradient>
<linearGradient id="paint1_linear_764_21917" x1="781.534" y1="446.533" x2="786.267" y2="452.399" gradientUnits="userSpaceOnUse">
<stop/>
<stop offset="1" stop-opacity="0"/>
</linearGradient>
<linearGradient id="paint2_linear_764_21917" x1="783.133" y1="438.199" x2="783.107" y2="445.249" gradientUnits="userSpaceOnUse">
<stop/>
<stop offset="1" stop-opacity="0"/>
</linearGradient>
<linearGradient id="paint3_linear_764_21917" x1="383.357" y1="620.627" x2="385.095" y2="619.6" gradientUnits="userSpaceOnUse">
<stop stop-color="#909CA9"/>
<stop offset="1" stop-color="#EDEDEE"/>
</linearGradient>
<linearGradient id="paint4_linear_764_21917" x1="383.408" y1="601.265" x2="384.807" y2="601.265" gradientUnits="userSpaceOnUse">
<stop stop-color="#939FAB"/>
<stop offset="1" stop-color="#DCDEE1"/>
</linearGradient>
<radialGradient id="paint5_radial_764_21917" cx="0" cy="0" r="1" gradientUnits="userSpaceOnUse" gradientTransform="translate(385.936 607.68) rotate(-171.457) scale(1.80291 3.60671)">
<stop stop-color="#EE352C"/>
<stop offset="1" stop-color="#A91D22"/>
</radialGradient>
<linearGradient id="paint6_linear_764_21917" x1="375" y1="555" x2="735" y2="555" gradientUnits="userSpaceOnUse">
<stop stop-color="#001638"/>
<stop offset="1" stop-color="#00398E"/>
</linearGradient>
<linearGradient id="paint7_linear_764_21917" x1="491.502" y1="555.006" x2="618.499" y2="555.006" gradientUnits="userSpaceOnUse">
<stop stop-color="#001638"/>
<stop offset="1" stop-color="#00398E"/>
</linearGradient>
<linearGradient id="paint8_linear_764_21917" x1="481.005" y1="555.002" x2="628.993" y2="555.002" gradientUnits="userSpaceOnUse">
<stop stop-color="#001638"/>
<stop offset="1" stop-color="#00398E"/>
</linearGradient>
<linearGradient id="paint9_linear_764_21917" x1="554.999" y1="489.926" x2="554.999" y2="620.072" gradientUnits="userSpaceOnUse">
<stop stop-color="#4791FF"/>
<stop offset="1" stop-color="#99C2FF"/>
</linearGradient>
<linearGradient id="paint10_linear_764_21917" x1="555.004" y1="503.568" x2="555.004" y2="606.426" gradientUnits="userSpaceOnUse">
<stop stop-color="#4791FF"/>
<stop offset="1" stop-color="#99C2FF"/>
</linearGradient>
<linearGradient id="paint11_linear_764_21917" x1="554.995" y1="516.17" x2="554.995" y2="593.838" gradientUnits="userSpaceOnUse">
<stop stop-color="#4791FF"/>
<stop offset="1" stop-color="#99C2FF"/>
</linearGradient>
<linearGradient id="paint12_linear_764_21917" x1="555" y1="523" x2="555" y2="587" gradientUnits="userSpaceOnUse">
<stop stop-color="white"/>
<stop offset="1" stop-color="white" stop-opacity="0"/>
</linearGradient>
<clipPath id="clip0_764_21917">
<rect width="24" height="21.3532" fill="white" transform="translate(663 393)"/>
</clipPath>
<clipPath id="clip1_764_21917">
<rect width="24" height="24" fill="white" transform="translate(767 431)"/>
</clipPath>
<clipPath id="clip2_764_21917">
<rect width="24" height="28.8685" fill="white" transform="translate(711 485)"/>
</clipPath>
<clipPath id="clip3_764_21917">
<rect width="24" height="28.2188" fill="white" transform="translate(711 597)"/>
</clipPath>
<clipPath id="clip4_764_21917">
<rect width="24" height="17.88" fill="white" transform="translate(767 657)"/>
</clipPath>
<clipPath id="clip5_764_21917">
<rect width="20.6869" height="24" fill="white" transform="translate(665 694)"/>
</clipPath>
<clipPath id="clip6_764_21917">
<rect width="24" height="24" fill="white" transform="translate(319 543)"/>
</clipPath>
<clipPath id="clip7_764_21917">
<rect width="34.3037" height="24" fill="white" transform="translate(418 694)"/>
</clipPath>
</defs>
</svg>
