<svg width="24" height="25" viewBox="0 0 24 25" fill="none" xmlns="http://www.w3.org/2000/svg">
<path d="M12 21.5C13.995 21.4999 15.9335 20.8372 17.511 19.616C19.0886 18.3948 20.2159 16.6843 20.716 14.753M12 21.5C10.005 21.4999 8.06654 20.8372 6.48898 19.616C4.91141 18.3948 3.78408 16.6843 3.284 14.753M12 21.5C14.485 21.5 16.5 17.47 16.5 12.5C16.5 7.53 14.485 3.5 12 3.5M12 21.5C9.515 21.5 7.5 17.47 7.5 12.5C7.5 7.53 9.515 3.5 12 3.5M20.716 14.753C20.901 14.033 21 13.278 21 12.5C21.0025 10.9521 20.6039 9.42999 19.843 8.082M20.716 14.753C18.0492 16.2314 15.0492 17.0048 12 17C8.838 17 5.867 16.185 3.284 14.753M3.284 14.753C3.09475 14.017 2.99933 13.26 3 12.5C3 10.895 3.42 9.387 4.157 8.082M12 3.5C13.5962 3.49933 15.1639 3.92336 16.5422 4.72856C17.9205 5.53377 19.0597 6.69117 19.843 8.082M12 3.5C10.4038 3.49933 8.83608 3.92336 7.45781 4.72856C6.07954 5.53377 4.94031 6.69117 4.157 8.082M19.843 8.082C17.6657 9.96793 14.8805 11.0041 12 11C9.002 11 6.26 9.9 4.157 8.082" stroke="url(#paint0_linear_508_8984)" stroke-linecap="round" stroke-linejoin="round"/>
<defs>
<linearGradient id="paint0_linear_508_8984" x1="3.2602" y1="5.15882" x2="21.9594" y2="9.81237" gradientUnits="userSpaceOnUse">
<stop stop-color="white"/>
<stop offset="1" stop-color="white" stop-opacity="0.51"/>
</linearGradient>
</defs>
</svg>
