<svg width="24" height="25" fill="none" xmlns="http://www.w3.org/2000/svg"><path d="M12 21.5a9.004 9.004 0 0 0 8.716-6.747M12 21.5a9.004 9.004 0 0 1-8.716-6.747M12 21.5c2.485 0 4.5-4.03 4.5-9s-2.015-9-4.5-9m0 18c-2.485 0-4.5-4.03-4.5-9s2.015-9 4.5-9m8.716 11.253a9.043 9.043 0 0 0-.873-6.671m.873 6.671A17.918 17.918 0 0 1 12 17a17.92 17.92 0 0 1-8.716-2.247m0 0A9.015 9.015 0 0 1 3 12.5c0-1.605.42-3.113 1.157-4.418M12 3.5a8.997 8.997 0 0 1 7.843 4.582M12 3.5a8.997 8.997 0 0 0-7.843 4.582m15.686 0A11.953 11.953 0 0 1 12 11c-2.998 0-5.74-1.1-7.843-2.918" stroke="url(#a)" stroke-linecap="round" stroke-linejoin="round"/><defs><linearGradient id="a" x1="3.26" y1="5.159" x2="21.959" y2="9.812" gradientUnits="userSpaceOnUse"><stop stop-color="#fff"/><stop offset="1" stop-color="#fff" stop-opacity=".51"/></linearGradient></defs></svg>