<svg width="1358" height="1358" fill="none" xmlns="http://www.w3.org/2000/svg"><g opacity=".6"><g opacity=".19" filter="url(#a)"><circle cx="679" cy="679" r="304" fill="url(#b)" fill-opacity=".9"/></g><g opacity=".4" filter="url(#c)"><circle cx="679" cy="679" r="107" fill="url(#d)"/></g><g opacity=".4" filter="url(#e)"><circle cx="679" cy="679" r="118" fill="#000"/></g><g opacity=".9" filter="url(#f)"><circle cx="679" cy="679" r="125" fill="url(#g)" fill-opacity=".9"/></g><g opacity=".3" filter="url(#h)"><circle cx="679" cy="679" r="82" fill="#000"/></g><mask id="j" style="mask-type:alpha" maskUnits="userSpaceOnUse" x="384" y="384" width="589" height="589"><circle opacity=".5" cx="678.5" cy="678.5" r="293.5" fill="url(#i)" stroke="#E535AB"/></mask><g mask="url(#j)" stroke="#E535AB"><circle opacity=".5" cx="679" cy="679" r="71.5"/><circle opacity=".4" cx="679" cy="679" r="95.5"/><circle opacity=".3" cx="679" cy="679" r="119.5"/><circle opacity=".1" cx="679" cy="679" r="143.5"/><circle opacity=".1" cx="679" cy="679" r="167.5"/></g></g><g filter="url(#k)"><rect x="627" y="627" width="104" height="104" rx="52" fill="#000"/><rect x="627.25" y="627.25" width="103.5" height="103.5" rx="51.75" stroke="url(#l)" stroke-opacity=".2" stroke-width=".5"/><path d="m660.171 690.323 1.725.996 19.218-33.285-1.725-.996-19.218 33.285Z" fill="#fff"/><path d="M698.212 687.664h-38.436v1.992h38.436v-1.992Z" fill="#fff"/><path d="m660.537 688.783 19.225 11.1.996-1.725-19.225-11.1-.996 1.725Zm16.701-28.929 19.225 11.1.996-1.726-19.225-11.1-.996 1.726Z" fill="#fff"/><path d="m660.542 669.221.996 1.725 19.225-11.1-.996-1.725-19.225 11.1Z" fill="#fff"/><path d="m676.89 658.034 19.218 33.285 1.725-.996-19.218-33.285-1.725.996Zm-13.598 9.866H661.3v22.2h1.992v-22.2Z" fill="#fff"/><path d="M696.7 667.9h-1.992v22.2h1.992v-22.2Z" fill="#fff"/><path d="m678.553 697.533.87 1.507 16.72-9.654-.87-1.507-16.72 9.654Z" fill="#fff"/><path d="M699.34 690.748c-1.152 2.004-3.72 2.688-5.724 1.536-2.004-1.152-2.688-3.72-1.536-5.724 1.152-2.004 3.72-2.688 5.724-1.536a4.176 4.176 0 0 1 1.536 5.724Zm-33.432-19.308c-1.152 2.004-3.72 2.688-5.724 1.536-2.004-1.152-2.688-3.72-1.536-5.724 1.152-2.004 3.72-2.688 5.724-1.536a4.197 4.197 0 0 1 1.536 5.724Zm-7.248 19.308a4.197 4.197 0 0 1 1.536-5.724 4.197 4.197 0 0 1 5.724 1.536 4.197 4.197 0 0 1-1.536 5.724c-2.016 1.152-4.572.468-5.724-1.536Zm33.432-19.308a4.197 4.197 0 0 1 1.536-5.724 4.197 4.197 0 0 1 5.724 1.536 4.197 4.197 0 0 1-1.536 5.724c-2.004 1.152-4.572.468-5.724-1.536ZM679 702.496a4.184 4.184 0 0 1-4.188-4.188A4.184 4.184 0 0 1 679 694.12a4.184 4.184 0 0 1 4.188 4.188 4.192 4.192 0 0 1-4.188 4.188Zm0-38.616a4.184 4.184 0 0 1-4.188-4.188 4.184 4.184 0 0 1 4.188-4.188 4.184 4.184 0 0 1 4.188 4.188A4.184 4.184 0 0 1 679 663.88Z" fill="#fff"/></g><defs><filter id="a" x=".61" y=".61" width="1356.78" height="1356.78" filterUnits="userSpaceOnUse" color-interpolation-filters="sRGB"><feFlood flood-opacity="0" result="BackgroundImageFix"/><feBlend in="SourceGraphic" in2="BackgroundImageFix" result="shape"/><feGaussianBlur stdDeviation="187.195" result="effect1_foregroundBlur_38_837"/></filter><filter id="c" x="463.778" y="463.778" width="430.444" height="430.444" filterUnits="userSpaceOnUse" color-interpolation-filters="sRGB"><feFlood flood-opacity="0" result="BackgroundImageFix"/><feBlend in="SourceGraphic" in2="BackgroundImageFix" result="shape"/><feGaussianBlur stdDeviation="54.111" result="effect1_foregroundBlur_38_837"/></filter><filter id="e" x="476.177" y="476.177" width="405.646" height="405.646" filterUnits="userSpaceOnUse" color-interpolation-filters="sRGB"><feFlood flood-opacity="0" result="BackgroundImageFix"/><feBlend in="SourceGraphic" in2="BackgroundImageFix" result="shape"/><feGaussianBlur stdDeviation="42.411" result="effect1_foregroundBlur_38_837"/></filter><filter id="f" x="480.877" y="480.877" width="396.246" height="396.246" filterUnits="userSpaceOnUse" color-interpolation-filters="sRGB"><feFlood flood-opacity="0" result="BackgroundImageFix"/><feBlend in="SourceGraphic" in2="BackgroundImageFix" result="shape"/><feGaussianBlur stdDeviation="36.562" result="effect1_foregroundBlur_38_837"/></filter><filter id="h" x="512.177" y="512.177" width="333.646" height="333.646" filterUnits="userSpaceOnUse" color-interpolation-filters="sRGB"><feFlood flood-opacity="0" result="BackgroundImageFix"/><feBlend in="SourceGraphic" in2="BackgroundImageFix" result="shape"/><feGaussianBlur stdDeviation="42.411" result="effect1_foregroundBlur_38_837"/></filter><filter id="k" x="611" y="612" width="136" height="139" filterUnits="userSpaceOnUse" color-interpolation-filters="sRGB"><feFlood flood-opacity="0" result="BackgroundImageFix"/><feGaussianBlur in="BackgroundImageFix" stdDeviation="7.5"/><feComposite in2="SourceAlpha" operator="in" result="effect1_backgroundBlur_38_837"/><feColorMatrix in="SourceAlpha" values="0 0 0 0 0 0 0 0 0 0 0 0 0 0 0 0 0 0 127 0" result="hardAlpha"/><feOffset dy="4"/><feGaussianBlur stdDeviation="8"/><feComposite in2="hardAlpha" operator="out"/><feColorMatrix values="0 0 0 0 0 0 0 0 0 0 0 0 0 0 0 0 0 0 0.25 0"/><feBlend in2="effect1_backgroundBlur_38_837" result="effect2_dropShadow_38_837"/><feBlend in="SourceGraphic" in2="effect2_dropShadow_38_837" result="shape"/></filter><linearGradient id="b" x1="375" y1="679" x2="983" y2="679" gradientUnits="userSpaceOnUse"><stop stop-color="#3A0027"/><stop offset="1" stop-color="#910061"/></linearGradient><linearGradient id="d" x1="572" y1="679" x2="786" y2="679" gradientUnits="userSpaceOnUse"><stop stop-color="#3A0027"/><stop offset="1" stop-color="#910061"/></linearGradient><linearGradient id="g" x1="554" y1="679" x2="804" y2="679" gradientUnits="userSpaceOnUse"><stop stop-color="#3A0027"/><stop offset="1" stop-color="#910061"/></linearGradient><linearGradient id="i" x1="678.5" y1="385" x2="678.5" y2="972" gradientUnits="userSpaceOnUse"><stop offset=".064" stop-color="#C4C4C4" stop-opacity="0"/><stop offset=".477" stop-color="#C4C4C4"/><stop offset=".789" stop-color="#C4C4C4" stop-opacity="0"/></linearGradient><linearGradient id="l" x1="679" y1="627" x2="679" y2="731" gradientUnits="userSpaceOnUse"><stop stop-color="#fff"/><stop offset="1" stop-color="#fff" stop-opacity="0"/></linearGradient></defs></svg>