<svg width="24" height="24" fill="none" xmlns="http://www.w3.org/2000/svg"><path fill-rule="evenodd" clip-rule="evenodd" d="M19.458 3.24c.693 1.998.693 4.608.163 5.892a2.986 2.986 0 0 0-.082 2.019c.265.795.408 1.63.408 2.528 0 4.464-3.609 8.032-8.053 7.95-4.22-.06-7.788-3.649-7.89-7.848a7.6 7.6 0 0 1 .408-2.65c.224-.653.224-1.367-.04-1.999-.51-1.264-.531-3.873.162-5.912.163-.367.734-.245.734.143v.143c.122 1.936.856 3.098 1.917 3.486a.55.55 0 0 0 .53-.041c1.243-.754 2.69-1.223 4.26-1.223a7.95 7.95 0 0 1 4.261 1.223.657.657 0 0 0 .612.04c1.04-.509 1.733-1.549 1.855-3.465v-.143c.02-.387.571-.51.755-.143Zm-7.36 4.384C8.673 7.542 5.859 10.356 5.94 13.8c.04 3.242 2.711 5.872 5.933 5.953 3.445.041 6.238-2.752 6.177-6.177-.061-3.242-2.711-5.912-5.953-5.953Zm-.612 3.2 1.427 2.202 1.387 2.202a.734.734 0 0 1 .122.408.78.78 0 0 1-.367.652.805.805 0 0 1-.877-.02c-.102-.061-.183-.122-.224-.224l-.795-1.142c-.061-.122-.204-.122-.306-.02l-1.121 1.304a.77.77 0 0 1-.55.245.838.838 0 0 1-.53-.183.77.77 0 0 1-.041-1.081l1.508-1.651c.062-.102.102-.245.02-.367l-.957-1.509a.735.735 0 0 1-.123-.408c0-.265.143-.51.367-.652a.763.763 0 0 1 1.06.245Z" fill="url(#a)"/><defs><linearGradient id="a" x1="4.231" y1="4.717" x2="21.111" y2="8.325" gradientUnits="userSpaceOnUse"><stop stop-color="#fff"/><stop offset="1" stop-color="#fff" stop-opacity=".35"/></linearGradient></defs></svg>