<svg width="16" height="16" viewBox="0 0 16 16" fill="none"
  xmlns="http://www.w3.org/2000/svg">
  <g clip-path="url(#clip0_2118_155)">
    <path fill-rule="evenodd" clip-rule="evenodd" d="M8.3781 0.852157L8.00019 0.631714L7.62229 0.852157L1.62229 4.35216L0.511719 4.99999L1.62229 5.64783L7.62229 9.14783L8.00019 9.36827L8.3781 9.14783L14.3781 5.64783L15.4887 4.99999L14.3781 4.35216L8.3781 0.852157ZM8.00019 7.63171L3.48867 4.99999L8.00019 2.36827L12.5117 4.99999L8.00019 7.63171ZM1.73026 6.97425L2.3781 7.35216L8.00019 10.6317L13.6223 7.35216L14.2701 6.97425L15.0259 8.26992L14.3781 8.64783L8.3781 12.1478L8.00019 12.3683L7.62229 12.1478L1.62229 8.64783L0.974458 8.26992L1.73026 6.97425ZM1.73026 9.97425L2.3781 10.3522L8.00019 13.6317L13.6223 10.3522L14.2701 9.97425L15.0259 11.2699L14.3781 11.6478L8.3781 15.1478L8.00019 15.3683L7.62229 15.1478L1.62229 11.6478L0.974458 11.2699L1.73026 9.97425Z" fill="url(#paint0_linear_2118_155)"/>
  </g>
  <defs>
    <linearGradient id="paint0_linear_2118_155" x1="0.511719" y1="7.99999" x2="15.4887" y2="7.99999" gradientUnits="userSpaceOnUse">
      <stop stop-color="white"/>
      <stop offset="1" stop-color="white" stop-opacity="0.2"/>
    </linearGradient>
    <clipPath id="clip0_2118_155">
      <rect width="16" height="16" fill="white"/>
    </clipPath>
  </defs>
</svg>
  