<svg width="16" height="16" viewBox="0 0 16 16" fill="none"
  xmlns="http://www.w3.org/2000/svg">
  <path d="M13.7593 7.57265L4.76073 2.07336C4.68494 2.02704 4.59817 2.00175 4.50936 2.00009C4.42055 1.99842 4.3329 2.02045 4.25542 2.0639C4.17795 2.10735 4.11345 2.17065 4.06856 2.2473C4.02366 2.32395 4 2.41117 4 2.5V13.4986C4 13.5874 4.02366 13.6746 4.06856 13.7513C4.11345 13.8279 4.17795 13.8912 4.25542 13.9347C4.3329 13.9781 4.42055 14.0002 4.50936 13.9985C4.59817 13.9968 4.68494 13.9715 4.76073 13.9252L13.7593 8.42593C13.8324 8.38126 13.8927 8.31857 13.9346 8.24387C13.9765 8.16916 13.9985 8.08494 13.9985 7.99929C13.9985 7.91364 13.9765 7.82942 13.9346 7.75471C13.8927 7.68001 13.8324 7.61732 13.7593 7.57265Z" stroke="url(#paint0_linear_1668_6522)" stroke-linecap="round" stroke-linejoin="round"/>
  <defs>
    <linearGradient id="paint0_linear_1668_6522" x1="8.99927" y1="2" x2="8.99927" y2="13.9986" gradientUnits="userSpaceOnUse">
      <stop stop-color="white"/>
      <stop offset="1" stop-color="white" stop-opacity="0.4"/>
    </linearGradient>
  </defs>
</svg>
  