<svg width="24" height="24" fill="none" xmlns="http://www.w3.org/2000/svg"><path d="M13.698 20.76c-1.206 0-1.602-.953-1.746-1.35-.234-.575-.288-2.735-.234-4.607 0-.144.126-.252.252-.252.144 0 .252.126.252.252-.054 2.106.036 3.996.198 4.41.252.648.648 1.224 1.764.972 1.08-.234 1.458-.612 1.638-1.656.144-.792.414-3.06.45-3.51a.258.258 0 0 1 .27-.234.258.258 0 0 1 .234.27c-.036.468-.306 2.718-.45 3.546-.216 1.242-.756 1.8-2.034 2.07-.216.072-.414.09-.594.09Zm-6.516-4.643a.941.941 0 0 1-.324-.054c-.792-.27-1.53-1.53-2.214-3.798-.522-1.71-.846-3.492-.882-4.086-.09-1.728.36-2.952 1.332-3.636.81-.576 1.944-.756 3.366-.522a8.658 8.658 0 0 1 1.872.504c.126.054.198.198.144.324-.054.126-.198.198-.324.144-.036 0-3.096-1.224-4.77-.036-.81.576-1.188 1.656-1.116 3.204.018.486.342 2.232.864 3.96.612 1.998 1.296 3.258 1.908 3.456.09.036.378.126.774-.36.774-.936 1.494-1.674 1.494-1.692.09-.108.252-.108.36 0 .108.09.108.252 0 .36 0 0-.702.738-1.476 1.656-.36.45-.72.576-1.008.576Zm10.152-1.962c-.054 0-.09-.018-.144-.036a.256.256 0 0 1-.072-.342c2.16-3.222 2.934-7.092 2.286-7.92-.81-1.044-1.962-1.584-3.42-1.62-1.08-.018-1.944.252-2.088.306-.018 0-.018.018-.036.018a.24.24 0 0 1-.306-.126.247.247 0 0 1 .108-.324c.09-.054 1.08-.378 2.268-.36 1.62.018 2.97.648 3.888 1.818.234.288.342.774.324 1.404-.018.594-.126 1.314-.324 2.088a16.507 16.507 0 0 1-2.268 5.004.374.374 0 0 1-.216.09Z" fill="url(#a)"/><path d="M17.442 15.63c-.378 0-.702-.053-.918-.18-.216-.125-.252-.305-.252-.395-.054-.972.468-1.152.756-1.242-.036-.054-.09-.108-.126-.18a3.742 3.742 0 0 1-.558-.9c-.018-.072-.108-.216-.198-.378-.522-.936-1.62-2.898-.918-3.906.324-.468.972-.648 1.908-.558a5.58 5.58 0 0 0-1.008-1.746c-.702-.756-1.89-1.71-3.744-1.746-.936-.018-1.71.27-2.304.864C8.784 6.577 8.82 8.97 8.82 8.989a.246.246 0 0 1-.252.252.246.246 0 0 1-.252-.252c0-.108-.054-2.628 1.404-4.086.684-.684 1.584-1.026 2.664-1.008 2.016.036 3.33 1.062 4.068 1.926.81.936 1.188 1.962 1.224 2.304.018.27-.18.324-.216.342h-.09c-1.152-.18-1.584.054-1.764.306-.522.756.504 2.592.936 3.366.108.198.198.342.234.432.144.342.324.576.486.774.126.162.252.306.288.486.018.036.306.414 1.872.09.414-.09.666-.018.738.216.144.45-.684.972-1.134 1.188-.378.198-1.026.306-1.584.306Zm-.666-.611c.054.054.324.126.828.108.468-.018.954-.126 1.242-.252.342-.162.576-.324.72-.468h-.018c-1.026.216-1.764.18-2.178-.09-.018-.018-.054-.036-.072-.054-.036.018-.072.018-.108.036-.234.072-.45.126-.414.72Zm-6.678 1.332c-.252 0-.522-.036-.81-.108-.072-.018-.774-.216-.774-.648 0-.414.594-.54.81-.576.774-.162.828-.216 1.062-.522.072-.09.162-.198.288-.342.396-.45.792-.288.954-.234.252.108.468.36.558.666.072.27.036.54-.108.756a2.36 2.36 0 0 1-1.98 1.008Zm-1.026-.738c.072.054.198.108.342.144.666.162 1.602.18 2.25-.72.072-.108.054-.252.036-.324a.524.524 0 0 0-.27-.342c-.144-.054-.216-.09-.378.09-.108.126-.198.234-.27.306-.306.396-.45.522-1.368.702-.162.072-.27.126-.342.144Z" fill="url(#b)"/><path d="M10.836 14.55a.252.252 0 0 1-.252-.215c0-.036 0-.072-.018-.108a2.32 2.32 0 0 1-1.602-.72 2.576 2.576 0 0 1-.684-2.196c.126-.882.072-1.656.054-2.07 0-.108-.018-.198-.018-.252 0-.072 0-.288.666-.612a3.522 3.522 0 0 1 1.206-.378c.846-.09 1.422.288 1.584 1.08.45 2.088.036 3.006-.27 3.672-.054.126-.108.234-.144.36l-.036.108c-.162.432-.288.792-.252 1.062.018.144-.072.27-.216.288 0-.018 0-.018-.018-.018ZM8.838 9.06v.163c.018.432.072 1.242-.054 2.178-.09.666.108 1.314.558 1.782.342.36.81.576 1.278.576.054-.216.144-.468.234-.72l.036-.108c.054-.126.108-.252.162-.396.288-.648.648-1.44.234-3.366-.072-.378-.27-.594-.594-.666-.666-.144-1.656.378-1.854.558Z" fill="url(#c)"/><path d="M10.224 8.953c-.018.09.144.306.36.324.216.036.396-.144.396-.216.018-.09-.144-.18-.36-.198-.198-.036-.396.018-.396.09Z" fill="url(#d)"/><path d="M10.638 9.367h-.054a.631.631 0 0 1-.36-.216c-.036-.036-.09-.126-.072-.198 0-.036.018-.072.072-.108.09-.072.252-.09.432-.054.216.036.45.144.432.306-.036.108-.234.27-.45.27Zm-.324-.396c.018.054.126.216.288.234a.35.35 0 0 0 .306-.144.493.493 0 0 0-.288-.108c-.18-.036-.288 0-.306.018Zm6.354-.18c.018.09-.144.306-.36.324-.216.036-.396-.144-.396-.216-.018-.09.144-.18.36-.198.198-.036.378 0 .396.09Z" fill="url(#e)"/><path d="M16.254 9.169c-.216 0-.378-.162-.396-.27-.018-.126.18-.216.396-.252.216-.036.432 0 .45.126a.348.348 0 0 1-.108.216c-.054.054-.144.144-.288.162-.018.018-.036.018-.054.018Zm.144-.45c-.036 0-.072 0-.126.018-.216.036-.324.126-.324.162 0 .054.162.216.36.18a.47.47 0 0 0 .234-.126c.072-.072.09-.126.09-.144-.018-.036-.09-.09-.234-.09Zm.576 4.824c-.054 0-.09-.018-.144-.036a.256.256 0 0 1-.072-.342c.486-.738.396-1.494.306-2.214a8.196 8.196 0 0 1-.072-.954c.018-.324.054-.576.09-.828a3.8 3.8 0 0 0 .072-.918c0-.144.108-.252.234-.27.144 0 .252.108.27.234.018.396-.036.702-.072 1.026a8.376 8.376 0 0 0-.09.774c0 .27.018.558.054.864.09.774.198 1.656-.396 2.556-.018.054-.108.108-.18.108Z" fill="url(#f)"/><defs><linearGradient id="a" x1="3.988" y1="5.318" x2="21.12" y2="9.434" gradientUnits="userSpaceOnUse"><stop stop-color="#fff"/><stop offset="1" stop-color="#fff" stop-opacity=".35"/></linearGradient><linearGradient id="b" x1="3.988" y1="5.318" x2="21.12" y2="9.434" gradientUnits="userSpaceOnUse"><stop stop-color="#fff"/><stop offset="1" stop-color="#fff" stop-opacity=".35"/></linearGradient><linearGradient id="c" x1="3.988" y1="5.318" x2="21.12" y2="9.434" gradientUnits="userSpaceOnUse"><stop stop-color="#fff"/><stop offset="1" stop-color="#fff" stop-opacity=".35"/></linearGradient><linearGradient id="d" x1="3.988" y1="5.318" x2="21.12" y2="9.434" gradientUnits="userSpaceOnUse"><stop stop-color="#fff"/><stop offset="1" stop-color="#fff" stop-opacity=".35"/></linearGradient><linearGradient id="e" x1="3.988" y1="5.318" x2="21.12" y2="9.434" gradientUnits="userSpaceOnUse"><stop stop-color="#fff"/><stop offset="1" stop-color="#fff" stop-opacity=".35"/></linearGradient><linearGradient id="f" x1="3.988" y1="5.318" x2="21.12" y2="9.434" gradientUnits="userSpaceOnUse"><stop stop-color="#fff"/><stop offset="1" stop-color="#fff" stop-opacity=".35"/></linearGradient></defs></svg>