<svg width="30" height="30" viewBox="0 0 30 30" fill="none"
  xmlns="http://www.w3.org/2000/svg">
  <path d="M9.37448 15C9.37448 13.1458 9.92431 11.3332 10.9544 9.79153C11.9846 8.24982 13.4488 7.04821 15.1618 6.33863C16.8749 5.62906 18.7599 5.44341 20.5784 5.80514C22.397 6.16688 24.0675 7.05976 25.3786 8.37088C26.6897 9.682 27.5826 11.3525 27.9443 13.171C28.3061 14.9896 28.1204 16.8746 27.4108 18.5877C26.7013 20.3007 25.4997 21.7649 23.9579 22.795C22.4162 23.8252 20.6037 24.375 18.7495 24.375H8.43698C7.50632 24.3741 6.58649 24.1753 5.73856 23.7917C4.89062 23.4081 4.13397 22.8485 3.51883 22.1502C2.90368 21.4518 2.44411 20.6306 2.17062 19.741C1.89713 18.8514 1.81597 17.9139 1.93254 16.9906C2.0491 16.0672 2.36072 15.1792 2.84672 14.3856C3.33271 13.5919 3.98196 12.9106 4.75137 12.3871C5.52078 11.8635 6.39275 11.5095 7.30941 11.3487C8.22607 11.1879 9.16645 11.2239 10.0681 11.4543" stroke="url(#paint0_linear_1638_20536)" stroke-width="1.5" stroke-linecap="round" stroke-linejoin="round"/>
  <defs>
    <linearGradient id="paint0_linear_1638_20536" x1="15.0027" y1="5.625" x2="15.0027" y2="24.375" gradientUnits="userSpaceOnUse">
      <stop stop-color="white"/>
      <stop offset="1" stop-color="white" stop-opacity="0.35"/>
    </linearGradient>
  </defs>
</svg>
  