<svg width="28" height="30" viewBox="0 0 28 30" fill="none"
  xmlns="http://www.w3.org/2000/svg">
  <path fill-rule="evenodd" clip-rule="evenodd" d="M13.2699 5.44685C13.5014 5.51366 13.7461 5.54945 13.9992 5.54945C14.2531 5.54945 14.4985 5.51345 14.7305 5.44627L22.6349 19.1366C22.458 19.3053 22.3021 19.5018 22.1741 19.7244C22.0469 19.9457 21.9555 20.1779 21.8982 20.4144H6.10032C6.04298 20.1781 5.95155 19.9458 5.82425 19.7244C5.69577 19.5032 5.54015 19.3077 5.36409 19.1398L13.2699 5.44685ZM12.1162 4.75153C12.1406 4.77678 12.1655 4.80153 12.1909 4.82578L4.28473 18.5193C4.25057 18.5094 4.21622 18.5002 4.18169 18.4917V11.5059C4.8479 11.3403 5.4482 10.9154 5.81669 10.2743C6.1847 9.63416 6.25293 8.90385 6.06444 8.24565L12.1162 4.75153ZM16.5086 3.68009C16.579 3.44312 16.6167 3.19201 16.6167 2.93195C16.6167 1.48445 15.4467 0.314453 13.9992 0.314453C12.5517 0.314453 11.3817 1.48445 11.3817 2.93195C11.3817 3.19061 11.4191 3.44041 11.4887 3.67625L5.44798 7.16399C5.27853 6.98505 5.08082 6.82701 4.85669 6.69683C3.60419 5.97683 1.99919 6.40433 1.27919 7.65683C0.559192 8.90933 0.986692 10.5143 2.23919 11.2343C2.46281 11.3629 2.69765 11.4549 2.9367 11.5121V18.4883C2.7004 18.5457 2.46818 18.6371 2.24675 18.7644C0.994245 19.4919 0.566746 21.0894 1.28675 22.3419C2.00675 23.5944 3.60425 24.0219 4.86425 23.3019C5.08601 23.1731 5.2819 23.017 5.45015 22.8404L11.4876 26.3262C11.4187 26.561 11.3817 26.8095 11.3817 27.0669C11.3817 28.5144 12.5517 29.6844 13.9992 29.6844C15.4467 29.6844 16.6167 28.5069 16.6167 27.0669C16.6167 26.7785 16.5703 26.5012 16.4845 26.2419L22.4867 22.7764C22.6681 22.9801 22.8848 23.1586 23.1341 23.3019C24.3866 24.0219 25.9916 23.5944 26.7116 22.3419C27.4391 21.0894 27.0116 19.4919 25.7516 18.7644C25.5304 18.6372 25.2981 18.5458 25.0617 18.4885V11.5121C25.3007 11.4548 25.5356 11.3629 25.7592 11.2343C27.0117 10.5068 27.4392 8.90933 26.7192 7.65683C25.9917 6.40433 24.3942 5.97683 23.1417 6.69683C22.9164 6.8277 22.7177 6.98674 22.5477 7.16685L16.5086 3.68009ZM15.809 4.82436C15.8329 4.80149 15.8564 4.77817 15.8794 4.75441L21.9328 8.24944C21.7457 8.90666 21.8144 9.63539 22.1817 10.2743C22.5502 10.9154 23.1505 11.3403 23.8167 11.5059V18.491C23.7827 18.4993 23.7489 18.5083 23.7153 18.518L15.809 4.82436ZM21.9491 21.8311L15.935 25.3035C15.4565 24.7784 14.7669 24.4494 13.9992 24.4494C13.2579 24.4494 12.5894 24.7562 12.1136 25.2501L6.06983 21.7606C6.07955 21.727 6.08859 21.6933 6.09697 21.6594H21.9007C21.9149 21.7172 21.931 21.7744 21.9491 21.8311Z" fill="url(#paint0_linear_1657_6407)"/>
  <defs>
    <linearGradient id="paint0_linear_1657_6407" x1="13.9992" y1="0.314453" x2="13.9992" y2="29.6844" gradientUnits="userSpaceOnUse">
      <stop stop-color="white"/>
      <stop offset="1" stop-color="white" stop-opacity="0.35"/>
    </linearGradient>
  </defs>
</svg>
  