<svg width="30" height="30" viewBox="0 0 30 30" fill="none"
  xmlns="http://www.w3.org/2000/svg">
  <path fill-rule="evenodd" clip-rule="evenodd" d="M8.0671 6.05595C6.30255 7.01843 5.4375 8.22482 5.4375 9.375C5.4375 10.5252 6.30255 11.7316 8.0671 12.6941C9.80329 13.6411 12.253 14.25 15 14.25C17.747 14.25 20.1967 13.6411 21.9329 12.6941C23.6975 11.7316 24.5625 10.5252 24.5625 9.375C24.5625 8.22482 23.6975 7.01843 21.9329 6.05595C20.1967 5.10893 17.747 4.5 15 4.5C12.253 4.5 9.80329 5.10893 8.0671 6.05595ZM7.34882 4.7391C5.38098 5.81247 3.9375 7.41858 3.9375 9.375V15V20.625C3.9375 22.5814 5.38098 24.1875 7.34882 25.2609C9.34503 26.3497 12.0515 27 15 27C17.9485 27 20.655 26.3497 22.6512 25.2609C24.619 24.1875 26.0625 22.5814 26.0625 20.625V15V9.375C26.0625 7.41858 24.619 5.81247 22.6512 4.7391C20.655 3.65026 17.9485 3 15 3C12.0515 3 9.34503 3.65026 7.34882 4.7391ZM24.5625 18.2459V20.625C24.5625 21.7752 23.6975 22.9816 21.9329 23.9441C20.1967 24.8911 17.747 25.5 15 25.5C12.253 25.5 9.80329 24.8911 8.0671 23.9441C6.30255 22.9816 5.4375 21.7752 5.4375 20.625V18.2459C5.9734 18.7751 6.62571 19.2415 7.34882 19.6359C9.34503 20.7247 12.0515 21.375 15 21.375C17.9485 21.375 20.655 20.7247 22.6512 19.6359C23.3743 19.2415 24.0266 18.7751 24.5625 18.2459ZM5.4375 15C5.4375 16.1502 6.30255 17.3566 8.0671 18.3191C9.80329 19.2661 12.253 19.875 15 19.875C17.747 19.875 20.1967 19.2661 21.9329 18.3191C23.6975 17.3566 24.5625 16.1502 24.5625 15V12.6209C24.0266 13.1501 23.3743 13.6165 22.6512 14.0109C20.655 15.0997 17.9485 15.75 15 15.75C12.0515 15.75 9.34503 15.0997 7.34882 14.0109C6.62571 13.6165 5.9734 13.1501 5.4375 12.6209V15Z" fill="url(#paint0_linear_1638_20520)"/>
  <defs>
    <linearGradient id="paint0_linear_1638_20520" x1="15" y1="3" x2="15" y2="27" gradientUnits="userSpaceOnUse">
      <stop stop-color="white"/>
      <stop offset="1" stop-color="white" stop-opacity="0.35"/>
    </linearGradient>
  </defs>
</svg>
  