<svg width="26" height="28" viewBox="0 0 26 28" fill="none"
  xmlns="http://www.w3.org/2000/svg">
  <path fill-rule="evenodd" clip-rule="evenodd" d="M13.3781 1.1638L13.0002 0.943359L12.6223 1.1638L1.37229 7.7263L0.261719 8.37414L1.37229 9.02197L12.6223 15.5845L13.0002 15.8049L13.3781 15.5845L24.6281 9.02197L25.7387 8.37414L24.6281 7.7263L13.3781 1.1638ZM13.0002 14.0684L3.23867 8.37414L13.0002 2.67991L22.7617 8.37414L13.0002 14.0684ZM1.48026 12.9734L2.1281 13.3513L13.0002 19.6934L23.8723 13.3513L24.5201 12.9734L25.2759 14.2691L24.6281 14.647L13.3781 21.2095L13.0002 21.4299L12.6223 21.2095L1.37229 14.647L0.724458 14.2691L1.48026 12.9734ZM1.48026 18.5984L2.1281 18.9763L13.0002 25.3184L23.8723 18.9763L24.5201 18.5984L25.2759 19.8941L24.6281 20.272L13.3781 26.8345L13.0002 27.0549L12.6223 26.8345L1.37229 20.272L0.724458 19.8941L1.48026 18.5984Z" fill="url(#paint0_linear_1657_139)"/>
  <defs>
    <linearGradient id="paint0_linear_1657_139" x1="13.0002" y1="0.943359" x2="13.0002" y2="27.0549" gradientUnits="userSpaceOnUse">
      <stop stop-color="white"/>
      <stop offset="0.9999" stop-color="white" stop-opacity="0.4"/>
      <stop offset="1" stop-color="#D9D9D9" stop-opacity="0"/>
    </linearGradient>
  </defs>
</svg>
  