<svg width="116" height="40" fill="none" xmlns="http://www.w3.org/2000/svg"><g clip-path="url(#a)"><mask id="c" style="mask-type:alpha" maskUnits="userSpaceOnUse" x="-83" y="-49" width="282" height="240"><path fill="url(#b)" d="M-83-49h282v240H-83z"/></mask><g mask="url(#c)"><rect x=".25" y="8.25" width="23.5" height="23.5" rx="11.75" fill="#000"/><g clip-path="url(#d)"><path d="M17.53 16.895c.008.122.008.245.008.369 0 3.767-2.868 8.111-8.111 8.111v-.002a8.071 8.071 0 0 1-4.37-1.278 5.725 5.725 0 0 0 4.22-1.181 2.855 2.855 0 0 1-2.665-1.98c.428.082.868.065 1.288-.05a2.851 2.851 0 0 1-2.287-2.794v-.036c.396.22.84.343 1.294.357a2.854 2.854 0 0 1-.883-3.807 8.091 8.091 0 0 0 5.876 2.978 2.853 2.853 0 0 1 4.858-2.6 5.721 5.721 0 0 0 1.81-.692 2.861 2.861 0 0 1-1.253 1.577 5.669 5.669 0 0 0 1.637-.449 5.792 5.792 0 0 1-1.422 1.477Z" fill="#1D9BF0"/></g><rect x=".25" y="8.25" width="23.5" height="23.5" rx="11.75" stroke="#262626" stroke-width=".5"/><rect x="92.25" y="8.25" width="23.5" height="23.5" rx="11.75" fill="#000"/><g clip-path="url(#e)"><path d="M102.845 26.93C99.52 26.335 97 23.465 97 20c0-3.85 3.15-7 7-7s7 3.15 7 7c0 3.465-2.52 6.335-5.845 6.93l-.385-.315h-1.54l-.385.315Z" fill="url(#f)"/><path d="m106.73 21.96.315-1.96h-1.855v-1.364c0-.56.21-.98 1.05-.98h.91V15.87c-.49-.07-1.05-.14-1.54-.14-1.61 0-2.73.98-2.73 2.73V20h-1.75v1.96h1.75v4.934a6.444 6.444 0 0 0 2.31 0V21.96h1.54Z" fill="#fff"/></g><rect x="92.25" y="8.25" width="23.5" height="23.5" rx="11.75" stroke="#262626" stroke-width=".5"/><rect x="15.25" y="4.25" width="31.5" height="31.5" rx="15.75" fill="#000"/><g clip-path="url(#g)"><path d="M31 12a8 8 0 0 0-2.529 15.591c.4.074.529-.174.529-.384v-1.49c-2.225.484-2.689-.944-2.689-.944-.364-.924-.888-1.17-.888-1.17-.726-.497.055-.486.055-.486.803.056 1.226.824 1.226.824.713 1.223 1.871.87 2.328.665.071-.517.279-.87.508-1.07-1.777-.203-3.645-.889-3.645-3.953a3.1 3.1 0 0 1 .824-2.148c-.082-.202-.356-1.016.078-2.117 0 0 .672-.215 2.201.82a7.672 7.672 0 0 1 2.002-.27c.68.004 1.365.093 2.004.27 1.527-1.035 2.198-.82 2.198-.82.435 1.102.161 1.916.079 2.117a3.09 3.09 0 0 1 .823 2.148c0 3.072-1.871 3.749-3.653 3.947.287.248.549.735.549 1.481v2.196c0 .212.128.462.534.384A8.002 8.002 0 0 0 31 12Z" fill="#fff"/></g><rect x="15.25" y="4.25" width="31.5" height="31.5" rx="15.75" stroke="#262626" stroke-width=".5"/><rect x="69.25" y="4.25" width="31.5" height="31.5" rx="15.75" fill="#000"/><g clip-path="url(#h)"><path d="M92.04 20.166c0-.52-.047-1.02-.133-1.5H85v2.84h3.947a3.382 3.382 0 0 1-1.474 2.207v1.846h2.38c1.387-1.28 2.187-3.16 2.187-5.393Z" fill="#4285F4"/><path d="M85 27.334c1.98 0 3.64-.654 4.853-1.774l-2.38-1.846c-.653.44-1.486.706-2.473.706-1.907 0-3.527-1.286-4.107-3.02h-2.44v1.894A7.326 7.326 0 0 0 85 27.334Z" fill="#34A853"/><path d="M80.894 21.393A4.394 4.394 0 0 1 80.66 20c0-.487.087-.954.234-1.394v-1.893h-2.44a7.244 7.244 0 0 0 0 6.573l1.9-1.48.54-.413Z" fill="#FBBC05"/><path d="M85 15.586c1.08 0 2.04.373 2.806 1.093l2.1-2.1c-1.273-1.186-2.926-1.913-4.906-1.913a7.32 7.32 0 0 0-6.547 4.047l2.44 1.893c.58-1.733 2.2-3.02 4.107-3.02Z" fill="#EA4335"/></g><rect x="69.25" y="4.25" width="31.5" height="31.5" rx="15.75" stroke="#262626" stroke-width=".5"/><rect x="38.25" y=".25" width="39.5" height="39.5" rx="19.75" fill="#000"/><g clip-path="url(#i)"><path d="M66.33 12.517A19.912 19.912 0 0 0 61.38 11a13.91 13.91 0 0 0-.634 1.284 18.64 18.64 0 0 0-5.488 0A13.6 13.6 0 0 0 54.615 11c-1.738.293-3.401.81-4.955 1.52-3.133 4.618-3.983 9.12-3.558 13.558a19.992 19.992 0 0 0 6.073 3.034c.489-.656.925-1.353 1.3-2.088a13.03 13.03 0 0 1-2.048-.972c.172-.124.34-.254.502-.388 3.95 1.801 8.24 1.801 12.142 0 .164.134.332.264.502.388-.65.381-1.337.708-2.052.973.376.734.81 1.433 1.3 2.089a19.954 19.954 0 0 0 6.077-3.036c.498-5.145-.851-9.606-3.568-13.561ZM54.013 23.349c-1.185 0-2.157-1.08-2.157-2.393 0-1.314.951-2.395 2.157-2.395s2.179 1.079 2.158 2.395c.002 1.314-.952 2.393-2.158 2.393Zm7.974 0c-1.186 0-2.158-1.08-2.158-2.393 0-1.314.952-2.395 2.158-2.395s2.178 1.079 2.157 2.395c0 1.314-.951 2.393-2.157 2.393Z" fill="#5865F2"/></g><rect x="38.25" y=".25" width="39.5" height="39.5" rx="19.75" stroke="#262626" stroke-width=".5"/></g></g><defs><clipPath id="a"><path fill="#fff" d="M0 0h116v40H0z"/></clipPath><clipPath id="d"><path fill="#fff" transform="translate(5 14)" d="M0 0h14v11.516H0z"/></clipPath><clipPath id="e"><path fill="#fff" transform="translate(97 13)" d="M0 0h14v14H0z"/></clipPath><clipPath id="g"><path fill="#fff" transform="translate(23 12)" d="M0 0h16v16H0z"/></clipPath><clipPath id="h"><path fill="#fff" transform="translate(77 12)" d="M0 0h16v16H0z"/></clipPath><clipPath id="i"><path fill="#fff" transform="translate(38)" d="M0 0h40v40H0z"/></clipPath><linearGradient id="b" x1="58" y1="86" x2="58" y2="-4" gradientUnits="userSpaceOnUse"><stop offset=".521" stop-opacity="0"/><stop offset=".762"/></linearGradient><linearGradient id="f" x1="104" y1="26.513" x2="104" y2="12.997" gradientUnits="userSpaceOnUse"><stop stop-color="#0062E0"/><stop offset="1" stop-color="#19AFFF"/></linearGradient></defs></svg>