<svg width="24" height="24" viewBox="0 0 24 24" fill="none" xmlns="http://www.w3.org/2000/svg">
<path d="M14.6994 6.29974C14.5161 6.48666 14.4135 6.73798 14.4135 6.99974C14.4135 7.26149 14.5161 7.51281 14.6994 7.69974L16.2994 9.29974C16.4863 9.48296 16.7376 9.58559 16.9994 9.58559C17.2611 9.58559 17.5124 9.48296 17.6994 9.29974L21.4694 5.52974C21.9722 6.64092 22.1245 7.87897 21.9058 9.07888C21.6872 10.2788 21.1081 11.3836 20.2456 12.246C19.3832 13.1084 18.2784 13.6876 17.0785 13.9062C15.8786 14.1248 14.6406 13.9726 13.5294 13.4697L6.61937 20.3797C6.22154 20.7776 5.68198 21.0011 5.11937 21.0011C4.55676 21.0011 4.01719 20.7776 3.61937 20.3797C3.22154 19.9819 2.99805 19.4423 2.99805 18.8797C2.99805 18.3171 3.22154 17.7776 3.61937 17.3797L10.5294 10.4697C10.0265 9.35855 9.87428 8.1205 10.0929 6.92059C10.3115 5.72068 10.8907 4.61589 11.7531 3.75346C12.6155 2.89102 13.7203 2.3119 14.9202 2.09328C16.1201 1.87465 17.3582 2.0269 18.4694 2.52974L14.7094 6.28974L14.6994 6.29974Z" stroke="url(#paint0_linear_1088_19560)" stroke-width="2" stroke-linecap="round" stroke-linejoin="round"/>
<defs>
<linearGradient id="paint0_linear_1088_19560" x1="3.27278" y1="3.74753" x2="23.0159" y2="8.66089" gradientUnits="userSpaceOnUse">
<stop stop-color="white"/>
<stop offset="1" stop-color="white" stop-opacity="0.35"/>
</linearGradient>
</defs>
</svg>
