<svg width="24" height="24" viewBox="0 0 24 24" fill="none" xmlns="http://www.w3.org/2000/svg">
<g clip-path="url(#clip0_1088_19551)">
<path fill-rule="evenodd" clip-rule="evenodd" d="M0.876516 0H22.4972C22.9813 0 23.3738 0.38802 23.3738 0.866667V22.2444C23.3738 22.7231 22.9813 23.1111 22.4972 23.1111H0.876516C0.392429 23.1111 0 22.7231 0 22.2444V0.866667C0 0.38802 0.392429 0 0.876516 0ZM12.9933 12.2955V10.4H4.67475V12.2955H7.64462V20.7351H10.0089V12.2955H12.9933ZM13.9359 20.5123C14.3172 20.7044 14.7681 20.8486 15.2886 20.9447C15.8092 21.0408 16.3579 21.0889 16.9347 21.0889C17.4968 21.0889 18.0308 21.036 18.5367 20.9303C19.0426 20.8246 19.4861 20.6504 19.8674 20.4077C20.2486 20.1651 20.5505 19.848 20.7729 19.4564C20.9953 19.0647 21.1065 18.5806 21.1065 18.004C21.1065 17.586 21.0429 17.2196 20.9158 16.9049C20.7888 16.5901 20.6055 16.3102 20.366 16.0652C20.1265 15.8201 19.8393 15.6003 19.5044 15.4057C19.1696 15.2111 18.7921 15.0273 18.3717 14.8543C18.0637 14.7293 17.7876 14.608 17.5432 14.4903C17.2988 14.3726 17.091 14.2524 16.92 14.13C16.7489 14.0074 16.617 13.8777 16.5241 13.7407C16.4312 13.6038 16.3848 13.4488 16.3848 13.2758C16.3848 13.1172 16.4263 12.9743 16.5094 12.847C16.5925 12.7196 16.7098 12.6103 16.8613 12.519C17.0129 12.4277 17.1986 12.3569 17.4186 12.3064C17.6385 12.256 17.8829 12.2308 18.1517 12.2308C18.3473 12.2308 18.5538 12.2452 18.7713 12.274C18.9888 12.3028 19.2076 12.3473 19.4275 12.4073C19.6475 12.4674 19.8613 12.543 20.0691 12.6344C20.2768 12.7257 20.4686 12.8314 20.6446 12.9515V10.7964C20.2877 10.6619 19.898 10.5621 19.4751 10.4973C19.0524 10.4324 18.5672 10.4 18.0197 10.4C17.4626 10.4 16.9347 10.4588 16.4361 10.5766C15.9375 10.6943 15.4988 10.8781 15.12 11.128C14.7412 11.3779 14.4418 11.6962 14.2219 12.0829C14.0019 12.4698 13.8919 12.9323 13.8919 13.4704C13.8919 14.1576 14.0935 14.7438 14.4968 15.2291C14.9001 15.7144 15.5123 16.1252 16.3334 16.4616C16.6561 16.5914 16.9566 16.7187 17.2353 16.8436C17.5139 16.9685 17.7546 17.0983 17.9574 17.2328C18.1603 17.3674 18.3204 17.5139 18.4377 17.6724C18.555 17.831 18.6137 18.0112 18.6137 18.2131C18.6137 18.362 18.577 18.5002 18.5036 18.6275C18.4303 18.7548 18.3191 18.8653 18.17 18.959C18.021 19.0527 17.8353 19.126 17.6129 19.1788C17.3905 19.2317 17.1301 19.2581 16.832 19.2581C16.3236 19.2581 15.8202 19.1705 15.3216 18.9951C14.8231 18.8197 14.3612 18.5566 13.9359 18.2059V20.5123Z" fill="url(#paint0_linear_1088_19551)"/>
</g>
<defs>
<linearGradient id="paint0_linear_1088_19551" x1="0.337887" y1="2.12985" x2="24.5872" y2="8.23321" gradientUnits="userSpaceOnUse">
<stop stop-color="white"/>
<stop offset="1" stop-color="white" stop-opacity="0.35"/>
</linearGradient>
<clipPath id="clip0_1088_19551">
<rect width="24" height="23.1111" fill="white"/>
</clipPath>
</defs>
</svg>
