<svg width="24" height="24" fill="none" xmlns="http://www.w3.org/2000/svg"><g clip-path="url(#a)"><path fill-rule="evenodd" clip-rule="evenodd" d="M.877 0h21.62c.484 0 .877.388.877.867v21.377a.872.872 0 0 1-.877.867H.877A.872.872 0 0 1 0 22.244V.867C0 .388.392 0 .877 0Zm12.116 12.296V10.4H4.675v1.896h2.97v8.44h2.364v-8.44h2.984Zm.943 8.216c.381.192.832.337 1.353.433.52.096 1.069.144 1.646.144a7.82 7.82 0 0 0 1.602-.159c.506-.105.95-.28 1.33-.522.382-.243.683-.56.906-.952.222-.391.334-.875.334-1.452 0-.418-.064-.784-.191-1.1a2.562 2.562 0 0 0-.55-.839 4.015 4.015 0 0 0-.862-.66 9.295 9.295 0 0 0-1.132-.55 14.41 14.41 0 0 1-.829-.365 4.223 4.223 0 0 1-.623-.36 1.585 1.585 0 0 1-.396-.39.809.809 0 0 1-.14-.464c0-.159.042-.302.125-.429.084-.127.2-.237.352-.328.152-.091.338-.162.558-.213.22-.05.464-.075.733-.075a4.97 4.97 0 0 1 1.276.176c.22.06.433.136.641.227.208.092.4.197.576.317v-2.155a5.802 5.802 0 0 0-1.17-.299 9.681 9.681 0 0 0-1.455-.097 6.87 6.87 0 0 0-1.584.177 4.062 4.062 0 0 0-1.316.551c-.379.25-.678.568-.898.955-.22.387-.33.85-.33 1.387 0 .688.202 1.274.605 1.76.403.484 1.015.895 1.836 1.232.323.13.624.257.902.382.279.124.52.254.722.389.203.134.363.28.48.44a.886.886 0 0 1 .067.955.967.967 0 0 1-.334.331 1.844 1.844 0 0 1-.557.22c-.223.053-.483.08-.781.08a4.53 4.53 0 0 1-2.896-1.052v2.305Z" fill="url(#b)"/></g><defs><linearGradient id="b" x1=".338" y1="2.13" x2="24.587" y2="8.233" gradientUnits="userSpaceOnUse"><stop stop-color="#fff"/><stop offset="1" stop-color="#fff" stop-opacity=".35"/></linearGradient><clipPath id="a"><path fill="#fff" d="M0 0h24v23.111H0z"/></clipPath></defs></svg>