<svg width="168" height="51" viewBox="0 0 168 51" fill="none" xmlns="http://www.w3.org/2000/svg">
<rect width="168" height="51" rx="5" fill="black"/>
<path d="M34.406 19.1446L26.0413 14.3236C25.6706 14.1116 25.251 14 24.824 14C24.397 14 23.9774 14.1116 23.6068 14.3236C23.2378 14.5369 22.9313 14.8434 22.7179 15.2123C22.5046 15.5812 22.3918 15.9997 22.391 16.4259V17.0551L21.8458 16.7401C21.4751 16.5281 21.0555 16.4165 20.6285 16.4165C20.2015 16.4165 19.7819 16.5281 19.4113 16.7401C19.0418 16.9538 18.735 17.2608 18.5216 17.6305C18.3082 18.0001 18.1958 18.4193 18.1955 18.8461V19.4746L17.6503 19.1604C17.2797 18.9484 16.8602 18.837 16.4334 18.837C16.0065 18.837 15.587 18.9484 15.2165 19.1604C14.8473 19.3737 14.5407 19.6802 14.3272 20.0493C14.1137 20.4184 14.0009 20.837 14 21.2634V36.3654C14.0006 36.58 14.0614 36.7901 14.1757 36.9717C14.2899 37.1533 14.4529 37.2992 14.6461 37.3927C14.8392 37.4861 15.0547 37.5234 15.2681 37.5002C15.4814 37.477 15.6839 37.3944 15.8525 37.2616L20 33.9961L26.3975 37.6816C26.572 37.7805 26.7692 37.8325 26.9697 37.8325C27.1703 37.8325 27.3675 37.7805 27.542 37.6816C27.8945 37.4776 28.1143 37.0996 28.1143 36.6924V27.6061C28.1129 26.8709 27.9184 26.1489 27.5503 25.5125C27.1821 24.8761 26.6532 24.3476 26.0165 23.9799L23.9188 22.7709V16.4281C23.9191 16.269 23.9613 16.1128 24.0411 15.9751C24.1209 15.8375 24.2355 15.7232 24.3734 15.6438C24.5113 15.5644 24.6677 15.5227 24.8268 15.5228C24.9859 15.5229 25.1422 15.5648 25.28 15.6444L33.6448 20.4631C34.0498 20.6971 34.3862 21.0334 34.6205 21.4382C34.8548 21.8431 34.9787 22.3024 34.9797 22.7701V34.0869C34.9797 34.4094 34.8058 34.7094 34.526 34.8706L32.3098 36.1479V25.1866C32.3083 24.4515 32.1137 23.7297 31.7456 23.0934C31.3774 22.4571 30.8486 21.9287 30.212 21.5611L25.0625 18.5949V20.3521L29.4493 22.8796C29.8544 23.1135 30.191 23.4497 30.4253 23.8546C30.6596 24.2595 30.7834 24.7188 30.7842 25.1866V36.8056C30.7842 37.2106 31.0033 37.5909 31.3565 37.7949C31.531 37.8937 31.7282 37.9456 31.9288 37.9456C32.1293 37.9456 32.3265 37.8937 32.501 37.7949L35.2902 36.1876C36.0402 35.7549 36.5068 34.9501 36.5068 34.0839V22.7671C36.5034 22.0325 36.3077 21.3115 35.9391 20.6759C35.5706 20.0404 35.042 19.5124 34.406 19.1446V19.1446ZM25.25 25.2976C25.6553 25.5315 25.9919 25.8679 26.2263 26.2729C26.4606 26.6779 26.5843 27.1375 26.585 27.6054V36.0354L21.2885 32.9836L22.9887 31.6471C23.2783 31.421 23.5124 31.1317 23.6731 30.8013C23.8337 30.4708 23.9167 30.108 23.9157 29.7406V24.5311L25.2508 25.2984L25.25 25.2976ZM22.3903 23.6499V29.7376C22.3903 30.0174 22.2635 30.2776 22.0445 30.4486L15.5247 35.5786V21.2611C15.525 21.102 15.5671 20.9458 15.6468 20.8081C15.7265 20.6704 15.841 20.5561 15.9789 20.4767C16.1167 20.3973 16.2731 20.3556 16.4322 20.3557C16.5912 20.3558 16.7475 20.3978 16.8852 20.4774L18.1955 21.2311V32.0236L19.7202 30.8236V18.8446C19.7204 18.6854 19.7625 18.5291 19.8422 18.3913C19.922 18.2535 20.0366 18.1391 20.1746 18.0597C20.3125 17.9803 20.469 17.9385 20.6282 17.9387C20.7874 17.939 20.9437 17.9811 21.0815 18.0609L22.3903 18.8139V21.8904L20.8662 21.0114V22.7701L22.3918 23.6499H22.3903Z" fill="white"/>
<path d="M51.0455 32H47.2784V20.3636H51.1648C52.3049 20.3636 53.2841 20.5966 54.1023 21.0625C54.9205 21.5246 55.5473 22.1894 55.983 23.0568C56.4223 23.9205 56.642 24.9564 56.642 26.1648C56.642 27.3769 56.4205 28.4186 55.9773 29.2898C55.5379 30.161 54.9015 30.8314 54.0682 31.3011C53.2348 31.767 52.2273 32 51.0455 32ZM49.0341 30.4659H50.9489C51.8352 30.4659 52.572 30.2992 53.1591 29.9659C53.7462 29.6288 54.1856 29.142 54.4773 28.5057C54.7689 27.8655 54.9148 27.0852 54.9148 26.1648C54.9148 25.2519 54.7689 24.4773 54.4773 23.8409C54.1894 23.2045 53.7595 22.7216 53.1875 22.392C52.6155 22.0625 51.9053 21.8977 51.0568 21.8977H49.0341V30.4659ZM62.4503 32.1761C61.5904 32.1761 60.8499 31.9924 60.2287 31.625C59.6113 31.2538 59.134 30.733 58.7969 30.0625C58.4635 29.3883 58.2969 28.5985 58.2969 27.6932C58.2969 26.7992 58.4635 26.0114 58.7969 25.3295C59.134 24.6477 59.6037 24.1155 60.206 23.733C60.812 23.3504 61.5204 23.1591 62.331 23.1591C62.8234 23.1591 63.3007 23.2405 63.7628 23.4034C64.2249 23.5663 64.6397 23.822 65.0071 24.1705C65.3745 24.5189 65.6643 24.9716 65.8764 25.5284C66.0885 26.0814 66.1946 26.7538 66.1946 27.5455V28.1477H59.2571V26.875H64.5298C64.5298 26.428 64.4389 26.0322 64.2571 25.6875C64.0753 25.339 63.8196 25.0644 63.4901 24.8636C63.1643 24.6629 62.7817 24.5625 62.3423 24.5625C61.8651 24.5625 61.4484 24.6799 61.0923 24.9148C60.7401 25.1458 60.4673 25.4489 60.2741 25.8239C60.0848 26.1951 59.9901 26.5985 59.9901 27.0341V28.0284C59.9901 28.6117 60.0923 29.108 60.2969 29.517C60.5052 29.9261 60.795 30.2386 61.1662 30.4545C61.5374 30.6667 61.9711 30.7727 62.4673 30.7727C62.7893 30.7727 63.0829 30.7273 63.348 30.6364C63.6132 30.5417 63.8423 30.4015 64.0355 30.2159C64.2287 30.0303 64.3764 29.8011 64.4787 29.5284L66.0866 29.8182C65.9579 30.2917 65.7268 30.7064 65.3935 31.0625C65.0639 31.4148 64.6491 31.6894 64.1491 31.8864C63.6529 32.0795 63.0866 32.1761 62.4503 32.1761ZM68.0795 35.2727V23.2727H69.7386V24.6875H69.8807C69.9792 24.5057 70.1212 24.2955 70.3068 24.0568C70.4924 23.8182 70.75 23.6098 71.0795 23.4318C71.4091 23.25 71.8447 23.1591 72.3864 23.1591C73.0909 23.1591 73.7197 23.3371 74.2727 23.6932C74.8258 24.0492 75.2595 24.5625 75.5739 25.233C75.892 25.9034 76.0511 26.7102 76.0511 27.6534C76.0511 28.5966 75.8939 29.4053 75.5795 30.0795C75.2652 30.75 74.8333 31.267 74.2841 31.6307C73.7348 31.9905 73.108 32.1705 72.4034 32.1705C71.8731 32.1705 71.4394 32.0814 71.1023 31.9034C70.7689 31.7254 70.5076 31.517 70.3182 31.2784C70.1288 31.0398 69.983 30.8277 69.8807 30.642H69.7784V35.2727H68.0795ZM69.7443 27.6364C69.7443 28.25 69.8333 28.7879 70.0114 29.25C70.1894 29.7121 70.447 30.0739 70.7841 30.3352C71.1212 30.5928 71.5341 30.7216 72.0227 30.7216C72.5303 30.7216 72.9545 30.5871 73.2955 30.3182C73.6364 30.0455 73.8939 29.6761 74.0682 29.2102C74.2462 28.7443 74.3352 28.2197 74.3352 27.6364C74.3352 27.0606 74.2481 26.5436 74.0739 26.0852C73.9034 25.6269 73.6458 25.2652 73.3011 25C72.9602 24.7348 72.5341 24.6023 72.0227 24.6023C71.5303 24.6023 71.1136 24.7292 70.7727 24.983C70.4356 25.2367 70.1799 25.5909 70.0057 26.0455C69.8314 26.5 69.7443 27.0303 69.7443 27.6364ZM79.6534 20.3636V32H77.9545V20.3636H79.6534ZM85.6151 32.1761C84.7969 32.1761 84.0829 31.9886 83.473 31.6136C82.8632 31.2386 82.3897 30.714 82.0526 30.0398C81.7154 29.3655 81.5469 28.5777 81.5469 27.6761C81.5469 26.7708 81.7154 25.9792 82.0526 25.3011C82.3897 24.6231 82.8632 24.0966 83.473 23.7216C84.0829 23.3466 84.7969 23.1591 85.6151 23.1591C86.4332 23.1591 87.1473 23.3466 87.7571 23.7216C88.367 24.0966 88.8404 24.6231 89.1776 25.3011C89.5147 25.9792 89.6832 26.7708 89.6832 27.6761C89.6832 28.5777 89.5147 29.3655 89.1776 30.0398C88.8404 30.714 88.367 31.2386 87.7571 31.6136C87.1473 31.9886 86.4332 32.1761 85.6151 32.1761ZM85.6207 30.75C86.151 30.75 86.5904 30.6098 86.9389 30.3295C87.2874 30.0492 87.545 29.6761 87.7116 29.2102C87.8821 28.7443 87.9673 28.2311 87.9673 27.6705C87.9673 27.1136 87.8821 26.6023 87.7116 26.1364C87.545 25.6667 87.2874 25.2898 86.9389 25.0057C86.5904 24.7216 86.151 24.5795 85.6207 24.5795C85.0866 24.5795 84.6435 24.7216 84.2912 25.0057C83.9427 25.2898 83.6832 25.6667 83.5128 26.1364C83.3461 26.6023 83.2628 27.1136 83.2628 27.6705C83.2628 28.2311 83.3461 28.7443 83.5128 29.2102C83.6832 29.6761 83.9427 30.0492 84.2912 30.3295C84.6435 30.6098 85.0866 30.75 85.6207 30.75ZM92.3565 35.2727C92.1027 35.2727 91.8717 35.2519 91.6634 35.2102C91.455 35.1723 91.2997 35.1307 91.1974 35.0852L91.6065 33.6932C91.9171 33.7765 92.1937 33.8125 92.4361 33.8011C92.6785 33.7898 92.8925 33.6989 93.0781 33.5284C93.2675 33.358 93.4342 33.0795 93.5781 32.6932L93.7884 32.1136L90.5952 23.2727H92.4134L94.6236 30.0455H94.7145L96.9247 23.2727H98.7486L95.152 33.1648C94.9853 33.6193 94.7732 34.0038 94.5156 34.3182C94.258 34.6364 93.9512 34.875 93.5952 35.0341C93.2391 35.1932 92.8262 35.2727 92.3565 35.2727Z" fill="white"/>
<path d="M108.653 23.2727V24.6364H103.886V23.2727H108.653ZM105.165 21.1818H106.864V29.4375C106.864 29.767 106.913 30.0152 107.011 30.1818C107.11 30.3447 107.237 30.4564 107.392 30.517C107.551 30.5739 107.723 30.6023 107.909 30.6023C108.045 30.6023 108.165 30.5928 108.267 30.5739C108.369 30.5549 108.449 30.5398 108.506 30.5284L108.812 31.9318C108.714 31.9697 108.574 32.0076 108.392 32.0455C108.21 32.0871 107.983 32.1098 107.71 32.1136C107.263 32.1212 106.847 32.0417 106.46 31.875C106.074 31.7083 105.761 31.4508 105.523 31.1023C105.284 30.7538 105.165 30.3163 105.165 29.7898V21.1818ZM114.115 32.1761C113.297 32.1761 112.583 31.9886 111.973 31.6136C111.363 31.2386 110.89 30.714 110.553 30.0398C110.215 29.3655 110.047 28.5777 110.047 27.6761C110.047 26.7708 110.215 25.9792 110.553 25.3011C110.89 24.6231 111.363 24.0966 111.973 23.7216C112.583 23.3466 113.297 23.1591 114.115 23.1591C114.933 23.1591 115.647 23.3466 116.257 23.7216C116.867 24.0966 117.34 24.6231 117.678 25.3011C118.015 25.9792 118.183 26.7708 118.183 27.6761C118.183 28.5777 118.015 29.3655 117.678 30.0398C117.34 30.714 116.867 31.2386 116.257 31.6136C115.647 31.9886 114.933 32.1761 114.115 32.1761ZM114.121 30.75C114.651 30.75 115.09 30.6098 115.439 30.3295C115.787 30.0492 116.045 29.6761 116.212 29.2102C116.382 28.7443 116.467 28.2311 116.467 27.6705C116.467 27.1136 116.382 26.6023 116.212 26.1364C116.045 25.6667 115.787 25.2898 115.439 25.0057C115.09 24.7216 114.651 24.5795 114.121 24.5795C113.587 24.5795 113.143 24.7216 112.791 25.0057C112.443 25.2898 112.183 25.6667 112.013 26.1364C111.846 26.6023 111.763 27.1136 111.763 27.6705C111.763 28.2311 111.846 28.7443 112.013 29.2102C112.183 29.6761 112.443 30.0492 112.791 30.3295C113.143 30.6098 113.587 30.75 114.121 30.75ZM124.45 32V20.3636H128.598C129.5 20.3636 130.248 20.5189 130.842 20.8295C131.441 21.1402 131.888 21.5701 132.183 22.1193C132.479 22.6648 132.626 23.2955 132.626 24.0114C132.626 24.7235 132.477 25.3504 132.178 25.892C131.882 26.4299 131.435 26.8485 130.837 27.1477C130.242 27.447 129.494 27.5966 128.592 27.5966H125.45V26.0852H128.433C129.001 26.0852 129.464 26.0038 129.82 25.8409C130.179 25.678 130.443 25.4413 130.609 25.1307C130.776 24.8201 130.859 24.447 130.859 24.0114C130.859 23.572 130.774 23.1913 130.604 22.8693C130.437 22.5473 130.174 22.3011 129.814 22.1307C129.458 21.9564 128.99 21.8693 128.411 21.8693H126.206V32H124.45ZM130.195 26.75L133.07 32H131.07L128.251 26.75H130.195ZM140.155 28.3807V23.2727H141.859V32H140.189V30.4886H140.098C139.897 30.9545 139.575 31.3428 139.132 31.6534C138.693 31.9602 138.145 32.1136 137.49 32.1136C136.929 32.1136 136.433 31.9905 136.001 31.7443C135.573 31.4943 135.236 31.125 134.99 30.6364C134.748 30.1477 134.626 29.5436 134.626 28.8239V23.2727H136.325V28.6193C136.325 29.214 136.49 29.6875 136.82 30.0398C137.149 30.392 137.577 30.5682 138.104 30.5682C138.422 30.5682 138.738 30.4886 139.053 30.3295C139.371 30.1705 139.634 29.9299 139.842 29.608C140.054 29.286 140.159 28.8769 140.155 28.3807ZM145.841 26.8182V32H144.142V23.2727H145.773V24.6932H145.881C146.081 24.2311 146.396 23.8598 146.824 23.5795C147.256 23.2992 147.799 23.1591 148.455 23.1591C149.049 23.1591 149.57 23.2841 150.017 23.5341C150.464 23.7803 150.811 24.1477 151.057 24.6364C151.303 25.125 151.426 25.7292 151.426 26.4489V32H149.727V26.6534C149.727 26.0208 149.563 25.5265 149.233 25.1705C148.903 24.8106 148.451 24.6307 147.875 24.6307C147.481 24.6307 147.131 24.7159 146.824 24.8864C146.521 25.0568 146.28 25.3068 146.102 25.6364C145.928 25.9621 145.841 26.3561 145.841 26.8182Z" fill="white" fill-opacity="0.54"/>
<mask id="mask0_1702_13517" style="mask-type:alpha" maskUnits="userSpaceOnUse" x="1" y="0" width="167" height="51">
<path d="M1 5C1 2.23858 3.23858 0 6 0H163C165.761 0 168 2.23858 168 5V46C168 48.7614 165.761 51 163 51H6C3.23858 51 1 48.7614 1 46V5Z" fill="url(#paint0_radial_1702_13517)"/>
</mask>
<g mask="url(#mask0_1702_13517)">
<line x1="0.609375" y1="-25" x2="0.609375" y2="134.401" stroke="url(#paint1_linear_1702_13517)" stroke-opacity="0.32"/>
<line x1="11.2773" y1="-25" x2="11.2773" y2="134.401" stroke="url(#paint2_linear_1702_13517)" stroke-opacity="0.32"/>
<line x1="21.9512" y1="-25" x2="21.9512" y2="134.401" stroke="url(#paint3_linear_1702_13517)" stroke-opacity="0.32"/>
<line x1="32.6211" y1="-25" x2="32.6211" y2="134.401" stroke="url(#paint4_linear_1702_13517)" stroke-opacity="0.32"/>
<line x1="43.2949" y1="-25" x2="43.2949" y2="134.401" stroke="url(#paint5_linear_1702_13517)" stroke-opacity="0.32"/>
<line x1="53.9668" y1="-25" x2="53.9668" y2="134.401" stroke="url(#paint6_linear_1702_13517)" stroke-opacity="0.32"/>
<line x1="64.6406" y1="-25" x2="64.6406" y2="134.401" stroke="url(#paint7_linear_1702_13517)" stroke-opacity="0.32"/>
<line x1="75.3125" y1="-25" x2="75.3125" y2="134.401" stroke="url(#paint8_linear_1702_13517)" stroke-opacity="0.32"/>
<line x1="85.9785" y1="-25" x2="85.9785" y2="134.401" stroke="url(#paint9_linear_1702_13517)" stroke-opacity="0.32"/>
<line x1="96.6543" y1="-25" x2="96.6543" y2="134.401" stroke="url(#paint10_linear_1702_13517)" stroke-opacity="0.32"/>
<line x1="107.326" y1="-25" x2="107.326" y2="134.401" stroke="url(#paint11_linear_1702_13517)" stroke-opacity="0.32"/>
<line x1="117.998" y1="-25" x2="117.998" y2="134.401" stroke="url(#paint12_linear_1702_13517)" stroke-opacity="0.32"/>
<line x1="128.672" y1="-25" x2="128.672" y2="134.401" stroke="url(#paint13_linear_1702_13517)" stroke-opacity="0.32"/>
<line x1="139.34" y1="-25" x2="139.34" y2="134.401" stroke="url(#paint14_linear_1702_13517)" stroke-opacity="0.32"/>
<line x1="150.012" y1="-25" x2="150.012" y2="134.401" stroke="url(#paint15_linear_1702_13517)" stroke-opacity="0.32"/>
<line x1="160.686" y1="-25" x2="160.686" y2="134.401" stroke="url(#paint16_linear_1702_13517)" stroke-opacity="0.32"/>
<line x1="-224" y1="4.38672" x2="202.872" y2="4.38672" stroke="url(#paint17_linear_1702_13517)" stroke-opacity="0.32"/>
<line x1="-224" y1="14.3496" x2="202.872" y2="14.3496" stroke="url(#paint18_linear_1702_13517)" stroke-opacity="0.32"/>
<line x1="-224" y1="24.3125" x2="202.872" y2="24.3125" stroke="url(#paint19_linear_1702_13517)" stroke-opacity="0.32"/>
<line x1="-224" y1="34.2773" x2="202.872" y2="34.2773" stroke="url(#paint20_linear_1702_13517)" stroke-opacity="0.32"/>
<line x1="-224" y1="44.2383" x2="202.872" y2="44.2383" stroke="url(#paint21_linear_1702_13517)" stroke-opacity="0.32"/>
<rect x="-1" width="169" height="51" rx="5" fill="url(#paint22_radial_1702_13517)"/>
<rect x="-1" width="169" height="51" rx="5" fill="#0066FF" fill-opacity="0.16"/>
</g>
<defs>
<radialGradient id="paint0_radial_1702_13517" cx="0" cy="0" r="1" gradientUnits="userSpaceOnUse" gradientTransform="translate(167.998 4.87662e-06) rotate(158.654) scale(140.111 108.947)">
<stop/>
<stop offset="0.796994" stop-opacity="0"/>
<stop offset="0.822917" stop-opacity="0"/>
</radialGradient>
<linearGradient id="paint1_linear_1702_13517" x1="0.109375" y1="-25" x2="0.109375" y2="134.401" gradientUnits="userSpaceOnUse">
<stop stop-color="white" stop-opacity="0"/>
<stop offset="0.515625" stop-color="white" stop-opacity="0.32"/>
<stop offset="1" stop-color="white" stop-opacity="0"/>
<stop offset="1" stop-color="white" stop-opacity="0"/>
</linearGradient>
<linearGradient id="paint2_linear_1702_13517" x1="10.7773" y1="-25" x2="10.7773" y2="134.401" gradientUnits="userSpaceOnUse">
<stop stop-color="white" stop-opacity="0"/>
<stop offset="0.515625" stop-color="white" stop-opacity="0.32"/>
<stop offset="1" stop-color="white" stop-opacity="0"/>
<stop offset="1" stop-color="white" stop-opacity="0"/>
</linearGradient>
<linearGradient id="paint3_linear_1702_13517" x1="21.4512" y1="-25" x2="21.4512" y2="134.401" gradientUnits="userSpaceOnUse">
<stop stop-color="white" stop-opacity="0"/>
<stop offset="0.515625" stop-color="white" stop-opacity="0.32"/>
<stop offset="1" stop-color="white" stop-opacity="0"/>
<stop offset="1" stop-color="white" stop-opacity="0"/>
</linearGradient>
<linearGradient id="paint4_linear_1702_13517" x1="32.1211" y1="-25" x2="32.1211" y2="134.401" gradientUnits="userSpaceOnUse">
<stop stop-color="white" stop-opacity="0"/>
<stop offset="0.515625" stop-color="white" stop-opacity="0.32"/>
<stop offset="1" stop-color="white" stop-opacity="0"/>
<stop offset="1" stop-color="white" stop-opacity="0"/>
</linearGradient>
<linearGradient id="paint5_linear_1702_13517" x1="42.7949" y1="-25" x2="42.7949" y2="134.401" gradientUnits="userSpaceOnUse">
<stop stop-color="white" stop-opacity="0"/>
<stop offset="0.515625" stop-color="white" stop-opacity="0.32"/>
<stop offset="1" stop-color="white" stop-opacity="0"/>
<stop offset="1" stop-color="white" stop-opacity="0"/>
</linearGradient>
<linearGradient id="paint6_linear_1702_13517" x1="53.4668" y1="-25" x2="53.4668" y2="134.401" gradientUnits="userSpaceOnUse">
<stop stop-color="white" stop-opacity="0"/>
<stop offset="0.515625" stop-color="white" stop-opacity="0.32"/>
<stop offset="1" stop-color="white" stop-opacity="0"/>
<stop offset="1" stop-color="white" stop-opacity="0"/>
</linearGradient>
<linearGradient id="paint7_linear_1702_13517" x1="64.1406" y1="-25" x2="64.1406" y2="134.401" gradientUnits="userSpaceOnUse">
<stop stop-color="white" stop-opacity="0"/>
<stop offset="0.515625" stop-color="white" stop-opacity="0.32"/>
<stop offset="1" stop-color="white" stop-opacity="0"/>
<stop offset="1" stop-color="white" stop-opacity="0"/>
</linearGradient>
<linearGradient id="paint8_linear_1702_13517" x1="74.8125" y1="-25" x2="74.8125" y2="134.401" gradientUnits="userSpaceOnUse">
<stop stop-color="white" stop-opacity="0"/>
<stop offset="0.515625" stop-color="white" stop-opacity="0.32"/>
<stop offset="1" stop-color="white" stop-opacity="0"/>
<stop offset="1" stop-color="white" stop-opacity="0"/>
</linearGradient>
<linearGradient id="paint9_linear_1702_13517" x1="85.4785" y1="-25" x2="85.4785" y2="134.401" gradientUnits="userSpaceOnUse">
<stop stop-color="white" stop-opacity="0"/>
<stop offset="0.515625" stop-color="white" stop-opacity="0.32"/>
<stop offset="1" stop-color="white" stop-opacity="0"/>
<stop offset="1" stop-color="white" stop-opacity="0"/>
</linearGradient>
<linearGradient id="paint10_linear_1702_13517" x1="96.1543" y1="-25" x2="96.1543" y2="134.401" gradientUnits="userSpaceOnUse">
<stop stop-color="white" stop-opacity="0"/>
<stop offset="0.515625" stop-color="white" stop-opacity="0.32"/>
<stop offset="1" stop-color="white" stop-opacity="0"/>
<stop offset="1" stop-color="white" stop-opacity="0"/>
</linearGradient>
<linearGradient id="paint11_linear_1702_13517" x1="106.826" y1="-25" x2="106.826" y2="134.401" gradientUnits="userSpaceOnUse">
<stop stop-color="white" stop-opacity="0"/>
<stop offset="0.515625" stop-color="white" stop-opacity="0.32"/>
<stop offset="1" stop-color="white" stop-opacity="0"/>
<stop offset="1" stop-color="white" stop-opacity="0"/>
</linearGradient>
<linearGradient id="paint12_linear_1702_13517" x1="117.498" y1="-25" x2="117.498" y2="134.401" gradientUnits="userSpaceOnUse">
<stop stop-color="white" stop-opacity="0"/>
<stop offset="0.515625" stop-color="white" stop-opacity="0.32"/>
<stop offset="1" stop-color="white" stop-opacity="0"/>
<stop offset="1" stop-color="white" stop-opacity="0"/>
</linearGradient>
<linearGradient id="paint13_linear_1702_13517" x1="128.172" y1="-25" x2="128.172" y2="134.401" gradientUnits="userSpaceOnUse">
<stop stop-color="white" stop-opacity="0"/>
<stop offset="0.515625" stop-color="white" stop-opacity="0.32"/>
<stop offset="1" stop-color="white" stop-opacity="0"/>
<stop offset="1" stop-color="white" stop-opacity="0"/>
</linearGradient>
<linearGradient id="paint14_linear_1702_13517" x1="138.84" y1="-25" x2="138.84" y2="134.401" gradientUnits="userSpaceOnUse">
<stop stop-color="white" stop-opacity="0"/>
<stop offset="0.515625" stop-color="white" stop-opacity="0.32"/>
<stop offset="1" stop-color="white" stop-opacity="0"/>
<stop offset="1" stop-color="white" stop-opacity="0"/>
</linearGradient>
<linearGradient id="paint15_linear_1702_13517" x1="149.512" y1="-25" x2="149.512" y2="134.401" gradientUnits="userSpaceOnUse">
<stop stop-color="white" stop-opacity="0"/>
<stop offset="0.515625" stop-color="white" stop-opacity="0.32"/>
<stop offset="1" stop-color="white" stop-opacity="0"/>
<stop offset="1" stop-color="white" stop-opacity="0"/>
</linearGradient>
<linearGradient id="paint16_linear_1702_13517" x1="160.186" y1="-25" x2="160.186" y2="134.401" gradientUnits="userSpaceOnUse">
<stop stop-color="white" stop-opacity="0"/>
<stop offset="0.515625" stop-color="white" stop-opacity="0.32"/>
<stop offset="1" stop-color="white" stop-opacity="0"/>
<stop offset="1" stop-color="white" stop-opacity="0"/>
</linearGradient>
<linearGradient id="paint17_linear_1702_13517" x1="-224" y1="4.88672" x2="202.872" y2="4.88672" gradientUnits="userSpaceOnUse">
<stop stop-color="white" stop-opacity="0"/>
<stop offset="0.515625" stop-color="white" stop-opacity="0.32"/>
<stop offset="1" stop-color="white" stop-opacity="0"/>
<stop offset="1" stop-color="white" stop-opacity="0"/>
</linearGradient>
<linearGradient id="paint18_linear_1702_13517" x1="-224" y1="14.8496" x2="202.872" y2="14.8496" gradientUnits="userSpaceOnUse">
<stop stop-color="white" stop-opacity="0"/>
<stop offset="0.515625" stop-color="white" stop-opacity="0.32"/>
<stop offset="1" stop-color="white" stop-opacity="0"/>
<stop offset="1" stop-color="white" stop-opacity="0"/>
</linearGradient>
<linearGradient id="paint19_linear_1702_13517" x1="-224" y1="24.8125" x2="202.872" y2="24.8125" gradientUnits="userSpaceOnUse">
<stop stop-color="white" stop-opacity="0"/>
<stop offset="0.515625" stop-color="white" stop-opacity="0.32"/>
<stop offset="1" stop-color="white" stop-opacity="0"/>
<stop offset="1" stop-color="white" stop-opacity="0"/>
</linearGradient>
<linearGradient id="paint20_linear_1702_13517" x1="-224" y1="34.7773" x2="202.872" y2="34.7773" gradientUnits="userSpaceOnUse">
<stop stop-color="white" stop-opacity="0"/>
<stop offset="0.515625" stop-color="white" stop-opacity="0.32"/>
<stop offset="1" stop-color="white" stop-opacity="0"/>
<stop offset="1" stop-color="white" stop-opacity="0"/>
</linearGradient>
<linearGradient id="paint21_linear_1702_13517" x1="-224" y1="44.7383" x2="202.872" y2="44.7383" gradientUnits="userSpaceOnUse">
<stop stop-color="white" stop-opacity="0"/>
<stop offset="0.515625" stop-color="white" stop-opacity="0.32"/>
<stop offset="1" stop-color="white" stop-opacity="0"/>
<stop offset="1" stop-color="white" stop-opacity="0"/>
</linearGradient>
<radialGradient id="paint22_radial_1702_13517" cx="0" cy="0" r="1" gradientUnits="userSpaceOnUse" gradientTransform="translate(168 -1.35524e-05) rotate(163.207) scale(176.528 301.165)">
<stop offset="0.447917" stop-color="#0066FF" stop-opacity="0.38"/>
<stop offset="0.735575"/>
<stop offset="1"/>
</radialGradient>
</defs>
</svg>
