<svg width="1003" height="644" viewBox="0 0 1003 644" fill="none" xmlns="http://www.w3.org/2000/svg">
<g opacity="0.24">
<mask id="mask0_210_13893" style="mask-type:alpha" maskUnits="userSpaceOnUse" x="128" y="0" width="921" height="644">
<ellipse cx="588.5" cy="322" rx="460.5" ry="322" fill="url(#paint0_radial_210_13893)" fill-opacity="0.32"/>
</mask>
<g mask="url(#mask0_210_13893)">
<line x1="141.5" y1="17" x2="141.5" y2="626" stroke="white" stroke-opacity="0.88"/>
<line x1="173.5" y1="17" x2="173.5" y2="626" stroke="white" stroke-opacity="0.88"/>
<line x1="205.5" y1="17" x2="205.5" y2="626" stroke="white" stroke-opacity="0.88"/>
<line x1="237.5" y1="17" x2="237.5" y2="626" stroke="white" stroke-opacity="0.88"/>
<line x1="269.5" y1="17" x2="269.5" y2="626" stroke="white" stroke-opacity="0.88"/>
<line x1="301.5" y1="17" x2="301.5" y2="626" stroke="white" stroke-opacity="0.88"/>
<line x1="333.5" y1="17" x2="333.5" y2="626" stroke="white" stroke-opacity="0.88"/>
<line x1="365.5" y1="17" x2="365.5" y2="626" stroke="white" stroke-opacity="0.88"/>
<line x1="397.5" y1="17" x2="397.5" y2="626" stroke="white" stroke-opacity="0.88"/>
<line x1="429.5" y1="17" x2="429.5" y2="626" stroke="white" stroke-opacity="0.88"/>
<line x1="461.5" y1="17" x2="461.5" y2="626" stroke="white" stroke-opacity="0.88"/>
<line x1="493.5" y1="17" x2="493.5" y2="626" stroke="white" stroke-opacity="0.88"/>
<line x1="525.5" y1="17" x2="525.5" y2="626" stroke="white" stroke-opacity="0.88"/>
<line x1="557.5" y1="17" x2="557.5" y2="626" stroke="white" stroke-opacity="0.88"/>
<line x1="589.5" y1="17" x2="589.5" y2="626" stroke="white" stroke-opacity="0.88"/>
<line x1="621.5" y1="17" x2="621.5" y2="626" stroke="white" stroke-opacity="0.88"/>
<line x1="653.5" y1="17" x2="653.5" y2="626" stroke="white" stroke-opacity="0.88"/>
<line x1="685.5" y1="17" x2="685.5" y2="626" stroke="white" stroke-opacity="0.88"/>
<line x1="717.5" y1="17" x2="717.5" y2="626" stroke="white" stroke-opacity="0.88"/>
<line x1="749.5" y1="17" x2="749.5" y2="626" stroke="white" stroke-opacity="0.88"/>
<line x1="781.5" y1="17" x2="781.5" y2="626" stroke="white" stroke-opacity="0.88"/>
<line x1="813.5" y1="17" x2="813.5" y2="626" stroke="white" stroke-opacity="0.88"/>
<line x1="845.5" y1="17" x2="845.5" y2="626" stroke="white" stroke-opacity="0.88"/>
<line x1="877.5" y1="17" x2="877.5" y2="626" stroke="white" stroke-opacity="0.88"/>
<line x1="909.5" y1="17" x2="909.5" y2="626" stroke="white" stroke-opacity="0.88"/>
<line x1="941.5" y1="17" x2="941.5" y2="626" stroke="white" stroke-opacity="0.88"/>
<line x1="973.5" y1="17" x2="973.5" y2="626" stroke="white" stroke-opacity="0.88"/>
<line x1="-51" y1="33.5" x2="1229" y2="33.5" stroke="white" stroke-opacity="0.88"/>
<line x1="-51" y1="65.5" x2="1229" y2="65.5" stroke="white" stroke-opacity="0.88"/>
<line x1="-51" y1="97.5" x2="1229" y2="97.5" stroke="white" stroke-opacity="0.88"/>
<line x1="-51" y1="129.5" x2="1229" y2="129.5" stroke="white" stroke-opacity="0.88"/>
<line x1="-51" y1="161.5" x2="1229" y2="161.5" stroke="white" stroke-opacity="0.88"/>
<line x1="-51" y1="193.5" x2="1229" y2="193.5" stroke="white" stroke-opacity="0.88"/>
<line x1="-51" y1="225.5" x2="1229" y2="225.5" stroke="white" stroke-opacity="0.88"/>
<line x1="-51" y1="257.5" x2="1229" y2="257.5" stroke="white" stroke-opacity="0.88"/>
<line x1="-51" y1="289.5" x2="1229" y2="289.5" stroke="white" stroke-opacity="0.88"/>
<line x1="-51" y1="321.5" x2="1229" y2="321.5" stroke="white" stroke-opacity="0.88"/>
<line x1="-51" y1="353.5" x2="1229" y2="353.5" stroke="white" stroke-opacity="0.88"/>
<line x1="-51" y1="385.5" x2="1229" y2="385.5" stroke="white" stroke-opacity="0.88"/>
<line x1="-51" y1="417.5" x2="1229" y2="417.5" stroke="white" stroke-opacity="0.88"/>
<line x1="-51" y1="449.5" x2="1229" y2="449.5" stroke="white" stroke-opacity="0.88"/>
<line x1="-51" y1="481.5" x2="1229" y2="481.5" stroke="white" stroke-opacity="0.88"/>
<line x1="-51" y1="513.5" x2="1229" y2="513.5" stroke="white" stroke-opacity="0.88"/>
<line x1="-51" y1="545.5" x2="1229" y2="545.5" stroke="white" stroke-opacity="0.88"/>
<line x1="-51" y1="577.5" x2="1229" y2="577.5" stroke="white" stroke-opacity="0.88"/>
<line x1="-51" y1="609.5" x2="1229" y2="609.5" stroke="white" stroke-opacity="0.88"/>
</g>
</g>
<defs>
<radialGradient id="paint0_radial_210_13893" cx="0" cy="0" r="1" gradientUnits="userSpaceOnUse" gradientTransform="translate(588.5 322) rotate(90) scale(322 460.5)">
<stop/>
<stop offset="1" stop-opacity="0"/>
</radialGradient>
</defs>
</svg>
