<svg width="100" height="24" fill="none" xmlns="http://www.w3.org/2000/svg"><g clip-path="url(#a)"><path fill-rule="evenodd" clip-rule="evenodd" d="M.162 12v12H24.01V0H.162v12Zm44.375-5.668v1.123h4.238V18.74h2.451V7.455H55.464V5.21H44.537v1.123Zm15.319 5.643v6.765h9.447v-2.246H62.255V5.209h-2.4v6.766Zm13.787 0v6.765h10.008V16.545H75.788V13.02h6.025v-2.196h-6.025v-3.42H83.65V5.208H73.644v6.766Zm14.757 0v6.765h2.4v-4.698l1.469.003 1.468.003 1.637 2.333 1.637 2.334 1.42.014c1.14.01 1.414 0 1.394-.053-.014-.036-.77-1.11-1.68-2.388-.91-1.277-1.708-2.397-1.771-2.488-.11-.156-.111-.168-.024-.198.283-.096.93-.39 1.182-.538.159-.094.499-.378.754-.631.378-.375.504-.542.677-.894.339-.69.43-1.114.43-2.016 0-.895-.091-1.328-.42-1.991-.64-1.294-1.955-2.083-3.785-2.27-.298-.031-1.848-.053-3.653-.053H88.4v6.766Zm-72.347-.052 2.922 6.702c.02.05-.235.064-1.185.063h-1.21l-2.243-5.298c-1.233-2.913-2.258-5.314-2.276-5.336-.02-.022-1.053 2.362-2.298 5.298l-2.264 5.337H5.172l.069-.166c.178-.425 5.71-13.094 5.754-13.174.044-.084.134-.09 1.105-.078l1.057.014 2.896 6.638ZM28.45 12v6.74H30.8l.013-4.72.013-4.72 3.651 4.72 3.651 4.72h2.068V5.26h-2.4l-.012 4.595-.013 4.596-3.55-4.593-3.548-4.593-1.11-.003-1.111-.002V12Zm66.69-4.472c.738.156 1.35.587 1.606 1.128.511 1.08.113 2.32-.92 2.868-.615.326-.708.338-2.971.36l-2.056.021v-4.45l2.005.001c1.508 0 2.086.019 2.336.072Z" fill="#ED4746"/></g><defs><clipPath id="a"><path fill="#fff" transform="translate(.162)" d="M0 0h99.677v24H0z"/></clipPath></defs></svg>