<svg width="68" height="24" fill="none" xmlns="http://www.w3.org/2000/svg"><g clip-path="url(#a)" fill="#fff"><path d="M30.137 14.105v-.112h2.306c.022.335.179 1.097 1.813 1.097h.067c1.612 0 1.814-.47 1.814-.918 0-.47-.291-.74-1.567-.806l-1.03-.023c-2.53-.09-3.336-1.097-3.336-2.238v-.09c0-1.209.65-2.284 3.828-2.284h.359c3.402 0 3.873 1.232 3.873 2.262v.112H35.98c-.045-.336-.246-.851-1.724-.851h-.112c-1.365 0-1.679.269-1.679.671 0 .403.269.672 1.5.74l1.075.044c2.731.112 3.403 1.008 3.403 2.261v.135c0 1.119-.515 2.574-3.963 2.574h-.291c-3.65-.022-4.052-1.656-4.052-2.574ZM39.45 12.806v-.313c0-1.612.94-3.784 4.454-3.784h.47c3.224 0 4.3 1.59 4.3 3.045v.022h-2.195c-.022-.224-.313-1.298-2.35-1.298-1.881 0-2.463 1.052-2.463 2.082v.134c0 .94.604 2.172 2.485 2.172 2.037 0 2.306-1.097 2.328-1.366h2.194v.022c0 1.41-1.03 3.09-4.298 3.09h-.47c-3.516.022-4.456-2.239-4.456-3.806ZM52.076 16.523h-2.082V8.82h2.194l4.5 4.948V8.82h2.06v7.702h-2.082l-4.59-4.993v4.993ZM67.502 10.5h-4.947v1.254h4.79V13.5h-4.79v1.343h5.015v1.702h-7.097V8.82h7.052v1.68h-.023ZM12.384 0C5.779 0 .406 5.373.406 11.978c0 6.604 5.373 11.977 11.978 11.977 6.604 0 11.977-5.373 11.977-11.977C24.361 5.373 18.988 0 12.384 0Zm11.35 11.978c0 6.268-5.082 11.35-11.35 11.35-6.269 0-11.35-5.082-11.35-11.35C1.033 5.709 6.114.627 12.383.627c6.268 0 11.35 5.082 11.35 11.35Z"/><path d="M9.966 12.023a.259.259 0 0 0 .269-.27V5.397a.259.259 0 0 0-.27-.269.259.259 0 0 0-.268.269v6.358c0 .157.112.269.269.269ZM14.69 12.023a.259.259 0 0 0 .27-.27V5.397a.259.259 0 0 0-.27-.269.259.259 0 0 0-.268.269v6.358c0 .157.112.269.268.269Z"/><path d="M16.1 12.716c-.022-.067-.022-.111-.022-.179V5.15c0-.76-.627-1.388-1.388-1.388-.761 0-1.388.627-1.388 1.388v5.91a12.13 12.13 0 0 0-.851-.044c-.314 0-.761.045-1.097.09V5.171c0-.762-.627-1.388-1.388-1.388-.761 0-1.388.626-1.388 1.388v7.567c0 .045 0 .09-.023.134-.022.067-.09.135-.112.202a4.914 4.914 0 0 0-.873 2.776 4.844 4.844 0 0 0 4.836 4.836 4.844 4.844 0 0 0 4.836-4.836 4.854 4.854 0 0 0-.985-2.91c-.067-.068-.134-.135-.157-.225Zm-3.716 7.299a4.195 4.195 0 0 1-4.187-4.187c0-.962.336-1.903.94-2.641a.361.361 0 0 0 .068-.202V5.172c0-.403.335-.74.738-.74.403 0 .74.337.74.74v6.604c0 .18.134.314.313.314s.313-.135.313-.314c.314-.067.806-.09 1.097-.09.202 0 .605.023.85.045v.045c0 .18.135.314.314.314.18 0 .314-.135.314-.314V5.172c0-.403.336-.74.739-.74.402 0 .738.337.738.74v7.634c0 .022 0 .045.023.067 0 .067.022.135.067.18a4.197 4.197 0 0 1 1.052 2.775c.067 2.306-1.813 4.187-4.12 4.187Z"/><path d="M15.876 14.328c-.045-.134-.179-.223-.313-.179-.359.112-1.232.403-1.814.74-.134.066-.156.223-.09.357.023.067.09.09.135.112h.045v.023a.653.653 0 0 0-.045.201c0 .358.291.627.627.627a.64.64 0 0 0 .627-.627.618.618 0 0 0-.38-.582 9.85 9.85 0 0 1 1.029-.358c.134-.022.224-.18.18-.314ZM10.951 14.888c-.582-.336-1.478-.627-1.813-.739-.135-.044-.291.045-.314.18-.045.134.045.29.18.313.178.045.604.179 1.03.358a.618.618 0 0 0-.381.582c0 .358.29.627.626.627a.64.64 0 0 0 .627-.627c0-.067-.022-.134-.045-.201v-.023h.023a.349.349 0 0 0 .179-.134.287.287 0 0 0-.112-.336ZM14.533 18.201c-.09-.134-.269-.156-.403-.067-.314.224-.672.38-1.03.493-.022 0-.045 0-.067.022-.023 0-.067 0-.09.023-.044 0-.29.044-.29-.112v-.784c0-.067.022-.134.089-.179.156-.134.29-.246.447-.38.135-.135.135-.292 0-.448-.134-.157-.268-.202-.828-.202-.56 0-.694.045-.828.202-.134.156-.134.313 0 .447.134.135.29.269.448.381.044.045.09.09.09.18v.783c0 .156-.247.112-.292.112h-.045c-.022 0-.044 0-.067-.023a2.672 2.672 0 0 1-1.052-.492c-.134-.09-.313-.067-.403.067-.09.134-.067.313.067.403a3.6 3.6 0 0 0 2.082.672 3.55 3.55 0 0 0 2.082-.672c.157-.112.18-.291.09-.425Z"/></g><defs><clipPath id="a"><path fill="#fff" transform="translate(.406)" d="M0 0h67.187v24H0z"/></clipPath></defs></svg>