<svg width="16" height="16" viewBox="0 0 16 16" fill="none" xmlns="http://www.w3.org/2000/svg">
<path fill-rule="evenodd" clip-rule="evenodd" d="M16 8.00097C16 6.94104 14.6726 5.93656 12.6376 5.31365C13.1072 3.23945 12.8985 1.58923 11.9788 1.06089C11.7677 0.937463 11.5209 0.878734 11.2515 0.878264V0.875C10.3547 0.875 9.1806 1.51422 7.99348 2.62306C6.80636 1.52074 5.63229 0.888045 4.73543 0.888045V0.891307C4.46148 0.891307 4.21362 0.95001 3.99837 1.07394C3.08194 1.60227 2.87648 3.24924 3.34937 5.31691C1.32083 5.94308 0 6.9443 0 8.00097C0 9.06089 1.32735 10.0654 3.36241 10.6883C2.89278 12.7625 3.10151 14.4127 4.0212 14.941C4.23318 15.065 4.48104 15.1237 4.75499 15.1237C5.65185 15.1237 6.82593 14.4845 8.01305 13.3756C9.20016 14.4779 10.3742 15.1106 11.2711 15.1106C11.545 15.1106 11.7929 15.0519 12.0082 14.928C12.9246 14.3997 13.13 12.7527 12.6572 10.685C14.6792 10.0621 16 9.05763 16 8.00097ZM8.51203 3.13183C9.57351 2.14523 10.57 1.60401 11.2483 1.60228V1.60553C11.3983 1.60553 11.519 1.63489 11.6201 1.69033C12.0636 1.94471 12.256 2.91332 12.106 4.15914C12.0701 4.46571 12.0114 4.78858 11.9397 5.11797C11.3004 4.96143 10.6025 4.84076 9.86873 4.76249C9.42845 4.15914 8.97187 3.61124 8.51203 3.13183ZM4.73543 1.61532C5.41052 1.61532 6.41174 2.15343 7.47493 3.13509C7.01834 3.6145 6.56176 4.15914 6.12801 4.76249C5.39095 4.84076 4.69303 4.96143 4.05381 5.12123C3.9788 4.7951 3.92336 4.47875 3.88422 4.17545C3.73094 2.92963 3.9201 1.96102 4.36037 1.70337C4.45821 1.64467 4.58541 1.61858 4.73543 1.61858V1.61532ZM11.7538 5.82571C11.6331 6.24642 11.4831 6.68017 11.3135 7.11393C11.1798 6.85302 11.0395 6.59212 10.8863 6.33121C10.7362 6.07031 10.5764 5.81593 10.4166 5.56807C10.8797 5.63655 11.3265 5.72135 11.7538 5.82571ZM9.4741 10.5447C9.74479 10.1566 10.0057 9.73918 10.2601 9.2989C10.5047 8.87167 10.7297 8.43465 10.9352 7.99764C10.7297 7.56062 10.5047 7.12687 10.2568 6.69964C10.0024 6.26262 9.73827 5.84843 9.46758 5.46034C8.98491 5.4212 8.49245 5.39837 7.99999 5.39837C7.50427 5.39837 7.01181 5.4212 6.52588 5.4636C6.25519 5.85169 5.99428 6.26914 5.7399 6.70942C5.4953 7.13665 5.26701 7.57367 5.06481 8.01068C5.27027 8.4477 5.4953 8.88145 5.74316 9.30869C5.99755 9.7457 6.26171 10.1599 6.5324 10.548C7.01507 10.5871 7.50753 10.61 7.99999 10.61C8.49571 10.61 8.98817 10.5871 9.4741 10.5447ZM11.3135 8.87499C11.4896 9.312 11.6396 9.74902 11.7636 10.173C11.3363 10.2774 10.8863 10.3654 10.4199 10.4339C10.5797 10.1828 10.7395 9.92513 10.8895 9.66096C11.0395 9.40006 11.1798 9.13589 11.3135 8.87499ZM7.09988 11.3113C7.39992 11.6928 7.70322 12.0418 8.00652 12.3549C8.30656 12.0418 8.60987 11.6928 8.90339 11.3113C8.60661 11.3276 8.3033 11.3341 7.99674 11.3341C7.69344 11.3341 7.3934 11.3243 7.09988 11.3113ZM5.58011 10.4339C5.117 10.3654 4.6702 10.2806 4.24297 10.1763C4.36364 9.75554 4.51366 9.32179 4.68325 8.88803C4.81696 9.14894 4.9572 9.40984 5.11048 9.67075C5.26376 9.93165 5.42031 10.186 5.58011 10.4339ZM8.89686 4.6908C8.59682 4.30923 8.29352 3.96027 7.99022 3.64718C7.69018 3.96027 7.38687 4.30923 7.09336 4.6908C7.39014 4.6745 7.69344 4.66797 8 4.66797C8.3033 4.66797 8.60334 4.67776 8.89686 4.6908ZM5.57685 5.56807C5.41704 5.81919 5.25724 6.07683 5.10722 6.341C4.9572 6.6019 4.81696 6.86281 4.68325 7.12371C4.50714 6.6867 4.35712 6.24968 4.23319 5.82571C4.66042 5.72461 5.11048 5.63655 5.57685 5.56807ZM0.724014 8.001C0.724014 8.51303 1.47085 9.15876 2.62536 9.65122C2.90909 9.77189 3.21566 9.88278 3.53853 9.98388C3.72116 9.34792 3.9625 8.68587 4.26254 8.00752C3.95924 7.32591 3.71464 6.6606 3.52874 6.02138C3.2124 6.12248 2.90583 6.23011 2.62536 6.35077C1.47085 6.83997 0.724014 7.48897 0.724014 8.001ZM4.37994 14.3116C3.93641 14.0572 3.74399 13.0886 3.89401 11.8428C3.92988 11.5362 3.98859 11.2133 4.06034 10.8839C4.69955 11.0405 5.39747 11.1611 6.13127 11.2394C6.57155 11.8428 7.02813 12.3907 7.48798 12.8701C6.42479 13.8582 5.42683 14.3996 4.74847 14.3996C4.60171 14.3964 4.47778 14.367 4.37994 14.3116ZM11.6396 14.2986C12.0799 14.041 12.2691 13.0724 12.1158 11.8266C12.0799 11.5233 12.0212 11.2069 11.9462 10.8775C11.307 11.0373 10.6091 11.158 9.872 11.2363C9.43825 11.8396 8.98166 12.3842 8.52508 12.8637C9.58827 13.8453 10.5895 14.3834 11.2646 14.3834C11.4146 14.3834 11.5418 14.3573 11.6396 14.2986ZM13.3714 9.65111C13.0909 9.77178 12.7844 9.87941 12.468 9.98051C12.2821 9.34129 12.0375 8.67598 11.7342 7.99437C12.0343 7.31601 12.2756 6.65397 12.4582 6.01801C12.7811 6.11911 13.0877 6.23 13.3747 6.35067C14.5292 6.84312 15.276 7.48886 15.276 8.00089C15.2727 8.51292 14.5259 9.16192 13.3714 9.65111ZM9.48716 8.00099C9.48716 8.82413 8.81987 9.49141 7.99674 9.49141C7.1736 9.49141 6.50632 8.82413 6.50632 8.00099C6.50632 7.17786 7.1736 6.51057 7.99674 6.51057C8.81987 6.51057 9.48716 7.17786 9.48716 8.00099Z" fill="#61DAFB"/>
</svg>
