<svg width="27" height="30" viewBox="0 0 27 30" fill="none" xmlns="http://www.w3.org/2000/svg">
<path fill-rule="evenodd" clip-rule="evenodd" d="M7.17526 4.65702L12.7581 8.4678C12.8841 8.55171 13.0312 8.59766 13.1823 8.60023C13.3336 8.59913 13.4811 8.55305 13.6065 8.4678L19.1936 4.64419C19.4107 4.48876 19.5304 4.22964 19.5086 3.96231C19.4868 3.69494 19.3268 3.45894 19.0875 3.34116L13.5047 0.577069C13.2929 0.47431 13.0462 0.47431 12.8344 0.577069L7.26859 3.34116C7.02493 3.45957 6.86282 3.70015 6.84355 3.97186C6.82428 4.2436 6.9508 4.50495 7.17526 4.65702ZM15.0786 9.66401C15.079 9.91671 15.2027 10.1531 15.4095 10.2963L19.8851 13.3552C20.1716 13.5527 20.5549 13.528 20.8141 13.2953L24.5685 9.93742C24.7358 9.78792 24.8287 9.57145 24.8222 9.34629C24.8157 9.12113 24.7103 8.91047 24.5346 8.77112L20.9499 5.90448C20.6893 5.69749 20.3258 5.68366 20.0505 5.87029L15.4095 9.04453C15.2064 9.18514 15.0832 9.41584 15.0786 9.66401ZM3.94689 13.8251C4.12777 13.9876 4.22076 14.2273 4.19719 14.4702C4.17368 14.7146 4.03257 14.9317 3.8196 15.0512L1.14699 16.6533C0.876067 16.8152 0.533997 16.7919 0.287252 16.5946C0.04051 16.3973 -0.059654 16.0671 0.0355146 15.7647L1.02395 12.6545C1.10152 12.4081 1.29806 12.2182 1.54575 12.1504C1.79328 12.0784 2.06021 12.1415 2.24998 12.317L3.94689 13.8251ZM18.4427 14.1498L13.6108 10.8431C13.354 10.6704 13.0191 10.6704 12.7623 10.8431L7.93037 14.1498C7.73817 14.2828 7.61643 14.4966 7.59946 14.7308C7.58694 14.9667 7.6804 15.1957 7.85401 15.3546L12.6817 19.6737C12.8209 19.7979 13.0005 19.8663 13.1865 19.866C13.3724 19.8659 13.5519 19.7976 13.6914 19.6737L18.5191 15.3546C18.6932 15.1964 18.7854 14.9664 18.7694 14.7308C18.7559 14.4966 18.6352 14.282 18.4427 14.1498ZM5.55471 13.2953L1.80454 9.93742C1.63581 9.78412 1.54268 9.56377 1.54999 9.33504C1.55407 9.10958 1.65842 8.89791 1.83422 8.7583L5.41894 5.87456C5.68133 5.66817 6.04553 5.65438 6.32255 5.8404L10.9593 9.01461C11.1745 9.15576 11.3043 9.39684 11.3043 9.65546C11.3043 9.91407 11.1745 10.1552 10.9593 10.2963L6.488 13.3551C6.19973 13.5518 5.81587 13.5272 5.55471 13.2953ZM24.8103 18.1187L20.9923 15.833C20.7088 15.6622 20.3478 15.6968 20.1014 15.9185L15.4349 20.0839C15.2381 20.2597 15.1456 20.5255 15.1906 20.7866C15.2355 21.0476 15.4114 21.2667 15.6555 21.3655L22.1292 23.9886C22.218 24.0255 22.3132 24.0444 22.4092 24.0442C22.7097 24.0451 22.9824 23.8676 23.1049 23.5913L25.1115 19.097C25.2748 18.7413 25.1448 18.3189 24.8103 18.1187ZM25.3406 12.6545L26.329 15.7647H26.3206C26.3937 15.9973 26.3522 16.2511 26.2088 16.4479C26.0654 16.6446 25.8375 16.7606 25.5951 16.7601C25.4592 16.7606 25.3257 16.7236 25.2091 16.6533L22.5322 15.0512C22.3237 14.9292 22.1875 14.7123 22.1674 14.4702C22.1424 14.2271 22.2356 13.9868 22.4177 13.8251L24.1146 12.3128C24.3063 12.141 24.5712 12.0783 24.8188 12.1461C25.0664 12.2169 25.2623 12.4077 25.3406 12.6545ZM11.1799 20.7845C11.2256 20.5245 11.134 20.2593 10.9381 20.0839L6.27166 15.9185C6.02523 15.6968 5.6643 15.6622 5.38078 15.833L1.56272 18.1187C1.23214 18.3198 1.10135 18.7369 1.25729 19.0927L3.26811 23.587C3.4347 23.9618 3.86541 24.1372 4.24384 23.9844L10.7133 21.3612C10.9575 21.2633 11.134 21.0451 11.1799 20.7845ZM13.4708 22.0661L18.6633 24.1681C18.9172 24.2767 19.0926 24.5155 19.1215 24.7918C19.1543 25.0715 19.0301 25.3465 18.799 25.5052L13.6023 29.1152C13.4777 29.2027 13.3299 29.2504 13.178 29.2519C13.0263 29.2496 12.8787 29.202 12.7538 29.1152L7.5613 25.5052C7.32939 25.3469 7.20364 25.0722 7.23463 24.7918C7.26929 24.5126 7.45101 24.2741 7.70975 24.1681L12.9023 22.0661C13.0849 21.9933 13.2882 21.9933 13.4708 22.0661Z" fill="#BF4722"/>
</svg>
