<svg width="16" height="16" viewBox="0 0 16 16" fill="none" xmlns="http://www.w3.org/2000/svg">
<path fill-rule="evenodd" clip-rule="evenodd" d="M15 1H1V15H15V1ZM11.7022 12.7364C11.0533 12.7364 10.6865 12.398 10.4045 11.9375L9.33534 12.5586C9.72157 13.3218 10.5109 13.904 11.7327 13.904C12.9822 13.904 13.9127 13.2551 13.9127 12.0706C13.9127 10.972 13.2816 10.4833 12.1638 10.004L11.8349 9.86309C11.2705 9.61865 11.026 9.45887 11.026 9.0642C11.026 8.74487 11.2702 8.50043 11.6556 8.50043C12.0333 8.50043 12.2767 8.65976 12.5022 9.0642L13.5267 8.40643C13.0933 7.6442 12.492 7.35309 11.6556 7.35309C10.4807 7.35309 9.7289 8.1042 9.7289 9.09087C9.7289 10.162 10.3596 10.6686 11.3089 11.0731L11.6378 11.2142C12.2378 11.4766 12.5956 11.6364 12.5956 12.0875C12.5956 12.464 12.2473 12.7364 11.7022 12.7364ZM6.60378 12.7283C6.15178 12.7283 5.96378 12.4183 5.75711 12.0516L4.68622 12.7C4.99644 13.3565 5.60644 13.9016 6.65978 13.9016C7.82556 13.9016 8.62422 13.2816 8.62422 11.9194V7.42829H7.30867V11.9016C7.30867 12.5592 7.036 12.7283 6.60378 12.7283Z" fill="white"/>
</svg>
