<svg width="16" height="16" viewBox="0 0 16 16" fill="none" xmlns="http://www.w3.org/2000/svg">
<path opacity="0.2" d="M8 15C11.866 15 15 11.866 15 8C15 4.13401 11.866 1 8 1C4.13401 1 1 4.13401 1 8C1 11.866 4.13401 15 8 15Z" fill="white"/>
<path fill-rule="evenodd" clip-rule="evenodd" d="M8.48773 4.29828C8.00277 4.20182 7.50011 4.25133 7.04329 4.44055C6.58648 4.62977 6.19603 4.9502 5.92133 5.36132C5.64662 5.77244 5.5 6.25579 5.5 6.75025H7C7 6.55246 7.05865 6.35912 7.16853 6.19468C7.27841 6.03023 7.43459 5.90205 7.61732 5.82637C7.80004 5.75068 8.00111 5.73087 8.19509 5.76946C8.38907 5.80805 8.56725 5.90329 8.70711 6.04314C8.84696 6.18299 8.9422 6.36117 8.98079 6.55515C9.01937 6.74914 8.99957 6.9502 8.92388 7.13293C8.84819 7.31565 8.72002 7.47183 8.55557 7.58171C8.39112 7.6916 8.19778 7.75025 8 7.75025C7.80109 7.75025 7.61032 7.82926 7.46967 7.96992C7.32902 8.11057 7.25 8.30133 7.25 8.50025V10.0002H8.75V9.13509C8.97522 9.06426 9.19049 8.96151 9.38893 8.82892C9.80005 8.55422 10.1205 8.16377 10.3097 7.70695C10.4989 7.25014 10.5484 6.74747 10.452 6.26252C10.3555 5.77757 10.1174 5.33211 9.76777 4.98248C9.41814 4.63285 8.97268 4.39475 8.48773 4.29828ZM8.75 11.25C8.75 11.6642 8.41421 12 8 12C7.58579 12 7.25 11.6642 7.25 11.25C7.25 10.8358 7.58579 10.5 8 10.5C8.41421 10.5 8.75 10.8358 8.75 11.25Z" fill="white"/>
</svg>
