<svg width="26" height="20" fill="none" xmlns="http://www.w3.org/2000/svg"><g clip-path="url(#a)"><mask id="b" style="mask-type:luminance" maskUnits="userSpaceOnUse" x="1" y="1" width="24" height="18"><path fill="#fff" d="M1 1h24v18H1z"/></mask><g mask="url(#b)"><path fill-rule="evenodd" clip-rule="evenodd" d="M1 1v18h24V1H1Z" fill="#093"/><mask id="c" style="mask-type:luminance" maskUnits="userSpaceOnUse" x="1" y="1" width="24" height="18"><path fill-rule="evenodd" clip-rule="evenodd" d="M1 1v18h24V1H1Z" fill="#fff"/></mask><g mask="url(#c)"><g filter="url(#d)" fill-rule="evenodd" clip-rule="evenodd"><path d="m12.945 3.778 9.151 6.378-9.275 5.972-8.964-6.096 9.088-6.254Z" fill="#FFD221"/><path d="m12.945 3.778 9.151 6.378-9.275 5.972-8.964-6.096 9.088-6.254Z" fill="url(#e)"/></g><path fill-rule="evenodd" clip-rule="evenodd" d="M13 13.9a3.75 3.75 0 1 0 0-7.5 3.75 3.75 0 0 0 0 7.5Z" fill="#2E42A5"/><mask id="f" style="mask-type:luminance" maskUnits="userSpaceOnUse" x="9" y="6" width="8" height="8"><path fill-rule="evenodd" clip-rule="evenodd" d="M13 13.9a3.75 3.75 0 1 0 0-7.5 3.75 3.75 0 0 0 0 7.5Z" fill="#fff"/></mask><g mask="url(#f)" fill="#F7FCFF"><path fill-rule="evenodd" clip-rule="evenodd" d="m11.785 11.928-.168.088.032-.187-.135-.132.187-.027.084-.17.084.17.187.027-.135.132.032.187-.168-.088ZM13.285 11.928l-.168.088.032-.187-.135-.132.187-.027.084-.17.084.17.187.027-.135.132.032.187-.168-.088ZM13.285 12.828l-.168.088.032-.187-.135-.132.187-.027.084-.17.084.17.187.027-.135.132.032.187-.168-.088ZM12.535 9.678l-.168.088.032-.187-.135-.132.187-.027.084-.17.084.17.187.027-.135.132.032.187-.168-.088ZM12.535 11.178l-.168.088.032-.187-.135-.132.187-.027.084-.17.084.17.187.027-.135.132.032.187-.168-.088ZM11.485 10.428l-.167.088.032-.187-.136-.132.187-.027.084-.17.084.17.187.027-.136.132.033.187-.168-.088ZM10.435 11.027l-.168.089.032-.187-.135-.132.187-.027.084-.17.084.17.187.027-.136.132.032.187-.167-.088ZM13.885 8.477l-.168.089.032-.187-.135-.132.187-.027.084-.17.084.17.187.027-.135.132.032.187-.168-.089Z"/><path d="m8.444 9.248.112-1.496c3.599.271 6.439 1.455 8.485 3.56l-1.075 1.045c-1.774-1.824-4.27-2.864-7.522-3.11Z"/></g></g></g></g><rect x=".75" y=".75" width="24.5" height="18.5" rx="1.25" stroke="#fff" stroke-width=".5"/><defs><linearGradient id="e" x1="25" y1="19" x2="25" y2="1" gradientUnits="userSpaceOnUse"><stop stop-color="#FFC600"/><stop offset="1" stop-color="#FFDE42"/></linearGradient><clipPath id="a"><rect x="1" y="1" width="24" height="18" rx="1" fill="#fff"/></clipPath><filter id="d" x="3.857" y="3.778" width="18.24" height="12.35" filterUnits="userSpaceOnUse" color-interpolation-filters="sRGB"><feFlood flood-opacity="0" result="BackgroundImageFix"/><feColorMatrix in="SourceAlpha" values="0 0 0 0 0 0 0 0 0 0 0 0 0 0 0 0 0 0 127 0" result="hardAlpha"/><feOffset/><feColorMatrix values="0 0 0 0 0.0313726 0 0 0 0 0.368627 0 0 0 0 0 0 0 0 0.28 0"/><feBlend in2="BackgroundImageFix" result="effect1_dropShadow_1_690"/><feBlend in="SourceGraphic" in2="effect1_dropShadow_1_690" result="shape"/></filter></defs></svg>