<svg width="26" height="20" fill="none" xmlns="http://www.w3.org/2000/svg"><g clip-path="url(#a)"><rect x="1" y="1" width="24" height="18" rx="1" fill="#fff"/><path d="M25 1H1v6h24V1Z" fill="#F93"/><path d="M25 13H1v6h24v-6Z" fill="#128807"/><path d="M13 13a3 3 0 1 0 0-6 3 3 0 0 0 0 6Z" fill="#008"/><path d="M13 12.625a2.625 2.625 0 1 0 0-5.25 2.625 2.625 0 0 0 0 5.25Z" fill="#fff"/><path d="M13 10.525a.525.525 0 1 0 0-1.05.525.525 0 0 0 0 1.05ZM15.585 10.473a.131.131 0 1 0 .035-.26.131.131 0 0 0-.035.26Z" fill="#008"/><path d="m13 12.625.09-1.575-.09-.75-.09.75.09 1.575ZM15.375 11.126a.131.131 0 1 0 .1-.243.131.131 0 0 0-.1.243ZM12.32 12.536l.495-1.498.107-.748-.28.7-.321 1.546ZM15.003 11.702a.131.131 0 1 0 .16-.208.131.131 0 0 0-.16.208ZM11.688 12.273l.865-1.319.297-.694-.453.604-.71 1.41ZM14.494 12.162a.131.131 0 1 0 .208-.16.131.131 0 0 0-.208.16ZM11.144 11.856l1.177-1.05.467-.594-.594.467-1.05 1.177ZM13.883 12.475a.131.131 0 1 0 .243-.1.131.131 0 0 0-.243.1ZM10.727 11.313l1.409-.71.604-.453-.694.297-1.32.866ZM13.213 12.62a.131.131 0 1 0 .26-.035.131.131 0 0 0-.26.035ZM10.464 10.68l1.545-.321.701-.281-.748.107-1.498.494ZM12.527 12.585a.131.131 0 1 0 .26.035.131.131 0 0 0-.26-.035ZM10.375 10l1.575.09.75-.09-.75-.09-1.575.09ZM11.874 12.375a.131.131 0 1 0 .243.1.131.131 0 0 0-.243-.1ZM10.464 9.32l1.498.495.748.107-.7-.28-1.546-.321ZM11.298 12.003a.131.131 0 1 0 .208.16.131.131 0 0 0-.208-.16ZM10.727 8.688l1.319.865.694.297-.604-.453-1.41-.71ZM10.838 11.494a.131.131 0 1 0 .16.208.131.131 0 0 0-.16-.208ZM11.144 8.144l1.05 1.177.594.467-.467-.594-1.177-1.05ZM10.525 10.883a.131.131 0 1 0 .1.243.131.131 0 0 0-.1-.243ZM11.688 7.727l.71 1.409.452.604-.297-.694-.866-1.32ZM10.38 10.213a.131.131 0 1 0 .035.26.131.131 0 0 0-.035-.26ZM12.32 7.464l.321 1.545.281.701-.107-.748-.494-1.498ZM10.415 9.527a.131.131 0 1 0-.035.26.131.131 0 0 0 .035-.26ZM13 7.375l-.09 1.575.09.75.09-.75L13 7.375ZM10.625 8.874a.131.131 0 1 0-.1.243.131.131 0 0 0 .1-.243ZM13.68 7.464l-.495 1.498-.107.748.28-.7.321-1.546ZM10.997 8.298a.131.131 0 1 0-.16.208.131.131 0 0 0 .16-.208ZM14.313 7.727l-.866 1.319-.297.694.453-.604.71-1.41ZM11.506 7.838a.131.131 0 1 0-.208.16.131.131 0 0 0 .208-.16ZM14.856 8.144l-1.177 1.05-.467.594.594-.467 1.05-1.177ZM12.117 7.525a.131.131 0 1 0-.243.1.131.131 0 0 0 .243-.1ZM15.273 8.688l-1.409.71-.604.452.694-.297 1.32-.866ZM12.787 7.38a.131.131 0 1 0-.26.035.131.131 0 0 0 .26-.035ZM15.536 9.32l-1.545.321-.701.281.748-.107 1.498-.494ZM13.473 7.415a.131.131 0 1 0-.26-.035.131.131 0 0 0 .26.035ZM15.625 10l-1.575-.09-.75.09.75.09 1.575-.09ZM14.126 7.625a.131.131 0 1 0-.243-.1.131.131 0 0 0 .243.1ZM15.536 10.68l-1.498-.495-.748-.107.7.28 1.546.321ZM14.702 7.997a.131.131 0 1 0-.208-.16.131.131 0 0 0 .208.16ZM15.273 11.313l-1.319-.866-.694-.297.604.453 1.41.71ZM15.162 8.506a.131.131 0 1 0-.16-.208.131.131 0 0 0 .16.208ZM14.856 11.856l-1.05-1.177-.594-.467.467.594 1.177 1.05ZM15.475 9.117a.131.131 0 1 0-.1-.243.131.131 0 0 0 .1.243ZM14.313 12.273l-.71-1.409-.453-.604.297.694.866 1.32ZM15.62 9.787a.131.131 0 1 0-.035-.26.131.131 0 0 0 .035.26ZM13.68 12.536l-.321-1.545-.281-.701.107.748.494 1.498Z" fill="#008"/></g><rect x=".75" y=".75" width="24.5" height="18.5" rx="1.25" stroke="#fff" stroke-width=".5"/><defs><clipPath id="a"><rect x="1" y="1" width="24" height="18" rx="1" fill="#fff"/></clipPath></defs></svg>