<svg width="26" height="20" fill="none" xmlns="http://www.w3.org/2000/svg"><mask id="a" style="mask-type:luminance" maskUnits="userSpaceOnUse" x="1" y="1" width="24" height="18"><rect x="1" y="1" width="24" height="18" rx="1" fill="#fff"/></mask><g mask="url(#a)"><path fill-rule="evenodd" clip-rule="evenodd" d="M2 1a1 1 0 0 0-1 1v16a1 1 0 0 0 1 1h22a1 1 0 0 0 1-1V2a1 1 0 0 0-1-1H2Z" fill="#F7FCFF"/><mask id="b" style="mask-type:luminance" maskUnits="userSpaceOnUse" x="1" y="1" width="24" height="18"><path fill-rule="evenodd" clip-rule="evenodd" d="M2 1a1 1 0 0 0-1 1v16a1 1 0 0 0 1 1h22a1 1 0 0 0 1-1V2a1 1 0 0 0-1-1H2Z" fill="#fff"/></mask><g mask="url(#b)"><path fill-rule="evenodd" clip-rule="evenodd" d="M2 1a1 1 0 0 0-1 1v7a1 1 0 0 0 1 1h22a1 1 0 0 0 1-1V2a1 1 0 0 0-1-1H2Z" fill="#ED2939"/><path d="M6.613 9.227a3.363 3.363 0 1 0 0-6.727 3.363 3.363 0 0 0 0 6.727Z" fill="#fff"/><path d="M8.137 9.227a3.363 3.363 0 1 0 0-6.727 3.363 3.363 0 0 0 0 6.727Z" fill="#E31D1C"/></g></g><path d="m8.915 3.258-.463 1.424 1.211-.88H8.166l1.211.88-.462-1.424ZM11.313 5H9.815l1.212.88-.463-1.423L10.1 5.88 11.312 5ZM7.433 7.82l1.211-.88H7.147l1.211.88-.463-1.425-.462 1.424ZM10.397 7.82l-.463-1.425L9.47 7.82l1.211-.88H9.185l1.212.88ZM6.517 5l1.211.88-.463-1.423-.462 1.424L8.014 5H6.517Z" fill="#fff"/><rect x=".813" y=".813" width="24.375" height="18.375" rx="1.188" stroke="#fff" stroke-width=".375"/></svg>