<svg width="26" height="24" fill="none" xmlns="http://www.w3.org/2000/svg"><g clip-path="url(#a)"><rect x="1" y="3" width="24" height="18" rx="1" fill="#fff"/><mask id="b" style="mask-type:luminance" maskUnits="userSpaceOnUse" x="1" y="3" width="24" height="18"><path fill="#fff" d="M1 3h24v18H1z"/></mask><g mask="url(#b)"><path fill-rule="evenodd" clip-rule="evenodd" d="M1 3v18h24V3H1Z" fill="#012169"/><mask id="c" style="mask-type:luminance" maskUnits="userSpaceOnUse" x="1" y="3" width="24" height="18"><path fill-rule="evenodd" clip-rule="evenodd" d="M1 3v18h24V3H1Z" fill="#fff"/></mask><g mask="url(#c)"><mask id="d" style="mask-type:luminance" maskUnits="userSpaceOnUse" x="1" y="3" width="24" height="18"><path fill="#fff" d="M1 3h24v18H1z"/></mask><g mask="url(#d)"><path d="m-1.672 19.714 5.28 2.234L25.12 5.428l2.786-3.319-5.648-.746-8.774 7.118-7.062 4.797-8.094 6.436Z" fill="#fff"/><path d="m-.95 21.279 2.691 1.296L26.905 1.801h-3.778L-.949 21.279Z" fill="#C8102E"/><path d="m27.672 19.714-5.28 2.234L.88 5.428-1.906 2.11l5.648-.746 8.774 7.118 7.062 4.797 8.094 6.436Z" fill="#fff"/><path d="m27.492 20.837-2.69 1.296-10.716-8.894-3.176-.994L-2.174 2.121h3.778l13.076 9.884 3.474 1.191 9.338 7.641Z" fill="#C8102E"/><mask id="e" fill="#fff"><path fill-rule="evenodd" clip-rule="evenodd" d="M15.833 1.5h-5.666V9H-.48v6h10.646v7.5h5.666V15h10.688V9H15.833V1.5Z"/></mask><path fill-rule="evenodd" clip-rule="evenodd" d="M15.833 1.5h-5.666V9H-.48v6h10.646v7.5h5.666V15h10.688V9H15.833V1.5Z" fill="#C8102E"/><path d="M10.167 1.5V0h-1.5v1.5h1.5Zm5.666 0h1.5V0h-1.5v1.5ZM10.167 9v1.5h1.5V9h-1.5ZM-.48 9V7.5h-1.5V9h1.5Zm0 6h-1.5v1.5h1.5V15Zm10.646 0h1.5v-1.5h-1.5V15Zm0 7.5h-1.5V24h1.5v-1.5Zm5.666 0V24h1.5v-1.5h-1.5Zm0-7.5v-1.5h-1.5V15h1.5Zm10.688 0v1.5h1.5V15h-1.5Zm0-6h1.5V7.5h-1.5V9ZM15.833 9h-1.5v1.5h1.5V9Zm-5.666-6h5.666V0h-5.666v3Zm1.5 6V1.5h-3V9h3ZM-.48 10.5h10.646v-3H-.48v3Zm1.5 4.5V9h-3v6h3Zm9.146-1.5H-.48v3h10.646v-3Zm1.5 9V15h-3v7.5h3Zm4.166-1.5h-5.666v3h5.666v-3Zm-1.5-6v7.5h3V15h-3Zm12.188-1.5H15.833v3h10.688v-3ZM25.02 9v6h3V9h-3Zm-9.188 1.5h10.688v-3H15.833v3Zm-1.5-9V9h3V1.5h-3Z" fill="#fff" mask="url(#e)"/></g></g></g></g><rect x=".75" y="2.75" width="24.5" height="18.5" rx="1.25" stroke="#fff" stroke-width=".5"/><defs><clipPath id="a"><rect x="1" y="3" width="24" height="18" rx="1" fill="#fff"/></clipPath></defs></svg>