<svg width="26" height="20" fill="none" xmlns="http://www.w3.org/2000/svg"><g clip-path="url(#a)"><rect x="1" y="1" width="24" height="18" rx="1" fill="#fff"/><mask id="b" style="mask-type:luminance" maskUnits="userSpaceOnUse" x="1" y="1" width="24" height="18"><path fill="#fff" d="M1 1h24v18H1z"/></mask><g mask="url(#b)"><path fill-rule="evenodd" clip-rule="evenodd" d="M1 1h24v18H1V1Z" fill="#F7FCFF"/><path fill-rule="evenodd" clip-rule="evenodd" d="M1 12v1.5h24V12H1ZM1 14.75v1.5h24v-1.5H1ZM1 6.5V8h24V6.5H1ZM1 17.5V19h24v-1.5H1ZM1 9.25v1.5h24v-1.5H1ZM1 1v1.5h24V1H1ZM1 3.75v1.5h24v-1.5H1Z" fill="#BE0B31"/><path fill="#012969" d="M1 1h15v9.75H1z"/><path fill-rule="evenodd" clip-rule="evenodd" d="m2.292 3.204-.545.382.184-.68-.484-.43h.632l.212-.554.248.554h.539l-.423.43.163.68-.526-.382Zm3 0-.545.382.184-.68-.484-.43h.632l.212-.554.248.554h.539l-.423.43.163.68-.526-.382Zm2.455.382.545-.382.526.382-.163-.68.423-.43h-.539l-.248-.554-.212.554h-.632l.484.43-.184.68Zm3.544-.382-.544.382.184-.68-.484-.43h.632l.212-.554.248.554h.539l-.423.43.163.68-.527-.382ZM1.747 6.586l.545-.382.526.382-.163-.68.423-.43h-.539l-.248-.554-.212.554h-.632l.484.43-.184.68Zm3.545-.382-.545.382.184-.68-.484-.43h.632l.212-.554.248.554h.539l-.423.43.163.68-.526-.382Zm2.455.382.545-.382.526.382-.163-.68.423-.43h-.539l-.248-.554-.212.554h-.632l.484.43-.184.68Zm3.544-.382-.544.382.184-.68-.484-.43h.632l.212-.554.248.554h.539l-.423.43.163.68-.527-.382ZM1.747 9.586l.545-.382.526.382-.163-.68.423-.43h-.539l-.248-.554-.212.554h-.632l.484.43-.184.68Zm3.545-.382-.545.382.184-.68-.484-.43h.632l.212-.554.248.554h.539l-.423.43.163.68-.526-.382Zm2.455.382.545-.382.526.382-.163-.68.423-.43h-.539l-.248-.554-.212.554h-.632l.484.43-.184.68Zm3.544-.382-.544.382.184-.68-.484-.43h.632l.212-.554.248.554h.539l-.423.43.163.68-.527-.382Zm2.456-5.618.544-.382.527.382-.163-.68.423-.43h-.539l-.248-.554-.212.554h-.632l.484.43-.184.68Zm.544 2.618-.544.382.184-.68-.484-.43h.632l.212-.554.248.554h.539l-.423.43.163.68-.527-.382Zm-.544 3.382.544-.382.527.382-.163-.68.423-.43h-.539l-.248-.554-.212.554h-.632l.484.43-.184.68ZM3.792 4.704l-.545.382.184-.68-.484-.43h.632l.212-.554.248.554h.539l-.423.43.163.68-.526-.382Zm2.455.382.545-.382.526.382-.163-.68.423-.43h-.539l-.248-.554-.212.554h-.632l.484.43-.184.68Zm3.545-.382-.545.382.184-.68-.484-.43h.632l.212-.554.248.554h.539l-.423.43.163.68-.526-.382ZM3.247 8.086l.545-.382.526.382-.163-.68.423-.43h-.539l-.248-.554-.212.554h-.632l.484.43-.184.68Zm3.545-.382-.545.382.184-.68-.484-.43h.632l.212-.554.248.554h.539l-.423.43.163.68-.526-.382Zm2.455.382.545-.382.526.382-.163-.68.423-.43h-.539l-.248-.554-.212.554h-.632l.484.43-.184.68Zm3.544-3.382-.544.382.184-.68-.484-.43h.632l.212-.554.248.554h.539l-.423.43.163.68-.527-.382Zm-.544 3.382.544-.382.527.382-.163-.68.423-.43h-.539l-.248-.554-.212.554h-.632l.484.43-.184.68Z" fill="#F7FCFF"/></g></g><rect x=".75" y=".75" width="24.5" height="18.5" rx="1.25" stroke="#fff" stroke-width=".5"/><defs><clipPath id="a"><rect x="1" y="1" width="24" height="18" rx="1" fill="#fff"/></clipPath></defs></svg>