<svg width="796" height="20" viewBox="0 0 796 20" fill="none" xmlns="http://www.w3.org/2000/svg">
<g clip-path="url(#clip0)">
<path fill-rule="evenodd" clip-rule="evenodd" d="M8.4973 4.20839C8.34213 4.20839 8.19217 4.18645 8.05033 4.1455L3.20505 12.5375C3.31294 12.6405 3.40831 12.7603 3.48704 12.8958C3.56506 13.0315 3.6211 13.1739 3.65624 13.3187H13.3383C13.3734 13.1738 13.4294 13.0314 13.5074 12.8958C13.5858 12.7594 13.6814 12.6389 13.7898 12.5356L8.94545 4.14516C8.80327 4.18633 8.6529 4.20839 8.4973 4.20839ZM7.38904 3.76487C7.37348 3.75001 7.35822 3.73484 7.34327 3.71937L3.63426 5.86083C3.74977 6.26422 3.70795 6.71179 3.48241 7.10414C3.25658 7.49699 2.88869 7.75741 2.4804 7.85891V12.1403C2.50156 12.1455 2.52262 12.1512 2.54355 12.1573L7.38904 3.76487ZM10.1015 2.60419C10.1015 2.76357 10.0783 2.91747 10.0352 3.0627L13.7364 5.19961C13.8406 5.08923 13.9623 4.99178 14.1004 4.91158C14.868 4.47031 15.8471 4.73231 16.2929 5.49994C16.7342 6.26756 16.4722 7.24663 15.7046 7.69249C15.5675 7.77126 15.4236 7.82762 15.2772 7.8627V12.1384C15.422 12.1735 15.5644 12.2295 15.6999 12.3075C16.4722 12.7533 16.7342 13.7324 16.2883 14.5C15.847 15.2676 14.8634 15.5296 14.0957 15.0884C13.9429 15.0005 13.8102 14.8912 13.699 14.7664L10.0205 16.8902C10.073 17.0491 10.1015 17.2191 10.1015 17.3958C10.1015 18.2783 9.38443 19 8.4973 19C7.61017 19 6.89312 18.2829 6.89312 17.3958C6.89312 17.2381 6.91576 17.0859 6.95799 16.942L3.2577 14.8056C3.1546 14.9138 3.03457 15.0094 2.89869 15.0884C2.12647 15.5296 1.1474 15.2676 0.706136 14.5C0.264868 13.7324 0.52687 12.7533 1.29449 12.3075C1.43022 12.2294 1.57255 12.1734 1.71738 12.1383V7.86272C1.57086 7.82765 1.42692 7.77128 1.28986 7.69249C0.522241 7.25123 0.260239 6.26756 0.701507 5.49994C1.14277 4.73231 2.12643 4.47031 2.89406 4.91158C3.03143 4.99137 3.1526 5.08823 3.25646 5.19791L6.95869 3.06036C6.91601 2.91581 6.89312 2.76272 6.89312 2.60419C6.89312 1.71706 7.61017 1 8.4973 1C9.38443 1 10.1015 1.71706 10.1015 2.60419ZM9.64963 3.72112C9.63551 3.73569 9.62111 3.74999 9.60645 3.76402L14.452 12.1564C14.4726 12.1505 14.4933 12.145 14.5141 12.1399V7.85894C14.1058 7.75746 13.7379 7.49702 13.512 7.10414C13.2869 6.71253 13.2448 6.26589 13.3595 5.86309L9.64963 3.72112ZM9.68367 16.3151L13.3695 14.187C13.3584 14.1523 13.3485 14.1171 13.3398 14.0817H3.65419C3.64905 14.1025 3.64349 14.1233 3.63753 14.1438L7.34154 16.2824C7.63319 15.9797 8.04294 15.7916 8.4973 15.7916C8.96779 15.7916 9.39044 15.9933 9.68367 16.3151ZM24.8809 13.708C23.9377 13.708 23.2033 13.4524 22.6777 12.9412C22.1593 12.4228 21.8821 11.7172 21.8461 10.8244C21.8389 10.6084 21.8353 10.27 21.8353 9.80918C21.8353 9.34118 21.8389 9.00278 21.8461 8.79398C21.8821 7.90838 22.1629 7.20998 22.6885 6.69878C23.2141 6.18758 23.9449 5.93198 24.8809 5.93198C25.5145 5.93198 26.0509 6.04718 26.4901 6.27758C26.9365 6.50078 27.2713 6.77438 27.4945 7.09838C27.7177 7.42238 27.8365 7.72478 27.8509 8.00558V8.02718C27.8509 8.08478 27.8293 8.13158 27.7861 8.16758C27.7429 8.20358 27.6889 8.22158 27.6241 8.22158H26.9869C26.9149 8.22158 26.8609 8.21078 26.8249 8.18918C26.7961 8.16038 26.7673 8.10638 26.7385 8.02718C26.6305 7.70318 26.4217 7.42598 26.1121 7.19558C25.8097 6.96518 25.3993 6.84998 24.8809 6.84998C24.2833 6.84998 23.8153 7.01198 23.4769 7.33598C23.1385 7.65998 22.9549 8.16398 22.9261 8.84798C22.9189 9.05678 22.9153 9.37718 22.9153 9.80918C22.9153 10.234 22.9189 10.5544 22.9261 10.7704C22.9549 11.4616 23.1385 11.9728 23.4769 12.304C23.8153 12.628 24.2833 12.79 24.8809 12.79C25.4857 12.79 25.9681 12.6244 26.3281 12.2932C26.6881 11.962 26.8681 11.4652 26.8681 10.8028V10.3492H25.2481C25.1761 10.3492 25.1149 10.3276 25.0645 10.2844C25.0213 10.234 24.9997 10.1692 24.9997 10.09V9.74438C24.9997 9.67238 25.0213 9.61118 25.0645 9.56078C25.1149 9.51038 25.1761 9.48518 25.2481 9.48518H27.6889C27.7609 9.48518 27.8185 9.51038 27.8617 9.56078C27.9121 9.60398 27.9373 9.66518 27.9373 9.74438V10.7812C27.9373 11.3716 27.8149 11.8864 27.5701 12.3256C27.3253 12.7648 26.9725 13.1068 26.5117 13.3516C26.0509 13.5892 25.5073 13.708 24.8809 13.708ZM29.3701 13.6C29.2981 13.6 29.2369 13.5784 29.1865 13.5352C29.1433 13.4848 29.1217 13.4236 29.1217 13.3516V8.24318C29.1217 8.17118 29.1433 8.10998 29.1865 8.05958C29.2369 8.00918 29.2981 7.98398 29.3701 7.98398H29.8669C29.9389 7.98398 30.0001 8.00918 30.0505 8.05958C30.1009 8.10998 30.1261 8.17118 30.1261 8.24318V8.71838C30.4213 8.22878 30.9253 7.98398 31.6381 7.98398H32.0593C32.1313 7.98398 32.1889 8.00918 32.2321 8.05958C32.2825 8.10278 32.3077 8.16038 32.3077 8.23238V8.67518C32.3077 8.74718 32.2825 8.80478 32.2321 8.84798C32.1889 8.89118 32.1313 8.91278 32.0593 8.91278H31.4113C31.0225 8.91278 30.7165 9.02798 30.4933 9.25838C30.2701 9.48158 30.1585 9.78758 30.1585 10.1764V13.3516C30.1585 13.4236 30.1333 13.4848 30.0829 13.5352C30.0325 13.5784 29.9713 13.6 29.8993 13.6H29.3701ZM33.5072 13.492C33.8096 13.636 34.1372 13.708 34.49 13.708C34.958 13.708 35.3432 13.6288 35.6456 13.4704C35.948 13.312 36.1784 13.1176 36.3368 12.8872V13.3516C36.3368 13.4236 36.3584 13.4848 36.4016 13.5352C36.452 13.5784 36.5132 13.6 36.5852 13.6H37.082C37.154 13.6 37.2116 13.5784 37.2548 13.5352C37.3052 13.4848 37.3304 13.4236 37.3304 13.3516V9.85238C37.3304 9.29078 37.154 8.82278 36.8012 8.44838C36.4484 8.06678 35.8688 7.87598 35.0624 7.87598C34.5872 7.87598 34.1876 7.95878 33.8636 8.12438C33.5396 8.28278 33.2984 8.47358 33.14 8.69678C32.9888 8.91278 32.9096 9.10718 32.9024 9.27998C32.9024 9.34478 32.924 9.40238 32.9672 9.45278C33.0176 9.49598 33.0752 9.51758 33.14 9.51758H33.6044C33.662 9.51758 33.7052 9.50318 33.734 9.47438C33.77 9.44558 33.7988 9.39878 33.8204 9.33398C33.9212 9.15398 34.0724 8.99918 34.274 8.86958C34.4756 8.73278 34.7348 8.66438 35.0516 8.66438C35.894 8.66438 36.3152 9.03158 36.3152 9.76598V10.0792L34.706 10.306C34.0364 10.3996 33.5036 10.6012 33.1076 10.9108C32.7188 11.2132 32.5244 11.602 32.5244 12.0772C32.5244 12.3796 32.6108 12.6568 32.7836 12.9088C32.9636 13.1536 33.2048 13.348 33.5072 13.492ZM35.8616 12.4444C35.5664 12.7468 35.1848 12.898 34.7168 12.898C34.3928 12.898 34.112 12.8224 33.8744 12.6712C33.6368 12.5128 33.518 12.2896 33.518 12.0016C33.518 11.7424 33.6476 11.53 33.9068 11.3644C34.166 11.1916 34.5512 11.0692 35.0624 10.9972L36.3152 10.8136V11.116C36.3152 11.692 36.164 12.1348 35.8616 12.4444ZM38.9262 15.652C38.8542 15.652 38.793 15.6268 38.7426 15.5764C38.6994 15.5332 38.6778 15.4756 38.6778 15.4036V8.23238C38.6778 8.16038 38.6994 8.10278 38.7426 8.05958C38.793 8.00918 38.8542 7.98398 38.9262 7.98398H39.423C39.495 7.98398 39.5526 8.00918 39.5958 8.05958C39.6462 8.10278 39.6714 8.16038 39.6714 8.23238V8.70758C40.0746 8.15318 40.665 7.87598 41.4426 7.87598C42.1986 7.87598 42.7638 8.11358 43.1382 8.58878C43.5198 9.06398 43.725 9.67598 43.7538 10.4248C43.761 10.504 43.7646 10.6264 43.7646 10.792C43.7646 10.9576 43.761 11.08 43.7538 11.1592C43.725 11.9008 43.5198 12.5128 43.1382 12.9952C42.7566 13.4704 42.1914 13.708 41.4426 13.708C40.6938 13.708 40.1106 13.438 39.693 12.898V15.4036C39.693 15.4756 39.6714 15.5332 39.6282 15.5764C39.585 15.6268 39.5274 15.652 39.4554 15.652H38.9262ZM41.2158 12.8332C41.727 12.8332 42.0978 12.6748 42.3282 12.358C42.5658 12.0412 42.6954 11.6236 42.717 11.1052C42.7242 11.0332 42.7278 10.9288 42.7278 10.792C42.7278 9.43118 42.2238 8.75078 41.2158 8.75078C40.719 8.75078 40.3446 8.91638 40.0926 9.24758C39.8478 9.57158 39.7146 9.96038 39.693 10.414L39.6822 10.8244L39.693 11.2456C39.7074 11.6704 39.8442 12.0412 40.1034 12.358C40.3626 12.6748 40.7334 12.8332 41.2158 12.8332ZM44.9602 13.5352C45.0106 13.5784 45.0718 13.6 45.1438 13.6H45.6838C45.7558 13.6 45.8134 13.5784 45.8566 13.5352C45.907 13.4848 45.9322 13.4236 45.9322 13.3516V10.36C45.9322 9.85598 46.0654 9.46358 46.3318 9.18278C46.6054 8.89478 46.969 8.75078 47.4226 8.75078C47.8906 8.75078 48.247 8.89118 48.4918 9.17198C48.7438 9.45278 48.8698 9.84878 48.8698 10.36V13.3516C48.8698 13.4236 48.8914 13.4848 48.9346 13.5352C48.985 13.5784 49.0462 13.6 49.1182 13.6H49.6582C49.7302 13.6 49.7878 13.5784 49.831 13.5352C49.8814 13.4848 49.9066 13.4236 49.9066 13.3516V10.306C49.9066 9.57158 49.7122 8.98478 49.3234 8.54558C48.9418 8.09918 48.4054 7.87598 47.7142 7.87598C47.2966 7.87598 46.9474 7.94798 46.6666 8.09198C46.3858 8.22878 46.141 8.43038 45.9322 8.69678V6.18038C45.9322 6.10838 45.907 6.05078 45.8566 6.00758C45.8134 5.95718 45.7558 5.93198 45.6838 5.93198H45.1438C45.0718 5.93198 45.0106 5.95718 44.9602 6.00758C44.917 6.05078 44.8954 6.10838 44.8954 6.18038V13.3516C44.8954 13.4236 44.917 13.4848 44.9602 13.5352ZM56.2611 14.302C56.1819 14.302 56.1134 14.2768 56.0559 14.2264C55.9982 14.1832 55.9443 14.1256 55.8938 14.0536L55.451 13.4488C55.0767 13.6216 54.6267 13.708 54.1011 13.708C53.1651 13.708 52.4379 13.4632 51.9195 12.9736C51.4083 12.4768 51.1383 11.7316 51.1095 10.738C51.1022 10.522 51.0987 10.216 51.0987 9.81998C51.0987 9.42398 51.1022 9.12158 51.1095 8.91278C51.1383 7.94078 51.419 7.20278 51.9519 6.69878C52.4846 6.18758 53.201 5.93198 54.1011 5.93198C55.0083 5.93198 55.7247 6.18758 56.2503 6.69878C56.7831 7.20278 57.0639 7.94078 57.0927 8.91278C57.1071 9.33038 57.1143 9.63278 57.1143 9.81998C57.1143 9.99998 57.1071 10.306 57.0927 10.738C57.0639 11.7244 56.8047 12.4624 56.3151 12.952L57.0279 13.9672C57.0495 14.0104 57.0603 14.05 57.0603 14.086V14.1076C57.0603 14.158 57.0387 14.2012 56.9955 14.2372C56.9523 14.2804 56.9019 14.302 56.8443 14.302H56.2611ZM54.1011 12.79C54.6698 12.79 55.1235 12.6172 55.4619 12.2716C55.8075 11.926 55.9947 11.3968 56.0235 10.684C56.0379 10.252 56.0451 9.96398 56.0451 9.81998C56.0451 9.66158 56.0379 9.37358 56.0235 8.95598C55.9947 8.24318 55.8075 7.71398 55.4619 7.36838C55.1235 7.02278 54.6698 6.84998 54.1011 6.84998C53.5322 6.84998 53.0787 7.02278 52.7403 7.36838C52.4019 7.71398 52.2183 8.24318 52.1894 8.95598C52.1823 9.16478 52.1786 9.45278 52.1786 9.81998C52.1786 10.18 52.1823 10.468 52.1894 10.684C52.2183 11.3968 52.4019 11.926 52.7403 12.2716C53.0787 12.6172 53.5322 12.79 54.1011 12.79ZM58.548 13.5352C58.5984 13.5784 58.6596 13.6 58.7316 13.6H63.138C63.21 13.6 63.2712 13.5784 63.3216 13.5352C63.372 13.4848 63.3972 13.4236 63.3972 13.3516V12.9196C63.3972 12.8404 63.372 12.7792 63.3216 12.736C63.2784 12.6856 63.2172 12.6604 63.138 12.6604H59.5524V6.28838C59.5524 6.21638 59.5272 6.15878 59.4768 6.11558C59.4336 6.06518 59.376 6.03998 59.304 6.03998H58.7316C58.6596 6.03998 58.5984 6.06518 58.548 6.11558C58.5048 6.15878 58.4832 6.21638 58.4832 6.28838V13.3516C58.4832 13.4236 58.5048 13.4848 58.548 13.5352Z" fill="#E535AB"/>
</g>
<g clip-path="url(#clip1)">
<path fill-rule="evenodd" clip-rule="evenodd" d="M106.977 4.53L104.467 5.07V3.03L106.977 2.5V4.53ZM112.197 5.66C111.217 5.66 110.587 6.12 110.237 6.44L110.107 5.82H107.907V17.48L110.407 16.95L110.417 14.12C110.777 14.38 111.307 14.75 112.187 14.75C113.977 14.75 115.607 13.31 115.607 10.14C115.597 7.24 113.947 5.66 112.197 5.66ZM111.597 12.55C111.007 12.55 110.657 12.34 110.417 12.08L110.407 8.37C110.667 8.08 111.027 7.88 111.597 7.88C112.507 7.88 113.137 8.9 113.137 10.21C113.137 11.55 112.517 12.55 111.597 12.55ZM123.488 10.24C123.488 7.68 122.248 5.66 119.878 5.66C117.498 5.66 116.058 7.68 116.058 10.22C116.058 13.23 117.758 14.75 120.198 14.75C121.388 14.75 122.288 14.48 122.968 14.1V12.1C122.288 12.44 121.508 12.65 120.518 12.65C119.548 12.65 118.688 12.31 118.578 11.13H123.468C123.468 11.0749 123.471 10.9497 123.475 10.8054L123.475 10.8052V10.8051L123.475 10.8049V10.8048V10.8048C123.481 10.6089 123.488 10.3781 123.488 10.24ZM118.548 9.29C118.548 8.16 119.238 7.69 119.868 7.69C120.478 7.69 121.128 8.16 121.128 9.29H118.548ZM106.977 5.83001H104.467V14.58H106.977V5.83001ZM101.618 5.83L101.778 6.57C102.368 5.49 103.538 5.71 103.858 5.83V8.13C103.548 8.02 102.548 7.88 101.958 8.65V14.58H99.4579V5.83H101.618ZM96.7776 3.65999L94.3376 4.17999L94.3276 12.19C94.3276 13.67 95.4376 14.76 96.9176 14.76C97.7376 14.76 98.3376 14.61 98.6676 14.43V12.4C98.3476 12.53 96.7676 12.99 96.7676 11.51V7.95999H98.6676V5.82999H96.7676L96.7776 3.65999ZM90.8673 7.83C90.3373 7.83 90.0173 7.98 90.0173 8.37C90.0173 8.79582 90.568 8.98313 91.2513 9.21551C92.3651 9.59435 93.8311 10.093 93.8373 11.94C93.8373 13.73 92.4073 14.76 90.3273 14.76C89.4673 14.76 88.5273 14.59 87.5973 14.19V11.81C88.4373 12.27 89.4973 12.61 90.3273 12.61C90.8873 12.61 91.2873 12.46 91.2873 12C91.2873 11.5283 90.6903 11.3127 89.9696 11.0525C88.8719 10.6561 87.4873 10.156 87.4873 8.49C87.4873 6.72 88.8373 5.66 90.8673 5.66C91.6973 5.66 92.5173 5.79 93.3473 6.12V8.47C92.5873 8.06 91.6273 7.83 90.8673 7.83Z" fill="#635BFF"/>
</g>
<g clip-path="url(#clip2)">
<path fill-rule="evenodd" clip-rule="evenodd" d="M171.634 6.00088H170.07V9.68926H168.304V6.00088H166.74V14.4963H168.304V10.8754H170.07V14.4945H171.634V6.00088ZM191.679 14.4963V11.1849H192.194L193.5 14.4963H195.186L193.758 11.144C194.421 11.0177 194.751 10.5874 194.751 9.85109V7.3329C194.751 6.44548 194.258 6.00088 193.27 6.00088H190.117V14.4963H191.679ZM191.679 10.0397V7.1853H192.807C192.952 7.1853 193.053 7.21019 193.107 7.25999C193.16 7.30978 193.187 7.40582 193.187 7.54987V9.67503C193.187 9.81909 193.16 9.91515 193.107 9.96493C193.051 10.0147 192.952 10.0397 192.807 10.0397H191.679ZM176.457 14.4962L176.13 12.7321H174.254L173.954 14.4962H172.39L174.116 6.00261H176.222L178.03 14.4962H176.457ZM174.459 11.5601H175.913L175.166 7.49469L174.459 11.5601ZM181.515 11.1297V12.9473C181.515 13.0913 181.486 13.1873 181.431 13.2372C181.375 13.2869 181.276 13.3118 181.131 13.3118H180.614C180.459 13.3118 180.355 13.2869 180.301 13.2372C180.247 13.1873 180.22 13.0913 180.22 12.9473V11.9922H178.658V13.1642C178.658 14.0517 179.152 14.4962 180.14 14.4962H181.608C182.596 14.4962 183.09 14.0535 183.09 13.1642V10.943C183.09 10.0627 182.614 9.62342 181.662 9.62342H180.588C180.434 9.62342 180.33 9.59853 180.276 9.54875C180.222 9.49897 180.195 9.40291 180.195 9.25885V7.54982C180.195 7.40578 180.222 7.30974 180.276 7.25994C180.33 7.21015 180.434 7.18525 180.588 7.18525H181.106C181.251 7.18525 181.352 7.21015 181.405 7.25994C181.459 7.30974 181.486 7.40578 181.486 7.54982V8.51906H183.063V7.33464C183.063 6.44722 182.574 6.00261 181.596 6.00261H180.1C179.122 6.00261 178.633 6.44544 178.633 7.33464V9.41891C178.633 10.317 179.1 10.7652 180.034 10.7652H181.134C181.28 10.7652 181.38 10.7901 181.434 10.8399C181.488 10.8897 181.515 10.9857 181.515 11.1297ZM199.154 12.7321L199.481 14.4962H201.055L199.247 6.00261H197.141L195.416 14.4962H196.978L197.278 12.7321H199.154ZM198.938 11.5601H197.484L198.191 7.49469L198.938 11.5601ZM187.26 6.00088H188.823V13.1625C188.823 14.0517 188.329 14.4945 187.341 14.4945H185.684C184.696 14.4945 184.203 14.0499 184.203 13.1625V6.00088H185.767V12.9473C185.767 13.0914 185.793 13.1874 185.847 13.2372C185.901 13.287 186.002 13.3119 186.147 13.3119H186.867C187.022 13.3119 187.126 13.287 187.18 13.2372C187.233 13.1874 187.26 13.0914 187.26 12.9473V6.00088Z" fill="#1B2738"/>
<path fill-rule="evenodd" clip-rule="evenodd" d="M162.302 2.09207C163.193 3.13599 163.469 5.96365 163.01 7.38103C162.857 7.85231 162.814 8.35028 162.902 8.83401C162.992 9.31413 163.081 9.89393 163.081 10.2976C163.081 14.4413 159.69 17.8025 155.504 17.8025C151.321 17.8025 147.927 14.4431 147.927 10.2976C147.927 9.89393 148.017 9.31413 148.107 8.83401C148.197 8.35028 148.155 7.85231 148.003 7.38103C147.543 5.96543 147.82 3.13777 148.71 2.09207C148.827 1.95691 149.044 1.97469 149.141 2.12586L150.238 3.83134C150.511 4.17102 151 4.25105 151.366 4.01274C152.556 3.24091 153.978 2.79276 155.506 2.79276C157.034 2.79276 158.456 3.24091 159.647 4.01274C160.015 4.25105 160.503 4.17279 160.774 3.83134L161.871 2.12586C161.968 1.97469 162.185 1.95513 162.302 2.09207ZM149.639 10.3154C149.639 13.5201 152.269 16.1272 155.504 16.1272C158.74 16.1272 161.372 13.5201 161.374 10.3172C161.374 10.214 161.37 10.1091 161.365 10.0059C161.248 7.82386 159.909 5.95653 158.015 5.06733C157.253 4.70632 156.404 4.50713 155.506 4.50713C154.608 4.50713 153.757 4.70632 152.998 5.06555C151.104 5.95476 149.764 7.8203 149.647 10.0041C149.642 10.1073 149.639 10.2105 149.639 10.3154ZM156.547 9.97747L158.047 12.5526C158.077 12.6041 158.077 12.6682 158.047 12.718C158.018 12.7695 157.962 12.8015 157.901 12.8015H156.682C156.623 12.8015 156.567 12.7695 156.537 12.718L155.736 11.3433L154.843 12.7233C154.813 12.7713 154.759 12.7998 154.702 12.7998H153.465C153.402 12.7998 153.344 12.766 153.315 12.7126C153.287 12.6593 153.289 12.5935 153.323 12.5419L154.973 10.0486L153.743 8.00165C153.712 7.9501 153.71 7.88606 153.741 7.83449C153.772 7.78114 153.827 7.74913 153.888 7.74913H155.116C155.176 7.74913 155.231 7.77936 155.262 7.83093L156.547 9.97747Z" fill="#1EB4D4"/>
</g>
<g clip-path="url(#clip3)">
<path fill-rule="evenodd" clip-rule="evenodd" d="M245.427 7.36675L245.473 8.191C245.999 7.5535 246.69 7.23475 247.545 7.23475C249.026 7.23475 249.78 8.08525 249.807 9.78625V14.4992H248.209V9.8785C248.209 9.42587 248.112 9.091 247.917 8.87312C247.722 8.65562 247.403 8.54687 246.96 8.54687C246.315 8.54687 245.835 8.83937 245.52 9.42362V14.4992H243.921V7.36675H245.427H245.427ZM254.568 14.6312C253.556 14.6312 252.735 14.3117 252.106 13.6724C251.477 13.033 251.162 12.1814 251.162 11.1179V10.9202C251.162 10.2085 251.299 9.57212 251.573 9.01187C251.847 8.45162 252.232 8.0155 252.727 7.70312C253.223 7.3915 253.775 7.2355 254.385 7.2355C255.353 7.2355 256.102 7.54525 256.63 8.16475C257.159 8.78462 257.423 9.661 257.423 10.795V11.4411H252.773C252.822 12.0299 253.017 12.4956 253.362 12.8384C253.706 13.1811 254.139 13.3525 254.661 13.3525C255.393 13.3525 255.989 13.0562 256.449 12.4626L257.311 13.2869C257.026 13.7129 256.646 14.0436 256.17 14.2787C255.694 14.5139 255.161 14.6312 254.569 14.6312H254.568ZM254.378 8.521C253.939 8.521 253.586 8.67475 253.316 8.98225C253.046 9.28975 252.874 9.71837 252.8 10.2677H255.845V10.1489C255.809 9.61262 255.667 9.20762 255.417 8.93275C255.167 8.65825 254.821 8.521 254.378 8.521ZM260.665 5.6335V7.36712H261.921V8.55362H260.665V12.535C260.665 12.8072 260.719 13.0037 260.826 13.1249C260.933 13.2456 261.125 13.306 261.402 13.306C261.59 13.3055 261.777 13.2833 261.96 13.24V14.4794C261.597 14.5806 261.246 14.6309 260.908 14.6309C259.681 14.6309 259.067 13.9521 259.067 12.5942V8.55325H257.895V7.36675H259.066V5.63312H260.664L260.665 5.6335ZM264.841 14.4996H263.243V4.37462H264.841V14.4996ZM268.281 14.4996H266.682V7.36712H268.281V14.4996ZM266.584 5.51462C266.584 5.269 266.661 5.06462 266.817 4.90187C266.973 4.7395 267.195 4.65812 267.485 4.65812C267.774 4.65812 267.998 4.7395 268.156 4.90187C268.313 5.06462 268.392 5.269 268.392 5.515C268.392 5.7565 268.313 5.9575 268.156 6.118C267.998 6.2785 267.774 6.35875 267.485 6.35875C267.195 6.35875 266.973 6.2785 266.817 6.118C266.661 5.95787 266.584 5.7565 266.584 5.515V5.51462ZM270.582 14.4996V8.55325H269.497V7.36675H270.582V6.71425C270.582 5.923 270.801 5.3125 271.24 4.88162C271.679 4.45112 272.292 4.23587 273.081 4.23587C273.362 4.23587 273.66 4.27525 273.976 4.35437L273.936 5.60687C273.735 5.56944 273.53 5.55186 273.325 5.55437C272.562 5.55437 272.18 5.94737 272.18 6.73412V7.36675H273.627V8.55325H272.18V14.4992H270.582V14.4996ZM277.284 12.2057L278.73 7.36712H280.434L277.606 15.5807C277.172 16.7804 276.435 17.3804 275.396 17.3804C275.164 17.3804 274.907 17.3406 274.627 17.2615V16.0221L274.929 16.042C275.333 16.042 275.636 15.9685 275.84 15.8211C276.044 15.6741 276.205 15.427 276.324 15.0797L276.554 14.4666L274.055 7.36712H275.778L277.284 12.2057Z" fill="#0E1E25"/>
<path d="M235.871 7.80063L235.865 7.79838C235.862 7.79725 235.859 7.79613 235.857 7.7935C235.852 7.78888 235.849 7.78333 235.847 7.77729C235.846 7.77124 235.845 7.76486 235.846 7.75863L236.136 5.98638L237.496 7.34613L236.082 7.94763C236.078 7.94921 236.074 7.94998 236.069 7.94988H236.064C236.062 7.94875 236.06 7.94725 236.056 7.9435C236.004 7.88492 235.941 7.83649 235.871 7.80063ZM237.842 7.69263L239.296 9.14613C239.598 9.44838 239.749 9.59913 239.804 9.77388C239.812 9.79975 239.819 9.82563 239.824 9.85225L236.351 8.38113C236.349 8.38036 236.347 8.37961 236.345 8.37888C236.331 8.37325 236.315 8.36688 236.315 8.35263C236.315 8.33838 236.332 8.33163 236.345 8.326L236.35 8.32413L237.842 7.69263ZM239.765 10.3188C239.69 10.4598 239.544 10.606 239.296 10.8539L237.658 12.4923L235.538 12.0509L235.527 12.0486C235.508 12.0456 235.488 12.0423 235.488 12.0254C235.48 11.9379 235.454 11.8531 235.412 11.7761C235.37 11.6992 235.312 11.6317 235.243 11.578C235.234 11.5694 235.236 11.5559 235.239 11.5435C235.239 11.5416 235.239 11.5398 235.24 11.5383L235.638 9.091L235.64 9.08275C235.642 9.064 235.645 9.04225 235.662 9.04225C235.748 9.03163 235.83 9.0041 235.905 8.96129C235.979 8.91848 236.045 8.86123 236.097 8.79288C236.101 8.78913 236.103 8.785 236.107 8.78275C236.119 8.77713 236.134 8.78275 236.146 8.788L239.765 10.3188H239.765ZM237.281 12.8691L234.586 15.5639L235.047 12.7289L235.048 12.7251C235.048 12.7214 235.049 12.7176 235.05 12.7143C235.054 12.7053 235.064 12.7015 235.073 12.6978L235.078 12.6959C235.179 12.6528 235.268 12.5863 235.338 12.502C235.347 12.4915 235.358 12.4814 235.372 12.4795C235.376 12.4789 235.379 12.4789 235.383 12.4795L237.28 12.8695L237.281 12.8691ZM234.016 16.1343L233.712 16.438L230.354 11.5848C230.352 11.583 230.351 11.5812 230.35 11.5795C230.345 11.5724 230.339 11.5653 230.34 11.557C230.34 11.551 230.344 11.5458 230.348 11.5413L230.352 11.5364C230.362 11.5214 230.371 11.5064 230.38 11.4903L230.388 11.4771L230.389 11.476C230.394 11.467 230.399 11.4584 230.408 11.4535C230.416 11.4498 230.427 11.4513 230.435 11.4531L234.156 12.2204C234.166 12.222 234.176 12.2263 234.184 12.2328C234.189 12.2376 234.19 12.2429 234.191 12.2489C234.217 12.3471 234.266 12.4379 234.333 12.5144C234.399 12.5908 234.483 12.6507 234.577 12.6895C234.587 12.6948 234.583 12.7064 234.578 12.7188C234.576 12.7242 234.574 12.7298 234.572 12.7356C234.526 13.0206 234.124 15.4724 234.016 16.1343ZM233.381 16.7684C233.157 16.99 233.025 17.1074 232.876 17.1546C232.729 17.2012 232.571 17.2012 232.424 17.1546C232.249 17.0991 232.098 16.9484 231.796 16.6461L228.424 13.2738L229.304 11.9076C229.309 11.9009 229.313 11.8949 229.319 11.89C229.329 11.8833 229.342 11.8863 229.354 11.89C229.556 11.951 229.773 11.94 229.968 11.8589C229.978 11.8551 229.988 11.8525 229.996 11.8596C230 11.8632 230.003 11.8672 230.006 11.8716L233.381 16.7688V16.7684ZM228.098 12.9486L227.325 12.175L228.853 11.5233C228.856 11.5216 228.861 11.5207 228.865 11.5206C228.878 11.5206 228.885 11.5334 228.892 11.545C228.907 11.5686 228.924 11.5916 228.941 11.614L228.946 11.62C228.95 11.6264 228.947 11.6328 228.943 11.6388L228.099 12.9486H228.098ZM226.982 11.8326L226.004 10.8539C225.837 10.6874 225.716 10.5666 225.632 10.4628L228.608 11.08C228.612 11.0807 228.616 11.0813 228.62 11.0819C228.638 11.0849 228.658 11.0883 228.658 11.1055C228.658 11.1243 228.636 11.1329 228.617 11.14L228.609 11.1438L226.982 11.8326ZM225.461 9.9595C225.465 9.89645 225.476 9.83409 225.495 9.77388C225.551 9.59913 225.701 9.44838 226.004 9.14613L227.256 7.89363C227.833 8.73058 228.411 9.56646 228.991 10.4013C229.001 10.4148 229.012 10.4298 229.001 10.441C228.946 10.5014 228.891 10.5674 228.853 10.639C228.848 10.6482 228.842 10.6562 228.834 10.6623C228.829 10.6653 228.824 10.6641 228.818 10.663H228.817L225.461 9.95913V9.9595ZM227.591 7.55838L229.275 5.87425C229.433 5.94363 230.01 6.187 230.525 6.4045C230.915 6.5695 231.27 6.7195 231.382 6.76825C231.393 6.77275 231.403 6.77725 231.408 6.7885C231.411 6.79525 231.41 6.80388 231.408 6.811C231.382 6.93257 231.385 7.05885 231.42 7.17851C231.454 7.29816 231.517 7.40743 231.604 7.4965C231.616 7.50775 231.604 7.52388 231.595 7.53775L231.589 7.54563L229.879 10.1943C229.875 10.2018 229.871 10.2081 229.863 10.213C229.854 10.2186 229.841 10.216 229.831 10.2134C229.764 10.196 229.696 10.1866 229.627 10.1856C229.566 10.1856 229.499 10.1969 229.432 10.2093H229.431C229.424 10.2104 229.417 10.2119 229.411 10.2074C229.404 10.202 229.399 10.1955 229.394 10.1883L227.591 7.55838H227.591ZM229.616 5.53413L231.796 3.35388C232.098 3.052 232.249 2.90088 232.424 2.84575C232.571 2.79922 232.729 2.79922 232.876 2.84575C233.051 2.90088 233.202 3.052 233.504 3.35388L233.976 3.82638L232.426 6.22788C232.422 6.23487 232.416 6.241 232.41 6.24588C232.401 6.25225 232.388 6.24963 232.376 6.24588C232.254 6.20878 232.125 6.20202 231.999 6.2262C231.874 6.25037 231.756 6.30475 231.656 6.38463C231.646 6.39513 231.631 6.38913 231.619 6.3835C231.416 6.29538 229.841 5.62975 229.616 5.53413ZM234.305 4.15563L235.737 5.58738L235.392 7.72413V7.72975C235.392 7.73462 235.391 7.73942 235.389 7.744C235.385 7.7515 235.378 7.753 235.37 7.75525C235.297 7.7776 235.227 7.8122 235.165 7.85763C235.162 7.85954 235.16 7.86167 235.157 7.864C235.153 7.8685 235.149 7.87263 235.142 7.87338C235.137 7.87355 235.131 7.87266 235.126 7.87075L232.945 6.94375L232.94 6.94188C232.927 6.93625 232.91 6.9295 232.91 6.91525C232.897 6.79367 232.858 6.67647 232.794 6.57213C232.783 6.55488 232.772 6.53688 232.781 6.51925L234.305 4.15563ZM232.831 7.38288L234.876 8.24913C234.887 8.25438 234.9 8.25925 234.905 8.27088C234.907 8.27787 234.907 8.28526 234.905 8.29225C234.899 8.32225 234.893 8.35638 234.893 8.39088V8.44825C234.893 8.4625 234.879 8.4685 234.865 8.47413L234.861 8.47563C234.537 8.614 230.312 10.4155 230.306 10.4155C230.3 10.4155 230.293 10.4155 230.287 10.4091C230.275 10.3979 230.287 10.3821 230.297 10.3679C230.298 10.3654 230.3 10.3629 230.302 10.3604L231.983 7.75788L231.986 7.75338C231.995 7.73763 232.007 7.72 232.025 7.72L232.042 7.72263C232.08 7.72788 232.114 7.73275 232.148 7.73275C232.403 7.73275 232.639 7.60863 232.781 7.39638C232.785 7.39071 232.789 7.38564 232.794 7.38138C232.804 7.37388 232.819 7.37763 232.831 7.38288ZM230.489 10.8273L235.094 8.86338C235.094 8.86338 235.1 8.86338 235.107 8.86975C235.132 8.89488 235.153 8.91175 235.174 8.9275L235.184 8.93388C235.193 8.93913 235.203 8.94513 235.204 8.95488C235.204 8.95863 235.204 8.96088 235.203 8.96425L234.808 11.3875L234.807 11.3973C234.804 11.416 234.802 11.4374 234.784 11.4374C234.679 11.4445 234.577 11.4771 234.487 11.5325C234.397 11.5878 234.323 11.6642 234.269 11.755L234.267 11.758C234.262 11.7666 234.257 11.7749 234.248 11.7794C234.241 11.7831 234.23 11.7816 234.222 11.7798L230.55 11.0223C230.546 11.0215 230.493 10.8276 230.489 10.8273Z" fill="url(#paint0_radial)"/>
</g>
<g clip-path="url(#clip4)">
<path d="M311.476 4L318.413 16H304.538L311.476 4ZM334.463 10.375C334.463 8.44375 333.038 7.09375 330.994 7.09375C328.951 7.09375 327.526 8.44375 327.526 10.375C327.526 12.2688 329.063 13.6562 331.182 13.6562C332.344 13.6562 333.394 13.225 334.069 12.4375L332.794 11.7062C332.401 12.1 331.819 12.3438 331.182 12.3438C330.244 12.3438 329.438 11.8375 329.157 11.0688L329.101 10.9375H334.407C334.444 10.75 334.463 10.5625 334.463 10.375ZM329.082 9.8125L329.119 9.7C329.363 8.89375 330.076 8.40625 330.976 8.40625C331.894 8.40625 332.588 8.89375 332.832 9.7L332.869 9.8125H329.082ZM354.657 10.375C354.657 8.44375 353.232 7.09375 351.188 7.09375C349.144 7.09375 347.719 8.44375 347.719 10.375C347.719 12.2688 349.257 13.6562 351.376 13.6562C352.538 13.6562 353.588 13.225 354.263 12.4375L352.988 11.7062C352.594 12.1 352.013 12.3438 351.376 12.3438C350.438 12.3438 349.632 11.8375 349.351 11.0688L349.294 10.9375H354.601C354.638 10.75 354.657 10.5625 354.657 10.375ZM349.276 9.8125L349.313 9.7C349.557 8.89375 350.269 8.40625 351.169 8.40625C352.088 8.40625 352.782 8.89375 353.026 9.7L353.063 9.8125H349.276ZM345.657 9.30625L346.932 8.575C346.332 7.6375 345.263 7.1125 343.969 7.1125C341.926 7.1125 340.501 8.4625 340.501 10.3937C340.501 12.325 341.926 13.675 343.969 13.675C345.263 13.675 346.332 13.15 346.932 12.2125L345.657 11.4813C345.319 12.0438 344.719 12.3625 343.969 12.3625C342.788 12.3625 342.001 11.575 342.001 10.3937C342.001 9.2125 342.788 8.425 343.969 8.425C344.701 8.425 345.319 8.74375 345.657 9.30625ZM357.469 5.05H355.969V13.4875H357.469V5.05ZM328.632 5.05H326.907L323.607 10.75L320.307 5.05H318.563L323.607 13.75L328.632 5.05ZM339.244 8.8375C339.413 8.8375 339.582 8.85625 339.751 8.89375V7.3C338.476 7.3375 337.276 8.05 337.276 8.93125V7.3H335.776V13.4875H337.276V10.8062C337.276 9.64375 338.082 8.8375 339.244 8.8375Z" fill="black"/>
</g>
<g clip-path="url(#clip5)">
<path opacity="0.54" fill-rule="evenodd" clip-rule="evenodd" d="M462.51 5.36243H457.11V14.7053H458.208V10.6602H462.089V9.61294H458.208V6.41992H462.51V5.36243ZM463.814 5.36243H464.923V14.6951H463.814V5.36243ZM480.457 14.7772C480.231 14.6848 480.036 14.5719 479.872 14.4179C479.697 14.2536 479.564 14.0585 479.482 13.8327C479.399 13.6068 479.348 13.3398 479.348 13.0216V9.04826H478.198V8.0421H479.358V6.16325H480.467V8.0421H482.079V9.04826H480.467V12.7546C480.467 13.1242 480.539 13.4014 480.673 13.576C480.837 13.7711 481.073 13.8737 481.391 13.8737C481.648 13.8737 481.884 13.8019 482.12 13.6478V14.7259C481.987 14.7875 481.853 14.8285 481.72 14.8593C481.586 14.8901 481.412 14.9004 481.206 14.9004C480.939 14.9107 480.693 14.8593 480.457 14.7772ZM483.209 13.1858C483.496 13.73 483.887 14.1407 484.39 14.4487C484.893 14.7567 485.468 14.9107 486.094 14.8696C486.782 14.8696 487.377 14.7053 487.87 14.3973C488.363 14.0893 488.753 13.6581 489.041 13.1242L488.106 12.6725C487.644 13.4733 486.987 13.8737 486.135 13.8737C485.776 13.8737 485.427 13.7916 485.088 13.617C484.749 13.4425 484.472 13.1858 484.256 12.8368C484.03 12.4979 483.917 12.0667 483.887 11.5637H489.143C489.174 11.4713 489.184 11.3583 489.184 11.2248C489.184 10.5678 489.061 9.98254 488.804 9.4692C488.548 8.96612 488.188 8.55544 487.706 8.26796C487.234 7.97022 486.659 7.82649 486.012 7.82649C485.365 7.82649 484.8 7.99076 484.318 8.30903C483.825 8.63757 483.455 9.06879 483.188 9.60267C482.922 10.1468 482.788 10.732 482.788 11.3788C482.788 12.0462 482.922 12.6519 483.209 13.1858ZM487.778 9.83881C487.922 10.116 487.993 10.3932 488.014 10.6704H483.958C484.071 10.1263 484.308 9.6848 484.667 9.34599C485.026 9.00718 485.468 8.84291 485.991 8.84291C486.443 8.84291 486.823 8.93532 487.121 9.13039C487.418 9.32546 487.634 9.5616 487.778 9.83881ZM490.488 8.05237H491.535V9.12013H491.586C491.72 8.75052 491.966 8.45278 492.346 8.20637C492.716 7.95996 493.106 7.83676 493.517 7.83676C493.825 7.83676 494.081 7.8881 494.297 7.9805V9.17146C494.02 9.02773 493.701 8.96612 493.363 8.96612C493.044 8.96612 492.747 9.05853 492.48 9.24333C492.213 9.42814 491.997 9.67454 491.833 9.98255C491.668 10.2906 491.597 10.6294 491.597 10.9784V14.7053H490.488V8.05237ZM467.151 14.2023C466.73 13.73 466.515 13.0729 466.515 12.231V8.0421H467.623V12.0565C467.623 12.693 467.767 13.155 468.055 13.4528C468.342 13.7505 468.732 13.8943 469.215 13.8943C469.584 13.8943 469.923 13.7916 470.211 13.5965C470.498 13.4014 470.724 13.1345 470.888 12.8162C471.053 12.4979 471.124 12.1591 471.124 11.7998V8.0421H472.244V14.6951H471.186V13.73H471.135C470.95 14.0585 470.662 14.3357 470.262 14.5616C469.862 14.7875 469.441 14.9004 468.989 14.9004C468.178 14.9107 467.572 14.6745 467.151 14.2023ZM475.169 14.4179C475.333 14.5719 475.528 14.6848 475.754 14.7772C475.98 14.8593 476.237 14.9107 476.504 14.9004C476.709 14.9004 476.884 14.8901 477.017 14.8593C477.151 14.8285 477.284 14.7875 477.417 14.7259V13.6478C477.181 13.8019 476.945 13.8737 476.689 13.8737C476.37 13.8737 476.134 13.7711 475.97 13.576C475.836 13.4014 475.765 13.1242 475.765 12.7546V9.04826H477.376V8.0421H475.754V6.16325H474.645V8.0421H473.485V9.04826H474.645V13.0216C474.645 13.3398 474.697 13.6068 474.779 13.8327C474.861 14.0585 474.995 14.2536 475.169 14.4179Z" fill="black"/>
<path d="M450.524 9.38501H445.601L441.294 13.693L443.755 16.154L450.524 9.38501Z" fill="#54C5F8"/>
<path d="M440.063 12.462L437.601 10L445.601 2H450.524L440.063 12.462Z" fill="#54C5F8"/>
<path d="M443.754 16.154L445.6 18H450.523L446.215 13.693L443.754 16.154Z" fill="#01579B"/>
<path d="M443.754 16.154L447.405 14.8902L446.215 13.693L443.754 16.154Z" fill="url(#paint1_linear)"/>
<path d="M443.754 11.2308L441.292 13.6919L443.754 16.1529L446.215 13.6919L443.754 11.2308Z" fill="#29B6F6"/>
<path d="M450.524 9.38501L446.217 13.692L450.524 18H445.601L443.755 16.154L441.293 13.692L445.601 9.38501H450.524ZM445.601 2L437.601 10L440.063 12.462L450.524 2H445.601Z" fill="url(#paint2_radial)"/>
</g>
<g clip-path="url(#clip6)">
<path fill-rule="evenodd" clip-rule="evenodd" d="M534.69 10.0017C534.69 8.8859 533.33 7.82845 531.245 7.17269C531.726 4.98913 531.512 3.25189 530.57 2.6957C530.354 2.56576 530.101 2.50393 529.825 2.50344V2.5C528.906 2.5 527.703 3.17292 526.487 4.34024C525.27 3.17979 524.067 2.51373 523.149 2.51373V2.51717C522.868 2.51717 522.614 2.57897 522.393 2.70943C521.454 3.26562 521.244 4.99943 521.728 7.17613C519.65 7.83532 518.297 8.88933 518.297 10.0017C518.297 11.1175 519.657 12.175 521.742 12.8307C521.261 15.0143 521.475 16.7515 522.417 17.3077C522.634 17.4382 522.888 17.5 523.169 17.5C524.088 17.5 525.29 16.8271 526.507 15.6598C527.723 16.8202 528.926 17.4863 529.845 17.4863C530.125 17.4863 530.379 17.4245 530.6 17.294C531.539 16.7378 531.749 15.004 531.265 12.8273C533.337 12.1715 534.69 11.1141 534.69 10.0017ZM527.018 4.87583C528.105 3.83721 529.126 3.26745 529.821 3.26563V3.26905C529.975 3.26905 530.099 3.29995 530.202 3.35832C530.657 3.62612 530.854 4.6458 530.7 5.95731C530.663 6.28004 530.603 6.61994 530.53 6.9667C529.875 6.8019 529.16 6.67487 528.408 6.59247C527.957 5.95731 527.489 5.38052 527.018 4.87583ZM523.149 3.27935C523.84 3.27935 524.866 3.84585 525.955 4.87926C525.488 5.38396 525.02 5.95731 524.575 6.59247C523.82 6.67487 523.105 6.8019 522.45 6.97013C522.373 6.6268 522.317 6.29377 522.276 5.97448C522.119 4.66297 522.313 3.64328 522.764 3.37205C522.865 3.31025 522.995 3.28279 523.149 3.28279V3.27935ZM530.342 7.71173C530.219 8.15462 530.065 8.61124 529.891 9.06787C529.754 8.79321 529.61 8.51855 529.453 8.24388C529.3 7.96922 529.136 7.70143 528.972 7.4405C529.447 7.5126 529.904 7.60186 530.342 7.71173ZM528.003 12.6797C528.28 12.2711 528.547 11.8317 528.808 11.3682C529.059 10.9184 529.289 10.4583 529.5 9.99828C529.289 9.53822 529.059 9.0816 528.805 8.63184C528.544 8.17178 528.273 7.73575 527.996 7.32719C527.501 7.28599 526.997 7.26196 526.492 7.26196C525.984 7.26196 525.48 7.28599 524.982 7.33063C524.705 7.73919 524.437 8.17865 524.177 8.64214C523.926 9.0919 523.692 9.55196 523.485 10.012C523.696 10.4721 523.926 10.9287 524.18 11.3785C524.441 11.8385 524.711 12.2745 524.989 12.6831C525.483 12.7243 525.988 12.7483 526.492 12.7483C527 12.7483 527.505 12.7243 528.003 12.6797ZM529.89 10.9218C530.071 11.3819 530.224 11.842 530.351 12.2883C529.914 12.3981 529.452 12.4908 528.975 12.5629C529.138 12.2986 529.302 12.0273 529.456 11.7493C529.609 11.4746 529.753 11.1965 529.89 10.9218ZM525.573 13.4865C525.88 13.8882 526.191 14.2556 526.502 14.5852C526.809 14.2556 527.12 13.8882 527.42 13.4865C527.116 13.5037 526.806 13.5105 526.491 13.5105C526.181 13.5105 525.873 13.5002 525.573 13.4865ZM524.015 12.563C523.541 12.4909 523.083 12.4016 522.645 12.2917C522.769 11.8488 522.923 11.3922 523.096 10.9356C523.233 11.2102 523.377 11.4849 523.534 11.7596C523.691 12.0342 523.852 12.302 524.015 12.563ZM527.408 6.51694C527.1 6.11525 526.789 5.74788 526.479 5.41829C526.171 5.74788 525.861 6.11525 525.56 6.51694C525.864 6.49977 526.175 6.49291 526.489 6.49291C526.799 6.49291 527.107 6.50321 527.408 6.51694ZM524.013 7.4405C523.85 7.70486 523.686 7.97609 523.532 8.25418C523.378 8.52885 523.235 8.80351 523.098 9.07817C522.917 8.61811 522.764 8.15805 522.637 7.71173C523.074 7.60529 523.535 7.5126 524.013 7.4405ZM519.041 10.0017C519.041 10.5408 519.806 11.2205 520.989 11.739C521.28 11.866 521.594 11.9827 521.925 12.0892C522.112 11.4197 522.359 10.7227 522.666 10.0086C522.356 9.29104 522.105 8.59065 521.915 7.91773C521.591 8.02416 521.276 8.13746 520.989 8.26449C519.806 8.77948 519.041 9.4627 519.041 10.0017ZM522.779 16.6451C522.325 16.3773 522.128 15.3576 522.282 14.0461C522.318 13.7234 522.378 13.3835 522.452 13.0367C523.107 13.2015 523.822 13.3286 524.574 13.411C525.025 14.0461 525.493 14.6229 525.964 15.1276C524.874 16.1679 523.852 16.7378 523.157 16.7378C523.007 16.7344 522.88 16.7035 522.779 16.6451ZM530.22 16.6314C530.671 16.3602 530.864 15.3405 530.707 14.029C530.671 13.7097 530.61 13.3766 530.534 13.0299C529.879 13.1981 529.164 13.3251 528.408 13.4075C527.964 14.0427 527.496 14.616 527.028 15.1207C528.118 16.1542 529.144 16.7206 529.835 16.7206C529.989 16.7206 530.119 16.6932 530.22 16.6314ZM531.997 11.7389C531.709 11.866 531.395 11.9793 531.071 12.0857C530.881 11.4128 530.63 10.7124 530.319 9.99484C530.627 9.28072 530.874 8.58376 531.061 7.91427C531.392 8.0207 531.706 8.13744 532 8.26447C533.183 8.78289 533.948 9.46268 533.948 10.0017C533.945 10.5407 533.18 11.224 531.997 11.7389ZM528.016 10.0017C528.016 10.8682 527.333 11.5707 526.489 11.5707C525.646 11.5707 524.962 10.8682 524.962 10.0017C524.962 9.13517 525.646 8.4327 526.489 8.4327C527.333 8.4327 528.016 9.13517 528.016 10.0017Z" fill="#61DAFB"/>
<path fill-rule="evenodd" clip-rule="evenodd" d="M540.518 10.079V15.7864H541.172H541.827L541.859 13.5464L541.892 11.3064L542.919 11.2712L543.947 11.2359L544.239 11.6394C544.399 11.8613 545.058 12.8852 545.702 13.9146L546.874 15.7864H547.638C548.108 15.7864 548.402 15.7351 548.402 15.653C548.402 15.5797 548.248 15.2897 548.061 15.0086C547.199 13.7202 545.755 11.4601 545.701 11.3153C545.661 11.2083 545.819 11.1089 546.175 11.0168C548.405 10.44 549.171 7.20918 547.506 5.40795C546.647 4.47905 546.196 4.37153 543.154 4.37153H540.518V10.079ZM576.668 5.32891C576.632 5.38979 576.616 5.86479 576.633 6.3846C576.651 6.94135 576.612 7.37389 576.537 7.43772C576.467 7.49725 576.169 7.56353 575.875 7.58501L575.34 7.62416V8.11513V8.60609L575.967 8.64316L576.594 8.68035L576.606 11.1593C576.62 14.1151 576.663 14.716 576.888 15.1646C577.23 15.8442 578.159 16.1701 579.051 15.9233C579.84 15.7051 579.961 15.5589 579.798 15.0193C579.665 14.5758 579.435 14.426 579.282 14.6818C579.167 14.8721 578.424 14.8265 578.22 14.6165C577.937 14.3254 577.895 13.8279 577.933 11.1836L577.968 8.72883L578.744 8.66746L579.521 8.60609L579.557 8.09021L579.593 7.57433L578.78 7.53787L577.968 7.50142L577.908 6.39675L577.848 5.29209L577.292 5.25514C576.985 5.23477 576.705 5.26803 576.668 5.32891ZM545.815 5.89941C546.68 6.33096 547.159 7.5191 546.853 8.47218C546.458 9.70057 545.691 10.0413 543.433 9.99073L541.892 9.95624L541.859 7.93568C541.841 6.8245 541.855 5.83791 541.89 5.7434C541.993 5.4665 545.203 5.59403 545.815 5.89941ZM552.148 7.57286C549.739 8.52483 548.83 11.891 550.352 14.2243C551.25 15.6002 552.811 16.23 554.552 15.9185C555.843 15.6876 556.992 14.9897 556.768 14.5728C556.41 13.904 556.365 13.8882 555.84 14.245C555.271 14.6323 554.39 14.9272 553.802 14.9272C552.411 14.9272 551.413 14.03 550.969 12.3804L550.895 12.1042H554.121C556.192 12.1042 557.374 12.0593 557.423 11.9786C557.558 11.7541 557.243 10.0951 556.945 9.46528C556.56 8.64782 555.772 7.88204 554.998 7.57101C554.175 7.24047 552.987 7.24133 552.148 7.57286ZM561.1 7.54585C560.521 7.75144 559.582 8.32894 559.438 8.56743C559.38 8.66439 559.829 9.52665 559.938 9.52665C559.965 9.52665 560.225 9.33983 560.516 9.11166C561.733 8.15735 563.547 8.25959 564.175 9.31786C564.35 9.61183 564.408 9.93464 564.409 10.6006C564.409 11.5051 564.329 11.652 564.036 11.2864C563.777 10.9642 562.942 10.6367 562.168 10.5536C559.782 10.2973 558.184 12.5657 559.307 14.6152C560.097 16.0573 562.344 16.4642 563.779 15.4252C564.064 15.2189 564.319 15.05 564.345 15.05C564.372 15.05 564.41 15.2019 564.431 15.3875C564.467 15.7055 564.504 15.7251 565.066 15.7251H565.664V12.4724C565.664 9.36573 565.652 9.19733 565.403 8.72024C565.113 8.16201 564.445 7.65264 563.741 7.45183C563.043 7.25263 561.802 7.29669 561.1 7.54585ZM570.186 7.57286C567.53 8.62229 566.79 12.7027 568.871 14.824C569.807 15.7782 571.237 16.205 572.542 15.9194C573.211 15.7731 574.402 15.0587 574.524 14.7307C574.59 14.5566 574.034 13.8226 573.837 13.8226C573.79 13.8226 573.583 13.9846 573.377 14.1827C572.87 14.6692 572.282 14.8487 571.449 14.7711C569.98 14.6343 569.028 13.4228 569.029 11.6929C569.03 9.71886 570.053 8.55368 571.792 8.54742C572.629 8.54447 573.096 8.73509 573.481 9.23857L573.734 9.56912L574.05 9.32694C574.642 8.87268 574.665 8.713 574.204 8.25726C573.273 7.33805 571.531 7.04127 570.186 7.57286ZM554.586 8.61198C554.83 8.71643 555.158 8.9235 555.315 9.07226C555.655 9.39298 556.164 10.4553 556.166 10.8461L556.167 11.1223H553.606C552.163 11.1223 551.014 11.0727 550.976 11.0086C550.938 10.946 551.016 10.5979 551.148 10.2351C551.396 9.55267 551.902 8.96093 552.523 8.62536C552.985 8.37595 554.021 8.3692 554.586 8.61198ZM563.441 11.7408C564.244 12.115 564.409 12.3785 564.409 13.2842C564.409 13.9281 564.364 14.1024 564.141 14.3192C563.543 14.8984 562.679 15.1425 561.739 14.9977C560.744 14.8444 560.091 13.8196 560.353 12.8217C560.483 12.3259 561.024 11.7219 561.452 11.5948C562.006 11.4306 562.92 11.4977 563.441 11.7408Z" fill="black"/>
</g>
<g clip-path="url(#clip7)">
<path d="M625.847 4.58755C625.847 4.46302 625.914 4.35925 626.046 4.27623C626.188 4.19321 626.333 4.1517 626.482 4.1517C626.69 4.1517 626.818 4.23057 626.868 4.38831L629.06 11.7853L631.239 4.38831C631.297 4.23057 631.422 4.1517 631.613 4.1517C631.771 4.1517 631.916 4.19736 632.049 4.28868C632.19 4.38 632.26 4.48378 632.26 4.6C632.26 4.60831 632.256 4.62076 632.248 4.63736C632.248 4.65397 632.248 4.67057 632.248 4.68717L629.72 12.9683C629.629 13.2091 629.409 13.3294 629.06 13.3294C628.711 13.3294 628.5 13.2091 628.425 12.9683L625.872 4.68717C625.855 4.63736 625.847 4.60416 625.847 4.58755Z" fill="#2C3E50"/>
<path d="M632.705 10.9634V7.72566C632.705 7.62604 632.755 7.53887 632.854 7.46416C632.962 7.38944 633.087 7.35208 633.228 7.35208C633.361 7.35208 633.477 7.39359 633.577 7.47661C633.685 7.55133 633.738 7.63434 633.738 7.72566V10.9634C633.738 11.337 633.88 11.6732 634.162 11.9721C634.444 12.2709 634.78 12.4204 635.171 12.4204C635.552 12.4204 635.885 12.2751 636.167 11.9845C636.449 11.6857 636.59 11.3453 636.59 10.9634V7.71321C636.59 7.62189 636.64 7.53887 636.74 7.46416C636.848 7.38944 636.972 7.35208 637.113 7.35208C637.263 7.35208 637.383 7.38944 637.474 7.46416C637.574 7.53057 637.624 7.61359 637.624 7.71321V10.9634C637.624 11.6026 637.379 12.163 636.889 12.6445C636.408 13.1177 635.835 13.3543 635.171 13.3543C634.498 13.3543 633.917 13.1177 633.427 12.6445C632.946 12.163 632.705 11.6026 632.705 10.9634Z" fill="#2C3E50"/>
<path d="M638.818 10.9385V9.63095C638.818 8.9917 639.059 8.43963 639.54 7.97472C640.03 7.50982 640.615 7.27736 641.296 7.27736C641.943 7.27736 642.504 7.49736 642.977 7.93736C643.45 8.36906 643.687 8.91283 643.687 9.56868C643.687 9.80944 643.658 10.0045 643.6 10.154C643.542 10.2951 643.45 10.3989 643.326 10.4653C643.209 10.5234 643.097 10.5608 642.989 10.5774C642.89 10.594 642.753 10.6023 642.579 10.6023H639.851V10.9759C639.851 11.4325 640.013 11.7977 640.337 12.0717C640.669 12.3457 641.097 12.4826 641.62 12.4826C641.894 12.4826 642.13 12.4411 642.329 12.3581C642.537 12.2751 642.703 12.1962 642.828 12.1215C642.952 12.0385 643.052 11.997 643.126 11.997C643.243 11.997 643.342 12.0509 643.425 12.1589C643.508 12.2585 643.55 12.3623 643.55 12.4702C643.55 12.6611 643.359 12.8562 642.977 13.0555C642.603 13.2547 642.139 13.3543 641.582 13.3543C640.769 13.3543 640.105 13.1343 639.59 12.6943C639.075 12.246 638.818 11.6608 638.818 10.9385ZM639.851 9.90491H642.155C642.371 9.90491 642.516 9.88001 642.591 9.83019C642.666 9.77208 642.703 9.66416 642.703 9.50642C642.703 9.13283 642.566 8.80491 642.292 8.52265C642.018 8.24038 641.682 8.09925 641.283 8.09925C640.893 8.09925 640.557 8.23208 640.275 8.49774C639.992 8.7551 639.851 9.07472 639.851 9.45661V9.90491Z" fill="#2C3E50"/>
<path d="M644.557 12.6819C644.557 12.4992 644.619 12.3457 644.743 12.2211C644.868 12.0883 645.021 12.0219 645.204 12.0219C645.378 12.0219 645.528 12.0883 645.652 12.2211C645.777 12.3457 645.839 12.4992 645.839 12.6819C645.839 12.8562 645.777 13.0098 645.652 13.1426C645.528 13.2672 645.378 13.3294 645.204 13.3294C645.021 13.3294 644.868 13.2672 644.743 13.1426C644.619 13.0098 644.557 12.8562 644.557 12.6819Z" fill="#2C3E50"/>
<path d="M645.824 15.6581C645.824 15.5253 645.866 15.4132 645.949 15.3219C646.032 15.2389 646.131 15.1974 646.247 15.1974C646.571 15.1974 646.783 15.077 646.883 14.8362C646.982 14.5955 647.032 14.2343 647.032 13.7528V7.71321C647.032 7.60529 647.078 7.51812 647.169 7.4517C647.269 7.38529 647.393 7.35208 647.543 7.35208C647.692 7.35208 647.816 7.38529 647.916 7.4517C648.016 7.51812 648.066 7.60529 648.066 7.71321V13.7528C648.066 14.4751 647.924 15.0479 647.642 15.4713C647.36 15.8947 646.932 16.1064 646.36 16.1064C646.003 16.1064 645.824 15.957 645.824 15.6581ZM647.082 5.55887C646.957 5.43434 646.895 5.29321 646.895 5.13548C646.895 4.97774 646.957 4.84076 647.082 4.72453C647.206 4.60831 647.36 4.55019 647.543 4.55019C647.717 4.55019 647.866 4.60831 647.991 4.72453C648.115 4.84076 648.178 4.97774 648.178 5.13548C648.178 5.29321 648.115 5.43434 647.991 5.55887C647.866 5.6751 647.717 5.73321 647.543 5.73321C647.368 5.73321 647.215 5.6751 647.082 5.55887Z" fill="#2C3E50"/>
<path d="M649.188 12.4079C649.188 12.3 649.221 12.1962 649.287 12.0966C649.362 11.9887 649.449 11.9347 649.549 11.9347C649.615 11.9347 649.711 11.9845 649.835 12.0842C649.96 12.1838 650.138 12.2834 650.371 12.383C650.603 12.4743 650.877 12.52 651.193 12.52C651.608 12.52 651.907 12.4453 652.089 12.2959C652.28 12.1464 652.376 11.9596 652.376 11.7355C652.376 11.4615 652.272 11.2457 652.064 11.0879C651.857 10.9219 651.604 10.7974 651.305 10.7143C651.006 10.6313 650.707 10.54 650.408 10.4404C650.109 10.3408 649.856 10.1747 649.649 9.94227C649.441 9.70982 649.337 9.40265 649.337 9.02076C649.337 8.54755 649.503 8.14076 649.835 7.80038C650.176 7.4517 650.69 7.27736 651.38 7.27736C651.82 7.27736 652.222 7.34793 652.587 7.48906C652.953 7.62189 653.135 7.77548 653.135 7.94982C653.135 8.04944 653.094 8.16151 653.011 8.28604C652.936 8.41057 652.841 8.47284 652.724 8.47284C652.691 8.47284 652.529 8.41472 652.239 8.29849C651.957 8.17397 651.674 8.1117 651.392 8.1117C651.01 8.1117 650.724 8.20302 650.533 8.38566C650.35 8.56 650.259 8.75925 650.259 8.9834C650.259 9.21585 650.363 9.39849 650.57 9.53133C650.778 9.66416 651.031 9.76793 651.33 9.84265C651.637 9.91736 651.94 10.0087 652.239 10.1166C652.538 10.2245 652.791 10.4113 652.998 10.677C653.206 10.9343 653.31 11.2706 653.31 11.6857C653.31 12.2004 653.127 12.6072 652.762 12.906C652.397 13.2049 651.886 13.3543 651.23 13.3543C650.666 13.3543 650.184 13.2547 649.786 13.0555C649.387 12.8479 649.188 12.6321 649.188 12.4079Z" fill="#2C3E50"/>
<path fill-rule="evenodd" clip-rule="evenodd" d="M614.577 2.5L612.617 5.89926L610.656 2.5H604.126L612.617 17.2192L621.107 2.5H614.577Z" fill="#4DBA87"/>
<path fill-rule="evenodd" clip-rule="evenodd" d="M614.577 2.49999L612.616 5.89925L610.656 2.49999H607.522L612.616 11.3315L617.711 2.49999H614.577Z" fill="#435466"/>
</g>
<g clip-path="url(#clip8)">
<path d="M697.334 14.1031C696.689 14.1194 696.055 13.9404 695.513 13.5894C695.008 13.2558 694.633 12.7584 694.451 12.181L695.557 11.7734C695.71 12.128 695.961 12.4317 696.28 12.6496C696.605 12.8669 696.988 12.9795 697.378 12.9721C697.753 12.9918 698.123 12.8801 698.424 12.6562C698.555 12.546 698.659 12.4068 698.726 12.2497C698.794 12.0925 698.824 11.9217 698.814 11.7509C698.816 11.5918 698.779 11.4347 698.707 11.2929C698.644 11.166 698.562 11.0496 698.464 10.9478C698.339 10.8343 698.198 10.7407 698.045 10.6703C697.856 10.5761 697.701 10.5044 697.576 10.4553C697.451 10.4062 697.268 10.3398 697.028 10.2575C696.725 10.1513 696.497 10.069 696.348 10.008C696.144 9.9216 695.946 9.82182 695.755 9.70929C695.548 9.60016 695.361 9.45853 695.2 9.28982C695.061 9.12481 694.949 8.93889 694.868 8.73893C694.712 8.35867 694.679 7.93888 694.774 7.53892C694.869 7.13896 695.088 6.77908 695.399 6.51017C695.852 6.11106 696.467 5.9115 697.243 5.9115C697.892 5.9115 698.426 6.05442 698.844 6.34026C699.25 6.61022 699.549 7.01491 699.687 7.48318L698.601 7.84557C698.49 7.59993 698.304 7.39585 698.07 7.26283C697.789 7.10799 697.471 7.03272 697.15 7.04513C696.834 7.02681 696.522 7.11416 696.262 7.29336C696.156 7.37582 696.071 7.48275 696.015 7.60503C695.959 7.7273 695.933 7.86129 695.941 7.99557C695.942 8.09842 695.964 8.19992 696.007 8.29346C696.05 8.387 696.112 8.47048 696.189 8.53849C696.339 8.68612 696.516 8.80489 696.709 8.88893C696.89 8.9646 697.166 9.06548 697.535 9.19424C697.76 9.27787 697.933 9.33893 698.038 9.38141C698.143 9.42389 698.303 9.49159 698.518 9.58982C698.688 9.66499 698.851 9.75377 699.006 9.8553C699.144 9.95528 699.277 10.063 699.404 10.1779C699.54 10.2964 699.656 10.4357 699.749 10.5907C699.837 10.7518 699.905 10.9229 699.952 11.1004C700.01 11.3083 700.039 11.5232 700.037 11.7389C700.037 12.4788 699.784 13.0575 699.279 13.4752C698.774 13.8929 698.126 14.1022 697.334 14.1031ZM704.585 13.9703L701.87 6.04955H703.137L704.935 11.569C705.035 11.8661 705.118 12.1683 705.185 12.4743C705.251 12.1682 705.334 11.8659 705.433 11.569L707.209 6.04955H708.465L705.761 13.9677L704.585 13.9703ZM710.862 13.9703V6.04955H715.774V7.15796H712.04V9.32964H714.449V10.438H712.04V12.854H716.022V13.9624L710.862 13.9703ZM719.018 13.9703V6.04955H720.195V12.8367H724.064V13.9677L719.018 13.9703ZM728.497 7.18318V13.9677H727.321V7.18053H725.082V6.04955H730.734V7.18053L728.497 7.18318ZM733.17 13.9703V6.04955H738.081V7.15796H734.346V9.32964H736.755V10.438H734.346V12.854H738.328V13.9624L733.17 13.9703Z" fill="#4A4A55"/>
<path d="M689.083 4.54292C687.703 2.5677 684.976 1.9823 683.005 3.23805L679.543 5.44424C679.076 5.73771 678.675 6.12538 678.366 6.5825C678.057 7.03962 677.847 7.55615 677.748 8.09911C677.583 9.01553 677.728 9.96098 678.16 10.7858C677.864 11.2352 677.662 11.7401 677.567 12.2699C677.468 12.8249 677.481 13.394 677.605 13.9438C677.729 14.4937 677.962 15.0131 678.29 15.4717C679.671 17.4469 682.397 18.0323 684.368 16.7765L687.83 14.5796C688.297 14.2856 688.697 13.8977 689.006 13.4407C689.315 12.9837 689.526 12.4675 689.625 11.9248C689.79 11.0086 689.645 10.0637 689.212 9.23938C689.508 8.78975 689.71 8.28498 689.807 7.75531C689.905 7.20033 689.892 6.63127 689.768 6.08147C689.644 5.53167 689.411 5.01221 689.083 4.55354" fill="#FF3E00"/>
<path d="M682.667 15.6628C682.122 15.8043 681.546 15.7751 681.018 15.5793C680.491 15.3834 680.035 15.0304 679.714 14.5677C679.517 14.292 679.378 13.9797 679.303 13.6492C679.228 13.3186 679.221 12.9765 679.28 12.6429C679.3 12.5344 679.327 12.4275 679.363 12.323L679.428 12.1239L679.606 12.2566C680.014 12.5551 680.471 12.7822 680.956 12.9283L681.088 12.9668L681.076 13.0996C681.064 13.2816 681.115 13.4623 681.221 13.6106C681.318 13.7498 681.455 13.856 681.614 13.9148C681.773 13.9737 681.946 13.9824 682.11 13.9398C682.186 13.9196 682.257 13.8883 682.323 13.8469L685.78 11.6407C685.864 11.5873 685.937 11.5167 685.993 11.4335C686.049 11.3503 686.087 11.2563 686.105 11.1575C686.122 11.0569 686.12 10.9537 686.097 10.8541C686.074 10.7544 686.032 10.6604 685.972 10.5774C685.875 10.4382 685.738 10.3321 685.579 10.2732C685.42 10.2144 685.247 10.2056 685.083 10.2482C685.007 10.2681 684.936 10.2995 684.87 10.3411L683.543 11.1841C683.326 11.3217 683.089 11.4256 682.841 11.492C682.296 11.6326 681.722 11.6031 681.195 11.4076C680.669 11.212 680.214 10.8598 679.894 10.3982C679.697 10.1223 679.558 9.80989 679.484 9.47936C679.41 9.14883 679.402 8.80684 679.462 8.47345C679.521 8.14621 679.647 7.83481 679.833 7.55915C680.019 7.28349 680.26 7.04964 680.541 6.87256L684.009 4.66637C684.225 4.52898 684.46 4.42514 684.707 4.3584C685.252 4.21688 685.827 4.24601 686.355 4.44186C686.882 4.63771 687.337 4.99084 687.658 5.45353C687.855 5.72911 687.995 6.04137 688.07 6.37192C688.145 6.70248 688.153 7.04466 688.093 7.37831C688.073 7.48744 688.045 7.59517 688.011 7.70088L687.945 7.89999L687.768 7.76725C687.358 7.46648 686.9 7.23756 686.414 7.09026L686.281 7.05176L686.293 6.91902C686.309 6.73612 686.259 6.55368 686.153 6.40398C686.055 6.26719 685.918 6.16332 685.76 6.10617C685.602 6.04902 685.431 6.04131 685.268 6.08406C685.193 6.10398 685.122 6.13532 685.056 6.17699L681.593 8.3792C681.508 8.43266 681.436 8.50308 681.38 8.58602C681.324 8.66896 681.286 8.76261 681.268 8.86106C681.25 8.96193 681.253 9.06525 681.276 9.16504C681.299 9.26483 681.341 9.35912 681.4 9.44247C681.497 9.58039 681.633 9.68573 681.79 9.74453C681.948 9.80333 682.12 9.81279 682.283 9.77168C682.358 9.75123 682.43 9.71992 682.495 9.67876L683.823 8.83716C684.04 8.69799 684.277 8.59363 684.526 8.52787C685.071 8.38602 685.646 8.41485 686.174 8.61048C686.702 8.8061 687.157 9.15908 687.477 9.62168C687.674 9.89732 687.815 10.2096 687.889 10.5401C687.964 10.8707 687.972 11.2128 687.913 11.5465C687.854 11.8737 687.728 12.1851 687.542 12.4608C687.356 12.7364 687.115 12.9703 686.834 13.1473L683.37 15.3535C683.153 15.4916 682.916 15.5959 682.667 15.6628Z" fill="white"/>
</g>
<g clip-path="url(#clip9)">
<path d="M770.239 5.2162H776.478V5.71323H770.811V9.45358H776.14V9.95061H770.811V14.0572H776.543V14.5542H770.239V5.2162ZM777.037 5.2162H777.7L780.637 9.32278L783.64 5.2162L787.724 0L781.014 9.7544L784.472 14.5542H783.783L780.637 10.186L777.479 14.5542H776.803L780.286 9.7544L777.037 5.2162H777.037ZM784.719 5.71323V5.2162H791.829V5.71323H788.553V14.554H787.981V5.71323H784.719H784.719ZM762.434 5.2162H763.149L773.006 20L768.933 14.5542L763.031 5.92243L763.005 14.5542H762.434V5.2162ZM791.771 13.9071C791.654 13.9071 791.567 13.8164 791.567 13.6993C791.567 13.5819 791.654 13.4912 791.771 13.4912C791.889 13.4912 791.976 13.5819 791.976 13.6993C791.976 13.8164 791.889 13.9071 791.771 13.9071H791.771ZM792.333 13.3599H792.639C792.644 13.5261 792.765 13.6377 792.943 13.6377C793.142 13.6377 793.254 13.5178 793.254 13.2929V11.8693H793.566V13.2943C793.566 13.6993 793.332 13.9324 792.945 13.9324C792.582 13.9324 792.333 13.7062 792.333 13.3599H792.333ZM793.973 13.342H794.282C794.308 13.5331 794.495 13.6545 794.763 13.6545C795.014 13.6545 795.197 13.5245 795.197 13.346C795.197 13.1926 795.081 13.1003 794.815 13.0376L794.556 12.9749C794.193 12.8898 794.027 12.7137 794.027 12.4178C794.027 12.059 794.319 11.8202 794.758 11.8202C795.165 11.8202 795.463 12.059 795.481 12.3981H795.178C795.149 12.2127 794.987 12.0966 794.754 12.0966C794.507 12.0966 794.343 12.2153 794.343 12.3968C794.343 12.5406 794.449 12.623 794.711 12.6844L794.932 12.7388C795.343 12.8351 795.513 13.0027 795.513 13.3055C795.513 13.6907 795.215 13.9324 794.74 13.9324C794.295 13.9324 793.995 13.7019 793.973 13.3418V13.342Z" fill="black"/>
</g>
<defs>
<radialGradient id="paint0_radial" cx="0" cy="0" r="1" gradientUnits="userSpaceOnUse" gradientTransform="translate(224.979 9.79732) rotate(90) scale(14.3629 16.5825)">
<stop stop-color="#20C6B7"/>
<stop offset="1" stop-color="#4D9ABF"/>
</radialGradient>
<linearGradient id="paint1_linear" x1="444.472" y1="16.6292" x2="446.305" y2="14.7959" gradientUnits="userSpaceOnUse">
<stop stop-color="#1A237E" stop-opacity="0.4"/>
<stop offset="1" stop-color="#1A237E" stop-opacity="0"/>
</linearGradient>
<radialGradient id="paint2_radial" cx="0" cy="0" r="1" gradientUnits="userSpaceOnUse" gradientTransform="translate(437.964 3.09091) scale(19.5751)">
<stop stop-color="white" stop-opacity="0.1"/>
<stop offset="1" stop-color="white" stop-opacity="0"/>
</radialGradient>
<clipPath id="clip0">
<rect width="63" height="18" fill="white" transform="translate(0.487305 1)"/>
</clipPath>
<clipPath id="clip1">
<rect width="36" height="15" fill="white" transform="translate(87.4873 2.5)"/>
</clipPath>
<clipPath id="clip2">
<rect width="53.9259" height="16" fill="white" transform="translate(147.487 2)"/>
</clipPath>
<clipPath id="clip3">
<rect width="55.125" height="15" fill="white" transform="translate(225.413 2.5)"/>
</clipPath>
<clipPath id="clip4">
<rect width="53.0625" height="12" fill="white" transform="translate(304.538 4)"/>
</clipPath>
<clipPath id="clip5">
<rect width="56.6961" height="16" fill="white" transform="translate(437.601 2)"/>
</clipPath>
<clipPath id="clip6">
<rect width="61.8293" height="15" fill="white" transform="translate(518.297 2.5)"/>
</clipPath>
<clipPath id="clip7">
<rect width="49.2453" height="15" fill="white" transform="translate(604.126 2.5)"/>
</clipPath>
<clipPath id="clip8">
<rect width="61.0619" height="15" fill="white" transform="translate(677.372 2.5)"/>
</clipPath>
<clipPath id="clip9">
<rect width="33.0795" height="20" fill="white" transform="translate(762.434)"/>
</clipPath>
</defs>
</svg>
