<svg width="32" height="32" viewBox="0 0 32 32" fill="none" xmlns="http://www.w3.org/2000/svg">
<path d="M10 16C10 14.0222 10.5865 12.0888 11.6853 10.4443C12.7841 8.79981 14.3459 7.51809 16.1732 6.76121C18.0005 6.00433 20.0111 5.8063 21.9509 6.19215C23.8907 6.578 25.6726 7.53041 27.0711 8.92894C28.4696 10.3275 29.422 12.1093 29.8079 14.0491C30.1937 15.9889 29.9957 17.9996 29.2388 19.8268C28.4819 21.6541 27.2002 23.2159 25.5557 24.3147C23.9112 25.4135 21.9778 26 20 26H9.00003C8.00732 25.999 7.02618 25.7869 6.12172 25.3778C5.21725 24.9686 4.41016 24.3718 3.754 23.6269C3.09785 22.8819 2.60764 22.006 2.31591 21.0571C2.02419 20.1082 1.93762 19.1081 2.06196 18.1233C2.1863 17.1384 2.51869 16.1912 3.03708 15.3446C3.55547 14.498 4.24801 13.7713 5.06871 13.2129C5.88941 12.6544 6.81952 12.2768 7.79729 12.1053C8.77506 11.9338 9.77814 11.9722 10.7399 12.2179" stroke="black" stroke-width="1.5" stroke-linecap="round" stroke-linejoin="round"/>
</svg>
