<svg width="32" height="32" viewBox="0 0 32 32" fill="none" xmlns="http://www.w3.org/2000/svg">
<path fill-rule="evenodd" clip-rule="evenodd" d="M3.74976 8C3.74976 7.86193 3.86168 7.75 3.99976 7.75H27.9998C28.1378 7.75 28.2498 7.86193 28.2498 8V11.3564H3.74976V8ZM2.24976 12.1399V24C2.24976 24.9665 3.03326 25.75 3.99976 25.75H27.9998C28.9663 25.75 29.7498 24.9665 29.7498 24V8C29.7498 7.0335 28.9663 6.25 27.9998 6.25H3.99976C3.03326 6.25 2.24976 7.0335 2.24976 8V12.073C2.24927 12.0841 2.24902 12.0952 2.24902 12.1064C2.24902 12.1177 2.24927 12.1288 2.24976 12.1399ZM3.74976 12.8564H28.2498V24C28.2498 24.1381 28.1378 24.25 27.9998 24.25H3.99976C3.86168 24.25 3.74976 24.1381 3.74976 24V12.8564ZM20.999 20.25C20.5848 20.25 20.249 20.5858 20.249 21C20.249 21.4142 20.5848 21.75 20.999 21.75H24.999C25.4132 21.75 25.749 21.4142 25.749 21C25.749 20.5858 25.4132 20.25 24.999 20.25H20.999ZM14.249 21C14.249 20.5858 14.5848 20.25 14.999 20.25H16.999C17.4132 20.25 17.749 20.5858 17.749 21C17.749 21.4142 17.4132 21.75 16.999 21.75H14.999C14.5848 21.75 14.249 21.4142 14.249 21Z" fill="#3BB174"/>
</svg>
