<svg width="17" height="16" viewBox="0 0 17 16" fill="none" xmlns="http://www.w3.org/2000/svg">
<path fill-rule="evenodd" clip-rule="evenodd" d="M4.12442 1.3335H12.8754C13.6134 1.3335 14.2142 1.94683 14.2142 2.70683V14.6668L12.8101 13.4002L12.0199 12.6535L11.184 11.8602L11.5301 13.0935H4.12442C3.38646 13.0935 2.78564 12.4802 2.78564 11.7202V2.70683C2.78564 1.94683 3.38646 1.3335 4.12442 1.3335ZM9.9236 9.50016C10.1195 9.7535 10.3546 10.0402 10.3546 10.0402C11.7979 9.9935 12.353 9.02683 12.353 9.02683C12.353 6.88016 11.4126 5.14016 11.4126 5.14016C10.4722 4.42016 9.57748 4.44016 9.57748 4.44016L9.48605 4.54683C10.5963 4.8935 11.1122 5.3935 11.1122 5.3935C10.433 5.0135 9.76687 4.82683 9.14646 4.7535C8.67626 4.70016 8.22565 4.7135 7.82728 4.76683C7.79307 4.76683 7.76384 4.77191 7.7309 4.77764C7.72611 4.77847 7.72123 4.77932 7.71626 4.78016C7.48769 4.80016 6.93258 4.88683 6.23381 5.20016C5.99218 5.3135 5.8485 5.3935 5.8485 5.3935C5.8485 5.3935 6.39054 4.86683 7.56605 4.52016L7.50075 4.44016C7.50075 4.44016 6.60605 4.42016 5.66564 5.14016C5.66564 5.14016 4.72524 6.88016 4.72524 9.02683C4.72524 9.02683 5.27381 9.9935 6.71707 10.0402C6.71707 10.0402 6.95871 9.74016 7.15462 9.48683C6.32524 9.2335 6.01177 8.70016 6.01177 8.70016C6.01177 8.70016 6.07707 8.74683 6.19462 8.8135C6.20115 8.82016 6.20769 8.82683 6.22075 8.8335C6.23054 8.84016 6.24034 8.84516 6.25013 8.85016C6.25993 8.85516 6.26973 8.86016 6.27952 8.86683C6.44279 8.96016 6.60605 9.0335 6.75626 9.0935C7.02401 9.20016 7.34401 9.30683 7.71626 9.38016C8.20605 9.4735 8.78075 9.50683 9.40769 9.38683C9.71462 9.3335 10.0281 9.24016 10.3546 9.10016C10.5832 9.0135 10.8379 8.88683 11.1056 8.70683C11.1056 8.70683 10.7791 9.2535 9.9236 9.50016ZM6.65176 7.66676C6.65176 7.26009 6.94563 6.92676 7.31788 6.92676C7.69012 6.92676 7.99053 7.26009 7.984 7.66676C7.984 8.07343 7.69012 8.40676 7.31788 8.40676C6.95216 8.40676 6.65176 8.07343 6.65176 7.66676ZM9.03543 7.66676C9.03543 7.26009 9.32931 6.92676 9.70155 6.92676C10.0738 6.92676 10.3677 7.26009 10.3677 7.66676C10.3677 8.07343 10.0738 8.40676 9.70155 8.40676C9.33584 8.40676 9.03543 8.07343 9.03543 7.66676Z" fill="#5865F2"/>
</svg>
