<svg width="25" height="24" viewBox="0 0 25 24" fill="none" xmlns="http://www.w3.org/2000/svg">
<path fill-rule="evenodd" clip-rule="evenodd" d="M5.55 2H18.95C20.08 2 21 2.92 21 4.06V22L18.85 20.1L17.64 18.98L16.36 17.79L16.89 19.64H5.55C4.42 19.64 3.5 18.72 3.5 17.58V4.06C3.5 2.92 4.42 2 5.55 2ZM14.43 14.25C14.73 14.63 15.09 15.06 15.09 15.06C17.3 14.99 18.15 13.54 18.15 13.54C18.15 10.32 16.71 7.71 16.71 7.71C15.27 6.63 13.9 6.66 13.9 6.66L13.76 6.82C15.46 7.34 16.25 8.09 16.25 8.09C15.21 7.52 14.19 7.24 13.24 7.13C12.52 7.05 11.83 7.07 11.22 7.15C11.1676 7.15 11.1229 7.15762 11.0724 7.16621C11.0651 7.16746 11.0576 7.16873 11.05 7.17C10.7 7.2 9.85 7.33 8.78 7.8C8.41 7.97 8.19 8.09 8.19 8.09C8.19 8.09 9.02 7.3 10.82 6.78L10.72 6.66C10.72 6.66 9.35 6.63 7.91 7.71C7.91 7.71 6.47 10.32 6.47 13.54C6.47 13.54 7.31 14.99 9.52 15.06C9.52 15.06 9.89 14.61 10.19 14.23C8.92 13.85 8.44 13.05 8.44 13.05C8.44 13.05 8.54 13.12 8.72 13.22C8.73 13.23 8.74 13.24 8.76 13.25C8.775 13.26 8.79 13.2675 8.805 13.275C8.82 13.2825 8.835 13.29 8.85 13.3C9.1 13.44 9.35 13.55 9.58 13.64C9.99 13.8 10.48 13.96 11.05 14.07C11.8 14.21 12.68 14.26 13.64 14.08C14.11 14 14.59 13.86 15.09 13.65C15.44 13.52 15.83 13.33 16.24 13.06C16.24 13.06 15.74 13.88 14.43 14.25ZM9.41998 11.4999C9.41998 10.8899 9.86998 10.3899 10.44 10.3899C11.01 10.3899 11.47 10.8899 11.46 11.4999C11.46 12.1099 11.01 12.6099 10.44 12.6099C9.87998 12.6099 9.41998 12.1099 9.41998 11.4999ZM13.07 11.4999C13.07 10.8899 13.52 10.3899 14.09 10.3899C14.66 10.3899 15.11 10.8899 15.11 11.4999C15.11 12.1099 14.66 12.6099 14.09 12.6099C13.53 12.6099 13.07 12.1099 13.07 11.4999Z" fill="white"/>
</svg>
