<svg width="32" height="32" viewBox="0 0 32 32" fill="none" xmlns="http://www.w3.org/2000/svg">
<path d="M28.9492 14.7781H19.1754L10.624 23.3313L15.5097 28.2172L28.9492 14.7781Z" fill="#54C5F8"/>
<path d="M8.18029 20.8876L3.29248 15.9998L19.1755 0.11676H28.9493L8.18029 20.8876Z" fill="#54C5F8"/>
<path d="M15.5098 28.2173L19.1755 31.883H28.9493L20.3976 23.3313L15.5098 28.2173Z" fill="#01579B"/>
<path d="M15.5098 28.2172L22.7583 25.7083L20.3975 23.3313L15.5098 28.2172Z" fill="url(#paint0_linear)"/>
<path d="M15.5103 18.4438L10.6235 23.3305L15.5103 28.2172L20.397 23.3305L15.5103 18.4438Z" fill="#29B6F6"/>
<path d="M28.9493 14.778L20.3976 23.3294L28.9493 31.8829H19.1755L15.5098 28.2172L10.6223 23.3294L19.1759 14.7777H28.9493V14.778ZM19.1755 0.11676L3.29248 15.9998L8.18029 20.8876L28.9493 0.11676H19.1755Z" fill="url(#paint1_radial)"/>
<defs>
<linearGradient id="paint0_linear" x1="16.9354" y1="29.1615" x2="20.5754" y2="25.5215" gradientUnits="userSpaceOnUse">
<stop stop-color="#1A237E" stop-opacity="0.4"/>
<stop offset="1" stop-color="#1A237E" stop-opacity="0"/>
</linearGradient>
<radialGradient id="paint1_radial" cx="0" cy="0" r="1" gradientUnits="userSpaceOnUse" gradientTransform="translate(4.01457 2.28263) scale(38.8641)">
<stop stop-color="white" stop-opacity="0.1"/>
<stop offset="1" stop-color="white" stop-opacity="0"/>
</radialGradient>
</defs>
</svg>
