<svg width="32" height="32" viewBox="0 0 32 32" fill="none" xmlns="http://www.w3.org/2000/svg">
<path fill-rule="evenodd" clip-rule="evenodd" d="M15.222 5.81073C15.4689 5.882 15.7299 5.92018 15.9999 5.92018C16.2708 5.92018 16.5325 5.88178 16.78 5.81012L25.2113 20.4132C25.0226 20.5931 24.8563 20.8027 24.7198 21.0401C24.5841 21.2761 24.4867 21.5239 24.4255 21.7761H7.57442C7.51326 21.5241 7.41574 21.2763 7.27994 21.0401C7.1429 20.8042 6.97691 20.5957 6.78911 20.4165L15.222 5.81073ZM13.9914 5.06907C14.0174 5.096 14.044 5.1224 14.0711 5.14827L5.6378 19.7547C5.60136 19.7441 5.56471 19.7343 5.52788 19.7252V12.2737C6.23851 12.0971 6.87883 11.6438 7.27189 10.9601C7.66443 10.2772 7.73721 9.4982 7.53616 8.79612L13.9914 5.06907ZM18.6766 3.92619C18.7516 3.67342 18.7919 3.40558 18.7919 3.12818C18.7919 1.58418 17.5439 0.336182 15.9999 0.336182C14.4559 0.336182 13.2079 1.58418 13.2079 3.12818C13.2079 3.40408 13.2478 3.67054 13.3221 3.9221L6.8786 7.64236C6.69785 7.45149 6.48696 7.28291 6.24789 7.14405C4.91189 6.37604 3.19989 6.83205 2.43189 8.16805C1.66389 9.50405 2.11989 11.2161 3.45589 11.9841C3.69441 12.1212 3.94491 12.2193 4.19989 12.2803V19.7217C3.94785 19.7828 3.70014 19.8803 3.46394 20.0161C2.12794 20.7921 1.67194 22.4961 2.43994 23.8321C3.20794 25.1681 4.91194 25.6241 6.25594 24.8561C6.49249 24.7187 6.70145 24.5522 6.88091 24.3639L13.3209 28.0821C13.2474 28.3325 13.2079 28.5976 13.2079 28.8721C13.2079 30.4161 14.4559 31.6641 15.9999 31.6641C17.5439 31.6641 18.7919 30.4081 18.7919 28.8721C18.7919 28.5645 18.7424 28.2687 18.6509 27.9921L25.0533 24.2956C25.2468 24.5129 25.4779 24.7032 25.7438 24.8561C27.0798 25.6241 28.7918 25.1681 29.5598 23.8321C30.3358 22.4961 29.8798 20.7921 28.5358 20.0161C28.2998 19.8804 28.0521 19.783 27.7999 19.7218V12.2803C28.0549 12.2193 28.3054 12.1212 28.5439 11.9841C29.8799 11.2081 30.3359 9.50405 29.5679 8.16805C28.7919 6.83205 27.0879 6.37604 25.7519 7.14405C25.5115 7.28365 25.2997 7.45328 25.1183 7.64541L18.6766 3.92619ZM17.9304 5.14675C17.9559 5.12236 17.9809 5.09748 18.0055 5.07214L24.4625 8.80017C24.2628 9.5012 24.3361 10.2785 24.7279 10.9601C25.1209 11.6438 25.7613 12.0971 26.4719 12.2737V19.7245C26.4357 19.7334 26.3996 19.743 26.3637 19.7533L17.9304 5.14675ZM24.4798 23.2873L18.0647 26.9911C17.5544 26.4311 16.8188 26.0801 15.9999 26.0801C15.2092 26.0801 14.4961 26.4074 13.9885 26.9342L7.5419 23.2121C7.55226 23.1763 7.56192 23.1403 7.57085 23.1041H24.4282C24.4433 23.1657 24.4605 23.2268 24.4798 23.2873Z" fill="#E535AB"/>
</svg>
