<svg width="55" height="16" viewBox="0 0 55 16" fill="none" xmlns="http://www.w3.org/2000/svg">
<g clip-path="url(#clip0)">
<g clip-path="url(#clip1)">
<path fill-rule="evenodd" clip-rule="evenodd" d="M24.9707 4.00098H23.4068V7.68936H21.6401V4.00098H20.0762V12.4964H21.6401V8.87555H23.4068V12.4946H24.9707V4.00098ZM45.0156 12.4964V9.185H45.5309L46.8363 12.4964H48.5222L47.0948 9.14411C47.7573 9.01783 48.0877 8.58749 48.0877 7.85119V5.333C48.0877 4.44558 47.5939 4.00098 46.6064 4.00098H43.4535V12.4964H45.0156ZM45.0156 8.03976V5.1854H46.1432C46.2886 5.1854 46.3891 5.21029 46.443 5.26009C46.4969 5.30988 46.5238 5.40592 46.5238 5.54997V7.67513C46.5238 7.81919 46.4969 7.91525 46.443 7.96503C46.3874 8.01481 46.2886 8.03976 46.1432 8.03976H45.0156ZM29.7934 12.4963L29.4666 10.7322H27.5903L27.2904 12.4963H25.7266L27.452 4.00271H29.5582L31.3662 12.4963H29.7934ZM27.795 9.56023H29.2494L28.5024 5.49479L27.795 9.56023ZM34.8514 9.12983V10.9474C34.8514 11.0914 34.8227 11.1874 34.767 11.2373C34.7113 11.287 34.6126 11.3119 34.4671 11.3119H33.95C33.7957 11.3119 33.6915 11.287 33.6376 11.2373C33.5837 11.1874 33.5568 11.0914 33.5568 10.9474V9.99235H31.9947V11.1643C31.9947 12.0518 32.4885 12.4963 33.476 12.4963H34.9448C35.9323 12.4963 36.4261 12.0536 36.4261 11.1643V8.9431C36.4261 8.06281 35.9502 7.62352 34.9986 7.62352H33.9249C33.7705 7.62352 33.6664 7.59863 33.6125 7.54885C33.5586 7.49907 33.5317 7.40301 33.5317 7.25895V5.54992C33.5317 5.40587 33.5586 5.30984 33.6125 5.26004C33.6664 5.21025 33.7705 5.18535 33.9249 5.18535H34.442C34.5874 5.18535 34.688 5.21025 34.7418 5.26004C34.7957 5.30984 34.8227 5.40587 34.8227 5.54992V6.51916H36.3991V5.33473C36.3991 4.44732 35.9107 4.00271 34.9322 4.00271H33.4365C32.458 4.00271 31.9696 4.44554 31.9696 5.33473V7.41901C31.9696 8.31709 32.4364 8.76526 33.3701 8.76526H34.4707C34.6162 8.76526 34.7167 8.79015 34.7706 8.83999C34.8245 8.88977 34.8514 8.98577 34.8514 9.12983ZM52.4902 10.7322L52.8171 12.4963H54.3917L52.5836 4.00271H50.4775L48.752 12.4963H50.3141L50.614 10.7322H52.4902ZM52.2748 9.56023H50.8204L51.5279 5.49479L52.2748 9.56023ZM40.5968 4.00098H42.1589V11.1626C42.1589 12.0518 41.6651 12.4946 40.6776 12.4946H39.0204C38.0328 12.4946 37.5391 12.05 37.5391 11.1626V4.00098H39.1029V10.9474C39.1029 11.0915 39.1299 11.1875 39.1838 11.2373C39.2376 11.2871 39.3382 11.312 39.4836 11.312H40.2036C40.358 11.312 40.4622 11.2871 40.516 11.2373C40.5699 11.1875 40.5968 11.0915 40.5968 10.9474V4.00098Z" fill="white"/>
<path fill-rule="evenodd" clip-rule="evenodd" d="M15.6386 0.0920669C16.5292 1.13599 16.8057 3.96365 16.346 5.38103C16.1934 5.85231 16.1503 6.35028 16.2383 6.83401C16.3281 7.31413 16.4178 7.89393 16.4178 8.2976C16.4178 12.4413 13.0261 15.8025 8.84083 15.8025C4.65732 15.8025 1.26382 12.4431 1.26382 8.2976C1.26382 7.89393 1.3536 7.31413 1.44338 6.83401C1.53315 6.35028 1.49185 5.85231 1.33923 5.38103C0.879586 3.96543 1.15609 1.13777 2.04666 0.0920669C2.16337 -0.0430917 2.38063 -0.0253076 2.47758 0.125857L3.57464 1.83134C3.84755 2.17102 4.33593 2.25105 4.70221 2.01274C5.89263 1.24091 7.31466 0.792758 8.84266 0.792758C10.3706 0.792758 11.7926 1.24091 12.983 2.01274C13.3512 2.25105 13.8395 2.17279 14.1106 1.83134L15.2077 0.125857C15.3046 -0.0253076 15.5219 -0.0448701 15.6386 0.0920669ZM2.97494 8.31538C2.97494 11.5201 5.60535 14.1272 8.84083 14.1272C12.0763 14.1272 14.7086 11.5201 14.7103 8.31715C14.7103 8.21404 14.7067 8.1091 14.7013 8.00593C14.5846 5.82386 13.2452 3.95653 11.3509 3.06733C10.5897 2.70632 9.74038 2.50713 8.84266 2.50713C7.94489 2.50713 7.09381 2.70632 6.33432 3.06555C4.44006 3.95476 3.10062 5.8203 2.98392 8.00415C2.97853 8.10732 2.97494 8.21049 2.97494 8.31538ZM9.88378 7.97747L11.383 10.5526C11.4136 10.6041 11.4136 10.6682 11.383 10.718C11.3543 10.7695 11.2986 10.8015 11.2376 10.8015H10.0185C9.95921 10.8015 9.90351 10.7695 9.87299 10.718L9.07222 9.34328L8.17983 10.7233C8.14932 10.7713 8.09545 10.7998 8.03803 10.7998H6.80093C6.73807 10.7998 6.68061 10.766 6.65188 10.7126C6.62315 10.6593 6.62495 10.5935 6.65906 10.5419L8.30914 8.04859L7.07921 6.00165C7.04869 5.9501 7.04692 5.88606 7.07744 5.83449C7.10795 5.78114 7.1636 5.74913 7.22463 5.74913H8.45278C8.51204 5.74913 8.56769 5.77936 8.59821 5.83093L9.88378 7.97747Z" fill="#1EB4D4"/>
</g>
</g>
<defs>
<clipPath id="clip0">
<rect width="53.9259" height="16" fill="white" transform="translate(0.82373)"/>
</clipPath>
<clipPath id="clip1">
<rect width="53.9259" height="16" fill="white" transform="translate(0.82373)"/>
</clipPath>
</defs>
</svg>
