<svg width="32" height="32" viewBox="0 0 32 32" fill="none" xmlns="http://www.w3.org/2000/svg">
<path fill-rule="evenodd" clip-rule="evenodd" d="M5.5 7.5V17.3788L9.23221 13.6465C9.46436 13.4144 9.73996 13.2302 10.0433 13.1046C10.3466 12.979 10.6717 12.9143 11 12.9143C11.3283 12.9143 11.6534 12.979 11.9567 13.1046C12.26 13.2302 12.5356 13.4144 12.7677 13.6465L18 18.8788L20.2322 16.6465C20.4644 16.4144 20.74 16.2302 21.0433 16.1046C21.3466 15.979 21.6717 15.9143 22 15.9143C22.3283 15.9143 22.6534 15.979 22.9567 16.1046C23.26 16.2302 23.5356 16.4144 23.7677 16.6465L26.5 19.3788V7.5H5.5ZM11 16.1214L5.5 21.6214V24.5H26.5V23.6214L22 19.1214L19.7677 21.3536C19.5356 21.5858 19.26 21.7699 18.9567 21.8956C18.6534 22.0212 18.3283 22.0859 18 22.0859C17.6717 22.0859 17.3466 22.0212 17.0433 21.8956C16.74 21.7699 16.4644 21.5858 16.2322 21.3536L11 16.1214ZM2.5 7V21.0001V25C2.5 26.3807 3.61929 27.5 5 27.5H27C28.3807 27.5 29.5 26.3807 29.5 25V7C29.5 5.61929 28.3807 4.5 27 4.5H5C3.61929 4.5 2.5 5.61929 2.5 7ZM22 12C22 13.1046 21.1046 14 20 14C18.8954 14 18 13.1046 18 12C18 10.8954 18.8954 10 20 10C21.1046 10 22 10.8954 22 12Z" fill="#0052CD"/>
</svg>
