<svg width="1120" height="56" viewBox="0 0 1120 56" fill="none" xmlns="http://www.w3.org/2000/svg">
<circle opacity="0.2" cx="31" cy="30" r="12" fill="#3787FF"/>
<path d="M47 21.0006L33 35L26 28.0006" stroke="#0D3777" stroke-width="2" stroke-linejoin="round"/>
<path d="M71.1484 24.9567H72.7358C72.6879 23.2095 71.1431 21.9418 68.9272 21.9418C66.7379 21.9418 65.06 23.1935 65.06 25.0739C65.06 26.592 66.1467 27.4815 67.8991 27.9556L69.1882 28.3072C70.3548 28.6161 71.255 28.9996 71.255 29.9691C71.255 31.0344 70.2376 31.7376 68.8366 31.7376C67.5689 31.7376 66.5142 31.1729 66.4183 29.9851H64.767C64.8736 31.9613 66.4023 33.1811 68.8473 33.1811C71.4094 33.1811 72.8849 31.8335 72.8849 29.9851C72.8849 28.0195 71.1325 27.2578 69.7475 26.9169L68.6822 26.6399C67.8299 26.4215 66.6953 26.022 66.7006 24.978C66.7006 24.0511 67.5476 23.364 68.8899 23.364C70.1417 23.364 71.0312 23.9499 71.1484 24.9567ZM78.2503 33.1651C80.0347 33.1651 81.2971 32.2862 81.6594 30.9545L80.1519 30.6829C79.8643 31.4553 79.1718 31.8494 78.2662 31.8494C76.9026 31.8494 75.9864 30.9652 75.9438 29.3885H81.7606V28.8239C81.7606 25.8675 79.9921 24.7116 78.1384 24.7116C75.8586 24.7116 74.3564 26.4482 74.3564 28.9624C74.3564 31.5032 75.8373 33.1651 78.2503 33.1651ZM75.9491 28.1953C76.0131 27.0341 76.8547 26.0273 78.1491 26.0273C79.3849 26.0273 80.1945 26.9435 80.1998 28.1953H75.9491ZM83.5277 33H85.1204V28.0036C85.1204 26.9329 85.946 26.1605 87.0753 26.1605C87.4055 26.1605 87.7784 26.2191 87.9062 26.2564V24.733C87.7464 24.7116 87.4322 24.6957 87.2298 24.6957C86.271 24.6957 85.4506 25.239 85.1523 26.1179H85.0671V24.8182H83.5277V33ZM96.5328 24.8182H94.823L92.7562 31.1143H92.671L90.5989 24.8182H88.889L91.8613 33H93.5659L96.5328 24.8182ZM101.263 33.1651C103.047 33.1651 104.31 32.2862 104.672 30.9545L103.165 30.6829C102.877 31.4553 102.184 31.8494 101.279 31.8494C99.9153 31.8494 98.9991 30.9652 98.9565 29.3885H104.773V28.8239C104.773 25.8675 103.005 24.7116 101.151 24.7116C98.8713 24.7116 97.3691 26.4482 97.3691 28.9624C97.3691 31.5032 98.85 33.1651 101.263 33.1651ZM98.9618 28.1953C99.0257 27.0341 99.8674 26.0273 101.162 26.0273C102.398 26.0273 103.207 26.9435 103.213 28.1953H98.9618ZM106.54 33H108.133V28.0036C108.133 26.9329 108.959 26.1605 110.088 26.1605C110.418 26.1605 110.791 26.2191 110.919 26.2564V24.733C110.759 24.7116 110.445 24.6957 110.242 24.6957C109.284 24.6957 108.463 25.239 108.165 26.1179H108.08V24.8182H106.54V33ZM113.89 22.0909H112.297V33H113.89V22.0909ZM119.559 33.1651C121.343 33.1651 122.606 32.2862 122.968 30.9545L121.46 30.6829C121.173 31.4553 120.48 31.8494 119.575 31.8494C118.211 31.8494 117.295 30.9652 117.252 29.3885H123.069V28.8239C123.069 25.8675 121.301 24.7116 119.447 24.7116C117.167 24.7116 115.665 26.4482 115.665 28.9624C115.665 31.5032 117.146 33.1651 119.559 33.1651ZM117.258 28.1953C117.322 27.0341 118.163 26.0273 119.458 26.0273C120.693 26.0273 121.503 26.9435 121.508 28.1953H117.258ZM130.967 26.8157C130.637 25.5426 129.641 24.7116 127.873 24.7116C126.024 24.7116 124.714 25.6864 124.714 27.1353C124.714 28.2965 125.417 29.0689 126.951 29.4098L128.336 29.7134C129.124 29.8892 129.492 30.2408 129.492 30.7521C129.492 31.386 128.815 31.8814 127.771 31.8814C126.818 31.8814 126.205 31.4712 126.013 30.6669L124.474 30.9013C124.74 32.3501 125.944 33.1651 127.782 33.1651C129.758 33.1651 131.127 32.1158 131.127 30.6349C131.127 29.479 130.392 28.7653 128.89 28.419L127.59 28.1207C126.69 27.9077 126.301 27.604 126.306 27.0501C126.301 26.4215 126.983 25.9741 127.888 25.9741C128.879 25.9741 129.337 26.5227 129.524 27.0714L130.967 26.8157ZM139.009 26.8157C138.679 25.5426 137.683 24.7116 135.915 24.7116C134.066 24.7116 132.756 25.6864 132.756 27.1353C132.756 28.2965 133.459 29.0689 134.993 29.4098L136.378 29.7134C137.166 29.8892 137.534 30.2408 137.534 30.7521C137.534 31.386 136.857 31.8814 135.813 31.8814C134.86 31.8814 134.247 31.4712 134.055 30.6669L132.516 30.9013C132.782 32.3501 133.986 33.1651 135.824 33.1651C137.8 33.1651 139.169 32.1158 139.169 30.6349C139.169 29.479 138.434 28.7653 136.932 28.419L135.632 28.1207C134.732 27.9077 134.343 27.604 134.348 27.0501C134.343 26.4215 135.025 25.9741 135.93 25.9741C136.921 25.9741 137.379 26.5227 137.566 27.0714L139.009 26.8157ZM145.018 33H146.573V31.7269H146.706C146.994 32.2489 147.58 33.1598 149.071 33.1598C151.053 33.1598 152.491 31.5724 152.491 28.9251C152.491 26.2724 151.032 24.7116 149.055 24.7116C147.537 24.7116 146.989 25.6385 146.706 26.1445H146.611V22.0909H145.018V33ZM146.579 28.9091C146.579 27.1992 147.324 26.0646 148.715 26.0646C150.158 26.0646 150.883 27.2844 150.883 28.9091C150.883 30.5497 150.137 31.8015 148.715 31.8015C147.346 31.8015 146.579 30.6296 146.579 28.9091ZM156.661 33.1811C158.014 33.1811 158.775 32.494 159.079 31.8814H159.143V33H160.698V27.5668C160.698 25.1857 158.823 24.7116 157.524 24.7116C156.043 24.7116 154.679 25.3082 154.146 26.7997L155.643 27.1406C155.878 26.56 156.474 26.0007 157.545 26.0007C158.573 26.0007 159.1 26.5387 159.1 27.4656V27.5028C159.1 28.0835 158.504 28.0728 157.034 28.2433C155.483 28.4244 153.896 28.8292 153.896 30.6882C153.896 32.2969 155.105 33.1811 156.661 33.1811ZM157.007 31.9027C156.107 31.9027 155.457 31.4979 155.457 30.7095C155.457 29.8572 156.213 29.5536 157.135 29.4311C157.651 29.3619 158.877 29.2234 159.106 28.9943V30.049C159.106 31.0185 158.333 31.9027 157.007 31.9027ZM166.266 33.1651C168.2 33.1651 169.451 32.0039 169.627 30.4112H168.077C167.875 31.2955 167.188 31.8175 166.277 31.8175C164.929 31.8175 164.061 30.6935 164.061 28.9091C164.061 27.1566 164.945 26.054 166.277 26.054C167.289 26.054 167.907 26.6932 168.077 27.4602H169.627C169.457 25.8089 168.109 24.7116 166.25 24.7116C163.944 24.7116 162.452 26.4482 162.452 28.9464C162.452 31.4126 163.89 33.1651 166.266 33.1651ZM171.33 33H172.923V30.0969L173.717 29.3033L176.497 33H178.452L174.915 28.3285L178.229 24.8182H176.322L173.062 28.2805H172.923V22.0909H171.33V33ZM182.869 33.1651C184.654 33.1651 185.916 32.2862 186.278 30.9545L184.771 30.6829C184.483 31.4553 183.791 31.8494 182.885 31.8494C181.522 31.8494 180.606 30.9652 180.563 29.3885H186.38V28.8239C186.38 25.8675 184.611 24.7116 182.758 24.7116C180.478 24.7116 178.976 26.4482 178.976 28.9624C178.976 31.5032 180.456 33.1651 182.869 33.1651ZM180.568 28.1953C180.632 27.0341 181.474 26.0273 182.768 26.0273C184.004 26.0273 184.814 26.9435 184.819 28.1953H180.568ZM189.74 28.142C189.74 26.837 190.539 26.0913 191.646 26.0913C192.728 26.0913 193.383 26.7997 193.383 27.9876V33H194.976V27.7958C194.976 25.7717 193.862 24.7116 192.19 24.7116C190.959 24.7116 190.155 25.2816 189.777 26.1499H189.676V24.8182H188.147V33H189.74V28.142ZM200.175 33.1598C201.666 33.1598 202.252 32.2489 202.54 31.7269H202.673V33H204.228V22.0909H202.635V26.1445H202.54C202.252 25.6385 201.709 24.7116 200.185 24.7116C198.209 24.7116 196.755 26.2724 196.755 28.9251C196.755 31.5724 198.188 33.1598 200.175 33.1598ZM200.526 31.8015C199.104 31.8015 198.363 30.5497 198.363 28.9091C198.363 27.2844 199.088 26.0646 200.526 26.0646C201.916 26.0646 202.662 27.1992 202.662 28.9091C202.662 30.6296 201.9 31.8015 200.526 31.8015Z" fill="#14242D"/>
<circle opacity="0.2" cx="311" cy="30" r="12" fill="#3787FF"/>
<path d="M327 21.0006L313 35L306 28.0006" stroke="#0D3777" stroke-width="2" stroke-linejoin="round"/>
<path d="M352.581 25.5373H354.27C353.902 23.4119 352.086 21.9418 349.732 21.9418C346.908 21.9418 344.847 24.0671 344.847 27.5508C344.847 31.0025 346.85 33.1491 349.806 33.1491C352.453 33.1491 354.344 31.4126 354.344 28.6587V27.4176H350.056V28.7759H352.752C352.714 30.5337 351.553 31.647 349.806 31.647C347.883 31.647 346.482 30.1928 346.482 27.5401C346.482 24.8981 347.894 23.4439 349.742 23.4439C351.191 23.4439 352.171 24.2429 352.581 25.5373ZM356.819 33H358.411V24.8182H356.819V33ZM357.623 23.5558C358.172 23.5558 358.63 23.1296 358.63 22.6076C358.63 22.0856 358.172 21.6541 357.623 21.6541C357.069 21.6541 356.616 22.0856 356.616 22.6076C356.616 23.1296 357.069 23.5558 357.623 23.5558ZM364.373 24.8182H362.695V22.858H361.103V24.8182H359.904V26.0966H361.103V30.9279C361.097 32.4141 362.232 33.1332 363.489 33.1065C363.995 33.1012 364.336 33.0053 364.522 32.9361L364.235 31.6204C364.128 31.6417 363.931 31.6896 363.676 31.6896C363.159 31.6896 362.695 31.5192 362.695 30.5977V26.0966H364.373V24.8182ZM366.439 33H368.085V28.2433H373.523V33H375.175V22.0909H373.523V26.8317H368.085V22.0909H366.439V33ZM382.627 29.6069C382.632 30.9972 381.599 31.6577 380.704 31.6577C379.718 31.6577 379.036 30.9439 379.036 29.8306V24.8182H377.444V30.0224C377.444 32.0518 378.557 33.1065 380.128 33.1065C381.359 33.1065 382.195 32.4567 382.573 31.5831H382.659V33H384.225V24.8182H382.627V29.6069ZM386.492 33H388.048V31.7269H388.181C388.469 32.2489 389.055 33.1598 390.546 33.1598C392.528 33.1598 393.966 31.5724 393.966 28.9251C393.966 26.2724 392.506 24.7116 390.53 24.7116C389.012 24.7116 388.463 25.6385 388.181 26.1445H388.085V22.0909H386.492V33ZM388.053 28.9091C388.053 27.1992 388.799 26.0646 390.189 26.0646C391.633 26.0646 392.357 27.2844 392.357 28.9091C392.357 30.5497 391.611 31.8015 390.189 31.8015C388.82 31.8015 388.053 30.6296 388.053 28.9091ZM399.724 33H401.317V24.8182H399.724V33ZM400.528 23.5558C401.077 23.5558 401.535 23.1296 401.535 22.6076C401.535 22.0856 401.077 21.6541 400.528 21.6541C399.974 21.6541 399.522 22.0856 399.522 22.6076C399.522 23.1296 399.974 23.5558 400.528 23.5558ZM405.052 28.142C405.052 26.837 405.851 26.0913 406.959 26.0913C408.04 26.0913 408.695 26.7997 408.695 27.9876V33H410.288V27.7958C410.288 25.7717 409.175 24.7116 407.502 24.7116C406.272 24.7116 405.468 25.2816 405.089 26.1499H404.988V24.8182H403.459V33H405.052V28.142ZM416.243 24.8182H414.566V22.858H412.973V24.8182H411.774V26.0966H412.973V30.9279C412.968 32.4141 414.102 33.1332 415.359 33.1065C415.865 33.1012 416.206 33.0053 416.393 32.9361L416.105 31.6204C415.998 31.6417 415.801 31.6896 415.546 31.6896C415.029 31.6896 414.566 31.5192 414.566 30.5977V26.0966H416.243V24.8182ZM421.444 33.1651C423.228 33.1651 424.491 32.2862 424.853 30.9545L423.345 30.6829C423.058 31.4553 422.365 31.8494 421.46 31.8494C420.096 31.8494 419.18 30.9652 419.137 29.3885H424.954V28.8239C424.954 25.8675 423.185 24.7116 421.332 24.7116C419.052 24.7116 417.55 26.4482 417.55 28.9624C417.55 31.5032 419.031 33.1651 421.444 33.1651ZM419.142 28.1953C419.206 27.0341 420.048 26.0273 421.342 26.0273C422.578 26.0273 423.388 26.9435 423.393 28.1953H419.142ZM430.151 36.2386C432.234 36.2386 433.843 35.2852 433.843 33.1811V24.8182H432.282V26.1445H432.165C431.883 25.6385 431.318 24.7116 429.795 24.7116C427.818 24.7116 426.364 26.2724 426.364 28.8771C426.364 31.4872 427.85 32.8775 429.784 32.8775C431.286 32.8775 431.867 32.0305 432.154 31.5085H432.256V33.1172C432.256 34.4009 431.377 34.9549 430.167 34.9549C428.841 34.9549 428.324 34.2891 428.042 33.8203L426.673 34.3849C427.105 35.3864 428.197 36.2386 430.151 36.2386ZM430.135 31.5565C428.713 31.5565 427.973 30.4645 427.973 28.8558C427.973 27.2844 428.697 26.0646 430.135 26.0646C431.526 26.0646 432.271 27.1992 432.271 28.8558C432.271 30.5444 431.51 31.5565 430.135 31.5565ZM435.979 33H437.572V28.0036C437.572 26.9329 438.397 26.1605 439.526 26.1605C439.857 26.1605 440.23 26.2191 440.357 26.2564V24.733C440.198 24.7116 439.883 24.6957 439.681 24.6957C438.722 24.6957 437.902 25.239 437.604 26.1179H437.518V24.8182H435.979V33ZM444.044 33.1811C445.396 33.1811 446.158 32.494 446.462 31.8814H446.526V33H448.081V27.5668C448.081 25.1857 446.206 24.7116 444.906 24.7116C443.426 24.7116 442.062 25.3082 441.529 26.7997L443.026 27.1406C443.26 26.56 443.857 26.0007 444.928 26.0007C445.956 26.0007 446.483 26.5387 446.483 27.4656V27.5028C446.483 28.0835 445.887 28.0728 444.416 28.2433C442.866 28.4244 441.279 28.8292 441.279 30.6882C441.279 32.2969 442.488 33.1811 444.044 33.1811ZM444.39 31.9027C443.49 31.9027 442.84 31.4979 442.84 30.7095C442.84 29.8572 443.596 29.5536 444.518 29.4311C445.034 29.3619 446.259 29.2234 446.488 28.9943V30.049C446.488 31.0185 445.716 31.9027 444.39 31.9027ZM454.022 24.8182H452.344V22.858H450.751V24.8182H449.553V26.0966H450.751V30.9279C450.746 32.4141 451.88 33.1332 453.138 33.1065C453.644 33.1012 453.984 33.0053 454.171 32.9361L453.883 31.6204C453.777 31.6417 453.58 31.6896 453.324 31.6896C452.807 31.6896 452.344 31.5192 452.344 30.5977V26.0966H454.022V24.8182ZM455.784 33H457.376V24.8182H455.784V33ZM456.588 23.5558C457.137 23.5558 457.595 23.1296 457.595 22.6076C457.595 22.0856 457.137 21.6541 456.588 21.6541C456.034 21.6541 455.581 22.0856 455.581 22.6076C455.581 23.1296 456.034 23.5558 456.588 23.5558ZM462.965 33.1651C465.272 33.1651 466.779 31.4766 466.779 28.9464C466.779 26.4002 465.272 24.7116 462.965 24.7116C460.659 24.7116 459.151 26.4002 459.151 28.9464C459.151 31.4766 460.659 33.1651 462.965 33.1651ZM462.971 31.8281C461.463 31.8281 460.76 30.5124 460.76 28.9411C460.76 27.375 461.463 26.0433 462.971 26.0433C464.467 26.0433 465.171 27.375 465.171 28.9411C465.171 30.5124 464.467 31.8281 462.971 31.8281ZM470.15 28.142C470.15 26.837 470.949 26.0913 472.057 26.0913C473.138 26.0913 473.793 26.7997 473.793 27.9876V33H475.386V27.7958C475.386 25.7717 474.273 24.7116 472.6 24.7116C471.369 24.7116 470.565 25.2816 470.187 26.1499H470.086V24.8182H468.557V33H470.15V28.142Z" fill="#14242D"/>
<circle opacity="0.2" cx="591" cy="30" r="12" fill="#3787FF"/>
<path d="M607 21.0006L593 35L586 28.0006" stroke="#0D3777" stroke-width="2" stroke-linejoin="round"/>
<path d="M634.259 25.6385C633.886 23.3054 632.059 21.9418 629.753 21.9418C626.93 21.9418 624.847 24.0565 624.847 27.5455C624.847 31.0344 626.919 33.1491 629.753 33.1491C632.15 33.1491 633.902 31.647 634.259 29.4897L632.597 29.4844C632.315 30.88 631.143 31.647 629.763 31.647C627.894 31.647 626.482 30.2141 626.482 27.5455C626.482 24.8981 627.888 23.4439 629.769 23.4439C631.159 23.4439 632.326 24.2269 632.597 25.6385H634.259ZM637.694 22.0909H636.101V33H637.694V22.0909ZM643.283 33.1651C645.589 33.1651 647.097 31.4766 647.097 28.9464C647.097 26.4002 645.589 24.7116 643.283 24.7116C640.976 24.7116 639.469 26.4002 639.469 28.9464C639.469 31.4766 640.976 33.1651 643.283 33.1651ZM643.288 31.8281C641.781 31.8281 641.077 30.5124 641.077 28.9411C641.077 27.375 641.781 26.0433 643.288 26.0433C644.785 26.0433 645.488 27.375 645.488 28.9411C645.488 30.5124 644.785 31.8281 643.288 31.8281ZM654.057 29.6069C654.063 30.9972 653.029 31.6577 652.134 31.6577C651.149 31.6577 650.467 30.9439 650.467 29.8306V24.8182H648.874V30.0224C648.874 32.0518 649.988 33.1065 651.559 33.1065C652.79 33.1065 653.626 32.4567 654.004 31.5831H654.089V33H655.655V24.8182H654.057V29.6069ZM660.858 33.1598C662.35 33.1598 662.936 32.2489 663.223 31.7269H663.356V33H664.912V22.0909H663.319V26.1445H663.223C662.936 25.6385 662.392 24.7116 660.869 24.7116C658.893 24.7116 657.438 26.2724 657.438 28.9251C657.438 31.5724 658.871 33.1598 660.858 33.1598ZM661.21 31.8015C659.787 31.8015 659.047 30.5497 659.047 28.9091C659.047 27.2844 659.771 26.0646 661.21 26.0646C662.6 26.0646 663.346 27.1992 663.346 28.9091C663.346 30.6296 662.584 31.8015 661.21 31.8015ZM675.048 24.8182H673.285V24.0831C673.285 23.3587 673.584 22.9645 674.361 22.9645C674.692 22.9645 674.926 23.0391 675.075 23.087L675.448 21.7979C675.224 21.7127 674.761 21.5795 674.116 21.5795C672.822 21.5795 671.687 22.3359 671.687 23.87V24.8182H670.425V26.0966H671.687V33H673.285V26.0966H675.048V24.8182ZM681.875 29.6069C681.88 30.9972 680.847 31.6577 679.952 31.6577C678.966 31.6577 678.284 30.9439 678.284 29.8306V24.8182H676.692V30.0224C676.692 32.0518 677.805 33.1065 679.376 33.1065C680.607 33.1065 681.443 32.4567 681.821 31.5831H681.907V33H683.473V24.8182H681.875V29.6069ZM687.205 28.142C687.205 26.837 688.004 26.0913 689.112 26.0913C690.194 26.0913 690.849 26.7997 690.849 27.9876V33H692.441V27.7958C692.441 25.7717 691.328 24.7116 689.656 24.7116C688.425 24.7116 687.621 25.2816 687.243 26.1499H687.141V24.8182H685.613V33H687.205V28.142ZM698.024 33.1651C699.957 33.1651 701.209 32.0039 701.385 30.4112H699.835C699.633 31.2955 698.945 31.8175 698.035 31.8175C696.687 31.8175 695.819 30.6935 695.819 28.9091C695.819 27.1566 696.703 26.054 698.035 26.054C699.047 26.054 699.665 26.6932 699.835 27.4602H701.385C701.215 25.8089 699.867 24.7116 698.008 24.7116C695.701 24.7116 694.21 26.4482 694.21 28.9464C694.21 31.4126 695.648 33.1651 698.024 33.1651ZM706.907 24.8182H705.23V22.858H703.637V24.8182H702.438V26.0966H703.637V30.9279C703.632 32.4141 704.766 33.1332 706.023 33.1065C706.529 33.1012 706.87 33.0053 707.057 32.9361L706.769 31.6204C706.662 31.6417 706.465 31.6896 706.21 31.6896C705.693 31.6896 705.23 31.5192 705.23 30.5977V26.0966H706.907V24.8182ZM708.669 33H710.262V24.8182H708.669V33ZM709.474 23.5558C710.022 23.5558 710.48 23.1296 710.48 22.6076C710.48 22.0856 710.022 21.6541 709.474 21.6541C708.92 21.6541 708.467 22.0856 708.467 22.6076C708.467 23.1296 708.92 23.5558 709.474 23.5558ZM715.851 33.1651C718.157 33.1651 719.665 31.4766 719.665 28.9464C719.665 26.4002 718.157 24.7116 715.851 24.7116C713.545 24.7116 712.037 26.4002 712.037 28.9464C712.037 31.4766 713.545 33.1651 715.851 33.1651ZM715.856 31.8281C714.349 31.8281 713.646 30.5124 713.646 28.9411C713.646 27.375 714.349 26.0433 715.856 26.0433C717.353 26.0433 718.056 27.375 718.056 28.9411C718.056 30.5124 717.353 31.8281 715.856 31.8281ZM723.035 28.142C723.035 26.837 723.834 26.0913 724.942 26.0913C726.024 26.0913 726.679 26.7997 726.679 27.9876V33H728.272V27.7958C728.272 25.7717 727.158 24.7116 725.486 24.7116C724.255 24.7116 723.451 25.2816 723.073 26.1499H722.972V24.8182H721.443V33H723.035V28.142ZM736.539 26.8157C736.208 25.5426 735.212 24.7116 733.444 24.7116C731.595 24.7116 730.285 25.6864 730.285 27.1353C730.285 28.2965 730.988 29.0689 732.522 29.4098L733.907 29.7134C734.696 29.8892 735.063 30.2408 735.063 30.7521C735.063 31.386 734.387 31.8814 733.343 31.8814C732.389 31.8814 731.777 31.4712 731.585 30.6669L730.045 30.9013C730.312 32.3501 731.516 33.1651 733.353 33.1651C735.329 33.1651 736.698 32.1158 736.698 30.6349C736.698 29.479 735.963 28.7653 734.461 28.419L733.161 28.1207C732.261 27.9077 731.872 27.604 731.878 27.0501C731.872 26.4215 732.554 25.9741 733.46 25.9741C734.451 25.9741 734.909 26.5227 735.095 27.0714L736.539 26.8157Z" fill="#14242D"/>
<circle opacity="0.2" cx="871" cy="30" r="12" fill="#3787FF"/>
<path d="M887 21.0006L873 35L866 28.0006" stroke="#0D3777" stroke-width="2" stroke-linejoin="round"/>
<path d="M905.199 33H906.844V29.1648H909.082C911.612 29.1648 912.864 27.636 912.864 25.6225C912.864 23.6143 911.623 22.0909 909.087 22.0909H905.199V33ZM906.844 27.7692V23.5025H908.911C910.541 23.5025 911.207 24.3867 911.207 25.6225C911.207 26.8583 910.541 27.7692 908.933 27.7692H906.844ZM914.665 33H916.258V28.0036C916.258 26.9329 917.084 26.1605 918.213 26.1605C918.543 26.1605 918.916 26.2191 919.044 26.2564V24.733C918.884 24.7116 918.57 24.6957 918.367 24.6957C917.409 24.6957 916.588 25.239 916.29 26.1179H916.205V24.8182H914.665V33ZM923.656 33.1651C925.44 33.1651 926.702 32.2862 927.065 30.9545L925.557 30.6829C925.27 31.4553 924.577 31.8494 923.672 31.8494C922.308 31.8494 921.392 30.9652 921.349 29.3885H927.166V28.8239C927.166 25.8675 925.397 24.7116 923.544 24.7116C921.264 24.7116 919.762 26.4482 919.762 28.9624C919.762 31.5032 921.243 33.1651 923.656 33.1651ZM921.354 28.1953C921.418 27.0341 922.26 26.0273 923.554 26.0273C924.79 26.0273 925.6 26.9435 925.605 28.1953H921.354ZM935.683 24.8182H933.973L931.907 31.1143H931.821L929.749 24.8182H928.039L931.012 33H932.716L935.683 24.8182ZM937.18 33H938.773V24.8182H937.18V33ZM937.984 23.5558C938.533 23.5558 938.991 23.1296 938.991 22.6076C938.991 22.0856 938.533 21.6541 937.984 21.6541C937.43 21.6541 936.978 22.0856 936.978 22.6076C936.978 23.1296 937.43 23.5558 937.984 23.5558ZM944.442 33.1651C946.226 33.1651 947.489 32.2862 947.851 30.9545L946.343 30.6829C946.056 31.4553 945.363 31.8494 944.458 31.8494C943.094 31.8494 942.178 30.9652 942.135 29.3885H947.952V28.8239C947.952 25.8675 946.184 24.7116 944.33 24.7116C942.05 24.7116 940.548 26.4482 940.548 28.9624C940.548 31.5032 942.029 33.1651 944.442 33.1651ZM942.141 28.1953C942.204 27.0341 943.046 26.0273 944.34 26.0273C945.576 26.0273 946.386 26.9435 946.391 28.1953H942.141ZM951.478 33H953.098L954.759 27.0927H954.882L956.544 33H958.169L960.571 24.8182H958.925L957.332 30.8001H957.252L955.654 24.8182H954.008L952.4 30.8267H952.32L950.717 24.8182H949.071L951.478 33ZM969.578 33.1651C971.363 33.1651 972.625 32.2862 972.987 30.9545L971.48 30.6829C971.192 31.4553 970.5 31.8494 969.594 31.8494C968.231 31.8494 967.315 30.9652 967.272 29.3885H973.089V28.8239C973.089 25.8675 971.32 24.7116 969.467 24.7116C967.187 24.7116 965.685 26.4482 965.685 28.9624C965.685 31.5032 967.165 33.1651 969.578 33.1651ZM967.277 28.1953C967.341 27.0341 968.183 26.0273 969.477 26.0273C970.713 26.0273 971.523 26.9435 971.528 28.1953H967.277ZM976.449 28.142C976.449 26.837 977.248 26.0913 978.355 26.0913C979.437 26.0913 980.092 26.7997 980.092 27.9876V33H981.685V27.7958C981.685 25.7717 980.571 24.7116 978.899 24.7116C977.668 24.7116 976.864 25.2816 976.486 26.1499H976.385V24.8182H974.856V33H976.449V28.142ZM990.527 24.8182H988.817L986.75 31.1143H986.665L984.593 24.8182H982.883L985.855 33H987.56L990.527 24.8182ZM992.024 33H993.616V24.8182H992.024V33ZM992.828 23.5558C993.377 23.5558 993.835 23.1296 993.835 22.6076C993.835 22.0856 993.377 21.6541 992.828 21.6541C992.274 21.6541 991.821 22.0856 991.821 22.6076C991.821 23.1296 992.274 23.5558 992.828 23.5558ZM995.759 33H997.352V28.0036C997.352 26.9329 998.177 26.1605 999.307 26.1605C999.637 26.1605 1000.01 26.2191 1000.14 26.2564V24.733C999.978 24.7116 999.664 24.6957 999.461 24.6957C998.502 24.6957 997.682 25.239 997.384 26.1179H997.299V24.8182H995.759V33ZM1004.67 33.1651C1006.98 33.1651 1008.48 31.4766 1008.48 28.9464C1008.48 26.4002 1006.98 24.7116 1004.67 24.7116C1002.36 24.7116 1000.86 26.4002 1000.86 28.9464C1000.86 31.4766 1002.36 33.1651 1004.67 33.1651ZM1004.67 31.8281C1003.17 31.8281 1002.46 30.5124 1002.46 28.9411C1002.46 27.375 1003.17 26.0433 1004.67 26.0433C1006.17 26.0433 1006.87 27.375 1006.87 28.9411C1006.87 30.5124 1006.17 31.8281 1004.67 31.8281ZM1011.85 28.142C1011.85 26.837 1012.65 26.0913 1013.76 26.0913C1014.84 26.0913 1015.5 26.7997 1015.5 27.9876V33H1017.09V27.7958C1017.09 25.7717 1015.98 24.7116 1014.3 24.7116C1013.07 24.7116 1012.27 25.2816 1011.89 26.1499H1011.79V24.8182H1010.26V33H1011.85V28.142ZM1019.23 33H1020.82V27.9556C1020.82 26.853 1021.59 26.0859 1022.5 26.0859C1023.38 26.0859 1023.99 26.6719 1023.99 27.5614V33H1025.58V27.7852C1025.58 26.7997 1026.18 26.0859 1027.22 26.0859C1028.06 26.0859 1028.76 26.5547 1028.76 27.6626V33H1030.35V27.5135C1030.35 25.6438 1029.3 24.7116 1027.82 24.7116C1026.65 24.7116 1025.76 25.2763 1025.37 26.1499H1025.28C1024.93 25.255 1024.17 24.7116 1023.08 24.7116C1022 24.7116 1021.2 25.2496 1020.86 26.1499H1020.75V24.8182H1019.23V33ZM1036.01 33.1651C1037.79 33.1651 1039.06 32.2862 1039.42 30.9545L1037.91 30.6829C1037.62 31.4553 1036.93 31.8494 1036.03 31.8494C1034.66 31.8494 1033.75 30.9652 1033.7 29.3885H1039.52V28.8239C1039.52 25.8675 1037.75 24.7116 1035.9 24.7116C1033.62 24.7116 1032.12 26.4482 1032.12 28.9624C1032.12 31.5032 1033.6 33.1651 1036.01 33.1651ZM1033.71 28.1953C1033.77 27.0341 1034.61 26.0273 1035.91 26.0273C1037.14 26.0273 1037.95 26.9435 1037.96 28.1953H1033.71ZM1042.88 28.142C1042.88 26.837 1043.68 26.0913 1044.79 26.0913C1045.87 26.0913 1046.52 26.7997 1046.52 27.9876V33H1048.12V27.7958C1048.12 25.7717 1047 24.7116 1045.33 24.7116C1044.1 24.7116 1043.29 25.2816 1042.92 26.1499H1042.82V24.8182H1041.29V33H1042.88V28.142ZM1054.07 24.8182H1052.39V22.858H1050.8V24.8182H1049.6V26.0966H1050.8V30.9279C1050.79 32.4141 1051.93 33.1332 1053.19 33.1065C1053.69 33.1012 1054.03 33.0053 1054.22 32.9361L1053.93 31.6204C1053.83 31.6417 1053.63 31.6896 1053.37 31.6896C1052.86 31.6896 1052.39 31.5192 1052.39 30.5977V26.0966H1054.07V24.8182ZM1061.83 26.8157C1061.5 25.5426 1060.51 24.7116 1058.74 24.7116C1056.89 24.7116 1055.58 25.6864 1055.58 27.1353C1055.58 28.2965 1056.28 29.0689 1057.82 29.4098L1059.2 29.7134C1059.99 29.8892 1060.36 30.2408 1060.36 30.7521C1060.36 31.386 1059.68 31.8814 1058.64 31.8814C1057.68 31.8814 1057.07 31.4712 1056.88 30.6669L1055.34 30.9013C1055.6 32.3501 1056.81 33.1651 1058.65 33.1651C1060.62 33.1651 1061.99 32.1158 1061.99 30.6349C1061.99 29.479 1061.26 28.7653 1059.75 28.419L1058.45 28.1207C1057.55 27.9077 1057.17 27.604 1057.17 27.0501C1057.17 26.4215 1057.85 25.9741 1058.75 25.9741C1059.74 25.9741 1060.2 26.5227 1060.39 27.0714L1061.83 26.8157Z" fill="#14242D"/>
</svg>
