<svg width="24" height="24" viewBox="0 0 24 24" fill="none" xmlns="http://www.w3.org/2000/svg">
<path fill-rule="evenodd" clip-rule="evenodd" d="M3.05006 1.5H20.9459C21.8025 1.5 22.5003 2.17783 22.5003 3.0136V20.9846C22.5003 21.8211 21.8025 22.5 20.9459 22.5H3.05006C2.1949 22.5 1.5 21.8211 1.5 20.9846V3.0136C1.5 2.17783 2.1949 1.5 3.05006 1.5ZM4.36518 6.19651C4.36518 7.19343 5.17324 8.00295 6.17162 8.00295C7.16737 8.00295 7.9766 7.19343 7.9766 6.19651C7.9766 5.20032 7.16737 4.39109 6.17162 4.39109C5.17324 4.39109 4.36518 5.20032 4.36518 6.19651ZM16.282 19.3948H19.3946V13.8976C19.3946 11.1993 18.8123 9.12363 15.6582 9.12363C14.1429 9.12363 13.1269 9.95444 12.7112 10.7422H12.6698V9.373H9.68183V19.3948H12.7944V14.4371C12.7944 13.1298 13.0426 11.8637 14.6635 11.8637C16.2607 11.8637 16.282 13.3585 16.282 14.5212V19.3948ZM4.61351 19.3947H7.72837V9.37293H4.61351V19.3947Z" fill="white"/>
</svg>
