<svg width="68" height="16" viewBox="0 0 68 16" fill="none" xmlns="http://www.w3.org/2000/svg">
<g clip-path="url(#clip0)">
<g clip-path="url(#clip1)">
<path d="M12.3654 11.6716C12.4679 10.8184 12.4373 10.6932 13.0727 10.8314L13.234 10.8456C13.7228 10.8678 14.3621 10.767 14.7375 10.5925C15.5459 10.2175 16.0252 9.59094 15.2281 9.75552C13.4097 10.1306 13.2846 9.51505 13.2846 9.51505C15.2049 6.66597 16.0077 3.04944 15.3149 2.16412C13.4252 -0.250578 10.1541 0.891261 10.0993 0.920934L10.0817 0.924339C9.72243 0.84959 9.32047 0.805161 8.86873 0.797865C8.04583 0.784407 7.4214 1.01368 6.94777 1.37284C6.94777 1.37284 1.11226 -1.03132 1.3837 4.39623C1.44142 5.55088 3.03873 13.133 4.9438 10.8429C5.64005 10.0055 6.31296 9.29745 6.31296 9.29745C6.64715 9.51943 7.04717 9.63261 7.4668 9.59191L7.49923 9.56435C7.48918 9.66828 7.49356 9.76995 7.51237 9.89026C7.02155 10.4388 7.16586 10.5351 6.18454 10.737C5.19188 10.9416 5.77512 11.3058 6.15568 11.401C6.61748 11.5166 7.68521 11.6802 8.40693 10.6699L8.37823 10.7852C8.57086 10.9392 8.55773 11.8921 8.58497 12.573C8.61221 13.2538 8.65794 13.8891 8.79673 14.264C8.93553 14.6386 9.0993 15.6035 10.3889 15.3272C11.4665 15.096 12.2904 14.7636 12.3654 11.6716Z" fill="black"/>
<path d="M9.9691 16C9.39867 16 9.02735 15.7795 8.80164 15.5664C8.46113 15.2452 8.32607 14.8312 8.24548 14.584L8.21062 14.4807C8.04815 14.0421 7.99318 13.4107 7.96059 12.5977C7.95572 12.4757 7.95215 12.3497 7.94843 12.2163C7.94567 12.1188 7.94226 11.9966 7.9374 11.8683C7.73472 11.9655 7.51776 12.034 7.2893 12.0733C6.88717 12.142 6.45489 12.1197 6.00412 12.007C5.68615 11.9275 5.35569 11.7628 5.16744 11.5082C4.61857 11.989 4.095 11.9236 3.80978 11.8286C3.30664 11.6608 2.85636 11.1894 2.43299 10.3871C2.13156 9.81587 1.83986 9.07129 1.56599 8.17446C1.08928 6.6125 0.786391 4.96735 0.759475 4.4274C0.674834 2.7367 1.12982 1.52773 2.11178 0.834225C3.6611 -0.260105 6.00817 0.383294 6.86382 0.675483C7.43863 0.328975 8.11495 0.16018 8.87931 0.172503C9.28987 0.179151 9.68064 0.21531 10.0437 0.279844C10.4223 0.160828 11.1704 -0.0100745 12.0267 0.000465046C13.6044 0.0192741 14.9118 0.634136 15.8074 1.77857C16.4464 2.59514 16.1305 4.30968 15.8852 5.25922C15.5403 6.5945 14.9357 8.01507 14.193 9.2516C14.3947 9.25306 14.6868 9.22874 15.1022 9.14313C15.9217 8.97384 16.1612 9.41326 16.2262 9.60995C16.4868 10.3991 15.3542 10.9953 15.0008 11.1593C14.5481 11.3696 13.8102 11.4975 13.2057 11.4698L13.1793 11.468L13.0205 11.454L13.0048 11.5864L12.9897 11.7159C12.9492 13.2829 12.7253 14.2752 12.2646 14.9311C11.7819 15.6185 11.1108 15.8113 10.5198 15.9379C10.3185 15.9812 10.1353 16 9.9691 16ZM8.76889 10.2966C9.13713 10.5913 9.16939 11.1456 9.19809 12.1818C9.20166 12.311 9.20506 12.4334 9.20961 12.5477C9.22355 12.8937 9.25614 13.7042 9.38294 14.0466C9.40094 14.0949 9.41699 14.1442 9.43385 14.1961C9.57525 14.6294 9.64627 14.8465 10.2577 14.7155C10.7712 14.6055 11.0351 14.5068 11.2416 14.2127C11.5419 13.7849 11.7099 12.925 11.7407 11.6561L12.3653 11.6713L11.7449 11.5969L11.7631 11.442C11.8226 10.9316 11.8654 10.5626 12.2067 10.3187C12.4804 10.123 12.7926 10.142 13.0411 10.1867C12.7681 9.98062 12.6925 9.73837 12.6724 9.63913L12.6204 9.38262L12.7666 9.16534C13.6098 7.91421 14.3052 6.37657 14.6746 4.9466C15.054 3.47722 14.9383 2.69681 14.8226 2.54925C13.291 0.591977 10.6346 1.39996 10.3573 1.49189L10.3103 1.51719L10.0751 1.56113L9.95467 1.53616C9.62276 1.46725 9.25403 1.42914 8.85856 1.42266C8.23737 1.41228 7.73634 1.55902 7.32546 1.87083L7.0404 2.08697L6.70946 1.95061C6.00282 1.66166 3.92669 1.08069 2.83123 1.85656C2.22318 2.28722 1.94623 3.1312 2.00784 4.36498C2.02811 4.77229 2.30506 6.31415 2.76134 7.80979C3.39226 9.87652 3.96561 10.5629 4.20494 10.6428C4.24661 10.6569 4.35509 10.5726 4.46291 10.4432C5.16436 9.59957 5.83143 8.89634 5.85949 8.86667L6.22124 8.48611L6.65855 8.77667C6.8348 8.89391 7.02921 8.96022 7.22898 8.97271L8.27207 8.08317L8.12095 9.62519C8.11755 9.65989 8.11592 9.70691 8.12954 9.79447L8.17494 10.0868L7.97826 10.307L7.95556 10.3325L8.52859 10.5971L8.76889 10.2966Z" fill="black"/>
<path d="M15.2288 9.7556C13.4101 10.1306 13.2851 9.51497 13.2851 9.51497C15.2053 6.66588 16.0079 3.04919 15.3152 2.16403C13.4254 -0.250662 10.1542 0.89134 10.0996 0.921013L10.0819 0.924094C9.72259 0.849668 9.32063 0.80524 8.86873 0.797943C8.04583 0.784485 7.42156 1.0136 6.94793 1.37275C6.94793 1.37275 1.11226 -1.03124 1.3837 4.39631C1.44142 5.55096 3.03873 13.1331 4.9438 10.843C5.64005 10.0056 6.3128 9.29753 6.3128 9.29753C6.64699 9.51951 7.047 9.63269 7.46648 9.59199L7.49907 9.56442C7.48902 9.66836 7.49356 9.77003 7.51204 9.89034C7.02139 10.4389 7.16537 10.5352 6.18438 10.7371C5.19156 10.9417 5.7748 11.3059 6.15568 11.4011C6.61731 11.5167 7.68522 11.6803 8.40677 10.6699L8.37791 10.7852C8.57021 10.9393 8.70528 11.7871 8.68258 12.5557C8.65988 13.3243 8.6448 13.8519 8.79641 14.2641C8.94802 14.6761 9.09898 15.6036 10.3887 15.3273C11.4663 15.0962 12.0248 14.4977 12.1026 13.4996C12.1577 12.7899 12.2824 12.8948 12.2904 12.2601L12.3906 11.9597C12.5058 10.9975 12.4089 10.6871 13.0729 10.8316L13.2342 10.8457C13.7229 10.8681 14.3624 10.7671 14.7378 10.5926C15.5463 10.2174 16.0257 9.59102 15.2288 9.7556Z" fill="#336791"/>
<path d="M10.0352 15.6149C8.96005 15.615 8.61954 14.7636 8.4801 14.4154C8.27628 13.9053 8.23217 11.9252 8.27758 10.3013C8.28082 10.1862 8.376 10.0952 8.49177 10.0988C8.60673 10.102 8.69737 10.1978 8.69429 10.313C8.64192 12.1859 8.71635 13.8831 8.86714 14.2606C9.10274 14.8495 9.45995 15.3647 10.4703 15.1484C11.4294 14.9426 11.7885 14.5789 11.9484 13.6517C12.0713 12.9401 12.3139 10.9157 12.3437 10.5161C12.3523 10.4013 12.4519 10.3151 12.567 10.3238C12.6818 10.3324 12.7679 10.4325 12.7593 10.5471C12.7282 10.9629 12.4866 12.9835 12.359 13.7226C12.1701 14.8179 11.6819 15.3147 10.5575 15.5558C10.3667 15.5965 10.193 15.6149 10.0352 15.6149ZM4.2059 11.4566C4.10326 11.4568 4.01019 11.4379 3.9296 11.411C3.23124 11.178 2.56611 10.0407 1.95254 8.03042C1.48556 6.50008 1.18964 4.90293 1.1637 4.3839C1.08668 2.84512 1.48313 1.7563 2.3417 1.14793C4.04035 -0.0556893 6.89803 1.09053 7.01883 1.13982C7.12536 1.18344 7.17644 1.30505 7.13282 1.41158C7.08936 1.51795 6.96759 1.56919 6.86122 1.52557V1.52573C6.83366 1.51438 4.09337 0.416645 2.58184 1.4886C1.84764 2.00925 1.51053 2.9763 1.57977 4.3633C1.60166 4.80045 1.87812 6.3595 2.3511 7.90897C2.89883 9.70346 3.52229 10.8361 4.06143 11.0157C4.14591 11.0441 4.4034 11.1299 4.77179 10.6872C5.46449 9.85377 6.10091 9.18864 6.10724 9.18199C6.18685 9.09881 6.31884 9.09622 6.40186 9.17567C6.48488 9.25528 6.4878 9.38727 6.40818 9.47029C6.40186 9.47677 5.77516 10.132 5.0922 10.9536C4.76871 11.3424 4.45853 11.4566 4.2059 11.4566ZM13.2732 9.7007C13.2331 9.7007 13.1926 9.68919 13.1569 9.66503C13.0614 9.60082 13.0361 9.47126 13.1005 9.37576C15.0415 6.49538 15.7229 3.01521 15.1393 2.26966C14.4048 1.33115 13.3675 0.840822 12.0566 0.81277C11.0858 0.791691 10.3141 1.03961 10.1882 1.08291L10.1565 1.09572C10.0297 1.13561 9.93245 1.06604 9.8958 0.984808C9.85235 0.888655 9.88802 0.77499 9.97817 0.720346L10.0343 0.697322L10.0315 0.698132L10.0344 0.697159C10.2486 0.618842 11.032 0.383729 12.0024 0.394917C13.4531 0.410159 14.6514 0.969729 15.4677 2.01266C15.8539 2.50623 15.8547 3.64337 15.4701 5.13237C15.078 6.65039 14.3403 8.28207 13.4462 9.60876C13.406 9.66859 13.3401 9.7007 13.2732 9.7007ZM13.3722 11.034C13.0408 11.034 12.7438 10.9875 12.5659 10.8808C12.383 10.7714 12.3481 10.6223 12.3436 10.5434C12.2936 9.66713 12.7772 9.51455 13.0238 9.44499C12.9894 9.39311 12.9404 9.33198 12.89 9.2689C12.7462 9.08924 12.5493 8.8431 12.3976 8.47503C12.3739 8.41763 12.2993 8.28386 12.213 8.12917C11.7456 7.29103 10.773 5.54682 11.3978 4.65355C11.687 4.24023 12.2627 4.0776 13.111 4.1684C12.8615 3.4081 11.6729 1.02956 8.8532 0.983349C8.00501 0.96908 7.3094 1.22997 6.7868 1.7576C5.61658 2.93949 5.65906 5.07789 5.65955 5.09913C5.66263 5.21425 5.57167 5.30992 5.4567 5.31284C5.34158 5.31641 5.24591 5.22512 5.24299 5.10999C5.2404 5.01514 5.19662 2.77118 6.49072 1.46428C7.09633 0.852658 7.89345 0.550741 8.86001 0.566469C10.6644 0.596142 11.8255 1.51325 12.482 2.27761C13.1974 3.11039 13.5483 4.02912 13.5772 4.33558C13.5988 4.56356 13.4351 4.60928 13.4021 4.61593L13.327 4.61771C12.4944 4.48443 11.9603 4.57685 11.7394 4.89255C11.2642 5.57162 12.1842 7.22147 12.5771 7.92616C12.6774 8.10582 12.7498 8.2357 12.7828 8.31596C12.9119 8.62891 13.0802 8.83921 13.2154 9.00817C13.3343 9.15686 13.4374 9.2856 13.4744 9.43705C13.4914 9.46704 13.7343 9.82604 15.175 9.52866C15.5361 9.45424 15.7526 9.51796 15.8187 9.71805C15.9489 10.1119 15.2184 10.5711 14.814 10.759C14.4512 10.9275 13.8728 11.034 13.3722 11.034ZM12.7592 10.509C12.8047 10.5552 13.0333 10.6347 13.507 10.6144C13.9279 10.5962 14.372 10.5046 14.6386 10.3811C14.9794 10.2228 15.2068 10.0459 15.3246 9.92511L15.2591 9.93711C14.338 10.1273 13.6865 10.102 13.3228 9.86171C13.2967 9.84469 13.2735 9.82685 13.2522 9.80934C13.2128 9.8249 13.1764 9.83512 13.1504 9.84242C12.944 9.9003 12.7306 9.96013 12.7592 10.509ZM6.80885 11.6731C6.58006 11.6731 6.33927 11.6421 6.09329 11.5803C5.83856 11.5166 5.40887 11.3248 5.41552 11.0097C5.42282 10.6561 5.93698 10.55 6.13075 10.5101C6.82993 10.3662 6.87549 10.3084 7.09407 10.031C7.15779 9.95008 7.23708 9.84939 7.34507 9.72859C7.50559 9.54909 7.68104 9.45796 7.86653 9.45796C7.9956 9.45796 8.10165 9.50191 8.17153 9.53077C8.39465 9.62319 8.58079 9.84663 8.65732 10.1142C8.7264 10.3554 8.69348 10.5876 8.56458 10.768C8.1417 11.3603 7.53462 11.6731 6.80885 11.6731ZM5.86564 11.0277C5.92855 11.0762 6.05438 11.1411 6.19431 11.1762C6.40737 11.2294 6.61395 11.2565 6.80885 11.2565C7.40263 11.2565 7.87918 11.0105 8.22553 10.5259C8.29768 10.4247 8.27612 10.2964 8.25682 10.2288C8.21628 10.0874 8.11575 9.95884 8.01214 9.91571C7.95588 9.89236 7.90934 9.87452 7.86653 9.87452C7.84351 9.87452 7.77362 9.87452 7.65574 10.0063C7.55618 10.1176 7.48468 10.2084 7.42128 10.2886C7.14919 10.6342 7.0245 10.7514 6.21474 10.9183C6.01725 10.9591 5.9159 11.0003 5.86564 11.0277ZM7.46798 10.0665C7.3668 10.0665 7.2781 9.99273 7.26221 9.88976C7.25686 9.85523 7.25346 9.82036 7.25183 9.78534C6.72096 9.77529 6.2089 9.54763 5.82024 9.14194C5.32877 8.62907 5.10501 7.91854 5.20651 7.19261C5.31677 6.40425 5.27559 5.70831 5.25337 5.3344C5.24721 5.23047 5.24283 5.15539 5.24316 5.10334C5.24348 5.03751 5.24478 4.86256 5.82932 4.56631C6.03719 4.46092 6.45407 4.27704 6.90938 4.22986C7.66401 4.15203 8.16132 4.488 8.31017 5.17615C8.71197 7.03435 8.34195 7.85628 8.07181 8.45638C8.02138 8.56794 7.97387 8.67366 7.93593 8.77581L7.90237 8.86613C7.75968 9.2488 7.63628 9.57941 7.67423 9.82653C7.69158 9.94035 7.61358 10.0466 7.49992 10.0642L7.46798 10.0665ZM5.66117 5.16091L5.66944 5.30976C5.69247 5.6981 5.73527 6.42095 5.61918 7.25049C5.53551 7.84914 5.71841 8.43368 6.12102 8.8538C6.43915 9.18588 6.85814 9.36911 7.28864 9.36911H7.29756C7.34588 9.16594 7.42582 8.95158 7.51192 8.72052L7.54532 8.63085C7.58829 8.5154 7.63856 8.40369 7.69174 8.28548C7.95182 7.70759 8.27547 6.9883 7.90269 5.26419C7.82875 4.92287 7.64974 4.72522 7.35545 4.66003C6.75096 4.52642 5.85023 4.98108 5.66117 5.16091ZM7.28686 5.44174L7.23367 5.43802C7.11612 5.42164 6.99726 5.34754 6.91603 5.23971C6.88749 5.20193 6.84079 5.12831 6.85003 5.06281C6.86333 4.96665 6.9804 4.90925 7.16346 4.90925C7.20449 4.90925 7.24697 4.91233 7.28994 4.91817C7.38982 4.93212 7.48273 4.96098 7.55132 4.99925C7.67017 5.06573 7.67893 5.13966 7.67358 5.17809C7.65882 5.28398 7.48987 5.44174 7.28686 5.44174ZM12.6826 4.92223C12.6928 4.996 12.5477 5.19269 12.3582 5.21895C12.1688 5.24522 12.0068 5.09167 11.9964 5.01789C11.9864 4.94428 12.1316 4.86304 12.321 4.83677C12.5104 4.81018 12.6722 4.84877 12.6826 4.92223ZM12.3145 5.25657C12.1321 5.25657 11.975 5.11469 11.962 5.02276C11.9471 4.91233 12.1289 4.82834 12.3163 4.8024C12.3575 4.79656 12.3984 4.79364 12.4378 4.79364C12.5994 4.79364 12.7065 4.84115 12.7172 4.91752C12.7241 4.96714 12.6862 5.04351 12.6207 5.11226C12.5776 5.15766 12.4868 5.2363 12.3632 5.25333L12.3145 5.25657ZM12.4376 4.86304C12.4015 4.86304 12.3638 4.8658 12.3257 4.87099C12.1373 4.89709 12.0253 4.97282 12.0306 5.01335C12.037 5.05778 12.1571 5.18717 12.3144 5.18717L12.3531 5.18442C12.4559 5.16999 12.5331 5.10302 12.5699 5.06427C12.6277 5.00346 12.6507 4.94639 12.6479 4.92677C12.6445 4.90131 12.5751 4.86304 12.4376 4.86304ZM12.9555 9.15232C12.9156 9.15232 12.8754 9.14097 12.8397 9.11713C12.7441 9.05292 12.7185 8.92369 12.7825 8.82802C13.2261 8.16533 13.1449 7.48934 13.0664 6.83589C13.0329 6.55732 12.9983 6.26951 13.0074 5.99304C13.0165 5.7088 13.0525 5.47434 13.0875 5.24733C13.1289 4.97865 13.1679 4.72457 13.1517 4.4233C13.1454 4.3085 13.2336 4.2104 13.3486 4.20391C13.4638 4.19775 13.5616 4.28596 13.5679 4.40092C13.5864 4.74532 13.5422 5.03265 13.4994 5.31073C13.4663 5.52525 13.4321 5.74707 13.4238 6.00634C13.4159 6.25102 13.4471 6.51094 13.4802 6.78594C13.5639 7.48107 13.6584 8.26894 13.1289 9.05973C13.0886 9.11973 13.0226 9.15232 12.9555 9.15232Z" fill="white"/>
<path d="M23.3912 7.07638H21.1296V5.008H23.5184C24.3924 5.008 24.8303 5.35759 24.8303 6.05821C24.8303 6.73699 24.3521 7.07638 23.3956 7.07638H23.3912ZM25.0241 4.98858C24.7133 4.7361 24.2793 4.60986 23.7209 4.60986L20.4756 4.62637V9.57882H21.1296L21.1238 7.47257H23.5383C24.1438 7.47257 24.6211 7.34634 24.9682 7.09386C25.3154 6.84138 25.4902 6.4918 25.4902 6.04365C25.4902 5.5955 25.3348 5.24591 25.0241 4.99344V4.98858ZM29.2565 8.53104C29.1916 8.69605 29.0846 8.84119 28.9462 8.952C28.6534 9.21127 28.2067 9.34043 27.6061 9.34043C27.0633 9.34043 26.6467 9.21419 26.3564 8.96171C26.066 8.70923 25.9204 8.37227 25.9204 7.94937C25.9204 7.72942 25.9582 7.53375 26.0345 7.36333C26.1089 7.19526 26.222 7.04719 26.3646 6.9312C26.6657 6.68261 27.0784 6.55831 27.6061 6.55831C28.7734 6.55831 29.357 7.022 29.357 7.94888C29.357 8.16931 29.323 8.36256 29.2574 8.52958L29.2565 8.53104ZM29.3759 6.70397C28.9778 6.37381 28.3874 6.20873 27.6061 6.20873C26.8681 6.20873 26.2971 6.37721 25.8951 6.71368C25.5319 7.0186 25.3504 7.42985 25.3504 7.94694C25.3504 8.46403 25.5378 8.87577 25.9136 9.19137C26.126 9.36433 26.3728 9.49027 26.6375 9.56086C26.9128 9.63708 27.2362 9.67496 27.6071 9.67496C28.384 9.67496 28.9763 9.51182 29.3827 9.18554C29.7459 8.88791 29.9275 8.47472 29.9275 7.94646C29.9275 7.4148 29.744 6.99966 29.3764 6.70203L29.3759 6.70397ZM34.3216 8.67379C34.3216 9.33994 33.6642 9.67253 32.3488 9.67253C31.9468 9.67253 31.6084 9.64923 31.3331 9.6031C31.0578 9.55697 30.8345 9.47977 30.6631 9.37296C30.5305 9.29139 30.4203 9.18505 30.3475 9.05396C30.2651 8.90068 30.2135 8.73277 30.1955 8.55969L30.8073 8.55483C30.8073 8.81702 30.9141 9.00978 31.1287 9.13407C31.3584 9.28313 31.7657 9.35742 32.3498 9.35742C33.2689 9.35742 33.7287 9.14864 33.7287 8.72622C33.7287 8.482 33.5748 8.31352 33.2665 8.22127C33.2034 8.2033 32.8324 8.15669 32.1512 8.07561L30.8782 7.87168C30.5155 7.74059 30.3344 7.5051 30.3344 7.16475C30.3344 6.83167 30.4965 6.58356 30.8209 6.42091C30.9811 6.35293 31.1811 6.30146 31.4215 6.26408C31.6618 6.22669 31.94 6.20824 32.2566 6.20824C33.5224 6.20824 34.1502 6.56851 34.1502 7.28953H33.5675C33.5675 6.78312 33.1228 6.52967 32.2323 6.52967C31.7798 6.52967 31.4419 6.58113 31.2195 6.68358C30.9971 6.78603 30.8859 6.94383 30.8859 7.15649C30.8859 7.35071 31.0316 7.49831 31.3365 7.58668C31.5123 7.6328 31.9162 7.68621 32.5484 7.74593C33.1145 7.79205 33.5025 7.8576 33.7137 7.94257C34.1157 8.08435 34.3167 8.32517 34.3167 8.66505L34.3216 8.67379ZM36.724 9.57591L36.4749 9.60747L36.3195 9.61815C35.9214 9.61815 35.634 9.56571 35.4577 9.46084C35.2815 9.35596 35.1936 9.17243 35.1936 8.90976V6.65202H34.4677V6.31992H35.1878L35.1936 5.2532H35.752V6.31992H36.723V6.65736L35.752 6.65251V8.84906C35.752 9.01269 35.7995 9.12582 35.8957 9.18797C35.9918 9.25011 36.1627 9.28119 36.4079 9.28119C36.4429 9.28459 36.4822 9.28362 36.5244 9.27779C36.5667 9.27196 36.6313 9.25837 36.7177 9.23797L36.7235 9.57688L36.724 9.57591ZM40.5825 8.82722C40.425 8.94313 40.2488 9.03116 40.0616 9.08746C39.8664 9.14767 39.6421 9.17777 39.3886 9.17777C38.2219 9.17777 37.6387 8.74079 37.6387 7.86683C37.6387 7.45995 37.7878 7.14095 38.0864 6.91129C38.385 6.68164 38.805 6.57142 39.3473 6.57142C39.8936 6.57142 40.3087 6.68795 40.5903 6.91907C40.8719 7.15018 41.0147 7.46141 41.0147 7.85129C41.0147 8.27613 40.8705 8.60387 40.5816 8.83353L40.5825 8.82722ZM41.5721 6.32817H41.0161L41.0103 6.88653C40.7646 6.65979 40.5888 6.51656 40.4835 6.45635C40.1713 6.30098 39.7673 6.22329 39.2716 6.22329C38.5452 6.22329 37.9912 6.36895 37.6086 6.67484C37.2455 6.95159 37.0639 7.35119 37.0639 7.87508C37.0639 8.13338 37.11 8.3645 37.2018 8.56794C37.2924 8.77002 37.4301 8.94748 37.6033 9.08552C37.9917 9.37587 38.5278 9.52104 39.2279 9.52104C40.0679 9.52104 40.6651 9.31226 41.0166 8.88985V9.47249C41.0166 9.84149 40.8884 10.126 40.6282 10.328C40.3679 10.53 39.9518 10.631 39.3658 10.631C38.8152 10.631 38.4229 10.562 38.1888 10.4246C38.0131 10.3188 37.8975 10.1352 37.8257 9.87451H37.2518C37.3149 10.2387 37.4848 10.5028 37.7616 10.6659C38.082 10.8533 38.6224 10.9475 39.3842 10.9475C40.8408 10.9475 41.5691 10.4562 41.5691 9.47346V6.31749L41.5721 6.32817ZM44.5906 6.65591C44.4357 6.63225 44.2793 6.61991 44.1226 6.619C43.2059 6.619 42.7475 7.07541 42.7475 7.98821V9.57494H42.196L42.1901 6.32817L42.7485 6.33303V6.91227H42.7776C42.8628 6.69385 43.0196 6.51084 43.2224 6.39323C43.4448 6.27913 43.7759 6.22184 44.2177 6.22184H44.5916V6.65639L44.5906 6.65591ZM45.1092 7.74059C45.1796 7.37158 45.3374 7.08609 45.5831 6.88362C45.7433 6.76709 45.9244 6.67872 46.1269 6.61997C46.3293 6.56123 46.558 6.53258 46.8066 6.53258C47.3018 6.53258 47.7068 6.6559 48.0204 6.90256C48.3341 7.14921 48.4914 7.42839 48.4914 7.74108H45.1024L45.1092 7.74059ZM48.5458 6.73942C48.3506 6.56171 48.1088 6.43013 47.8194 6.34517C47.53 6.2602 47.1882 6.21698 46.8061 6.21698C46.0778 6.21698 45.5228 6.36944 45.1242 6.67435C44.7256 6.97927 44.527 7.39392 44.527 7.91878C44.527 8.44364 44.7183 8.85975 45.1009 9.16806C45.5146 9.50793 46.0987 9.67787 46.8522 9.67787C47.1533 9.67787 47.431 9.6468 47.6874 9.58076C47.9437 9.51473 48.1666 9.4317 48.3574 9.31857C48.6934 9.10008 48.906 8.82964 48.9959 8.5087H48.3928C48.186 9.06367 47.6708 9.3414 46.8474 9.3414C46.2657 9.3414 45.8181 9.20544 45.5073 8.93355C45.2378 8.70049 45.1033 8.39946 45.1033 8.029H49.0847C49.0847 7.4784 48.907 7.04627 48.5516 6.73359L48.5458 6.73942Z" fill="white"/>
<path d="M54.9792 8.24293C54.9792 9.20672 54.1227 9.68885 52.4088 9.68885C51.3819 9.68885 50.6327 9.5228 50.1608 9.1907C49.7743 8.91783 49.5811 8.50124 49.5811 7.9419H50.2705C50.2705 8.8416 50.9828 9.29169 52.4083 9.29169C53.0915 9.29169 53.5857 9.19458 53.8907 9.01493C54.148 8.85228 54.2771 8.59737 54.2771 8.25022C54.2771 7.90694 54.1014 7.66612 53.7499 7.52823C53.5556 7.45394 53.0643 7.36023 52.2913 7.24662C51.3188 7.11212 50.689 6.97763 50.3992 6.84362C49.9816 6.64552 49.768 6.30954 49.768 5.83468C49.768 5.3977 49.9457 5.05783 50.3011 4.8471C50.6837 4.61016 51.3401 4.49121 52.2695 4.49121C53.9494 4.49121 54.7884 4.99714 54.7884 6.00948H54.0926C54.0926 5.25107 53.4692 4.87235 52.2224 4.87235C51.597 4.87235 51.1396 4.94858 50.8502 5.10056C50.5764 5.26369 50.44 5.50258 50.44 5.81817C50.44 6.14834 50.6157 6.37994 50.9673 6.51443C51.1547 6.59212 51.7053 6.70039 52.619 6.83877C53.4784 6.9553 54.0582 7.09222 54.3592 7.24807C54.7695 7.43937 54.9744 7.77099 54.9744 8.24245L54.9792 8.24293ZM60.5823 8.73478C60.318 8.92532 60.0224 9.06811 59.7088 9.15671C59.3845 9.25042 59.0208 9.30237 58.6183 9.30237C57.7929 9.30237 57.134 9.10184 56.6276 8.70031C56.1212 8.29877 55.8736 7.75837 55.8736 7.08979C55.8736 6.39305 56.1246 5.85022 56.6262 5.46082C57.1277 5.07142 57.7939 4.87721 58.6227 4.87721C59.4627 4.87721 60.1239 5.08113 60.6046 5.48752C60.8448 5.67137 61.0379 5.90968 61.1678 6.18281C61.2941 6.4484 61.3494 6.75089 61.3494 7.09076C61.3494 7.7841 61.0955 8.33227 60.5871 8.73527L60.5823 8.73478ZM60.9537 9.06349C61.313 8.83334 61.5791 8.55465 61.751 8.2274C61.9229 7.90015 62.0093 7.52192 62.0093 7.09368C62.0093 6.32556 61.7277 5.7099 61.1654 5.24573C60.8644 4.99083 60.5012 4.80147 60.0759 4.67765C59.6506 4.55384 59.1631 4.4917 58.6173 4.4917C57.555 4.4917 56.7213 4.72475 56.1159 5.19281C55.5104 5.66086 55.2079 6.29351 55.2079 7.09368C55.1985 7.45826 55.2769 7.81975 55.4363 8.14776C55.5957 8.47576 55.8316 8.76067 56.1241 8.97852C56.7344 9.45628 57.57 9.69517 58.628 9.69517C58.9904 9.69902 59.3525 9.67352 59.7108 9.61894C60.0186 9.56796 60.2808 9.49027 60.4959 9.38491L61.5155 10.0258L61.9408 9.67138L60.9542 9.06446L60.9537 9.06349ZM67.1705 9.56844H62.4574V4.61599L63.1051 4.60531V9.15477H67.1763L67.1705 9.56844Z" fill="#367FAF"/>
</g>
</g>
<defs>
<clipPath id="clip0">
<rect width="66.4265" height="16" fill="white" transform="translate(0.749512)"/>
</clipPath>
<clipPath id="clip1">
<rect width="66.4265" height="16" fill="white" transform="translate(0.749512)"/>
</clipPath>
</defs>
</svg>
