<svg width="32" height="32" viewBox="0 0 32 32" fill="none" xmlns="http://www.w3.org/2000/svg">
<path d="M5 13.3333V6C5 5.73478 5.10536 5.48043 5.29289 5.29289C5.48043 5.10536 5.73478 5 6 5H26C26.2652 5 26.5196 5.10536 26.7071 5.29289C26.8946 5.48043 27 5.73478 27 6V13.3333C27 23.8353 18.0868 27.3146 16.307 27.9047C16.1081 27.9731 15.8919 27.9731 15.693 27.9047C13.9132 27.3146 5 23.8353 5 13.3333Z" fill="#9CA7B7"/>
<path fill-rule="evenodd" clip-rule="evenodd" d="M26.0002 5H25.0003C25.3051 10.1823 23.2124 21.1074 19.1812 26.6087C22.4299 24.7727 27.0002 20.8534 27.0002 13.3333V6C27.0002 5.73478 26.8949 5.48043 26.7073 5.29289C26.5198 5.10536 26.2654 5 26.0002 5Z" fill="#21324B"/>
<path fill-rule="evenodd" clip-rule="evenodd" d="M6 5C5.73478 5 5.48043 5.10536 5.29289 5.29289C5.10536 5.48043 5 5.73478 5 6V13.3333C5 20.8535 9.5704 24.7728 12.8192 26.6087C8.78786 21.1075 6.69516 10.1823 7 5H6Z" fill="#C2CAD6"/>
</svg>
