<svg width="32" height="32" viewBox="0 0 32 32" fill="none" xmlns="http://www.w3.org/2000/svg">
<path d="M8.99939 20.8752C6.8708 22.1037 5.10299 23.8708 3.87354 25.9988C5.58215 27.3326 10.3995 30 16.0001 30C21.6006 30 26.4179 27.3327 28.1264 25.9991C26.897 23.871 25.1292 22.1039 23.0007 20.8754C20.8721 19.6468 18.4577 19 16.0001 19C13.5424 19 11.128 19.6467 8.99939 20.8752Z" fill="#0D3777"/>
<circle cx="16" cy="12" r="9" fill="#3787FF"/>
<path fill-rule="evenodd" clip-rule="evenodd" d="M20.8831 4.4387C18.9474 6.63876 14.4517 10.623 7.05762 10.975C7.5664 6.48709 11.3759 3 15.9999 3C17.8 3 19.4766 3.52846 20.8831 4.4387Z" fill="#0052CD"/>
</svg>
