<svg width="32" height="32" viewBox="0 0 32 32" fill="none" xmlns="http://www.w3.org/2000/svg">
<path fill-rule="evenodd" clip-rule="evenodd" d="M8.75018 12C8.75018 7.99594 11.9961 4.75 16.0002 4.75C20.0042 4.75 23.2502 7.99594 23.2502 12C23.2502 16.0041 20.0043 19.25 16.0002 19.25C16.0002 19.25 16.0002 19.25 16.0002 19.25C11.9961 19.25 8.75018 16.0041 8.75018 12ZM19.9771 19.7961C22.8104 18.3479 24.7502 15.4005 24.7502 12C24.7502 7.16751 20.8327 3.25 16.0002 3.25C11.1677 3.25 7.25018 7.16751 7.25018 12C7.25018 15.4004 9.18989 18.3478 12.0232 19.7961C10.8401 20.1272 9.69789 20.6062 8.62467 21.2256C6.38209 22.52 4.5196 24.3816 3.22431 26.6236L2.84912 27.2731L4.14794 28.0234L4.52313 27.374C5.68674 25.3599 7.35988 23.6875 9.37448 22.5248C11.3891 21.3621 13.6741 20.75 16.0002 20.75C16.0002 20.75 16.0002 20.75 16.0002 20.75C18.3263 20.75 20.6114 21.3622 22.6259 22.5249C24.6405 23.6877 26.3136 25.3601 27.4772 27.3743L27.8524 28.0237L29.1512 27.2733L28.776 26.6239C27.4808 24.3819 25.6183 22.5202 23.3758 21.2258C22.3025 20.6063 21.1603 20.1273 19.9771 19.7961Z" fill="black"/>
</svg>
