<svg width="620" height="34" viewBox="0 0 620 34" fill="none" xmlns="http://www.w3.org/2000/svg">
<g clip-path="url(#clip0)">
<g clip-path="url(#clip1)">
<path fill-rule="evenodd" clip-rule="evenodd" d="M3.80023 33.5C4.01291 33.5 4.28042 33.2984 4.62124 33.0415C4.71501 32.9708 4.81433 32.8959 4.91958 32.8199C5.60317 32.3264 6.23767 31.797 6.82134 31.228C7.4033 30.6607 7.81365 30.1769 8.04726 29.7737C8.28032 29.3715 8.08012 29.2619 7.44716 29.4454C6.81284 29.6293 6.58773 29.1613 6.77133 28.0458C6.9549 26.9305 7.47216 25.439 8.32231 23.5727C9.17235 21.7066 10.3241 19.5945 11.775 17.2348C13.226 14.8751 14.9356 12.5066 16.9045 10.1284C17.0787 9.91794 17.1374 9.67122 17.1045 9.41449C17.0718 9.15919 16.9795 8.89297 16.8295 8.61934C16.6791 8.34515 16.4794 8.08012 16.2294 7.82338C15.98 7.56731 15.7207 7.34855 15.4542 7.16505C14.4186 6.45193 16.5204 6.74919 18.384 7.01277C19.1394 7.1196 19.8556 7.22091 20.3079 7.24714C21.8754 7.33804 23.2934 7.47651 24.5615 7.6592C24.8935 7.70703 25.1866 7.47651 25.4374 7.00087C25.6878 6.52579 25.8796 5.95864 26.0132 5.2995C26.1466 4.64133 26.2046 3.99169 26.1882 3.35186C26.1718 2.71201 26.0461 2.24606 25.8132 1.9523C25.6255 1.71557 25.0116 1.59658 24.0107 1.54105C23.0098 1.48552 21.7667 1.48632 20.2829 1.54105C18.7977 1.59582 17.1881 1.72454 15.4542 1.92574C13.719 2.12711 12.0265 2.37402 10.3748 2.66617C8.723 2.95833 7.21355 3.3068 5.84546 3.7092C4.47736 4.1116 3.44362 4.55103 2.74278 5.02587C2.55101 5.1558 2.39272 5.42827 2.29271 5.90391C2.19269 6.37956 2.18412 6.8552 2.2677 7.33084C2.35126 7.8063 2.53418 8.19037 2.8178 8.48333C3.101 8.77584 3.52649 8.81249 4.09444 8.59358C5.12911 8.19479 6.42913 7.87972 7.99725 7.66081C9.56474 7.44199 11.25 7.29543 13.0517 7.22219C13.545 7.20214 12.9849 7.71223 12.2461 8.3851C11.6913 8.89031 11.0359 9.48728 10.6498 10.0205C9.74905 11.2648 8.81453 12.6732 7.84723 14.2458C6.8796 15.8189 5.94619 17.4755 5.04532 19.2122C4.14415 20.9496 3.32645 22.6061 2.59347 24.1787C1.86013 25.7521 1.27539 27.1605 0.841743 28.404C0.408224 29.647 0.190918 30.5616 0.190918 31.1467C0.190918 31.2562 0.298794 31.4485 0.515974 31.723C0.732806 31.997 1.00749 32.2719 1.34183 32.5455C1.67548 32.8186 2.04195 33.0582 2.44273 33.2594C2.66302 33.37 2.87326 33.4501 3.07349 33.5H3.80023ZM24.1824 12.1418C23.3556 12.4649 22.487 13.0028 21.5773 13.7573C20.667 14.5117 19.7736 15.4004 18.8979 16.4234C18.0208 17.4472 17.1933 18.5697 16.4168 19.7903C15.6389 21.0115 14.9942 22.2415 14.4812 23.4802C13.9676 24.7181 13.5956 25.9402 13.3647 27.1425C13.133 28.3456 13.133 29.4508 13.3647 30.4548C13.4639 30.8506 13.6948 31.2093 14.059 31.5324C14.4224 31.8555 14.8362 32.1335 15.2995 32.3674C15.7622 32.6012 16.2425 32.771 16.7384 32.8785C17.2351 32.9867 17.6318 33.0222 17.9294 32.9867C18.3587 32.9504 18.8887 32.771 19.5178 32.4479C20.1455 32.124 20.7909 31.7117 21.4534 31.2093C22.1144 30.7061 22.7683 30.1404 23.4137 29.5124C24.0591 28.8844 24.6458 28.2295 25.1757 27.547C25.5058 27.1164 25.6135 26.8463 25.4981 26.7396C25.3819 26.6314 25.1091 26.7578 24.6791 27.1172C24.0166 27.6204 23.3641 28.1047 22.7187 28.5708C22.074 29.0384 21.4697 29.4429 20.9071 29.7834C20.3446 30.1246 19.8402 30.394 19.3938 30.5907C18.9475 30.7882 18.5911 30.887 18.3268 30.887C17.466 30.8151 17.1359 30.1784 17.3343 28.9744C17.5326 27.7721 18.0449 26.3083 18.8724 24.5846C19.335 24.9796 19.8565 25.3485 20.436 25.6882C21.0141 26.0302 21.5688 26.129 22.0988 25.9844C22.9256 25.7695 23.802 25.1952 24.7287 24.2607C25.6546 23.3269 26.5232 22.2945 27.3344 21.1632C28.1449 20.032 28.8144 18.9284 29.3444 17.8509C29.8729 16.7741 30.1549 15.966 30.1875 15.4273C30.2201 14.9967 30.0217 14.548 29.5923 14.0804C29.1623 13.6143 28.6324 13.2098 28.0039 12.8685C27.3755 12.5281 26.7053 12.2761 25.994 12.1149C25.2827 11.953 24.6791 11.9624 24.1824 12.1418ZM22.5703 18.5025C21.8954 19.2608 21.2628 20.0275 20.6703 20.8032C20.0779 21.5789 19.584 22.3115 19.1909 23C19.5854 22.9659 20.1194 22.6982 20.7943 22.1985C21.4685 21.6988 22.1836 21.0701 22.9409 20.3111C23.6968 19.5535 24.4372 18.7171 25.1614 17.8034C25.8842 16.8904 26.4767 16.0198 26.9375 15.1925C27.1347 14.8141 27.2164 14.5904 27.184 14.5207C27.1516 14.4517 26.9205 14.5555 26.4936 14.8308C25.9336 15.2448 25.3087 15.7703 24.6183 16.4081C23.9272 17.0466 23.2438 17.745 22.5703 18.5025ZM43.2451 12.7321C42.9802 12.7305 42.5829 13.0198 42.0545 13.5976C41.8562 13.3807 41.6154 13.1367 41.3349 12.8664C41.0537 12.5954 40.7718 12.3522 40.4914 12.1344C40.2102 11.9183 39.9205 11.7466 39.6231 11.6202C39.3256 11.4938 39.0444 11.4676 38.7802 11.5391C37.7214 11.7553 36.6385 12.3069 35.5308 13.1923C34.4223 14.0777 33.3479 15.1348 32.3061 16.3619C31.2642 17.5907 30.2798 18.9187 29.3541 20.3454C28.4277 21.7728 27.6181 23.1454 26.9233 24.464C26.2292 25.7833 25.6832 26.9755 25.2859 28.0413C24.8892 29.1071 24.6909 29.8932 24.6909 30.3979C24.6909 30.6514 24.7738 30.932 24.9388 31.2388C25.1038 31.5455 25.3269 31.8261 25.6088 32.0788C25.8893 32.3316 26.1868 32.5486 26.5019 32.729C26.8157 32.9102 27.1216 33 27.4198 33C27.5516 33 27.8079 32.8371 28.1883 32.5128C28.5686 32.1869 29.0148 31.7538 29.5283 31.2117C30.0404 30.6697 30.6197 30.0378 31.2642 29.3146C31.9095 28.5929 32.5625 27.8339 33.224 27.0391C32.8599 27.7623 32.5788 28.4125 32.3804 28.9895C32.1821 29.5681 32.083 30.0378 32.083 30.3979C32.083 30.6514 32.1651 30.932 32.3309 31.2388C32.4959 31.5455 32.719 31.8261 33.0002 32.0788C33.2806 32.3316 33.5788 32.5486 33.8933 32.729C34.207 32.9102 34.513 33 34.8112 33C35.0754 33 35.3891 32.884 35.7539 32.6479C36.1172 32.4134 36.4982 32.1154 36.8949 31.7538C37.2922 31.3937 37.6718 30.9868 38.0359 30.5346C38.3992 30.0839 38.7299 29.6587 39.0281 29.2605C39.259 28.9362 39.3171 28.755 39.2016 28.7185C39.0855 28.6827 38.912 28.7018 38.6811 28.7725C38.4495 28.8456 38.2172 28.9355 37.9863 29.0435C37.7547 29.1524 37.6222 29.189 37.5897 29.1524C37.4572 29.0086 37.5401 28.5929 37.8375 27.9062C38.135 27.2203 38.5649 26.3985 39.1273 25.44C39.6889 24.4838 40.3256 23.4443 41.0374 22.3244C41.7478 21.2053 42.4341 20.1483 43.0963 19.154C43.7579 18.1605 44.3613 17.2847 44.9073 16.5256C45.4534 15.7666 45.8415 15.2436 46.0731 14.9535C46.2382 14.7374 46.2297 14.5021 46.0483 14.2494C45.8663 13.9966 45.6014 13.7614 45.2544 13.5452C44.9073 13.3282 44.5433 13.1383 44.163 12.9761C43.7826 12.8132 43.476 12.7321 43.2451 12.7321ZM60.049 18.0388C59.2547 19.1898 58.4619 20.393 57.669 21.6507C56.8761 22.9092 56.166 24.1029 55.5386 25.235C54.9105 26.367 54.3992 27.3915 54.0031 28.307C53.6063 29.224 53.409 29.9157 53.409 30.3821C53.409 30.6343 53.491 30.9133 53.6565 31.2185C53.8213 31.5236 54.0441 31.8027 54.3249 32.054C54.605 32.3054 54.9021 32.5212 55.2168 32.7007C55.5301 32.8809 55.8364 32.9703 56.1335 32.9703C56.398 32.9703 56.7106 32.8548 57.0749 32.6201C57.4377 32.3869 57.8182 32.0904 58.2143 31.7307C58.6111 31.3726 58.9902 30.9679 59.3538 30.5181C59.7166 30.0698 60.0469 29.6469 60.3447 29.2508C60.5753 28.9283 60.6333 28.7481 60.518 28.7117C60.402 28.6761 60.2287 28.6951 59.9981 28.7655C59.7661 28.8382 59.5355 28.9275 59.305 29.035C59.073 29.1433 58.9407 29.1797 58.9082 29.1433C58.7759 29.0002 58.8834 28.5686 59.23 27.8492C59.5766 27.1307 60.0476 26.2595 60.6425 25.235C61.2366 24.2105 61.922 23.1148 62.6986 21.9472C63.4745 20.7796 64.2171 19.6649 64.928 18.6048C65.6374 17.5455 66.2817 16.6103 66.8596 15.8024C67.4367 14.9937 67.842 14.4641 68.0733 14.2119C68.2381 14.0324 68.2296 13.8166 68.0485 13.5652C67.8668 13.3139 67.61 13.0712 67.2811 12.8372C66.9501 12.604 66.5951 12.4063 66.2159 12.2443C65.8361 12.0822 65.5299 12.0016 65.2993 12.0016H65.2498C64.853 12.0016 64.0933 12.5051 62.9709 13.5107C61.8477 14.517 60.5838 15.8111 59.1812 17.3914C57.7772 18.9732 56.3322 20.725 54.8462 22.6468C53.3594 24.5694 52.0219 26.4287 50.833 28.2255C51.8239 26.465 52.8474 24.8207 53.9048 23.2934C54.9615 21.7669 55.9524 20.3922 56.8775 19.1701C57.802 17.9487 58.6281 16.9155 59.3545 16.0712C60.0802 15.2277 60.6255 14.6072 60.9897 14.2111C61.1878 14.0316 61.1878 13.8158 60.9897 13.5644C60.7917 13.3131 60.5102 13.0704 60.1474 12.8364C59.7838 12.6032 59.404 12.4055 59.0079 12.2435C58.6111 12.0814 58.2971 12.0008 58.0665 12.0008C57.6697 12.0008 56.9101 12.5044 55.7876 13.5099C54.6644 14.5162 53.4012 15.8103 51.9979 17.3906C50.5939 18.9724 49.1489 20.7242 47.6629 22.646C46.1762 24.5686 44.8387 26.4279 43.6497 28.2247C44.6406 26.4642 45.6641 24.8199 46.7215 23.2927C47.7782 21.7661 48.7691 20.3914 49.6942 19.1693C50.6187 17.9479 51.4448 16.9147 52.1712 16.0704C52.8969 15.2269 53.4422 14.6064 53.8065 14.2103C54.0045 14.0309 54.0045 13.815 53.8065 13.5637C53.6084 13.3123 53.3269 13.0696 52.9641 12.8356C52.6005 12.6024 52.2214 12.4047 51.8246 12.2427C51.4278 12.0806 51.1138 12 50.8832 12C50.6187 12 50.1476 12.3692 49.4714 13.1052C48.7939 13.8419 48.0173 14.7945 47.143 15.9621C46.2674 17.1305 45.367 18.4238 44.4426 19.8428C43.5174 21.2626 42.6666 22.646 41.8914 23.9931C41.1148 25.3401 40.4704 26.5631 39.959 27.6587C39.447 28.7552 39.1909 29.5726 39.1909 30.1117C39.1909 30.3631 39.3147 30.6959 39.5622 31.1086C39.8098 31.5212 40.0984 31.8999 40.4294 32.2414C40.759 32.5829 41.0808 32.8161 41.3956 32.9418C41.7089 33.0675 41.9317 32.9869 42.0647 32.6991C42.1304 32.556 42.1962 32.4485 42.2627 32.3758C42.8243 31.371 43.5259 30.2382 44.3683 28.9797C45.2107 27.722 46.1097 26.4382 47.0681 25.1259C48.0257 23.8152 49.0082 22.548 50.0161 21.3258C51.0233 20.1045 51.9731 19.008 52.865 18.038C52.0722 19.1882 51.2871 20.374 50.5112 21.5954C49.7346 22.8175 49.0414 23.9852 48.431 25.099C47.8192 26.2136 47.3241 27.2105 46.9443 28.0911C46.5638 28.971 46.3742 29.6453 46.3742 30.1125C46.3742 30.3639 46.498 30.6967 46.7455 31.1094C46.9931 31.522 47.2739 31.9007 47.5879 32.2422C47.9013 32.5837 48.2146 32.8169 48.5293 32.9426C48.8427 33.0683 49.0824 32.9877 49.2479 32.6999L49.6447 31.9457C50.2389 30.9402 50.949 29.8256 51.7751 28.6026C52.6005 27.3812 53.4846 26.1425 54.426 24.884C55.3675 23.6263 56.3251 22.4049 57.2998 21.2191C58.273 20.0325 59.1897 18.9732 60.049 18.0388ZM73.4382 7.23503V7.23665C72.9119 7.23665 72.492 7.37361 72.1805 7.64834C71.867 7.92307 71.5788 8.26225 71.3159 8.66508C71.0524 9.10416 70.8629 9.51666 70.748 9.90096C70.6325 10.2853 70.8051 10.4778 71.2659 10.4778H72.8457C71.595 12.3091 70.3112 14.2676 68.9957 16.3551C67.6794 18.4426 66.4788 20.439 65.393 22.3427C64.3072 24.2473 63.4186 25.932 62.7274 27.3958C62.0369 28.8605 61.6909 29.8507 61.6909 30.3623C61.6909 30.6193 61.7734 30.9037 61.9375 31.2147C62.1024 31.5256 62.3237 31.81 62.6041 32.0662C62.8831 32.3224 63.1791 32.5424 63.4926 32.7253C63.8048 32.909 64.1092 33 64.4058 33C64.6686 33 64.9808 32.8824 65.3436 32.6431C65.7051 32.4054 66.0842 32.1033 66.4788 31.7367C66.8734 31.3718 67.2517 30.9593 67.6139 30.5008C67.9754 30.044 68.3051 29.613 68.6011 29.2094C68.8308 28.8807 68.8886 28.697 68.7737 28.6599C68.6581 28.6237 68.4855 28.643 68.2558 28.7147C68.0254 28.7888 67.795 28.8799 67.5653 28.9894C67.3349 29.0998 67.2024 29.1369 67.17 29.0998C67.0051 28.954 67.2024 28.303 67.7619 27.1493C68.3213 25.9956 69.1028 24.5406 70.1068 22.7826C71.1102 21.0247 72.3024 19.0734 73.6849 16.9319C75.0673 14.7889 76.5146 12.6386 78.0281 10.477H79.8044C80.2977 10.477 80.7176 10.3038 81.0629 9.95494C81.4081 9.60689 81.7287 9.23226 82.0254 8.82943C82.2882 8.4266 82.4939 8.06003 82.6426 7.73051C82.7899 7.401 82.6003 7.23584 82.074 7.23584H80.3963L81.5808 5.75262C81.7449 5.53268 81.7372 5.29501 81.5568 5.038C81.375 4.78261 81.1122 4.54413 80.7669 4.32419C80.4217 4.10505 80.0588 3.9125 79.6811 3.74734C79.3027 3.58218 78.9977 3.5 78.768 3.5C78.5044 3.5 78.0521 3.83918 77.4102 4.51594C76.769 5.1943 76.02 6.10067 75.1646 7.23503H73.4382ZM87.2458 12.7321C86.9795 12.7305 86.5829 13.0198 86.0545 13.5976C85.8569 13.3807 85.6161 13.1367 85.3349 12.8664C85.0537 12.5962 84.7719 12.3522 84.4921 12.1344C84.2109 11.9183 83.9212 11.7466 83.6238 11.6202C83.3263 11.4938 83.0444 11.4676 82.7802 11.5391C81.7221 11.7553 80.6392 12.3069 79.5308 13.1923C78.423 14.0777 77.3479 15.1348 76.3061 16.3619C75.2642 17.5907 74.2798 18.9187 73.3541 20.3454C72.4277 21.7728 71.6181 23.1454 70.9233 24.464C70.2292 25.7833 69.6825 26.9755 69.2859 28.0413C68.8892 29.1071 68.6909 29.8932 68.6909 30.3979C68.6909 30.6514 68.7738 30.932 68.9388 31.2388C69.1038 31.5455 69.3276 31.8261 69.6088 32.0788C69.8893 32.3316 70.1868 32.5486 70.5019 32.729C70.8157 32.9102 71.1217 33 71.4198 33C71.5523 33 71.8079 32.8371 72.1883 32.5128C72.5686 32.1869 73.0155 31.7538 73.5283 31.2117C74.0411 30.6697 74.6197 30.0378 75.2649 29.3146C75.9094 28.5929 76.5625 27.8339 77.2247 27.0391C76.8599 27.7623 76.5795 28.4125 76.3819 28.9895C76.1828 29.5681 76.0837 30.0378 76.0837 30.3979C76.0837 30.6514 76.1658 30.932 76.3323 31.2388C76.4966 31.5455 76.7211 31.8261 77.0016 32.0788C77.2821 32.3316 77.5795 32.5486 77.8947 32.729C78.2085 32.9102 78.5151 33 78.8126 33C79.0768 33 79.3905 32.884 79.7553 32.6479C80.1186 32.4134 80.4997 32.1154 80.8963 31.7538C81.2929 31.3937 81.6732 30.9868 82.0366 30.5346C82.4006 30.0839 82.7307 29.6587 83.0288 29.2605C83.2597 28.9362 83.3178 28.755 83.2024 28.7185C83.0862 28.6827 82.9127 28.7018 82.6818 28.7725C82.4502 28.8456 82.2179 28.9355 81.987 29.0435C81.7561 29.1524 81.6229 29.189 81.5904 29.1524C81.4572 29.0086 81.5408 28.5929 81.839 27.9062C82.1364 27.2203 82.5656 26.3985 83.128 25.44C83.6903 24.4838 84.3264 23.4443 85.0382 22.3244C85.7492 21.2053 86.4355 20.1483 87.0963 19.154C87.7579 18.1605 88.362 17.2847 88.9073 16.5256C89.4534 15.7666 89.8415 15.2436 90.0731 14.9535C90.2382 14.7374 90.2297 14.5021 90.0483 14.2494C89.8663 13.9966 89.6021 13.7614 89.2544 13.5452C88.9073 13.3282 88.5433 13.1383 88.163 12.9761C87.7826 12.814 87.4767 12.7321 87.2458 12.7321ZM74.2456 28.995C74.1138 28.8528 74.2204 28.3853 74.564 27.5955C74.9077 26.8065 75.4063 25.8643 76.0627 24.7681C76.7177 23.6735 77.4702 22.5157 78.3223 21.2955C79.1737 20.0753 80.0489 18.953 80.9501 17.9295C81.8506 16.9067 82.7181 16.064 83.554 15.399C84.3893 14.7348 85.1018 14.4387 85.6909 14.5105C84.9048 15.4448 84.012 16.62 83.014 18.0377C82.0147 19.4561 81.0567 20.9369 80.1401 22.4801C79.4528 23.3062 78.7641 24.1142 78.0769 24.9032C77.3896 25.6937 76.7675 26.4022 76.2107 27.03C75.6531 27.6587 75.1952 28.1523 74.8347 28.5109C74.4743 28.8702 74.2779 29.0313 74.2456 28.995ZM95.2062 12C94.9378 12 94.4519 12.3777 93.7485 13.1338C93.0452 13.8899 92.2485 14.8613 91.3607 16.0489C90.4729 17.2365 89.5513 18.5508 88.5953 19.9902C87.6393 21.4296 86.7601 22.8333 85.9556 24.2006C85.151 25.568 84.4893 26.8102 83.9696 27.925C83.45 29.0405 83.1909 29.8679 83.1909 30.4079C83.1909 30.6604 83.2749 30.9399 83.4421 31.2455C83.6101 31.5511 83.8361 31.8306 84.1204 32.0824C84.4046 32.3342 84.706 32.5503 85.0261 32.73C85.3441 32.9105 85.6541 33 85.9556 33C86.2233 33 86.5412 32.8844 86.9108 32.6493C87.2797 32.4157 87.6652 32.1188 88.0671 31.7586C88.469 31.3999 88.8544 30.9945 89.2226 30.544C89.5915 30.0951 89.9267 29.6715 90.2281 29.2749C90.4621 28.9519 90.5209 28.7713 90.404 28.7349C90.2862 28.6993 90.1104 28.7183 89.8764 28.7888C89.6417 28.8616 89.4071 28.9511 89.1731 29.0587C88.9384 29.1672 88.8035 29.2036 88.7704 29.1672C88.6362 29.0239 88.7453 28.5916 89.097 27.8711C89.4487 27.1514 89.9267 26.279 90.5303 25.2529C91.1332 24.2268 91.8286 23.1294 92.616 21.96C93.4033 20.7906 94.1662 19.6743 94.904 18.6126C95.6404 17.5517 96.3029 16.615 96.8899 15.8059C97.4756 14.9959 97.8703 14.4655 98.0713 14.2129C98.2385 13.9975 98.2306 13.7632 98.0462 13.5114C97.8617 13.2604 97.6019 13.0253 97.2675 12.8099C96.9316 12.5938 96.5634 12.4046 96.1615 12.2431C95.7588 12.0808 95.4402 12 95.2062 12ZM98.6991 10.9603C98.9606 10.9242 99.3391 10.724 99.8339 10.3597C100.327 9.99613 100.821 9.57733 101.315 9.10408C101.808 8.63162 102.244 8.14876 102.623 7.65709C103.001 7.16542 103.191 6.77465 103.191 6.48317C103.191 6.11962 103.084 5.81053 102.87 5.55508C102.655 5.30124 102.384 5.09064 102.055 4.92728C101.726 4.76313 101.372 4.64541 100.994 4.57254C100.616 4.49967 100.261 4.48206 99.9326 4.51809C99.7021 4.55493 99.4216 4.72789 99.0938 5.03619C98.764 5.34608 98.4095 5.70162 98.0324 6.10121C97.6532 6.50159 97.2832 6.9292 96.9216 7.38403C96.5586 7.83967 96.2309 8.24966 95.9341 8.61241C95.6705 8.93992 95.6212 9.25943 95.7861 9.56772C95.9497 9.87762 96.2132 10.1411 96.5762 10.3597C96.9378 10.5775 97.324 10.7513 97.7364 10.8778C98.1473 11.0059 98.468 11.0331 98.6991 10.9603ZM112.267 0.148187C111.898 0.0500332 111.612 0.000881987 111.406 0L111.395 0C111.338 0.000246306 111.288 0.00425668 111.243 0.0120151C110.937 0.084907 110.417 0.522258 109.683 1.32247C108.949 2.12348 108.08 3.16159 107.075 4.43519C106.068 5.7104 104.977 7.16583 103.801 8.8047C102.625 10.4428 101.448 12.1361 100.271 13.8839C99.0952 15.6317 97.9603 17.3715 96.8699 19.1001C95.7774 20.8295 94.8148 22.4411 93.9793 23.9334C93.1423 25.4265 92.4704 26.7465 91.9585 27.8928C91.4465 29.0398 91.1909 29.8689 91.1909 30.3775C91.1909 30.633 91.2764 30.9158 91.4465 31.225C91.6174 31.5342 91.8387 31.8169 92.1119 32.0716C92.3843 32.3264 92.6917 32.545 93.0328 32.7269C93.3739 32.9087 93.6974 33 94.0049 33C94.2773 33 94.6008 32.8831 94.9769 32.6452C95.3516 32.4089 95.735 32.1085 96.1279 31.744C96.5186 31.3812 96.9115 30.971 97.3037 30.5153C97.6952 30.0611 98.0275 29.6326 98.3013 29.2312C98.5394 28.9044 98.6081 28.7218 98.5051 28.685C98.4029 28.6489 98.2327 28.6681 97.9946 28.7394C97.7551 28.8131 97.5082 28.9036 97.2526 29.0126C96.9963 29.1223 96.8509 29.1592 96.8173 29.1223C96.7143 29.0126 96.8757 28.5216 97.303 27.6477C97.7288 26.773 98.3525 25.6355 99.1704 24.2337C99.9891 22.832 100.978 21.2396 102.137 19.4541C103.296 17.6703 104.55 15.8143 105.897 13.8839C107.244 11.9543 108.651 10.0254 110.117 8.0942C111.583 6.16457 113.033 4.34468 114.466 2.63292C114.738 2.30531 114.764 1.97769 114.542 1.65008C114.32 1.32247 114.006 1.02209 113.596 0.748944C113.187 0.476601 112.743 0.276348 112.267 0.148187ZM118.157 16.2826C118.057 15.7469 117.759 15.2026 117.268 14.6488C116.776 14.0951 116.208 13.6136 115.564 13.2028C114.919 12.7927 114.249 12.4715 113.555 12.2382C112.859 12.0065 112.239 11.9436 111.698 12.0505C110.952 12.2296 110.129 12.6757 109.231 13.3897C108.333 14.1037 107.433 14.9882 106.535 16.0407C105.636 17.094 104.78 18.2628 103.967 19.5487C103.153 20.8345 102.448 22.1015 101.855 23.3512C101.262 24.6017 100.812 25.7799 100.508 26.8866C100.203 27.9926 100.118 28.921 100.253 29.6712C100.321 30.0286 100.61 30.4119 101.117 30.8227C101.626 31.2335 102.193 31.609 102.822 31.9483C103.449 32.2876 104.076 32.5547 104.705 32.7503C105.331 32.9466 105.798 33.0268 106.103 32.9922C106.815 32.8846 107.62 32.4926 108.519 31.8132C109.417 31.1361 110.332 30.2878 111.266 29.2698C112.198 28.2526 113.105 27.1191 113.987 25.8687C114.868 24.6197 115.631 23.3975 116.276 22.2005C116.92 21.005 117.42 19.8801 117.776 18.826C118.132 17.7735 118.259 16.9252 118.157 16.2826ZM135.786 14.99C136.018 14.6658 136.153 14.4232 136.191 14.2615V14.1052C136.051 13.6137 135.78 13.2087 135.376 12.8909C134.966 12.568 134.52 12.3352 134.042 12.1915C133.563 12.0486 133.101 11.9854 132.656 12.0028C132.211 12.021 131.886 12.0841 131.681 12.1915C131.065 12.5507 130.2 13.2501 129.089 14.2906C127.976 15.3319 126.761 16.5697 125.444 18.0049C124.127 19.4401 122.783 20.9921 121.415 22.661C120.047 24.3291 118.798 25.9711 117.668 27.5855C118.695 25.8985 119.722 24.3291 120.748 22.8757C121.774 21.4224 122.75 20.1127 123.673 18.9459C124.598 17.7799 125.427 16.8018 126.163 16.0124C126.898 15.2229 127.454 14.6309 127.83 14.2361C128.035 14.0569 128.035 13.8414 127.83 13.5904C127.626 13.3393 127.333 13.097 126.958 12.8633C126.581 12.6304 126.188 12.4331 125.778 12.2712C125.367 12.1094 125.041 12.0289 124.803 12.0289C124.529 12.0297 124.033 12.3983 123.315 13.1333C122.597 13.869 121.792 14.8203 120.903 15.9863C120.013 17.1531 119.081 18.4446 118.106 19.8617C117.131 21.2795 116.24 22.661 115.437 24.0062C114.632 25.3514 113.974 26.5727 113.461 27.6669C112.948 28.7618 112.691 29.5781 112.691 30.1165C112.691 30.3675 112.819 30.6999 113.076 31.112C113.333 31.524 113.622 31.9022 113.948 32.2432C114.272 32.5843 114.598 32.8172 114.923 32.9427C115.247 33.0682 115.495 32.9877 115.667 32.7003L115.873 32.2693C116.522 31.1577 117.37 29.8931 118.413 28.4744C119.456 27.0574 120.56 25.6222 121.724 24.1681C122.887 22.7155 124.051 21.3245 125.214 19.9975C126.378 18.6704 127.438 17.5391 128.397 16.606C128.157 17.0363 127.798 17.5747 127.319 18.2212C126.84 18.8662 126.369 19.5127 125.907 20.1585C125.445 20.8035 125.035 21.4145 124.675 21.9876C124.316 22.5631 124.136 22.976 124.136 23.2263C124.136 23.4773 124.221 23.7465 124.393 24.0331C124.564 24.3204 124.795 24.5896 125.086 24.8399C125.376 25.0917 125.684 25.3064 126.01 25.4856C126.335 25.6656 126.651 25.7548 126.96 25.7548C127.233 25.7548 127.558 25.6396 127.935 25.4051C128.312 25.1722 128.696 24.8762 129.09 24.517C129.483 24.1594 129.876 23.7639 130.27 23.3328C130.662 22.9026 130.996 22.4905 131.271 22.095C131.509 21.7729 131.578 21.5929 131.476 21.5566C131.373 21.5211 131.202 21.54 130.963 21.6103C130.722 21.6829 130.484 21.7626 130.245 21.8526C130.004 21.9426 129.867 21.9695 129.834 21.934C129.764 21.8621 129.885 21.6474 130.193 21.2882C130.5 20.9298 130.893 20.4814 131.373 19.943C131.851 19.4046 132.382 18.8315 132.964 18.2204C133.546 17.6102 134.084 17.0276 134.58 16.4702C135.076 15.9145 135.479 15.4203 135.786 14.99ZM113.871 16.1299C113.521 17.0474 112.997 18.1453 112.298 19.4221C111.6 20.6989 110.805 22.0485 109.916 23.4694C109.026 24.8919 108.161 26.1869 107.319 27.3553C106.478 28.5252 105.731 29.4601 105.08 30.1622C104.428 30.8643 104.008 31.1256 103.817 30.9443C103.595 30.7646 103.666 30.2073 104.031 29.2717C104.396 28.336 104.921 27.2302 105.604 25.9526C106.287 24.6758 107.065 23.3349 107.939 21.9314C108.813 20.5287 109.662 19.2519 110.488 18.0994C111.314 16.9484 112.053 16.031 112.705 15.347C113.355 14.6639 113.807 14.394 114.062 14.5373C114.283 14.6813 114.219 15.2125 113.871 16.1299ZM31.5626 24.7681C30.9076 25.8643 30.4082 26.8065 30.0646 27.5955C29.7209 28.3853 29.6136 28.8528 29.7455 28.995C29.7778 29.0313 29.9734 28.8702 30.3346 28.5109C30.6944 28.1523 31.1523 27.6587 31.7099 27.03C32.2667 26.4022 32.8895 25.6937 33.5768 24.9032C34.2648 24.1142 34.9527 23.3062 35.64 22.4801C36.5566 20.9369 37.5146 19.4561 38.514 18.0377C39.512 16.62 40.4047 15.4448 41.1909 14.5105C40.6018 14.4387 39.8893 14.7348 39.054 15.399C38.2188 16.064 37.3512 16.9067 36.4507 17.9295C35.5489 18.953 34.6736 20.0753 33.8222 21.2955C32.9701 22.5157 32.2176 23.6735 31.5626 24.7681Z" fill="white"/>
</g>
</g>
<g clip-path="url(#clip2)">
<g clip-path="url(#clip3)">
<path fill-rule="evenodd" clip-rule="evenodd" d="M343.033 16.3379V25.0184C343.033 25.6805 342.812 26.1955 342.445 26.5633C342.077 26.9311 341.488 27.1518 340.826 27.1518C340.164 27.1518 339.576 26.9311 339.208 26.5633C338.84 26.1955 338.619 25.6805 338.619 25.0184V16.3379C338.619 15.0874 338.399 14.2046 337.884 13.6161C337.369 13.0276 336.56 12.7333 335.53 12.7333C334.279 12.7333 333.249 13.1011 332.44 13.9103C331.631 14.7195 331.263 15.7494 331.263 17.1471V25.0184C331.263 25.6805 331.042 26.1955 330.674 26.5633C330.307 26.9311 329.718 27.1518 329.056 27.1518C328.394 27.1518 327.805 26.9311 327.438 26.5633C327.07 26.1955 326.849 25.6805 326.849 25.0184V3.90567C326.849 3.31716 327.07 2.80221 327.438 2.4344C327.879 2.06658 328.394 1.84589 329.056 1.84589C329.718 1.84589 330.233 1.99301 330.674 2.36083C331.116 2.72865 331.263 3.17003 331.263 3.83211V12.0712C331.851 11.1885 332.661 10.4528 333.617 9.93789C334.573 9.42295 335.677 9.20226 336.927 9.20226C340.973 9.20226 343.033 11.5563 343.033 16.3379ZM384.597 13.3954C383.935 12.0712 383.052 11.0413 381.875 10.3057C380.698 9.57007 379.374 9.20226 377.976 9.20226C376.725 9.20226 375.622 9.42295 374.666 9.93789C373.709 10.4528 372.974 11.1885 372.459 12.1448V3.83211C372.459 3.17003 372.312 2.72865 371.87 2.36083C371.429 1.99301 370.914 1.84589 370.252 1.84589C369.59 1.84589 369.075 2.06658 368.633 2.4344C368.266 2.80221 368.045 3.31716 368.045 3.90567V24.9449C368.045 25.607 368.266 26.1219 368.633 26.4897C369.001 26.8575 369.516 27.0782 370.178 27.0782C370.84 27.0782 371.429 26.8575 371.797 26.4897C372.164 26.1219 372.385 25.607 372.385 24.9449V24.0621C372.9 25.0184 373.636 25.8277 374.592 26.3426C375.548 26.8575 376.652 27.1518 377.902 27.1518C379.374 27.1518 380.698 26.784 381.875 26.0483C383.052 25.3127 383.935 24.2828 384.597 22.8851C385.259 21.4874 385.553 19.869 385.553 18.1035C385.553 16.3379 385.259 14.7195 384.597 13.3954ZM381.139 18.1035C381.139 19.9426 380.771 21.3403 379.962 22.2966C379.153 23.2529 378.049 23.7679 376.725 23.7679C375.328 23.7679 374.224 23.2529 373.489 22.2966C372.679 21.3403 372.312 19.9426 372.312 18.177C372.312 16.4115 372.753 15.0138 373.489 14.0575C374.224 13.1011 375.328 12.6597 376.725 12.6597C378.123 12.6597 379.153 13.1011 379.962 14.0575C380.771 15.0138 381.139 16.3379 381.139 18.1035ZM363.337 11.4092C363.337 10.7471 363.116 10.2321 362.748 9.86433C362.38 9.49651 361.792 9.27582 361.13 9.27582C360.468 9.27582 359.879 9.49651 359.511 9.86433C359.144 10.2321 358.923 10.7471 358.923 11.4092V19.2805C358.923 20.6046 358.555 21.7081 357.819 22.5173C357.084 23.3265 356.128 23.7679 354.877 23.7679C353.773 23.7679 353.038 23.4736 352.523 22.8851C352.008 22.2966 351.787 21.4138 351.787 20.1632V11.4092C351.787 10.7471 351.567 10.2321 351.199 9.86433C350.831 9.49651 350.242 9.27582 349.58 9.27582C348.918 9.27582 348.33 9.49651 347.962 9.86433C347.594 10.2321 347.373 10.7471 347.373 11.4092V20.0897C347.373 24.8713 349.433 27.2254 353.7 27.2254C354.803 27.2254 355.907 27.0047 356.79 26.4897C357.746 25.9748 358.482 25.2391 358.997 24.2828V25.1656C358.997 25.8277 359.217 26.269 359.585 26.6369C359.953 27.0047 360.468 27.1518 361.13 27.1518C361.792 27.1518 362.307 26.9311 362.748 26.5633C363.116 26.1955 363.337 25.6805 363.337 25.092V11.4092ZM322.73 24.0621C322.73 23.8414 322.656 23.6207 322.509 23.4736C322.362 23.3265 322.215 23.1794 321.994 23.1794C321.773 23.1794 321.405 23.3265 320.891 23.6943C320.081 24.1357 319.346 24.5035 318.684 24.7978C317.948 25.092 317.139 25.2391 316.109 25.2391C314.196 25.2391 312.651 24.6506 311.622 23.5472C310.592 22.4437 310.003 20.7518 309.93 18.6184H321.7C322.068 18.6184 322.362 18.5448 322.583 18.3242C322.803 18.1035 322.877 17.8092 322.877 17.3678C322.877 14.8667 322.215 12.8804 320.964 11.4827C319.714 10.085 317.948 9.34938 315.741 9.34938C314.123 9.34938 312.725 9.7172 311.548 10.4528C310.371 11.1885 309.415 12.2919 308.753 13.6161C308.09 15.0138 307.723 16.5586 307.723 18.3242C307.723 21.046 308.532 23.2529 310.003 24.7978C311.474 26.3426 313.534 27.1518 316.182 27.1518C318.095 27.1518 319.861 26.6368 321.553 25.607C322.362 25.092 322.73 24.5771 322.73 24.0621ZM310.003 17C310.224 15.1609 310.812 13.6896 311.769 12.6597C312.725 11.6299 314.049 11.1149 315.741 11.1149C317.359 11.1149 318.61 11.6299 319.493 12.6597C320.376 13.6896 320.817 15.0873 320.891 17H310.003ZM304.486 9.42295C304.78 9.42295 305.001 9.49651 305.221 9.7172C305.442 9.93789 305.516 10.1586 305.516 10.3793C305.516 10.5264 305.516 10.6735 305.442 10.8207L298.454 26.1955C298.306 26.4897 298.159 26.6369 297.939 26.784C297.718 26.9311 297.497 27.0047 297.203 27.0047C296.909 27.0047 296.688 26.9311 296.467 26.784C296.247 26.6369 296.1 26.4162 295.952 26.1955L288.89 10.8207C288.817 10.6735 288.817 10.5264 288.817 10.3793C288.817 10.085 288.964 9.86433 289.185 9.64364C289.405 9.42295 289.7 9.34938 289.994 9.34938C290.435 9.34938 290.729 9.57007 290.877 10.0115L297.203 24.2828L303.529 10.085C303.75 9.64364 304.044 9.42295 304.486 9.42295ZM287.198 10.3793C287.198 10.0115 287.125 9.79076 286.904 9.64364C286.683 9.49651 286.389 9.42295 285.948 9.42295H285.433C282.785 9.57007 281.019 10.6735 280.063 12.7333V10.4528C280.063 10.085 279.989 9.86433 279.768 9.64364C279.621 9.42295 279.327 9.34938 279.033 9.34938C278.665 9.34938 278.444 9.42295 278.224 9.64364C278.003 9.86433 277.929 10.085 277.929 10.4528V25.9012C277.929 26.269 278.003 26.4897 278.224 26.7104C278.444 26.9311 278.739 27.0047 279.033 27.0047C279.401 27.0047 279.621 26.9311 279.842 26.7104C280.063 26.4897 280.136 26.269 280.136 25.9012V16.7793C280.136 15.4552 280.578 14.2046 281.387 13.1747C282.196 12.1448 283.447 11.5563 285.139 11.4092L286.168 11.3356C286.831 11.262 287.198 10.9678 287.198 10.3793ZM273.074 23.4736C273.221 23.6207 273.295 23.8414 273.295 24.0621C273.295 24.5771 272.927 25.092 272.118 25.607C270.426 26.6368 268.66 27.1518 266.748 27.1518C264.099 27.1518 262.04 26.3426 260.568 24.7978C259.097 23.2529 258.288 21.046 258.288 18.3242C258.288 16.5586 258.656 15.0138 259.318 13.6161C259.98 12.2919 260.936 11.1885 262.113 10.4528C263.29 9.7172 264.688 9.34938 266.306 9.34938C268.513 9.34938 270.279 10.085 271.529 11.4827C272.78 12.8804 273.442 14.8667 273.442 17.3678C273.442 17.8092 273.368 18.1035 273.148 18.3242C272.927 18.5448 272.633 18.6184 272.265 18.6184H260.495C260.568 20.7518 261.157 22.4437 262.187 23.5472C263.217 24.6506 264.761 25.2391 266.674 25.2391C267.704 25.2391 268.513 25.092 269.249 24.7978C269.911 24.5035 270.647 24.1357 271.456 23.6943C271.971 23.3265 272.338 23.1794 272.559 23.1794C272.78 23.2529 272.927 23.3265 273.074 23.4736ZM262.334 12.6597C261.377 13.6896 260.789 15.1609 260.568 17H271.456C271.382 15.0873 270.941 13.6896 270.058 12.6597C269.175 11.6299 267.925 11.1149 266.306 11.1149C264.688 11.1149 263.364 11.6299 262.334 12.6597ZM242.619 25.6805C243.354 26.1219 244.164 26.4897 245.12 26.784C246.076 27.0047 247.106 27.1518 247.989 27.0782C250.049 27.0782 251.667 26.6369 252.844 25.7541C254.095 24.8713 254.683 23.7679 254.683 22.2966C254.683 21.3403 254.463 20.6046 254.095 20.0161C253.727 19.4276 253.138 18.9127 252.256 18.4713C251.373 18.1035 250.122 17.6621 248.504 17.2943C248.405 17.2678 248.307 17.242 248.212 17.2166C247.244 16.9597 246.465 16.7529 245.929 16.4851C245.341 16.1908 244.899 15.8966 244.679 15.5287C244.458 15.1609 244.311 14.7195 244.311 14.2046C244.311 13.3218 244.679 12.5862 245.414 11.9977C246.15 11.4827 247.106 11.1885 248.357 11.1885C249.313 11.1885 250.122 11.3356 250.711 11.6299C251.373 11.9241 251.961 12.2919 252.623 12.7333C253.138 13.1011 253.506 13.3218 253.727 13.3218C253.874 13.3218 254.095 13.1747 254.242 13.0276C254.389 12.8804 254.463 12.6597 254.463 12.4391C254.463 11.8505 254.021 11.3356 253.212 10.7471C252.55 10.3057 251.814 9.93789 251.005 9.7172C250.122 9.49651 249.239 9.34938 248.357 9.34938C246.518 9.34938 244.973 9.79076 243.796 10.7471C242.619 11.7034 242.03 12.954 242.03 14.4253C242.03 15.6759 242.472 16.7058 243.354 17.4414C244.237 18.177 245.782 18.8391 247.842 19.2805C247.976 19.3139 248.106 19.3464 248.234 19.3781C249.232 19.6258 250.05 19.8289 250.637 20.0897C251.299 20.3839 251.741 20.6782 252.035 21.046C252.329 21.4138 252.476 21.8552 252.476 22.4437C252.476 23.4 252.108 24.1357 251.299 24.6506C250.564 25.1656 249.46 25.3863 248.062 25.3863C246.959 25.3863 246.076 25.2391 245.341 24.9449C244.605 24.6506 243.869 24.2828 243.207 23.8414C242.692 23.4736 242.324 23.3265 242.104 23.3265C241.957 23.3265 241.736 23.4 241.589 23.5472C241.442 23.6943 241.368 23.915 241.368 24.1357C241.368 24.4299 241.515 24.6506 241.662 24.8713C241.883 25.092 242.177 25.3863 242.619 25.6805Z" fill="white"/>
<path d="M229.01 21.6345L217.46 28.2552C215.915 29.138 214.223 29.138 212.752 28.5495L220.255 32.9633C225.331 35.9059 231.658 32.2277 231.658 26.4162V17.8092C231.437 19.354 230.554 20.7518 229.01 21.6345Z" fill="white"/>
<path d="M209.442 23.6207V10.3057C209.442 8.54017 210.251 6.99533 211.501 6.039L203.998 10.4528C198.922 13.3954 198.922 20.6782 203.998 23.6207L211.501 27.961C210.251 26.9311 209.442 25.4598 209.442 23.6207Z" fill="white"/>
<path d="M220.255 1.03668L212.752 5.37694C214.223 4.78843 215.915 4.78843 217.46 5.67119L229.01 12.2919C230.554 13.1747 231.437 14.646 231.658 16.1172V7.58385C231.658 1.77231 225.331 -1.90587 220.255 1.03668Z" fill="white"/>
</g>
</g>
<g clip-path="url(#clip4)">
<g clip-path="url(#clip5)">
<path d="M576.45 26.8079V21.2167H565.12V0.555412H559.27V26.8079H576.45ZM585.448 27.3263C587.892 27.3263 589.669 26.2895 590.632 24.7343C590.632 25.9933 590.78 26.6598 590.817 26.8079H595.89C595.853 26.6227 595.668 25.4008 595.668 23.9568V14.9591C595.668 11.1823 593.483 7.84982 587.521 7.84982C582.115 7.84982 579.672 11.3304 579.449 13.9594L584.337 14.9591C584.448 13.5891 585.522 12.2561 587.484 12.2561C589.262 12.2561 590.187 13.1818 590.187 14.2556C590.187 14.885 589.854 15.3664 588.854 15.5145L584.522 16.181C581.486 16.6253 579.079 18.4767 579.079 21.7351C579.079 24.6603 581.412 27.3263 585.448 27.3263ZM586.818 23.2533C585.263 23.2533 584.633 22.3276 584.633 21.3648C584.633 20.0689 585.522 19.5135 586.707 19.3283L590.187 18.7729V19.5875C590.187 22.4386 588.484 23.2533 586.818 23.2533ZM611.034 27.2152C616.181 27.2152 619.809 23.1792 619.809 17.551C619.809 12.0339 616.588 7.96091 611.256 7.96091C608.738 7.96091 606.702 8.99767 605.924 10.1455V0H600.407V26.8079H605.85V24.7343C606.702 26.1414 608.59 27.2152 611.034 27.2152ZM610.034 22.1795C607.85 22.1795 605.85 20.6243 605.85 17.588C605.85 14.4777 607.85 13.0337 610.034 13.0337C612.219 13.0337 614.181 14.4777 614.181 17.588C614.181 20.6613 612.219 22.1795 610.034 22.1795Z" fill="white"/>
<path d="M455.503 26.8079V16.1891H466.159V26.8079H472.146V0.110443H466.159V10.5785H455.503V0.110443H449.553V26.8079H455.503ZM484.874 34L496.396 8.09331H490.334L486.192 18.1096L481.635 8.09331H475.234L483.104 24.285L478.849 34H484.874ZM505.019 33.9623V25.3393C505.885 26.3937 507.693 27.2221 510.103 27.2221C515.337 27.2221 519.027 23.1177 519.027 17.3941C519.027 11.7835 515.751 7.64145 510.328 7.64145C507.655 7.64145 505.622 8.80876 504.831 10.0137V8.09331H499.296V33.9623H505.019ZM509.161 22.101C506.94 22.101 504.944 20.5195 504.944 17.4318C504.944 14.3064 506.94 12.8002 509.161 12.8002C511.42 12.8002 513.416 14.3064 513.416 17.4318C513.416 20.5571 511.42 22.101 509.161 22.101ZM531.114 27.3727C535.859 27.3727 538.833 24.6615 539.737 21.4232L534.955 20.0676C534.428 21.5362 533.26 22.5152 531.189 22.5152C528.968 22.5152 527.047 21.009 526.934 18.9003H539.963C540.001 18.7873 540.076 17.9213 540.076 17.1305C540.076 11.1057 536.499 7.52849 530.7 7.52849C525.842 7.52849 521.361 11.3693 521.361 17.3941C521.361 23.6825 525.955 27.3727 531.114 27.3727ZM534.541 15.2101H527.047C527.16 13.8169 528.365 12.0471 530.775 12.0471C533.486 12.0471 534.465 13.7792 534.541 15.2101ZM549.49 26.8079V18.6367C549.49 14.9089 551.561 13.5533 553.858 13.5533C554.423 13.5533 555.025 13.591 555.665 13.7416V8.09331C555.289 7.98035 554.724 7.90504 554.159 7.90504C552.653 7.90504 550.28 8.50752 549.301 10.6162V8.09331H543.766V26.8079H549.49Z" fill="white"/>
</g>
</g>
<defs>
<clipPath id="clip0">
<rect width="136" height="34" fill="white" transform="translate(0.190918)"/>
</clipPath>
<clipPath id="clip1">
<rect width="136" height="34" fill="white" transform="translate(0.190918)"/>
</clipPath>
<clipPath id="clip2">
<rect width="185.362" height="34" fill="white" transform="translate(200.191)"/>
</clipPath>
<clipPath id="clip3">
<rect width="185.362" height="34" fill="white" transform="translate(200.191)"/>
</clipPath>
<clipPath id="clip4">
<rect width="170.256" height="34" fill="white" transform="translate(449.553)"/>
</clipPath>
<clipPath id="clip5">
<rect width="170.256" height="34" fill="white" transform="translate(449.553)"/>
</clipPath>
</defs>
</svg>
