<svg width="100" height="100" viewBox="0 0 100 100" fill="none" xmlns="http://www.w3.org/2000/svg">
<g clip-path="url(#clip0)">
<path d="M88.0355 21.4793L53.1776 1.35118C50.0502 -0.450393 46.168 -0.450393 43.0343 1.35118C39.9069 3.1591 37.9657 6.52119 37.9657 10.1307V12.7569L35.6948 11.4438C32.5674 9.64222 28.6851 9.64222 25.5514 11.4438C22.424 13.2517 20.4829 16.6138 20.4829 20.2296V22.8559L18.2119 21.5428C15.0845 19.7412 11.2022 19.7412 8.06851 21.5428C4.94113 23.3507 3 26.7128 3 30.3286V93.3963C3 95.2106 4.05303 96.898 5.68967 97.6846C7.31996 98.4775 9.29916 98.2619 10.7201 97.1391L28.0063 83.5067L54.662 98.8962C55.3979 99.3212 56.2225 99.5306 57.0472 99.5306C57.8719 99.5306 58.6965 99.3149 59.4324 98.8962C60.9041 98.0462 61.8176 96.4666 61.8176 94.7666V56.813C61.8176 50.5836 58.4682 44.7856 53.0761 41.6709L44.3347 36.6214V10.137C44.3347 8.79218 45.0579 7.53616 46.2251 6.86374C47.3923 6.19132 48.8386 6.19132 50.0058 6.86374L84.8638 26.9855C88.2956 28.9647 90.4271 32.663 90.4271 36.6214V83.881C90.4271 85.2258 89.7039 86.4819 88.5367 87.1543L79.3004 92.4892V46.714C79.3004 40.4846 75.951 34.6866 70.559 31.5719L49.0987 19.1829V26.5225L67.3809 37.0782C70.8127 39.0573 72.9442 42.7493 72.9442 46.714V95.236C72.9442 96.9297 73.8577 98.5156 75.3294 99.3656C76.0652 99.7907 76.8899 100 77.7145 100C78.5392 100 79.3639 99.7843 80.0997 99.3656L91.7212 92.6541C94.8485 90.8462 96.7897 87.4841 96.7897 83.8683V36.6087C96.777 30.3984 93.4276 24.594 88.0355 21.4793ZM49.8853 47.1771C53.3172 49.1563 55.4486 52.8483 55.4486 56.813V92.0198L33.373 79.2756L40.4588 73.6932C42.9137 71.7584 44.322 68.8594 44.322 65.732V43.9736L49.8853 47.1771ZM37.9657 40.2943V65.7194C37.9657 66.8866 37.4392 67.9713 36.5258 68.6881L9.35626 90.1104V30.3223C9.35626 28.9774 10.0794 27.7214 11.2466 27.049C12.4139 26.3766 13.8602 26.3766 15.0274 27.049L20.4829 30.1954V75.2664L26.8391 70.255V20.2296C26.8391 18.8848 27.5623 17.6288 28.7295 16.9564C29.8967 16.2839 31.3431 16.2839 32.5103 16.9564L37.9657 20.1028V32.9485L31.6095 29.2756V36.6214L37.9657 40.2943Z" fill="#0052CD"/>
</g>
<defs>
<clipPath id="clip0">
<rect width="93.7897" height="100" fill="white" transform="translate(3)"/>
</clipPath>
</defs>
</svg>
