<svg width="1177" height="930" viewBox="0 0 1177 930" fill="none" xmlns="http://www.w3.org/2000/svg">
<g opacity="0.24">
<mask id="mask0_608_15801" style="mask-type:alpha" maskUnits="userSpaceOnUse" x="128" y="0" width="921" height="930">
<ellipse cx="588.5" cy="465" rx="460.5" ry="465" fill="url(#paint0_radial_608_15801)" fill-opacity="0.32"/>
</mask>
<g mask="url(#mask0_608_15801)">
<line x1="141.5" y1="160" x2="141.5" y2="769" stroke="white" stroke-opacity="0.88"/>
<line x1="173.5" y1="160" x2="173.5" y2="769" stroke="white" stroke-opacity="0.88"/>
<line x1="205.5" y1="160" x2="205.5" y2="769" stroke="white" stroke-opacity="0.88"/>
<line x1="237.5" y1="160" x2="237.5" y2="769" stroke="white" stroke-opacity="0.88"/>
<line x1="269.5" y1="160" x2="269.5" y2="769" stroke="white" stroke-opacity="0.88"/>
<line x1="301.5" y1="160" x2="301.5" y2="769" stroke="white" stroke-opacity="0.88"/>
<line x1="333.5" y1="160" x2="333.5" y2="769" stroke="white" stroke-opacity="0.88"/>
<line x1="365.5" y1="160" x2="365.5" y2="769" stroke="white" stroke-opacity="0.88"/>
<line x1="397.5" y1="160" x2="397.5" y2="769" stroke="white" stroke-opacity="0.88"/>
<line x1="429.5" y1="160" x2="429.5" y2="769" stroke="white" stroke-opacity="0.88"/>
<line x1="461.5" y1="160" x2="461.5" y2="769" stroke="white" stroke-opacity="0.88"/>
<line x1="493.5" y1="160" x2="493.5" y2="769" stroke="white" stroke-opacity="0.88"/>
<line x1="525.5" y1="160" x2="525.5" y2="769" stroke="white" stroke-opacity="0.88"/>
<line x1="557.5" y1="160" x2="557.5" y2="769" stroke="white" stroke-opacity="0.88"/>
<line x1="589.5" y1="160" x2="589.5" y2="769" stroke="white" stroke-opacity="0.88"/>
<line x1="621.5" y1="160" x2="621.5" y2="769" stroke="white" stroke-opacity="0.88"/>
<line x1="653.5" y1="160" x2="653.5" y2="769" stroke="white" stroke-opacity="0.88"/>
<line x1="685.5" y1="160" x2="685.5" y2="769" stroke="white" stroke-opacity="0.88"/>
<line x1="717.5" y1="160" x2="717.5" y2="769" stroke="white" stroke-opacity="0.88"/>
<line x1="749.5" y1="160" x2="749.5" y2="769" stroke="white" stroke-opacity="0.88"/>
<line x1="781.5" y1="160" x2="781.5" y2="769" stroke="white" stroke-opacity="0.88"/>
<line x1="813.5" y1="160" x2="813.5" y2="769" stroke="white" stroke-opacity="0.88"/>
<line x1="845.5" y1="160" x2="845.5" y2="769" stroke="white" stroke-opacity="0.88"/>
<line x1="877.5" y1="160" x2="877.5" y2="769" stroke="white" stroke-opacity="0.88"/>
<line x1="909.5" y1="160" x2="909.5" y2="769" stroke="white" stroke-opacity="0.88"/>
<line x1="941.5" y1="160" x2="941.5" y2="769" stroke="white" stroke-opacity="0.88"/>
<line x1="973.5" y1="160" x2="973.5" y2="769" stroke="white" stroke-opacity="0.88"/>
<line x1="1005.5" y1="160" x2="1005.5" y2="769" stroke="white" stroke-opacity="0.88"/>
<line x1="1037.5" y1="160" x2="1037.5" y2="769" stroke="white" stroke-opacity="0.88"/>
<line x1="-51" y1="176.5" x2="1229" y2="176.5" stroke="white" stroke-opacity="0.88"/>
<line x1="-51" y1="208.5" x2="1229" y2="208.5" stroke="white" stroke-opacity="0.88"/>
<line x1="-51" y1="240.5" x2="1229" y2="240.5" stroke="white" stroke-opacity="0.88"/>
<line x1="-51" y1="272.5" x2="1229" y2="272.5" stroke="white" stroke-opacity="0.88"/>
<line x1="-51" y1="304.5" x2="1229" y2="304.5" stroke="white" stroke-opacity="0.88"/>
<line x1="-51" y1="336.5" x2="1229" y2="336.5" stroke="white" stroke-opacity="0.88"/>
<line x1="-51" y1="368.5" x2="1229" y2="368.5" stroke="white" stroke-opacity="0.88"/>
<line x1="-51" y1="400.5" x2="1229" y2="400.5" stroke="white" stroke-opacity="0.88"/>
<line x1="-51" y1="432.5" x2="1229" y2="432.5" stroke="white" stroke-opacity="0.88"/>
<line x1="-51" y1="464.5" x2="1229" y2="464.5" stroke="white" stroke-opacity="0.88"/>
<line x1="-51" y1="496.5" x2="1229" y2="496.5" stroke="white" stroke-opacity="0.88"/>
<line x1="-51" y1="528.5" x2="1229" y2="528.5" stroke="white" stroke-opacity="0.88"/>
<line x1="-51" y1="560.5" x2="1229" y2="560.5" stroke="white" stroke-opacity="0.88"/>
<line x1="-51" y1="592.5" x2="1229" y2="592.5" stroke="white" stroke-opacity="0.88"/>
<line x1="-51" y1="624.5" x2="1229" y2="624.5" stroke="white" stroke-opacity="0.88"/>
<line x1="-51" y1="656.5" x2="1229" y2="656.5" stroke="white" stroke-opacity="0.88"/>
<line x1="-51" y1="688.5" x2="1229" y2="688.5" stroke="white" stroke-opacity="0.88"/>
<line x1="-51" y1="720.5" x2="1229" y2="720.5" stroke="white" stroke-opacity="0.88"/>
<line x1="-51" y1="752.5" x2="1229" y2="752.5" stroke="white" stroke-opacity="0.88"/>
</g>
</g>
<defs>
<radialGradient id="paint0_radial_608_15801" cx="0" cy="0" r="1" gradientUnits="userSpaceOnUse" gradientTransform="translate(588.5 465) rotate(90) scale(465 460.5)">
<stop/>
<stop offset="1" stop-opacity="0"/>
</radialGradient>
</defs>
</svg>
