<svg width="142" height="64" viewBox="0 0 142 64" fill="none" xmlns="http://www.w3.org/2000/svg">
<path d="M23.1174 0.114014L22.8897 7.97166L22.548 15.7154V23.5731L22.3203 31.4307L14.8043 31.203H7.40213H0L0.227758 23.5731L0.113879 15.8293L0.455516 8.08554V0.341772H7.97153H15.4875L23.1174 0.114014ZM8.6548 10.1354C8.6548 9.45209 8.6548 8.8827 8.99644 8.19942C9.2242 7.74391 9.45196 7.28839 9.90747 6.83287C10.2491 6.49124 10.7046 6.1496 11.1601 5.92184C11.5018 5.69408 11.9573 5.58021 12.4128 5.58021C12.7544 5.58021 12.9822 5.58021 13.3238 5.69408C13.6655 5.69408 13.8932 5.80796 14.2349 5.92184C14.4626 6.03572 14.6904 6.1496 14.9181 6.26348C15.1459 6.37736 15.2598 6.49124 15.2598 6.49124L15.3737 10.1354L17.6512 10.0215L18.3345 4.55529C17.9929 4.44142 17.6512 4.21366 17.3096 4.09978C16.8541 3.9859 16.3986 3.75814 15.9431 3.75814C14.8043 3.53038 13.6655 3.4165 12.5267 3.4165C11.274 3.4165 10.1352 3.75814 8.99644 4.21366C7.97153 4.55529 7.0605 5.12469 6.37722 5.92184C5.58007 6.60512 5.12455 7.51615 4.78292 8.42718C4.44128 9.45209 4.3274 10.477 4.3274 11.5019C4.3274 12.1852 4.55516 12.7546 4.78292 13.324C5.01068 13.7795 5.46619 14.3489 5.80783 14.6905C6.26334 15.146 6.71886 15.4877 7.28826 15.7154C7.85765 16.0571 8.42705 16.2848 8.88256 16.6265L10.2491 17.3097C10.8185 17.5375 11.274 17.8791 11.7295 18.2208C12.1851 18.5624 12.5267 18.904 12.8683 19.3596C13.21 19.8151 13.4377 20.2706 13.4377 20.84C13.5516 21.5233 13.4377 22.3204 13.0961 23.0037C12.8683 23.5731 12.5267 24.1425 12.0712 24.598C11.7295 25.0535 11.274 25.3952 10.7046 25.6229C10.2491 25.8507 9.79359 25.9645 9.2242 25.9645C8.88256 25.9645 8.54093 25.9645 8.19929 25.8507C7.74377 25.7368 7.40213 25.6229 6.94662 25.509C6.83274 25.2813 6.4911 25.1674 6.14947 25.0535C5.80783 24.9396 5.69395 24.8258 5.69395 24.7119L5.80783 20.4984L3.18861 20.6122L2.50534 26.3062C2.61922 26.4201 2.96085 26.5339 3.30249 26.7617C3.75801 26.9895 4.3274 27.2172 4.78292 27.3311C5.46619 27.5589 6.14947 27.6727 6.83274 27.7866C7.62989 27.9005 8.42705 28.0144 9.2242 28.0144C10.2491 28.0144 11.274 27.7866 12.2989 27.445C13.0961 27.2172 13.8932 26.8756 14.5765 26.4201C15.1459 25.9645 15.7153 25.509 16.1708 24.9396C16.6263 24.3702 16.968 23.8008 17.1957 23.2314C17.4235 22.6621 17.6512 22.0927 17.7651 21.4094C17.879 20.84 17.879 20.2706 17.879 19.7012C17.879 19.0179 17.6512 18.3347 17.4235 17.7653C17.1957 17.1959 16.8541 16.7403 16.3986 16.2848C15.9431 15.8293 15.4875 15.4877 14.9181 15.146C14.3488 14.8044 13.7794 14.4628 13.21 14.235L11.8434 13.6656C11.3879 13.4379 10.8185 13.0962 10.363 12.8685C9.90747 12.5268 9.56584 12.1852 9.2242 11.7297C8.88256 11.2742 8.76868 10.7048 8.6548 10.1354Z" fill="#ED1E79"/>
<path d="M45.6661 32.2278L38.8333 32.4555H32.0006L25.2817 32.6833L25.054 25.5089L24.7124 18.2207L24.5985 10.9324L24.2568 3.64415H30.9757L37.6946 3.53027H44.4134L44.7551 10.5908L45.0967 17.7651L45.5522 24.9395L45.6661 32.2278ZM41.5664 23.4591H34.8476V7.1744H28.812V28.9253H41.5664V23.4591Z" fill="#ED1E79"/>
<path d="M56.4827 31.9999L48.1695 30.975L48.0557 24.0283L48.1695 17.0817V10.1351L48.2834 3.18848L56.1411 3.53011L56.255 10.7045L56.1411 17.765L56.3688 24.8255L56.4827 31.9999Z" fill="#ED1E79"/>
<path d="M89.5084 0.683215L88.4835 7.2882L87.4586 13.8932L86.206 20.4982L85.1811 27.1031L83.9284 33.5942L77.7789 33.4804L71.4017 33.0249H65.1383L58.875 32.6832L59.6722 26.306L60.8109 19.9288L61.8359 13.5515L62.7469 7.17432L63.7718 0.569336L70.2629 0.683215L76.6401 0.569336L83.1312 0.797094L89.5084 0.683215ZM84.7255 14.1209C84.8394 12.7544 84.6117 11.3878 84.0423 10.0213C83.5867 8.8825 82.9035 7.97147 81.9924 7.17432C81.0814 6.37717 79.9426 5.92165 78.8038 5.58001C77.4373 5.23838 75.9569 5.01062 74.4764 5.01062L66.5049 4.89674V6.60492L67.0743 6.83268H67.6437H68.2131C68.327 6.83268 68.5547 6.94656 68.6686 6.94656C68.7825 7.06044 68.7825 7.17432 68.7825 7.2882L65.2522 25.6227C65.2522 25.7366 65.1383 25.9644 65.0245 26.0782C64.9106 26.1921 64.6828 26.1921 64.569 26.1921H63.9996H63.4302H62.7469V27.9003L70.6045 28.0142C72.5405 28.1281 74.5903 27.7864 76.4124 27.1031C78.1205 26.4199 79.601 25.5088 80.8536 24.1423C82.1063 22.8896 83.0173 21.2953 83.7006 19.5871C84.3839 18.1067 84.7255 16.1708 84.7255 14.1209ZM79.9426 11.3878C80.1704 12.185 80.1704 12.9821 80.1704 13.8932C80.1704 15.032 80.0565 16.0569 79.8287 17.0818C79.601 18.1067 79.3732 19.0177 79.0316 20.0426C78.6899 20.9537 78.2344 21.7508 77.665 22.548C77.2095 23.2313 76.5262 23.9145 75.843 24.4839C75.1597 25.0533 74.4764 25.5088 73.6793 25.7366C72.8821 26.0782 72.085 26.1921 71.1739 26.1921H69.5796L73.2238 7.17432H73.6793C74.2487 7.17432 74.7042 7.2882 75.2736 7.2882C75.843 7.40208 76.2985 7.51595 76.754 7.62983C77.2095 7.85759 77.665 8.08535 78.1205 8.31311C78.5761 8.65475 78.9177 8.99638 79.2593 9.4519C79.601 10.1352 79.8287 10.7046 79.9426 11.3878Z" fill="#ED1E79"/>
<path d="M116.497 6.60498V12.9822L116.383 19.3594L116.155 25.7367L116.041 32.2278H109.664L103.401 32.7971H97.1375L90.7603 33.2527L90.988 26.5338L90.8741 19.9288L90.988 13.3238L91.3296 6.71886V0L97.8208 0.227758H104.198L110.461 0.341637L116.952 0.113879L116.497 6.60498ZM110.803 5.80783L99.3012 5.58007L95.8848 5.46619L95.5432 26.1922H98.9595L110.461 26.5338V23.4591L98.9595 23.2313L99.0734 17.3096L109.436 17.4235V14.3488L99.0734 14.2349L99.1873 8.6548L110.689 8.88256L110.803 5.80783Z" fill="#ED1E79"/>
<path d="M141.209 0.114014L140.981 7.97166L140.64 15.7154V23.5731L140.412 31.4307L132.896 31.203H125.494H118.092L118.206 23.5731L118.092 15.8293L118.32 8.08554V0.341772L125.949 0.227893H133.579L141.209 0.114014ZM126.747 10.1354C126.747 9.45209 126.747 8.8827 127.088 8.19942C127.316 7.63003 127.658 7.17451 127.999 6.719C128.341 6.37736 128.796 6.03572 129.252 5.80796C129.594 5.58021 130.049 5.46633 130.505 5.46633C130.846 5.46633 131.074 5.46633 131.416 5.58021C131.757 5.69409 132.099 5.69408 132.327 5.92184C132.554 6.03572 132.782 6.1496 133.124 6.26348C133.352 6.37736 133.465 6.49124 133.465 6.49124L133.579 10.1354L135.857 10.0215L136.654 4.55529C136.312 4.44142 135.857 4.21366 135.515 4.09978C135.06 3.9859 134.604 3.75814 134.149 3.75814C133.693 3.64426 133.124 3.53038 132.668 3.53038C131.985 3.53038 131.416 3.53038 130.732 3.53038C129.48 3.53038 128.341 3.87202 127.202 4.32754C126.177 4.66917 125.38 5.35245 124.583 6.03572C123.9 6.719 123.33 7.63003 122.989 8.54106C122.647 9.56597 122.533 10.5909 122.533 11.6158C122.533 12.2991 122.761 12.8685 122.989 13.4379C123.216 13.8934 123.672 14.4628 124.014 14.8044C124.469 15.2599 124.925 15.6016 125.494 15.8293C126.063 16.171 126.519 16.3987 127.088 16.7403L128.455 17.4236C128.91 17.6514 129.48 17.993 129.935 18.3347C130.391 18.6763 130.732 19.0179 131.074 19.4734C131.416 19.929 131.643 20.3845 131.643 20.9539C131.643 21.6371 131.643 22.4343 131.302 23.1176C131.074 23.687 130.732 24.2564 130.391 24.7119C130.049 25.1674 129.594 25.509 129.024 25.7368C128.569 25.9645 128.113 26.0784 127.544 26.0784C127.202 26.0784 126.86 26.0784 126.519 25.9645C126.063 25.8507 125.722 25.7368 125.266 25.6229C124.925 25.509 124.583 25.3952 124.241 25.1674C123.9 25.0535 123.786 24.9396 123.786 24.8258L123.9 20.7261L121.28 20.84L120.483 26.5339C120.597 26.6478 120.939 26.7617 121.28 26.9895C121.736 27.2172 122.305 27.445 122.761 27.5589C123.444 27.7866 124.127 27.9005 124.697 28.0144C125.494 28.1282 126.291 28.2421 127.088 28.1282C128.113 28.1282 129.138 27.9005 130.163 27.5589C130.96 27.3311 131.757 26.9895 132.441 26.5339C133.01 26.0784 133.579 25.6229 134.035 25.0535C134.49 24.4841 134.832 23.9147 135.06 23.3453C135.515 22.3204 135.743 21.0677 135.743 19.929C135.743 19.2457 135.515 18.5624 135.288 17.993C135.06 17.4236 134.718 16.9681 134.263 16.5126C133.807 16.0571 133.352 15.7154 132.782 15.3738C132.213 15.0322 131.643 14.6905 131.074 14.4628L129.821 13.7795C129.366 13.5517 128.796 13.2101 128.341 12.9823C127.885 12.6407 127.544 12.2991 127.202 11.8435C126.974 11.2742 126.86 10.7048 126.747 10.1354Z" fill="#ED1E79"/>
<path d="M19.7011 48.8539C19.4734 49.7649 19.2456 50.7899 19.0179 52.0425C18.7901 52.9536 18.5624 53.9785 18.4485 55.1173C18.3346 56.2561 17.993 57.3948 17.6513 58.5336C17.5374 59.2169 17.3097 60.0141 17.0819 60.6973C17.0819 60.9251 16.968 61.039 16.968 61.2667C16.968 61.4945 16.8542 61.6084 16.7403 61.8361L16.6264 61.95C16.6264 62.0639 16.5125 62.0639 16.5125 62.1778C16.5125 62.2916 16.3986 62.2916 16.3986 62.4055L16.2848 62.5194L16.1709 62.6333H16.057C16.057 62.6333 16.057 62.6333 15.9431 62.6333C15.8293 62.6333 15.8293 62.6333 15.8293 62.6333H15.6015C15.4876 62.6333 15.3737 62.6333 15.2599 62.6333C15.146 62.6333 15.146 62.6333 15.0321 62.6333H14.9182H14.8043L14.5766 62.5194L14.4627 62.4055H14.3488L14.2349 62.2916V62.1778C14.2349 62.0639 14.1211 62.0639 14.1211 61.95C14.0072 61.8361 14.0072 61.7222 14.0072 61.6084C14.0072 61.3806 13.8933 61.2667 13.8933 61.039C13.8933 60.9251 13.7794 60.6973 13.7794 60.5835C13.6656 60.3557 13.6656 60.0141 13.5517 59.7863C13.4378 59.3308 13.3239 58.9891 13.3239 58.8753C12.8684 57.0532 12.4129 54.6617 11.8435 52.2703C11.7296 51.9287 11.7296 51.7009 11.6157 51.3593C11.5019 51.0176 11.6157 51.0176 11.5019 50.9037V50.7899C11.5019 50.676 11.5019 50.5621 11.5019 50.4482C11.5019 50.3343 11.5019 50.2205 11.388 50.1066C11.388 49.9927 11.2741 49.8788 11.2741 49.7649C11.2741 49.7649 11.2741 49.6511 11.1602 49.6511C11.1602 49.6511 11.0463 49.7649 11.0463 49.8788C10.9325 50.1066 10.9325 50.3343 10.9325 50.5621C10.9325 50.676 10.9325 50.676 10.9325 50.7899V50.9037C10.9325 51.0176 10.9325 51.0176 10.9325 51.1315C10.9325 51.2454 10.9325 51.4731 10.9325 51.587C10.8186 52.1564 10.8186 52.7258 10.7047 53.2952C10.5908 54.434 10.4769 55.4589 10.3631 56.4838C10.2492 57.5087 9.22427 58.4198 9.11039 59.103C8.99651 59.6724 8.88264 60.2418 8.76876 60.6973C8.65488 61.039 8.541 61.3806 8.541 61.7222C8.541 61.8361 8.42712 61.8361 8.42712 61.95C8.42712 62.0639 8.42712 62.0639 8.31324 62.1778C8.31324 62.1778 8.31324 62.1778 8.31324 62.2916C8.31324 62.4055 8.31324 62.2916 8.31324 62.2916C8.19936 62.4055 8.08548 62.6333 7.9716 62.7472L7.51609 62.9749C7.40221 63.0888 7.28833 63.0888 7.06057 63.2027C6.83281 63.3165 6.60506 63.3165 6.26342 63.3165H6.03566C5.92178 63.3165 5.92178 63.3165 5.8079 63.3165C5.8079 63.5443 5.8079 63.6582 5.8079 63.3165H5.58014L5.35239 63.2027H5.23851H5.12463C5.12463 63.2027 5.12463 63.2027 5.01075 63.2027L4.89687 63.0888H4.78299L4.55523 62.861V62.7472L4.44135 62.6333C4.44135 62.6333 4.32748 62.5194 4.32748 62.4055C4.32748 62.4055 4.32748 62.2916 4.2136 62.2916C4.2136 62.1778 4.2136 62.1778 4.09972 62.0639C4.09972 61.95 4.09972 61.95 3.98584 61.8361C3.87196 61.6084 3.87196 61.2667 3.75808 61.039C3.6442 60.8112 3.87196 60.5835 3.87196 60.3557C3.75808 59.6724 3.6442 58.9891 3.53032 58.4198C3.41644 57.8504 3.30256 57.1671 3.18869 56.4838C2.84705 54.6617 2.50541 52.8397 2.16377 51.1315C1.82214 49.4233 1.36662 47.4874 1.13886 45.8931C1.13886 45.4375 1.02498 44.982 0.911105 44.6404C0.683347 43.5016 0.569468 42.2489 0.683347 40.9963C0.797226 40.6546 0.797226 39.6297 1.02498 39.8575C1.25274 40.0852 1.36662 39.6297 1.4805 39.2881C1.70826 38.7187 1.93602 38.8326 2.27765 38.8326C3.07481 38.8326 3.98584 41.6795 4.32748 44.6404C4.32748 44.982 4.44135 45.4375 4.55523 45.7792C4.89687 47.3735 5.12463 48.8539 5.35239 50.5621C5.58014 52.2703 5.8079 54.2062 5.92178 55.345C6.03566 55.8005 6.14954 56.2561 6.26342 56.8254C6.3773 57.0532 6.3773 57.281 6.3773 57.5087C6.49118 57.1671 6.49118 56.8254 6.49118 56.5977C6.60505 55.1173 6.83281 53.9785 6.83281 53.523C6.83281 53.0674 6.94669 52.7258 7.06057 52.2703C7.06057 52.0425 7.17445 51.8148 7.17445 51.4731C7.17445 51.3593 7.28833 51.1315 7.28833 50.9037V50.7899C7.28833 50.676 7.28833 50.676 7.28833 50.5621L7.40221 49.9927C7.51609 49.1956 7.62997 48.5123 7.85772 47.7151C7.85772 47.6012 7.85772 47.4874 7.9716 47.3735C7.9716 47.2596 8.08548 47.1457 8.08548 47.0319C8.08548 46.918 8.08548 46.918 8.08548 46.918V46.8041C7.9716 46.6902 7.9716 46.6902 8.08548 46.5763C8.08548 46.4625 8.19936 46.4625 8.19936 46.3486V46.2347L8.31324 46.0069L8.42712 45.8931V45.7792V45.6653C8.42712 45.6653 8.42712 45.5514 8.541 45.5514C8.65488 45.5514 8.541 45.4375 8.541 45.4375C8.541 45.4375 8.541 45.3237 8.65488 45.3237C8.76876 45.3237 8.65488 45.3237 8.65488 45.3237L8.76876 45.2098C8.76876 45.2098 8.76876 45.0959 8.88264 45.0959C8.88264 44.7543 9.11039 44.5265 9.45203 44.4126C9.56591 44.2988 9.67979 44.2988 9.79367 44.1849C9.79367 44.1849 9.90755 44.1849 9.90755 44.071H10.0214C10.1353 44.071 10.1353 44.071 10.2492 44.071H10.4769C10.5908 44.071 10.7047 44.071 10.8186 44.071L11.0463 44.1849C10.9325 44.4126 10.9325 44.4126 11.0463 44.4126L11.2741 44.5265C11.388 44.5265 11.388 44.6404 11.5019 44.6404L11.6157 44.7543C11.6157 44.7543 11.6157 44.7543 11.6157 44.8682H11.7296C11.8435 45.0959 11.9574 45.2098 12.1851 45.4375C12.4129 45.7792 12.5268 46.0069 12.6406 46.3486C12.8684 46.8041 12.9823 47.1457 13.0962 47.6012C13.21 48.0568 13.4378 48.5123 13.5517 49.0817C13.6656 49.3094 13.6656 49.6511 13.7794 49.8788L13.8933 50.2205C13.8933 50.3343 14.0072 50.4482 14.0072 50.5621C14.2349 51.7009 14.4627 52.8397 14.5766 53.6368C14.6905 54.434 15.0321 55.4589 15.146 56.2561C15.3737 55.1173 15.6015 53.8646 15.8293 52.7258C16.1709 50.5621 16.5125 48.3984 16.968 46.5763C17.0819 46.1208 17.0819 45.6653 17.1958 45.0959C17.1958 44.6404 17.1958 44.1849 17.4236 43.8432C17.5374 43.3877 17.5374 42.9322 17.6513 42.3628C17.7652 41.6795 17.8791 41.1101 18.1068 40.5407C18.1068 40.4269 18.2207 40.1991 18.2207 40.0852C18.2207 39.9714 18.2207 40.0852 18.2207 40.0852C18.3346 39.8575 18.4485 39.7436 18.5623 39.5158C18.6762 39.2881 18.7901 39.1742 19.0179 39.0603C19.1317 38.9464 19.2456 38.9464 19.3595 38.8326C19.5873 38.7187 19.815 38.7187 20.0428 38.4909C20.2705 38.2632 20.3844 38.2632 20.4983 38.377C21.0677 39.2881 21.2954 40.4269 21.1816 41.4518V42.1351C21.0677 42.3628 20.9538 42.5906 20.7261 42.8183C19.815 43.8432 20.8399 43.2738 20.1567 47.0319C19.815 47.6012 19.7011 48.2845 19.7011 48.8539Z" fill="white"/>
<path d="M26.1925 57.3948C26.1925 57.7364 26.1925 58.3058 26.1925 58.6474C26.1925 59.3307 26.1925 59.9001 26.0786 60.5834C26.0786 60.6973 26.0786 60.925 26.0786 61.0389C26.0786 61.1528 26.1925 61.1528 26.1925 61.2667C26.1925 61.2667 26.1925 61.3805 26.0786 61.4944V61.7222V61.9499C26.0786 62.1777 25.8509 62.4054 25.6231 62.5193L25.5092 62.6332C25.3953 62.6332 25.3953 62.6332 25.2815 62.6332C25.2815 62.6332 25.1676 62.6332 25.0537 62.6332C24.9398 62.6332 24.826 62.7471 24.5982 62.6332H24.2566C24.0288 62.6332 23.801 62.5193 23.5733 62.5193C23.4594 62.5193 23.2316 62.5193 23.1178 62.4054C23.0039 62.2916 22.89 62.1777 22.6622 62.1777H22.5484C22.5484 62.1777 22.4345 62.1777 22.4345 62.0638C22.4345 61.9499 22.3206 61.9499 22.3206 61.9499L22.2067 61.8361L22.0929 61.7222C22.0929 61.7222 22.0929 61.6083 21.979 61.6083V61.4944V61.3805V61.2667C21.979 61.1528 21.979 61.0389 21.979 60.925C21.979 60.8111 21.979 60.8111 21.979 60.6973C21.979 60.6973 21.979 60.5834 22.0929 60.4695V60.3556V60.2417V60.014C22.2067 59.7862 22.2067 59.3307 22.3206 58.7613C22.4345 58.1919 22.5484 57.5086 22.5484 56.9393C22.6622 56.1421 22.6622 55.2311 22.6622 55.0033C22.6622 54.4339 22.6622 53.7506 22.5484 53.0674C22.4345 52.3841 22.5484 51.5869 22.5484 51.1314C22.6622 50.4482 22.5484 49.7649 22.5484 49.0816C22.4345 48.2844 22.3206 47.4873 22.3206 46.9179C22.3206 46.5763 22.3206 46.3485 22.2067 46.0069C22.2067 45.6652 22.2067 45.4375 22.2067 45.0958C22.2067 44.7542 22.0929 44.2987 22.0929 43.957C22.0929 43.3877 21.979 42.9321 21.8651 42.3627C21.7512 41.9072 21.7512 41.3378 21.7512 40.8823C21.7512 40.7684 21.7512 40.6546 21.7512 40.5407C21.6373 40.199 21.7512 39.7435 21.979 39.4019C22.2067 39.288 22.3206 39.0602 22.5484 39.0602C22.7761 39.0602 23.0039 39.0602 23.1178 38.8325C23.3455 38.7186 23.6872 38.6047 24.0288 38.6047C24.826 38.6047 25.3953 39.1741 25.5092 39.9713C25.5092 40.0852 25.5092 40.199 25.5092 40.199C25.5092 40.3129 25.5092 40.4268 25.5092 40.5407C25.6231 40.9962 25.737 41.4517 25.737 41.9072C25.737 42.4766 25.6231 43.046 25.6231 43.3877C25.6231 43.5015 25.737 43.6154 25.737 43.8432C25.8509 44.5264 25.8509 45.2097 25.8509 45.893C25.9647 46.804 25.9647 47.8289 26.0786 48.1706V48.5122C26.0786 48.74 26.0786 49.3094 25.9647 49.8788C25.9647 50.2204 25.9647 50.7898 25.9647 51.4731C26.0786 52.0425 26.0786 52.7257 26.0786 53.2951C26.0786 53.9784 26.0786 54.6617 26.0786 55.2311C26.0786 55.4588 26.0786 55.6866 26.0786 55.9143C26.0786 56.0282 26.0786 56.1421 26.0786 56.3699V56.9393C26.0786 57.0531 26.1925 57.2809 26.1925 57.3948Z" fill="white"/>
<path d="M37.4659 41.1101C37.4659 41.3378 37.4659 41.4517 37.2382 41.5656C36.5549 41.6795 35.8716 41.7933 35.1883 41.9072L34.3912 42.0211C34.5051 43.1599 34.5051 44.4126 34.6189 45.5514C34.7328 47.3734 34.7328 50.1065 34.8467 51.8147C34.9606 55.6866 34.9606 54.32 35.0744 58.1919C35.1883 59.3307 35.0744 60.4695 34.8467 61.6083C34.7328 62.2916 34.1634 62.9748 33.594 63.3165C33.4801 63.4304 33.2524 63.4304 33.1385 63.2026C32.9107 63.0887 32.683 62.9748 32.5691 62.9748C31.772 62.6332 31.2026 61.8361 31.2026 60.925C31.3164 59.6723 31.3164 58.4197 31.2026 57.0531C31.2026 56.3699 31.0887 51.5869 31.0887 50.9037C31.0887 50.562 31.0887 50.2204 31.0887 49.8788C31.0887 49.0816 31.0887 48.1706 31.0887 47.1457C31.0887 47.7151 31.0887 48.6261 31.0887 49.3094C31.0887 48.5122 31.0887 47.8289 31.0887 47.0318V46.804C31.0887 46.0069 31.0887 45.3236 31.0887 44.6403C31.2026 43.8432 31.0887 43.1599 30.9748 42.3627L29.6083 42.4766C29.1527 42.5905 28.5833 42.5905 28.1278 42.3627C27.6723 42.135 27.4446 41.7933 27.2168 41.3378C27.2168 41.224 27.2168 41.1101 27.2168 40.9962C27.2168 40.8823 27.2168 40.6546 27.2168 40.4268C27.3307 39.7435 27.6723 39.288 28.014 39.288C28.5833 39.288 29.1527 39.288 29.7221 39.1741C30.0638 39.1741 32.2275 38.9464 32.4552 38.9464H32.9107C33.2524 38.9464 33.7079 38.8325 34.0495 38.8325C33.8218 38.8325 33.4801 38.9464 33.1385 38.9464C33.4801 38.9464 33.8218 38.9464 34.1634 38.8325H34.2773H35.3022C35.0744 38.9464 35.9855 38.8325 36.7826 38.6047C36.7826 38.7186 36.7826 38.7186 36.6688 38.8325C36.5549 38.9464 36.7826 38.9464 36.7826 39.0602C37.1243 39.4019 37.2381 39.8574 37.352 40.4268C37.352 40.6546 37.4659 40.8823 37.4659 41.1101Z" fill="white"/>
<path d="M51.5889 55.4588V55.6866C51.5889 55.3449 51.5889 54.7756 51.5889 54.2062V53.8645C51.5889 54.4339 51.5889 55.1172 51.5889 55.8005V56.0282C51.5889 56.8254 51.4751 58.1919 51.4751 58.8752C51.4751 58.6474 51.3612 59.103 51.3612 59.7862C51.3612 60.1279 51.3612 60.5834 51.3612 60.925C51.3612 61.3805 51.2473 61.8361 51.1334 62.2916C51.0196 62.2916 51.0195 62.1777 51.0195 62.0638C50.9057 62.2916 50.7918 62.1777 50.6779 62.2916C50.564 62.4054 50.4502 62.5193 50.3363 62.6332C50.1085 62.6332 49.9946 62.6332 49.8808 62.6332C49.5391 62.6332 49.3114 62.6332 48.9697 62.6332H48.6281C48.5142 62.6332 48.4003 62.6332 48.2865 62.6332C48.1726 62.6332 48.0587 62.5193 47.9448 62.5193V62.2916V62.1777C48.0587 61.9499 48.0587 61.7222 48.0587 61.6083C48.9697 61.1528 48.5142 61.2667 48.1726 60.4695V60.1279C48.1726 59.3307 48.1726 57.9642 48.1726 57.2809C48.1726 56.8254 48.1726 56.3699 48.1726 55.8005V54.2062C48.1726 53.1812 48.0587 52.1563 48.0587 51.2453C47.8309 51.2453 47.6032 51.2453 47.3754 51.2453C47.0338 51.2453 46.806 51.2453 46.4644 51.2453C46.1228 51.2453 46.3505 51.2453 46.5783 51.2453C46.806 51.2453 46.6921 51.2453 46.5783 51.2453H46.3505C46.2366 51.2453 46.2366 51.2453 46.1228 51.2453H45.895H45.7811H45.4395H45.2117C45.0978 51.2453 44.984 51.2453 44.8701 51.2453C44.7562 51.2453 44.6423 51.2453 44.5284 51.2453C44.4146 51.2453 44.3007 51.2453 44.3007 51.2453H44.1868H44.0729L43.7313 51.3592C43.3897 51.4731 42.9341 51.5869 42.5925 51.7008C42.7064 52.3841 42.7064 52.9535 42.5925 53.6368C42.5925 54.32 42.5925 55.0033 42.7064 55.5727C42.8203 56.1421 42.7064 56.5976 42.7064 56.7115C42.7064 56.8254 42.7064 57.167 42.7064 57.6225V58.9891C42.7064 59.6723 42.7064 60.3556 42.5925 60.925C42.5925 61.0389 42.5925 61.0389 42.5925 61.1528V61.4944C42.7064 61.6083 42.7064 61.8361 42.5925 61.9499V62.4054C42.5925 62.5193 42.5925 62.6332 42.4786 62.7471C42.4786 62.861 42.3647 62.9748 42.2509 62.9748L42.137 63.0887L41.7954 63.2026C41.6815 63.3165 41.5676 63.3165 41.4537 63.2026H41.3398H41.1121C40.8843 63.2026 40.6566 63.2026 40.4288 63.2026C40.3149 63.2026 40.0872 63.2026 39.9733 63.0887L39.6316 62.861L39.5178 62.7471L39.4039 62.6332C39.29 62.6332 39.1761 62.5193 39.1761 62.4054C39.0623 62.2916 39.0623 62.1777 39.0623 62.1777C39.0623 61.9499 39.0623 61.6083 39.0623 61.3805C39.0623 61.2667 39.0623 61.1528 39.1761 61.0389C39.1761 60.925 39.1761 60.8111 39.29 60.5834C39.29 60.3556 39.4039 59.9001 39.5178 59.3307C39.6316 58.7613 39.6317 58.078 39.7455 57.3948C39.7455 56.4837 39.8594 55.5727 39.8594 55.3449C39.8594 54.7756 39.8594 54.0923 39.8594 53.2951C39.8594 52.9535 39.8594 52.498 39.8594 52.1563C39.7455 52.0425 39.5178 52.0425 39.4039 51.9286C39.29 51.8147 39.1761 51.7008 39.1761 51.4731C39.1761 51.3592 39.1761 51.2453 39.1761 51.1314V51.0175C39.1761 51.0175 39.1761 51.0175 39.1761 50.9037C39.1761 50.7898 39.1761 50.7898 39.29 50.7898L39.4039 50.6759L39.5178 50.562C39.6316 50.4482 39.7455 50.3343 39.8594 50.2204C39.8594 50.2204 39.8594 50.2204 39.9733 50.1065C39.9733 49.7649 39.8594 49.4232 39.8594 49.0816C39.7455 48.2844 39.6316 47.3734 39.6316 46.9179C39.6316 46.6901 39.5178 46.1208 39.5178 46.0069C39.5178 45.6652 39.5178 45.4375 39.5178 45.0958C39.5178 44.7542 39.4039 44.2987 39.4039 43.957C39.4039 43.3877 39.29 42.9321 39.1761 42.3627C39.0623 41.9072 39.0623 41.3378 39.0623 40.8823C39.1761 40.7684 39.1761 40.6546 39.0623 40.5407C38.9484 40.199 39.0623 39.7435 39.29 39.4019C39.5178 39.288 39.6316 38.9464 39.8594 39.0602C40.0872 39.0602 40.3149 38.9464 40.5427 38.8325C40.7704 38.7186 41.1121 38.6047 41.3398 38.6047C42.137 38.6047 42.7064 39.288 42.7064 39.9713C42.7064 40.0852 42.7064 40.199 42.7064 40.3129C42.7064 40.4268 42.7064 40.5407 42.7064 40.6546C42.8203 41.1101 42.8203 41.6795 42.8203 42.2489C42.8203 42.8183 42.7064 43.3877 42.7064 43.7293C42.7064 43.8432 42.7064 44.0709 42.8203 44.1848C42.9341 44.8681 42.9341 45.5514 42.9341 46.3485C42.9341 47.3734 43.048 48.3983 43.048 48.6261V48.74L43.3897 48.6261C43.5035 48.6261 43.5035 48.6261 43.6174 48.6261H43.8452C43.9591 48.6261 44.0729 48.6261 44.1868 48.5122C44.3007 48.5122 44.3007 48.5122 44.4146 48.5122H44.7562L45.0978 48.3983H45.4395C45.6672 48.3983 46.0089 48.3983 46.2366 48.3983H46.5783C46.6921 48.3983 46.6921 48.3983 46.806 48.3983H47.0338H47.3754H47.7171C47.8309 48.3983 47.9448 48.3983 48.0587 48.3983C48.1726 48.3983 48.2865 48.3983 48.4003 48.3983H47.8309C47.8309 48.2844 47.8309 48.1706 47.8309 48.0567C47.8309 47.7151 47.8309 47.4873 47.7171 47.0318C47.6032 46.5763 47.6032 45.893 47.4893 44.982C47.3754 43.7293 47.3754 42.3627 47.4893 40.9962C47.6032 40.3129 47.9448 39.6296 48.6281 39.288C48.742 39.1741 48.9697 39.1741 49.0836 39.288C49.1975 39.4019 49.4252 39.4019 49.653 39.5158C50.4502 39.8574 51.0196 40.5407 51.1334 41.4517C51.1334 42.7044 51.2473 44.6403 51.3612 45.893C51.3612 46.2346 51.4751 47.6012 51.5889 48.9677C51.7028 50.3343 51.7028 51.7008 51.7028 52.0425C51.7028 52.3841 51.7028 52.7257 51.7028 53.0674C51.5889 53.6368 51.5889 54.5478 51.5889 55.4588Z" fill="white"/>
<path d="M71.6309 49.196C71.6309 49.4238 71.6309 49.5376 71.4031 49.5376C70.8337 49.5376 70.2643 49.6515 69.6949 49.7654C69.1255 49.8793 68.1006 49.8793 67.4174 49.9932C67.0757 49.9932 66.6202 50.107 66.2786 50.107C66.1647 50.107 65.9369 50.107 65.7092 50.107C65.7092 50.5625 65.7092 51.0181 65.7092 51.4736C65.7092 52.3846 65.7092 53.2956 65.5953 54.0928C65.4814 54.8899 65.5953 55.801 65.5953 56.4843V57.5092C65.5953 57.8508 65.5953 58.1924 65.5953 58.4202V58.8757C65.5953 58.9896 65.5953 59.1035 65.5953 59.2174V59.7867C65.5953 60.0145 65.5953 60.1284 65.5953 60.3561C65.5953 60.5839 65.5953 60.6978 65.5953 60.9255C65.5953 61.2672 65.5953 61.7227 65.4814 62.0643C65.4814 62.1782 65.4814 62.2921 65.3675 62.406C65.3675 62.5198 65.3675 62.5198 65.2537 62.6337L65.1398 62.7476C64.912 62.9754 64.6843 63.0892 64.3426 63.317C64.2288 63.4309 64.001 63.4309 63.7732 63.317C63.5455 63.317 63.3177 63.2031 63.09 63.2031C62.8622 63.2031 62.7483 63.0892 62.5206 62.9754C62.4067 62.8615 62.2928 62.7476 62.1789 62.6337C62.065 62.5198 61.9512 62.406 61.9512 62.2921C61.9512 62.1782 61.9512 62.1782 61.9512 62.0643V61.8366C61.9512 61.7227 61.9512 61.7227 61.9512 61.6088V61.3811C61.9512 61.2672 61.9512 61.1533 61.9512 61.0394V60.3561C61.9512 59.9006 61.9512 59.4451 61.9512 58.9896V54.7761C61.9512 54.2067 62.065 53.6373 62.065 53.0679C62.065 52.2707 62.065 51.2458 62.065 50.2209C62.065 48.1711 62.1789 46.2351 62.2928 45.6657V45.0964C62.2928 44.9825 62.2928 44.7547 62.2928 44.527C62.2928 44.1853 62.4067 43.8437 62.4067 43.502C62.5206 42.8188 62.6344 42.1355 62.6344 41.4522V41.2245V41.1106V40.769V40.6551V40.9967V40.8828C62.6344 40.769 62.7483 40.6551 62.7483 40.5412C62.8622 40.3134 62.9761 40.0857 63.2038 39.8579C63.4316 39.6302 63.6594 39.5163 64.001 39.2885C64.3426 39.1746 64.6843 39.0608 65.0259 39.0608C65.1398 39.0608 65.2537 39.0608 65.2537 39.0608H65.4814H65.8231C66.0508 39.0608 66.1647 39.0608 66.3925 39.0608C66.5063 39.0608 66.7341 39.0608 66.848 39.0608H67.3035C67.1896 39.0608 67.5312 39.0608 68.1006 39.0608C68.4423 39.0608 68.67 39.0608 69.1255 38.9469C69.5811 38.833 69.9227 38.833 70.2643 38.833C70.2643 38.9469 70.1505 38.9469 70.0366 39.0608C70.2643 39.0608 70.1505 39.1746 70.2643 39.2885C70.4921 39.4024 70.606 39.6302 70.7199 39.8579C70.8337 40.0857 70.8337 40.4273 70.8337 40.6551C70.8337 40.769 70.9476 40.8828 70.9476 40.9967C70.9476 41.1106 70.9476 41.2245 70.9476 41.3383C70.9476 41.5661 70.9476 41.68 70.8337 41.68C70.7199 41.68 70.7199 41.68 70.4921 41.68C70.1505 41.5661 69.8088 41.5661 69.5811 41.5661C69.2394 41.5661 69.0117 41.5661 68.67 41.5661L67.759 41.68L66.848 41.7939C66.6202 41.7939 66.3925 41.7939 66.0508 41.9077C65.9369 41.9077 65.9369 41.9077 65.8231 41.9077H65.7092C65.7092 42.0216 65.7092 42.0216 65.7092 42.1355V42.4771C65.7092 42.7049 65.7092 42.9327 65.7092 43.1604C65.7092 43.8437 65.5953 45.0964 65.4814 46.5768C65.4814 46.9184 65.4814 47.2601 65.4814 47.6017H66.0508C66.2786 47.6017 66.5063 47.4878 66.7341 47.4878H67.1896C67.3035 47.4878 67.4174 47.4878 67.5312 47.4878C67.8729 47.4878 68.2145 47.4878 68.5562 47.4878H68.3284H67.9868H67.759C67.9868 47.4878 68.3284 47.4878 68.5562 47.4878H68.67C68.8978 47.4878 69.2394 47.4878 69.4672 47.4878C69.2394 47.6017 70.0366 47.4878 70.7199 47.3739C70.7199 47.4878 70.7199 47.4878 70.606 47.4878C70.4921 47.4878 70.7199 47.6017 70.7199 47.7156C70.9476 48.0572 71.0615 48.3988 71.0615 48.8544C71.4031 48.9682 71.517 49.0821 71.6309 49.196Z" fill="white"/>
<path d="M83.7026 45.4379V45.6656V45.7795V45.8934C83.7026 46.235 83.5887 46.5766 83.4748 46.9183C83.361 47.3738 83.1332 47.7154 82.9054 48.0571C82.6777 48.3987 82.4499 48.8542 82.1083 49.082C81.7666 49.4236 81.425 49.6514 81.0834 49.8791C81.0834 49.8791 81.0834 49.8791 80.9695 49.8791L81.0834 49.993L81.3111 50.1069C81.425 50.1069 81.425 50.2208 81.5389 50.2208H81.6528L81.7667 50.3347L81.8805 50.4485C81.8805 50.4485 81.8805 50.4485 81.9944 50.4485L82.1083 50.5624H82.2222L82.336 50.6763C82.336 50.6763 82.336 50.6763 82.4499 50.7902C82.5638 51.0179 82.7916 51.2457 82.9054 51.4734L83.0193 51.5873V51.7012L83.1332 51.8151C83.1332 51.8151 83.1332 51.929 83.2471 51.929V52.0428V52.1567C83.2471 52.1567 83.2471 52.3845 83.3609 52.3845C83.4748 52.6122 83.4748 52.9539 83.4748 53.1816C83.5887 53.6371 83.5887 54.0927 83.5887 54.5482C83.5887 54.6621 83.5887 54.8898 83.5887 55.3453V56.9396C83.5887 58.0784 83.4748 59.2172 83.3609 59.6727V60.2421C83.3609 60.356 83.3609 60.5838 83.3609 60.6976V60.8115V60.9254V61.0393V61.1532V61.4948C83.3609 61.6087 83.2471 61.7226 83.2471 61.8364C83.2471 61.8364 83.2471 61.9503 83.1332 61.9503C83.0193 61.9503 83.1332 61.9503 83.1332 61.9503C83.0193 62.0642 82.9054 62.0642 82.7916 62.1781C82.6777 62.2919 82.5638 62.2919 82.4499 62.2919L82.1083 62.4058C81.8805 62.4058 81.6528 62.4058 81.425 62.5197C81.3111 62.6336 81.0834 62.6336 80.9695 62.5197C80.4001 62.4058 80.0585 61.9503 79.9446 61.3809C79.9446 61.1532 79.9446 61.0393 79.9446 60.8115C79.9446 60.6976 79.9446 60.5838 79.9446 60.5838C79.9446 60.4699 79.9446 60.4699 79.9446 60.356C79.9446 60.1282 80.0585 60.0144 80.0585 59.7866C80.0585 59.5589 80.0585 59.445 80.0585 59.2172C80.0585 58.8756 80.1723 58.3062 80.1723 57.6229C80.1723 57.2813 80.1723 56.9396 80.1723 56.4841C80.1723 56.0286 80.1723 55.687 80.1723 55.2314C80.1723 54.6621 80.0585 54.2065 79.9446 53.6371C79.9446 53.4094 79.8307 53.1816 79.8307 52.9539C79.8307 52.7261 79.7168 52.6122 79.7168 52.6122C79.7168 52.6122 79.6029 52.3845 79.6029 52.2706L79.4891 52.1567L79.8307 52.2706C79.8307 52.2706 79.8307 52.2706 79.7168 52.2706H79.6029H79.4891H79.3752H79.2613C79.2613 52.2706 78.8058 52.0428 78.578 52.0428L77.8948 51.8151H77.7809H77.667H77.4392C77.2115 51.8151 76.9837 51.8151 76.756 51.8151H76.6421C76.6421 51.929 76.6421 52.0428 76.6421 52.0428V53.9788C76.6421 54.4343 76.6421 54.8898 76.5282 55.3453C76.4143 56.2564 76.5282 57.3952 76.5282 58.5339C76.5282 59.1033 76.5282 59.6727 76.4143 60.2421C76.4143 60.6976 76.3005 61.267 76.0727 61.7226C75.9588 62.1781 75.7311 62.5197 75.5033 62.9752C75.5033 63.0891 75.3894 63.0891 75.3894 63.203C75.3894 63.3169 75.2755 63.3169 75.2755 63.4307L75.0478 63.7724L74.9339 63.8863C74.82 63.8863 74.7061 64.0001 74.5923 64.0001C74.4784 64.0001 74.3645 64.0001 74.3645 64.0001C74.2506 64.0001 74.1368 63.8863 74.0229 63.8863C73.909 63.7724 73.7951 63.6585 73.6812 63.5446L73.5674 63.3169C73.4535 63.203 73.4535 63.203 73.4535 63.0891C73.3396 62.9752 73.3396 62.8613 73.2257 62.7475C73.2257 62.7475 73.1118 62.6336 73.1118 62.5197C73.1118 62.5197 73.1118 62.4058 72.998 62.4058C72.8841 62.4058 72.6563 62.4058 72.6563 62.0642V61.9503V61.8364V61.267C72.6563 61.1532 72.6563 61.0393 72.6563 61.0393C72.6563 60.9254 72.6563 60.9254 72.6563 60.8115C72.6563 60.6976 72.6563 60.5838 72.6563 60.4699C72.6563 60.1282 72.7702 59.7866 72.7702 59.445C72.8841 58.6478 72.8841 57.8507 72.8841 57.6229C72.8841 57.3951 72.8841 57.1674 72.8841 56.9396C72.8841 56.2564 72.8841 55.8008 72.8841 55.2314C72.8841 54.7759 72.8841 53.2955 72.8841 51.929C72.8841 50.5624 72.7702 49.1959 72.8841 48.8542C72.998 48.0571 72.8841 47.3738 72.7702 46.5766C74.1368 45.8934 72.5424 46.3489 72.7702 44.0713C72.8841 43.2742 72.7702 42.9325 72.5424 42.8186V42.7048C72.5424 42.477 72.5424 42.2492 72.5424 42.1354C72.3147 40.5411 72.6563 38.9468 73.5674 38.8329C73.7951 38.8329 73.909 38.8329 74.1368 38.8329C74.82 38.719 75.5033 38.719 76.1866 38.719C76.4143 38.719 76.6421 38.719 76.8698 38.719C77.0976 38.719 77.3254 38.719 77.5531 38.719C77.7809 38.719 78.0086 38.719 78.2364 38.8329C78.8058 38.9468 79.2613 39.0606 79.7168 39.2884C80.0585 39.4023 80.4001 39.63 80.7417 39.7439C80.9695 39.8578 81.1973 39.9717 81.3111 40.1994C81.425 40.1994 81.5389 40.3133 81.6528 40.4272L81.7667 40.5411C81.8805 40.5411 81.8805 40.6549 81.8805 40.6549L81.9944 40.7688L82.1083 40.8827L82.336 41.2243L82.4499 41.3382L82.5638 41.4521C82.5638 41.566 82.6777 41.6798 82.7916 41.7937C83.0193 42.1354 83.1332 42.477 83.2471 42.7048C83.2471 42.7048 83.2471 42.7048 83.2471 42.8186V42.9325C83.2471 43.0464 83.2471 43.0464 83.3609 43.1603C83.4748 43.2742 83.3609 43.2742 83.3609 43.388C83.3609 43.5019 83.3609 43.5019 83.3609 43.6158V43.8435C83.3609 43.9574 83.3609 43.9574 83.3609 44.0713V44.1852V44.2991C83.3609 44.4129 83.3609 44.4129 83.3609 44.5268C83.3609 44.6407 83.3609 44.7546 83.3609 44.8685L83.7026 45.4379ZM79.6029 43.1603C79.4891 42.9325 79.4891 42.8186 79.3752 42.7048L79.1474 42.3631C79.0336 42.2492 78.9197 42.1354 78.8058 42.1354H78.4642H78.3503L78.2364 42.0215C78.2364 42.0215 78.2364 42.0215 78.1225 42.0215H78.0086H77.8948H77.7809H77.667L77.4392 41.566C77.0976 41.4521 76.756 41.4521 76.4143 41.3382C76.3005 41.3382 76.3005 41.3382 76.1866 41.2243H76.0727C76.1866 41.4521 76.1866 41.6798 76.1866 41.9076C76.1866 42.1354 76.1866 42.3631 76.3005 42.5909C76.4143 43.5019 76.5282 44.4129 76.6421 45.324C76.6421 45.7795 76.6421 46.235 76.6421 46.8044C76.6421 47.3738 76.6421 47.9432 76.6421 48.8542L76.9837 48.7403L77.5531 48.5126C77.8948 48.3987 78.2364 48.2848 78.578 48.0571C78.6919 48.0571 78.8058 47.9432 78.8058 47.9432C78.9197 47.8293 79.0336 47.8293 79.1474 47.7154C79.2613 47.4877 79.4891 47.3738 79.6029 47.146C79.6029 47.0322 79.7168 46.9183 79.7168 46.8044C79.8307 46.6905 79.8307 46.5766 79.8307 46.3489V46.235V46.1211V46.0073V45.8934V45.5517V45.2101C79.8307 45.0962 79.8307 45.0962 79.8307 44.9823V44.7546C79.8307 44.6407 79.8307 44.5268 79.7168 44.4129C79.6029 44.2991 79.7168 44.2991 79.7168 44.1852C79.7168 44.0713 79.7168 44.0713 79.7168 43.9574V43.8435V43.7297V43.6158C79.7168 43.6158 79.7168 43.6158 79.7168 43.5019V43.388V43.2742C79.7168 43.2742 79.7168 43.1603 79.6029 43.1603ZM79.9446 52.4984C79.9446 52.3845 80.0585 52.3845 79.9446 52.4984V52.4984Z" fill="white"/>
<path d="M89.0531 57.3948C89.0531 57.7364 89.0531 58.3058 89.0531 58.6474C89.0531 59.3307 89.0531 59.9001 88.9392 60.5834C88.9392 60.6973 88.9392 60.925 88.9392 61.0389C88.9392 61.1528 89.0531 61.1528 89.0531 61.2667C89.0531 61.2667 89.0531 61.3805 88.9392 61.4944V61.7222V61.9499C88.9392 62.1777 88.7115 62.4054 88.5976 62.5193L88.4837 62.6332C88.3698 62.6332 88.3698 62.6332 88.256 62.6332C88.256 62.6332 88.1421 62.6332 88.0282 62.6332C87.9143 62.6332 87.8005 62.7471 87.6866 62.6332H87.3449C87.1172 62.6332 86.8894 62.5193 86.6617 62.5193C86.5478 62.5193 86.32 62.5193 86.2061 62.4054C86.0923 62.2916 85.9784 62.1777 85.8645 62.1777H85.7506C85.7506 62.1777 85.6367 62.1777 85.6367 62.0638C85.6367 61.9499 85.5229 61.9499 85.5229 61.9499H85.409L85.2951 61.8361C85.2951 61.8361 85.2951 61.7222 85.1812 61.7222V61.6083V61.4944V61.3805V61.2667C85.1812 61.1528 85.1812 61.0389 85.1812 60.925C85.1812 60.8111 85.1812 60.8111 85.1812 60.6973C85.1812 60.6973 85.1812 60.5834 85.2951 60.4695V60.3556V60.2417V60.014C85.409 59.7862 85.409 59.3307 85.5229 58.7613C85.6367 58.1919 85.7506 57.5086 85.7506 56.9393C85.8645 56.1421 85.8645 55.2311 85.8645 55.0033C85.8645 54.4339 85.8645 53.7506 85.7506 53.0674C85.6368 52.3841 85.7506 51.5869 85.7506 51.1314C85.7506 50.4482 85.7506 49.7649 85.6367 49.0816C85.5229 48.2844 85.409 47.4873 85.409 46.9179C85.409 46.5763 85.409 46.3485 85.2951 46.0069C85.2951 45.6652 85.2951 45.4375 85.2951 45.0958C85.2951 44.7542 85.1812 44.2987 85.1812 43.957C85.1812 43.3877 85.0674 42.9321 84.9535 42.3627C84.8396 41.9072 84.8396 41.3378 84.8396 40.8823C84.8396 40.7684 84.8396 40.6546 84.8396 40.5407C84.7257 40.199 84.8396 39.7435 85.0674 39.4019C85.2951 39.288 85.409 39.0602 85.6367 39.0602C85.8645 39.0602 86.0923 39.0602 86.2061 38.8325C86.4339 38.7186 86.7755 38.6047 87.1172 38.6047C87.9143 38.6047 88.4837 39.1741 88.5976 39.9713C88.5976 40.0852 88.5976 40.199 88.5976 40.199C88.5976 40.3129 88.5976 40.4268 88.5976 40.5407C88.7115 40.9962 88.7115 41.4517 88.8254 41.9072C88.8254 42.4766 88.7115 43.046 88.7115 43.3877C88.7115 43.5015 88.8254 43.7293 88.8254 43.8432C88.8254 43.957 88.9392 44.982 88.9392 45.893C88.9392 46.804 89.0531 47.8289 89.167 48.1706V48.5122C89.167 48.74 89.167 49.4232 89.167 49.8788C89.167 50.2204 89.167 50.7898 89.167 51.4731C89.2809 52.0425 89.2809 52.7257 89.2809 53.2951C89.2809 53.9784 89.2809 54.6617 89.2809 55.2311C89.2809 55.4588 89.2809 55.6866 89.2809 55.9143C89.2809 56.0282 89.2809 56.1421 89.2809 56.3699V56.9393C88.9392 57.0531 89.0531 57.2809 89.0531 57.3948Z" fill="white"/>
<path d="M100.783 62.0643C100.783 62.1782 100.897 62.2921 100.783 62.2921C100.669 62.2921 100.783 62.2921 100.669 62.406L100.441 62.5198C100.327 62.5198 100.213 62.5198 100.213 62.5198C100.099 62.5198 99.9856 62.5198 99.9856 62.6337C99.7578 62.6337 99.644 62.6337 99.5301 62.7476C99.1884 62.7476 98.8468 62.8615 98.5052 62.9754C97.8219 63.0892 97.1386 63.2031 96.4553 63.317H96.3415H96.1137C95.9998 63.317 95.886 63.317 95.7721 63.317H94.9749C94.861 63.317 94.861 63.317 94.7472 63.317H94.5194H94.2917C94.1778 63.317 94.1778 63.317 94.0639 63.317C93.7223 63.317 93.3806 63.2031 93.039 63.0892H92.9251H92.8112H92.6973L92.5835 62.9754H92.4696C92.4696 62.9754 92.4696 62.9754 92.3557 62.9754L92.2418 62.7476H92.128L92.0141 62.6337C92.0141 62.6337 91.9002 62.6337 91.9002 62.5198C91.9002 62.406 91.7863 62.5198 91.7863 62.5198L91.5586 62.406C91.5586 62.406 91.4447 62.2921 91.3308 62.1782H91.2169L91.103 61.9504L90.9892 61.8366L90.8753 61.7227C90.8753 61.6088 90.7614 61.6088 90.7614 61.4949L90.6475 61.2672L90.5336 61.0394V60.9255C90.5336 60.9255 90.5336 60.9255 90.4198 60.8117C90.3059 60.6978 90.4198 60.6978 90.4198 60.5839C90.4198 60.5839 90.3059 60.47 90.3059 60.3561V60.2423C90.192 60.0145 90.192 59.6729 90.192 59.4451C90.192 59.3312 90.192 59.2174 90.0781 59.1035V58.8757C90.0781 58.7618 90.0781 58.7618 90.0781 58.648C90.0781 58.5341 90.0781 58.3063 90.0781 58.1924V58.0786C90.0781 58.0786 90.0781 57.9647 90.0781 57.8508V57.2814C90.0781 57.0536 90.0781 56.9398 90.0781 56.712C90.0781 55.1177 90.0781 53.2956 90.192 51.3597C90.192 51.1319 90.192 50.9042 90.3059 50.6764C90.3059 50.5625 90.3059 50.4487 90.3059 50.3348V50.107C90.3059 49.8793 90.4198 49.6515 90.4198 49.4238C90.4198 49.3099 90.4198 49.196 90.4198 49.0821C90.4198 48.9682 90.5336 48.8544 90.5336 48.7405C90.6475 47.8294 90.7614 47.0323 90.8753 46.2351L90.9892 45.6657C90.9892 45.5519 90.9892 45.438 90.9892 45.3241C90.9892 45.2102 90.9892 45.2102 90.9892 45.2102V45.0964C91.103 44.7547 91.103 44.4131 91.2169 44.0714L91.3308 43.6159C91.3308 43.502 91.4447 43.3882 91.4447 43.2743C91.5586 43.0465 91.5586 42.8188 91.5586 42.7049C91.6724 42.3633 91.7863 41.9077 91.9002 41.4522C92.0141 40.9967 92.2418 40.6551 92.4696 40.3134C92.5835 40.1996 92.6973 40.0857 92.8112 39.9718C92.9251 39.6302 93.2667 39.4024 93.6084 39.4024H93.8361C94.0639 39.2885 94.2916 39.2885 94.6333 39.1746C94.861 39.1746 95.6582 39.0608 95.9998 39.0608C96.2276 39.0608 96.3415 39.0608 96.5692 39.0608C96.9109 38.9469 97.2525 38.9469 97.5941 38.9469L98.2774 38.833C98.3913 38.833 98.619 38.833 98.7329 38.833H99.0746H99.1884H99.3023H99.5301C99.644 38.833 99.644 38.833 99.7578 38.833C99.8717 38.833 99.8717 38.833 99.9856 38.833L100.213 39.0608L100.327 39.1746C100.327 39.2885 100.441 39.2885 100.441 39.4024C100.441 39.5163 100.441 39.5163 100.441 39.6302C100.441 39.6302 100.441 39.744 100.327 39.8579C100.213 39.9718 100.213 40.0857 100.213 40.1996C100.213 40.3134 100.099 40.4273 100.099 40.4273C99.9856 40.5412 99.8717 40.769 99.7578 40.8828C99.644 40.9967 99.644 41.1106 99.5301 41.1106C99.4162 41.1106 99.4162 41.2245 99.3023 41.2245C99.1884 41.2245 99.1884 41.2245 98.9607 41.2245H98.7329C98.619 41.2245 98.5052 41.2245 98.3913 41.2245C98.2774 41.2245 97.708 41.2245 97.3664 41.3383C97.0247 41.4522 96.5692 41.4522 96.2276 41.4522C96.2276 41.5661 96.1137 41.68 96.1137 41.9077L95.886 42.591C95.886 42.8188 95.7721 43.0465 95.7721 43.2743C95.6582 43.502 95.6582 43.7298 95.6582 43.9576C95.6582 44.0714 95.6582 44.1853 95.5443 44.1853C95.5443 44.1853 95.5443 44.2992 95.5443 44.4131C95.5443 44.527 95.5443 44.527 95.5443 44.6408C95.4304 44.9825 95.3166 45.5519 95.3166 45.8935C95.2027 46.1213 95.2027 46.349 95.2027 46.5768C95.2027 46.8045 95.0888 47.0323 95.0888 47.1462C95.0888 47.3739 94.9749 47.6017 94.9749 47.8295C95.0888 47.8295 95.0888 47.8295 95.2027 47.8295C95.3166 47.8295 95.4304 47.8295 95.5443 47.8295C95.6582 47.8295 95.6582 47.8295 95.7721 47.8295C95.9998 47.8295 96.1137 47.8295 96.3415 47.8295C96.6831 47.8295 97.0247 47.8295 97.3664 47.7156C97.4803 47.7156 97.4803 47.7156 97.5941 47.7156H98.0497C98.1635 47.7156 98.3913 47.7156 98.5052 47.7156C98.6191 47.7156 98.7329 47.7156 98.8468 47.7156H99.0746H99.3023C99.4162 47.7156 99.5301 47.7156 99.644 47.7156C99.644 47.7156 99.7578 47.7156 99.7578 47.8295H99.8717H99.9856C100.099 47.8295 100.099 47.9433 100.213 48.0572C100.327 48.1711 100.327 48.1711 100.327 48.285C100.327 48.3988 100.441 48.3988 100.441 48.5127C100.441 48.6266 100.441 48.8544 100.555 48.9682C100.555 49.0821 100.555 49.196 100.555 49.3099C100.441 49.6515 100.099 49.9932 99.7578 50.107C99.5301 50.2209 99.3023 50.2209 98.9607 50.3348C98.7329 50.3348 98.3913 50.3348 98.1635 50.4487C97.9358 50.5625 98.0497 50.4487 98.1635 50.4487C98.2774 50.4487 98.2774 50.4487 98.1635 50.4487L97.5941 50.5625H97.1386C97.0247 50.5625 97.0247 50.5625 96.9109 50.5625C96.797 50.5625 96.6831 50.5625 96.5692 50.5625C96.4554 50.5625 96.2276 50.5625 96.1137 50.5625C95.9998 50.5625 95.9998 50.5625 95.886 50.5625H95.5443C95.2027 50.6764 94.7472 50.6764 94.4055 50.7903C94.4055 50.9042 94.4055 51.1319 94.4055 51.2458C94.2917 51.7013 94.2917 52.1569 94.2917 52.7262C94.2917 52.954 94.2917 53.1818 94.2917 53.5234C94.2917 53.865 94.2917 53.9789 94.2917 54.2067C94.2917 54.4344 94.2917 54.6622 94.2917 54.8899V57.1675C94.2917 57.5092 94.2917 57.8508 94.2917 58.1924V58.9896V59.2174V60.0145C94.2917 60.1284 94.2917 60.2423 94.2917 60.2423V60.3561V60.47C94.2917 60.47 94.2917 60.47 94.2917 60.5839C94.2917 60.5839 94.2917 60.5839 94.2917 60.6978C94.2917 60.6978 94.4055 60.6978 94.4055 60.8117C94.5194 60.9255 94.5194 60.9255 94.6333 61.0394L95.0888 61.1533C95.2027 61.1533 95.4304 61.1533 95.5443 61.1533H95.6582H95.7721H96.797C96.6831 61.1533 97.0247 61.1533 97.4803 61.0394C97.8219 61.0394 98.0497 60.9255 98.3913 60.8117C98.5052 60.8117 98.7329 60.6978 98.8468 60.6978C98.9607 60.6978 98.9607 60.6978 99.0746 60.5839L99.3023 60.47C99.3023 60.5839 99.3023 60.5839 99.1884 60.5839C99.3023 60.5839 99.3023 60.6978 99.4162 60.6978C99.8717 60.8117 100.099 61.1533 100.327 61.3811C100.555 61.8366 100.669 61.9504 100.783 62.0643Z" fill="white"/>
<path d="M115.703 48.3983V51.1314C115.703 51.5869 115.703 52.0425 115.703 52.498V53.1812C115.703 53.409 115.703 53.6368 115.703 53.8645C115.703 54.0923 115.703 54.32 115.703 54.5478V55.2311C115.703 55.4588 115.703 55.6866 115.703 55.9143V56.256C115.703 56.3699 115.703 56.4837 115.703 56.5976V56.9393V57.0531V57.167C115.589 57.9642 115.589 58.7613 115.475 59.4446C115.475 59.6723 115.475 59.9001 115.475 60.014V60.2417C115.475 60.2417 115.475 60.3556 115.361 60.4695C115.247 60.5834 115.133 60.925 115.019 61.1528C114.905 61.3805 114.905 61.3805 114.792 61.6083L114.678 61.8361V61.9499C114.678 61.9499 114.678 61.9499 114.564 61.9499C114.45 62.0638 114.336 62.1777 114.222 62.1777C114.108 62.2916 113.881 62.4054 113.767 62.4054C113.539 62.5193 113.311 62.6332 113.083 62.6332C112.97 62.6332 112.856 62.6332 112.742 62.6332H112.286H112.172H112.058C111.945 62.6332 111.945 62.6332 111.831 62.5193C111.717 62.5193 111.717 62.5193 111.603 62.5193C111.603 62.6332 111.603 62.6332 111.489 62.6332C111.375 62.6332 111.375 62.5193 111.261 62.5193C111.261 62.5193 111.147 62.5193 111.147 62.4054H111.034V62.2916C111.034 62.2916 110.92 62.2916 110.92 62.1777H110.806L110.464 62.2916C110.464 62.2916 110.464 62.2916 110.35 62.2916V62.1777V62.0638C110.35 62.0638 110.35 62.0638 110.35 61.9499V61.8361C110.35 61.8361 110.35 61.8361 110.236 61.7222C110.123 61.6083 110.236 61.6083 110.236 61.6083C110.236 61.6083 110.236 61.4944 110.123 61.4944C110.009 61.4944 110.123 61.3805 110.123 61.3805C110.123 61.3805 110.123 61.2667 110.009 61.2667C109.895 61.2667 110.009 61.1528 110.009 61.1528C110.009 61.0389 109.895 60.925 109.895 60.925L109.781 60.6973C109.781 60.5834 109.667 60.4695 109.667 60.3556C109.667 60.2417 109.553 60.1279 109.553 60.014C109.439 59.6723 109.325 59.2168 109.212 58.7613C109.098 58.3058 108.984 57.8503 108.87 57.3948C108.756 57.0531 108.642 56.5976 108.528 56.256C108.414 56.0282 108.414 55.8005 108.3 55.5727C108.073 54.6617 107.845 53.6368 107.503 52.6119C107.162 51.5869 107.048 50.562 106.706 49.5371C106.592 48.9677 106.478 48.5122 106.365 47.9428C106.251 47.3734 106.023 46.9179 105.909 46.3485C105.795 45.7791 105.681 45.3236 105.454 44.7542C105.34 44.5264 105.34 44.2987 105.226 43.957C105.112 43.8432 105.112 43.7293 105.112 43.6154V43.5015V44.8681C105.112 45.3236 105.112 45.7791 105.112 46.2346C105.112 47.1457 105.112 47.9428 105.226 48.8538C105.34 49.7649 105.34 50.4482 105.34 51.1314C105.454 52.6119 105.454 53.7506 105.454 54.5478C105.454 55.3449 105.567 56.4837 105.454 57.3948C105.454 58.3058 105.34 59.3307 105.226 60.2417C105.112 60.8111 104.884 61.4944 104.656 61.9499C104.542 62.1777 104.429 62.4054 104.201 62.6332C104.087 62.7471 103.973 62.861 103.859 62.861L103.631 62.9748H103.518H103.404H103.29H103.176C103.176 62.861 103.062 62.7471 103.062 62.7471C103.062 62.6332 102.948 62.5193 102.834 62.5193C102.834 62.5193 102.72 62.5193 102.72 62.4054C102.72 62.2916 102.607 62.2916 102.607 62.2916C102.493 62.1777 102.379 61.9499 102.265 61.7222C102.151 61.4944 102.037 61.2667 101.923 60.925C101.809 60.2417 101.695 59.5585 101.809 58.8752C101.923 57.8503 101.923 56.7115 101.923 55.6866C101.923 54.6617 101.923 53.5229 101.923 52.498C101.923 51.9286 101.923 49.651 101.809 47.3734C101.809 46.2346 101.809 45.0958 101.809 44.1848V43.2738C101.809 43.1599 101.809 43.046 101.809 43.046V42.4766C101.809 42.135 101.809 41.9072 101.923 41.6795C101.923 41.5656 102.037 41.3378 102.037 41.1101V40.9962V40.8823V40.7684V40.6546C102.037 40.6546 102.037 40.6546 102.037 40.5407C102.037 40.4268 102.037 40.4268 102.151 40.4268C102.265 40.4268 102.151 40.4268 102.151 40.3129C102.151 40.199 102.151 40.3129 102.151 40.3129C102.151 40.3129 102.151 40.3129 102.151 40.199C102.265 40.0852 102.379 39.9713 102.493 39.8574L102.72 39.7435C102.72 39.7435 102.834 39.7435 102.834 39.6296C102.834 39.6296 102.834 39.6296 102.948 39.5158C103.062 39.4019 103.29 39.4019 103.404 39.4019C103.518 39.4019 103.745 39.4019 103.859 39.4019C104.201 39.4019 104.542 39.4019 104.884 39.5158C105.226 39.6296 105.567 39.7435 105.909 39.8574C106.023 39.9713 106.023 39.9713 106.137 39.9713C106.251 39.9713 106.251 40.0852 106.365 40.0852C106.478 40.199 106.706 40.3129 106.706 40.4268C106.82 40.5407 106.934 40.7684 107.048 40.9962L107.389 41.6795C107.503 41.9072 107.617 42.135 107.731 42.3627C107.731 42.3627 107.731 42.4766 107.845 42.5905V42.7044C107.845 42.8183 107.845 42.8183 107.959 42.9321C108.073 43.1599 108.187 43.5015 108.3 43.7293C108.414 43.957 108.528 44.2987 108.528 44.5264C108.87 45.6652 109.212 46.804 109.553 48.0567C109.667 48.3983 109.781 48.6261 109.781 48.9677C109.895 49.3094 109.895 49.5371 110.009 49.8788C110.123 50.4481 110.35 51.0175 110.464 51.5869C110.806 52.7257 111.034 53.7506 111.261 54.7756C111.375 55.0033 111.375 55.2311 111.489 55.4588C111.489 55.5727 111.603 55.6866 111.603 55.8005V55.9143V56.0282C111.603 56.0282 111.603 56.1421 111.717 56.1421C111.717 56.1421 111.717 56.1421 111.717 56.256C111.717 56.3699 111.717 56.256 111.717 56.3699H111.831C111.831 56.3699 111.831 56.3699 111.831 56.256C111.831 56.1421 111.831 56.1421 111.831 56.0282V55.9143V55.8005V54.6617C111.831 54.4339 111.831 54.32 111.831 54.0923V52.9535C111.831 52.1563 111.831 51.2453 111.831 50.4481C111.831 49.651 111.831 48.74 111.945 47.9428V46.804C111.945 46.4624 111.945 46.1207 111.945 45.7791C111.945 46.1207 111.945 45.4375 111.945 44.2987C111.945 43.1599 111.831 41.6795 111.717 40.3129C111.831 40.3129 111.831 40.5407 111.945 40.6546C111.945 40.3129 112.172 40.4268 112.286 40.199C112.628 39.1741 113.197 39.1741 113.767 38.9464C113.994 38.8325 114.222 38.6047 114.45 38.6047C114.678 38.6047 114.792 38.6047 114.792 38.7186C114.905 38.9464 114.905 39.1741 114.905 39.5158C115.019 40.7684 115.019 42.135 115.133 43.5015V44.5264V45.4375C115.133 46.1208 115.133 46.804 115.247 47.4873C115.361 47.6012 115.475 48.0567 115.703 48.3983Z" fill="white"/>
<path d="M129.138 51.9287V52.612C129.138 53.1814 129.025 53.6369 128.911 54.2063C128.683 55.2312 128.341 56.2561 127.886 57.281C127.43 58.192 126.747 59.1031 126.064 59.9002C125.38 60.5835 124.697 61.1529 123.9 61.7223C123.558 61.9501 123.217 62.1778 122.875 62.2917C122.761 62.2917 122.533 62.4056 122.42 62.5194C122.306 62.5194 122.192 62.6333 122.078 62.7472L121.622 62.975C121.509 62.975 121.281 63.0888 121.167 63.0888C121.053 63.0888 120.825 63.2027 120.711 63.2027L120.256 63.3166C119.914 63.4305 119.573 63.4305 119.345 63.4305C119.003 63.4305 118.662 63.4305 118.434 63.4305C117.978 63.4305 117.637 63.2027 117.295 62.975C117.067 62.7472 116.839 62.5194 116.839 62.1778C116.839 62.0639 116.839 61.8362 116.953 61.8362C116.953 61.8362 116.953 61.8362 117.067 61.8362C117.067 61.1529 116.953 60.3557 116.839 59.6725C116.726 58.6476 116.839 57.0533 116.839 56.0283V47.8291C116.839 47.4874 116.839 47.1458 116.839 46.6903C116.839 46.007 116.839 45.3237 116.839 44.6404C116.839 44.2988 116.839 44.071 116.839 43.7294C116.839 43.3878 116.839 43.16 116.839 42.9323C116.839 42.4767 116.839 42.0212 116.726 41.7935V41.5657V41.338V40.8824C116.726 40.5408 116.726 40.1992 116.953 39.9714C117.181 39.402 117.637 39.0604 118.206 38.9465C118.32 38.8326 118.548 38.8326 118.662 38.9465C118.889 38.9465 119.117 39.0604 119.345 39.0604C119.459 39.0604 119.686 39.1743 119.8 39.1743C120.37 39.1743 120.939 39.2881 121.622 39.5159C122.42 39.7436 123.217 39.9714 123.9 40.313L124.242 40.5408L124.469 40.6547L124.697 40.7686C124.811 40.8824 124.925 40.8824 125.039 40.9963C125.153 41.1102 125.267 41.1102 125.38 41.2241C125.38 41.2241 125.38 41.2241 125.494 41.2241H125.608C125.722 41.2241 125.722 41.338 125.722 41.338C125.836 41.338 125.836 41.4518 125.95 41.4518C125.95 41.4518 125.95 41.4518 126.064 41.4518L126.178 41.5657C126.291 41.6796 126.405 41.7935 126.519 41.7935C126.633 41.9073 126.747 42.0212 126.861 42.1351C127.202 42.4767 127.544 42.9323 127.886 43.3878C127.886 43.3878 127.886 43.5017 128 43.6155V43.7294C128 43.8433 128.113 43.9572 128.227 43.9572V44.071C128.227 44.071 128.227 44.1849 128.341 44.1849C128.341 44.2988 128.455 44.4127 128.455 44.4127C128.683 44.9821 128.911 45.4376 129.025 46.007C129.252 46.8041 129.48 47.4874 129.594 48.2846C129.708 49.0817 129.822 50.1066 129.822 51.0177V51.8148L129.138 51.9287ZM126.291 51.3593C126.291 51.1315 126.291 50.9038 126.291 50.676C126.291 50.4483 126.291 50.2205 126.291 49.9928C126.291 49.765 126.291 49.5372 126.178 49.4234C126.178 49.3095 126.178 49.0817 126.064 48.9678C126.064 48.854 126.064 48.854 126.064 48.7401C126.064 48.7401 126.064 48.6262 126.064 48.5123C126.064 48.3984 126.064 48.2846 126.064 48.2846C125.95 47.6013 125.722 46.918 125.494 46.3486C125.267 45.6654 124.925 45.096 124.583 44.6404C124.583 44.5266 124.469 44.5266 124.469 44.4127C124.355 44.4127 124.355 44.2988 124.355 44.2988C124.242 44.1849 124.128 44.071 124.014 43.9572C124.014 43.8433 123.9 43.8433 123.786 43.7294C123.786 43.7294 123.786 43.7294 123.672 43.6155L123.558 43.5017C123.444 43.5017 123.444 43.3878 123.331 43.3878H123.217L123.103 43.2739C122.647 42.9323 122.078 42.5906 121.509 42.3629C121.622 42.3629 121.509 42.3629 121.395 42.3629H121.281H121.167H121.053H120.939H120.825C120.825 42.3629 120.711 42.3629 120.597 42.3629C120.597 42.3629 120.597 42.3629 120.484 42.3629V42.7045C120.484 42.9323 120.484 43.16 120.484 43.3878C120.484 43.7294 120.484 44.071 120.484 44.5266C120.484 44.6404 120.484 44.7543 120.484 44.8682V46.3486C120.484 46.5764 120.484 47.0319 120.37 47.8291V50.2205C120.37 51.9287 120.37 53.523 120.37 53.9785C120.37 55.1173 120.256 56.2561 120.256 57.3949C120.256 57.9643 120.256 58.5337 120.256 58.9892C120.256 59.5586 120.256 60.0141 120.142 60.5835C120.484 60.4696 120.825 60.3557 121.167 60.2419C121.395 60.128 121.622 60.0141 121.85 59.9002C122.306 59.6725 122.647 59.4447 122.989 59.1031C123.217 58.9892 123.331 58.7614 123.444 58.6476C123.558 58.5337 123.786 58.3059 123.9 58.192C124.014 58.0782 124.128 57.9643 124.242 57.8504L124.355 57.7365C124.355 57.7365 124.355 57.7365 124.469 57.6226C124.811 57.1671 125.039 56.7116 125.38 56.1422C125.38 56.1422 125.38 56.1422 125.38 56.0283C125.38 56.0283 125.38 55.9145 125.494 55.9145C125.608 55.9145 125.494 55.8006 125.608 55.8006V55.6867C125.722 55.4589 125.722 55.2312 125.836 55.0034C125.95 54.7757 125.95 54.5479 125.95 54.3202C126.064 54.0924 126.064 53.8646 126.064 53.6369C126.064 53.4091 126.178 53.1814 126.178 52.9536V52.1565L126.291 51.3593Z" fill="white"/>
<path d="M140.983 58.5336C140.983 58.5336 140.983 58.6474 140.983 58.7613V58.8752V58.9891V59.103V59.2168C140.983 59.2168 140.983 59.3307 140.983 59.4446C140.869 59.5585 140.869 59.6723 140.755 59.9001C140.641 60.2417 140.414 60.5834 140.186 60.8111L140.072 60.925L139.958 61.0389L139.844 61.1528C139.844 61.2667 139.73 61.2667 139.73 61.2667L139.616 61.3805C139.503 61.4944 139.503 61.4944 139.389 61.6083C139.047 61.8361 138.705 62.0638 138.364 62.2916C138.022 62.5193 137.567 62.6332 137.225 62.7471C136.883 62.861 136.542 62.9748 136.2 62.9748L135.517 63.0887C134.834 63.0887 134.264 63.0887 133.581 62.9748C133.467 62.9748 133.467 62.9748 133.353 62.9748C133.239 62.9748 133.125 62.9748 133.125 62.861C133.011 62.861 132.898 62.861 132.898 62.861C132.784 62.861 132.67 62.861 132.556 62.861L132.1 62.6332L131.873 62.5193L131.645 62.4054H131.531L131.417 62.2916C131.076 62.1777 130.734 61.9499 130.506 61.7222C130.278 61.4944 130.051 61.2667 129.709 61.1528C129.253 60.6973 128.912 60.2417 128.684 59.6724C128.684 59.6724 128.684 59.5585 128.684 59.4446V59.2168C128.684 59.103 128.684 59.103 128.684 58.9891C128.798 58.7613 128.912 58.5336 128.912 58.5336V58.4197C128.912 58.4197 129.026 58.3058 129.026 58.1919C129.026 58.078 129.026 57.9642 129.026 57.8503C129.026 57.8503 129.026 57.7364 129.026 57.8503C129.026 57.6225 129.14 57.7364 129.14 57.7364C129.14 57.7364 129.253 57.8503 129.253 57.7364C129.367 57.7364 129.367 57.8503 129.481 57.8503C129.595 57.7364 129.709 57.7364 129.823 57.8503C129.823 57.8503 129.937 57.9642 129.937 58.078H130.051C130.051 58.078 130.165 57.9642 130.278 57.8503C130.392 57.7364 130.392 57.7364 130.506 57.7364C130.62 57.7364 130.62 57.8503 130.734 57.8503C130.848 57.8503 130.962 57.8503 130.962 57.8503C130.962 57.8503 131.076 57.8503 131.076 57.9642V58.078C131.076 58.1919 131.076 58.078 131.076 58.078C131.076 58.078 131.076 58.3058 131.189 58.4197C131.303 58.5336 131.303 58.4197 131.303 58.4197V58.3058C131.303 58.3058 131.303 58.3058 131.417 58.3058C131.417 58.3058 131.417 58.4197 131.531 58.4197V58.7613V58.8752V58.9891L131.645 59.103L131.759 59.2168C131.759 59.2168 131.759 59.2168 131.759 59.3307C131.873 59.4446 131.873 59.4446 131.873 59.5585C132.214 59.9001 132.67 60.1279 133.125 60.1279C133.581 60.2417 134.15 60.2417 134.72 60.2417L135.061 60.1279C135.175 60.1279 135.289 60.014 135.403 60.014L135.745 59.7862L136.086 59.5585C136.314 59.4446 136.542 59.2168 136.656 59.103L136.769 58.9891C136.769 58.9891 136.769 58.9891 136.883 58.9891C136.883 58.9891 136.883 58.9891 136.997 58.8752C136.997 58.8752 137.225 58.6474 137.225 58.5336L137.339 58.4197C137.339 58.4197 137.339 58.3058 137.453 58.3058C137.567 58.3058 137.453 58.1919 137.453 58.1919C137.453 58.078 137.453 57.8503 137.339 57.7364C137.225 57.6225 137.225 57.3948 137.111 57.2809C137.111 57.167 136.997 56.9393 136.997 56.7115C136.997 56.5976 136.883 56.3699 136.883 56.256C136.656 55.9143 136.428 55.3449 136.2 54.7756C135.972 54.32 135.745 53.7506 135.631 53.2951C135.517 53.0674 135.403 52.8396 135.289 52.6119C135.061 52.2702 134.834 51.9286 134.606 51.4731C134.378 51.0175 134.036 50.6759 133.695 50.3343C133.353 49.9926 133.239 49.7649 133.125 49.5371C133.011 49.4232 132.898 49.1955 132.784 48.9677C132.67 48.8538 132.556 48.74 132.442 48.5122C132.328 48.2844 132.1 48.0567 131.987 47.8289C131.873 47.7151 131.759 47.6012 131.645 47.3734L131.531 47.2595C131.531 47.2595 131.531 47.1457 131.417 47.1457L131.189 46.9179C130.848 46.5763 130.62 46.1207 130.392 45.7791C130.165 45.4375 129.937 44.982 129.823 44.5264C129.709 44.1848 129.595 43.7293 129.481 43.2738C129.481 42.9321 129.481 42.5905 129.481 42.2489C129.481 41.9072 129.595 41.7933 129.595 41.6795C129.709 41.4517 129.823 41.1101 129.937 40.8823C130.051 40.6546 130.278 40.4268 130.392 40.199C130.62 39.9713 130.848 39.7435 131.076 39.6296C131.303 39.4019 131.531 39.288 131.759 39.1741C131.873 39.0603 131.873 39.0602 131.987 39.0602C132.1 39.0602 132.1 38.9464 132.214 38.9464C132.328 38.9464 132.442 38.8325 132.556 38.8325H132.67C132.784 38.8325 132.784 38.8325 132.784 38.7186H132.898H133.011H133.125C133.239 38.7186 133.353 38.6047 133.467 38.6047C133.581 38.6047 133.695 38.6047 133.809 38.6047C133.923 38.6047 134.036 38.6047 134.15 38.6047C134.378 38.6047 134.606 38.6047 134.834 38.6047H135.175H135.289H135.403C135.517 38.6047 135.517 38.6047 135.631 38.6047H135.745H135.858H135.972H136.086C136.086 38.6047 136.2 38.6047 136.2 38.7186H136.314H136.428C136.656 38.8325 136.883 38.9464 137.111 39.0602C137.225 39.0602 137.225 39.1741 137.339 39.1741C137.453 39.1741 137.453 39.288 137.567 39.288L137.908 39.5158C138.022 39.6296 138.022 39.6296 138.022 39.6296C138.022 39.6296 138.022 39.6296 138.136 39.6296H138.25L138.364 39.7435C138.478 39.7435 138.478 39.8574 138.478 39.8574C138.705 40.199 138.933 40.5407 138.933 40.9962C139.047 41.3378 138.933 41.6795 138.705 41.9072C138.705 42.0211 138.592 42.0211 138.592 42.0211C138.592 42.0211 138.478 42.0211 138.478 42.135C138.364 42.135 138.25 42.2489 138.136 42.2489C138.022 42.2489 137.794 42.2489 137.681 42.2489C137.567 42.2489 137.567 42.2489 137.453 42.2489L137.339 42.135C137.339 42.135 137.339 42.135 137.339 42.0211L137.225 41.9072H137.111C136.997 41.9072 136.883 41.9072 136.769 41.9072C136.656 42.0211 136.542 42.0211 136.428 41.9072C136.428 41.9072 136.428 41.9072 136.314 41.9072C136.2 41.9072 136.314 41.9072 136.2 41.9072C136.086 41.9072 136.2 41.9072 136.086 41.9072C135.972 41.9072 135.972 41.9072 135.972 41.7933C135.972 41.6795 135.972 41.7933 135.972 41.7933C135.972 41.7933 135.972 41.6795 135.858 41.6795C135.745 41.6795 135.858 41.6795 135.858 41.6795C135.745 41.5656 135.517 41.3378 135.403 41.224C135.403 41.224 135.403 41.224 135.289 41.224C135.175 41.224 135.289 41.224 135.175 41.224C135.061 41.224 135.061 41.224 135.061 41.224C135.061 41.224 135.061 41.224 134.947 41.224C134.947 41.224 134.947 41.224 134.834 41.224C134.834 41.224 134.834 41.224 134.72 41.224H134.606H134.492H134.378C134.378 41.224 134.378 41.224 134.264 41.224C134.036 41.224 133.809 41.224 133.581 41.3378H133.467H133.353H133.239H133.125C133.011 41.4517 132.898 41.4517 132.784 41.5656C132.67 41.6795 132.556 41.7933 132.556 41.7933L132.442 41.9072V42.0211C132.442 42.135 132.442 42.135 132.442 42.2489V42.4766C132.442 42.5905 132.442 42.7044 132.442 42.8183L132.556 43.1599C132.556 43.2738 132.67 43.3877 132.67 43.3877C132.784 43.5015 132.784 43.6154 132.784 43.6154C132.898 43.7293 133.011 43.957 133.125 44.1848C133.239 44.2987 133.353 44.5264 133.467 44.7542C133.581 44.982 133.809 45.0958 133.923 45.3236C133.923 45.4375 134.036 45.4375 134.15 45.5514C134.264 45.6652 134.378 45.7791 134.492 45.893L135.061 46.5763C135.517 47.1457 135.972 47.7151 136.428 48.2845C136.883 48.8538 137.111 49.1955 137.453 49.651C136.769 50.4481 137.567 49.9926 138.364 51.1314C138.478 51.2453 138.478 51.3592 138.592 51.3592C138.705 51.3592 138.705 51.5869 138.819 51.8147C138.933 52.1563 139.161 52.498 139.389 52.7257C139.503 52.9535 139.616 53.2951 139.73 53.6368C139.844 53.9784 139.958 54.2062 140.072 54.5478C140.186 54.8894 140.3 55.2311 140.414 55.4588C140.528 55.8005 140.527 56.1421 140.641 56.3699C140.983 57.5086 141.097 58.078 140.983 58.5336Z" fill="white"/>
</svg>
