<svg width="32" height="34" viewBox="0 0 32 34" fill="none"
  xmlns="http://www.w3.org/2000/svg">
  <path d="M29.0132 7.30478L17.1202 0.459517C16.5932 0.158403 15.9966 0 15.3895 0C14.7824 0 14.1858 0.158403 13.6588 0.459517C13.1342 0.76236 12.6985 1.19746 12.3951 1.7213C12.0918 2.24514 11.9315 2.83935 11.9303 3.44447V4.33793L11.1551 3.89067C10.6281 3.58956 10.0315 3.43115 9.42437 3.43115C8.81725 3.43115 8.22065 3.58956 7.69369 3.89067C7.16838 4.19405 6.73217 4.63001 6.42879 5.15484C6.1254 5.67968 5.96551 6.27494 5.96514 6.88095V7.77335L5.18991 7.32715C4.66308 7.02623 4.06668 6.86793 3.45976 6.86793C2.85284 6.86793 2.25645 7.02623 1.72961 7.32715C1.20473 7.63003 0.768706 8.06526 0.465167 8.58929C0.161628 9.11332 0.00122225 9.70778 0 10.3132L0 31.7563C0.0007938 32.0609 0.0873376 32.3593 0.249755 32.6172C0.412172 32.8751 0.643921 33.0822 0.918553 33.2149C1.19318 33.3476 1.49964 33.4005 1.80294 33.3676C2.10624 33.3347 2.39417 33.2173 2.63388 33.0288L8.53077 28.3922L17.6267 33.6252C17.8748 33.7656 18.1552 33.8394 18.4403 33.8394C18.7255 33.8394 19.0058 33.7656 19.254 33.6252C19.7551 33.3355 20.0676 32.7988 20.0676 32.2206V19.3191C20.0657 18.2752 19.7892 17.2501 19.2657 16.3464C18.7423 15.4428 17.9903 14.6924 17.085 14.1703L14.1024 12.4536V3.44767C14.103 3.22174 14.163 2.99993 14.2765 2.80447C14.3899 2.60902 14.5529 2.44679 14.7489 2.33406C14.945 2.22133 15.1673 2.16206 15.3935 2.1622C15.6197 2.16233 15.8419 2.22187 16.0379 2.33483L27.9308 9.1769C28.5067 9.50917 28.9851 9.9866 29.3182 10.5615C29.6513 11.1363 29.8274 11.7884 29.8289 12.4526V28.5211C29.8289 28.979 29.5815 29.4049 29.1838 29.6339L26.0327 31.4474V15.8837C26.0306 14.84 25.754 13.8151 25.2306 12.9116C24.7072 12.0082 23.9552 11.2579 23.0502 10.7359L15.7286 6.5242V9.0193L21.9657 12.6081C22.5417 12.9401 23.0203 13.4175 23.3534 13.9924C23.6866 14.5673 23.8626 15.2195 23.8638 15.8837V32.3814C23.8638 32.9564 24.1751 33.4963 24.6774 33.786C24.9256 33.9263 25.2059 34 25.491 34C25.7762 34 26.0565 33.9263 26.3046 33.786L30.2704 31.5039C31.3367 30.8894 32 29.7468 32 28.5168V12.4483C31.9952 11.4052 31.717 10.3814 31.193 9.47903C30.669 8.57663 29.9174 7.82701 29.0132 7.30478V7.30478ZM15.9952 16.0413C16.5714 16.3734 17.0501 16.851 17.3832 17.4261C17.7164 18.0012 17.8923 18.6537 17.8933 19.3181V31.2877L10.3628 26.9546L12.7802 25.0569C13.1919 24.7358 13.5247 24.325 13.7531 23.8559C13.9816 23.3867 14.0996 22.8716 14.0982 22.3499V14.953L15.9963 16.0424L15.9952 16.0413ZM11.9292 13.7017V22.3456C11.9292 22.7428 11.749 23.1124 11.4376 23.3552L2.16788 30.6392V10.31C2.16821 10.0841 2.22804 9.86224 2.34138 9.66675C2.45471 9.47125 2.61755 9.30897 2.81356 9.19621C3.00956 9.08345 3.23182 9.02418 3.45802 9.02434C3.68422 9.0245 3.9064 9.0841 4.10224 9.19714L5.96514 10.2674V25.5915L8.13303 23.8876V6.87882C8.13324 6.65277 8.19305 6.43076 8.30644 6.23511C8.41983 6.03947 8.5828 5.87708 8.77897 5.76429C8.97513 5.6515 9.19758 5.59227 9.42393 5.59257C9.65029 5.59287 9.87258 5.65268 10.0684 5.76598L11.9292 6.83516V11.2034L9.7624 9.95536V12.4526L11.9314 13.7017H11.9292Z" fill="white"/>
</svg>
  