<svg width="125" height="16" fill="none" xmlns="http://www.w3.org/2000/svg"><path d="M8.948.672v4.942H6.363V.672H.853V15.3h5.51V9.846h2.585V15.3h5.51V.672h-5.51Zm15.679 0V15.3H35.79v-3.806h-5.624V9.789h5.056V6.012h-5.056V4.42h5.426V.671H24.627Zm27.411 2.954 1.25 5.794h-2.614l1.364-5.794ZM48.572.672l-4.828 14.656h5.567l.54-2.357h4.26l.512 2.357h6.05L56.014.672h-7.442Zm25.592 6.05V3.967c.227-.029.455-.029.625-.029 1.25 0 1.79.398 1.79 1.307 0 .937-.682 1.505-2.017 1.505-.114-.028-.256-.028-.398-.028Zm-5.51 8.578h5.51v-5.283c.17-.029.37-.029.512-.029 1.334 0 1.505.625 1.732 2.216l.142 1.08c.085.652.256 1.334.426 2.044h5.596c-.256-1.079-.426-1.96-.511-2.613l-.17-1.562c-.256-2.102-.74-3.011-2.7-3.352 1.904-.511 2.898-1.647 2.898-3.408 0-2.926-1.875-3.721-5.908-3.721h-7.499V15.3h-.028Zm27.211-4.687v.114c0 .994.454 1.448 1.392 1.448.853 0 1.364-.426 1.364-1.05 0-.483-.2-.824-.568-1.023-.739-.37-2.074-.568-3.806-1.136-2.359-.739-3.466-1.903-3.466-3.948 0-2.87 2.33-4.602 6.59-4.602 3.892 0 5.936 1.449 5.936 4.033v.313H98.45c-.057-.88-.454-1.307-1.278-1.307-.739 0-1.221.426-1.221.966 0 1.023 1.022.994 2.868 1.477 3.409.909 5.028 1.846 5.028 4.488 0 3.096-2.472 5.113-6.704 5.113-4.288 0-6.56-1.62-6.56-4.403 0-.17 0-.34.027-.54h5.255v.057ZM110.834.672v3.891h3.551V15.3h5.653V4.563h3.521V.672h-12.725Z" fill="#fff"/></svg>