<svg width="51" height="16" fill="none" xmlns="http://www.w3.org/2000/svg"><path d="M.932 12.604V.188H5.77c.819 0 1.497.085 2.037.255.54.17 1.007.524 1.401 1.064.394.54.591 1.173.591 1.901 0 .686-.2 1.281-.6 1.788-.4.505-.952.829-1.656.968.874.152 1.535.507 1.984 1.065.448.558.673 1.218.673 1.983 0 .958-.314 1.763-.942 2.415-.627.652-1.593.977-2.897.977H.932ZM3.05 5.4H5.78c.558 0 .999-.167 1.323-.5.325-.334.487-.758.487-1.274 0-.57-.185-.99-.555-1.26a2.148 2.148 0 0 0-1.3-.404H3.05V5.4Zm0 5.34h2.892c.613 0 1.096-.161 1.451-.482.355-.322.533-.755.533-1.302 0-.52-.18-.948-.541-1.282-.362-.334-.839-.5-1.434-.5H3.051v3.565ZM13.449 2.343h-2.074V.188h2.074v2.155Zm0 10.261h-2.074V3.417h2.074v9.187ZM18.788 12.795c-1.358 0-2.396-.488-3.11-1.464-.716-.977-1.075-2.095-1.075-3.357 0-1.358.396-2.49 1.187-3.393.792-.903 1.837-1.355 3.135-1.355 1.23 0 2.242.44 3.033 1.32.792.879 1.187 2.022 1.187 3.428 0 1.45-.41 2.616-1.232 3.498-.822.882-1.864 1.323-3.125 1.323Zm.073-1.71c1.395 0 2.092-1.04 2.092-3.12 0-.94-.167-1.681-.5-2.224-.334-.542-.846-.814-1.538-.814-.715 0-1.246.281-1.592.841-.346.561-.519 1.306-.519 2.233 0 1.001.184 1.765.551 2.293.367.528.869.791 1.506.791ZM39.048 9.675l1.874.255a3.923 3.923 0 0 1-1.419 2.056c-.704.54-1.586.81-2.647.81-1.274 0-2.299-.428-3.075-1.283-.776-.855-1.164-2.013-1.164-3.475 0-1.389.39-2.538 1.173-3.448.783-.91 1.844-1.364 3.184-1.364 1.31 0 2.323.45 3.038 1.347.715.897 1.074 2.05 1.074 3.456l-.009.236h-6.304c0 .625.06 1.125.177 1.501.119.377.353.704.706.982.351.28.79.42 1.319.42 1.024 0 1.715-.498 2.073-1.493Zm-.127-2.747c-.006-.66-.205-1.2-.596-1.619a1.906 1.906 0 0 0-1.451-.627c-.57 0-1.046.195-1.428.586-.382.391-.606.945-.673 1.66h4.148ZM49.837 12.604h-2.075v-5.74c0-.606-.139-1.062-.417-1.369a1.317 1.317 0 0 0-1.01-.459c-.54 0-1.013.237-1.42.71-.406.473-.609 1.185-.609 2.137v4.72h-2.074V3.418h1.892v2.128c.661-1.546 1.589-2.32 2.784-2.32.806 0 1.496.255 2.07.765.573.51.859 1.404.859 2.683v5.931ZM30.676 3.98c.73.597 1.096 1.26 1.096 1.99 0 .817-.342 1.492-1.028 2.028-.685.537-1.59.804-2.717.804-.487 0-1.057-.079-1.708-.237-.427.195-.64.496-.64.904 0 .226.104.433.31.622.208.189.521.283.942.283h2.74c.938 0 1.673.242 2.206.726.533.484.8 1.085.8 1.804 0 .87-.404 1.592-1.21 2.164-.808.573-2.003.859-3.586.859-2.978 0-4.467-.83-4.467-2.494 0-.821.448-1.446 1.343-1.872-.573-.487-.859-.996-.859-1.526 0-.803.49-1.443 1.471-1.918-.853-.518-1.279-1.23-1.279-2.137 0-.767.314-1.422.941-1.964.628-.542 1.58-.813 2.86-.813.584 0 1.177.064 1.78.192m-4.019 8.723c-.299.274-.448.54-.448.795 0 .42.25.79.75 1.11.499.32 1.293.48 2.384.48 1.6 0 2.402-.412 2.402-1.234 0-.304-.14-.534-.42-.689-.28-.155-.6-.233-.96-.233h-2.21c-.42 0-.92-.076-1.498-.229Zm2.283-4.548c1.133 0 1.7-.533 1.7-1.6 0-.407-.142-.75-.425-1.031-.284-.28-.696-.42-1.238-.42-.548 0-.973.146-1.274.438a1.461 1.461 0 0 0-.453 1.096c0 .451.15.816.448 1.096.298.28.713.42 1.242.42Z" fill="#fff"/><path d="m29.485 3.467 2.7-.908.296 1.766-1.49.131" fill="#fff"/></svg>