<svg width="82" height="32" fill="none" xmlns="http://www.w3.org/2000/svg"><path fill-rule="evenodd" clip-rule="evenodd" d="M75.494 13.579h-1.945l-.161.712h2.106c1.927 0 2.577.525 2.577 2.078v.751c-.478-.489-1.323-.736-2.516-.736-1.905 0-2.83.825-2.83 2.522v.124c0 1.591.911 2.398 2.709 2.398h.484c1.904 0 2.87-.807 2.87-2.398v-2.661c0-1.982-.954-2.79-3.294-2.79Zm2.577 5.554c0 1.138-.61 1.582-2.173 1.582h-.303c-1.51 0-2.153-.504-2.153-1.685v-.124c0-1.283.613-1.83 2.052-1.83h.121c1.721 0 2.456.529 2.456 1.768v.289Zm-52.518-4.156.383-1.904h-3.293V10.47l-2.312.357v7.77c0 2.687 1.03 3.486 3.842 3.486h1.23l.383-1.887h-1.447c-1.28 0-1.697-.323-1.697-1.752v-3.468h2.911ZM9.67 9.57v8.349c0 3.095 1.397 4.387 4.44 4.387 3.16 0 4.558-1.259 4.558-4.37v-.8c0-2.924-1.298-4.352-4.125-4.352-.898 0-1.88.186-2.544.713v-4.3L9.67 9.57Zm4.524 5.084c1.596 0 2.162.646 2.162 2.567v.715c0 1.87-.566 2.516-2.195 2.516-1.63 0-2.196-.646-2.196-2.533v-.97c0-1.717.566-2.295 2.229-2.295Zm16.947-1.87c-3.043 0-4.44 1.309-4.44 4.301v.46c0 2.839 1.214 4.216 4.074 4.216.915 0 1.83-.17 2.478-.697v.34c0 1.599-.681 2.125-2.278 2.125h-.956c-.547.01-.795.11-1.124.662l-.002-.001c-2.742 4.437-7.503 7.147-12.692 7.147-8.278 0-15.013-6.885-15.013-15.349C1.188 7.525 7.923.64 16.201.64c5.815 0 11.105 3.442 13.58 8.8h.69C27.949 3.703 22.357 0 16.201 0 7.578 0 .562 7.172.562 15.988c0 8.817 7.016 15.99 15.64 15.99 5.07 0 9.75-2.487 12.669-6.612h2.237c2.944 0 4.457-1.14 4.457-4.047v-4.387c0-2.89-1.447-4.148-4.424-4.148Zm2.13 5.05c0 1.598-.55 2.09-2.13 2.09-1.78 0-2.128-.628-2.128-2.481v-.29c0-1.836.315-2.5 2.128-2.5 1.78 0 2.13.647 2.13 2.518v.663Zm46.999 3.594h.717V10.629h-.717v10.799Zm-16.167-7.136.161-.713h-3.21v-2.04l-.737.136v6.983c0 1.99.729 2.729 2.69 2.729h1.059l.134-.713h-1.194c-1.477 0-1.951-.48-1.951-1.975v-4.407h3.048Zm6.644 4.036c0 1.838-.562 2.428-2.314 2.428-1.7 0-2.274-.612-2.274-2.428v-4.75h-.738v4.75c0 2.26.845 3.141 3.012 3.141 2.153 0 3.032-.91 3.032-3.14v-4.75h-.718v4.75Zm-16.23-.515v-.66c0-2.113.707-2.861 2.699-2.861h1.683l.16-.713h-1.843c-2.376 0-3.436 1.102-3.436 3.573v.66c0 2.473 1.06 3.575 3.436 3.575h1.702l.161-.713h-1.863c-1.942 0-2.698-.802-2.698-2.861Zm-5.31-4.234H47.26l-.16.712h2.106c1.911 0 2.556.525 2.556 2.078v.751c-.477-.489-1.322-.736-2.516-.736-1.904 0-2.83.825-2.83 2.522v.124c0 1.591.918 2.398 2.729 2.398h.484c1.892 0 2.85-.807 2.85-2.398v-2.661c0-1.982-.948-2.79-3.273-2.79Zm2.556 5.554c0 1.153-.584 1.582-2.153 1.582h-.303c-1.523 0-2.173-.504-2.173-1.685v-.124c0-1.283.614-1.83 2.052-1.83h.121c1.721 0 2.456.529 2.456 1.768v.289Zm-9.78-5.678c-2.274 0-3.334 1.149-3.334 3.615v6.71h.718v-3.446c.52.69 1.487 1.094 2.657 1.094 2.265 0 3.274-1.115 3.274-3.615v-.764c0-2.486-1.022-3.594-3.314-3.594Zm2.578 4.358c0 2.116-.688 2.902-2.537 2.902-1.75 0-2.637-.872-2.637-2.593V17.07c0-2.062.752-2.902 2.597-2.902 1.854 0 2.576.807 2.576 2.881v.764Z" fill="#fff"/></svg>