<svg width="91" height="16" fill="none" xmlns="http://www.w3.org/2000/svg"><path fill-rule="evenodd" clip-rule="evenodd" d="M2.335 14.063a4.97 4.97 0 0 1 0-7.186l5.56-5.389C9.628-.189 12.267-.449 14.279.71c.622.358.617 1.18.105 1.676s-1.347.454-2.042.257a2.68 2.68 0 0 0-2.592.642L4.19 8.674a2.485 2.485 0 0 0 0 3.592 2.68 2.68 0 0 0 3.707 0l11.12-10.778c2.048-1.984 5.368-1.984 7.415 0l5.56 5.39a4.97 4.97 0 0 1 0 7.185c-2.047 1.984-5.366 1.984-7.413 0l-1.854-1.797-2.317 2.246c-1.73 1.677-4.37 1.937-6.382.778-.623-.358-.617-1.18-.105-1.676s1.347-.454 2.042-.257a2.68 2.68 0 0 0 2.592-.641l2.383-2.31a2.585 2.585 0 0 1 3.574 0l1.92 1.86a2.68 2.68 0 0 0 3.707 0 2.486 2.486 0 0 0 0-3.592l-5.56-5.39a2.68 2.68 0 0 0-3.708 0L9.75 14.064c-2.048 1.984-5.367 1.984-7.415 0Z" fill="#fff"/><path d="M54.466 2.88c-1.288 0-2.264.45-2.908 1.353-.566-.902-1.464-1.353-2.654-1.353-1.23 0-2.128.413-2.714 1.259v-.996h-2.518v9.394h2.519v-5.28c0-1.37.722-2.122 1.834-2.122 1.035 0 1.64.657 1.64 1.784v5.618h2.517v-5.28c0-1.37.664-2.122 1.816-2.122 1.034 0 1.64.657 1.64 1.784v5.618h2.517V6.75c0-2.348-1.444-3.87-3.689-3.87Zm13.05 1.372c-.76-.921-1.815-1.372-3.181-1.372-1.308 0-2.42.488-3.357 1.447-.918.958-1.386 2.123-1.386 3.513 0 1.39.468 2.574 1.386 3.532.937.958 2.05 1.428 3.357 1.428 1.366 0 2.42-.45 3.181-1.372v1.109h2.518V3.143h-2.518v1.109Zm-4.645 5.504c-.508-.507-.761-1.146-.761-1.916s.254-1.41.761-1.898c.507-.507 1.151-.751 1.932-.751.781 0 1.425.244 1.933.751.527.489.78 1.128.78 1.898s-.253 1.41-.78 1.916c-.508.489-1.152.733-1.933.733-.78 0-1.425-.244-1.932-.733Zm16.453-4.997V3.143h-7.32v2.273h3.924l-4.118 5.505v1.616h7.71v-2.273h-4.334l4.138-5.505Zm10.724 4.077c.058-.357.098-.677.098-.996 0-1.41-.469-2.574-1.406-3.532-.917-.958-2.108-1.428-3.533-1.428-1.503 0-2.752.47-3.708 1.428-.957.94-1.444 2.123-1.444 3.532 0 1.428.487 2.611 1.464 3.55.975.94 2.264 1.41 3.883 1.41 1.874 0 3.3-.676 4.256-2.01l-2.03-1.128c-.488.62-1.23.94-2.186.94-1.504 0-2.42-.583-2.752-1.766h7.358ZM82.65 6.957c.293-1.202 1.21-1.898 2.557-1.898 1.152 0 2.128.62 2.42 1.898H82.65Z" fill="#fff"/></svg>