<svg width="97" height="16" fill="none" xmlns="http://www.w3.org/2000/svg"><path d="M9.412 15.664V8.967H3.156v6.697H.382V.294h2.774v6.007h6.256V.295h2.775v15.37H9.412Z" fill="#fff"/><path d="M12.187.295H9.412V6.3H3.156V.295H.382v15.37h2.774V8.966h6.256v6.697h2.775V.294ZM15.082 15.664V.294H25.49v2.538h-7.636V6.41h6.667v2.513h-6.667v4.205h7.634v2.536H15.083Z" fill="#fff"/><path d="M25.489.295H15.082v15.37h10.406v-2.538h-7.636V8.923h6.668V6.41h-6.668V2.831h7.637V.295ZM36.695 15.664l-3.414-5.59-3.422 5.59h-2.987l4.794-7.825L26.914.295h3.03l3.42 5.38 3.314-5.38h3.01L35 7.863l4.749 7.801h-3.054Z" fill="#fff"/><path d="M39.688.295h-3.01l-3.315 5.38-3.419-5.38h-3.03l4.751 7.544-4.792 7.825h2.986l3.421-5.59 3.415 5.59h3.054l-4.75-7.802L39.688.295ZM50.753 15.664l-.99-2.947H43.7l-.989 2.947h-2.794L45.269.294h3.032l5.352 15.37h-2.9ZM46.731 3.721l-2.172 6.484h4.344L46.73 3.721Z" fill="#fff"/><path d="m44.56 10.205 2.171-6.483 2.171 6.483H44.56ZM48.3.295h-3.03l-5.353 15.369h2.795l.988-2.947h6.062l.992 2.947h2.9L48.3.294ZM66.15 15.664l-1.607-1.691c-.453.891-1.913 1.952-3.829 1.974-1.76.021-3.332-.433-4.538-1.714C54.59 12.565 54.2 10.504 54.2 7.99c0-2.515.323-4.507 1.977-6.176C57.34.645 59.08.013 60.714.013c1.873 0 3.484.696 4.516 1.759.754.778 1.31 1.757 1.398 3.1h-2.84c-.043-.609-.34-1.016-.664-1.411-.537-.63-1.376-.932-2.429-.932-.883 0-1.898.391-2.498 1.04-1.05 1.105-1.18 3.015-1.18 4.422 0 1.41.15 3.383 1.202 4.488.605.649 1.593.976 2.476.976.986 0 1.761-.348 2.28-.89.813-.866.987-1.82.987-2.992h-3.634v-2.32h6.322v8.411h-.5Z" fill="#fff"/><path d="M60.714.013c-1.635 0-3.375.632-4.537 1.802C54.523 3.483 54.2 5.476 54.2 7.99c0 2.515.39 4.574 1.977 6.243 1.179 1.252 2.707 1.713 4.42 1.713h.118c1.916-.022 3.375-1.082 3.828-1.974l1.609 1.692h.499V7.253h-6.323v2.32h3.634c0 1.172-.173 2.125-.987 2.991-.518.543-1.292.89-2.279.89-.884 0-1.872-.327-2.476-.975-1.053-1.106-1.202-3.078-1.202-4.489 0-1.407.13-3.316 1.18-4.422.6-.648 1.614-1.04 2.498-1.04 1.053 0 1.892.303 2.428.933.324.394.622.802.665 1.41h2.84c-.087-1.343-.644-2.322-1.398-3.1C64.197.71 62.587.013 60.714.013ZM79.592 14.213c-1.162 1.17-2.752 1.733-4.386 1.733-1.63 0-3.224-.562-4.387-1.733-1.657-1.67-1.936-3.708-1.936-6.222 0-2.515.28-4.575 1.936-6.242C71.982.578 73.575.013 75.205.013c1.635 0 3.225.565 4.387 1.736 1.656 1.667 1.938 3.727 1.938 6.242 0 2.514-.282 4.551-1.938 6.222ZM77.618 3.569c-.605-.649-1.532-1.02-2.412-1.02-.878 0-1.809.371-2.408 1.02C71.748 4.674 71.7 6.583 71.7 7.99c0 1.41.046 3.295 1.097 4.4.599.653 1.53 1.02 2.407 1.02.881 0 1.808-.367 2.413-1.02 1.051-1.105 1.096-2.99 1.096-4.4 0-1.408-.045-3.317-1.096-4.422Z" fill="#fff"/><path d="M71.7 7.99c0-1.406.047-3.316 1.098-4.422.599-.648 1.53-1.018 2.407-1.018.881 0 1.81.37 2.413 1.018 1.051 1.106 1.096 3.016 1.096 4.423 0 1.41-.045 3.295-1.096 4.401-.604.652-1.532 1.019-2.412 1.019-.878 0-1.809-.367-2.408-1.019-1.05-1.106-1.097-2.991-1.097-4.401ZM75.206.014c-1.629 0-3.223.566-4.386 1.736-1.656 1.667-1.935 3.727-1.935 6.242 0 2.514.28 4.551 1.935 6.222 1.163 1.17 2.757 1.733 4.386 1.733 1.636 0 3.226-.562 4.387-1.733 1.656-1.67 1.937-3.708 1.937-6.222 0-2.515-.28-4.575-1.937-6.242C78.43.579 76.84.013 75.206.013ZM92.98 15.664 86.38 5.11v10.555h-2.732V.294h2.945L93.107 10.7V.295h2.731v15.37h-2.857Z" fill="#fff"/><path d="M95.838.295h-2.73v10.404L86.593.295h-2.945v15.37h2.731V5.107l6.6 10.556h2.86V.294Z" fill="#fff"/></svg>