<svg width="18" height="18" fill="none" xmlns="http://www.w3.org/2000/svg"><path d="M18 3.848a7.02 7.02 0 0 1-1.988.537 3.427 3.427 0 0 0 1.522-1.886c-.669.39-1.41.674-2.198.826a3.486 3.486 0 0 0-2.527-1.075c-1.912 0-3.462 1.526-3.462 3.409 0 .266.031.525.09.775A9.884 9.884 0 0 1 2.3 2.874a3.366 3.366 0 0 0-.468 1.713c0 1.182.611 2.226 1.54 2.837a3.496 3.496 0 0 1-1.568-.427v.044c0 1.651 1.192 3.028 2.777 3.342a3.537 3.537 0 0 1-1.564.058 3.458 3.458 0 0 0 3.235 2.366 7.018 7.018 0 0 1-4.3 1.46c-.28 0-.556-.017-.827-.048a9.905 9.905 0 0 0 5.306 1.531c6.37 0 9.851-5.193 9.851-9.696 0-.146-.003-.294-.01-.44A6.978 6.978 0 0 0 18 3.85v-.002Z" fill="#fff"/></svg>