<svg width="18" height="18" fill="none" xmlns="http://www.w3.org/2000/svg"><path fill-rule="evenodd" clip-rule="evenodd" d="M12.952 2.208a7.553 7.553 0 0 0-3.953-1.083 7.56 7.56 0 0 0-3.953 1.083 7.943 7.943 0 0 0-2.865 2.937c-.705 1.238-1.056 2.588-1.056 4.053 0 1.758.5 3.34 1.502 4.745 1.001 1.402 2.295 2.377 3.881 2.915.184.035.321.01.41-.074a.415.415 0 0 0 .133-.314l-.005-.57a95.014 95.014 0 0 1-.006-.935l-.235.042c-.15.028-.34.04-.57.036a4.188 4.188 0 0 1-.712-.073 1.572 1.572 0 0 1-.684-.315 1.335 1.335 0 0 1-.452-.646l-.103-.243a2.594 2.594 0 0 0-.322-.535c-.147-.197-.295-.33-.446-.4l-.072-.053a.844.844 0 0 1-.134-.126.571.571 0 0 1-.09-.147c-.021-.05-.005-.09.05-.121.054-.033.154-.047.297-.047l.206.031c.135.028.305.112.507.252.201.14.367.322.496.547.158.287.347.506.57.657.222.15.446.226.672.226.224 0 .42-.019.584-.053.163-.035.318-.088.46-.157.063-.47.23-.832.503-1.084a6.91 6.91 0 0 1-1.05-.19 4.054 4.054 0 0 1-.963-.41 2.734 2.734 0 0 1-.826-.704c-.218-.278-.398-.648-.537-1.1a5.407 5.407 0 0 1-.21-1.578c0-.847.268-1.57.809-2.166-.253-.638-.23-1.352.072-2.145.197-.062.491-.015.881.142.39.157.674.292.855.404.182.113.328.207.437.284a7.22 7.22 0 0 1 1.966-.268c.678 0 1.333.09 1.969.272l.39-.252a5.59 5.59 0 0 1 .943-.463c.364-.14.641-.178.832-.115.308.793.335 1.507.082 2.145.54.595.81 1.317.81 2.165 0 .595-.07 1.123-.21 1.582-.14.459-.322.829-.545 1.105a2.88 2.88 0 0 1-.83.7 4.16 4.16 0 0 1-.963.408 6.78 6.78 0 0 1-1.051.189c.355.314.533.811.533 1.492v2.218c0 .126.042.23.128.315.085.084.22.109.405.073 1.587-.54 2.88-1.512 3.88-2.918 1.002-1.402 1.503-2.985 1.503-4.743a8.053 8.053 0 0 0-1.056-4.052 7.948 7.948 0 0 0-2.865-2.937h-.002Z" fill="#fff"/></svg>