<svg width="18" height="18" fill="none" xmlns="http://www.w3.org/2000/svg"><g clip-path="url(#a)" fill="#fff"><path d="M10.65 7.552c-.512 0-.917.444-.917.998s.414.999.918.999c.512 0 .917-.445.917-.999s-.414-.998-.917-.998Zm-3.283 0c-.512 0-.917.444-.917.998s.414.999.917.999c.513 0 .918-.445.918-.999.009-.554-.405-.998-.918-.998Z"/><path d="M15.022 0H2.97a1.855 1.855 0 0 0-1.844 1.86v12.164c0 1.025.828 1.86 1.844 1.86h10.2l-.477-1.66 1.152 1.07 1.088 1.008L16.875 18V1.86C16.866.835 16.038 0 15.022 0ZM11.55 11.754s-.324-.39-.594-.726c1.179-.336 1.629-1.07 1.629-1.07a5.13 5.13 0 0 1-1.035.535c-.45.19-.882.308-1.304.39a6.244 6.244 0 0 1-2.33-.01 6.799 6.799 0 0 1-1.322-.39 5.247 5.247 0 0 1-.657-.308c-.027-.018-.054-.027-.08-.045-.019-.01-.028-.019-.037-.019a3.153 3.153 0 0 1-.252-.154s.432.717 1.575 1.062c-.27.345-.603.745-.603.745-1.988-.064-2.744-1.371-2.744-1.371 0-2.896 1.296-5.247 1.296-5.247 1.295-.971 2.518-.944 2.518-.944l.09.11c-1.619.462-2.356 1.18-2.356 1.18s.197-.11.53-.255a6.997 6.997 0 0 1 2.042-.572c.054-.009.1-.018.153-.018a7.542 7.542 0 0 1 1.817-.018c.855.1 1.772.354 2.707.862 0 0-.71-.68-2.24-1.144l.127-.145s1.232-.027 2.518.944c0 0 1.296 2.351 1.296 5.247 0-.01-.756 1.298-2.744 1.361Z"/></g><defs><clipPath id="a"><path fill="#fff" d="M0 0h18v18H0z"/></clipPath></defs></svg>