<svg width="126" height="16" fill="none" xmlns="http://www.w3.org/2000/svg"><path d="m8.037 8.765 6.728 6.649H1.31l6.728-6.65ZM1.31 1.146l6.727 6.65 6.728-6.65H1.31ZM8.763 8.28l6.728 6.65 6.728-6.65-6.728-6.65-6.728 6.65ZM123.072 4.782c0 .097-.133.139-.196.065-.492-.574-1.305-1.01-2.417-1.01-2.409 0-3.778 1.952-3.778 4.316 0 2.348 1.369 4.299 3.778 4.299 1.128 0 2.008-.396 2.556-1.08.061-.076.199-.035.199.063v.73c0 .054.043.098.096.098h1.538a.097.097 0 0 0 .097-.098V.461a.097.097 0 0 0-.097-.097h-1.68a.098.098 0 0 0-.096.097v4.32Zm.078 3.37c0 1.477-.865 2.634-2.298 2.634-1.417 0-2.298-1.158-2.298-2.633 0-1.507.881-2.65 2.298-2.65 1.433 0 2.298 1.143 2.298 2.65Zm-6.936-4.097a.096.096 0 0 0-.088-.097 3.16 3.16 0 0 0-.18-.009c-1.157 0-1.831.466-2.202.922-.062.076-.206.035-.206-.065v-.68a.098.098 0 0 0-.097-.099h-1.538a.098.098 0 0 0-.097.098v8.04c0 .054.044.098.097.098h1.68a.098.098 0 0 0 .097-.098V7.98c0-1.587.787-2.285 2.109-2.285.113 0 .232.01.314.018a.101.101 0 0 0 .077-.024.099.099 0 0 0 .034-.073v-1.56Zm-7.931 4.353a.096.096 0 0 1 .077.023.096.096 0 0 1 .034.073v.41c0 1.111-.74 2.063-2.252 2.063-.897 0-1.448-.301-1.448-1.079 0-.57.378-.998 1.528-1.174l2.061-.315v-.001Zm-2.518 4.045c1.164 0 2.041-.341 2.608-1.01.062-.074.197-.032.201.065.023.473.09.754.103.754h1.632c.069 0 .118-.072.096-.138-.114-.36-.186-.945-.186-1.417V6.915c0-1.888-1.133-3.078-3.525-3.078-2.411 0-3.398 1.268-3.592 2.67a.094.094 0 0 0 .024.075c.018.02.043.032.071.032h1.635a.102.102 0 0 0 .098-.081c.153-.713.73-1.14 1.716-1.14 1.117 0 1.748.507 1.748 1.507v.042c0 .049-.036.09-.084.097l-2.278.321c-2.156.3-3.132 1.205-3.132 2.601 0 1.412.834 2.492 2.865 2.492Zm-7.823 0c2.613 0 4.25-1.984 4.25-4.3s-1.637-4.316-4.25-4.316c-2.597 0-4.233 2-4.233 4.316s1.636 4.299 4.233 4.299Zm-2.36-4.3c0-1.603 1.007-2.65 2.36-2.65 1.37 0 2.377 1.047 2.377 2.65 0 1.587-1.007 2.633-2.377 2.633-1.353 0-2.36-1.046-2.36-2.633ZM86.81 4.848c-.063.074-.195.032-.195-.065V.462a.098.098 0 0 0-.097-.098h-1.68a.098.098 0 0 0-.097.097v11.703c0 .054.043.098.098.098h1.537a.097.097 0 0 0 .098-.098v-.738c0-.098.133-.14.195-.063.558.69 1.44 1.09 2.559 1.09 2.423 0 3.793-1.952 3.793-4.3 0-2.364-1.37-4.316-3.793-4.316-1.1 0-1.923.436-2.418 1.01Zm-.259 3.306c0-1.507.865-2.65 2.299-2.65 1.416 0 2.299 1.143 2.299 2.65 0 1.476-.883 2.633-2.3 2.633-1.431 0-2.298-1.158-2.298-2.633Zm-3.4 2.557a.107.107 0 0 0-.04-.079.103.103 0 0 0-.086-.02 2.35 2.35 0 0 1-.456.05c-.646 0-.913-.319-.913-.969v-4.06c0-.054.044-.097.098-.097h1.332a.097.097 0 0 0 .097-.097v-1.31a.097.097 0 0 0-.097-.098h-1.334A.097.097 0 0 1 81.685 4a.096.096 0 0 1-.03-.07V1.986a.097.097 0 0 0-.095-.097h-1.68a.098.098 0 0 0-.097.097v1.948a.098.098 0 0 1-.097.098h-1.05a.098.098 0 0 0-.097.096V5.44c0 .054.044.097.098.097h1.049c.054 0 .097.044.097.097v4.25c0 1.555.724 2.428 2.393 2.428.463 0 .772-.053.904-.08a.092.092 0 0 0 .072-.09V10.71ZM69.939 8.153c0 2.38 1.669 4.299 4.077 4.299 2.364 0 3.59-1.614 3.854-3.062a.095.095 0 0 0-.095-.11h-1.73a.1.1 0 0 0-.096.073c-.242.848-.97 1.433-1.95 1.433-1.337 0-2.187-1.094-2.187-2.633 0-1.555.85-2.65 2.188-2.65.98 0 1.707.586 1.949 1.434a.1.1 0 0 0 .095.074h1.732a.094.094 0 0 0 .094-.111c-.264-1.448-1.49-3.061-3.854-3.061-2.408 0-4.077 1.919-4.077 4.314Zm-3.154.619c0 1.348-.723 2.062-1.888 2.062-1.133 0-1.59-.746-1.59-1.871V4.125a.098.098 0 0 0-.097-.098h-1.68a.098.098 0 0 0-.097.098v5.092c0 1.919 1.025 3.235 3.007 3.235 1.1 0 1.852-.416 2.273-.932.064-.078.215-.033.215.068v.577c0 .054.043.098.097.098h1.537a.097.097 0 0 0 .097-.098v-8.04a.097.097 0 0 0-.097-.098h-1.68a.098.098 0 0 0-.097.098v4.647Zm-8.662-3.99c0 .097-.133.139-.195.065-.492-.574-1.305-1.01-2.418-1.01-2.408 0-3.779 1.952-3.779 4.316 0 2.348 1.37 4.299 3.779 4.299 1.127 0 2.008-.396 2.556-1.08.062-.076.198-.035.198.063v.73c0 .054.043.098.097.098H59.9a.097.097 0 0 0 .097-.098V.461A.098.098 0 0 0 59.9.364h-1.68a.098.098 0 0 0-.097.097v4.32h.001Zm.078 3.37c0 1.477-.865 2.634-2.298 2.634-1.416 0-2.299-1.158-2.299-2.633 0-1.507.883-2.65 2.3-2.65 1.431 0 2.297 1.143 2.297 2.65Zm-11.475 4.3c2.614 0 4.25-1.983 4.25-4.298 0-2.318-1.635-4.317-4.25-4.317-2.596 0-4.234 2-4.234 4.316s1.638 4.299 4.234 4.299Zm-2.36-4.298c0-1.604 1.006-2.65 2.36-2.65 1.37 0 2.377 1.046 2.377 2.649 0 1.587-1.007 2.633-2.377 2.633-1.354 0-2.36-1.046-2.36-2.633Zm-2.089-4.1a.096.096 0 0 0-.089-.096 3.091 3.091 0 0 0-.178-.009c-1.157 0-1.832.466-2.203.922-.062.076-.205.035-.205-.065v-.68a.098.098 0 0 0-.097-.099h-1.538a.098.098 0 0 0-.097.098v8.04c0 .054.043.098.097.098h1.68a.097.097 0 0 0 .097-.098V7.98c0-1.587.786-2.285 2.108-2.285.114 0 .232.01.314.018a.1.1 0 0 0 .111-.097v-1.56Zm-11.97 7.46c0-.097.134-.14.197-.064.495.58 1.317 1.003 2.416 1.003 2.423 0 3.794-1.952 3.794-4.3 0-2.364-1.37-4.316-3.794-4.316-1.12 0-2.001.414-2.56 1.097-.061.075-.195.032-.195-.065v-.744a.098.098 0 0 0-.097-.098H28.53a.098.098 0 0 0-.097.098v11.34c0 .053.043.097.097.097h1.68a.097.097 0 0 0 .097-.098v-3.95h-.002Zm-.063-3.361c0-1.523.865-2.682 2.298-2.682 1.416 0 2.299 1.159 2.299 2.682 0 1.476-.883 2.633-2.3 2.633-1.431 0-2.297-1.158-2.297-2.633Z" fill="#fff"/></svg>