<svg width="109" height="24" fill="none" xmlns="http://www.w3.org/2000/svg"><path d="M82.19 23.605c4.711 0 5.369-5.777 8.587-10.933-.125 1.849-.018 3.467.337 4.604 1.405 4.427 6.223 4.765 8.409.267 3.094-6.329 3.983-7.822 7.094-12.391 2.062-3.005-.32-4.96-3.094-3.556-1.422.712-3.715 2.525-6.595 6.33.498-2.899.373-7.805-3.823-7.52-2.204.142-5.066 2.63-8.977 9.03.32-3.59.444-6.133-1.12-7.466-1.067-.907-3.591-1.262-5.103.693-1.529 1.973-1.884 5.831-1.724 9.884.338 8.498 3.342 11.058 6.009 11.058ZM4.66 18.023c.445 0 .854-.302.979-.747l1.76-6.257 1.795 6.257c.125.427.534.747.978.747h.462c.445 0 .854-.302.978-.747l2.453-8.373a.564.564 0 0 0-.55-.729h-.48a.988.988 0 0 0-.96.747l-1.69 6.435-1.67-6.435a1.008 1.008 0 0 0-.96-.747h-.659a.988.988 0 0 0-.96.747l-1.67 6.435-1.69-6.435a1.008 1.008 0 0 0-.96-.747h-.48a.578.578 0 0 0-.55.747l2.435 8.373c.124.427.533.747.978.747h.462v-.018Zm43.752-4.907c-.053-2.968-1.636-5.155-4.195-5.155-1.174 0-2.027.444-2.65 1.03V8.94a.759.759 0 0 0-.764-.765h-.284a.77.77 0 0 0-.765.765V20.6a.77.77 0 0 0 .765.764h.337a.77.77 0 0 0 .765-.764v-3.342c.64.55 1.458.977 2.596.977 2.595 0 4.142-2.204 4.195-5.12Zm10.578 4.907a.668.668 0 0 0 .658-.658v-.64a.452.452 0 0 0-.445-.444h-.498c-.23 0-.408-.16-.408-.391v-4.267c0-2.275-1.494-3.662-3.894-3.662-1.618 0-3.146.746-3.733 2.169-.142.32.106.835.444.942l.374.124c.497.16.835 0 1.048-.48.32-.728.96-1.03 1.885-1.03 1.369 0 2.044.781 2.027 1.937-.41.569-1.583.587-2.81.587-1.99 0-3.413.995-3.413 2.95 0 1.992 1.565 3.076 3.716 3.076 1.102 0 2.258-.302 2.827-1.102.337.551.924.89 1.51.89h.712Zm-34.845 0a.668.668 0 0 0 .658-.658v-.64a.452.452 0 0 0-.444-.444h-.498c-.231 0-.409-.16-.409-.391v-4.267c0-2.275-1.511-3.662-3.893-3.662-1.6 0-3.147.746-3.734 2.169-.142.32.107.835.445.942l.373.124c.498.16.836 0 1.05-.462.32-.729.977-1.03 1.883-1.03 1.352 0 2.045.781 2.027 1.937-.409.569-1.618.586-2.844.586-1.92 0-3.36.996-3.36 2.952 0 1.99 1.582 3.075 3.715 3.075 1.085 0 2.258-.302 2.827-1.102.338.551.924.889 1.511.889h.693v-.018Zm46.045 0a.668.668 0 0 0 .658-.658v-.64a.452.452 0 0 0-.445-.444h-.498c-.23 0-.409-.16-.409-.391V5.596a.77.77 0 0 0-.764-.764h-.338a.77.77 0 0 0-.764.764V8.94c-.64-.552-1.458-.978-2.596-.978-2.56 0-4.142 2.187-4.195 5.155.053 2.916 1.617 5.12 4.195 5.12 1.316 0 2.205-.55 2.862-1.226.32.64.943 1.013 1.6 1.013h.694Zm-18.045-2.88c0-.782.551-1.262 1.44-1.262 1.085 0 2.312-.018 2.845-.48v1.795c-.107.871-.978 1.298-2.205 1.298-1.12-.035-2.08-.462-2.08-1.35Zm-34.844 0c0-.782.604-1.262 1.404-1.262 1.085 0 2.347-.018 2.88-.48v1.795c-.124.871-.995 1.298-2.204 1.298-1.102-.035-2.08-.462-2.08-1.35Zm45.44-2.044c.035-1.92.924-3.343 2.489-3.343 1.102 0 1.938.711 2.382 1.387v3.893c-.444.676-1.28 1.387-2.382 1.387-1.565 0-2.436-1.422-2.49-3.324Zm-21.102 1.937v-3.893c.444-.676 1.28-1.387 2.382-1.387 1.564 0 2.435 1.423 2.489 3.343-.036 1.902-.925 3.324-2.489 3.324-1.102 0-1.956-.711-2.382-1.387Zm-10.151 2.01a.77.77 0 0 0-.765-.765h-.978c-.355 0-.569-.25-.569-.57V9.989h4.107v5.866c0 1.262 1.014 2.187 2.205 2.187h1.368a.77.77 0 0 0 .765-.765v-.213a.77.77 0 0 0-.765-.764h-1.12a.551.551 0 0 1-.568-.57v-5.724h1.706a.77.77 0 0 0 .765-.764v-.25a.77.77 0 0 0-.765-.764h-1.706V5.65a.77.77 0 0 0-.765-.765h-.355a.77.77 0 0 0-.765.765v2.577H29.16V5.65a.77.77 0 0 0-.765-.765h-.337a.77.77 0 0 0-.765.765v2.577h-1.387a.77.77 0 0 0-.764.765v.249a.77.77 0 0 0 .764.764h1.37v5.867c0 1.262 1.013 2.187 2.204 2.187h1.226a.77.77 0 0 0 .765-.765v-.249h.018Z" fill="#fff"/></svg>