<svg width="18" height="18" fill="none" xmlns="http://www.w3.org/2000/svg"><path fill-rule="evenodd" clip-rule="evenodd" d="M1.33 0C.596 0 0 .577 0 1.29v15.42C0 17.424.596 18 1.33 18h15.34c.734 0 1.33-.577 1.33-1.29V1.29C18 .576 17.404 0 16.67 0H1.33Zm4.126 6.94v8.128H2.738V6.94h2.718Zm.18-2.514c0 .78-.591 1.404-1.54 1.404H4.08c-.912 0-1.502-.624-1.502-1.404 0-.798.608-1.405 1.538-1.405s1.502.607 1.52 1.405Zm4.043 10.642H6.961s.035-7.366 0-8.128h2.718v1.15l-.018.028h.018V8.09c.362-.553 1.008-1.341 2.45-1.341 1.79 0 3.13 1.162 3.13 3.658v4.66h-2.718V10.72c0-1.092-.393-1.838-1.377-1.838-.751 0-1.199.503-1.395.988-.072.174-.09.417-.09.66v4.539Z" fill="#fff"/></svg>