<svg width="233" height="79" viewBox="0 0 233 79" fill="none" xmlns="http://www.w3.org/2000/svg">
<g clip-path="url(#clip0_1_75)">
<path fill-rule="evenodd" clip-rule="evenodd" d="M124.791 37.57H136.596V28.185H142.841V52.26H136.596V42.875H124.791V52.26H118.766V28.185H124.791V37.57ZM166.661 28.185H157.021C154.351 28.185 152.726 28.69 151.496 29.92C150.271 31.145 149.801 32.7 149.801 35.445V45.01C149.801 47.755 150.271 49.305 151.496 50.535C152.721 51.765 154.346 52.27 157.021 52.27H166.661C169.331 52.27 170.956 51.765 172.186 50.535C173.416 49.31 173.881 47.755 173.881 45.01V35.445C173.881 32.7 173.411 31.15 172.186 29.92C170.956 28.69 169.331 28.185 166.661 28.185ZM167.851 45.15C167.851 46.56 167.381 46.955 165.686 46.955H157.996C156.301 46.955 155.831 46.56 155.831 45.15V35.295C155.831 33.885 156.301 33.49 157.996 33.49H165.686C167.421 33.49 167.851 33.85 167.851 35.295V45.15ZM188.82 37.82H197.445C200.115 37.82 201.775 38.325 202.97 39.555C204.05 40.64 204.665 42.405 204.665 44.32V45.765C204.665 47.68 204.05 49.41 202.97 50.53C201.775 51.76 200.15 52.265 197.445 52.265H180.985V46.96H196.435C198.13 46.96 198.6 46.565 198.6 45.155V44.435C198.6 43.025 198.13 42.63 196.435 42.63H187.81C185.135 42.63 183.475 42.12 182.285 40.895C181.205 39.81 180.59 38.045 180.59 36.13V34.685C180.59 32.77 181.2 31.04 182.285 29.92C183.48 28.69 185.1 28.185 187.81 28.185H203.41V33.49H188.82C187.125 33.49 186.655 33.885 186.655 35.295V36.015C186.655 37.425 187.125 37.82 188.82 37.82ZM208.484 33.49V28.185H233.029V33.49H223.789V52.26H217.759V33.49H208.484Z" fill="white"/>
<path d="M104.34 27.995H94.6995C92.0295 27.995 90.4045 28.5 89.1745 29.73C87.9495 30.955 87.4795 32.51 87.4795 35.25V38.905V40.03V52.255H93.5095V40.035V38.91V35.11C93.5095 33.7 93.9795 33.305 95.6745 33.305H103.365C105.1 33.305 105.53 33.665 105.53 35.11V38.91V40.035V52.26H111.56V40.035V38.91V35.255C111.56 32.51 111.09 30.96 109.865 29.735C108.64 28.5 107.015 27.995 104.34 27.995Z" fill="white"/>
<g clip-path="url(#clip1_1_75)">
<path d="M67.025 16.93L39.55 1.065C37.085 -0.355 34.025 -0.355 31.555 1.065C29.09 2.49 27.56 5.14 27.56 7.985V10.055L25.77 9.02C23.305 7.6 20.245 7.6 17.775 9.02C15.31 10.445 13.78 13.095 13.78 15.945V18.015L11.99 16.98C9.525 15.56 6.465 15.56 3.995 16.98C1.53 18.405 0 21.055 0 23.905V73.615C0 75.045 0.829995 76.375 2.12 76.995C3.40499 77.62 4.965 77.45 6.085 76.565L19.71 65.82L40.72 77.95C41.3 78.285 41.95 78.45 42.6 78.45C43.25 78.45 43.9 78.28 44.48 77.95C45.64 77.28 46.36 76.035 46.36 74.695V44.78C46.36 39.87 43.72 35.3 39.47 32.845L32.58 28.865V7.99C32.58 6.93 33.15 5.94 34.07 5.41C34.99 4.88 36.13 4.88 37.05 5.41L64.525 21.27C67.23 22.83 68.91 25.745 68.91 28.865V66.115C68.91 67.175 68.34 68.165 67.42 68.695L60.14 72.9V36.82C60.14 31.91 57.5 27.34 53.25 24.885L36.335 15.12V20.905L50.745 29.225C53.45 30.785 55.13 33.695 55.13 36.82V75.065C55.13 76.4 55.85 77.65 57.01 78.32C57.59 78.655 58.24 78.82 58.89 78.82C59.54 78.82 60.19 78.65 60.77 78.32L69.93 73.03C72.395 71.605 73.925 68.955 73.925 66.105V28.855C73.915 23.96 71.275 19.385 67.025 16.93ZM36.955 37.185C39.66 38.745 41.34 41.655 41.34 44.78V72.53L23.94 62.485L29.525 58.085C31.46 56.56 32.57 54.275 32.57 51.81V34.66L36.955 37.185ZM27.56 31.76V51.8C27.56 52.72 27.145 53.575 26.425 54.14L5.01 71.025V23.9C5.01 22.84 5.58 21.85 6.5 21.32C7.42 20.79 8.56 20.79 9.48 21.32L13.78 23.8V59.325L18.79 55.375V15.945C18.79 14.885 19.36 13.895 20.28 13.365C21.2 12.835 22.34 12.835 23.26 13.365L27.56 15.845V25.97L22.55 23.075V28.865L27.56 31.76Z" fill="white"/>
</g>
</g>
<defs>
<clipPath id="clip0_1_75">
<rect width="233" height="79" fill="white"/>
</clipPath>
<clipPath id="clip1_1_75">
<rect width="73.925" height="78.82" fill="white"/>
</clipPath>
</defs>
</svg>
