<svg version="1.1" xmlns="http://www.w3.org/2000/svg" viewBox="0 0 1043.5965733014698 373.9459134173083" width="3130.789719904409" height="1121.837740251925" filter="invert(93%) hue-rotate(180deg)">
  <!-- svg-source:excalidraw -->
  
  <defs>
    <style class="style-fonts">
      @font-face {
        font-family: "Virgil";
        src: url("https://excalidraw.com/Virgil.woff2");
      }
      @font-face {
        font-family: "Cascadia";
        src: url("https://excalidraw.com/Cascadia.woff2");
      }
      @font-face {
        font-family: "Assistant";
        src: url("https://excalidraw.com/Assistant-Regular.woff2");
      }
    </style>
    
  </defs>
  <rect x="0" y="0" width="1043.5965733014698" height="373.9459134173083" fill="#ffffff"></rect><g stroke-linecap="round" transform="translate(234.22113940011263 102.990344361421) rotate(0 120.58922097784102 88.59144911564393)"><path d="M32 0 C94.66 -1.07, 154.6 -3.19, 209.18 0 M32 0 C72.68 -1.94, 112.37 -1.69, 209.18 0 M209.18 0 C230.13 -1.82, 240.05 10.46, 241.18 32 M209.18 0 C232.37 1.61, 239.29 9.65, 241.18 32 M241.18 32 C239.76 62.12, 242.73 96.76, 241.18 145.18 M241.18 32 C242.63 62.57, 241.35 93.51, 241.18 145.18 M241.18 145.18 C240.01 164.6, 231.42 178.68, 209.18 177.18 M241.18 145.18 C240.4 164.29, 230.89 175.36, 209.18 177.18 M209.18 177.18 C174.55 179.04, 134.68 178.91, 32 177.18 M209.18 177.18 C140.12 177.98, 72.03 176.89, 32 177.18 M32 177.18 C12.44 178.31, -0.04 165.95, 0 145.18 M32 177.18 C9.7 175.23, -1.52 164.9, 0 145.18 M0 145.18 C-1.26 114.21, 1.93 78.59, 0 32 M0 145.18 C1.73 103.05, 0.17 60.9, 0 32 M0 32 C1.99 10.68, 12.59 -0.03, 32 0 M0 32 C-0.2 11.51, 9.94 -1.1, 32 0" stroke="#1e1e1e" stroke-width="2" fill="none"></path></g><g stroke-linecap="round" transform="translate(758.9467010734086 72.42788317992705) rotate(0 106.80424399460753 40.30522161072989)"><path d="M20.15 0 C80.45 0.44, 140.63 -0.93, 193.46 0 M20.15 0 C56.21 0.89, 93.69 1.47, 193.46 0 M193.46 0 C207.31 -1.7, 213.94 4.87, 213.61 20.15 M193.46 0 C208.18 0.95, 211.57 4.76, 213.61 20.15 M213.61 20.15 C212.74 29.82, 214.59 39.23, 213.61 60.46 M213.61 20.15 C213.22 30.04, 213.22 38.54, 213.61 60.46 M213.61 60.46 C212.49 74.28, 205.89 79.72, 193.46 80.61 M213.61 60.46 C212.16 75.21, 206.62 82.22, 193.46 80.61 M193.46 80.61 C146.29 81.52, 96.51 80.85, 20.15 80.61 M193.46 80.61 C154.41 79.7, 116.39 79.49, 20.15 80.61 M20.15 80.61 C7.11 78.67, 0.61 72.33, 0 60.46 M20.15 80.61 C4.52 79.17, -0.45 73.88, 0 60.46 M0 60.46 C1.31 45.61, -0.89 35.12, 0 20.15 M0 60.46 C0.25 44.19, 0.67 28.92, 0 20.15 M0 20.15 C-1.87 8.52, 7.19 0.13, 20.15 0 M0 20.15 C0.29 8.52, 6.99 0.35, 20.15 0" stroke="#1e1e1e" stroke-width="1" fill="none"></path></g><g stroke-linecap="round" transform="translate(690.6426811898452 300.27657144051034) rotate(0 1.9592201843381645 1.9422789376478988)"><path d="M1.83 -0.12 C2.11 -0.25, 2.31 -0.28, 2.68 -0.01 C3.05 0.26, 3.88 1.01, 4.04 1.48 C4.19 1.95, 3.74 2.46, 3.59 2.81 C3.44 3.17, 3.45 3.48, 3.13 3.6 C2.81 3.72, 2.16 3.65, 1.68 3.53 C1.2 3.4, 0.52 3.14, 0.23 2.85 C-0.06 2.55, -0.15 2.14, -0.06 1.75 C0.02 1.36, 0.42 0.83, 0.74 0.5 C1.05 0.17, 1.64 -0.11, 1.84 -0.21 C2.05 -0.31, 1.96 -0.23, 1.96 -0.11 M1.98 0.02 C2.47 0.03, 3.26 -0.18, 3.62 0.09 C3.98 0.37, 4.1 1.21, 4.13 1.69 C4.17 2.16, 4.06 2.54, 3.83 2.97 C3.61 3.39, 3.23 4.06, 2.77 4.23 C2.31 4.4, 1.59 4.28, 1.08 3.97 C0.58 3.66, -0.02 2.86, -0.26 2.36 C-0.49 1.87, -0.45 1.39, -0.31 1 C-0.18 0.61, 0.15 0.26, 0.57 0.02 C0.99 -0.21, 1.88 -0.48, 2.2 -0.41 C2.51 -0.34, 2.43 0.27, 2.44 0.44" stroke="#000000" stroke-width="1" fill="none"></path></g><g stroke-linecap="round" transform="translate(690.7962609596873 311.7681664160614) rotate(0 1.9592201843381645 1.9422789376478988)"><path d="M1.62 -0.3 C2.03 -0.29, 3.07 0.24, 3.41 0.58 C3.76 0.91, 3.62 1.35, 3.7 1.73 C3.78 2.1, 4.07 2.55, 3.91 2.84 C3.76 3.13, 3.24 3.34, 2.78 3.44 C2.31 3.55, 1.56 3.59, 1.13 3.48 C0.7 3.38, 0.35 3.14, 0.21 2.81 C0.06 2.47, 0.16 1.91, 0.26 1.48 C0.36 1.06, 0.49 0.52, 0.81 0.24 C1.12 -0.03, 1.95 -0.18, 2.18 -0.16 C2.4 -0.15, 2.15 0.32, 2.15 0.34 M1.93 -0.46 C2.38 -0.56, 2.83 -0.1, 3.19 0.18 C3.55 0.46, 3.94 0.74, 4.09 1.22 C4.24 1.69, 4.3 2.6, 4.1 3.05 C3.89 3.5, 3.36 3.85, 2.87 3.92 C2.37 3.99, 1.62 3.65, 1.15 3.46 C0.68 3.26, 0.29 3.05, 0.05 2.73 C-0.19 2.42, -0.36 2, -0.28 1.58 C-0.19 1.17, 0.17 0.44, 0.54 0.25 C0.91 0.06, 1.75 0.37, 1.96 0.42 C2.17 0.46, 1.81 0.61, 1.78 0.52" stroke="#000000" stroke-width="1" fill="none"></path></g><g stroke-linecap="round" transform="translate(709.854985248837 299.7713662490821) rotate(0 1.9592201843381645 1.9422789376478988)"><path d="M2.04 0.14 C2.46 0.16, 2.58 0.3, 2.93 0.51 C3.27 0.73, 3.95 1.09, 4.11 1.42 C4.26 1.75, 4.1 2.15, 3.85 2.48 C3.59 2.81, 2.99 3.22, 2.57 3.42 C2.16 3.63, 1.69 3.77, 1.35 3.68 C1.02 3.59, 0.77 3.24, 0.57 2.88 C0.36 2.52, 0.09 1.93, 0.13 1.51 C0.17 1.1, 0.49 0.58, 0.81 0.38 C1.12 0.18, 1.8 0.4, 2.01 0.31 C2.23 0.21, 2.17 -0.14, 2.1 -0.17 M2.19 -0.1 C2.59 -0.06, 3.17 0.01, 3.5 0.36 C3.84 0.72, 4.18 1.55, 4.2 2.02 C4.22 2.5, 3.95 2.97, 3.61 3.2 C3.27 3.42, 2.64 3.36, 2.18 3.38 C1.73 3.4, 1.26 3.47, 0.9 3.34 C0.53 3.2, 0.12 2.94, -0.02 2.58 C-0.15 2.22, -0.08 1.47, 0.09 1.18 C0.26 0.89, 0.68 0.96, 1.01 0.84 C1.35 0.72, 1.92 0.65, 2.09 0.45 C2.27 0.26, 2.05 -0.31, 2.06 -0.32" stroke="#000000" stroke-width="1" fill="none"></path></g><g stroke-linecap="round" transform="translate(710.0085650186786 311.26296122463623) rotate(0 1.9592201843381645 1.9422789376478988)"><path d="M1.48 0.16 C1.88 0.05, 2.81 0.09, 3.22 0.23 C3.63 0.37, 3.88 0.65, 3.94 1 C4.01 1.36, 3.79 1.94, 3.6 2.36 C3.42 2.77, 3.13 3.29, 2.84 3.52 C2.54 3.74, 2.19 3.8, 1.81 3.7 C1.43 3.6, 0.82 3.26, 0.55 2.93 C0.29 2.6, 0.19 2.06, 0.21 1.74 C0.22 1.41, 0.36 1.29, 0.63 0.96 C0.91 0.64, 1.74 -0.02, 1.87 -0.19 C2 -0.36, 1.43 -0.15, 1.4 -0.06 M1.92 -0.07 C2.33 -0.08, 2.96 0.41, 3.27 0.68 C3.58 0.96, 3.76 1.32, 3.77 1.58 C3.78 1.84, 3.56 1.97, 3.35 2.24 C3.15 2.51, 2.87 3, 2.53 3.21 C2.19 3.42, 1.66 3.6, 1.32 3.53 C0.98 3.45, 0.67 2.96, 0.5 2.76 C0.33 2.55, 0.29 2.58, 0.3 2.31 C0.32 2.04, 0.36 1.57, 0.6 1.13 C0.84 0.69, 1.53 -0.19, 1.74 -0.34 C1.94 -0.48, 1.89 0.16, 1.82 0.23" stroke="#000000" stroke-width="1" fill="none"></path></g><g stroke-linecap="round" transform="translate(700.0516504974073 291.6949062005365) rotate(0 1.9592201843381645 1.9422789376478988)"><path d="M2.34 -0.05 C2.79 -0.12, 3.22 -0.02, 3.45 0.23 C3.68 0.48, 3.71 1, 3.72 1.44 C3.74 1.89, 3.69 2.53, 3.52 2.9 C3.36 3.27, 3.11 3.57, 2.74 3.66 C2.36 3.76, 1.68 3.66, 1.29 3.49 C0.9 3.32, 0.59 2.92, 0.41 2.63 C0.23 2.35, 0.11 2.19, 0.2 1.78 C0.3 1.37, 0.72 0.47, 0.99 0.16 C1.26 -0.15, 1.62 -0.11, 1.81 -0.1 C2.01 -0.09, 2.17 0.15, 2.16 0.23 M2.21 0.41 C2.55 0.43, 2.92 0.57, 3.13 0.69 C3.34 0.81, 3.41 0.86, 3.44 1.15 C3.47 1.44, 3.47 2.05, 3.3 2.43 C3.13 2.81, 2.73 3.27, 2.41 3.42 C2.1 3.58, 1.71 3.38, 1.41 3.37 C1.1 3.36, 0.81 3.57, 0.6 3.36 C0.39 3.15, 0.12 2.66, 0.14 2.12 C0.16 1.58, 0.42 0.46, 0.74 0.14 C1.06 -0.19, 1.93 0.21, 2.06 0.17 C2.2 0.14, 1.64 -0.09, 1.54 -0.07" stroke="#000000" stroke-width="1" fill="none"></path></g><g stroke-linecap="round" transform="translate(700.6120549395011 317.3366676928066) rotate(0 1.9592201843381645 1.9422789376478988)"><path d="M2.23 -0.31 C2.55 -0.35, 2.87 -0.07, 3.14 0.25 C3.41 0.58, 3.73 1.18, 3.84 1.62 C3.96 2.05, 4.02 2.56, 3.82 2.89 C3.61 3.21, 3.03 3.47, 2.62 3.59 C2.21 3.7, 1.75 3.64, 1.37 3.55 C0.99 3.47, 0.53 3.48, 0.34 3.09 C0.15 2.71, 0.22 1.73, 0.24 1.26 C0.27 0.78, 0.18 0.44, 0.5 0.26 C0.82 0.08, 1.92 0.2, 2.14 0.19 C2.36 0.18, 1.85 0.17, 1.84 0.2 M1.86 0.28 C2.13 0.1, 2.46 -0.12, 2.73 0.02 C3.01 0.16, 3.38 0.7, 3.49 1.12 C3.61 1.53, 3.54 2.17, 3.41 2.54 C3.29 2.91, 3.04 3.06, 2.75 3.33 C2.45 3.6, 2.04 4.17, 1.65 4.18 C1.26 4.2, 0.67 3.9, 0.42 3.42 C0.16 2.94, 0.04 1.77, 0.11 1.31 C0.18 0.85, 0.58 0.9, 0.82 0.67 C1.06 0.43, 1.43 -0.02, 1.54 -0.11 C1.65 -0.2, 1.45 0.11, 1.48 0.12" stroke="#000000" stroke-width="1" fill="none"></path></g><g stroke-linecap="round"><g transform="translate(692.894464072637 303.8143003002465) rotate(0 -0.31214149213587916 4.0245133528288335)"><path d="M0.15 0.26 C0.01 1.66, -0.5 6.92, -0.68 8.19 M-0.2 0.09 C-0.4 1.4, -0.98 6.29, -0.99 7.63" stroke="#000000" stroke-width="1" fill="none"></path></g></g><mask></mask><g stroke-linecap="round"><g transform="translate(712.0088107576123 303.2441838950267) rotate(0 -0.31214149213587916 4.0245133528288335)"><path d="M-0.06 0.14 C-0.24 1.4, -0.81 6.55, -0.96 7.85 M-0.51 -0.1 C-0.61 1.19, -0.38 6.8, -0.34 8.21" stroke="#000000" stroke-width="1" fill="none"></path></g></g><mask></mask><g stroke-linecap="round"><g transform="translate(694.1218371784009 300.09452573923124) rotate(0 3.6042035003779347 -2.9327267326650315)"><path d="M-0.34 -0.2 C0.82 -1.21, 5.66 -5.03, 6.9 -5.93 M0.14 0.47 C1.41 -0.5, 6.43 -4.41, 7.53 -5.52" stroke="#000000" stroke-width="1" fill="none"></path></g></g><mask></mask><g stroke-linecap="round"><g transform="translate(704.7528785320821 318.64109667969547) rotate(0 3.28934676118115 -1.8489496341568383)"><path d="M-0.31 -0.07 C0.82 -0.61, 5.32 -2.87, 6.44 -3.45 M0.18 -0.41 C1.28 -1.03, 5.11 -3.32, 6.1 -3.94" stroke="#000000" stroke-width="1" fill="none"></path></g></g><mask></mask><g stroke-linecap="round"><g transform="translate(694.1469049022664 314.7514633529652) rotate(0 2.391590787707628 1.3802604680741695)"><path d="M-0.13 0.25 C0.69 0.74, 3.85 2.44, 4.63 2.89 M0.44 0.07 C1.23 0.46, 3.47 1.95, 4.27 2.34" stroke="#000000" stroke-width="1" fill="none"></path></g></g><mask></mask><g stroke-linecap="round"><g transform="translate(705.2485493749193 294.71293695679105) rotate(0 3.937976925675457 2.8009440916158894)"><path d="M-0.15 0.13 C1.14 1.06, 6.33 4.89, 7.64 5.82 M0.41 -0.11 C1.83 0.7, 7.15 4.44, 8.31 5.31" stroke="#000000" stroke-width="1" fill="none"></path></g></g><mask></mask><g stroke-linecap="round"><g transform="translate(694.3537750478947 312.2682433847565) rotate(0 3.6483989303453654 -8.242930928275499)"><path d="M-0.37 0.34 C0.84 -2.4, 5.67 -13.49, 7.03 -16.25 M0.44 0.04 C1.85 -2.88, 6.91 -14.23, 8.13 -17.09" stroke="#000000" stroke-width="1" fill="none"></path></g></g><mask></mask><g stroke-linecap="round"><g transform="translate(702.4759846781951 312.28815472726) rotate(306.8074096825988 4.418844018669233 -8.441140272239124)"><path d="M-0.27 0.24 C1.35 -2.58, 7.88 -13.64, 9.34 -16.58 M0.6 -0.11 C2.22 -3.12, 7.66 -14.56, 9.16 -17.39" stroke="#000000" stroke-width="1" fill="none"></path></g></g><mask></mask><g stroke-linecap="round"><g transform="translate(694.8824961068747 313.99986069228964) rotate(0 7.837993634235545 -0.13160875091118385)"><path d="M0.5 0.3 C3.1 0.13, 12.82 -0.68, 15.32 -0.78 M0.09 -0.02 C2.89 -0.16, 13.88 -0.4, 16.38 -0.34" stroke="#000000" stroke-width="1" fill="none"></path></g></g><mask></mask><g transform="translate(257.08149580538725 147.15536499954018) rotate(0 92.9565393937371 9.75179355698789)"><text x="0" y="0" font-family="Virgil, Segoe UI Emoji" font-size="15.602869691180631px" fill="#1971c2" text-anchor="start" style="white-space: pre;" direction="ltr" dominant-baseline="text-before-edge">Flight Booking Assistant</text></g><g transform="translate(772.5745513937338 93.94780517864223) rotate(0 87.19999694824219 11.886742557732422)"><text x="0" y="0" font-family="Virgil, Segoe UI Emoji" font-size="19.018788092371874px" fill="#1971c2" text-anchor="start" style="white-space: pre;" direction="ltr" dominant-baseline="text-before-edge">book-one-way-flight</text></g><g transform="translate(773.8016674925491 115.65036704358988) rotate(0 53.28333282470703 6.0740799141332555)"><text x="0" y="0" font-family="Virgil, Segoe UI Emoji" font-size="9.71852786261321px" fill="#f08c00" text-anchor="start" style="white-space: pre;" direction="ltr" dominant-baseline="text-before-edge">Books one-way flights.</text></g><g stroke-linecap="round" transform="translate(753.2258865216315 172.01039205685566) rotate(0 113.26434002907513 40.30522161072989)"><path d="M20.15 0 C69.67 2.57, 123.51 1.66, 206.38 0 M20.15 0 C86.9 -1.3, 152.77 -0.94, 206.38 0 M206.38 0 C220.71 -0.21, 225.54 5.54, 226.53 20.15 M206.38 0 C218.5 0.54, 228.34 5.57, 226.53 20.15 M226.53 20.15 C226.47 33.59, 227.84 43.48, 226.53 60.46 M226.53 20.15 C226.84 36.29, 226.41 49.88, 226.53 60.46 M226.53 60.46 C227.25 72.88, 220.41 81.53, 206.38 80.61 M226.53 60.46 C228.55 72.56, 217.77 78.8, 206.38 80.61 M206.38 80.61 C155.74 78.5, 107.82 81.93, 20.15 80.61 M206.38 80.61 C168.07 80.1, 128.4 80.05, 20.15 80.61 M20.15 80.61 C6.25 82.59, -1.81 72.37, 0 60.46 M20.15 80.61 C8.91 80.86, -1.29 73.86, 0 60.46 M0 60.46 C1.7 50.37, -0.08 43.54, 0 20.15 M0 60.46 C0.82 47.1, -0.45 32.18, 0 20.15 M0 20.15 C0.62 5.89, 6.3 1.44, 20.15 0 M0 20.15 C-0.01 7.48, 6.24 -1.87, 20.15 0" stroke="#1e1e1e" stroke-width="1" fill="none"></path></g><g transform="translate(766.8537368419563 193.53031405557084) rotate(0 102.55000305175781 11.886742557732418)"><text x="0" y="0" font-family="Virgil, Segoe UI Emoji" font-size="19.018788092371874px" fill="#1971c2" text-anchor="start" style="white-space: pre;" direction="ltr" dominant-baseline="text-before-edge">answer-deep-questions</text></g><g transform="translate(768.080852940772 215.23287592051844) rotate(0 85.95833587646484 12.148159828266515)"><text x="0" y="0" font-family="Virgil, Segoe UI Emoji" font-size="9.71852786261321px" fill="#f08c00" text-anchor="start" style="white-space: pre;" direction="ltr" dominant-baseline="text-before-edge">Answers deep questions about life, </text><text x="0" y="12.148159828266511" font-family="Virgil, Segoe UI Emoji" font-size="9.71852786261321px" fill="#f08c00" text-anchor="start" style="white-space: pre;" direction="ltr" dominant-baseline="text-before-edge">the universe and everything.</text></g><g stroke-linecap="round" transform="translate(727.3408543789126 269.39300527967725) rotate(0 153.1278594612786 40.30522161072989)"><path d="M20.15 0 C119.32 -2.52, 220.51 -1.77, 286.1 0 M20.15 0 C77.13 1.06, 132.47 1.98, 286.1 0 M286.1 0 C298 1.8, 307.82 6.92, 306.26 20.15 M286.1 0 C298.34 1.45, 306.67 5.91, 306.26 20.15 M306.26 20.15 C307.8 28.59, 306.68 37.33, 306.26 60.46 M306.26 20.15 C306.87 30, 307 40.21, 306.26 60.46 M306.26 60.46 C307.5 75.18, 300.61 82.6, 286.1 80.61 M306.26 60.46 C307.47 72.82, 298.16 79.61, 286.1 80.61 M286.1 80.61 C180.5 78.85, 72.9 80, 20.15 80.61 M286.1 80.61 C217.9 80.58, 150.07 80.61, 20.15 80.61 M20.15 80.61 C7.8 79.41, -1.87 75.37, 0 60.46 M20.15 80.61 C5.07 78.57, -0.44 73.11, 0 60.46 M0 60.46 C-0.51 43.24, 1.89 31.2, 0 20.15 M0 60.46 C1 46.69, -0.76 31.61, 0 20.15 M0 20.15 C-0.02 4.98, 5.51 -1.02, 20.15 0 M0 20.15 C0.2 8.96, 5.16 -1.88, 20.15 0" stroke="#1e1e1e" stroke-width="1" fill="none"></path></g><g transform="translate(740.6114609475219 290.91292727839254) rotate(0 141.47500610351562 11.886742557732418)"><text x="0" y="0" font-family="Virgil, Segoe UI Emoji" font-size="19.018788092371874px" fill="#1971c2" text-anchor="start" style="white-space: pre;" direction="ltr" dominant-baseline="text-before-edge">GetMoviesWithScoreHigherThan</text></g><g transform="translate(741.8385770463367 312.61548914334) rotate(0 105.67500305175781 6.07407991413325)"><text x="0" y="0" font-family="Virgil, Segoe UI Emoji" font-size="9.71852786261321px" fill="#f08c00" text-anchor="start" style="white-space: pre;" direction="ltr" dominant-baseline="text-before-edge">Get movies with higher score than the input</text></g><g transform="translate(769.9216325781074 10) rotate(0 97.48332977294922 20)"><text x="0" y="0" font-family="Virgil, Segoe UI Emoji" font-size="16px" fill="#2f9e44" text-anchor="start" style="white-space: pre;" direction="ltr" dominant-baseline="text-before-edge">Available Tools to the</text><text x="0" y="20" font-family="Virgil, Segoe UI Emoji" font-size="16px" fill="#2f9e44" text-anchor="start" style="white-space: pre;" direction="ltr" dominant-baseline="text-before-edge">Flight Booking Assistant!</text></g><g stroke-linecap="round" transform="translate(720.8439680921258 196.28351125342562) rotate(0 12.579422811826817 12.567376828514043)"><path d="M0 0 C0 0, 0 0, 0 0 M0 0 C0 0, 0 0, 0 0 M0.13 12.04 C3.17 8.54, 6.21 5.05, 10.63 -0.03 M0.13 12.04 C3.43 8.25, 6.73 4.46, 10.63 -0.03 M0.27 24.08 C7.84 15.37, 15.41 6.66, 21.26 -0.07 M0.27 24.08 C8.34 14.79, 16.41 5.51, 21.26 -0.07 M9.58 25.56 C13.35 21.22, 17.12 16.88, 25.33 7.44 M9.58 25.56 C15.38 18.89, 21.18 12.22, 25.33 7.44 M20.21 25.52 C21.44 24.11, 22.67 22.7, 25.46 19.48 M20.21 25.52 C22.21 23.22, 24.21 20.92, 25.46 19.48 M-0.37 24.81 C-0.37 24.81, -0.37 24.81, -0.37 24.81 M-0.37 24.81 C-0.37 24.81, -0.37 24.81, -0.37 24.81 M12.43 25.34 C7.71 21.23, 2.98 17.13, 0.35 14.84 M12.43 25.34 C7.95 21.45, 3.48 17.56, 0.35 14.84 M24.47 25.2 C15.61 17.51, 6.76 9.81, 0.32 4.21 M24.47 25.2 C17.58 19.21, 10.68 13.22, 0.32 4.21 M25.19 15.23 C21.36 11.9, 17.53 8.57, 7.83 0.14 M25.19 15.23 C18.79 9.67, 12.39 4.11, 7.83 0.14 M25.15 4.6 C23.73 3.36, 22.3 2.12, 19.87 0.01 M25.15 4.6 C23.94 3.54, 22.72 2.49, 19.87 0.01" stroke="#fd7e1488" stroke-width="1" fill="none"></path><path d="M0 0 C7.75 0, 15.51 0, 25.16 0 M0 0 C5.13 0, 10.25 0, 25.16 0 M25.16 0 C25.16 8.1, 25.16 16.19, 25.16 25.13 M25.16 0 C25.16 9.17, 25.16 18.35, 25.16 25.13 M25.16 25.13 C16.04 25.13, 6.92 25.13, 0 25.13 M25.16 25.13 C17.35 25.13, 9.55 25.13, 0 25.13 M0 25.13 C0 18.93, 0 12.72, 0 0 M0 25.13 C0 19.03, 0 12.93, 0 0" stroke="#000000" stroke-width="2" fill="none"></path></g><g stroke-linecap="round"><g transform="translate(730.5979037517097 206.7190022332722) rotate(0 -1.200848600448353 5.248878168576482)"><path d="M0 0 C-1.65 3.3, -3.3 6.59, -4.97 9.94 M0 0 C-1.26 2.52, -2.52 5.05, -4.97 9.94 M-4.97 9.94 C-3.76 10.08, -2.55 10.22, -0.2 10.5 M-4.97 9.94 C-3.1 10.16, -1.23 10.38, -0.2 10.5 M-0.2 10.5 C0.77 8.62, 1.74 6.74, 2.57 5.14 M-0.2 10.5 C0.42 9.29, 1.04 8.09, 2.57 5.14 M2.57 5.14 C1.7 3.21, 0.83 1.28, 0.35 0.22 M2.57 5.14 C1.81 3.47, 1.06 1.8, 0.35 0.22" stroke="#000000" stroke-width="2" fill="none"></path></g></g><mask></mask><g stroke-linecap="round"><g transform="translate(740.1549406761117 212.92351695579595) rotate(0 -4.974805429792468 -4.293241614629231)"><path d="M0 0 C-1.96 -4.25, -3.92 -8.5, -5.84 -12.65 M0 0 C-1.55 -3.37, -3.11 -6.74, -5.84 -12.65 M-5.84 -12.65 C-8.01 -12.74, -10.17 -12.83, -11.39 -12.88 M-5.84 -12.65 C-7.49 -12.72, -9.14 -12.79, -11.39 -12.88 M-11.39 -12.88 C-11.47 -12.08, -11.55 -11.29, -11.78 -8.98 M-11.39 -12.88 C-11.54 -11.35, -11.69 -9.83, -11.78 -8.98 M-11.78 -8.98 C-11.03 -8.87, -10.28 -8.77, -8.94 -8.59 M-11.78 -8.98 C-11.08 -8.88, -10.37 -8.78, -8.94 -8.59 M-8.94 -8.59 C-7.64 -5.79, -6.34 -2.98, -3.07 4.07 M-8.94 -8.59 C-7.49 -5.47, -6.05 -2.36, -3.07 4.07 M-3.07 4.07 C-1.44 4.15, 0.18 4.23, 1.44 4.29 M-3.07 4.07 C-1.83 4.13, -0.59 4.19, 1.44 4.29 M1.44 4.29 C1.54 3.26, 1.65 2.23, 1.83 0.39 M1.44 4.29 C1.58 2.89, 1.72 1.48, 1.83 0.39 M1.83 0.39 C1.72 0.28, 1.61 0.17, 1.44 0 M1.83 0.39 C1.71 0.27, 1.59 0.15, 1.44 0" stroke="#000000" stroke-width="2" fill="none"></path></g></g><mask></mask><g stroke-linecap="round" transform="translate(727.5544981900991 98.85456741011416) rotate(0 12.579422811826817 12.567376828514043)"><path d="M0 0 C0 0, 0 0, 0 0 M0 0 C0 0, 0 0, 0 0 M0.13 12.04 C3.24 8.47, 6.35 4.89, 10.63 -0.03 M0.13 12.04 C2.72 9.06, 5.31 6.09, 10.63 -0.03 M0.27 24.08 C4.68 19.01, 9.09 13.94, 21.26 -0.07 M0.27 24.08 C6.26 17.19, 12.25 10.3, 21.26 -0.07 M9.58 25.56 C13.77 20.75, 17.95 15.94, 25.33 7.44 M9.58 25.56 C13.86 20.64, 18.13 15.72, 25.33 7.44 M20.21 25.52 C21.77 23.74, 23.32 21.95, 25.46 19.48 M20.21 25.52 C21.61 23.92, 23 22.32, 25.46 19.48 M-0.37 24.81 C-0.37 24.81, -0.37 24.81, -0.37 24.81 M-0.37 24.81 C-0.37 24.81, -0.37 24.81, -0.37 24.81 M12.43 25.34 C7.9 21.4, 3.38 17.47, 0.35 14.84 M12.43 25.34 C8.8 22.19, 5.18 19.04, 0.35 14.84 M24.47 25.2 C16.1 17.93, 7.73 10.66, 0.32 4.21 M24.47 25.2 C18.39 19.92, 12.32 14.64, 0.32 4.21 M25.19 15.23 C21.7 12.2, 18.22 9.17, 7.83 0.14 M25.19 15.23 C18.77 9.65, 12.36 4.08, 7.83 0.14 M25.15 4.6 C24.02 3.61, 22.89 2.63, 19.87 0.01 M25.15 4.6 C23.48 3.14, 21.8 1.69, 19.87 0.01" stroke="#fd7e1488" stroke-width="1" fill="none"></path><path d="M0 0 C9.82 0, 19.65 0, 25.16 0 M0 0 C7.86 0, 15.72 0, 25.16 0 M25.16 0 C25.16 9.09, 25.16 18.18, 25.16 25.13 M25.16 0 C25.16 8.06, 25.16 16.12, 25.16 25.13 M25.16 25.13 C19.89 25.13, 14.63 25.13, 0 25.13 M25.16 25.13 C17.22 25.13, 9.27 25.13, 0 25.13 M0 25.13 C0 17.5, 0 9.87, 0 0 M0 25.13 C0 18.26, 0 11.39, 0 0" stroke="#000000" stroke-width="2" fill="none"></path></g><g stroke-linecap="round"><g transform="translate(737.3084338496835 109.29005838996073) rotate(0 -1.200848600448353 5.2488781685764785)"><path d="M0 0 C-1.94 3.89, -3.89 7.78, -4.97 9.94 M0 0 C-1.39 2.78, -2.78 5.56, -4.97 9.94 M-4.97 9.94 C-3.31 10.13, -1.66 10.33, -0.2 10.5 M-4.97 9.94 C-3.08 10.16, -1.2 10.38, -0.2 10.5 M-0.2 10.5 C0.45 9.24, 1.1 7.97, 2.57 5.14 M-0.2 10.5 C0.7 8.75, 1.61 7, 2.57 5.14 M2.57 5.14 C1.99 3.86, 1.41 2.57, 0.35 0.22 M2.57 5.14 C1.83 3.51, 1.09 1.87, 0.35 0.22" stroke="#000000" stroke-width="2" fill="none"></path></g></g><mask></mask><g stroke-linecap="round"><g transform="translate(746.865470774085 115.49457311248449) rotate(0 -4.974805429792468 -4.293241614629233)"><path d="M0 0 C-1.64 -3.55, -3.27 -7.09, -5.84 -12.65 M0 0 C-1.3 -2.83, -2.61 -5.65, -5.84 -12.65 M-5.84 -12.65 C-7.95 -12.74, -10.05 -12.83, -11.39 -12.88 M-5.84 -12.65 C-7.99 -12.74, -10.15 -12.83, -11.39 -12.88 M-11.39 -12.88 C-11.49 -11.81, -11.6 -10.74, -11.78 -8.98 M-11.39 -12.88 C-11.49 -11.9, -11.58 -10.91, -11.78 -8.98 M-11.78 -8.98 C-10.83 -8.85, -9.89 -8.72, -8.94 -8.59 M-11.78 -8.98 C-10.86 -8.85, -9.94 -8.72, -8.94 -8.59 M-8.94 -8.59 C-6.88 -4.16, -4.83 0.27, -3.07 4.07 M-8.94 -8.59 C-6.62 -3.6, -4.31 1.4, -3.07 4.07 M-3.07 4.07 C-1.35 4.15, 0.37 4.24, 1.44 4.29 M-3.07 4.07 C-2.14 4.11, -1.21 4.16, 1.44 4.29 M1.44 4.29 C1.58 2.84, 1.73 1.39, 1.83 0.39 M1.44 4.29 C1.56 3.05, 1.69 1.81, 1.83 0.39 M1.83 0.39 C1.68 0.24, 1.53 0.09, 1.44 0 M1.83 0.39 C1.68 0.24, 1.53 0.09, 1.44 0" stroke="#000000" stroke-width="2" fill="none"></path></g></g><mask></mask><g transform="translate(265.91799931430273 179.7502909081235) rotate(0 89.2750015258789 36.84910650918272)"><text x="0" y="0" font-family="Virgil, Segoe UI Emoji" font-size="9.826428402448725px" fill="#f08c00" text-anchor="start" style="white-space: pre;" direction="ltr" dominant-baseline="text-before-edge">You are an assistant to book </text><text x="0" y="12.283035503060907" font-family="Virgil, Segoe UI Emoji" font-size="9.826428402448725px" fill="#f08c00" text-anchor="start" style="white-space: pre;" direction="ltr" dominant-baseline="text-before-edge">one-way flights. </text><text x="0" y="24.566071006121813" font-family="Virgil, Segoe UI Emoji" font-size="9.826428402448725px" fill="#f08c00" text-anchor="start" style="white-space: pre;" direction="ltr" dominant-baseline="text-before-edge"></text><text x="0" y="36.84910650918272" font-family="Virgil, Segoe UI Emoji" font-size="9.826428402448725px" fill="#f08c00" text-anchor="start" style="white-space: pre;" direction="ltr" dominant-baseline="text-before-edge">You are also very knowledgeable on </text><text x="0" y="49.13214201224363" font-family="Virgil, Segoe UI Emoji" font-size="9.826428402448725px" fill="#f08c00" text-anchor="start" style="white-space: pre;" direction="ltr" dominant-baseline="text-before-edge">movies and you know a thing or two </text><text x="0" y="61.415177515304535" font-family="Virgil, Segoe UI Emoji" font-size="9.826428402448725px" fill="#f08c00" text-anchor="start" style="white-space: pre;" direction="ltr" dominant-baseline="text-before-edge">about the meaning of life.</text></g><g transform="translate(335.2501607348288 107.02930386279732) rotate(0 14.260863079851788 17.8260788498148)"><text x="0" y="0" font-family="Virgil, Segoe UI Emoji" font-size="28.521726159703675px" fill="#1971c2" text-anchor="start" style="white-space: pre;" direction="ltr" dominant-baseline="text-before-edge">🤖</text></g><g transform="translate(10.857285450057816 192.49152287597656) rotate(0 107.08576156817651 17.846595135195344)"><text x="0" y="0" font-family="Virgil, Segoe UI Emoji" font-size="7.138638054078139px" fill="#1971c2" text-anchor="start" style="white-space: pre;" direction="ltr" dominant-baseline="text-before-edge">assistant: Your one-way flight to Bali, Indonesia, </text><text x="0" y="8.923297567597674" font-family="Virgil, Segoe UI Emoji" font-size="7.138638054078139px" fill="#1971c2" text-anchor="start" style="white-space: pre;" direction="ltr" dominant-baseline="text-before-edge">on the 1st of March 2024 has been successfully booked. </text><text x="0" y="17.846595135195347" font-family="Virgil, Segoe UI Emoji" font-size="7.138638054078139px" fill="#1971c2" text-anchor="start" style="white-space: pre;" direction="ltr" dominant-baseline="text-before-edge">Enjoy your trip, Nuno Pato! If you have any more requests </text><text x="0" y="26.769892702793022" font-family="Virgil, Segoe UI Emoji" font-size="7.138638054078139px" fill="#1971c2" text-anchor="start" style="white-space: pre;" direction="ltr" dominant-baseline="text-before-edge">or need any assistance, feel free to ask.</text></g><g transform="translate(10 160.8932038767601) rotate(0 94.60955808564802 14.457614543487505)"><text x="0" y="0" font-family="Virgil, Segoe UI Emoji" font-size="7.710727756526669px" fill="#2f9e44" text-anchor="start" style="white-space: pre;" direction="ltr" dominant-baseline="text-before-edge">user: Hi there, my name is Nuno Pato and I would</text><text x="0" y="9.638409695658336" font-family="Virgil, Segoe UI Emoji" font-size="7.710727756526669px" fill="#2f9e44" text-anchor="start" style="white-space: pre;" direction="ltr" dominant-baseline="text-before-edge">like to book a flight to Bali, Indonesia, on the </text><text x="0" y="19.27681939131667" font-family="Virgil, Segoe UI Emoji" font-size="7.710727756526669px" fill="#2f9e44" text-anchor="start" style="white-space: pre;" direction="ltr" dominant-baseline="text-before-edge">1st of March 2024, please.</text></g><g transform="translate(83.19772910893016 142.97685752095578) rotate(0 11.063986732786589 6.013036267818804)"><text x="0" y="0" font-family="Virgil, Segoe UI Emoji" font-size="9.620858028510087px" fill="#000000" text-anchor="start" style="white-space: pre;" direction="ltr" dominant-baseline="text-before-edge">User</text></g><g stroke-linecap="round"><g transform="translate(81.85695640125914 138.33338598586988) rotate(0 11.85035254690331 -10.552398619862405)" fill-rule="evenodd"><path d="M6.95 -19.13 C6.95 -19.13, 6.95 -19.13, 6.95 -19.13 M6.95 -19.13 C6.95 -19.13, 6.95 -19.13, 6.95 -19.13 M0.52 0.46 C6.03 -5.87, 11.53 -12.2, 16.93 -18.41 M0.52 0.46 C6.55 -6.47, 12.57 -13.4, 16.93 -18.41 M11.15 0.42 C13.79 -2.61, 16.43 -5.64, 22.31 -12.41 M11.15 0.42 C13.68 -2.49, 16.21 -5.4, 22.31 -12.41 M23.1 -1.12 C23.73 -1.85, 24.36 -2.58, 25.72 -4.14 M23.1 -1.12 C23.7 -1.81, 24.3 -2.5, 25.72 -4.14 M0 0 C0 0, 0 0, 0 0 M0 0 C0 0, 0 0, 0 0 M12.04 -0.13 C8.1 -3.56, 4.17 -6.98, 1.47 -9.32 M12.04 -0.13 C8.42 -3.28, 4.79 -6.44, 1.47 -9.32 M22.57 -1.58 C16.33 -7.01, 10.08 -12.44, 5.21 -16.67 M22.57 -1.58 C18.82 -4.84, 15.07 -8.1, 5.21 -16.67 M21.78 -12.86 C19.47 -14.87, 17.16 -16.88, 11.97 -21.39 M21.78 -12.86 C18.95 -15.32, 16.12 -17.78, 11.97 -21.39" stroke="#ced4da" stroke-width="1" fill="none"></path><path d="M0 0 C0.44 -2.33, 0.76 -10.47, 2.65 -13.99 C4.55 -17.5, 8.47 -20.85, 11.38 -21.1 C14.28 -21.36, 18.04 -18.79, 20.1 -15.51 C22.15 -12.24, 27.05 -4.04, 23.7 -1.45 C20.35 1.13, 3.95 -0.24, 0 0 M0 0 C0.44 -2.33, 0.76 -10.47, 2.65 -13.99 C4.55 -17.5, 8.47 -20.85, 11.38 -21.1 C14.28 -21.36, 18.04 -18.79, 20.1 -15.51 C22.15 -12.24, 27.05 -4.04, 23.7 -1.45 C20.35 1.13, 3.95 -0.24, 0 0" stroke="#000000" stroke-width="2" fill="none"></path></g></g><mask></mask><g stroke-linecap="round" transform="translate(87.84780256233898 106.25213085985456) rotate(0 6.067380504014523 5.308957941012725)"><path d="M1.75 1.52 C1.75 1.52, 1.75 1.52, 1.75 1.52 M1.75 1.52 C1.75 1.52, 1.75 1.52, 1.75 1.52 M4.5 10.54 C6.18 8.62, 7.85 6.7, 11.07 2.99 M4.5 10.54 C6.29 8.49, 8.07 6.44, 11.07 2.99 M2.33 9.52 C2.33 9.52, 2.33 9.52, 2.33 9.52 M2.33 9.52 C2.33 9.52, 2.33 9.52, 2.33 9.52 M12.1 7.41 C9.8 5.41, 7.5 3.41, 3.8 0.2 M12.1 7.41 C10.44 5.97, 8.78 4.52, 3.8 0.2" stroke="#ced4da" stroke-width="1" fill="none"></path><path d="M12.13 5.31 C12.13 5.62, 12.1 5.93, 12.04 6.23 C11.98 6.53, 11.89 6.84, 11.77 7.12 C11.65 7.41, 11.5 7.7, 11.32 7.96 C11.15 8.23, 10.94 8.49, 10.72 8.72 C10.49 8.96, 10.24 9.18, 9.97 9.38 C9.7 9.57, 9.41 9.75, 9.1 9.91 C8.8 10.06, 8.47 10.19, 8.14 10.3 C7.81 10.4, 7.47 10.48, 7.12 10.54 C6.78 10.59, 6.42 10.62, 6.07 10.62 C5.72 10.62, 5.36 10.59, 5.01 10.54 C4.67 10.48, 4.32 10.4, 3.99 10.3 C3.66 10.19, 3.34 10.06, 3.03 9.91 C2.73 9.75, 2.44 9.57, 2.17 9.38 C1.9 9.18, 1.65 8.96, 1.42 8.72 C1.19 8.49, 0.99 8.23, 0.81 7.96 C0.64 7.7, 0.49 7.41, 0.37 7.12 C0.25 6.84, 0.15 6.53, 0.09 6.23 C0.03 5.93, 0 5.62, 0 5.31 C0 5, 0.03 4.69, 0.09 4.39 C0.15 4.08, 0.25 3.78, 0.37 3.49 C0.49 3.2, 0.64 2.92, 0.81 2.65 C0.99 2.39, 1.19 2.13, 1.42 1.9 C1.65 1.66, 1.9 1.44, 2.17 1.24 C2.44 1.04, 2.73 0.86, 3.03 0.71 C3.34 0.56, 3.66 0.43, 3.99 0.32 C4.32 0.22, 4.67 0.13, 5.01 0.08 C5.36 0.03, 5.72 0, 6.07 0 C6.42 0, 6.78 0.03, 7.12 0.08 C7.47 0.13, 7.81 0.22, 8.14 0.32 C8.47 0.43, 8.8 0.56, 9.1 0.71 C9.41 0.86, 9.7 1.04, 9.97 1.24 C10.24 1.44, 10.49 1.66, 10.72 1.9 C10.94 2.13, 11.15 2.39, 11.32 2.65 C11.5 2.92, 11.65 3.2, 11.77 3.49 C11.89 3.78, 11.98 4.08, 12.04 4.39 C12.1 4.69, 12.12 5.16, 12.13 5.31 C12.15 5.46, 12.15 5.16, 12.13 5.31" stroke="#000000" stroke-width="2" fill="none"></path></g><g transform="translate(86.44520473817511 235.6127590448354) rotate(0 6.574999809265137 10)"><text x="0" y="0" font-family="Virgil, Segoe UI Emoji" font-size="16px" fill="#1e1e1e" text-anchor="start" style="white-space: pre;" direction="ltr" dominant-baseline="text-before-edge">...</text></g><g stroke-linecap="round"><g transform="translate(477.1792697153139 128.51067243190735) rotate(0 118.52213140888057 -11.34504419699903)"><path d="M0 0 C61.12 -5.85, 122.24 -11.7, 237.04 -22.69 M0 0 C70.81 -6.78, 141.63 -13.56, 237.04 -22.69" stroke="#1e1e1e" stroke-width="1" fill="none"></path></g><g transform="translate(477.1792697153139 128.51067243190735) rotate(0 118.52213140888057 -11.34504419699903)"><path d="M237.04 -22.69 L224.12 -15.08 L222.91 -27.71 L237.04 -22.69" stroke="none" stroke-width="0" fill="#1e1e1e" fill-rule="evenodd"></path><path d="M237.04 -22.69 C233.71 -20.73, 230.38 -18.77, 224.12 -15.08 M237.04 -22.69 C233.18 -20.42, 229.32 -18.15, 224.12 -15.08 M224.12 -15.08 C223.84 -17.93, 223.57 -20.78, 222.91 -27.71 M224.12 -15.08 C223.79 -18.51, 223.46 -21.94, 222.91 -27.71 M222.91 -27.71 C225.94 -26.63, 228.97 -25.55, 237.04 -22.69 M222.91 -27.71 C227.82 -25.96, 232.74 -24.22, 237.04 -22.69 M237.04 -22.69 C237.04 -22.69, 237.04 -22.69, 237.04 -22.69 M237.04 -22.69 C237.04 -22.69, 237.04 -22.69, 237.04 -22.69" stroke="#1e1e1e" stroke-width="1" fill="none"></path></g></g><mask></mask><g stroke-linecap="round"><g transform="translate(700.0845721487838 128.11141144992385) rotate(0 -107.81874092043927 10.016006632598359)"><path d="M0.34 -0.14 C-35.7 3.13, -179.49 16.92, -215.46 20.35" stroke="#1e1e1e" stroke-width="1.5" fill="none" stroke-dasharray="1.5 7"></path></g><g transform="translate(700.0845721487838 128.11141144992385) rotate(0 -107.81874092043927 10.016006632598359)"><path d="M-214.94 18.66 L-203.73 12.05 L-200.64 24.41 L-214.65 20.65" stroke="none" stroke-width="0" fill="#1e1e1e" fill-rule="evenodd"></path><path d="M-215.46 20.35 C-210.97 17.76, -205.68 14.98, -202.53 12.74 M-202.53 12.74 C-201.03 17.59, -201.99 20.84, -201.32 25.36 M-201.32 25.36 C-204.38 24.93, -208.91 23.12, -215.46 20.35 M-215.46 20.35 C-215.46 20.35, -215.46 20.35, -215.46 20.35" stroke="#1e1e1e" stroke-width="1.5" fill="none"></path></g></g><mask></mask><g transform="translate(12.635765887165235 315.2571523632522) rotate(0 311.6810083209235 24.34438052702805)"><text x="0" y="0" font-family="Virgil, Segoe UI Emoji" font-size="12.983669614414962px" fill="#1971c2" text-anchor="start" style="white-space: pre;" direction="ltr" dominant-baseline="text-before-edge">1. book-one-way-flight({"date":"2024-03-01","destination":"Bali, Indonesia","passenger":"Nuno Pato"})</text><text x="0" y="16.2295870180187" font-family="Virgil, Segoe UI Emoji" font-size="12.983669614414962px" fill="#1971c2" text-anchor="start" style="white-space: pre;" direction="ltr" dominant-baseline="text-before-edge">2. GetMoviesWithScoreHigherThan({"score":85}))</text><text x="0" y="32.4591740360374" font-family="Virgil, Segoe UI Emoji" font-size="12.983669614414962px" fill="#1971c2" text-anchor="start" style="white-space: pre;" direction="ltr" dominant-baseline="text-before-edge">3. answer-deep-questions({"question":"What is the meaning of life?"})</text></g><g stroke-linecap="round"><g transform="translate(493.86059036880374 188.48345869192013) rotate(0 109.77026598277507 2.8031956307263783)"><path d="M0 0 C36.59 0.93, 182.95 4.67, 219.54 5.61 M0 0 C36.59 0.93, 182.95 4.67, 219.54 5.61" stroke="#1e1e1e" stroke-width="1" fill="none"></path></g><g transform="translate(493.86059036880374 188.48345869192013) rotate(0 109.77026598277507 2.8031956307263783)"><path d="M219.54 5.61 L205.79 11.6 L206.11 -1.08 L219.54 5.61" stroke="none" stroke-width="0" fill="#1e1e1e" fill-rule="evenodd"></path><path d="M219.54 5.61 C215.73 7.26, 211.93 8.92, 205.79 11.6 M219.54 5.61 C215.46 7.38, 211.38 9.16, 205.79 11.6 M205.79 11.6 C205.91 6.8, 206.03 2, 206.11 -1.08 M205.79 11.6 C205.86 8.82, 205.93 6.05, 206.11 -1.08 M206.11 -1.08 C210.16 0.94, 214.2 2.95, 219.54 5.61 M206.11 -1.08 C209.72 0.72, 213.33 2.51, 219.54 5.61 M219.54 5.61 C219.54 5.61, 219.54 5.61, 219.54 5.61 M219.54 5.61 C219.54 5.61, 219.54 5.61, 219.54 5.61" stroke="#1e1e1e" stroke-width="1" fill="none"></path></g></g><mask></mask><g stroke-linecap="round"><g transform="translate(705.473650158023 210.6854893839555) rotate(0 -109.98188744940558 -2.414409017815597)"><path d="M0.17 -0.56 C-36.55 -1.22, -183.09 -4.23, -219.67 -5.09" stroke="#1e1e1e" stroke-width="1.5" fill="none" stroke-dasharray="1.5 7"></path></g><g transform="translate(705.473650158023 210.6854893839555) rotate(0 -109.98188744940558 -2.414409017815597)"><path d="M-221.46 -3.71 L-204.36 -12.53 L-207.38 0.4 L-220.37 -4.45" stroke="none" stroke-width="0" fill="#1e1e1e" fill-rule="evenodd"></path><path d="M-219.67 -5.09 C-215.42 -6.9, -210.15 -8.64, -205.94 -11.13 M-205.94 -11.13 C-207.26 -8.27, -205 -5.26, -206.22 1.54 M-206.22 1.54 C-208.79 -0.98, -213.59 -1.82, -219.67 -5.09 M-219.67 -5.09 C-219.67 -5.09, -219.67 -5.09, -219.67 -5.09" stroke="#1e1e1e" stroke-width="1.5" fill="none"></path></g></g><mask></mask><g stroke-linecap="round"><g transform="translate(483.65158405438274 255.042619362363) rotate(0 117.2108123675639 8.033995013198734)"><path d="M0 0 C39.07 2.68, 195.35 13.39, 234.42 16.07 M0 0 C39.07 2.68, 195.35 13.39, 234.42 16.07" stroke="#1e1e1e" stroke-width="1" fill="none"></path></g><g transform="translate(483.65158405438274 255.042619362363) rotate(0 117.2108123675639 8.033995013198734)"><path d="M234.42 16.07 L220.43 21.46 L221.29 8.81 L234.42 16.07" stroke="none" stroke-width="0" fill="#1e1e1e" fill-rule="evenodd"></path><path d="M234.42 16.07 C229.82 17.84, 225.22 19.61, 220.43 21.46 M234.42 16.07 C230.78 17.47, 227.14 18.87, 220.43 21.46 M220.43 21.46 C220.62 18.58, 220.82 15.7, 221.29 8.81 M220.43 21.46 C220.66 17.99, 220.9 14.51, 221.29 8.81 M221.29 8.81 C224.74 10.72, 228.19 12.62, 234.42 16.07 M221.29 8.81 C225.85 11.33, 230.41 13.85, 234.42 16.07 M234.42 16.07 C234.42 16.07, 234.42 16.07, 234.42 16.07 M234.42 16.07 C234.42 16.07, 234.42 16.07, 234.42 16.07" stroke="#1e1e1e" stroke-width="1" fill="none"></path></g></g><mask></mask><g stroke-linecap="round"><g transform="translate(707.6129386392602 286.6537087636038) rotate(0 -113.93551734500579 -9.314646025243704)"><path d="M0.66 0.98 C-37.02 -1.9, -188.85 -14.54, -226.96 -17.7" stroke="#1e1e1e" stroke-width="1.5" fill="none" stroke-dasharray="1.5 7"></path></g><g transform="translate(707.6129386392602 286.6537087636038) rotate(0 -113.93551734500579 -9.314646025243704)"><path d="M-227.66 -17.03 L-212.02 -21.49 L-213.62 -9.2 L-227.45 -16.19" stroke="none" stroke-width="0" fill="#1e1e1e" fill-rule="evenodd"></path><path d="M-226.96 -17.7 C-222.56 -17.81, -219.48 -20.25, -212.89 -22.89 M-212.89 -22.89 C-213.4 -19.56, -212.57 -15.09, -213.94 -10.26 M-213.94 -10.26 C-218.61 -11.78, -222.36 -16.03, -226.96 -17.7 M-226.96 -17.7 C-226.96 -17.7, -226.96 -17.7, -226.96 -17.7" stroke="#1e1e1e" stroke-width="1.5" fill="none"></path></g></g><mask></mask><g transform="translate(522.3197171730396 102.03434443888852) rotate(0 2.1666667461395264 10)"><text x="0" y="0" font-family="Virgil, Segoe UI Emoji" font-size="16px" fill="#1971c2" text-anchor="start" style="white-space: pre;" direction="ltr" dominant-baseline="text-before-edge">1</text></g><g transform="translate(526.0850789783733 241.72926741676307) rotate(0 5.699999809265137 10)"><text x="0" y="0" font-family="Virgil, Segoe UI Emoji" font-size="16px" fill="#1971c2" text-anchor="start" style="white-space: pre;" direction="ltr" dominant-baseline="text-before-edge">2</text></g><g transform="translate(556.9610457821088 173.19968255969255) rotate(0 5.449999809265137 10)"><text x="0" y="0" font-family="Virgil, Segoe UI Emoji" font-size="16px" fill="#1971c2" text-anchor="start" style="white-space: pre;" direction="ltr" dominant-baseline="text-before-edge">3</text></g></svg>