<svg width="480" height="267" fill="none" xmlns="http://www.w3.org/2000/svg"><rect x=".5" y=".5" width="479" height="266" rx="7.5" fill="#fff" stroke="#C2CAD6"/><rect x="115" y="5" width="240" height="14" rx="4" fill="#EAEDF0"/><path fill="#C2CAD6" d="M1 22h478v1H1z"/><circle cx="11.23" cy="12" r="3" fill="#EAEDF0"/><circle cx="21.23" cy="12" r="3" fill="#EAEDF0"/><circle cx="31.23" cy="12" r="3" fill="#EAEDF0"/><path d="M216 44h48v4a4 4 0 0 1-4 4h-40a4 4 0 0 1-4-4v-4ZM187 162h106v76H187z" fill="#F4F7F9"/><rect x="228" y="170" width="24" height="2" rx="1" fill="#C2CAD6"/><path d="M228.774 186.61a.417.417 0 0 1-.13-.02.361.361 0 0 1-.27-.23.513.513 0 0 1 .03-.38c.06-.14.146-.297.26-.47.04-.06.076-.12.11-.18.04-.067.073-.127.1-.18a.373.373 0 0 0 .05-.1c-.2-.033-.434-.04-.7-.02-.26.013-.554.063-.88.15-.294.073-.604.17-.93.29-.327.113-.674.25-1.04.41a.281.281 0 0 1-.22.01.309.309 0 0 1-.16-.16.252.252 0 0 1-.01-.23.304.304 0 0 1 .16-.17c.38-.167.736-.31 1.07-.43.34-.127.666-.227.98-.3.82-.207 1.49-.24 2.01-.1.153.04.26.133.32.28.06.153.046.32-.04.5-.087.173-.19.357-.31.55a.265.265 0 0 0-.04.05.696.696 0 0 1-.03.07c.153-.033.376-.1.67-.2.3-.1.716-.247 1.25-.44a.256.256 0 0 1 .22.02.27.27 0 0 1 .16.17.28.28 0 0 1 0 .23.312.312 0 0 1-.18.16l-.84.29c-.254.087-.48.16-.68.22-.274.08-.48.137-.62.17a1.68 1.68 0 0 1-.31.04Zm3.708-.2a.252.252 0 0 1-.08-.01.45.45 0 0 1-.23-.12.92.92 0 0 1-.08-.14.54.54 0 0 1 .04-.45c.087-.16.194-.327.32-.5.04-.053.077-.11.11-.17.034-.06.067-.117.1-.17a.266.266 0 0 0 .03-.04c-.04.013-.09.033-.15.06a1.548 1.548 0 0 0-.19.12c-.12.073-.246.17-.38.29a16.81 16.81 0 0 0-.52.46 1.591 1.591 0 0 0-.1.09.308.308 0 0 1-.21.08.288.288 0 0 1-.21-.11.258.258 0 0 1-.08-.21.3.3 0 0 1 .1-.21.8.8 0 0 1 .11-.09l.1-.1c.16-.147.317-.283.47-.41.16-.133.314-.247.46-.34.154-.093.304-.16.45-.2a.76.76 0 0 1 .44-.01c.114.033.194.08.24.14.047.06.077.113.09.16.06.153.047.31-.04.47a5.557 5.557 0 0 1-.38.6.5.5 0 0 1-.05.08c.1-.04.227-.087.38-.14.16-.06.357-.137.59-.23a.297.297 0 0 1 .24.02c.074.033.124.09.15.17.034.073.03.15-.01.23a.309.309 0 0 1-.16.16l-.58.2a12.302 12.302 0 0 0-.62.23c-.046.013-.09.027-.13.04a1.094 1.094 0 0 0-.13.04.349.349 0 0 1-.09.01Zm2.224.87a1.02 1.02 0 0 1-.15-.01 1.387 1.387 0 0 1-.13-.03.362.362 0 0 1-.25-.21c-.06-.133-.06-.293 0-.48.067-.193.174-.44.32-.74.027-.053.054-.113.08-.18.027-.067.057-.13.09-.19-.086.033-.18.09-.28.17l-.29.23a.27.27 0 0 1-.22.06.342.342 0 0 1-.21-.11.27.27 0 0 1-.06-.22c.014-.08.05-.15.11-.21.094-.067.19-.14.29-.22a1.6 1.6 0 0 1 .32-.2c.274-.14.524-.177.75-.11.107.02.187.087.24.2.054.113.05.247-.01.4-.053.153-.146.37-.28.65-.033.08-.07.16-.11.24-.033.08-.066.157-.1.23a.696.696 0 0 0-.05.13c.067-.007.15-.027.25-.06.107-.033.227-.083.36-.15.14-.073.3-.17.48-.29.18-.12.387-.27.62-.45a19.664 19.664 0 0 0 .93-.81c.12-.113.217-.207.29-.28l.11-.11c.08-.093.177-.123.29-.09a.268.268 0 0 1 .13.07.5.5 0 0 1 .08.1c.047.093.05.203.01.33s-.113.323-.22.59l-.12.26a3.569 3.569 0 0 1-.1.24.736.736 0 0 1-.03.11.855.855 0 0 0 .3-.11 4.11 4.11 0 0 0 .62-.43c.094-.087.177-.16.25-.22a.283.283 0 0 1 .22-.08c.08.007.15.04.21.1.054.067.077.14.07.22 0 .08-.033.15-.1.21-.153.14-.31.273-.47.4-.16.12-.323.227-.49.32-.16.087-.323.15-.49.19-.166.033-.33.03-.49-.01a.408.408 0 0 1-.23-.2.571.571 0 0 1-.04-.3c.02-.113.06-.257.12-.43-.073.067-.15.13-.23.19l-.24.2c-.92.727-1.636 1.09-2.15 1.09Zm10.186 0a1.002 1.002 0 0 1-.28-.04.36.36 0 0 1-.25-.21c-.06-.133-.06-.293 0-.48.066-.193.173-.44.32-.74.026-.053.053-.113.08-.18.026-.067.056-.13.09-.19a1.07 1.07 0 0 0-.28.17c-.094.073-.19.15-.29.23a.27.27 0 0 1-.22.06.337.337 0 0 1-.21-.11.264.264 0 0 1-.06-.22c.013-.08.05-.15.11-.21.093-.067.19-.14.29-.22.1-.08.206-.147.32-.2.273-.14.523-.177.75-.11.106.02.186.087.24.2.053.113.05.247-.01.4-.054.153-.147.37-.28.65-.034.08-.07.16-.11.24a11.184 11.184 0 0 1-.13.3l-.02.06c.066-.007.15-.027.25-.06a2.45 2.45 0 0 0 .36-.15c.14-.073.3-.17.48-.29.18-.12.386-.27.62-.45a19.664 19.664 0 0 0 .93-.81c.12-.113.216-.207.29-.28l.11-.11c.08-.093.176-.123.29-.09a.278.278 0 0 1 .13.07.54.54 0 0 1 .08.1c.046.093.05.203.01.33s-.114.323-.22.59l-.12.26a5.044 5.044 0 0 1-.1.24c-.007.033-.017.07-.03.11a.87.87 0 0 0 .3-.11 3.707 3.707 0 0 0 .62-.43c.093-.087.176-.16.25-.22a.282.282 0 0 1 .22-.08c.08.007.15.04.21.1.053.067.076.14.07.22 0 .08-.034.15-.1.21a9.21 9.21 0 0 1-.47.4c-.16.12-.324.227-.49.32a2.01 2.01 0 0 1-.49.19c-.167.033-.33.03-.49-.01a.402.402 0 0 1-.23-.2c-.04-.093-.054-.193-.04-.3.02-.113.06-.257.12-.43a3.22 3.22 0 0 1-.23.19c-.074.06-.154.127-.24.2-.92.727-1.637 1.09-2.15 1.09Zm5.322 0a1.02 1.02 0 0 1-.15-.01 1.387 1.387 0 0 1-.13-.03.362.362 0 0 1-.25-.21c-.06-.133-.06-.293 0-.48.067-.193.173-.44.32-.74a2.27 2.27 0 0 0 .08-.18c.027-.067.057-.13.09-.19a1.07 1.07 0 0 0-.28.17l-.29.23a.27.27 0 0 1-.22.06.337.337 0 0 1-.21-.11.27.27 0 0 1-.06-.22c.013-.08.05-.15.11-.21.093-.067.19-.14.29-.22a1.6 1.6 0 0 1 .32-.2c.273-.14.523-.177.75-.11.107.02.187.087.24.2.053.113.05.247-.01.4-.053.153-.147.37-.28.65-.033.08-.07.16-.11.24a7.51 7.51 0 0 1-.13.3l-.02.06c.067-.007.15-.027.25-.06.107-.033.227-.083.36-.15.14-.073.3-.17.48-.29.18-.12.387-.27.62-.45a19.664 19.664 0 0 0 .93-.81c.12-.113.217-.207.29-.28l.11-.11c.08-.093.177-.123.29-.09a.273.273 0 0 1 .13.07.54.54 0 0 1 .08.1c.047.093.05.203.01.33s-.113.323-.22.59l-.12.26a4.18 4.18 0 0 1-.1.24c-.007.033-.017.07-.03.11a.87.87 0 0 0 .3-.11c.107-.06.213-.127.32-.2.107-.073.207-.15.3-.23.093-.087.177-.16.25-.22a.283.283 0 0 1 .22-.08c.08.007.15.04.21.1.053.067.077.14.07.22 0 .08-.033.15-.1.21-.153.14-.31.273-.47.4-.16.12-.323.227-.49.32-.16.087-.323.15-.49.19-.167.033-.33.03-.49-.01a.405.405 0 0 1-.23-.2c-.04-.093-.053-.193-.04-.3.02-.113.06-.257.12-.43-.073.067-.15.13-.23.19l-.24.2c-.92.727-1.637 1.09-2.15 1.09Z" fill="#21324B"/><rect x="199" y="194" width="82" height="14" rx="7" fill="#000"/><path d="M243.981 203.306a5.05 5.05 0 0 1-.504.906c-.265.378-.482.64-.649.785-.259.238-.537.36-.835.367-.213 0-.471-.06-.77-.184a2.224 2.224 0 0 0-.83-.183c-.265 0-.549.061-.854.183-.304.124-.549.188-.737.194-.285.012-.569-.113-.853-.377-.181-.158-.408-.429-.679-.813a5.587 5.587 0 0 1-.718-1.426 5.222 5.222 0 0 1-.302-1.7c0-.628.136-1.17.408-1.624.213-.365.498-.653.854-.864.355-.211.74-.319 1.154-.326.226 0 .524.07.893.208.368.138.604.208.708.208.077 0 .34-.082.785-.245.421-.152.777-.214 1.068-.19.788.064 1.381.375 1.775.935-.705.428-1.054 1.026-1.047 1.794.006.598.223 1.096.649 1.491.194.184.41.326.65.426a6.68 6.68 0 0 1-.166.435Zm-1.809-7.118c0 .468-.171.906-.512 1.311-.412.482-.911.76-1.451.717a1.454 1.454 0 0 1-.011-.178c0-.45.196-.932.544-1.326.173-.199.394-.365.662-.497.268-.131.521-.203.758-.215.007.063.01.125.01.188Z" fill="#fff"/><path d="M233.866 222.61a.421.421 0 0 1-.13-.02.364.364 0 0 1-.27-.23.513.513 0 0 1 .03-.38c.06-.14.147-.297.26-.47.04-.06.077-.12.11-.18.04-.067.074-.127.1-.18a.346.346 0 0 0 .05-.1c-.2-.033-.433-.04-.7-.02-.26.013-.553.063-.88.15-.293.073-.603.17-.93.29-.326.113-.673.25-1.04.41a.28.28 0 0 1-.22.01.316.316 0 0 1-.16-.16.255.255 0 0 1-.01-.23.31.31 0 0 1 .16-.17c.38-.167.737-.31 1.07-.43.34-.127.667-.227.98-.3.82-.207 1.49-.24 2.01-.1a.45.45 0 0 1 .32.28c.06.153.047.32-.04.5-.086.173-.19.357-.31.55a.38.38 0 0 0-.04.05.418.418 0 0 1-.03.07c.154-.033.377-.1.67-.2.3-.1.717-.247 1.25-.44a.256.256 0 0 1 .22.02c.08.033.134.09.16.17a.272.272 0 0 1 0 .23.306.306 0 0 1-.18.16c-.306.107-.586.203-.84.29-.253.087-.48.16-.68.22a13.2 13.2 0 0 1-.62.17 1.66 1.66 0 0 1-.31.04Zm3.709-.2a.252.252 0 0 1-.08-.01.445.445 0 0 1-.23-.12.84.84 0 0 1-.08-.14.54.54 0 0 1 .04-.45 4.4 4.4 0 0 1 .32-.5c.04-.053.077-.11.11-.17.033-.06.067-.117.1-.17a.266.266 0 0 0 .03-.04c-.04.013-.09.033-.15.06a1.476 1.476 0 0 0-.19.12 2.58 2.58 0 0 0-.38.29 16.81 16.81 0 0 0-.52.46 1.353 1.353 0 0 0-.1.09.308.308 0 0 1-.21.08.285.285 0 0 1-.21-.11.254.254 0 0 1-.08-.21.3.3 0 0 1 .1-.21.743.743 0 0 1 .11-.09l.1-.1c.16-.147.317-.283.47-.41.16-.133.313-.247.46-.34.153-.093.303-.16.45-.2a.76.76 0 0 1 .44-.01.46.46 0 0 1 .24.14c.047.06.077.113.09.16.06.153.047.31-.04.47-.087.16-.197.337-.33.53a.404.404 0 0 0-.05.07.5.5 0 0 1-.05.08c.1-.04.227-.087.38-.14.16-.06.357-.137.59-.23a.297.297 0 0 1 .24.02c.073.033.123.09.15.17.033.073.03.15-.01.23a.312.312 0 0 1-.16.16l-.58.2a12.302 12.302 0 0 0-.62.23c-.047.013-.09.027-.13.04a1.038 1.038 0 0 0-.13.04.36.36 0 0 1-.09.01Zm2.224.87a1.02 1.02 0 0 1-.15-.01 1.387 1.387 0 0 1-.13-.03.362.362 0 0 1-.25-.21c-.06-.133-.06-.293 0-.48.067-.193.173-.44.32-.74a2.27 2.27 0 0 0 .08-.18c.027-.067.057-.13.09-.19a1.07 1.07 0 0 0-.28.17l-.29.23a.27.27 0 0 1-.22.06.337.337 0 0 1-.21-.11.27.27 0 0 1-.06-.22c.013-.08.05-.15.11-.21.093-.067.19-.14.29-.22a1.6 1.6 0 0 1 .32-.2c.273-.14.523-.177.75-.11.107.02.187.087.24.2.053.113.05.247-.01.4-.053.153-.147.37-.28.65-.033.08-.07.16-.11.24a7.51 7.51 0 0 1-.13.3l-.02.06c.067-.007.15-.027.25-.06.107-.033.227-.083.36-.15.14-.073.3-.17.48-.29.18-.12.387-.27.62-.45a19.664 19.664 0 0 0 .93-.81 13.814 13.814 0 0 0 .4-.39c.08-.093.177-.123.29-.09a.273.273 0 0 1 .13.07.54.54 0 0 1 .08.1c.047.093.05.203.01.33s-.113.323-.22.59l-.12.26a4.18 4.18 0 0 1-.1.24c-.007.033-.017.07-.03.11a.87.87 0 0 0 .3-.11c.107-.06.213-.127.32-.2.107-.073.207-.15.3-.23.093-.087.177-.16.25-.22a.283.283 0 0 1 .22-.08c.08.007.15.04.21.1.053.067.077.14.07.22 0 .08-.033.15-.1.21-.153.14-.31.273-.47.4-.16.12-.323.227-.49.32-.16.087-.323.15-.49.19-.167.033-.33.03-.49-.01a.405.405 0 0 1-.23-.2c-.04-.093-.053-.193-.04-.3.02-.113.06-.257.12-.43-.073.067-.15.13-.23.19l-.24.2c-.92.727-1.637 1.09-2.15 1.09Zm5.322 0a1.02 1.02 0 0 1-.15-.01 1.387 1.387 0 0 1-.13-.03.362.362 0 0 1-.25-.21c-.06-.133-.06-.293 0-.48.067-.193.174-.44.32-.74.027-.053.054-.113.08-.18.027-.067.057-.13.09-.19-.086.033-.18.09-.28.17l-.29.23a.27.27 0 0 1-.22.06.342.342 0 0 1-.21-.11.27.27 0 0 1-.06-.22c.014-.08.05-.15.11-.21.094-.067.19-.14.29-.22a1.6 1.6 0 0 1 .32-.2c.274-.14.524-.177.75-.11.107.02.187.087.24.2.054.113.05.247-.01.4-.053.153-.146.37-.28.65-.033.08-.07.16-.11.24-.033.08-.066.157-.1.23a.696.696 0 0 0-.03.07l-.02.06c.067-.007.15-.027.25-.06.107-.033.227-.083.36-.15.14-.073.3-.17.48-.29.18-.12.387-.27.62-.45a19.664 19.664 0 0 0 .93-.81c.12-.113.217-.207.29-.28l.11-.11c.08-.093.177-.123.29-.09a.268.268 0 0 1 .13.07.5.5 0 0 1 .08.1c.047.093.05.203.01.33s-.113.323-.22.59l-.12.26a3.569 3.569 0 0 1-.1.24.736.736 0 0 1-.03.11.855.855 0 0 0 .3-.11 4.11 4.11 0 0 0 .62-.43c.094-.087.177-.16.25-.22a.283.283 0 0 1 .22-.08c.08.007.15.04.21.1.054.067.077.14.07.22 0 .08-.033.15-.1.21-.153.14-.31.273-.47.4-.16.12-.323.227-.49.32-.16.087-.323.15-.49.19-.166.033-.33.03-.49-.01a.408.408 0 0 1-.23-.2c-.04-.093-.053-.193-.04-.3.02-.113.06-.257.12-.43-.073.067-.15.13-.23.19l-.24.2c-.92.727-1.636 1.09-2.15 1.09Z" fill="#9CA7B7"/><rect x="186.5" y="43.5" width="107" height="195" rx="13.5" stroke="#C2CAD6"/></svg>