<svg width="480" height="267" fill="none" xmlns="http://www.w3.org/2000/svg"><rect x=".5" y=".5" width="479" height="266" rx="7.5" fill="#fff" stroke="#C2CAD6"/><rect x="115" y="5" width="240" height="14" rx="4" fill="#EAEDF0"/><path fill="#C2CAD6" d="M1 22h478v1H1z"/><circle cx="11.23" cy="12" r="3" fill="#EAEDF0"/><circle cx="21.23" cy="12" r="3" fill="#EAEDF0"/><circle cx="31.23" cy="12" r="3" fill="#EAEDF0"/><path fill-rule="evenodd" clip-rule="evenodd" d="M185.575 56.503c0 3.797-2.889 8.173-8.172 8.173a8.122 8.122 0 0 1-4.403-1.29 5.804 5.804 0 0 0 4.252-1.19 2.875 2.875 0 0 1-2.683-1.994 2.934 2.934 0 0 0 1.297-.049 2.875 2.875 0 0 1-2.304-2.817V57.3c.388.215.831.344 1.301.36a2.874 2.874 0 0 1-.888-3.836 8.152 8.152 0 0 0 5.92 3.002 2.87 2.87 0 0 1 2.798-3.526 2.87 2.87 0 0 1 2.097.906 5.78 5.78 0 0 0 1.823-.697 2.879 2.879 0 0 1-1.263 1.589 5.744 5.744 0 0 0 1.65-.452 5.81 5.81 0 0 1-1.433 1.486c.006.123.008.248.008.371Z" fill="#1DA1F2"/><circle cx="304" cy="59" r="8" fill="#EAEDF0"/><path fill="#C2CAD6" d="M160 75h160v1H160z"/><path d="M176.962 102.728c-.095 0-.186-.004-.273-.013a.95.95 0 0 1-.182-.013 1.787 1.787 0 0 1-.65-.338 1.376 1.376 0 0 1-.429-.546c-.061-.121-.1-.23-.117-.325a2.048 2.048 0 0 1 .013-.715c-.078-.052-.16-.108-.247-.169a.693.693 0 0 1-.195-.195 1.448 1.448 0 0 1-.312-.884c0-.208.048-.403.143-.585.087-.19.208-.36.364-.507l.247-.247c.113-.121.217-.243.312-.364l.26-.286.364-.39c.13-.139.256-.269.377-.39.139-.121.26-.225.364-.312a3.29 3.29 0 0 1 .273-.208c.451-.277.919-.364 1.404-.26.503.13.836.412 1.001.845l-.013-.013c.035.078.061.156.078.234a.93.93 0 0 1 .052.221c.121-.13.23-.251.325-.364a19.4 19.4 0 0 1 .26-.325l.182-.208a.22.22 0 0 0 .039-.052.152.152 0 0 0 .026-.039c.199-.234.433-.399.702-.494.277-.104.555-.121.832-.052.191.052.364.147.52.286.165.139.299.299.403.481.121.277.173.516.156.715-.009.19-.022.32-.039.39a.803.803 0 0 1-.039.13l-.026.104-.078.247-.013.039c.173.017.342.065.507.143.173.078.321.186.442.325.113.139.195.29.247.455.061.165.091.325.091.481 0 .433-.178.802-.533 1.105l-.065.065c-.182.156-.377.312-.585.468a6.965 6.965 0 0 1-.637.442c-.511.303-1.014.455-1.508.455-.208 0-.416-.03-.624-.091a1.623 1.623 0 0 1-.442-.169 1.457 1.457 0 0 1-.338-.312l-.299.247a7.156 7.156 0 0 1-.325.221h.013c-.199.139-.39.256-.572.351a6.818 6.818 0 0 1-.52.247 2.047 2.047 0 0 1-.468.13 3.012 3.012 0 0 1-.468.039Zm8.934-.845c-.321 0-.594-.095-.819-.286a1.317 1.317 0 0 1-.429-1.417.092.092 0 0 0 .013-.039c0-.009.004-.022.013-.039-.477.286-.91.503-1.3.65a1.259 1.259 0 0 1-.507.078 1.28 1.28 0 0 1-.481-.117 1.427 1.427 0 0 1-.403-.286 1.309 1.309 0 0 1-.273-.442 1.032 1.032 0 0 1-.078-.507 1.28 1.28 0 0 1 .117-.481c.069-.156.169-.295.299-.416.121-.121.264-.212.429-.273.147-.052.394-.178.741-.377.355-.2.836-.542 1.443-1.027.182-.147.347-.286.494-.416.156-.13.29-.247.403-.351l.364-.338c.355-.338.771-.446 1.248-.325.173.043.329.121.468.234.139.113.251.243.338.39.139.243.199.49.182.741a5.44 5.44 0 0 1-.143.871 2.744 2.744 0 0 1-.065.26 5.265 5.265 0 0 1-.065.26 1.327 1.327 0 0 1 1.3.78 1.301 1.301 0 0 1 .013.988 1.188 1.188 0 0 1-.676.715c-.286.13-.55.256-.793.377-.234.113-.442.217-.624.312-.173.095-.312.173-.416.234-.104.052-.16.078-.169.078a1.296 1.296 0 0 1-.624.169Zm5.053 0c-.321 0-.594-.095-.819-.286a1.256 1.256 0 0 1-.429-.624 1.309 1.309 0 0 1 0-.793.109.109 0 0 0 .013-.039c0-.009.004-.022.013-.039-.477.286-.91.503-1.3.65a1.259 1.259 0 0 1-.507.078 1.275 1.275 0 0 1-.481-.117 1.413 1.413 0 0 1-.403-.286 1.278 1.278 0 0 1-.273-.442 1.01 1.01 0 0 1-.078-.507c.008-.173.047-.334.117-.481.069-.156.169-.295.299-.416.121-.121.264-.212.429-.273.147-.052.394-.178.741-.377.355-.2.836-.542 1.443-1.027.182-.147.346-.286.494-.416.156-.13.29-.247.403-.351l.364-.338c.355-.338.771-.446 1.248-.325.173.043.329.121.468.234.138.113.251.243.338.39a1.3 1.3 0 0 1 .182.741 5.555 5.555 0 0 1-.143.871 3.086 3.086 0 0 1-.065.26 6.697 6.697 0 0 1-.065.26c.277-.017.533.043.767.182.234.139.411.338.533.598a1.301 1.301 0 0 1 .013.988 1.197 1.197 0 0 1-.676.715c-.286.13-.551.256-.793.377-.234.113-.442.217-.624.312-.174.095-.312.173-.416.234a1.337 1.337 0 0 1-.169.078 1.296 1.296 0 0 1-.624.169Zm5.052 0c-.32 0-.593-.095-.819-.286a1.317 1.317 0 0 1-.429-1.417.092.092 0 0 0 .013-.039c0-.009.005-.022.013-.039-.476.286-.91.503-1.3.65a1.284 1.284 0 0 1-.988-.039 1.442 1.442 0 0 1-.403-.286 1.309 1.309 0 0 1-.273-.442 1.032 1.032 0 0 1-.078-.507 1.28 1.28 0 0 1 .117-.481c.07-.156.169-.295.299-.416.122-.121.265-.212.429-.273.148-.052.395-.178.741-.377.356-.2.837-.542 1.443-1.027.182-.147.347-.286.494-.416.156-.13.291-.247.403-.351l.364-.338a1.257 1.257 0 0 1 1.248-.325c.174.043.33.121.468.234.139.113.252.243.338.39.139.243.2.49.182.741a5.44 5.44 0 0 1-.143.871 2.744 2.744 0 0 1-.065.26 5.265 5.265 0 0 1-.065.26 1.327 1.327 0 0 1 1.3.78 1.31 1.31 0 0 1 .013.988 1.157 1.157 0 0 1-.26.429 1.179 1.179 0 0 1-.416.286c-.286.13-.55.256-.793.377-.234.113-.442.217-.624.312-.173.095-.312.173-.416.234-.104.052-.16.078-.169.078a1.296 1.296 0 0 1-.624.169Zm3.038.845c-.095 0-.186-.004-.273-.013a.95.95 0 0 1-.182-.013 1.787 1.787 0 0 1-.65-.338 1.376 1.376 0 0 1-.429-.546c-.061-.121-.1-.23-.117-.325a2.048 2.048 0 0 1 .013-.715c-.078-.052-.16-.108-.247-.169a.693.693 0 0 1-.195-.195 1.448 1.448 0 0 1-.312-.884c0-.208.048-.403.143-.585.087-.19.208-.36.364-.507l.247-.247c.113-.121.217-.243.312-.364l.26-.286.364-.39c.13-.139.256-.269.377-.39.139-.121.26-.225.364-.312a3.29 3.29 0 0 1 .273-.208c.451-.277.919-.364 1.404-.26.503.13.836.412 1.001.845l-.013-.013c.035.078.061.156.078.234a.93.93 0 0 1 .052.221c.121-.13.23-.251.325-.364a19.4 19.4 0 0 1 .26-.325l.182-.208a.22.22 0 0 0 .039-.052.152.152 0 0 0 .026-.039c.199-.234.433-.399.702-.494.277-.104.555-.121.832-.052.191.052.364.147.52.286.165.139.299.299.403.481.121.277.173.516.156.715-.009.19-.022.32-.039.39a.803.803 0 0 1-.039.13l-.026.104-.078.247-.013.039c.173.017.342.065.507.143.173.078.321.186.442.325.113.139.195.29.247.455.061.165.091.325.091.481 0 .433-.178.802-.533 1.105l-.065.065c-.182.156-.377.312-.585.468a6.965 6.965 0 0 1-.637.442c-.511.303-1.014.455-1.508.455-.208 0-.416-.03-.624-.091a1.623 1.623 0 0 1-.442-.169 1.457 1.457 0 0 1-.338-.312l-.299.247a7.156 7.156 0 0 1-.325.221h.013c-.199.139-.39.256-.572.351a6.818 6.818 0 0 1-.52.247 2.047 2.047 0 0 1-.468.13 3.012 3.012 0 0 1-.468.039Zm6.919 0c-.095 0-.186-.004-.273-.013a.95.95 0 0 1-.182-.013 1.787 1.787 0 0 1-.65-.338 1.376 1.376 0 0 1-.429-.546c-.061-.121-.1-.23-.117-.325a2.048 2.048 0 0 1 .013-.715c-.078-.052-.16-.108-.247-.169a.693.693 0 0 1-.195-.195 1.448 1.448 0 0 1-.312-.884c0-.208.048-.403.143-.585.087-.19.208-.36.364-.507l.247-.247c.113-.121.217-.243.312-.364l.26-.286.364-.39c.13-.139.256-.269.377-.39.139-.121.26-.225.364-.312a3.29 3.29 0 0 1 .273-.208c.451-.277.919-.364 1.404-.26.503.13.836.412 1.001.845l-.013-.013c.035.078.061.156.078.234a.93.93 0 0 1 .052.221c.121-.13.23-.251.325-.364a19.4 19.4 0 0 1 .26-.325l.182-.208a.22.22 0 0 0 .039-.052.152.152 0 0 0 .026-.039c.199-.234.433-.399.702-.494.277-.104.555-.121.832-.052.191.052.364.147.52.286.165.139.299.299.403.481.121.277.173.516.156.715-.009.19-.022.32-.039.39a.803.803 0 0 1-.039.13l-.026.104-.078.247-.013.039c.173.017.342.065.507.143.173.078.321.186.442.325.113.139.195.29.247.455.061.165.091.325.091.481 0 .433-.178.802-.533 1.105l-.065.065c-.182.156-.377.312-.585.468a6.965 6.965 0 0 1-.637.442c-.511.303-1.014.455-1.508.455-.208 0-.416-.03-.624-.091a1.623 1.623 0 0 1-.442-.169 1.457 1.457 0 0 1-.338-.312l-.299.247a7.156 7.156 0 0 1-.325.221h.013c-.199.139-.39.256-.572.351a6.818 6.818 0 0 1-.52.247 2.047 2.047 0 0 1-.468.13 3.012 3.012 0 0 1-.468.039Zm10.507-.975c-.121 0-.256-.022-.403-.065a1.268 1.268 0 0 1-.559-.286 1.417 1.417 0 0 1-.351-.52c-.139-.329-.134-.702.013-1.118.052-.147.13-.32.234-.52l.052-.104.078-.13a8.02 8.02 0 0 0-.585.338c-.191.113-.386.221-.585.325-.355.217-.698.416-1.027.598-.321.173-.62.321-.897.442a1.174 1.174 0 0 1-.507.117c-.165 0-.325-.03-.481-.091a1.292 1.292 0 0 1-.416-.26 1.226 1.226 0 0 1-.299-.429 1.145 1.145 0 0 1-.117-.494c0-.173.03-.338.091-.494.061-.156.152-.295.273-.416.113-.13.251-.23.416-.299.199-.095.442-.221.728-.377.295-.165.607-.342.936-.533.381-.225.78-.455 1.196-.689.425-.243.841-.45 1.248-.624a5.23 5.23 0 0 1 1.287-.455c.277-.07.533-.108.767-.117.243-.009.477.017.702.078.477.139.802.433.975.884.13.33.147.65.052.962a4.41 4.41 0 0 1-.351.884.244.244 0 0 1 .078-.013.287.287 0 0 0 .091-.039c.165-.06.329-.082.494-.065a1.268 1.268 0 0 1 .884.416c.121.121.212.264.273.429.061.173.087.347.078.52a1.365 1.365 0 0 1-.117.481 1.313 1.313 0 0 1-.299.403 1.244 1.244 0 0 1-.442.26l-1.118.403-.897.299c-.364.104-.659.182-.884.234a3.29 3.29 0 0 1-.611.065Zm13.978 0c-.122 0-.256-.022-.403-.065a1.268 1.268 0 0 1-.559-.286 1.417 1.417 0 0 1-.351-.52c-.139-.329-.135-.702.013-1.118.052-.147.13-.32.234-.52l.052-.104.078-.13c-.2.104-.395.217-.585.338-.191.113-.386.221-.585.325-.356.217-.698.416-1.027.598-.321.173-.62.321-.897.442a1.174 1.174 0 0 1-.507.117c-.165 0-.325-.03-.481-.091a1.292 1.292 0 0 1-.416-.26 1.226 1.226 0 0 1-.299-.429 1.145 1.145 0 0 1-.117-.494c0-.173.03-.338.091-.494.06-.156.151-.295.273-.416.112-.13.251-.23.416-.299.199-.095.442-.221.728-.377.294-.165.606-.342.936-.533.381-.225.78-.455 1.196-.689.424-.243.84-.45 1.248-.624a5.23 5.23 0 0 1 1.287-.455c.277-.07.533-.108.767-.117.242-.009.476.017.702.078.476.139.801.433.975.884.13.33.147.65.052.962a4.41 4.41 0 0 1-.351.884.244.244 0 0 1 .078-.013.297.297 0 0 0 .091-.039c.164-.06.329-.082.494-.065.173.009.333.048.481.117.156.07.29.169.403.299.121.121.212.264.273.429.06.173.086.347.078.52a1.365 1.365 0 0 1-.117.481 1.33 1.33 0 0 1-.299.403 1.253 1.253 0 0 1-.442.26l-1.118.403-.897.299c-.364.104-.659.182-.884.234a3.298 3.298 0 0 1-.611.065Zm4.834-.26c-.104 0-.221-.013-.351-.039a1.465 1.465 0 0 1-.533-.26 1.578 1.578 0 0 1-.377-.455 1.318 1.318 0 0 1-.754.065 1.274 1.274 0 0 1-.689-.416 1.15 1.15 0 0 1-.26-.442c-.052-.165-.069-.33-.052-.494.009-.173.052-.334.13-.481.069-.156.169-.295.299-.416.095-.078.199-.169.312-.273l.338-.338c.208-.208.425-.416.65-.624.234-.217.459-.412.676-.585.147-.113.286-.212.416-.299.139-.087.269-.16.39-.221.451-.217.893-.277 1.326-.182.234.07.438.186.611.351.182.165.321.364.416.598.121.347.117.71-.013 1.092l-.052.13a1.786 1.786 0 0 1-.065.143c.312.147.537.39.676.728.061.173.087.347.078.52a1.389 1.389 0 0 1-.117.494 1.313 1.313 0 0 1-.299.403 1.244 1.244 0 0 1-.442.26c-.277.104-.529.199-.754.286-.217.078-.403.143-.559.195l-.247.091-.169.065a3.802 3.802 0 0 0-.273.065 1.18 1.18 0 0 1-.312.039Zm2.813 1.235c-.095 0-.186-.004-.273-.013a.95.95 0 0 1-.182-.013 1.787 1.787 0 0 1-.65-.338 1.376 1.376 0 0 1-.429-.546c-.061-.121-.1-.23-.117-.325a2.048 2.048 0 0 1 .013-.715c-.078-.052-.16-.108-.247-.169a.693.693 0 0 1-.195-.195 1.448 1.448 0 0 1-.312-.884c0-.208.048-.403.143-.585.087-.19.208-.36.364-.507l.247-.247c.113-.121.217-.243.312-.364l.26-.286.364-.39c.13-.139.256-.269.377-.39.139-.121.26-.225.364-.312a3.29 3.29 0 0 1 .273-.208c.451-.277.919-.364 1.404-.26.503.13.836.412 1.001.845l-.013-.013c.035.078.061.156.078.234a.93.93 0 0 1 .052.221c.121-.13.23-.251.325-.364a19.4 19.4 0 0 1 .26-.325l.182-.208a.22.22 0 0 0 .039-.052.152.152 0 0 0 .026-.039c.199-.234.433-.399.702-.494.277-.104.555-.121.832-.052.191.052.364.147.52.286.165.139.299.299.403.481.121.277.173.516.156.715-.009.19-.022.32-.039.39a.803.803 0 0 1-.039.13l-.026.104-.078.247-.013.039c.173.017.342.065.507.143.173.078.321.186.442.325.113.139.195.29.247.455.061.165.091.325.091.481 0 .433-.178.802-.533 1.105l-.065.065c-.182.156-.377.312-.585.468a6.965 6.965 0 0 1-.637.442c-.511.303-1.014.455-1.508.455-.208 0-.416-.03-.624-.091a1.623 1.623 0 0 1-.442-.169 1.457 1.457 0 0 1-.338-.312l-.299.247a7.156 7.156 0 0 1-.325.221h.013c-.199.139-.39.256-.572.351a6.818 6.818 0 0 1-.52.247 2.047 2.047 0 0 1-.468.13 3.012 3.012 0 0 1-.468.039Z" fill="#21324B"/><rect x="176" y="116" width="16" height="16" rx="4" fill="#EAEDF0"/><path d="M199.51 121.61a.417.417 0 0 1-.13-.02.361.361 0 0 1-.27-.23.513.513 0 0 1 .03-.38c.06-.14.147-.297.26-.47.04-.06.077-.12.11-.18.04-.067.073-.127.1-.18a.346.346 0 0 0 .05-.1c-.2-.033-.433-.04-.7-.02-.26.013-.553.063-.88.15-.293.073-.603.17-.93.29-.327.113-.673.25-1.04.41a.28.28 0 0 1-.22.01.312.312 0 0 1-.16-.16.255.255 0 0 1-.01-.23.308.308 0 0 1 .16-.17c.38-.167.737-.31 1.07-.43.34-.127.667-.227.98-.3.82-.207 1.49-.24 2.01-.1.153.04.26.133.32.28.06.153.047.32-.04.5-.087.173-.19.357-.31.55a.312.312 0 0 0-.04.05.696.696 0 0 1-.03.07c.153-.033.377-.1.67-.2.3-.1.717-.247 1.25-.44a.256.256 0 0 1 .22.02.27.27 0 0 1 .16.17.28.28 0 0 1 0 .23.306.306 0 0 1-.18.16l-.84.29c-.253.087-.48.16-.68.22a13.2 13.2 0 0 1-.62.17 1.67 1.67 0 0 1-.31.04Zm3.709-.2a.248.248 0 0 1-.08-.01.441.441 0 0 1-.23-.12.84.84 0 0 1-.08-.14.536.536 0 0 1 .04-.45c.086-.16.193-.327.32-.5.04-.053.076-.11.11-.17a2.94 2.94 0 0 1 .1-.17.565.565 0 0 0 .03-.04c-.04.013-.09.033-.15.06a1.41 1.41 0 0 0-.19.12 2.58 2.58 0 0 0-.38.29 15.12 15.12 0 0 0-.52.46 1.177 1.177 0 0 0-.1.09.308.308 0 0 1-.21.08.285.285 0 0 1-.21-.11.254.254 0 0 1-.08-.21.296.296 0 0 1 .1-.21.743.743 0 0 1 .11-.09l.1-.1c.16-.147.316-.283.47-.41.16-.133.313-.247.46-.34.153-.093.303-.16.45-.2a.76.76 0 0 1 .44-.01.46.46 0 0 1 .24.14.52.52 0 0 1 .09.16c.06.153.046.31-.04.47-.087.16-.197.337-.33.53a.356.356 0 0 0-.05.07.584.584 0 0 1-.05.08c.1-.04.226-.087.38-.14.16-.06.356-.137.59-.23a.298.298 0 0 1 .24.02c.073.033.123.09.15.17.033.073.03.15-.01.23a.316.316 0 0 1-.16.16l-.58.2a11.625 11.625 0 0 0-.62.23c-.047.013-.09.027-.13.04a.987.987 0 0 0-.13.04.36.36 0 0 1-.09.01Zm2.224.87a1.002 1.002 0 0 1-.28-.04.36.36 0 0 1-.25-.21c-.06-.133-.06-.293 0-.48.066-.193.173-.44.32-.74.026-.053.053-.113.08-.18.026-.067.056-.13.09-.19a1.07 1.07 0 0 0-.28.17c-.094.073-.19.15-.29.23a.27.27 0 0 1-.22.06.337.337 0 0 1-.21-.11.264.264 0 0 1-.06-.22c.013-.08.05-.15.11-.21.093-.067.19-.14.29-.22.1-.08.206-.147.32-.2.273-.14.523-.177.75-.11.106.02.186.087.24.2.053.113.05.247-.01.4-.054.153-.147.37-.28.65-.034.08-.07.16-.11.24a11.184 11.184 0 0 1-.13.3l-.02.06c.066-.007.15-.027.25-.06a2.45 2.45 0 0 0 .36-.15c.14-.073.3-.17.48-.29.18-.12.386-.27.62-.45a19.664 19.664 0 0 0 .93-.81 16.84 16.84 0 0 0 .4-.39c.08-.093.176-.123.29-.09a.278.278 0 0 1 .13.07.54.54 0 0 1 .08.1c.046.093.05.203.01.33s-.114.323-.22.59l-.12.26a5.044 5.044 0 0 1-.1.24c-.007.033-.017.07-.03.11a.87.87 0 0 0 .3-.11 3.707 3.707 0 0 0 .62-.43c.093-.087.176-.16.25-.22a.282.282 0 0 1 .22-.08c.08.007.15.04.21.1.053.067.076.14.07.22 0 .08-.034.15-.1.21a9.21 9.21 0 0 1-.47.4c-.16.12-.324.227-.49.32a2.01 2.01 0 0 1-.49.19c-.167.033-.33.03-.49-.01a.402.402 0 0 1-.23-.2.562.562 0 0 1-.04-.3c.02-.113.06-.257.12-.43a3.22 3.22 0 0 1-.23.19c-.074.06-.154.127-.24.2-.92.727-1.637 1.09-2.15 1.09Zm10.185 0a1.02 1.02 0 0 1-.15-.01 1.387 1.387 0 0 1-.13-.03.362.362 0 0 1-.25-.21c-.06-.133-.06-.293 0-.48.067-.193.173-.44.32-.74a2.27 2.27 0 0 0 .08-.18c.027-.067.057-.13.09-.19a1.07 1.07 0 0 0-.28.17l-.29.23a.27.27 0 0 1-.22.06.337.337 0 0 1-.21-.11.27.27 0 0 1-.06-.22c.013-.08.05-.15.11-.21.093-.067.19-.14.29-.22a1.6 1.6 0 0 1 .32-.2c.273-.14.523-.177.75-.11.107.02.187.087.24.2.053.113.05.247-.01.4-.053.153-.147.37-.28.65-.033.08-.07.16-.11.24a7.51 7.51 0 0 1-.13.3l-.02.06c.067-.007.15-.027.25-.06.107-.033.227-.083.36-.15.14-.073.3-.17.48-.29.18-.12.387-.27.62-.45a19.664 19.664 0 0 0 .93-.81 13.814 13.814 0 0 0 .4-.39c.08-.093.177-.123.29-.09a.273.273 0 0 1 .13.07.54.54 0 0 1 .08.1c.047.093.05.203.01.33s-.113.323-.22.59l-.12.26a4.18 4.18 0 0 1-.1.24c-.007.033-.017.07-.03.11a.87.87 0 0 0 .3-.11c.107-.06.213-.127.32-.2.107-.073.207-.15.3-.23.093-.087.177-.16.25-.22a.283.283 0 0 1 .22-.08c.08.007.15.04.21.1.053.067.077.14.07.22 0 .08-.033.15-.1.21-.153.14-.31.273-.47.4-.16.12-.323.227-.49.32-.16.087-.323.15-.49.19-.167.033-.33.03-.49-.01a.405.405 0 0 1-.23-.2c-.04-.093-.053-.193-.04-.3.02-.113.06-.257.12-.43-.073.067-.15.13-.23.19l-.24.2c-.92.727-1.637 1.09-2.15 1.09Zm5.322 0a1.02 1.02 0 0 1-.15-.01 1.387 1.387 0 0 1-.13-.03.362.362 0 0 1-.25-.21c-.06-.133-.06-.293 0-.48.067-.193.174-.44.32-.74.027-.053.054-.113.08-.18.027-.067.057-.13.09-.19-.086.033-.18.09-.28.17l-.29.23a.27.27 0 0 1-.22.06.342.342 0 0 1-.21-.11.27.27 0 0 1-.06-.22c.014-.08.05-.15.11-.21.094-.067.19-.14.29-.22a1.6 1.6 0 0 1 .32-.2c.274-.14.524-.177.75-.11.107.02.187.087.24.2.054.113.05.247-.01.4-.053.153-.146.37-.28.65-.033.08-.07.16-.11.24-.033.08-.066.157-.1.23a.696.696 0 0 0-.03.07l-.02.06c.067-.007.15-.027.25-.06.107-.033.227-.083.36-.15.14-.073.3-.17.48-.29.18-.12.387-.27.62-.45a19.664 19.664 0 0 0 .93-.81c.12-.113.217-.207.29-.28l.11-.11c.08-.093.177-.123.29-.09a.268.268 0 0 1 .13.07.5.5 0 0 1 .08.1c.047.093.05.203.01.33s-.113.323-.22.59l-.12.26a3.569 3.569 0 0 1-.1.24.736.736 0 0 1-.03.11.855.855 0 0 0 .3-.11 4.11 4.11 0 0 0 .62-.43c.094-.087.177-.16.25-.22a.283.283 0 0 1 .22-.08c.08.007.15.04.21.1.054.067.077.14.07.22 0 .08-.033.15-.1.21-.153.14-.31.273-.47.4-.16.12-.323.227-.49.32-.16.087-.323.15-.49.19-.166.033-.33.03-.49-.01a.408.408 0 0 1-.23-.2c-.04-.093-.053-.193-.04-.3.02-.113.06-.257.12-.43-.073.067-.15.13-.23.19l-.24.2c-.92.727-1.636 1.09-2.15 1.09Z" fill="#21324B"/><path d="M196.64 130.224a.804.804 0 0 1-.224-.032.291.291 0 0 1-.2-.168.527.527 0 0 1 0-.384 5.47 5.47 0 0 1 .256-.592c.021-.043.043-.091.064-.144.021-.053.045-.104.072-.152a.882.882 0 0 0-.224.136l-.232.184a.212.212 0 0 1-.176.048.276.276 0 0 1-.168-.088.212.212 0 0 1-.048-.176.306.306 0 0 1 .088-.168 4.92 4.92 0 0 0 .232-.176 1.29 1.29 0 0 1 .256-.16c.219-.112.419-.141.6-.088.085.016.149.069.192.16.043.091.04.197-.008.32a5.543 5.543 0 0 1-.224.52 3.272 3.272 0 0 1-.088.192 6.73 6.73 0 0 1-.104.24l-.016.048a.925.925 0 0 0 .2-.048 2.08 2.08 0 0 0 .288-.12c.112-.059.24-.136.384-.232.144-.096.309-.216.496-.36a14.62 14.62 0 0 0 .744-.648c.096-.091.173-.165.232-.224l.088-.088c.064-.075.141-.099.232-.072a.218.218 0 0 1 .104.056.408.408 0 0 1 .064.08c.037.075.04.163.008.264a7.764 7.764 0 0 1-.176.472l-.096.208a3.746 3.746 0 0 1-.08.192.62.62 0 0 1-.024.088.699.699 0 0 0 .24-.088 3.258 3.258 0 0 0 .496-.344c.075-.069.141-.128.2-.176a.228.228 0 0 1 .176-.064c.064.005.12.032.168.08a.24.24 0 0 1 .056.176.22.22 0 0 1-.08.168 6.996 6.996 0 0 1-.376.32 3.6 3.6 0 0 1-.392.256 1.63 1.63 0 0 1-.392.152.878.878 0 0 1-.392-.008.322.322 0 0 1-.184-.16.453.453 0 0 1-.032-.24c.016-.091.048-.205.096-.344-.059.053-.12.104-.184.152-.059.048-.123.101-.192.16-.736.581-1.309.872-1.72.872Zm4.682-.696a.217.217 0 0 1-.064-.008.344.344 0 0 1-.184-.096.622.622 0 0 1-.064-.112.43.43 0 0 1 .032-.36c.069-.128.154-.261.256-.4.032-.043.061-.088.088-.136.026-.048.053-.093.08-.136a.28.28 0 0 0 .024-.032 1.647 1.647 0 0 0-.12.048 1.009 1.009 0 0 0-.152.096 2.085 2.085 0 0 0-.304.232 15.062 15.062 0 0 0-.416.368.753.753 0 0 0-.08.072.243.243 0 0 1-.168.064.226.226 0 0 1-.168-.088.202.202 0 0 1-.064-.168.24.24 0 0 1 .08-.168.512.512 0 0 1 .088-.072l.08-.08a9.46 9.46 0 0 1 .376-.328c.128-.107.25-.197.368-.272.122-.075.242-.128.36-.16a.614.614 0 0 1 .352-.008c.09.027.154.064.192.112a.414.414 0 0 1 .072.128.43.43 0 0 1-.032.376 5.088 5.088 0 0 1-.304.48.448.448 0 0 1-.04.064 22.744 22.744 0 0 0 .776-.296.24.24 0 0 1 .192.016.223.223 0 0 1 .12.136.207.207 0 0 1-.008.184.254.254 0 0 1-.128.128l-.464.16a10.65 10.65 0 0 0-.352.128l-.144.056a2.234 2.234 0 0 0-.104.032.78.78 0 0 0-.104.032.324.324 0 0 1-.072.008Zm3.947.16a.32.32 0 0 1-.104-.016.29.29 0 0 1-.216-.184.41.41 0 0 1 .024-.304c.048-.112.117-.237.208-.376.032-.048.061-.096.088-.144.032-.053.059-.101.08-.144a.285.285 0 0 0 .04-.08 2.348 2.348 0 0 0-.56-.016 3.516 3.516 0 0 0-.704.12 7.336 7.336 0 0 0-.744.232c-.261.091-.539.2-.832.328a.225.225 0 0 1-.176.008.25.25 0 0 1-.128-.128.202.202 0 0 1-.008-.184.248.248 0 0 1 .128-.136c.304-.133.589-.248.856-.344.272-.101.533-.181.784-.24.656-.165 1.192-.192 1.608-.08a.362.362 0 0 1 .256.224.487.487 0 0 1-.032.4 5.422 5.422 0 0 1-.248.44.28.28 0 0 0-.032.04.347.347 0 0 1-.024.056c.123-.027.301-.08.536-.16.24-.08.573-.197 1-.352a.207.207 0 0 1 .176.016.216.216 0 0 1 .128.136.219.219 0 0 1 0 .184.248.248 0 0 1-.144.128c-.245.085-.469.163-.672.232a11.61 11.61 0 0 1-1.04.312 1.39 1.39 0 0 1-.248.032Zm2.543.536a.804.804 0 0 1-.224-.032.291.291 0 0 1-.2-.168.527.527 0 0 1 0-.384 5.47 5.47 0 0 1 .256-.592c.021-.043.043-.091.064-.144.021-.053.045-.104.072-.152a.882.882 0 0 0-.224.136l-.232.184a.212.212 0 0 1-.176.048.276.276 0 0 1-.168-.088.212.212 0 0 1-.048-.176.306.306 0 0 1 .088-.168 4.92 4.92 0 0 0 .232-.176 1.29 1.29 0 0 1 .256-.16c.219-.112.419-.141.6-.088.085.016.149.069.192.16.043.091.04.197-.008.32a5.543 5.543 0 0 1-.224.52 3.272 3.272 0 0 1-.088.192 6.73 6.73 0 0 1-.104.24l-.016.048a.925.925 0 0 0 .2-.048 2.08 2.08 0 0 0 .288-.12c.112-.059.24-.136.384-.232.144-.096.309-.216.496-.36a14.62 14.62 0 0 0 .744-.648c.096-.091.173-.165.232-.224l.088-.088c.064-.075.141-.099.232-.072a.218.218 0 0 1 .104.056.408.408 0 0 1 .064.08c.037.075.04.163.008.264a7.764 7.764 0 0 1-.176.472l-.096.208a3.746 3.746 0 0 1-.08.192.62.62 0 0 1-.024.088.699.699 0 0 0 .24-.088 3.258 3.258 0 0 0 .496-.344c.075-.069.141-.128.2-.176a.228.228 0 0 1 .176-.064c.064.005.12.032.168.08a.24.24 0 0 1 .056.176.22.22 0 0 1-.08.168 6.996 6.996 0 0 1-.376.32 3.6 3.6 0 0 1-.392.256 1.63 1.63 0 0 1-.392.152.878.878 0 0 1-.392-.008.322.322 0 0 1-.184-.16.453.453 0 0 1-.032-.24c.016-.091.048-.205.096-.344-.059.053-.12.104-.184.152-.059.048-.123.101-.192.16-.736.581-1.309.872-1.72.872Zm4.258 0a.804.804 0 0 1-.224-.032.291.291 0 0 1-.2-.168.527.527 0 0 1 0-.384c.053-.155.138-.352.256-.592.021-.043.042-.091.064-.144.021-.053.045-.104.072-.152a.865.865 0 0 0-.224.136l-.232.184a.213.213 0 0 1-.176.048.27.27 0 0 1-.168-.088.212.212 0 0 1-.048-.176.3.3 0 0 1 .088-.168c.074-.053.152-.112.232-.176a1.29 1.29 0 0 1 .256-.16c.218-.112.418-.141.6-.088.085.016.149.069.192.16.042.091.04.197-.008.32a5.828 5.828 0 0 1-.224.52 3.272 3.272 0 0 1-.088.192l-.08.184a.347.347 0 0 0-.024.056l-.016.048a.925.925 0 0 0 .2-.048 2.08 2.08 0 0 0 .288-.12c.112-.059.24-.136.384-.232.144-.096.309-.216.496-.36a14.62 14.62 0 0 0 .744-.648 12.773 12.773 0 0 0 .32-.312c.064-.075.141-.099.232-.072a.223.223 0 0 1 .104.056.449.449 0 0 1 .064.08c.037.075.04.163.008.264a7.764 7.764 0 0 1-.176.472l-.096.208a4.928 4.928 0 0 1-.08.192 1.088 1.088 0 0 1-.024.088.714.714 0 0 0 .24-.088 3.454 3.454 0 0 0 .496-.344c.074-.069.141-.128.2-.176a.228.228 0 0 1 .176-.064c.064.005.12.032.168.08a.245.245 0 0 1 .056.176.22.22 0 0 1-.08.168 6.996 6.996 0 0 1-.376.32 3.6 3.6 0 0 1-.392.256 1.63 1.63 0 0 1-.392.152.878.878 0 0 1-.392-.008.319.319 0 0 1-.184-.16.453.453 0 0 1-.032-.24c.016-.091.048-.205.096-.344-.059.053-.12.104-.184.152-.059.048-.123.101-.192.16-.736.581-1.31.872-1.72.872Z" fill="#0052CD"/><rect x="176" y="142" width="40" height="16" rx="4" fill="#55ABED"/><rect x="220.5" y="142.5" width="39" height="15" rx="3.5" stroke="#C2CAD6"/><path d="M177.008 206.24a.434.434 0 0 1-.08-.008.575.575 0 0 1-.088-.008.302.302 0 0 1-.16-.136.334.334 0 0 1-.032-.112.805.805 0 0 1 .016-.208c.021-.091.053-.213.096-.368.048-.16.112-.365.192-.616-.123.043-.259.093-.408.152-.149.059-.304.117-.464.176a.225.225 0 0 1-.176-.008.277.277 0 0 1-.136-.144.207.207 0 0 1 .016-.176.245.245 0 0 1 .136-.136l.496-.184c.16-.059.301-.109.424-.152.123-.048.221-.085.296-.112l.112-.048a.217.217 0 0 1 .152-.008c.069.016.12.056.152.12.027.048.035.091.024.128a1.06 1.06 0 0 1-.024.12.254.254 0 0 0-.024.072.889.889 0 0 1-.024.08 4.97 4.97 0 0 0-.12.336 13.108 13.108 0 0 1-.184.584 3.467 3.467 0 0 0-.04.144c.101-.021.248-.083.44-.184.165-.091.341-.195.528-.312.187-.117.381-.245.584-.384l.128-.08c.043-.027.085-.056.128-.088a.229.229 0 0 1 .184-.032.244.244 0 0 1 .16.104c.037.059.048.12.032.184a.212.212 0 0 1-.104.144 3.203 3.203 0 0 1-.272.184c-.203.133-.4.261-.592.384a7.83 7.83 0 0 1-.544.32c-.347.181-.621.272-.824.272Zm3.933-.472a.236.236 0 0 1-.16-.056c-.085-.069-.109-.157-.072-.264 0-.005.019-.069.056-.192l.144-.416c.027-.091.051-.168.072-.232l.056-.184-.384.144c-.144.053-.298.112-.464.176l-.496.184-.496.184a.225.225 0 0 1-.176-.008.277.277 0 0 1-.136-.144.207.207 0 0 1 .016-.176.245.245 0 0 1 .136-.136c.24-.085.488-.176.744-.272a94.29 94.29 0 0 0 1.24-.464l.216-.08a.405.405 0 0 1 .072-.008.137.137 0 0 1 .08.008.196.196 0 0 1 .16.128.267.267 0 0 1 .032.168c0 .064-.013.157-.04.28a3.032 3.032 0 0 1-.064.232c-.021.08-.05.173-.088.28a.483.483 0 0 1-.016.056l-.016.056c.214-.117.475-.24.784-.368a.201.201 0 0 1 .176 0 .213.213 0 0 1 .128.12c.032.059.035.12.008.184a.245.245 0 0 1-.128.136 16.193 16.193 0 0 0-1.264.624.18.18 0 0 1-.12.04Zm2.294.472a.426.426 0 0 1-.08-.008.575.575 0 0 1-.088-.008.298.298 0 0 1-.16-.136.334.334 0 0 1-.032-.112.762.762 0 0 1 .016-.208c.021-.091.053-.213.096-.368.048-.16.112-.365.192-.616-.123.043-.259.093-.408.152-.15.059-.304.117-.464.176a.225.225 0 0 1-.176-.008.273.273 0 0 1-.136-.144.204.204 0 0 1 .016-.176.242.242 0 0 1 .136-.136l.496-.184c.16-.059.301-.109.424-.152.122-.048.221-.085.296-.112l.112-.048a.217.217 0 0 1 .152-.008c.069.016.12.056.152.12.026.048.034.091.024.128a1.816 1.816 0 0 1-.024.12.254.254 0 0 0-.024.072 3.43 3.43 0 0 1-.024.08 4.068 4.068 0 0 0-.12.336c-.038.128-.078.259-.12.392a3.894 3.894 0 0 0-.104.336c.101-.021.248-.083.44-.184.165-.091.341-.195.528-.312.186-.117.381-.245.584-.384l.128-.08c.042-.027.085-.056.128-.088a.228.228 0 0 1 .184-.032.244.244 0 0 1 .16.104c.037.059.048.12.032.184a.216.216 0 0 1-.104.144 3.203 3.203 0 0 1-.272.184c-.203.133-.4.261-.592.384a8.072 8.072 0 0 1-.544.32c-.347.181-.622.272-.824.272Zm6.639-.016a.918.918 0 0 1-.12-.008.843.843 0 0 1-.104-.024.294.294 0 0 1-.2-.168.527.527 0 0 1 0-.384c.054-.155.139-.352.256-.592.022-.043.043-.091.064-.144a1.64 1.64 0 0 1 .072-.152.882.882 0 0 0-.224.136l-.232.184a.212.212 0 0 1-.176.048.276.276 0 0 1-.168-.088.219.219 0 0 1-.048-.176.306.306 0 0 1 .088-.168 4.92 4.92 0 0 0 .232-.176c.08-.064.166-.117.256-.16.219-.112.419-.141.6-.088.086.016.15.069.192.16.043.091.04.197-.008.32a5.284 5.284 0 0 1-.224.52 2.727 2.727 0 0 1-.088.192 4.61 4.61 0 0 1-.104.24l-.016.048a.912.912 0 0 0 .2-.048c.086-.027.182-.067.288-.12.112-.059.24-.136.384-.232.144-.096.31-.216.496-.36a14.62 14.62 0 0 0 .744-.648c.096-.091.174-.165.232-.224l.088-.088c.064-.075.142-.099.232-.072a.214.214 0 0 1 .104.056.408.408 0 0 1 .064.08.34.34 0 0 1 .008.264c-.032.101-.09.259-.176.472l-.096.208a3.022 3.022 0 0 1-.08.192.62.62 0 0 1-.024.088.699.699 0 0 0 .24-.088 3.083 3.083 0 0 0 .496-.344 5.19 5.19 0 0 1 .2-.176.23.23 0 0 1 .176-.064c.064.005.12.032.168.08a.237.237 0 0 1 .056.176c0 .064-.026.12-.08.168a6.627 6.627 0 0 1-.376.32 3.506 3.506 0 0 1-.392.256c-.128.069-.258.12-.392.152a.878.878 0 0 1-.392-.008.325.325 0 0 1-.184-.16.463.463 0 0 1-.032-.24c.016-.091.048-.205.096-.344-.058.053-.12.104-.184.152l-.192.16c-.736.581-1.309.872-1.72.872Zm4.682-.696a.222.222 0 0 1-.064-.008.352.352 0 0 1-.184-.096.692.692 0 0 1-.064-.112.434.434 0 0 1 .032-.36c.07-.128.155-.261.256-.4a1.13 1.13 0 0 0 .088-.136c.027-.048.054-.093.08-.136a.15.15 0 0 0 .024-.032 1.647 1.647 0 0 0-.12.048 1.12 1.12 0 0 0-.152.096 2.14 2.14 0 0 0-.304.232 17.856 17.856 0 0 0-.496.44.243.243 0 0 1-.168.064.23.23 0 0 1-.168-.088.205.205 0 0 1-.064-.168.244.244 0 0 1 .08-.168.553.553 0 0 1 .088-.072l.08-.08c.128-.117.254-.227.376-.328.128-.107.251-.197.368-.272.123-.075.243-.128.36-.16a.614.614 0 0 1 .352-.008.367.367 0 0 1 .192.112.376.376 0 0 1 .072.128.427.427 0 0 1-.032.376 4.607 4.607 0 0 1-.304.48.374.374 0 0 1-.04.064 20.73 20.73 0 0 0 .776-.296.24.24 0 0 1 .192.016.217.217 0 0 1 .12.136.203.203 0 0 1-.008.184.246.246 0 0 1-.128.128l-.464.16a11.56 11.56 0 0 0-.496.184c-.037.011-.072.021-.104.032a.887.887 0 0 0-.104.032.31.31 0 0 1-.072.008Zm3.947.16a.32.32 0 0 1-.104-.016.29.29 0 0 1-.216-.184.41.41 0 0 1 .024-.304c.048-.112.118-.237.208-.376.032-.048.062-.096.088-.144.032-.053.059-.101.08-.144a.26.26 0 0 0 .04-.08 2.346 2.346 0 0 0-.56-.016 3.528 3.528 0 0 0-.704.12 7.497 7.497 0 0 0-.744.232c-.261.091-.538.2-.832.328a.225.225 0 0 1-.176.008.254.254 0 0 1-.128-.128.205.205 0 0 1-.008-.184.251.251 0 0 1 .128-.136c.304-.133.59-.248.856-.344.272-.101.534-.181.784-.24.656-.165 1.192-.192 1.608-.08a.362.362 0 0 1 .256.224.483.483 0 0 1-.032.4 5.422 5.422 0 0 1-.248.44.372.372 0 0 0-.032.04.347.347 0 0 1-.024.056c.123-.027.302-.08.536-.16.24-.08.574-.197 1-.352a.207.207 0 0 1 .176.016.216.216 0 0 1 .128.136.219.219 0 0 1 0 .184.242.242 0 0 1-.144.128c-.245.085-.469.163-.672.232a11.215 11.215 0 0 1-1.04.312 1.38 1.38 0 0 1-.248.032Zm2.543.536a.918.918 0 0 1-.12-.008.843.843 0 0 1-.104-.024.294.294 0 0 1-.2-.168.527.527 0 0 1 0-.384c.054-.155.139-.352.256-.592.022-.043.043-.091.064-.144a1.64 1.64 0 0 1 .072-.152.882.882 0 0 0-.224.136l-.232.184a.212.212 0 0 1-.176.048.276.276 0 0 1-.168-.088.219.219 0 0 1-.048-.176.306.306 0 0 1 .088-.168 4.92 4.92 0 0 0 .232-.176c.08-.064.166-.117.256-.16.219-.112.419-.141.6-.088.086.016.15.069.192.16.043.091.04.197-.008.32a5.284 5.284 0 0 1-.224.52 2.727 2.727 0 0 1-.088.192 4.61 4.61 0 0 1-.104.24l-.016.048a.912.912 0 0 0 .2-.048c.086-.027.182-.067.288-.12.112-.059.24-.136.384-.232.144-.096.31-.216.496-.36a14.62 14.62 0 0 0 .744-.648c.096-.091.174-.165.232-.224l.088-.088c.064-.075.142-.099.232-.072a.214.214 0 0 1 .104.056.408.408 0 0 1 .064.08.34.34 0 0 1 .008.264c-.032.101-.09.259-.176.472l-.096.208a3.022 3.022 0 0 1-.08.192.62.62 0 0 1-.024.088.699.699 0 0 0 .24-.088 3.083 3.083 0 0 0 .496-.344 5.19 5.19 0 0 1 .2-.176.23.23 0 0 1 .176-.064c.064.005.12.032.168.08a.237.237 0 0 1 .056.176c0 .064-.026.12-.08.168a6.627 6.627 0 0 1-.376.32 3.506 3.506 0 0 1-.392.256c-.128.069-.258.12-.392.152a.878.878 0 0 1-.392-.008.325.325 0 0 1-.184-.16.463.463 0 0 1-.032-.24c.016-.091.048-.205.096-.344-.058.053-.12.104-.184.152l-.192.16c-.736.581-1.309.872-1.72.872Zm4.258 0a.804.804 0 0 1-.224-.032.291.291 0 0 1-.2-.168.527.527 0 0 1 0-.384 5.47 5.47 0 0 1 .256-.592c.021-.043.043-.091.064-.144.021-.053.045-.104.072-.152a.882.882 0 0 0-.224.136l-.232.184a.212.212 0 0 1-.176.048.276.276 0 0 1-.168-.088.212.212 0 0 1-.048-.176.306.306 0 0 1 .088-.168 4.92 4.92 0 0 0 .232-.176 1.29 1.29 0 0 1 .256-.16c.219-.112.419-.141.6-.088.085.016.149.069.192.16.043.091.04.197-.008.32a5.543 5.543 0 0 1-.224.52 3.272 3.272 0 0 1-.088.192 6.73 6.73 0 0 1-.104.24l-.016.048a.925.925 0 0 0 .2-.048 2.08 2.08 0 0 0 .288-.12c.112-.059.24-.136.384-.232.144-.096.309-.216.496-.36a14.62 14.62 0 0 0 .744-.648c.096-.091.173-.165.232-.224l.088-.088c.064-.075.141-.099.232-.072a.218.218 0 0 1 .104.056.408.408 0 0 1 .064.08c.037.075.04.163.008.264a7.764 7.764 0 0 1-.176.472l-.096.208a3.746 3.746 0 0 1-.08.192.62.62 0 0 1-.024.088.699.699 0 0 0 .24-.088 3.258 3.258 0 0 0 .496-.344c.075-.069.141-.128.2-.176a.228.228 0 0 1 .176-.064c.064.005.12.032.168.08a.24.24 0 0 1 .056.176.22.22 0 0 1-.08.168 6.996 6.996 0 0 1-.376.32 3.6 3.6 0 0 1-.392.256 1.63 1.63 0 0 1-.392.152.878.878 0 0 1-.392-.008.322.322 0 0 1-.184-.16.453.453 0 0 1-.032-.24c.016-.091.048-.205.096-.344-.059.053-.12.104-.184.152-.059.048-.123.101-.192.16-.736.581-1.309.872-1.72.872Zm10.317-.536a.315.315 0 0 1-.104-.016.288.288 0 0 1-.216-.184.41.41 0 0 1 .024-.304c.048-.112.117-.237.208-.376.032-.048.061-.096.088-.144a2.32 2.32 0 0 0 .08-.144.285.285 0 0 0 .04-.08 2.348 2.348 0 0 0-.56-.016 3.516 3.516 0 0 0-.704.12 7.336 7.336 0 0 0-.744.232c-.262.091-.539.2-.832.328a.227.227 0 0 1-.177.008.254.254 0 0 1-.128-.128.205.205 0 0 1-.008-.184.251.251 0 0 1 .128-.136c.305-.133.59-.248.857-.344.272-.101.533-.181.784-.24.656-.165 1.192-.192 1.608-.08a.363.363 0 0 1 .256.224.487.487 0 0 1-.032.4c-.07.139-.152.285-.248.44a.224.224 0 0 0-.032.04.721.721 0 0 1-.024.056c.122-.027.301-.08.536-.16.24-.08.573-.197 1-.352a.207.207 0 0 1 .176.016.218.218 0 0 1 .128.136.227.227 0 0 1 0 .184.248.248 0 0 1-.144.128l-.672.232a11.61 11.61 0 0 1-1.04.312 1.4 1.4 0 0 1-.248.032Zm2.966-.16a.222.222 0 0 1-.064-.008.352.352 0 0 1-.184-.096.692.692 0 0 1-.064-.112.434.434 0 0 1 .032-.36c.07-.128.155-.261.256-.4a1.13 1.13 0 0 0 .088-.136c.027-.048.054-.093.08-.136a.15.15 0 0 0 .024-.032 1.647 1.647 0 0 0-.12.048 1.12 1.12 0 0 0-.152.096 2.14 2.14 0 0 0-.304.232 17.856 17.856 0 0 0-.496.44.243.243 0 0 1-.168.064.23.23 0 0 1-.168-.088.205.205 0 0 1-.064-.168.244.244 0 0 1 .08-.168.553.553 0 0 1 .088-.072l.08-.08c.128-.117.254-.227.376-.328.128-.107.251-.197.368-.272.123-.075.243-.128.36-.16a.614.614 0 0 1 .352-.008.367.367 0 0 1 .192.112.376.376 0 0 1 .072.128.427.427 0 0 1-.032.376 4.607 4.607 0 0 1-.304.48.374.374 0 0 1-.04.064 20.73 20.73 0 0 0 .776-.296.24.24 0 0 1 .192.016.217.217 0 0 1 .12.136.203.203 0 0 1-.008.184.246.246 0 0 1-.128.128l-.464.16a11.56 11.56 0 0 0-.496.184c-.037.011-.072.021-.104.032a.887.887 0 0 0-.104.032.31.31 0 0 1-.072.008Zm1.78.696a.804.804 0 0 1-.224-.032.291.291 0 0 1-.2-.168.527.527 0 0 1 0-.384c.053-.155.138-.352.256-.592.021-.043.042-.091.064-.144.021-.053.045-.104.072-.152a.865.865 0 0 0-.224.136l-.232.184a.213.213 0 0 1-.176.048.27.27 0 0 1-.168-.088.212.212 0 0 1-.048-.176.3.3 0 0 1 .088-.168c.074-.053.152-.112.232-.176a1.29 1.29 0 0 1 .256-.16c.218-.112.418-.141.6-.088.085.016.149.069.192.16.042.091.04.197-.008.32a5.828 5.828 0 0 1-.224.52 3.272 3.272 0 0 1-.088.192l-.08.184a.9.9 0 0 0-.04.104.925.925 0 0 0 .2-.048 2.08 2.08 0 0 0 .288-.12c.112-.059.24-.136.384-.232.144-.096.309-.216.496-.36a14.62 14.62 0 0 0 .744-.648 12.773 12.773 0 0 0 .32-.312c.064-.075.141-.099.232-.072a.223.223 0 0 1 .104.056.449.449 0 0 1 .064.08c.037.075.04.163.008.264a7.764 7.764 0 0 1-.176.472l-.096.208a4.928 4.928 0 0 1-.08.192 1.088 1.088 0 0 1-.024.088.714.714 0 0 0 .24-.088 3.454 3.454 0 0 0 .496-.344c.074-.069.141-.128.2-.176a.228.228 0 0 1 .176-.064c.064.005.12.032.168.08a.245.245 0 0 1 .056.176.22.22 0 0 1-.08.168 6.996 6.996 0 0 1-.376.32 3.6 3.6 0 0 1-.392.256 1.63 1.63 0 0 1-.392.152.878.878 0 0 1-.392-.008.319.319 0 0 1-.184-.16.453.453 0 0 1-.032-.24c.016-.091.048-.205.096-.344-.059.053-.12.104-.184.152-.059.048-.123.101-.192.16-.736.581-1.31.872-1.72.872Zm6.425-.536a.32.32 0 0 1-.104-.016.29.29 0 0 1-.216-.184.41.41 0 0 1 .024-.304c.048-.112.118-.237.208-.376.032-.048.062-.096.088-.144.032-.053.059-.101.08-.144a.26.26 0 0 0 .04-.08 2.346 2.346 0 0 0-.56-.016 3.528 3.528 0 0 0-.704.12 7.497 7.497 0 0 0-.744.232c-.261.091-.538.2-.832.328a.225.225 0 0 1-.176.008.254.254 0 0 1-.128-.128.205.205 0 0 1-.008-.184.251.251 0 0 1 .128-.136c.304-.133.59-.248.856-.344.272-.101.534-.181.784-.24.656-.165 1.192-.192 1.608-.08a.362.362 0 0 1 .256.224.483.483 0 0 1-.032.4 5.422 5.422 0 0 1-.248.44.372.372 0 0 0-.032.04.347.347 0 0 1-.024.056c.123-.027.302-.08.536-.16.24-.08.574-.197 1-.352a.207.207 0 0 1 .176.016.216.216 0 0 1 .128.136.219.219 0 0 1 0 .184.242.242 0 0 1-.144.128c-.245.085-.469.163-.672.232a11.215 11.215 0 0 1-1.04.312 1.38 1.38 0 0 1-.248.032Zm8.602 0a.32.32 0 0 1-.104-.016.29.29 0 0 1-.216-.184.41.41 0 0 1 .024-.304c.048-.112.117-.237.208-.376.032-.048.061-.096.088-.144.032-.053.059-.101.08-.144a.285.285 0 0 0 .04-.08 2.348 2.348 0 0 0-.56-.016 3.516 3.516 0 0 0-.704.12 7.336 7.336 0 0 0-.744.232c-.261.091-.539.2-.832.328a.225.225 0 0 1-.176.008.25.25 0 0 1-.128-.128.202.202 0 0 1-.008-.184.248.248 0 0 1 .128-.136c.304-.133.589-.248.856-.344.272-.101.533-.181.784-.24.656-.165 1.192-.192 1.608-.08a.362.362 0 0 1 .256.224.487.487 0 0 1-.032.4 5.422 5.422 0 0 1-.248.44.28.28 0 0 0-.032.04.347.347 0 0 1-.024.056c.123-.027.301-.08.536-.16.24-.08.573-.197 1-.352a.207.207 0 0 1 .176.016.216.216 0 0 1 .128.136.219.219 0 0 1 0 .184.248.248 0 0 1-.144.128c-.245.085-.469.163-.672.232a11.61 11.61 0 0 1-1.04.312 1.39 1.39 0 0 1-.248.032Zm2.967-.16a.217.217 0 0 1-.064-.008.348.348 0 0 1-.184-.096.692.692 0 0 1-.064-.112.43.43 0 0 1 .032-.36c.069-.128.155-.261.256-.4.032-.043.061-.088.088-.136.027-.048.053-.093.08-.136a.28.28 0 0 0 .024-.032 1.647 1.647 0 0 0-.12.048 1.061 1.061 0 0 0-.152.096 2.14 2.14 0 0 0-.304.232 15.062 15.062 0 0 0-.496.44.243.243 0 0 1-.168.064.23.23 0 0 1-.168-.088.205.205 0 0 1-.064-.168.24.24 0 0 1 .08-.168.553.553 0 0 1 .088-.072l.08-.08a9.46 9.46 0 0 1 .376-.328c.128-.107.251-.197.368-.272.123-.075.243-.128.36-.16a.614.614 0 0 1 .352-.008.367.367 0 0 1 .192.112.414.414 0 0 1 .072.128.43.43 0 0 1-.032.376 4.607 4.607 0 0 1-.304.48.448.448 0 0 1-.04.064 22.744 22.744 0 0 0 .776-.296.24.24 0 0 1 .192.016.217.217 0 0 1 .12.136.203.203 0 0 1-.008.184.25.25 0 0 1-.128.128l-.464.16a10.65 10.65 0 0 0-.496.184c-.037.011-.072.021-.104.032a.83.83 0 0 0-.104.032.31.31 0 0 1-.072.008Zm1.779.696a.804.804 0 0 1-.224-.032.291.291 0 0 1-.2-.168.527.527 0 0 1 0-.384 5.47 5.47 0 0 1 .256-.592c.021-.043.043-.091.064-.144.021-.053.045-.104.072-.152a.882.882 0 0 0-.224.136l-.232.184a.212.212 0 0 1-.176.048.276.276 0 0 1-.168-.088.212.212 0 0 1-.048-.176.306.306 0 0 1 .088-.168 4.92 4.92 0 0 0 .232-.176 1.29 1.29 0 0 1 .256-.16c.219-.112.419-.141.6-.088.085.016.149.069.192.16.043.091.04.197-.008.32a5.543 5.543 0 0 1-.224.52 3.272 3.272 0 0 1-.088.192 6.73 6.73 0 0 1-.104.24l-.016.048a.925.925 0 0 0 .2-.048 2.08 2.08 0 0 0 .288-.12c.112-.059.24-.136.384-.232.144-.096.309-.216.496-.36a14.62 14.62 0 0 0 .744-.648c.096-.091.173-.165.232-.224l.088-.088c.064-.075.141-.099.232-.072a.218.218 0 0 1 .104.056.408.408 0 0 1 .064.08c.037.075.04.163.008.264a7.764 7.764 0 0 1-.176.472l-.096.208a3.746 3.746 0 0 1-.08.192.62.62 0 0 1-.024.088.699.699 0 0 0 .24-.088 3.258 3.258 0 0 0 .496-.344c.075-.069.141-.128.2-.176a.228.228 0 0 1 .176-.064c.064.005.12.032.168.08a.24.24 0 0 1 .056.176.22.22 0 0 1-.08.168 6.996 6.996 0 0 1-.376.32 3.6 3.6 0 0 1-.392.256 1.63 1.63 0 0 1-.392.152.878.878 0 0 1-.392-.008.322.322 0 0 1-.184-.16.453.453 0 0 1-.032-.24c.016-.091.048-.205.096-.344-.059.053-.12.104-.184.152-.059.048-.123.101-.192.16-.736.581-1.309.872-1.72.872Zm8.148 0a.918.918 0 0 1-.12-.008.843.843 0 0 1-.104-.024.294.294 0 0 1-.2-.168.527.527 0 0 1 0-.384c.054-.155.139-.352.256-.592.022-.043.043-.091.064-.144a1.64 1.64 0 0 1 .072-.152.882.882 0 0 0-.224.136l-.232.184a.212.212 0 0 1-.176.048.276.276 0 0 1-.168-.088.219.219 0 0 1-.048-.176.306.306 0 0 1 .088-.168 4.92 4.92 0 0 0 .232-.176c.08-.064.166-.117.256-.16.219-.112.419-.141.6-.088.086.016.15.069.192.16.043.091.04.197-.008.32a5.284 5.284 0 0 1-.224.52 2.727 2.727 0 0 1-.088.192 4.61 4.61 0 0 1-.104.24l-.016.048a.912.912 0 0 0 .2-.048c.086-.027.182-.067.288-.12.112-.059.24-.136.384-.232.144-.096.31-.216.496-.36a14.62 14.62 0 0 0 .744-.648c.096-.091.174-.165.232-.224l.088-.088c.064-.075.142-.099.232-.072a.214.214 0 0 1 .104.056.408.408 0 0 1 .064.08.34.34 0 0 1 .008.264c-.032.101-.09.259-.176.472l-.096.208a3.022 3.022 0 0 1-.08.192.62.62 0 0 1-.024.088.699.699 0 0 0 .24-.088 3.083 3.083 0 0 0 .496-.344 5.19 5.19 0 0 1 .2-.176.23.23 0 0 1 .176-.064c.064.005.12.032.168.08a.237.237 0 0 1 .056.176c0 .064-.026.12-.08.168a6.627 6.627 0 0 1-.376.32 3.506 3.506 0 0 1-.392.256c-.128.069-.258.12-.392.152a.878.878 0 0 1-.392-.008.325.325 0 0 1-.184-.16.463.463 0 0 1-.032-.24c.016-.091.048-.205.096-.344-.058.053-.12.104-.184.152l-.192.16c-.736.581-1.309.872-1.72.872Zm6.426-.536a.32.32 0 0 1-.104-.016.29.29 0 0 1-.216-.184.41.41 0 0 1 .024-.304c.048-.112.118-.237.208-.376.032-.048.062-.096.088-.144.032-.053.059-.101.08-.144a.26.26 0 0 0 .04-.08 2.346 2.346 0 0 0-.56-.016 3.528 3.528 0 0 0-.704.12 7.497 7.497 0 0 0-.744.232c-.261.091-.538.2-.832.328a.225.225 0 0 1-.176.008.254.254 0 0 1-.128-.128.205.205 0 0 1-.008-.184.251.251 0 0 1 .128-.136c.304-.133.59-.248.856-.344.272-.101.534-.181.784-.24.656-.165 1.192-.192 1.608-.08a.362.362 0 0 1 .256.224.483.483 0 0 1-.032.4 5.422 5.422 0 0 1-.248.44.372.372 0 0 0-.032.04.347.347 0 0 1-.024.056c.123-.027.302-.08.536-.16.24-.08.574-.197 1-.352a.207.207 0 0 1 .176.016.216.216 0 0 1 .128.136.219.219 0 0 1 0 .184.242.242 0 0 1-.144.128c-.245.085-.469.163-.672.232a11.215 11.215 0 0 1-1.04.312 1.38 1.38 0 0 1-.248.032Zm4.711 0a.32.32 0 0 1-.104-.016.29.29 0 0 1-.216-.184.41.41 0 0 1 .024-.304c.048-.112.118-.237.208-.376.032-.048.062-.096.088-.144.032-.053.059-.101.08-.144a.26.26 0 0 0 .04-.08 2.346 2.346 0 0 0-.56-.016 3.528 3.528 0 0 0-.704.12 7.497 7.497 0 0 0-.744.232c-.261.091-.538.2-.832.328a.225.225 0 0 1-.176.008.254.254 0 0 1-.128-.128.205.205 0 0 1-.008-.184.251.251 0 0 1 .128-.136c.304-.133.59-.248.856-.344.272-.101.534-.181.784-.24.656-.165 1.192-.192 1.608-.08a.362.362 0 0 1 .256.224.483.483 0 0 1-.032.4 5.422 5.422 0 0 1-.248.44.372.372 0 0 0-.032.04.347.347 0 0 1-.024.056c.123-.027.302-.08.536-.16.24-.08.574-.197 1-.352a.207.207 0 0 1 .176.016.216.216 0 0 1 .128.136.219.219 0 0 1 0 .184.242.242 0 0 1-.144.128c-.245.085-.469.163-.672.232a11.215 11.215 0 0 1-1.04.312 1.38 1.38 0 0 1-.248.032Zm6.858-.16a.217.217 0 0 1-.064-.008.344.344 0 0 1-.184-.096.622.622 0 0 1-.064-.112.43.43 0 0 1 .032-.36c.069-.128.154-.261.256-.4.032-.043.061-.088.088-.136.026-.048.053-.093.08-.136a.28.28 0 0 0 .024-.032 1.647 1.647 0 0 0-.12.048 1.009 1.009 0 0 0-.152.096 2.085 2.085 0 0 0-.304.232 15.062 15.062 0 0 0-.416.368.753.753 0 0 0-.08.072.243.243 0 0 1-.168.064.226.226 0 0 1-.168-.088.202.202 0 0 1-.064-.168.24.24 0 0 1 .08-.168.512.512 0 0 1 .088-.072l.08-.08a9.46 9.46 0 0 1 .376-.328c.128-.107.25-.197.368-.272.122-.075.242-.128.36-.16a.614.614 0 0 1 .352-.008c.09.027.154.064.192.112a.414.414 0 0 1 .072.128.43.43 0 0 1-.032.376 5.088 5.088 0 0 1-.304.48.448.448 0 0 1-.04.064 22.744 22.744 0 0 0 .776-.296.24.24 0 0 1 .192.016.223.223 0 0 1 .12.136.207.207 0 0 1-.008.184.254.254 0 0 1-.128.128l-.464.16a10.65 10.65 0 0 0-.352.128l-.144.056a2.234 2.234 0 0 0-.104.032.78.78 0 0 0-.104.032.324.324 0 0 1-.072.008Zm3.947.16a.32.32 0 0 1-.104-.016.29.29 0 0 1-.216-.184.41.41 0 0 1 .024-.304c.048-.112.117-.237.208-.376.032-.048.061-.096.088-.144.032-.053.059-.101.08-.144a.285.285 0 0 0 .04-.08 2.348 2.348 0 0 0-.56-.016 3.516 3.516 0 0 0-.704.12 7.336 7.336 0 0 0-.744.232c-.261.091-.539.2-.832.328a.225.225 0 0 1-.176.008.25.25 0 0 1-.128-.128.202.202 0 0 1-.008-.184.248.248 0 0 1 .128-.136c.304-.133.589-.248.856-.344.272-.101.533-.181.784-.24.656-.165 1.192-.192 1.608-.08a.362.362 0 0 1 .256.224.487.487 0 0 1-.032.4 5.422 5.422 0 0 1-.248.44.28.28 0 0 0-.032.04.347.347 0 0 1-.024.056c.123-.027.301-.08.536-.16.24-.08.573-.197 1-.352a.207.207 0 0 1 .176.016.216.216 0 0 1 .128.136.219.219 0 0 1 0 .184.248.248 0 0 1-.144.128c-.245.085-.469.163-.672.232a11.61 11.61 0 0 1-1.04.312 1.39 1.39 0 0 1-.248.032Zm-91.422 11a.32.32 0 0 1-.104-.016.29.29 0 0 1-.216-.184.41.41 0 0 1 .024-.304c.048-.112.117-.237.208-.376.032-.048.061-.096.088-.144.032-.053.059-.101.08-.144a.285.285 0 0 0 .04-.08 2.348 2.348 0 0 0-.56-.016 3.516 3.516 0 0 0-.704.12 7.336 7.336 0 0 0-.744.232c-.261.091-.539.2-.832.328a.225.225 0 0 1-.176.008.25.25 0 0 1-.128-.128.202.202 0 0 1-.008-.184.248.248 0 0 1 .128-.136c.304-.133.589-.248.856-.344.272-.101.533-.181.784-.24.656-.165 1.192-.192 1.608-.08a.362.362 0 0 1 .256.224.487.487 0 0 1-.032.4 5.422 5.422 0 0 1-.248.44.28.28 0 0 0-.032.04.347.347 0 0 1-.024.056c.123-.027.301-.08.536-.16.24-.08.573-.197 1-.352a.207.207 0 0 1 .176.016.216.216 0 0 1 .128.136.219.219 0 0 1 0 .184.248.248 0 0 1-.144.128c-.245.085-.469.163-.672.232a11.61 11.61 0 0 1-1.04.312 1.39 1.39 0 0 1-.248.032Zm2.543.536a.804.804 0 0 1-.224-.032.291.291 0 0 1-.2-.168.527.527 0 0 1 0-.384 5.47 5.47 0 0 1 .256-.592c.021-.043.043-.091.064-.144.021-.053.045-.104.072-.152a.882.882 0 0 0-.224.136l-.232.184a.212.212 0 0 1-.176.048.276.276 0 0 1-.168-.088.212.212 0 0 1-.048-.176.306.306 0 0 1 .088-.168 4.92 4.92 0 0 0 .232-.176 1.29 1.29 0 0 1 .256-.16c.219-.112.419-.141.6-.088.085.016.149.069.192.16.043.091.04.197-.008.32a5.543 5.543 0 0 1-.224.52 3.272 3.272 0 0 1-.088.192 6.73 6.73 0 0 1-.104.24l-.016.048a.925.925 0 0 0 .2-.048 2.08 2.08 0 0 0 .288-.12c.112-.059.24-.136.384-.232.144-.096.309-.216.496-.36a14.62 14.62 0 0 0 .744-.648c.096-.091.173-.165.232-.224l.088-.088c.064-.075.141-.099.232-.072a.218.218 0 0 1 .104.056.408.408 0 0 1 .064.08c.037.075.04.163.008.264a7.764 7.764 0 0 1-.176.472l-.096.208a3.746 3.746 0 0 1-.08.192.62.62 0 0 1-.024.088.699.699 0 0 0 .24-.088 3.258 3.258 0 0 0 .496-.344c.075-.069.141-.128.2-.176a.228.228 0 0 1 .176-.064c.064.005.12.032.168.08a.24.24 0 0 1 .056.176.22.22 0 0 1-.08.168 6.996 6.996 0 0 1-.376.32 3.6 3.6 0 0 1-.392.256 1.63 1.63 0 0 1-.392.152.878.878 0 0 1-.392-.008.322.322 0 0 1-.184-.16.453.453 0 0 1-.032-.24c.016-.091.048-.205.096-.344-.059.053-.12.104-.184.152-.059.048-.123.101-.192.16-.736.581-1.309.872-1.72.872Zm6.426-.536a.315.315 0 0 1-.104-.016.288.288 0 0 1-.216-.184.41.41 0 0 1 .024-.304c.048-.112.117-.237.208-.376.032-.048.061-.096.088-.144a2.32 2.32 0 0 0 .08-.144.285.285 0 0 0 .04-.08 2.348 2.348 0 0 0-.56-.016 3.516 3.516 0 0 0-.704.12 7.336 7.336 0 0 0-.744.232c-.262.091-.539.2-.832.328a.225.225 0 0 1-.176.008.246.246 0 0 1-.128-.128.202.202 0 0 1-.008-.184.245.245 0 0 1 .128-.136c.304-.133.589-.248.856-.344.272-.101.533-.181.784-.24.656-.165 1.192-.192 1.608-.08a.363.363 0 0 1 .256.224.487.487 0 0 1-.032.4c-.07.139-.152.285-.248.44a.224.224 0 0 0-.032.04.721.721 0 0 1-.024.056c.122-.027.301-.08.536-.16.24-.08.573-.197 1-.352a.207.207 0 0 1 .176.016.218.218 0 0 1 .128.136.227.227 0 0 1 0 .184.248.248 0 0 1-.144.128l-.672.232a11.61 11.61 0 0 1-1.04.312 1.4 1.4 0 0 1-.248.032Zm4.711 0a.315.315 0 0 1-.104-.016.288.288 0 0 1-.216-.184.41.41 0 0 1 .024-.304c.048-.112.117-.237.208-.376.032-.048.061-.096.088-.144a2.32 2.32 0 0 0 .08-.144.285.285 0 0 0 .04-.08 2.348 2.348 0 0 0-.56-.016 3.516 3.516 0 0 0-.704.12 7.336 7.336 0 0 0-.744.232c-.262.091-.539.2-.832.328a.225.225 0 0 1-.176.008.246.246 0 0 1-.128-.128.202.202 0 0 1-.008-.184.245.245 0 0 1 .128-.136c.304-.133.589-.248.856-.344.272-.101.533-.181.784-.24.656-.165 1.192-.192 1.608-.08a.363.363 0 0 1 .256.224.487.487 0 0 1-.032.4c-.07.139-.152.285-.248.44a.224.224 0 0 0-.032.04.721.721 0 0 1-.024.056c.122-.027.301-.08.536-.16.24-.08.573-.197 1-.352a.207.207 0 0 1 .176.016.218.218 0 0 1 .128.136.227.227 0 0 1 0 .184.248.248 0 0 1-.144.128l-.672.232a11.61 11.61 0 0 1-1.04.312 1.4 1.4 0 0 1-.248.032Zm3.727.08a.235.235 0 0 1-.16-.056c-.086-.069-.11-.157-.072-.264 0-.005.018-.069.056-.192l.144-.416a4.67 4.67 0 0 1 .072-.232l.056-.184-.384.144c-.144.053-.299.112-.464.176l-.496.184a108.2 108.2 0 0 1-.496.184.225.225 0 0 1-.176-.008.273.273 0 0 1-.136-.144.204.204 0 0 1 .016-.176.242.242 0 0 1 .136-.136 143.317 143.317 0 0 0 1.984-.736l.216-.08a.386.386 0 0 1 .072-.008.14.14 0 0 1 .08.008.198.198 0 0 1 .16.128.28.28 0 0 1 .032.168c0 .064-.014.157-.04.28a3.575 3.575 0 0 1-.064.232c-.022.08-.051.173-.088.28l-.016.056a.483.483 0 0 0-.016.056c.213-.117.474-.24.784-.368a.201.201 0 0 1 .176 0 .219.219 0 0 1 .128.12c.032.059.034.12.008.184a.251.251 0 0 1-.128.136 14.3 14.3 0 0 0-.904.432 12.71 12.71 0 0 0-.36.192.18.18 0 0 1-.12.04Zm3.109 0a.236.236 0 0 1-.16-.056c-.085-.069-.109-.157-.072-.264 0-.005.019-.069.056-.192l.144-.416c.027-.091.051-.168.072-.232l.056-.184-.384.144c-.144.053-.299.112-.464.176l-.496.184a108.2 108.2 0 0 1-.496.184.225.225 0 0 1-.176-.008.277.277 0 0 1-.136-.144.207.207 0 0 1 .016-.176.245.245 0 0 1 .136-.136 113.748 113.748 0 0 0 1.984-.736l.216-.08a.405.405 0 0 1 .072-.008.138.138 0 0 1 .08.008.196.196 0 0 1 .16.128.274.274 0 0 1 .032.168c0 .064-.013.157-.04.28a3.032 3.032 0 0 1-.064.232c-.021.08-.051.173-.088.28l-.016.056-.016.056c.213-.117.475-.24.784-.368a.201.201 0 0 1 .176 0 .216.216 0 0 1 .128.12c.032.059.035.12.008.184a.248.248 0 0 1-.128.136 16.193 16.193 0 0 0-1.264.624.18.18 0 0 1-.12.04Zm4.093-.08a.32.32 0 0 1-.104-.016.29.29 0 0 1-.216-.184.41.41 0 0 1 .024-.304c.048-.112.118-.237.208-.376.032-.048.062-.096.088-.144.032-.053.059-.101.08-.144a.26.26 0 0 0 .04-.08 2.346 2.346 0 0 0-.56-.016 3.528 3.528 0 0 0-.704.12 7.497 7.497 0 0 0-.744.232c-.261.091-.538.2-.832.328a.225.225 0 0 1-.176.008.254.254 0 0 1-.128-.128.205.205 0 0 1-.008-.184.251.251 0 0 1 .128-.136c.304-.133.59-.248.856-.344.272-.101.534-.181.784-.24.656-.165 1.192-.192 1.608-.08a.362.362 0 0 1 .256.224.483.483 0 0 1-.032.4 5.422 5.422 0 0 1-.248.44.372.372 0 0 0-.032.04.347.347 0 0 1-.024.056c.123-.027.302-.08.536-.16.24-.08.574-.197 1-.352a.207.207 0 0 1 .176.016.216.216 0 0 1 .128.136.219.219 0 0 1 0 .184.242.242 0 0 1-.144.128c-.245.085-.469.163-.672.232a11.215 11.215 0 0 1-1.04.312 1.38 1.38 0 0 1-.248.032Zm2.967-.16a.222.222 0 0 1-.064-.008.352.352 0 0 1-.184-.096.692.692 0 0 1-.064-.112.434.434 0 0 1 .032-.36c.07-.128.155-.261.256-.4a1.13 1.13 0 0 0 .088-.136c.027-.048.054-.093.08-.136a.15.15 0 0 0 .024-.032 1.647 1.647 0 0 0-.12.048 1.12 1.12 0 0 0-.152.096 2.14 2.14 0 0 0-.304.232 17.856 17.856 0 0 0-.496.44.243.243 0 0 1-.168.064.23.23 0 0 1-.168-.088.205.205 0 0 1-.064-.168.244.244 0 0 1 .08-.168.553.553 0 0 1 .088-.072l.08-.08c.128-.117.254-.227.376-.328.128-.107.251-.197.368-.272.123-.075.243-.128.36-.16a.614.614 0 0 1 .352-.008.367.367 0 0 1 .192.112.376.376 0 0 1 .072.128.427.427 0 0 1-.032.376 4.607 4.607 0 0 1-.304.48.374.374 0 0 1-.04.064 20.73 20.73 0 0 0 .776-.296.24.24 0 0 1 .192.016.217.217 0 0 1 .12.136.203.203 0 0 1-.008.184.246.246 0 0 1-.128.128l-.464.16a11.56 11.56 0 0 0-.496.184c-.037.011-.072.021-.104.032a.887.887 0 0 0-.104.032.31.31 0 0 1-.072.008Zm1.779.696a.918.918 0 0 1-.12-.008.843.843 0 0 1-.104-.024.294.294 0 0 1-.2-.168.527.527 0 0 1 0-.384c.054-.155.139-.352.256-.592.022-.043.043-.091.064-.144a1.64 1.64 0 0 1 .072-.152.882.882 0 0 0-.224.136l-.232.184a.212.212 0 0 1-.176.048.276.276 0 0 1-.168-.088.219.219 0 0 1-.048-.176.306.306 0 0 1 .088-.168 4.92 4.92 0 0 0 .232-.176c.08-.064.166-.117.256-.16.219-.112.419-.141.6-.088.086.016.15.069.192.16.043.091.04.197-.008.32a5.284 5.284 0 0 1-.224.52 2.727 2.727 0 0 1-.088.192 4.61 4.61 0 0 1-.104.24l-.016.048a.912.912 0 0 0 .2-.048c.086-.027.182-.067.288-.12.112-.059.24-.136.384-.232.144-.096.31-.216.496-.36a14.62 14.62 0 0 0 .744-.648c.096-.091.174-.165.232-.224l.088-.088c.064-.075.142-.099.232-.072a.214.214 0 0 1 .104.056.408.408 0 0 1 .064.08.34.34 0 0 1 .008.264c-.032.101-.09.259-.176.472l-.096.208a3.022 3.022 0 0 1-.08.192.62.62 0 0 1-.024.088.699.699 0 0 0 .24-.088 3.083 3.083 0 0 0 .496-.344 5.19 5.19 0 0 1 .2-.176.23.23 0 0 1 .176-.064c.064.005.12.032.168.08a.237.237 0 0 1 .056.176c0 .064-.026.12-.08.168a6.627 6.627 0 0 1-.376.32 3.506 3.506 0 0 1-.392.256c-.128.069-.258.12-.392.152a.878.878 0 0 1-.392-.008.325.325 0 0 1-.184-.16.463.463 0 0 1-.032-.24c.016-.091.048-.205.096-.344-.058.053-.12.104-.184.152l-.192.16c-.736.581-1.309.872-1.72.872Zm5.442-.456a.236.236 0 0 1-.16-.056c-.085-.069-.109-.157-.072-.264 0-.005.019-.069.056-.192l.144-.416c.027-.091.051-.168.072-.232l.056-.184-.384.144c-.144.053-.298.112-.464.176l-.496.184-.496.184a.225.225 0 0 1-.176-.008.277.277 0 0 1-.136-.144.207.207 0 0 1 .016-.176.245.245 0 0 1 .136-.136c.24-.085.488-.176.744-.272a94.29 94.29 0 0 0 1.24-.464l.216-.08a.405.405 0 0 1 .072-.008.137.137 0 0 1 .08.008.196.196 0 0 1 .16.128.267.267 0 0 1 .032.168c0 .064-.013.157-.04.28a3.032 3.032 0 0 1-.064.232c-.021.08-.05.173-.088.28a.483.483 0 0 1-.016.056l-.016.056c.214-.117.475-.24.784-.368a.201.201 0 0 1 .176 0 .213.213 0 0 1 .128.12c.032.059.035.12.008.184a.245.245 0 0 1-.128.136 16.193 16.193 0 0 0-1.264.624.18.18 0 0 1-.12.04Zm1.926.456a.804.804 0 0 1-.224-.032.291.291 0 0 1-.2-.168.527.527 0 0 1 0-.384c.053-.155.138-.352.256-.592.021-.043.042-.091.064-.144.021-.053.045-.104.072-.152a.865.865 0 0 0-.224.136l-.232.184a.213.213 0 0 1-.176.048.27.27 0 0 1-.168-.088.212.212 0 0 1-.048-.176.3.3 0 0 1 .088-.168c.074-.053.152-.112.232-.176a1.29 1.29 0 0 1 .256-.16c.218-.112.418-.141.6-.088.085.016.149.069.192.16.042.091.04.197-.008.32a5.828 5.828 0 0 1-.224.52 3.272 3.272 0 0 1-.088.192l-.08.184a.347.347 0 0 0-.024.056l-.016.048a.925.925 0 0 0 .2-.048 2.08 2.08 0 0 0 .288-.12c.112-.059.24-.136.384-.232.144-.096.309-.216.496-.36a14.62 14.62 0 0 0 .744-.648 12.773 12.773 0 0 0 .32-.312c.064-.075.141-.099.232-.072a.223.223 0 0 1 .104.056.449.449 0 0 1 .064.08c.037.075.04.163.008.264a7.764 7.764 0 0 1-.176.472l-.096.208a4.928 4.928 0 0 1-.08.192 1.088 1.088 0 0 1-.024.088.714.714 0 0 0 .24-.088 3.454 3.454 0 0 0 .496-.344c.074-.069.141-.128.2-.176a.228.228 0 0 1 .176-.064c.064.005.12.032.168.08a.245.245 0 0 1 .056.176.22.22 0 0 1-.08.168 6.996 6.996 0 0 1-.376.32 3.6 3.6 0 0 1-.392.256 1.63 1.63 0 0 1-.392.152.878.878 0 0 1-.392-.008.319.319 0 0 1-.184-.16.453.453 0 0 1-.032-.24c.016-.091.048-.205.096-.344-.059.053-.12.104-.184.152-.059.048-.123.101-.192.16-.736.581-1.31.872-1.72.872Zm8.572-.696a.217.217 0 0 1-.064-.008.348.348 0 0 1-.184-.096.692.692 0 0 1-.064-.112.43.43 0 0 1 .032-.36c.069-.128.155-.261.256-.4.032-.043.061-.088.088-.136.027-.048.053-.093.08-.136a.28.28 0 0 0 .024-.032 1.647 1.647 0 0 0-.12.048 1.061 1.061 0 0 0-.152.096 2.14 2.14 0 0 0-.304.232 15.062 15.062 0 0 0-.496.44.243.243 0 0 1-.168.064.23.23 0 0 1-.168-.088.205.205 0 0 1-.064-.168.24.24 0 0 1 .08-.168.553.553 0 0 1 .088-.072l.08-.08a9.46 9.46 0 0 1 .376-.328c.128-.107.251-.197.368-.272.123-.075.243-.128.36-.16a.614.614 0 0 1 .352-.008.367.367 0 0 1 .192.112.414.414 0 0 1 .072.128.43.43 0 0 1-.032.376 4.607 4.607 0 0 1-.304.48.448.448 0 0 1-.04.064 22.744 22.744 0 0 0 .776-.296.24.24 0 0 1 .192.016.217.217 0 0 1 .12.136.203.203 0 0 1-.008.184.25.25 0 0 1-.128.128l-.464.16a10.65 10.65 0 0 0-.496.184c-.037.011-.072.021-.104.032a.83.83 0 0 0-.104.032.31.31 0 0 1-.072.008Zm2.963.24a.236.236 0 0 1-.16-.056c-.085-.069-.109-.157-.072-.264 0-.005.019-.069.056-.192l.144-.416c.027-.091.051-.168.072-.232l.056-.184-.384.144c-.144.053-.298.112-.464.176l-.496.184-.496.184a.225.225 0 0 1-.176-.008.277.277 0 0 1-.136-.144.207.207 0 0 1 .016-.176.245.245 0 0 1 .136-.136c.24-.085.488-.176.744-.272a94.29 94.29 0 0 0 1.24-.464l.216-.08a.405.405 0 0 1 .072-.008.137.137 0 0 1 .08.008.196.196 0 0 1 .16.128.267.267 0 0 1 .032.168c0 .064-.013.157-.04.28a3.032 3.032 0 0 1-.064.232c-.021.08-.05.173-.088.28a.483.483 0 0 1-.016.056l-.016.056c.214-.117.475-.24.784-.368a.201.201 0 0 1 .176 0 .213.213 0 0 1 .128.12c.032.059.035.12.008.184a.245.245 0 0 1-.128.136 16.193 16.193 0 0 0-1.264.624.18.18 0 0 1-.12.04Zm4.094-.08a.315.315 0 0 1-.104-.016.288.288 0 0 1-.216-.184.41.41 0 0 1 .024-.304c.048-.112.117-.237.208-.376.032-.048.061-.096.088-.144a2.32 2.32 0 0 0 .08-.144.285.285 0 0 0 .04-.08 2.348 2.348 0 0 0-.56-.016 3.516 3.516 0 0 0-.704.12 7.336 7.336 0 0 0-.744.232c-.262.091-.539.2-.832.328a.225.225 0 0 1-.176.008.246.246 0 0 1-.128-.128.202.202 0 0 1-.008-.184.245.245 0 0 1 .128-.136c.304-.133.589-.248.856-.344.272-.101.533-.181.784-.24.656-.165 1.192-.192 1.608-.08a.363.363 0 0 1 .256.224.487.487 0 0 1-.032.4c-.07.139-.152.285-.248.44a.224.224 0 0 0-.032.04.721.721 0 0 1-.024.056c.122-.027.301-.08.536-.16.24-.08.573-.197 1-.352a.207.207 0 0 1 .176.016.218.218 0 0 1 .128.136.227.227 0 0 1 0 .184.248.248 0 0 1-.144.128l-.672.232a11.61 11.61 0 0 1-1.04.312 1.4 1.4 0 0 1-.248.032Zm6.857-.16a.217.217 0 0 1-.064-.008.348.348 0 0 1-.184-.096.692.692 0 0 1-.064-.112.43.43 0 0 1 .032-.36c.069-.128.155-.261.256-.4.032-.043.061-.088.088-.136.027-.048.053-.093.08-.136a.28.28 0 0 0 .024-.032 1.647 1.647 0 0 0-.12.048 1.061 1.061 0 0 0-.152.096 2.14 2.14 0 0 0-.304.232 15.062 15.062 0 0 0-.496.44.243.243 0 0 1-.168.064.23.23 0 0 1-.168-.088.205.205 0 0 1-.064-.168.24.24 0 0 1 .08-.168.553.553 0 0 1 .088-.072l.08-.08a9.46 9.46 0 0 1 .376-.328c.128-.107.251-.197.368-.272.123-.075.243-.128.36-.16a.614.614 0 0 1 .352-.008.367.367 0 0 1 .192.112.414.414 0 0 1 .072.128.43.43 0 0 1-.032.376 4.607 4.607 0 0 1-.304.48.448.448 0 0 1-.04.064 22.744 22.744 0 0 0 .776-.296.24.24 0 0 1 .192.016.217.217 0 0 1 .12.136.203.203 0 0 1-.008.184.25.25 0 0 1-.128.128l-.464.16a10.65 10.65 0 0 0-.496.184c-.037.011-.072.021-.104.032a.83.83 0 0 0-.104.032.31.31 0 0 1-.072.008Zm3.947.16a.32.32 0 0 1-.104-.016.29.29 0 0 1-.216-.184.41.41 0 0 1 .024-.304c.048-.112.118-.237.208-.376.032-.048.062-.096.088-.144.032-.053.059-.101.08-.144a.26.26 0 0 0 .04-.08 2.346 2.346 0 0 0-.56-.016 3.528 3.528 0 0 0-.704.12 7.497 7.497 0 0 0-.744.232c-.261.091-.538.2-.832.328a.225.225 0 0 1-.176.008.254.254 0 0 1-.128-.128.205.205 0 0 1-.008-.184.251.251 0 0 1 .128-.136c.304-.133.59-.248.856-.344.272-.101.534-.181.784-.24.656-.165 1.192-.192 1.608-.08a.362.362 0 0 1 .256.224.483.483 0 0 1-.032.4 5.422 5.422 0 0 1-.248.44.372.372 0 0 0-.032.04.347.347 0 0 1-.024.056c.123-.027.302-.08.536-.16.24-.08.574-.197 1-.352a.207.207 0 0 1 .176.016.216.216 0 0 1 .128.136.219.219 0 0 1 0 .184.242.242 0 0 1-.144.128c-.245.085-.469.163-.672.232a11.215 11.215 0 0 1-1.04.312 1.38 1.38 0 0 1-.248.032Zm4.711 0a.32.32 0 0 1-.104-.016.29.29 0 0 1-.216-.184.41.41 0 0 1 .024-.304c.048-.112.118-.237.208-.376.032-.048.062-.096.088-.144.032-.053.059-.101.08-.144a.26.26 0 0 0 .04-.08 2.346 2.346 0 0 0-.56-.016 3.528 3.528 0 0 0-.704.12 7.497 7.497 0 0 0-.744.232c-.261.091-.538.2-.832.328a.225.225 0 0 1-.176.008.254.254 0 0 1-.128-.128.205.205 0 0 1-.008-.184.251.251 0 0 1 .128-.136c.304-.133.59-.248.856-.344.272-.101.534-.181.784-.24.656-.165 1.192-.192 1.608-.08a.362.362 0 0 1 .256.224.483.483 0 0 1-.032.4 5.422 5.422 0 0 1-.248.44.372.372 0 0 0-.032.04.347.347 0 0 1-.024.056c.123-.027.302-.08.536-.16.24-.08.574-.197 1-.352a.207.207 0 0 1 .176.016.216.216 0 0 1 .128.136.219.219 0 0 1 0 .184.242.242 0 0 1-.144.128c-.245.085-.469.163-.672.232a11.215 11.215 0 0 1-1.04.312 1.38 1.38 0 0 1-.248.032Z" fill="#9CA7B7"/><rect x="160.5" y="43.5" width="159" height="195" rx="3.5" stroke="#C2CAD6"/></svg>