<svg width="480" height="267" viewBox="0 0 480 267" fill="none" xmlns="http://www.w3.org/2000/svg">
<rect width="480" height="267" fill="#E5E5E5"/>
<rect x="0.5" y="0.5" width="479" height="266" rx="7.5" fill="white" stroke="#C2CAD6"/>
<rect x="115" y="5" width="240" height="14" rx="4" fill="#EAEDF0"/>
<rect width="478" height="1" transform="translate(1 22)" fill="#C2CAD6"/>
<circle cx="11.2305" cy="12" r="3" fill="#EAEDF0"/>
<circle cx="21.2305" cy="12" r="3" fill="#EAEDF0"/>
<circle cx="31.2305" cy="12" r="3" fill="#EAEDF0"/>
<g clip-path="url(#clip0_1138_107213)">
<path d="M229.5 69.5C229.5 69.8945 229.604 70.289 229.805 70.6287L233.447 76.9355C233.82 77.579 234.388 78.1055 235.094 78.341C235.742 78.5628 236.448 78.5522 237.09 78.311C237.731 78.0698 238.269 77.613 238.611 77.0187L239.49 75.4955L236.021 69.5L239.684 63.1513L240.563 61.6287C240.822 61.1827 241.174 60.7977 241.595 60.5H235.946C234.956 60.5 234.041 61.0265 233.55 61.8845L229.805 68.372C229.604 68.7142 229.499 69.1036 229.5 69.5Z" fill="#6363F1"/>
<path d="M250.269 69.4999C250.269 69.1054 250.166 68.7102 249.965 68.3712L246.275 61.9812C245.931 61.3893 245.393 60.9344 244.752 60.6934C244.111 60.4525 243.406 60.4403 242.757 60.6589C242.052 60.8944 241.484 61.4202 241.11 62.0644L240.279 63.4969L243.748 69.4999L240.086 75.8479L239.206 77.3712C238.944 77.8212 238.59 78.2022 238.175 78.4999H243.824C244.814 78.4999 245.728 77.9734 246.219 77.1154L249.965 70.6279C250.166 70.2889 250.269 69.8944 250.269 69.4999Z" fill="#6363F1"/>
</g>
<path d="M206.939 101.728C206.843 101.728 206.752 101.724 206.666 101.715C206.588 101.715 206.527 101.711 206.484 101.702C206.241 101.633 206.024 101.52 205.834 101.364C205.643 101.217 205.5 101.035 205.405 100.818C205.344 100.697 205.305 100.588 205.288 100.493C205.27 100.389 205.262 100.285 205.262 100.181C205.262 100.042 205.275 99.908 205.301 99.778C205.223 99.726 205.14 99.6697 205.054 99.609C204.967 99.5397 204.902 99.4747 204.859 99.414C204.651 99.1367 204.547 98.842 204.547 98.53C204.547 98.322 204.594 98.1227 204.69 97.932C204.776 97.7413 204.898 97.5767 205.054 97.438C205.097 97.3947 205.179 97.3123 205.301 97.191C205.413 97.0697 205.517 96.9483 205.613 96.827L205.873 96.541C205.994 96.411 206.12 96.2767 206.25 96.138C206.38 95.9993 206.501 95.8737 206.614 95.761C206.752 95.6397 206.874 95.5357 206.978 95.449C207.082 95.3623 207.173 95.293 207.251 95.241C207.701 94.9637 208.169 94.877 208.655 94.981C209.157 95.111 209.491 95.3927 209.656 95.826L209.643 95.813C209.677 95.891 209.703 95.969 209.721 96.047C209.747 96.1163 209.764 96.19 209.773 96.268C209.894 96.138 210.002 96.0167 210.098 95.904C210.193 95.7827 210.28 95.6743 210.358 95.579L210.54 95.371C210.557 95.3537 210.57 95.3363 210.579 95.319C210.596 95.293 210.605 95.28 210.605 95.28C210.804 95.046 211.038 94.8813 211.307 94.786C211.584 94.682 211.861 94.6647 212.139 94.734C212.329 94.786 212.503 94.8813 212.659 95.02C212.823 95.1587 212.958 95.319 213.062 95.501C213.183 95.7783 213.235 96.0167 213.218 96.216C213.209 96.4067 213.196 96.5367 213.179 96.606C213.17 96.6407 213.157 96.6797 213.14 96.723C213.131 96.7663 213.122 96.8053 213.114 96.84L213.036 97.087L213.023 97.126C213.196 97.1347 213.369 97.1823 213.543 97.269C213.716 97.347 213.859 97.4553 213.972 97.594C214.084 97.7327 214.167 97.8843 214.219 98.049C214.279 98.2137 214.31 98.374 214.31 98.53C214.31 98.9633 214.132 99.3317 213.777 99.635L213.712 99.7C213.53 99.856 213.335 100.012 213.127 100.168C212.927 100.324 212.715 100.471 212.49 100.61C211.978 100.913 211.476 101.065 210.982 101.065C210.774 101.065 210.566 101.035 210.358 100.974C210.202 100.939 210.054 100.879 209.916 100.792C209.786 100.705 209.673 100.606 209.578 100.493C209.474 100.58 209.374 100.662 209.279 100.74C209.183 100.809 209.075 100.883 208.954 100.961H208.967C208.767 101.1 208.577 101.217 208.395 101.312C208.213 101.407 208.039 101.49 207.875 101.559C207.736 101.62 207.58 101.663 207.407 101.689C207.242 101.715 207.086 101.728 206.939 101.728ZM215.873 100.883C215.552 100.883 215.279 100.788 215.054 100.597C214.846 100.432 214.703 100.224 214.625 99.973C214.547 99.713 214.542 99.4617 214.612 99.219C214.612 99.219 214.616 99.2103 214.625 99.193C214.633 99.167 214.642 99.1367 214.651 99.102C214.174 99.388 213.741 99.6047 213.351 99.752C213.021 99.8733 212.692 99.8603 212.363 99.713C212.033 99.557 211.808 99.3143 211.687 98.985C211.557 98.647 211.57 98.3133 211.726 97.984C211.882 97.6547 212.124 97.4293 212.454 97.308C212.601 97.256 212.848 97.1303 213.195 96.931C213.55 96.7317 214.031 96.3893 214.638 95.904C215.002 95.6093 215.301 95.3537 215.535 95.137C215.777 94.9117 215.899 94.799 215.899 94.799C216.254 94.461 216.67 94.3527 217.147 94.474C217.502 94.5693 217.771 94.7773 217.953 95.098C218.091 95.3407 218.152 95.5877 218.135 95.839C218.117 96.0903 218.07 96.3807 217.992 96.71C217.983 96.7967 217.966 96.8833 217.94 96.97C217.914 97.048 217.888 97.1347 217.862 97.23C218.139 97.2127 218.395 97.2733 218.629 97.412C218.871 97.5507 219.049 97.75 219.162 98.01C219.309 98.3307 219.318 98.66 219.188 98.998C219.058 99.3273 218.828 99.5657 218.499 99.713C218.126 99.8777 217.788 100.038 217.485 100.194C217.19 100.35 216.952 100.476 216.77 100.571C216.596 100.666 216.505 100.714 216.497 100.714C216.289 100.827 216.081 100.883 215.873 100.883ZM220.925 100.883C220.605 100.883 220.332 100.788 220.106 100.597C219.898 100.432 219.755 100.224 219.677 99.973C219.599 99.713 219.595 99.4617 219.664 99.219C219.664 99.219 219.669 99.2103 219.677 99.193C219.686 99.167 219.695 99.1367 219.703 99.102C219.227 99.388 218.793 99.6047 218.403 99.752C218.074 99.8733 217.745 99.8603 217.415 99.713C217.086 99.557 216.861 99.3143 216.739 98.985C216.609 98.647 216.622 98.3133 216.778 97.984C216.934 97.6547 217.177 97.4293 217.506 97.308C217.654 97.256 217.901 97.1303 218.247 96.931C218.603 96.7317 219.084 96.3893 219.69 95.904C220.054 95.6093 220.353 95.3537 220.587 95.137C220.83 94.9117 220.951 94.799 220.951 94.799C221.307 94.461 221.723 94.3527 222.199 94.474C222.555 94.5693 222.823 94.7773 223.005 95.098C223.144 95.3407 223.205 95.5877 223.187 95.839C223.17 96.0903 223.122 96.3807 223.044 96.71C223.036 96.7967 223.018 96.8833 222.992 96.97C222.966 97.048 222.94 97.1347 222.914 97.23C223.192 97.2127 223.447 97.2733 223.681 97.412C223.924 97.5507 224.102 97.75 224.214 98.01C224.362 98.3307 224.37 98.66 224.24 98.998C224.11 99.3273 223.881 99.5657 223.551 99.713C223.179 99.8777 222.841 100.038 222.537 100.194C222.243 100.35 222.004 100.476 221.822 100.571C221.649 100.666 221.558 100.714 221.549 100.714C221.341 100.827 221.133 100.883 220.925 100.883ZM225.978 100.883C225.657 100.883 225.384 100.788 225.159 100.597C224.951 100.432 224.808 100.224 224.73 99.973C224.652 99.713 224.648 99.4617 224.717 99.219C224.717 99.219 224.721 99.2103 224.73 99.193C224.739 99.167 224.747 99.1367 224.756 99.102C224.279 99.388 223.846 99.6047 223.456 99.752C223.127 99.8733 222.797 99.8603 222.468 99.713C222.139 99.557 221.913 99.3143 221.792 98.985C221.662 98.647 221.675 98.3133 221.831 97.984C221.987 97.6547 222.23 97.4293 222.559 97.308C222.706 97.256 222.953 97.1303 223.3 96.931C223.655 96.7317 224.136 96.3893 224.743 95.904C225.107 95.6093 225.406 95.3537 225.64 95.137C225.883 94.9117 226.004 94.799 226.004 94.799C226.359 94.461 226.775 94.3527 227.252 94.474C227.607 94.5693 227.876 94.7773 228.058 95.098C228.197 95.3407 228.257 95.5877 228.24 95.839C228.223 96.0903 228.175 96.3807 228.097 96.71C228.088 96.7967 228.071 96.8833 228.045 96.97C228.019 97.048 227.993 97.1347 227.967 97.23C228.244 97.2127 228.5 97.2733 228.734 97.412C228.977 97.5507 229.154 97.75 229.267 98.01C229.414 98.3307 229.423 98.66 229.293 98.998C229.163 99.3273 228.933 99.5657 228.604 99.713C228.231 99.8777 227.893 100.038 227.59 100.194C227.295 100.35 227.057 100.476 226.875 100.571C226.702 100.666 226.611 100.714 226.602 100.714C226.394 100.827 226.186 100.883 225.978 100.883ZM229.016 101.728C228.92 101.728 228.829 101.724 228.743 101.715C228.665 101.715 228.604 101.711 228.561 101.702C228.318 101.633 228.101 101.52 227.911 101.364C227.72 101.217 227.577 101.035 227.482 100.818C227.421 100.697 227.382 100.588 227.365 100.493C227.347 100.389 227.339 100.285 227.339 100.181C227.339 100.042 227.352 99.908 227.378 99.778C227.3 99.726 227.217 99.6697 227.131 99.609C227.044 99.5397 226.979 99.4747 226.936 99.414C226.728 99.1367 226.624 98.842 226.624 98.53C226.624 98.322 226.671 98.1227 226.767 97.932C226.853 97.7413 226.975 97.5767 227.131 97.438C227.174 97.3947 227.256 97.3123 227.378 97.191C227.49 97.0697 227.594 96.9483 227.69 96.827L227.95 96.541C228.071 96.411 228.197 96.2767 228.327 96.138C228.457 95.9993 228.578 95.8737 228.691 95.761C228.829 95.6397 228.951 95.5357 229.055 95.449C229.159 95.3623 229.25 95.293 229.328 95.241C229.778 94.9637 230.246 94.877 230.732 94.981C231.234 95.111 231.568 95.3927 231.733 95.826L231.72 95.813C231.754 95.891 231.78 95.969 231.798 96.047C231.824 96.1163 231.841 96.19 231.85 96.268C231.971 96.138 232.079 96.0167 232.175 95.904C232.27 95.7827 232.357 95.6743 232.435 95.579L232.617 95.371C232.634 95.3537 232.647 95.3363 232.656 95.319C232.673 95.293 232.682 95.28 232.682 95.28C232.881 95.046 233.115 94.8813 233.384 94.786C233.661 94.682 233.938 94.6647 234.216 94.734C234.406 94.786 234.58 94.8813 234.736 95.02C234.9 95.1587 235.035 95.319 235.139 95.501C235.26 95.7783 235.312 96.0167 235.295 96.216C235.286 96.4067 235.273 96.5367 235.256 96.606C235.247 96.6407 235.234 96.6797 235.217 96.723C235.208 96.7663 235.199 96.8053 235.191 96.84L235.113 97.087L235.1 97.126C235.273 97.1347 235.446 97.1823 235.62 97.269C235.793 97.347 235.936 97.4553 236.049 97.594C236.161 97.7327 236.244 97.8843 236.296 98.049C236.356 98.2137 236.387 98.374 236.387 98.53C236.387 98.9633 236.209 99.3317 235.854 99.635L235.789 99.7C235.607 99.856 235.412 100.012 235.204 100.168C235.004 100.324 234.792 100.471 234.567 100.61C234.055 100.913 233.553 101.065 233.059 101.065C232.851 101.065 232.643 101.035 232.435 100.974C232.279 100.939 232.131 100.879 231.993 100.792C231.863 100.705 231.75 100.606 231.655 100.493C231.551 100.58 231.451 100.662 231.356 100.74C231.26 100.809 231.152 100.883 231.031 100.961H231.044C230.844 101.1 230.654 101.217 230.472 101.312C230.29 101.407 230.116 101.49 229.952 101.559C229.813 101.62 229.657 101.663 229.484 101.689C229.319 101.715 229.163 101.728 229.016 101.728ZM235.935 101.728C235.839 101.728 235.748 101.724 235.662 101.715C235.584 101.715 235.523 101.711 235.48 101.702C235.237 101.633 235.02 101.52 234.83 101.364C234.639 101.217 234.496 101.035 234.401 100.818C234.34 100.697 234.301 100.588 234.284 100.493C234.266 100.389 234.258 100.285 234.258 100.181C234.258 100.042 234.271 99.908 234.297 99.778C234.219 99.726 234.136 99.6697 234.05 99.609C233.963 99.5397 233.898 99.4747 233.855 99.414C233.647 99.1367 233.543 98.842 233.543 98.53C233.543 98.322 233.59 98.1227 233.686 97.932C233.772 97.7413 233.894 97.5767 234.05 97.438C234.093 97.3947 234.175 97.3123 234.297 97.191C234.409 97.0697 234.513 96.9483 234.609 96.827L234.869 96.541C234.99 96.411 235.116 96.2767 235.246 96.138C235.376 95.9993 235.497 95.8737 235.61 95.761C235.748 95.6397 235.87 95.5357 235.974 95.449C236.078 95.3623 236.169 95.293 236.247 95.241C236.697 94.9637 237.165 94.877 237.651 94.981C238.153 95.111 238.487 95.3927 238.652 95.826L238.639 95.813C238.673 95.891 238.699 95.969 238.717 96.047C238.743 96.1163 238.76 96.19 238.769 96.268C238.89 96.138 238.998 96.0167 239.094 95.904C239.189 95.7827 239.276 95.6743 239.354 95.579L239.536 95.371C239.553 95.3537 239.566 95.3363 239.575 95.319C239.592 95.293 239.601 95.28 239.601 95.28C239.8 95.046 240.034 94.8813 240.303 94.786C240.58 94.682 240.857 94.6647 241.135 94.734C241.325 94.786 241.499 94.8813 241.655 95.02C241.819 95.1587 241.954 95.319 242.058 95.501C242.179 95.7783 242.231 96.0167 242.214 96.216C242.205 96.4067 242.192 96.5367 242.175 96.606C242.166 96.6407 242.153 96.6797 242.136 96.723C242.127 96.7663 242.118 96.8053 242.11 96.84L242.032 97.087L242.019 97.126C242.192 97.1347 242.365 97.1823 242.539 97.269C242.712 97.347 242.855 97.4553 242.968 97.594C243.08 97.7327 243.163 97.8843 243.215 98.049C243.275 98.2137 243.306 98.374 243.306 98.53C243.306 98.9633 243.128 99.3317 242.773 99.635L242.708 99.7C242.526 99.856 242.331 100.012 242.123 100.168C241.923 100.324 241.711 100.471 241.486 100.61C240.974 100.913 240.472 101.065 239.978 101.065C239.77 101.065 239.562 101.035 239.354 100.974C239.198 100.939 239.05 100.879 238.912 100.792C238.782 100.705 238.669 100.606 238.574 100.493C238.47 100.58 238.37 100.662 238.275 100.74C238.179 100.809 238.071 100.883 237.95 100.961H237.963C237.763 101.1 237.573 101.217 237.391 101.312C237.209 101.407 237.035 101.49 236.871 101.559C236.732 101.62 236.576 101.663 236.403 101.689C236.238 101.715 236.082 101.728 235.935 101.728ZM246.442 100.753C246.32 100.753 246.186 100.731 246.039 100.688C245.597 100.584 245.293 100.315 245.129 99.882C244.99 99.5527 244.994 99.18 245.142 98.764C245.194 98.6167 245.272 98.4433 245.376 98.244C245.393 98.2093 245.41 98.1703 245.428 98.127C245.454 98.0837 245.48 98.0447 245.506 98.01C245.315 98.114 245.12 98.2267 244.921 98.348C244.73 98.4607 244.535 98.569 244.336 98.673C243.989 98.8897 243.651 99.089 243.322 99.271C242.992 99.4443 242.689 99.5917 242.412 99.713C242.091 99.8603 241.762 99.869 241.424 99.739C241.086 99.609 240.847 99.3793 240.709 99.05C240.561 98.7207 240.553 98.3913 240.683 98.062C240.813 97.724 241.042 97.4857 241.372 97.347C241.571 97.2517 241.818 97.126 242.113 96.97C242.407 96.8053 242.715 96.6277 243.036 96.437C243.417 96.2117 243.82 95.982 244.245 95.748C244.669 95.5053 245.081 95.2973 245.48 95.124C245.939 94.8987 246.368 94.747 246.767 94.669C247.044 94.5997 247.304 94.5607 247.547 94.552C247.789 94.5433 248.019 94.5693 248.236 94.63C248.712 94.7687 249.037 95.0633 249.211 95.514C249.341 95.8347 249.358 96.1553 249.263 96.476C249.176 96.788 249.059 97.0827 248.912 97.36C248.938 97.3513 248.964 97.3427 248.99 97.334C249.024 97.3253 249.055 97.3167 249.081 97.308C249.41 97.1867 249.735 97.204 250.056 97.36C250.385 97.5073 250.61 97.75 250.732 98.088C250.853 98.426 250.84 98.7597 250.693 99.089C250.545 99.4097 250.298 99.6307 249.952 99.752C249.553 99.8907 249.18 100.021 248.834 100.142C248.496 100.263 248.197 100.367 247.937 100.454C247.581 100.558 247.287 100.636 247.053 100.688C246.827 100.731 246.624 100.753 246.442 100.753ZM260.419 100.753C260.298 100.753 260.163 100.731 260.016 100.688C259.574 100.584 259.271 100.315 259.106 99.882C258.967 99.5527 258.972 99.18 259.119 98.764C259.171 98.6167 259.249 98.4433 259.353 98.244C259.37 98.2093 259.388 98.1703 259.405 98.127C259.431 98.0837 259.457 98.0447 259.483 98.01C259.292 98.114 259.097 98.2267 258.898 98.348C258.707 98.4607 258.512 98.569 258.313 98.673C257.966 98.8897 257.628 99.089 257.299 99.271C256.97 99.4443 256.666 99.5917 256.389 99.713C256.068 99.8603 255.739 99.869 255.401 99.739C255.063 99.609 254.825 99.3793 254.686 99.05C254.539 98.7207 254.53 98.3913 254.66 98.062C254.79 97.724 255.02 97.4857 255.349 97.347C255.548 97.2517 255.795 97.126 256.09 96.97C256.385 96.8053 256.692 96.6277 257.013 96.437C257.394 96.2117 257.797 95.982 258.222 95.748C258.647 95.5053 259.058 95.2973 259.457 95.124C259.916 94.8987 260.345 94.747 260.744 94.669C261.021 94.5997 261.281 94.5607 261.524 94.552C261.767 94.5433 261.996 94.5693 262.213 94.63C262.69 94.7687 263.015 95.0633 263.188 95.514C263.318 95.8347 263.335 96.1553 263.24 96.476C263.153 96.788 263.036 97.0827 262.889 97.36C262.915 97.3513 262.941 97.3427 262.967 97.334C263.002 97.3253 263.032 97.3167 263.058 97.308C263.387 97.1867 263.712 97.204 264.033 97.36C264.362 97.5073 264.588 97.75 264.709 98.088C264.83 98.426 264.817 98.7597 264.67 99.089C264.523 99.4097 264.276 99.6307 263.929 99.752C263.53 99.8907 263.158 100.021 262.811 100.142C262.473 100.263 262.174 100.367 261.914 100.454C261.559 100.558 261.264 100.636 261.03 100.688C260.805 100.731 260.601 100.753 260.419 100.753ZM265.253 100.493C265.149 100.493 265.032 100.48 264.902 100.454C264.504 100.35 264.2 100.112 263.992 99.739C263.75 99.8343 263.498 99.856 263.238 99.804C262.97 99.7433 262.74 99.6047 262.549 99.388C262.315 99.1193 262.211 98.8073 262.237 98.452C262.255 98.088 262.398 97.789 262.666 97.555C262.762 97.477 262.866 97.386 262.978 97.282C263.082 97.1693 263.195 97.0567 263.316 96.944C263.524 96.736 263.741 96.5237 263.966 96.307C264.2 96.0903 264.426 95.8997 264.642 95.735C264.79 95.6223 264.928 95.5227 265.058 95.436C265.197 95.3493 265.327 95.2757 265.448 95.215C265.899 94.9983 266.341 94.9377 266.774 95.033C267.268 95.1717 267.611 95.488 267.801 95.982C267.923 96.3287 267.918 96.6927 267.788 97.074C267.771 97.1173 267.754 97.1607 267.736 97.204C267.719 97.2473 267.697 97.295 267.671 97.347C267.983 97.4943 268.209 97.737 268.347 98.075C268.469 98.4217 268.456 98.7597 268.308 99.089C268.161 99.4097 267.914 99.6307 267.567 99.752C267.299 99.856 267.052 99.9513 266.826 100.038C266.601 100.116 266.41 100.181 266.254 100.233C266.168 100.268 266.085 100.298 266.007 100.324C265.938 100.35 265.882 100.372 265.838 100.389C265.752 100.406 265.661 100.428 265.565 100.454C265.47 100.48 265.366 100.493 265.253 100.493ZM268.066 101.728C267.971 101.728 267.88 101.724 267.793 101.715C267.715 101.715 267.655 101.711 267.611 101.702C267.369 101.633 267.152 101.52 266.961 101.364C266.771 101.217 266.628 101.035 266.532 100.818C266.472 100.697 266.433 100.588 266.415 100.493C266.398 100.389 266.389 100.285 266.389 100.181C266.389 100.042 266.402 99.908 266.428 99.778C266.35 99.726 266.268 99.6697 266.181 99.609C266.095 99.5397 266.03 99.4747 265.986 99.414C265.778 99.1367 265.674 98.842 265.674 98.53C265.674 98.322 265.722 98.1227 265.817 97.932C265.904 97.7413 266.025 97.5767 266.181 97.438C266.225 97.3947 266.307 97.3123 266.428 97.191C266.541 97.0697 266.645 96.9483 266.74 96.827L267 96.541C267.122 96.411 267.247 96.2767 267.377 96.138C267.507 95.9993 267.629 95.8737 267.741 95.761C267.88 95.6397 268.001 95.5357 268.105 95.449C268.209 95.3623 268.3 95.293 268.378 95.241C268.829 94.9637 269.297 94.877 269.782 94.981C270.285 95.111 270.619 95.3927 270.783 95.826L270.77 95.813C270.805 95.891 270.831 95.969 270.848 96.047C270.874 96.1163 270.892 96.19 270.9 96.268C271.022 96.138 271.13 96.0167 271.225 95.904C271.321 95.7827 271.407 95.6743 271.485 95.579L271.667 95.371C271.685 95.3537 271.698 95.3363 271.706 95.319C271.724 95.293 271.732 95.28 271.732 95.28C271.932 95.046 272.166 94.8813 272.434 94.786C272.712 94.682 272.989 94.6647 273.266 94.734C273.457 94.786 273.63 94.8813 273.786 95.02C273.951 95.1587 274.085 95.319 274.189 95.501C274.311 95.7783 274.363 96.0167 274.345 96.216C274.337 96.4067 274.324 96.5367 274.306 96.606C274.298 96.6407 274.285 96.6797 274.267 96.723C274.259 96.7663 274.25 96.8053 274.241 96.84L274.163 97.087L274.15 97.126C274.324 97.1347 274.497 97.1823 274.67 97.269C274.844 97.347 274.987 97.4553 275.099 97.594C275.212 97.7327 275.294 97.8843 275.346 98.049C275.407 98.2137 275.437 98.374 275.437 98.53C275.437 98.9633 275.26 99.3317 274.904 99.635L274.839 99.7C274.657 99.856 274.462 100.012 274.254 100.168C274.055 100.324 273.843 100.471 273.617 100.61C273.106 100.913 272.603 101.065 272.109 101.065C271.901 101.065 271.693 101.035 271.485 100.974C271.329 100.939 271.182 100.879 271.043 100.792C270.913 100.705 270.801 100.606 270.705 100.493C270.601 100.58 270.502 100.662 270.406 100.74C270.311 100.809 270.203 100.883 270.081 100.961H270.094C269.895 101.1 269.704 101.217 269.522 101.312C269.34 101.407 269.167 101.49 269.002 101.559C268.864 101.62 268.708 101.663 268.534 101.689C268.37 101.715 268.214 101.728 268.066 101.728Z" fill="#21324B"/>
<rect x="176.5" y="130.5" width="127" height="15" rx="3.5" stroke="#C2CAD6"/>
<rect x="176" y="154" width="128" height="16" rx="4" fill="#6363E9"/>
<path d="M198.344 186.24C198.317 186.24 198.291 186.237 198.264 186.232C198.237 186.232 198.208 186.229 198.176 186.224C198.112 186.203 198.059 186.157 198.016 186.088C197.995 186.045 197.984 185.987 197.984 185.912C197.984 185.837 198.008 185.715 198.056 185.544C198.104 185.373 198.181 185.12 198.288 184.784C198.171 184.827 198.035 184.877 197.88 184.936C197.731 184.995 197.576 185.053 197.416 185.112C197.357 185.133 197.299 185.131 197.24 185.104C197.176 185.072 197.131 185.024 197.104 184.96C197.083 184.901 197.088 184.843 197.12 184.784C197.147 184.72 197.192 184.675 197.256 184.648C197.485 184.563 197.699 184.483 197.896 184.408C198.099 184.333 198.264 184.272 198.392 184.224C198.52 184.176 198.584 184.152 198.584 184.152C198.637 184.131 198.688 184.128 198.736 184.144C198.805 184.16 198.856 184.2 198.888 184.264C198.915 184.312 198.923 184.355 198.912 184.392C198.907 184.429 198.899 184.469 198.888 184.512C198.877 184.533 198.869 184.557 198.864 184.584C198.859 184.605 198.851 184.632 198.84 184.664C198.803 184.755 198.763 184.867 198.72 185C198.683 185.128 198.643 185.259 198.6 185.392C198.573 185.467 198.552 185.531 198.536 185.584C198.52 185.637 198.507 185.685 198.496 185.728C198.597 185.707 198.744 185.645 198.936 185.544C199.101 185.453 199.277 185.349 199.464 185.232C199.656 185.109 199.851 184.981 200.048 184.848C200.091 184.821 200.133 184.795 200.176 184.768C200.224 184.741 200.267 184.712 200.304 184.68C200.363 184.643 200.424 184.632 200.488 184.648C200.557 184.659 200.611 184.693 200.648 184.752C200.685 184.805 200.696 184.864 200.68 184.928C200.669 184.992 200.635 185.043 200.576 185.08C200.533 185.112 200.488 185.144 200.44 185.176C200.397 185.203 200.352 185.232 200.304 185.264C200.101 185.397 199.904 185.525 199.712 185.648C199.52 185.771 199.339 185.877 199.168 185.968C198.821 186.149 198.547 186.24 198.344 186.24ZM202.277 185.768C202.213 185.768 202.16 185.749 202.117 185.712C202.032 185.643 202.008 185.555 202.045 185.448C202.045 185.443 202.064 185.379 202.101 185.256C202.144 185.133 202.192 184.995 202.245 184.84C202.272 184.749 202.296 184.672 202.317 184.608C202.338 184.539 202.357 184.477 202.373 184.424C202.229 184.477 202.053 184.544 201.845 184.624C201.637 184.699 201.418 184.779 201.189 184.864C200.965 184.949 200.746 185.032 200.533 185.112C200.474 185.133 200.416 185.131 200.357 185.104C200.293 185.072 200.248 185.024 200.221 184.96C200.2 184.901 200.205 184.843 200.237 184.784C200.264 184.72 200.309 184.675 200.373 184.648C200.613 184.563 200.861 184.475 201.117 184.384C201.373 184.288 201.61 184.2 201.829 184.12C202.048 184.035 202.226 183.965 202.365 183.912C202.504 183.859 202.573 183.832 202.573 183.832C202.6 183.827 202.626 183.824 202.653 183.824C202.68 183.819 202.704 183.821 202.725 183.832C202.8 183.843 202.853 183.885 202.885 183.96C202.912 184.003 202.922 184.059 202.917 184.128C202.917 184.192 202.904 184.285 202.877 184.408C202.861 184.477 202.84 184.555 202.813 184.64C202.792 184.72 202.762 184.813 202.725 184.92C202.72 184.941 202.714 184.96 202.709 184.976C202.704 184.992 202.698 185.011 202.693 185.032C202.906 184.915 203.168 184.792 203.477 184.664C203.536 184.637 203.594 184.637 203.653 184.664C203.717 184.685 203.76 184.725 203.781 184.784C203.813 184.843 203.816 184.904 203.789 184.968C203.762 185.032 203.72 185.077 203.661 185.104C203.421 185.211 203.205 185.312 203.013 185.408C202.826 185.504 202.677 185.581 202.565 185.64C202.453 185.699 202.397 185.728 202.397 185.728C202.365 185.755 202.325 185.768 202.277 185.768ZM204.571 186.24C204.544 186.24 204.517 186.237 204.491 186.232C204.464 186.232 204.435 186.229 204.403 186.224C204.339 186.203 204.285 186.157 204.243 186.088C204.221 186.045 204.211 185.987 204.211 185.912C204.211 185.837 204.235 185.715 204.283 185.544C204.331 185.373 204.408 185.12 204.515 184.784C204.397 184.827 204.261 184.877 204.107 184.936C203.957 184.995 203.803 185.053 203.643 185.112C203.584 185.133 203.525 185.131 203.466 185.104C203.402 185.072 203.357 185.024 203.33 184.96C203.309 184.901 203.314 184.843 203.346 184.784C203.373 184.72 203.418 184.675 203.482 184.648C203.712 184.563 203.925 184.483 204.123 184.408C204.325 184.333 204.491 184.272 204.618 184.224C204.747 184.176 204.811 184.152 204.811 184.152C204.864 184.131 204.915 184.128 204.963 184.144C205.032 184.16 205.083 184.2 205.115 184.264C205.141 184.312 205.149 184.355 205.139 184.392C205.133 184.429 205.125 184.469 205.115 184.512C205.104 184.533 205.096 184.557 205.091 184.584C205.085 184.605 205.077 184.632 205.067 184.664C205.029 184.755 204.989 184.867 204.947 185C204.909 185.128 204.869 185.259 204.827 185.392C204.8 185.467 204.779 185.531 204.763 185.584C204.747 185.637 204.733 185.685 204.723 185.728C204.824 185.707 204.971 185.645 205.163 185.544C205.328 185.453 205.504 185.349 205.691 185.232C205.883 185.109 206.077 184.981 206.275 184.848C206.317 184.821 206.36 184.795 206.403 184.768C206.451 184.741 206.493 184.712 206.531 184.68C206.589 184.643 206.651 184.632 206.715 184.648C206.784 184.659 206.837 184.693 206.875 184.752C206.912 184.805 206.923 184.864 206.907 184.928C206.896 184.992 206.861 185.043 206.803 185.08C206.76 185.112 206.715 185.144 206.667 185.176C206.624 185.203 206.579 185.232 206.531 185.264C206.328 185.397 206.131 185.525 205.939 185.648C205.747 185.771 205.565 185.877 205.395 185.968C205.048 186.149 204.773 186.24 204.571 186.24ZM211.21 186.224C211.173 186.224 211.136 186.219 211.098 186.208C211.061 186.203 211.024 186.197 210.986 186.192C210.89 186.165 210.824 186.109 210.786 186.024C210.738 185.917 210.738 185.789 210.786 185.64C210.84 185.485 210.925 185.288 211.042 185.048C211.064 185.005 211.085 184.957 211.106 184.904C211.133 184.851 211.157 184.8 211.178 184.752C211.109 184.779 211.034 184.824 210.954 184.888C210.88 184.947 210.802 185.008 210.722 185.072C210.669 185.109 210.61 185.125 210.546 185.12C210.477 185.109 210.421 185.08 210.378 185.032C210.341 184.979 210.328 184.92 210.338 184.856C210.344 184.792 210.37 184.736 210.418 184.688C210.493 184.635 210.57 184.576 210.65 184.512C210.736 184.448 210.821 184.395 210.906 184.352C211.125 184.24 211.325 184.211 211.506 184.264C211.592 184.28 211.656 184.333 211.698 184.424C211.741 184.509 211.738 184.616 211.69 184.744C211.648 184.872 211.573 185.045 211.466 185.264C211.44 185.328 211.41 185.392 211.378 185.456C211.352 185.52 211.325 185.581 211.298 185.64C211.293 185.661 211.285 185.68 211.274 185.696C211.269 185.712 211.264 185.728 211.258 185.744C211.37 185.728 211.533 185.672 211.746 185.576C211.965 185.475 212.258 185.277 212.626 184.984C212.824 184.829 213.002 184.68 213.162 184.536C213.322 184.387 213.45 184.264 213.546 184.168C213.642 184.072 213.69 184.024 213.69 184.024C213.754 183.949 213.832 183.925 213.922 183.952C213.965 183.957 214 183.976 214.026 184.008C214.053 184.035 214.074 184.061 214.09 184.088C214.128 184.163 214.13 184.251 214.098 184.352C214.072 184.448 214.013 184.605 213.922 184.824C213.89 184.893 213.858 184.963 213.826 185.032C213.8 185.101 213.773 185.165 213.746 185.224C213.741 185.245 213.736 185.264 213.73 185.28C213.73 185.291 213.728 185.301 213.722 185.312C213.824 185.296 213.93 185.253 214.042 185.184C214.16 185.109 214.272 185.027 214.378 184.936C214.49 184.845 214.584 184.768 214.658 184.704C214.712 184.656 214.77 184.635 214.834 184.64C214.898 184.645 214.954 184.672 215.002 184.72C215.045 184.773 215.064 184.832 215.058 184.896C215.058 184.96 215.032 185.016 214.978 185.064C214.813 185.208 214.642 185.344 214.466 185.472C214.296 185.6 214.122 185.696 213.946 185.76C213.776 185.819 213.602 185.827 213.426 185.784C213.341 185.747 213.28 185.693 213.242 185.624C213.21 185.549 213.2 185.467 213.21 185.376C213.226 185.285 213.258 185.173 213.306 185.04C213.248 185.093 213.186 185.144 213.122 185.192C213.064 185.24 213 185.293 212.93 185.352C212.194 185.933 211.621 186.224 211.21 186.224ZM215.892 185.528C215.865 185.528 215.844 185.525 215.828 185.52C215.743 185.499 215.681 185.467 215.644 185.424C215.612 185.376 215.591 185.339 215.58 185.312C215.543 185.195 215.556 185.075 215.62 184.952C215.684 184.824 215.767 184.691 215.868 184.552C215.9 184.509 215.929 184.464 215.956 184.416C215.988 184.363 216.015 184.317 216.036 184.28C216.041 184.275 216.049 184.264 216.06 184.248C216.028 184.259 215.988 184.275 215.94 184.296C215.897 184.317 215.847 184.349 215.788 184.392C215.692 184.451 215.591 184.528 215.484 184.624C215.377 184.715 215.268 184.811 215.156 184.912C215.129 184.933 215.1 184.957 215.068 184.984C215.041 185.011 215.015 185.037 214.988 185.064C214.94 185.107 214.884 185.128 214.82 185.128C214.751 185.123 214.695 185.093 214.652 185.04C214.604 184.992 214.583 184.936 214.588 184.872C214.593 184.803 214.62 184.747 214.668 184.704C214.695 184.677 214.724 184.651 214.756 184.624C214.783 184.597 214.809 184.573 214.836 184.552C215.007 184.397 215.175 184.256 215.34 184.128C215.505 183.995 215.668 183.893 215.828 183.824C215.988 183.755 216.143 183.741 216.292 183.784C216.383 183.805 216.447 183.843 216.484 183.896C216.527 183.944 216.551 183.987 216.556 184.024C216.604 184.141 216.593 184.267 216.524 184.4C216.455 184.528 216.367 184.669 216.26 184.824C216.249 184.835 216.236 184.853 216.22 184.88C216.209 184.901 216.196 184.923 216.18 184.944C216.26 184.912 216.364 184.872 216.492 184.824C216.62 184.776 216.775 184.717 216.956 184.648C217.025 184.627 217.089 184.632 217.148 184.664C217.207 184.691 217.247 184.736 217.268 184.8C217.295 184.859 217.292 184.92 217.26 184.984C217.233 185.043 217.191 185.085 217.132 185.112C216.961 185.171 216.807 185.224 216.668 185.272C216.529 185.32 216.412 185.363 216.316 185.4C216.263 185.421 216.215 185.44 216.172 185.456C216.135 185.467 216.1 185.477 216.068 185.488C216.031 185.499 215.999 185.509 215.972 185.52C215.945 185.525 215.919 185.528 215.892 185.528ZM219.839 185.688C219.802 185.688 219.767 185.683 219.735 185.672C219.634 185.651 219.562 185.589 219.519 185.488C219.487 185.397 219.495 185.296 219.543 185.184C219.597 185.072 219.666 184.947 219.751 184.808C219.783 184.76 219.813 184.712 219.839 184.664C219.871 184.611 219.898 184.563 219.919 184.52C219.93 184.504 219.938 184.491 219.943 184.48C219.949 184.464 219.954 184.451 219.959 184.44C219.799 184.413 219.613 184.408 219.399 184.424C219.191 184.435 218.957 184.475 218.695 184.544C218.466 184.603 218.218 184.68 217.951 184.776C217.69 184.867 217.413 184.976 217.119 185.104C217.061 185.125 217.002 185.125 216.943 185.104C216.885 185.083 216.842 185.043 216.815 184.984C216.783 184.925 216.781 184.864 216.807 184.8C216.834 184.731 216.877 184.685 216.935 184.664C217.234 184.531 217.519 184.416 217.791 184.32C218.069 184.219 218.33 184.139 218.575 184.08C219.231 183.915 219.767 183.888 220.183 184C220.306 184.032 220.391 184.107 220.439 184.224C220.487 184.341 220.477 184.472 220.407 184.616C220.338 184.76 220.255 184.909 220.159 185.064C220.154 185.075 220.146 185.088 220.135 185.104C220.125 185.12 220.114 185.139 220.103 185.16C220.226 185.133 220.407 185.08 220.647 185C220.887 184.92 221.218 184.803 221.639 184.648C221.698 184.627 221.757 184.632 221.815 184.664C221.879 184.691 221.922 184.736 221.943 184.8C221.97 184.859 221.97 184.92 221.943 184.984C221.917 185.043 221.869 185.085 221.799 185.112C221.554 185.197 221.33 185.275 221.127 185.344C220.925 185.413 220.743 185.472 220.583 185.52C220.37 185.584 220.207 185.629 220.095 185.656C219.983 185.677 219.898 185.688 219.839 185.688ZM222.382 186.224C222.345 186.224 222.308 186.219 222.27 186.208C222.233 186.203 222.196 186.197 222.158 186.192C222.062 186.165 221.996 186.109 221.958 186.024C221.91 185.917 221.91 185.789 221.958 185.64C222.012 185.485 222.097 185.288 222.214 185.048C222.236 185.005 222.257 184.957 222.278 184.904C222.305 184.851 222.329 184.8 222.35 184.752C222.281 184.779 222.206 184.824 222.126 184.888C222.052 184.947 221.974 185.008 221.894 185.072C221.841 185.109 221.782 185.125 221.718 185.12C221.649 185.109 221.593 185.08 221.55 185.032C221.513 184.979 221.5 184.92 221.51 184.856C221.516 184.792 221.542 184.736 221.59 184.688C221.665 184.635 221.742 184.576 221.822 184.512C221.908 184.448 221.993 184.395 222.078 184.352C222.297 184.24 222.497 184.211 222.678 184.264C222.764 184.28 222.828 184.333 222.87 184.424C222.913 184.509 222.91 184.616 222.862 184.744C222.82 184.872 222.745 185.045 222.638 185.264C222.612 185.328 222.582 185.392 222.55 185.456C222.524 185.52 222.497 185.581 222.47 185.64C222.465 185.661 222.457 185.68 222.446 185.696C222.441 185.712 222.436 185.728 222.43 185.744C222.542 185.728 222.705 185.672 222.918 185.576C223.137 185.475 223.43 185.277 223.798 184.984C223.996 184.829 224.174 184.68 224.334 184.536C224.494 184.387 224.622 184.264 224.718 184.168C224.814 184.072 224.862 184.024 224.862 184.024C224.926 183.949 225.004 183.925 225.094 183.952C225.137 183.957 225.172 183.976 225.198 184.008C225.225 184.035 225.246 184.061 225.262 184.088C225.3 184.163 225.302 184.251 225.27 184.352C225.244 184.448 225.185 184.605 225.094 184.824C225.062 184.893 225.03 184.963 224.998 185.032C224.972 185.101 224.945 185.165 224.918 185.224C224.913 185.245 224.908 185.264 224.902 185.28C224.902 185.291 224.9 185.301 224.894 185.312C224.996 185.296 225.102 185.253 225.214 185.184C225.332 185.109 225.444 185.027 225.55 184.936C225.662 184.845 225.756 184.768 225.83 184.704C225.884 184.656 225.942 184.635 226.006 184.64C226.07 184.645 226.126 184.672 226.174 184.72C226.217 184.773 226.236 184.832 226.23 184.896C226.23 184.96 226.204 185.016 226.15 185.064C225.985 185.208 225.814 185.344 225.638 185.472C225.468 185.6 225.294 185.696 225.118 185.76C224.948 185.819 224.774 185.827 224.598 185.784C224.513 185.747 224.452 185.693 224.414 185.624C224.382 185.549 224.372 185.467 224.382 185.376C224.398 185.285 224.43 185.173 224.478 185.04C224.42 185.093 224.358 185.144 224.294 185.192C224.236 185.24 224.172 185.293 224.102 185.352C223.366 185.933 222.793 186.224 222.382 186.224ZM226.64 186.224C226.603 186.224 226.565 186.219 226.528 186.208C226.491 186.203 226.453 186.197 226.416 186.192C226.32 186.165 226.253 186.109 226.216 186.024C226.168 185.917 226.168 185.789 226.216 185.64C226.269 185.485 226.355 185.288 226.472 185.048C226.493 185.005 226.515 184.957 226.536 184.904C226.563 184.851 226.587 184.8 226.608 184.752C226.539 184.779 226.464 184.824 226.384 184.888C226.309 184.947 226.232 185.008 226.152 185.072C226.099 185.109 226.04 185.125 225.976 185.12C225.907 185.109 225.851 185.08 225.808 185.032C225.771 184.979 225.757 184.92 225.768 184.856C225.773 184.792 225.8 184.736 225.848 184.688C225.923 184.635 226 184.576 226.08 184.512C226.165 184.448 226.251 184.395 226.336 184.352C226.555 184.24 226.755 184.211 226.936 184.264C227.021 184.28 227.085 184.333 227.128 184.424C227.171 184.509 227.168 184.616 227.12 184.744C227.077 184.872 227.003 185.045 226.896 185.264C226.869 185.328 226.84 185.392 226.808 185.456C226.781 185.52 226.755 185.581 226.728 185.64C226.723 185.661 226.715 185.68 226.704 185.696C226.699 185.712 226.693 185.728 226.688 185.744C226.8 185.728 226.963 185.672 227.176 185.576C227.395 185.475 227.688 185.277 228.056 184.984C228.253 184.829 228.432 184.68 228.592 184.536C228.752 184.387 228.88 184.264 228.976 184.168C229.072 184.072 229.12 184.024 229.12 184.024C229.184 183.949 229.261 183.925 229.352 183.952C229.395 183.957 229.429 183.976 229.456 184.008C229.483 184.035 229.504 184.061 229.52 184.088C229.557 184.163 229.56 184.251 229.528 184.352C229.501 184.448 229.443 184.605 229.352 184.824C229.32 184.893 229.288 184.963 229.256 185.032C229.229 185.101 229.203 185.165 229.176 185.224C229.171 185.245 229.165 185.264 229.16 185.28C229.16 185.291 229.157 185.301 229.152 185.312C229.253 185.296 229.36 185.253 229.472 185.184C229.589 185.109 229.701 185.027 229.808 184.936C229.92 184.845 230.013 184.768 230.088 184.704C230.141 184.656 230.2 184.635 230.264 184.64C230.328 184.645 230.384 184.672 230.432 184.72C230.475 184.773 230.493 184.832 230.488 184.896C230.488 184.96 230.461 185.016 230.408 185.064C230.243 185.208 230.072 185.344 229.896 185.472C229.725 185.6 229.552 185.696 229.376 185.76C229.205 185.819 229.032 185.827 228.856 185.784C228.771 185.747 228.709 185.693 228.672 185.624C228.64 185.549 228.629 185.467 228.64 185.376C228.656 185.285 228.688 185.173 228.736 185.04C228.677 185.093 228.616 185.144 228.552 185.192C228.493 185.24 228.429 185.293 228.36 185.352C227.624 185.933 227.051 186.224 226.64 186.224ZM236.956 185.688C236.919 185.688 236.884 185.683 236.852 185.672C236.751 185.651 236.679 185.589 236.636 185.488C236.604 185.397 236.612 185.296 236.66 185.184C236.714 185.072 236.783 184.947 236.868 184.808C236.9 184.76 236.93 184.712 236.956 184.664C236.988 184.611 237.015 184.563 237.036 184.52C237.047 184.504 237.055 184.491 237.06 184.48C237.066 184.464 237.071 184.451 237.076 184.44C236.916 184.413 236.73 184.408 236.516 184.424C236.308 184.435 236.074 184.475 235.812 184.544C235.583 184.603 235.335 184.68 235.068 184.776C234.807 184.867 234.53 184.976 234.236 185.104C234.178 185.125 234.119 185.125 234.06 185.104C234.002 185.083 233.959 185.043 233.932 184.984C233.9 184.925 233.898 184.864 233.924 184.8C233.951 184.731 233.994 184.685 234.052 184.664C234.351 184.531 234.636 184.416 234.908 184.32C235.186 184.219 235.447 184.139 235.692 184.08C236.348 183.915 236.884 183.888 237.3 184C237.423 184.032 237.508 184.107 237.556 184.224C237.604 184.341 237.594 184.472 237.524 184.616C237.455 184.76 237.372 184.909 237.276 185.064C237.271 185.075 237.263 185.088 237.252 185.104C237.242 185.12 237.231 185.139 237.22 185.16C237.343 185.133 237.524 185.08 237.764 185C238.004 184.92 238.335 184.803 238.756 184.648C238.815 184.627 238.874 184.632 238.932 184.664C238.996 184.691 239.039 184.736 239.06 184.8C239.087 184.859 239.087 184.92 239.06 184.984C239.034 185.043 238.986 185.085 238.916 185.112C238.671 185.197 238.447 185.275 238.244 185.344C238.042 185.413 237.86 185.472 237.7 185.52C237.487 185.584 237.324 185.629 237.212 185.656C237.1 185.677 237.015 185.688 236.956 185.688ZM239.923 185.528C239.897 185.528 239.875 185.525 239.859 185.52C239.774 185.499 239.713 185.467 239.675 185.424C239.643 185.376 239.622 185.339 239.611 185.312C239.574 185.195 239.587 185.075 239.651 184.952C239.715 184.824 239.798 184.691 239.899 184.552C239.931 184.509 239.961 184.464 239.987 184.416C240.019 184.363 240.046 184.317 240.067 184.28C240.073 184.275 240.081 184.264 240.091 184.248C240.059 184.259 240.019 184.275 239.971 184.296C239.929 184.317 239.878 184.349 239.819 184.392C239.723 184.451 239.622 184.528 239.515 184.624C239.409 184.715 239.299 184.811 239.187 184.912C239.161 184.933 239.131 184.957 239.099 184.984C239.073 185.011 239.046 185.037 239.019 185.064C238.971 185.107 238.915 185.128 238.851 185.128C238.782 185.123 238.726 185.093 238.683 185.04C238.635 184.992 238.614 184.936 238.619 184.872C238.625 184.803 238.651 184.747 238.699 184.704C238.726 184.677 238.755 184.651 238.787 184.624C238.814 184.597 238.841 184.573 238.867 184.552C239.038 184.397 239.206 184.256 239.371 184.128C239.537 183.995 239.699 183.893 239.859 183.824C240.019 183.755 240.174 183.741 240.323 183.784C240.414 183.805 240.478 183.843 240.515 183.896C240.558 183.944 240.582 183.987 240.587 184.024C240.635 184.141 240.625 184.267 240.555 184.4C240.486 184.528 240.398 184.669 240.291 184.824C240.281 184.835 240.267 184.853 240.251 184.88C240.241 184.901 240.227 184.923 240.211 184.944C240.291 184.912 240.395 184.872 240.523 184.824C240.651 184.776 240.806 184.717 240.987 184.648C241.057 184.627 241.121 184.632 241.179 184.664C241.238 184.691 241.278 184.736 241.299 184.8C241.326 184.859 241.323 184.92 241.291 184.984C241.265 185.043 241.222 185.085 241.163 185.112C240.993 185.171 240.838 185.224 240.699 185.272C240.561 185.32 240.443 185.363 240.347 185.4C240.294 185.421 240.246 185.44 240.203 185.456C240.166 185.467 240.131 185.477 240.099 185.488C240.062 185.499 240.03 185.509 240.003 185.52C239.977 185.525 239.95 185.528 239.923 185.528ZM241.703 186.224C241.665 186.224 241.628 186.219 241.59 186.208C241.553 186.203 241.516 186.197 241.479 186.192C241.383 186.165 241.316 186.109 241.279 186.024C241.231 185.917 241.231 185.789 241.279 185.64C241.332 185.485 241.417 185.288 241.535 185.048C241.556 185.005 241.577 184.957 241.599 184.904C241.625 184.851 241.649 184.8 241.671 184.752C241.601 184.779 241.527 184.824 241.447 184.888C241.372 184.947 241.295 185.008 241.215 185.072C241.161 185.109 241.103 185.125 241.038 185.12C240.969 185.109 240.913 185.08 240.87 185.032C240.833 184.979 240.82 184.92 240.83 184.856C240.836 184.792 240.862 184.736 240.91 184.688C240.985 184.635 241.062 184.576 241.143 184.512C241.228 184.448 241.313 184.395 241.399 184.352C241.617 184.24 241.817 184.211 241.999 184.264C242.084 184.28 242.148 184.333 242.191 184.424C242.233 184.509 242.231 184.616 242.183 184.744C242.14 184.872 242.065 185.045 241.959 185.264C241.932 185.328 241.903 185.392 241.871 185.456C241.844 185.52 241.817 185.581 241.791 185.64C241.785 185.661 241.777 185.68 241.767 185.696C241.761 185.712 241.756 185.728 241.751 185.744C241.863 185.728 242.025 185.672 242.238 185.576C242.457 185.475 242.751 185.277 243.118 184.984C243.316 184.829 243.495 184.68 243.655 184.536C243.815 184.387 243.943 184.264 244.039 184.168C244.135 184.072 244.183 184.024 244.183 184.024C244.247 183.949 244.324 183.925 244.415 183.952C244.457 183.957 244.492 183.976 244.519 184.008C244.545 184.035 244.567 184.061 244.583 184.088C244.62 184.163 244.623 184.251 244.591 184.352C244.564 184.448 244.505 184.605 244.415 184.824C244.383 184.893 244.351 184.963 244.319 185.032C244.292 185.101 244.265 185.165 244.239 185.224C244.233 185.245 244.228 185.264 244.223 185.28C244.223 185.291 244.22 185.301 244.215 185.312C244.316 185.296 244.423 185.253 244.535 185.184C244.652 185.109 244.764 185.027 244.871 184.936C244.983 184.845 245.076 184.768 245.151 184.704C245.204 184.656 245.263 184.635 245.327 184.64C245.391 184.645 245.447 184.672 245.495 184.72C245.537 184.773 245.556 184.832 245.551 184.896C245.551 184.96 245.524 185.016 245.47 185.064C245.305 185.208 245.135 185.344 244.959 185.472C244.788 185.6 244.615 185.696 244.439 185.76C244.268 185.819 244.095 185.827 243.919 185.784C243.833 185.747 243.772 185.693 243.735 185.624C243.703 185.549 243.692 185.467 243.703 185.376C243.719 185.285 243.751 185.173 243.799 185.04C243.74 185.093 243.679 185.144 243.615 185.192C243.556 185.24 243.492 185.293 243.423 185.352C242.687 185.933 242.113 186.224 241.703 186.224ZM248.128 185.688C248.091 185.688 248.056 185.683 248.024 185.672C247.923 185.651 247.851 185.589 247.808 185.488C247.776 185.397 247.784 185.296 247.832 185.184C247.886 185.072 247.955 184.947 248.04 184.808C248.072 184.76 248.102 184.712 248.128 184.664C248.16 184.611 248.187 184.563 248.208 184.52C248.219 184.504 248.227 184.491 248.232 184.48C248.238 184.464 248.243 184.451 248.248 184.44C248.088 184.413 247.902 184.408 247.688 184.424C247.48 184.435 247.246 184.475 246.984 184.544C246.755 184.603 246.507 184.68 246.24 184.776C245.979 184.867 245.702 184.976 245.408 185.104C245.35 185.125 245.291 185.125 245.232 185.104C245.174 185.083 245.131 185.043 245.104 184.984C245.072 184.925 245.07 184.864 245.096 184.8C245.123 184.731 245.166 184.685 245.224 184.664C245.523 184.531 245.808 184.416 246.08 184.32C246.358 184.219 246.619 184.139 246.864 184.08C247.52 183.915 248.056 183.888 248.472 184C248.595 184.032 248.68 184.107 248.728 184.224C248.776 184.341 248.766 184.472 248.696 184.616C248.627 184.76 248.544 184.909 248.448 185.064C248.443 185.075 248.435 185.088 248.424 185.104C248.414 185.12 248.403 185.139 248.392 185.16C248.515 185.133 248.696 185.08 248.936 185C249.176 184.92 249.507 184.803 249.928 184.648C249.987 184.627 250.046 184.632 250.104 184.664C250.168 184.691 250.211 184.736 250.232 184.8C250.259 184.859 250.259 184.92 250.232 184.984C250.206 185.043 250.158 185.085 250.088 185.112C249.843 185.197 249.619 185.275 249.416 185.344C249.214 185.413 249.032 185.472 248.872 185.52C248.659 185.584 248.496 185.629 248.384 185.656C248.272 185.677 248.187 185.688 248.128 185.688ZM256.73 185.688C256.693 185.688 256.658 185.683 256.626 185.672C256.525 185.651 256.453 185.589 256.41 185.488C256.378 185.397 256.386 185.296 256.434 185.184C256.487 185.072 256.557 184.947 256.642 184.808C256.674 184.76 256.703 184.712 256.73 184.664C256.762 184.611 256.789 184.563 256.81 184.52C256.821 184.504 256.829 184.491 256.834 184.48C256.839 184.464 256.845 184.451 256.85 184.44C256.69 184.413 256.503 184.408 256.29 184.424C256.082 184.435 255.847 184.475 255.586 184.544C255.357 184.603 255.109 184.68 254.842 184.776C254.581 184.867 254.303 184.976 254.01 185.104C253.951 185.125 253.893 185.125 253.834 185.104C253.775 185.083 253.733 185.043 253.706 184.984C253.674 184.925 253.671 184.864 253.698 184.8C253.725 184.731 253.767 184.685 253.826 184.664C254.125 184.531 254.41 184.416 254.682 184.32C254.959 184.219 255.221 184.139 255.466 184.08C256.122 183.915 256.658 183.888 257.074 184C257.197 184.032 257.282 184.107 257.33 184.224C257.378 184.341 257.367 184.472 257.298 184.616C257.229 184.76 257.146 184.909 257.05 185.064C257.045 185.075 257.037 185.088 257.026 185.104C257.015 185.12 257.005 185.139 256.994 185.16C257.117 185.133 257.298 185.08 257.538 185C257.778 184.92 258.109 184.803 258.53 184.648C258.589 184.627 258.647 184.632 258.706 184.664C258.77 184.691 258.813 184.736 258.834 184.8C258.861 184.859 258.861 184.92 258.834 184.984C258.807 185.043 258.759 185.085 258.69 185.112C258.445 185.197 258.221 185.275 258.018 185.344C257.815 185.413 257.634 185.472 257.474 185.52C257.261 185.584 257.098 185.629 256.986 185.656C256.874 185.677 256.789 185.688 256.73 185.688ZM259.697 185.528C259.67 185.528 259.649 185.525 259.633 185.52C259.547 185.499 259.486 185.467 259.449 185.424C259.417 185.376 259.395 185.339 259.385 185.312C259.347 185.195 259.361 185.075 259.425 184.952C259.489 184.824 259.571 184.691 259.673 184.552C259.705 184.509 259.734 184.464 259.761 184.416C259.793 184.363 259.819 184.317 259.841 184.28C259.846 184.275 259.854 184.264 259.865 184.248C259.833 184.259 259.793 184.275 259.745 184.296C259.702 184.317 259.651 184.349 259.593 184.392C259.497 184.451 259.395 184.528 259.289 184.624C259.182 184.715 259.073 184.811 258.961 184.912C258.934 184.933 258.905 184.957 258.873 184.984C258.846 185.011 258.819 185.037 258.793 185.064C258.745 185.107 258.689 185.128 258.625 185.128C258.555 185.123 258.499 185.093 258.457 185.04C258.409 184.992 258.387 184.936 258.393 184.872C258.398 184.803 258.425 184.747 258.473 184.704C258.499 184.677 258.529 184.651 258.561 184.624C258.587 184.597 258.614 184.573 258.641 184.552C258.811 184.397 258.979 184.256 259.145 184.128C259.31 183.995 259.473 183.893 259.633 183.824C259.793 183.755 259.947 183.741 260.097 183.784C260.187 183.805 260.251 183.843 260.289 183.896C260.331 183.944 260.355 183.987 260.361 184.024C260.409 184.141 260.398 184.267 260.329 184.4C260.259 184.528 260.171 184.669 260.065 184.824C260.054 184.835 260.041 184.853 260.025 184.88C260.014 184.901 260.001 184.923 259.985 184.944C260.065 184.912 260.169 184.872 260.297 184.824C260.425 184.776 260.579 184.717 260.761 184.648C260.83 184.627 260.894 184.632 260.953 184.664C261.011 184.691 261.051 184.736 261.073 184.8C261.099 184.859 261.097 184.92 261.065 184.984C261.038 185.043 260.995 185.085 260.937 185.112C260.766 185.171 260.611 185.224 260.473 185.272C260.334 185.32 260.217 185.363 260.121 185.4C260.067 185.421 260.019 185.44 259.977 185.456C259.939 185.467 259.905 185.477 259.873 185.488C259.835 185.499 259.803 185.509 259.777 185.52C259.75 185.525 259.723 185.528 259.697 185.528ZM261.476 186.224C261.439 186.224 261.401 186.219 261.364 186.208C261.327 186.203 261.289 186.197 261.252 186.192C261.156 186.165 261.089 186.109 261.052 186.024C261.004 185.917 261.004 185.789 261.052 185.64C261.105 185.485 261.191 185.288 261.308 185.048C261.329 185.005 261.351 184.957 261.372 184.904C261.399 184.851 261.423 184.8 261.444 184.752C261.375 184.779 261.3 184.824 261.22 184.888C261.145 184.947 261.068 185.008 260.988 185.072C260.935 185.109 260.876 185.125 260.812 185.12C260.743 185.109 260.687 185.08 260.644 185.032C260.607 184.979 260.593 184.92 260.604 184.856C260.609 184.792 260.636 184.736 260.684 184.688C260.759 184.635 260.836 184.576 260.916 184.512C261.001 184.448 261.087 184.395 261.172 184.352C261.391 184.24 261.591 184.211 261.772 184.264C261.857 184.28 261.921 184.333 261.964 184.424C262.007 184.509 262.004 184.616 261.956 184.744C261.913 184.872 261.839 185.045 261.732 185.264C261.705 185.328 261.676 185.392 261.644 185.456C261.617 185.52 261.591 185.581 261.564 185.64C261.559 185.661 261.551 185.68 261.54 185.696C261.535 185.712 261.529 185.728 261.524 185.744C261.636 185.728 261.799 185.672 262.012 185.576C262.231 185.475 262.524 185.277 262.892 184.984C263.089 184.829 263.268 184.68 263.428 184.536C263.588 184.387 263.716 184.264 263.812 184.168C263.908 184.072 263.956 184.024 263.956 184.024C264.02 183.949 264.097 183.925 264.188 183.952C264.231 183.957 264.265 183.976 264.292 184.008C264.319 184.035 264.34 184.061 264.356 184.088C264.393 184.163 264.396 184.251 264.364 184.352C264.337 184.448 264.279 184.605 264.188 184.824C264.156 184.893 264.124 184.963 264.092 185.032C264.065 185.101 264.039 185.165 264.012 185.224C264.007 185.245 264.001 185.264 263.996 185.28C263.996 185.291 263.993 185.301 263.988 185.312C264.089 185.296 264.196 185.253 264.308 185.184C264.425 185.109 264.537 185.027 264.644 184.936C264.756 184.845 264.849 184.768 264.924 184.704C264.977 184.656 265.036 184.635 265.1 184.64C265.164 184.645 265.22 184.672 265.268 184.72C265.311 184.773 265.329 184.832 265.324 184.896C265.324 184.96 265.297 185.016 265.244 185.064C265.079 185.208 264.908 185.344 264.732 185.472C264.561 185.6 264.388 185.696 264.212 185.76C264.041 185.819 263.868 185.827 263.692 185.784C263.607 185.747 263.545 185.693 263.508 185.624C263.476 185.549 263.465 185.467 263.476 185.376C263.492 185.285 263.524 185.173 263.572 185.04C263.513 185.093 263.452 185.144 263.388 185.192C263.329 185.24 263.265 185.293 263.196 185.352C262.46 185.933 261.887 186.224 261.476 186.224ZM269.624 186.224C269.587 186.224 269.55 186.219 269.512 186.208C269.475 186.203 269.438 186.197 269.4 186.192C269.304 186.165 269.238 186.109 269.2 186.024C269.152 185.917 269.152 185.789 269.2 185.64C269.254 185.485 269.339 185.288 269.456 185.048C269.478 185.005 269.499 184.957 269.52 184.904C269.547 184.851 269.571 184.8 269.592 184.752C269.523 184.779 269.448 184.824 269.368 184.888C269.294 184.947 269.216 185.008 269.136 185.072C269.083 185.109 269.024 185.125 268.96 185.12C268.891 185.109 268.835 185.08 268.792 185.032C268.755 184.979 268.742 184.92 268.752 184.856C268.758 184.792 268.784 184.736 268.832 184.688C268.907 184.635 268.984 184.576 269.064 184.512C269.15 184.448 269.235 184.395 269.32 184.352C269.539 184.24 269.739 184.211 269.92 184.264C270.006 184.28 270.07 184.333 270.112 184.424C270.155 184.509 270.152 184.616 270.104 184.744C270.062 184.872 269.987 185.045 269.88 185.264C269.854 185.328 269.824 185.392 269.792 185.456C269.766 185.52 269.739 185.581 269.712 185.64C269.707 185.661 269.699 185.68 269.688 185.696C269.683 185.712 269.678 185.728 269.672 185.744C269.784 185.728 269.947 185.672 270.16 185.576C270.379 185.475 270.672 185.277 271.04 184.984C271.238 184.829 271.416 184.68 271.576 184.536C271.736 184.387 271.864 184.264 271.96 184.168C272.056 184.072 272.104 184.024 272.104 184.024C272.168 183.949 272.246 183.925 272.336 183.952C272.379 183.957 272.414 183.976 272.44 184.008C272.467 184.035 272.488 184.061 272.504 184.088C272.542 184.163 272.544 184.251 272.512 184.352C272.486 184.448 272.427 184.605 272.336 184.824C272.304 184.893 272.272 184.963 272.24 185.032C272.214 185.101 272.187 185.165 272.16 185.224C272.155 185.245 272.15 185.264 272.144 185.28C272.144 185.291 272.142 185.301 272.136 185.312C272.238 185.296 272.344 185.253 272.456 185.184C272.574 185.109 272.686 185.027 272.792 184.936C272.904 184.845 272.998 184.768 273.072 184.704C273.126 184.656 273.184 184.635 273.248 184.64C273.312 184.645 273.368 184.672 273.416 184.72C273.459 184.773 273.478 184.832 273.472 184.896C273.472 184.96 273.446 185.016 273.392 185.064C273.227 185.208 273.056 185.344 272.88 185.472C272.71 185.6 272.536 185.696 272.36 185.76C272.19 185.819 272.016 185.827 271.84 185.784C271.755 185.747 271.694 185.693 271.656 185.624C271.624 185.549 271.614 185.467 271.624 185.376C271.64 185.285 271.672 185.173 271.72 185.04C271.662 185.093 271.6 185.144 271.536 185.192C271.478 185.24 271.414 185.293 271.344 185.352C270.608 185.933 270.035 186.224 269.624 186.224ZM276.05 185.688C276.013 185.688 275.978 185.683 275.946 185.672C275.845 185.651 275.773 185.589 275.73 185.488C275.698 185.397 275.706 185.296 275.754 185.184C275.808 185.072 275.877 184.947 275.962 184.808C275.994 184.76 276.024 184.712 276.05 184.664C276.082 184.611 276.109 184.563 276.13 184.52C276.141 184.504 276.149 184.491 276.154 184.48C276.16 184.464 276.165 184.451 276.17 184.44C276.01 184.413 275.824 184.408 275.61 184.424C275.402 184.435 275.168 184.475 274.906 184.544C274.677 184.603 274.429 184.68 274.162 184.776C273.901 184.867 273.624 184.976 273.33 185.104C273.272 185.125 273.213 185.125 273.154 185.104C273.096 185.083 273.053 185.043 273.026 184.984C272.994 184.925 272.992 184.864 273.018 184.8C273.045 184.731 273.088 184.685 273.146 184.664C273.445 184.531 273.73 184.416 274.002 184.32C274.28 184.219 274.541 184.139 274.786 184.08C275.442 183.915 275.978 183.888 276.394 184C276.517 184.032 276.602 184.107 276.65 184.224C276.698 184.341 276.688 184.472 276.618 184.616C276.549 184.76 276.466 184.909 276.37 185.064C276.365 185.075 276.357 185.088 276.346 185.104C276.336 185.12 276.325 185.139 276.314 185.16C276.437 185.133 276.618 185.08 276.858 185C277.098 184.92 277.429 184.803 277.85 184.648C277.909 184.627 277.968 184.632 278.026 184.664C278.09 184.691 278.133 184.736 278.154 184.8C278.181 184.859 278.181 184.92 278.154 184.984C278.128 185.043 278.08 185.085 278.01 185.112C277.765 185.197 277.541 185.275 277.338 185.344C277.136 185.413 276.954 185.472 276.794 185.52C276.581 185.584 276.418 185.629 276.306 185.656C276.194 185.677 276.109 185.688 276.05 185.688ZM280.761 185.688C280.724 185.688 280.689 185.683 280.657 185.672C280.556 185.651 280.484 185.589 280.441 185.488C280.409 185.397 280.417 185.296 280.465 185.184C280.518 185.072 280.588 184.947 280.673 184.808C280.705 184.76 280.734 184.712 280.761 184.664C280.793 184.611 280.82 184.563 280.841 184.52C280.852 184.504 280.86 184.491 280.865 184.48C280.87 184.464 280.876 184.451 280.881 184.44C280.721 184.413 280.534 184.408 280.321 184.424C280.113 184.435 279.878 184.475 279.617 184.544C279.388 184.603 279.14 184.68 278.873 184.776C278.612 184.867 278.334 184.976 278.041 185.104C277.982 185.125 277.924 185.125 277.865 185.104C277.806 185.083 277.764 185.043 277.737 184.984C277.705 184.925 277.702 184.864 277.729 184.8C277.756 184.731 277.798 184.685 277.857 184.664C278.156 184.531 278.441 184.416 278.713 184.32C278.99 184.219 279.252 184.139 279.497 184.08C280.153 183.915 280.689 183.888 281.105 184C281.228 184.032 281.313 184.107 281.361 184.224C281.409 184.341 281.398 184.472 281.329 184.616C281.26 184.76 281.177 184.909 281.081 185.064C281.076 185.075 281.068 185.088 281.057 185.104C281.046 185.12 281.036 185.139 281.025 185.16C281.148 185.133 281.329 185.08 281.569 185C281.809 184.92 282.14 184.803 282.561 184.648C282.62 184.627 282.678 184.632 282.737 184.664C282.801 184.691 282.844 184.736 282.865 184.8C282.892 184.859 282.892 184.92 282.865 184.984C282.838 185.043 282.79 185.085 282.721 185.112C282.476 185.197 282.252 185.275 282.049 185.344C281.846 185.413 281.665 185.472 281.505 185.52C281.292 185.584 281.129 185.629 281.017 185.656C280.905 185.677 280.82 185.688 280.761 185.688Z" fill="#9CA7B7"/>
<rect x="160.5" y="43.5" width="159" height="161" rx="7.5" stroke="#C2CAD6"/>
<rect x="-7559.5" y="-19.5" width="8059" height="306" rx="4.5" stroke="#7B61FF" stroke-dasharray="10 5"/>
<defs>
<clipPath id="clip0_1138_107213">
<rect width="21" height="21" fill="white" transform="translate(229.5 59)"/>
</clipPath>
</defs>
</svg>
