<svg width="16" height="16" viewBox="0 0 16 16" fill="none" xmlns="http://www.w3.org/2000/svg">
<path fill-rule="evenodd" clip-rule="evenodd" d="M9.2757 6.8596L9.27565 6.85961L9.27559 6.85963C9.09306 6.9081 8.90793 6.95726 8.69368 7.01255L8.6808 7.016C8.5761 7.04412 8.56518 7.04705 8.46776 6.93465C8.35091 6.80221 8.26522 6.71652 8.10162 6.63862C7.61084 6.39712 7.13564 6.46723 6.6916 6.75547C6.16186 7.09824 5.8892 7.6046 5.897 8.23561C5.90479 8.85883 6.33325 9.37298 6.94867 9.45867C7.47841 9.52878 7.92245 9.34182 8.27301 8.94452C8.32501 8.88097 8.37272 8.81313 8.42568 8.73783C8.44413 8.7116 8.46322 8.68446 8.48334 8.65628H6.97983C6.81624 8.65628 6.77729 8.55501 6.83182 8.42257C6.93309 8.18108 7.12006 7.77599 7.22912 7.57344C7.25249 7.5267 7.30702 7.4488 7.42388 7.4488H9.93092C10.0435 7.09208 10.2262 6.75501 10.4699 6.43607C11.0386 5.68821 11.7241 5.2987 12.6511 5.13511C13.4457 4.99488 14.1936 5.07279 14.8714 5.53241C15.4868 5.95308 15.8685 6.52177 15.9698 7.26962C16.1022 8.3213 15.7984 9.17823 15.0739 9.9105C14.5597 10.4324 13.9287 10.7596 13.2042 10.9077C13.066 10.9332 12.9278 10.9454 12.7919 10.9573C12.7209 10.9636 12.6505 10.9697 12.581 10.9778C11.8721 10.9622 11.2255 10.7596 10.6802 10.2922C10.2967 9.96069 10.0325 9.55321 9.9012 9.07883C9.81009 9.26283 9.70115 9.43905 9.57397 9.60669C9.01308 10.3468 8.2808 10.8064 7.35376 10.931C6.59032 11.0323 5.88141 10.8843 5.2582 10.4169C4.68172 9.98062 4.35453 9.40414 4.26884 8.68744C4.16757 7.83831 4.41686 7.07487 4.93101 6.40491C5.48411 5.68042 6.21639 5.2208 7.11227 5.05721C7.84455 4.92477 8.54567 5.01046 9.17667 5.43893C9.58955 5.71158 9.88558 6.08551 10.0803 6.53734C10.1271 6.60746 10.0959 6.64641 10.0024 6.66978C9.72941 6.73912 9.5046 6.79882 9.2757 6.8596ZM14.4297 7.74726L14.4297 7.74721C14.426 7.68376 14.4228 7.6286 14.4117 7.57344C14.2715 6.80221 13.5626 6.36596 12.8225 6.53735C12.098 6.70094 11.6306 7.16056 11.4592 7.89284C11.319 8.50048 11.615 9.1159 12.1759 9.36519C12.6044 9.55216 13.0329 9.52878 13.4457 9.31845C14.0612 8.99905 14.3961 8.50048 14.4351 7.83052C14.4328 7.80097 14.4312 7.77341 14.4297 7.74726ZM1.18397 6.77104C1.16839 6.79441 1.17618 6.80999 1.20734 6.80999L4.0274 6.81778C4.05077 6.81778 4.08972 6.79441 4.1053 6.77104L4.23773 6.56849C4.25331 6.54512 4.24552 6.52175 4.21436 6.52175H1.43326C1.4021 6.52175 1.36315 6.53733 1.34757 6.5607L1.18397 6.77104ZM0.00779021 7.48771C-0.00779021 7.51109 0 7.52667 0.0311608 7.52667L3.71593 7.51888C3.74709 7.51888 3.77825 7.50329 3.78604 7.47213L3.84836 7.28517C3.85615 7.2618 3.84057 7.23843 3.80941 7.23843H0.257077C0.225916 7.23843 0.186965 7.25401 0.171385 7.27738L0.00779021 7.48771ZM1.91636 8.24345C1.8852 8.24345 1.87741 8.22008 1.89299 8.19671L2.00205 8.00195C2.01763 7.97858 2.04879 7.95521 2.07995 7.95521H3.63799C3.66916 7.95521 3.68474 7.97858 3.68474 8.00974L3.66915 8.19671C3.66915 8.22787 3.63799 8.25124 3.61462 8.25124L1.91636 8.24345Z" fill="#00ACD7"/>
</svg>
