<svg width="16" height="16" viewBox="0 0 16 16" fill="none" xmlns="http://www.w3.org/2000/svg">
<g clip-path="url(#clip0_56_28)">
<mask id="mask0_56_28" style="mask-type:alpha" maskUnits="userSpaceOnUse" x="1" y="0" width="14" height="16">
<path d="M7.62322 0.101176L1.37744 3.72068C1.1439 3.85581 0.999987 4.10586 1 4.3765V11.6206C1 11.891 1.14351 12.1409 1.37744 12.2764L7.62367 15.8987C7.85722 16.0338 8.14471 16.0338 8.37826 15.8987L14.6234 12.2764C14.8564 12.1408 14.9999 11.8909 15 11.6206V4.3765C15 4.10619 14.8562 3.85613 14.622 3.72068L8.37767 0.101176C8.14355 -0.0337253 7.85571 -0.0337253 7.62159 0.101176" fill="white"/>
</mask>
<g mask="url(#mask0_56_28)">
<path d="M21.2158 3.09498L3.61633 -5.56641L-5.40765 12.9165L12.1914 21.5783L21.2158 3.09498Z" fill="url(#paint0_linear_56_28)"/>
<mask id="mask1_56_28" style="mask-type:alpha" maskUnits="userSpaceOnUse" x="1" y="0" width="14" height="16">
<path d="M1.14819 12.0592C1.20794 12.1371 1.28266 12.2045 1.37057 12.2551L6.72833 15.3623L7.62079 15.8773C7.75422 15.9547 7.90632 15.9874 8.05576 15.9763C8.10557 15.9722 8.15538 15.9629 8.20401 15.949L14.7914 3.83882C14.741 3.78374 14.6819 3.7376 14.6158 3.6989L10.5262 1.32777L8.36442 0.0789498C8.303 0.0439739 8.23718 0.0174403 8.16873 6.10352e-05L1.14819 12.0592Z" fill="white"/>
</mask>
<g mask="url(#mask1_56_28)">
<path d="M-6.45789 5.63943L5.96918 22.5266L22.4042 10.3351L9.97638 -6.55157L-6.45789 5.63943Z" fill="url(#paint1_linear_56_28)"/>
</g>
<mask id="mask2_56_28" style="mask-type:alpha" maskUnits="userSpaceOnUse" x="1" y="0" width="14" height="16">
<path d="M7.82612 0.00288913C7.7199 0.0136614 7.61712 0.0467252 7.52444 0.0999373L1.29645 3.70902L8.01218 15.9904C8.10558 15.977 8.19749 15.9458 8.28051 15.8975L14.5263 12.2752C14.7171 12.1643 14.8503 11.9754 14.891 11.7578L8.04479 0.0152434C7.99451 0.00518327 7.94337 9.81443e-05 7.8921 6.10352e-05C7.87134 6.10352e-05 7.85058 0.00110297 7.82983 0.00303797" fill="white"/>
</mask>
<g mask="url(#mask2_56_28)">
<path d="M0.954529 -0.00231934V16.0732H15.0383V-0.00231934H0.954529Z" fill="url(#paint2_linear_56_28)"/>
</g>
</g>
</g>
<defs>
<linearGradient id="paint0_linear_56_28" x1="12.2743" y1="-1.24931" x2="3.24574" y2="17.0954" gradientUnits="userSpaceOnUse">
<stop offset="0.3" stop-color="#3E863D"/>
<stop offset="0.5" stop-color="#55934F"/>
<stop offset="0.8" stop-color="#5AAD45"/>
</linearGradient>
<linearGradient id="paint1_linear_56_28" x1="-0.113996" y1="14.1797" x2="16.2951" y2="2.10401" gradientUnits="userSpaceOnUse">
<stop offset="0.57" stop-color="#3E863D"/>
<stop offset="0.72" stop-color="#619857"/>
<stop offset="1" stop-color="#76AC64"/>
</linearGradient>
<linearGradient id="paint2_linear_56_28" x1="0.959317" y1="8.03588" x2="15.041" y2="8.03588" gradientUnits="userSpaceOnUse">
<stop offset="0.16" stop-color="#6BBF47"/>
<stop offset="0.38" stop-color="#79B461"/>
<stop offset="0.47" stop-color="#75AC64"/>
<stop offset="0.7" stop-color="#659E5A"/>
<stop offset="0.9" stop-color="#3E863D"/>
</linearGradient>
<clipPath id="clip0_56_28">
<rect width="16" height="16" fill="white"/>
</clipPath>
</defs>
</svg>
