<svg width="16" height="16" viewBox="0 0 16 16" fill="none" xmlns="http://www.w3.org/2000/svg">
<rect x="1" y="1" width="14" height="14" rx="0.55" fill="#3178C6"/>
<path d="M8.71174 8.44833V7.30009H3.67252V8.44833H5.4716V13.5609H6.90383V8.44833H8.71174Z" fill="white"/>
<path d="M9.28273 13.4259C9.51368 13.5423 9.78685 13.6296 10.1022 13.6879C10.4176 13.7461 10.7499 13.7752 11.0993 13.7752C11.4398 13.7752 11.7633 13.7432 12.0698 13.6791C12.3762 13.6151 12.6449 13.5096 12.8759 13.3626C13.1068 13.2156 13.2897 13.0235 13.4244 12.7862C13.5592 12.549 13.6265 12.2557 13.6265 11.9064C13.6265 11.6532 13.588 11.4313 13.511 11.2406C13.4341 11.0499 13.323 10.8804 13.1779 10.7319C13.0329 10.5835 12.8589 10.4503 12.656 10.3324C12.4532 10.2146 12.2245 10.1032 11.9699 9.99842C11.7833 9.92271 11.616 9.84921 11.468 9.77792C11.3199 9.70662 11.194 9.63382 11.0904 9.55962C10.9868 9.48537 10.9069 9.4068 10.8506 9.32383C10.7943 9.2409 10.7662 9.14699 10.7662 9.04221C10.7662 8.94614 10.7914 8.85956 10.8417 8.78245C10.8921 8.70529 10.9631 8.63905 11.0549 8.58375C11.1467 8.52845 11.2592 8.48554 11.3925 8.45495C11.5257 8.42442 11.6738 8.40913 11.8366 8.40913C11.9551 8.40913 12.0801 8.41785 12.2119 8.4353C12.3437 8.4528 12.4762 8.47972 12.6094 8.51607C12.7427 8.55247 12.8722 8.59829 12.9981 8.65365C13.1239 8.70895 13.2401 8.77297 13.3467 8.84572V7.54025C13.1305 7.45873 12.8944 7.39831 12.6383 7.35906C12.3822 7.31975 12.0883 7.30009 11.7566 7.30009C11.4191 7.30009 11.0993 7.33574 10.7973 7.40709C10.4953 7.47838 10.2295 7.58974 10 7.7411C9.77053 7.89247 9.58918 8.08529 9.45596 8.31958C9.32269 8.55392 9.25608 8.83409 9.25608 9.16008C9.25608 9.57637 9.3782 9.93149 9.62251 10.2254C9.86681 10.5194 10.2377 10.7683 10.7351 10.9721C10.9306 11.0507 11.1126 11.1278 11.2814 11.2035C11.4502 11.2792 11.596 11.3578 11.7189 11.4393C11.8418 11.5208 11.9387 11.6095 12.0098 11.7056C12.0809 11.8017 12.1164 11.9108 12.1164 12.0331C12.1164 12.1233 12.0942 12.207 12.0498 12.2841C12.0053 12.3613 11.938 12.4282 11.8477 12.485C11.7574 12.5417 11.6449 12.5861 11.5102 12.6181C11.3754 12.6502 11.2177 12.6662 11.0371 12.6662C10.7292 12.6662 10.4242 12.6131 10.1222 12.5068C9.82018 12.4006 9.54034 12.2412 9.28273 12.0287V13.4259Z" fill="white"/>
</svg>
