<svg width="100" height="48" viewBox="0 0 100 48" fill="none" xmlns="http://www.w3.org/2000/svg">
<g clip-path="url(#clip0_517_1670)">
<g clip-path="url(#clip1_517_1670)">
<path d="M28.7326 12.5189H43.7066V13.7118H30.1056V22.6886H42.8954V23.8815H30.1056V33.7372H43.8625V34.9301H28.7326V12.5189V12.5189ZM45.0478 12.5189H46.639L53.6892 22.3747L60.8953 12.5189L70.6968 0L54.594 23.4106L62.8919 34.9301H61.2383L53.6892 24.4464L46.109 34.9301H44.4866L52.8469 23.4106L45.0484 12.5189H45.0478ZM63.4848 13.7118V12.5189H80.5483V13.7118H72.6874V34.9296H71.3145V13.7118H63.4853H63.4848ZM10 12.5189H11.7159L35.3748 48L25.5975 34.9301L11.4348 14.2138L11.3724 34.9301H10V12.5189V12.5189ZM80.4107 33.3771C80.1295 33.3771 79.9193 33.1594 79.9193 32.8782C79.9193 32.5965 80.1295 32.3788 80.4101 32.3788C80.694 32.3788 80.9009 32.5965 80.9009 32.8782C80.9009 33.1594 80.694 33.3771 80.4101 33.3771H80.4107ZM81.7589 32.0638H82.4937C82.504 32.4627 82.7948 32.7304 83.2216 32.7304C83.699 32.7304 83.9694 32.4428 83.9694 31.9031V28.4863H84.7171V31.9063C84.7171 32.8782 84.1564 33.4378 83.2281 33.4378C82.3572 33.4378 81.7594 32.8949 81.7594 32.0638H81.7589ZM85.695 32.0208H86.4363C86.4997 32.4793 86.947 32.7707 87.5915 32.7707C88.192 32.7707 88.6328 32.4589 88.6328 32.0305C88.6328 31.6622 88.3527 31.4407 87.7146 31.2902L87.0937 31.1397C86.2229 30.9354 85.8251 30.5129 85.8251 29.8028C85.8251 28.9416 86.526 28.3685 87.5775 28.3685C88.5559 28.3685 89.2709 28.9416 89.3139 29.7555H88.586C88.5161 29.3104 88.1291 29.0319 87.5678 29.0319C86.9765 29.0319 86.583 29.3168 86.583 29.7522C86.583 30.0974 86.8368 30.2952 87.4646 30.4425L87.9952 30.5731C88.9833 30.8043 89.3907 31.2064 89.3907 31.9332C89.3907 32.8578 88.6758 33.4378 87.5345 33.4378C86.4664 33.4378 85.7482 32.8847 85.695 32.0202V32.0208Z" fill="#758399"/>
</g>
</g>
<defs>
<clipPath id="clip0_517_1670">
<rect width="79.395" height="48" fill="white" transform="translate(10)"/>
</clipPath>
<clipPath id="clip1_517_1670">
<rect width="79.3907" height="48" fill="white" transform="translate(10)"/>
</clipPath>
</defs>
</svg>
