<svg width="81" height="48" viewBox="0 0 81 48" fill="none" xmlns="http://www.w3.org/2000/svg">
<g clip-path="url(#clip0_510_1802)">
<g clip-path="url(#clip1_510_1802)">
<path d="M19.5444 12.5189H34.5184V13.7118H20.9174V22.6886H33.7072V23.8815H20.9174V33.7372H34.6743V34.9301H19.5444V12.5189V12.5189ZM35.8596 12.5189H37.4508L44.501 22.3747L51.7071 12.5189L61.5086 0L45.4057 23.4106L53.7036 34.9301H52.0501L44.501 24.4464L36.9208 34.9301H35.2984L43.6586 23.4106L35.8601 12.5189H35.8596ZM54.2966 13.7118V12.5189H71.36V13.7118H63.4992V34.9296H62.1262V13.7118H54.2971H54.2966ZM0.811768 12.5189H2.52768L26.1866 48L16.4093 34.9301L2.24654 14.2138L2.18418 34.9301H0.811768V12.5189V12.5189ZM71.2224 33.3771C70.9413 33.3771 70.7311 33.1594 70.7311 32.8782C70.7311 32.5965 70.9413 32.3788 71.2219 32.3788C71.5057 32.3788 71.7127 32.5965 71.7127 32.8782C71.7127 33.1594 71.5057 33.3771 71.2219 33.3771H71.2224ZM72.5707 32.0638H73.3055C73.3157 32.4627 73.6066 32.7304 74.0334 32.7304C74.5107 32.7304 74.7811 32.4428 74.7811 31.9031V28.4863H75.5289V31.9063C75.5289 32.8782 74.9682 33.4378 74.0398 33.4378C73.169 33.4378 72.5712 32.8949 72.5712 32.0638H72.5707ZM76.5067 32.0208H77.248C77.3115 32.4793 77.7587 32.7707 78.4033 32.7707C79.0037 32.7707 79.4445 32.4589 79.4445 32.0305C79.4445 31.6622 79.1645 31.4407 78.5264 31.2902L77.9055 31.1397C77.0346 30.9354 76.6368 30.5129 76.6368 29.8028C76.6368 28.9416 77.3378 28.3685 78.3893 28.3685C79.3677 28.3685 80.0826 28.9416 80.1256 29.7555H79.3978C79.3279 29.3104 78.9408 29.0319 78.3796 29.0319C77.7883 29.0319 77.3948 29.3168 77.3948 29.7522C77.3948 30.0974 77.6485 30.2952 78.2764 30.4425L78.807 30.5731C79.795 30.8043 80.2025 31.2064 80.2025 31.9332C80.2025 32.8578 79.4875 33.4378 78.3463 33.4378C77.2781 33.4378 76.5599 32.8847 76.5067 32.0202V32.0208Z" fill="#758399"/>
</g>
</g>
<defs>
<clipPath id="clip0_510_1802">
<rect width="79.395" height="48" fill="white" transform="translate(0.811768)"/>
</clipPath>
<clipPath id="clip1_510_1802">
<rect width="79.3907" height="48" fill="white" transform="translate(0.811768)"/>
</clipPath>
</defs>
</svg>
