<svg width="467" height="158" viewBox="0 0 467 158" fill="none" xmlns="http://www.w3.org/2000/svg">
<path d="M134.05 33.86L79.1 2.13C74.17 -0.71 68.05 -0.71 63.11 2.13C58.18 4.98 55.12 10.28 55.12 15.97V20.11L51.54 18.04C46.61 15.2 40.49 15.2 35.55 18.04C30.62 20.89 27.56 26.19 27.56 31.89V36.03L23.98 33.96C19.05 31.12 12.93 31.12 7.98999 33.96C3.05999 36.81 0 42.11 0 47.81V147.23C0 150.09 1.65999 152.75 4.23999 153.99C6.80999 155.24 9.93 154.9 12.17 153.13L39.42 131.64L81.44 155.9C82.6 156.57 83.9 156.9 85.2 156.9C86.5 156.9 87.8 156.56 88.96 155.9C91.28 154.56 92.72 152.07 92.72 149.39V89.56C92.72 79.74 87.44 70.6 78.94 65.69L65.16 57.73V15.98C65.16 13.86 66.3 11.88 68.14 10.82C69.98 9.76 72.26 9.76 74.1 10.82L129.05 42.54C134.46 45.66 137.82 51.49 137.82 57.73V132.23C137.82 134.35 136.68 136.33 134.84 137.39L120.28 145.8V73.64C120.28 63.82 115 54.68 106.5 49.77L72.67 30.24V41.81L101.49 58.45C106.9 61.57 110.26 67.39 110.26 73.64V150.13C110.26 152.8 111.7 155.3 114.02 156.64C115.18 157.31 116.48 157.64 117.78 157.64C119.08 157.64 120.38 157.3 121.54 156.64L139.86 146.06C144.79 143.21 147.85 137.91 147.85 132.21V57.71C147.83 47.92 142.55 38.77 134.05 33.86ZM73.91 74.37C79.32 77.49 82.68 83.31 82.68 89.56V145.06L47.88 124.97L59.05 116.17C62.92 113.12 65.14 108.55 65.14 103.62V69.32L73.91 74.37ZM55.12 63.52V103.6C55.12 105.44 54.29 107.15 52.85 108.28L10.02 142.05V47.8C10.02 45.68 11.16 43.7 13 42.64C14.84 41.58 17.12 41.58 18.96 42.64L27.56 47.6V118.65L37.58 110.75V31.89C37.58 29.77 38.72 27.79 40.56 26.73C42.4 25.67 44.68 25.67 46.52 26.73L55.12 31.69V51.94L45.1 46.15V57.73L55.12 63.52Z" fill="#0099FF"/>
<path d="M273.19 75.14H249.58V56.37H237.53V104.52H249.58V85.75H273.19V104.52H285.68V56.37H273.19V75.14Z" fill="#000E16"/>
<path d="M333.32 56.37H314.04C308.7 56.37 305.45 57.38 302.99 59.84C300.54 62.29 299.6 65.4 299.6 70.89V90.02C299.6 95.51 300.54 98.61 302.99 101.07C305.44 103.53 308.69 104.54 314.04 104.54H333.32C338.66 104.54 341.91 103.53 344.37 101.07C346.83 98.62 347.76 95.51 347.76 90.02V70.89C347.76 65.4 346.82 62.3 344.37 59.84C341.91 57.38 338.66 56.37 333.32 56.37ZM335.7 90.3C335.7 93.12 334.76 93.91 331.37 93.91H315.99C312.6 93.91 311.66 93.12 311.66 90.3V70.59C311.66 67.77 312.6 66.98 315.99 66.98H331.37C334.84 66.98 335.7 67.7 335.7 70.59V90.3Z" fill="#000E16"/>
<path d="M416.97 56.37V66.98H435.52V104.52H447.58V66.98H466.06V56.37H416.97Z" fill="#000E16"/>
<path d="M394.89 75.64H377.64C374.25 75.64 373.31 74.85 373.31 72.03V70.59C373.31 67.77 374.25 66.98 377.64 66.98H406.82V56.37H375.62C370.2 56.37 366.96 57.38 364.57 59.84C362.4 62.08 361.18 65.54 361.18 69.37V72.26C361.18 76.09 362.41 79.62 364.57 81.79C366.95 84.24 370.27 85.26 375.62 85.26H392.87C396.26 85.26 397.2 86.05 397.2 88.87V90.31C397.2 93.13 396.26 93.92 392.87 93.92H361.97V104.53H394.89C400.3 104.53 403.55 103.52 405.94 101.06C408.1 98.82 409.33 95.36 409.33 91.53V88.64C409.33 84.81 408.1 81.28 405.94 79.11C403.55 76.65 400.23 75.64 394.89 75.64Z" fill="#000E16"/>
<path d="M208.68 55.99H189.4C184.06 55.99 180.81 57 178.35 59.46C175.9 61.91 174.96 65.02 174.96 70.5V77.81V80.06V104.51H187.02V80.07V77.82V70.22C187.02 67.4 187.96 66.61 191.35 66.61H206.73C210.2 66.61 211.06 67.33 211.06 70.22V77.82V80.07V104.52H223.12V80.07V77.82V70.51C223.12 65.02 222.18 61.92 219.73 59.47C217.28 57 214.03 55.99 208.68 55.99Z" fill="#0099FF"/>
</svg>
