<svg width="164" height="28" viewBox="0 0 164 28" fill="none" xmlns="http://www.w3.org/2000/svg">
<g clip-path="url(#clip0_510_1762)">
<g clip-path="url(#clip1_510_1762)">
<path fill-rule="evenodd" clip-rule="evenodd" d="M65.4123 8.20544C65.6343 8.43691 65.7535 8.7482 65.7428 9.06877V25.6665C65.7521 26.0219 65.6191 26.3663 65.3734 26.6232C65.1277 26.8809 64.7843 27.0223 64.4284 27.0121C64.2289 27.0124 64.0307 26.9809 63.8412 26.9188C63.6676 26.8653 63.5117 26.7658 63.3901 26.631L52.6373 12.631V25.8104C52.6471 26.132 52.5236 26.4434 52.2961 26.6709C52.0686 26.8985 51.7572 27.0219 51.4356 27.0121C51.1171 27.0243 50.8086 26.8998 50.5878 26.6699C50.3682 26.4387 50.2505 26.1291 50.2612 25.8104V9.17766C50.2531 8.8233 50.3942 8.48184 50.6501 8.23655C50.8895 7.99086 51.221 7.85684 51.5639 7.8671C51.7798 7.86606 51.9937 7.90701 52.1939 7.98766C52.3761 8.05816 52.5359 8.17636 52.6567 8.32988L63.3628 22.361V9.06877C63.353 8.74716 63.4765 8.43578 63.704 8.20827C63.9315 7.98075 64.2429 7.8573 64.5645 7.8671C64.8821 7.85537 65.19 7.97822 65.4123 8.20544ZM87.5012 8.20544C87.7337 8.46398 87.8565 8.80293 87.8434 9.15044V19.6504C87.8657 21.0076 87.5361 22.3474 86.8867 23.5393C86.2717 24.6639 85.3579 25.5965 84.2462 26.2343C83.0942 26.8953 81.7864 27.2363 80.4584 27.2221C79.1184 27.2433 77.7968 26.9092 76.6278 26.2538C75.511 25.6187 74.5928 24.6856 73.9756 23.5588C73.3263 22.3668 72.9967 21.027 73.0189 19.6699V9.16988C73.0088 8.814 73.1501 8.47053 73.4078 8.22488C73.6702 7.96826 74.0248 7.82809 74.3917 7.83599C74.7376 7.83622 75.0687 7.97651 75.3095 8.22488C75.5644 8.46602 75.7056 8.80354 75.6984 9.15432V19.6543C75.6843 20.5508 75.9113 21.4345 76.3556 22.2132C77.1935 23.6903 78.7602 24.6036 80.4584 24.6049C81.3109 24.6109 82.1502 24.3937 82.8928 23.9749C83.642 23.5609 84.2654 22.9522 84.6973 22.2132C85.1487 21.4369 85.38 20.5522 85.3662 19.6543V9.15432C85.3535 8.80963 85.47 8.47263 85.6928 8.20932C85.9226 7.95215 86.2543 7.80979 86.5989 7.82044C86.9411 7.81257 87.2701 7.95293 87.5012 8.20544V8.20544ZM108.552 25.0443C108.716 25.2701 108.802 25.5431 108.797 25.8221C108.811 26.1742 108.669 26.5146 108.408 26.7515C108.167 26.979 107.848 27.1057 107.517 27.1054C107.092 27.1216 106.688 26.9154 106.452 26.561L101.136 19.4638L95.9401 26.5493C95.706 26.9096 95.3041 27.1252 94.8745 27.121C94.5604 27.1279 94.2575 27.004 94.0384 26.7788C93.821 26.5785 93.697 26.2966 93.6962 26.001C93.7022 25.6717 93.8186 25.354 94.0267 25.0988L99.6345 17.4649L93.9995 9.88932C93.8236 9.66797 93.7264 9.39429 93.7234 9.11155C93.7162 8.76076 93.8574 8.42324 94.1123 8.1821C94.3531 7.93373 94.6841 7.79344 95.0301 7.79321C95.2339 7.79425 95.4349 7.84215 95.6173 7.93321C95.81 8.0246 95.9751 8.16551 96.0956 8.34155L101.35 15.3999L106.553 8.41155C106.783 8.05601 107.169 7.83191 107.591 7.80877C107.921 7.81054 108.235 7.95182 108.455 8.19766C108.693 8.41113 108.834 8.71349 108.843 9.03377C108.834 9.31474 108.739 9.58616 108.571 9.81155L102.862 17.4104L108.552 25.0443ZM128.288 8.20544C128.545 8.44003 128.687 8.77522 128.677 9.12321C128.686 9.46653 128.544 9.7966 128.288 10.0254C128.025 10.2482 127.688 10.3647 127.343 10.3521H122.474V25.7015C122.481 26.0522 122.34 26.3896 122.085 26.631C121.516 27.1391 120.656 27.1391 120.086 26.631C119.833 26.3887 119.692 26.052 119.697 25.7015V10.3521H114.84C114.494 10.3652 114.157 10.244 113.899 10.0138C113.649 9.77566 113.514 9.44095 113.53 9.09599C113.518 8.75976 113.653 8.43514 113.899 8.20544C114.157 7.97523 114.494 7.85397 114.84 7.8671H127.343C127.69 7.85458 128.028 7.97569 128.288 8.20544V8.20544Z" fill="#758399"/>
<path fill-rule="evenodd" clip-rule="evenodd" d="M134.277 26.5223C133.391 26.0208 132.655 25.2935 132.142 24.4145C131.99 24.1971 131.903 23.9407 131.893 23.6756C131.893 23.3326 132.043 23.0069 132.305 22.785C132.528 22.5521 132.831 22.413 133.153 22.3962C133.641 22.4418 134.089 22.69 134.386 23.0806C134.993 24.0808 136.085 24.6845 137.256 24.6673C138.205 24.6894 139.124 24.3244 139.799 23.6562C140.481 23.01 140.859 22.1065 140.841 21.1673V9.17782C140.837 8.82364 140.986 8.48486 141.249 8.24837C141.504 7.99739 141.848 7.85757 142.206 7.85949C142.568 7.84185 142.92 7.97575 143.178 8.22893C143.426 8.47861 143.559 8.81892 143.548 9.17004V21.1867C143.558 22.2638 143.274 23.3233 142.727 24.2512C142.185 25.1758 141.407 25.9396 140.472 26.4639C139.492 27.0189 138.382 27.3034 137.256 27.2884C136.213 27.2994 135.185 27.0352 134.277 26.5223ZM153.083 26.7245C152 26.313 151.005 25.6964 150.155 24.9084C149.804 24.6394 149.594 24.2263 149.583 23.7845C149.588 23.4485 149.728 23.1285 149.972 22.8978C150.205 22.6472 150.532 22.506 150.874 22.5089C151.163 22.505 151.441 22.6122 151.652 22.8084C152.309 23.4355 153.073 23.94 153.908 24.2978C154.747 24.6317 155.645 24.7956 156.548 24.78C157.577 24.8126 158.592 24.5348 159.461 23.9828C160.184 23.5766 160.637 22.817 160.651 21.9878C160.665 21.097 160.214 20.2632 159.461 19.7867C158.369 19.1453 157.17 18.7053 155.922 18.4878C154.04 18.0989 152.597 17.4728 151.582 16.5978C150.567 15.7228 150.066 14.5095 150.066 12.9617C150.044 11.9452 150.344 10.9478 150.921 10.1112C151.509 9.28062 152.317 8.63127 153.254 8.23671C154.327 7.78431 155.482 7.56048 156.646 7.57949C157.736 7.57255 158.82 7.75818 159.846 8.12782C160.751 8.43312 161.581 8.92759 162.281 9.57837C162.654 9.85381 162.885 10.2816 162.911 10.745C162.911 11.0746 162.777 11.3902 162.541 11.62C162.315 11.873 161.99 12.015 161.651 12.0089C161.421 12.0177 161.197 11.9384 161.024 11.7873C160.457 11.2551 159.786 10.846 159.053 10.5856C158.294 10.2795 157.484 10.1186 156.665 10.1112C155.64 10.0584 154.623 10.3218 153.752 10.8656C153.076 11.3137 152.669 12.0708 152.669 12.882C152.669 13.6932 153.076 14.4503 153.752 14.8984C154.748 15.4793 155.836 15.8869 156.968 16.1039C158.171 16.3406 159.345 16.707 160.468 17.1967C161.316 17.5717 162.042 18.1783 162.561 18.9467C163.086 19.8301 163.342 20.8481 163.296 21.875C163.311 22.8845 163 23.872 162.409 24.6906C161.787 25.5347 160.951 26.1968 159.986 26.6078C158.926 27.0717 157.779 27.305 156.622 27.2923C155.418 27.3147 154.22 27.1224 153.083 26.7245V26.7245Z" fill="#758399"/>
<path fill-rule="evenodd" clip-rule="evenodd" d="M12.0606 26.7867C12.0328 26.7377 12.0082 26.687 11.9867 26.635C11.8375 26.2899 11.7916 25.909 11.8544 25.5383H3.03055L16.1439 2.46167L20.4489 10.0294L21.6972 7.82056L17.9444 1.20944C17.8394 1.01889 17.2056 0 16.1128 0C15.6189 0 14.9111 0.213889 14.3356 1.225L1.0511 24.5817C0.938325 24.7839 0.389992 25.8456 0.934437 26.7867C1.18333 27.2144 1.71221 27.7239 2.87888 27.7239H14.005C12.8461 27.7239 12.3094 27.2222 12.0606 26.7867V26.7867Z" fill="#758399"/>
<path fill-rule="evenodd" clip-rule="evenodd" d="M37.6417 24.5818L26.7256 5.35122C26.6128 5.149 25.9828 4.12622 24.8862 4.12622C24.3923 4.12622 23.6845 4.33622 23.1089 5.34733L21.6973 7.82066L22.9534 10.0296L24.8978 6.58789L35.6973 25.5384H31.5906C31.6431 25.8517 31.6137 26.1733 31.505 26.4718C31.4822 26.5377 31.4535 26.6014 31.4195 26.6623L31.3845 26.7323C30.8323 27.6734 29.6384 27.724 29.405 27.724H35.8295C36.0667 27.724 37.2567 27.6734 37.8089 26.7323C38.0539 26.3045 38.2289 25.5851 37.6417 24.5818Z" fill="#758399"/>
<path d="M31.3845 26.7322L31.4195 26.6622C31.4536 26.6013 31.4822 26.5376 31.5051 26.4717C31.6137 26.1732 31.6432 25.8516 31.5906 25.5383C31.5301 25.2005 31.4089 24.8763 31.2328 24.5817L22.9612 10.0294L21.6973 7.82056L20.4412 10.0294L12.1734 24.5817C12.0129 24.8798 11.905 25.2035 11.8545 25.5383C11.788 25.9079 11.8298 26.2888 11.9751 26.635C11.9966 26.687 12.0212 26.7377 12.049 26.7867C12.2978 27.2144 12.8267 27.7239 13.9934 27.7239H29.3934C29.6384 27.7239 30.8323 27.6733 31.3845 26.7322V26.7322ZM21.6973 12.2383L29.2573 25.5383H14.1412L21.6973 12.2383Z" fill="#758399"/>
</g>
</g>
<defs>
<clipPath id="clip0_510_1762">
<rect width="163" height="28" fill="white" transform="translate(0.697266)"/>
</clipPath>
<clipPath id="clip1_510_1762">
<rect width="163" height="28" fill="white" transform="translate(0.697266)"/>
</clipPath>
</defs>
</svg>
