<svg width="184" height="48" viewBox="0 0 184 48" fill="none" xmlns="http://www.w3.org/2000/svg">
<g clip-path="url(#clip0_517_1667)">
<g clip-path="url(#clip1_517_1667)">
<path fill-rule="evenodd" clip-rule="evenodd" d="M75.1894 17.2054C75.4114 17.4369 75.5306 17.7482 75.5199 18.0688V34.6665C75.5292 35.0219 75.3962 35.3663 75.1505 35.6232C74.9048 35.8809 74.5614 36.0223 74.2055 36.0121C74.006 36.0124 73.8078 35.9809 73.6183 35.9188C73.4447 35.8653 73.2888 35.7658 73.1672 35.631L62.4144 21.631V34.8104C62.4242 35.132 62.3007 35.4434 62.0732 35.6709C61.8457 35.8985 61.5343 36.0219 61.2127 36.0121C60.8942 36.0243 60.5857 35.8998 60.3649 35.6699C60.1453 35.4387 60.0276 35.1291 60.0383 34.8104V18.1777C60.0302 17.8233 60.1713 17.4818 60.4272 17.2365C60.6666 16.9909 60.9981 16.8568 61.341 16.8671C61.5569 16.8661 61.7708 16.907 61.971 16.9877C62.1532 17.0582 62.313 17.1764 62.4338 17.3299L73.1399 31.361V18.0688C73.1301 17.7472 73.2536 17.4358 73.4811 17.2083C73.7086 16.9808 74.02 16.8573 74.3416 16.8671C74.6592 16.8554 74.9671 16.9782 75.1894 17.2054ZM97.2783 17.2054C97.5108 17.464 97.6336 17.8029 97.6205 18.1504V28.6504C97.6428 30.0076 97.3132 31.3474 96.6638 32.5393C96.0488 33.6639 95.135 34.5965 94.0233 35.2343C92.8713 35.8953 91.5635 36.2363 90.2355 36.2221C88.8955 36.2433 87.5739 35.9092 86.4049 35.2538C85.2881 34.6187 84.3699 33.6856 83.7527 32.5588C83.1034 31.3668 82.7738 30.027 82.796 28.6699V18.1699C82.7859 17.814 82.9272 17.4705 83.1849 17.2249C83.4473 16.9683 83.8019 16.8281 84.1688 16.836C84.5147 16.8362 84.8458 16.9765 85.0866 17.2249C85.3415 17.466 85.4827 17.8035 85.4755 18.1543V28.6543C85.4614 29.5508 85.6884 30.4345 86.1327 31.2132C86.9706 32.6903 88.5373 33.6036 90.2355 33.6049C91.088 33.6109 91.9273 33.3937 92.6699 32.9749C93.4191 32.5609 94.0425 31.9522 94.4744 31.2132C94.9258 30.4369 95.1571 29.5522 95.1433 28.6543V18.1543C95.1306 17.8096 95.2471 17.4726 95.4699 17.2093C95.6997 16.9522 96.0314 16.8098 96.376 16.8204C96.7182 16.8126 97.0472 16.9529 97.2783 17.2054V17.2054ZM118.329 34.0443C118.493 34.2701 118.579 34.5431 118.574 34.8221C118.588 35.1742 118.446 35.5146 118.185 35.7515C117.944 35.979 117.626 36.1057 117.294 36.1054C116.869 36.1216 116.465 35.9154 116.229 35.561L110.913 28.4638L105.717 35.5493C105.483 35.9096 105.081 36.1252 104.652 36.121C104.337 36.1279 104.035 36.004 103.815 35.7788C103.598 35.5785 103.474 35.2966 103.473 35.001C103.479 34.6717 103.596 34.354 103.804 34.0988L109.412 26.4649L103.777 18.8893C103.601 18.668 103.503 18.3943 103.5 18.1115C103.493 17.7608 103.635 17.4232 103.889 17.1821C104.13 16.9337 104.461 16.7934 104.807 16.7932C105.011 16.7943 105.212 16.8422 105.394 16.9332C105.587 17.0246 105.752 17.1655 105.873 17.3415L111.127 24.3999L116.33 17.4115C116.56 17.056 116.946 16.8319 117.368 16.8088C117.698 16.8105 118.012 16.9518 118.232 17.1977C118.471 17.4111 118.611 17.7135 118.62 18.0338C118.611 18.3147 118.516 18.5862 118.348 18.8115L112.639 26.4104L118.329 34.0443ZM138.065 17.2054C138.322 17.44 138.464 17.7752 138.454 18.1232C138.463 18.4665 138.321 18.7966 138.065 19.0254C137.802 19.2482 137.465 19.3647 137.12 19.3521H132.251V34.7015C132.258 35.0522 132.117 35.3896 131.862 35.631C131.293 36.1391 130.433 36.1391 129.863 35.631C129.61 35.3887 129.469 35.052 129.474 34.7015V19.3521H124.617C124.272 19.3652 123.934 19.244 123.676 19.0138C123.426 18.7757 123.291 18.4409 123.307 18.096C123.296 17.7598 123.43 17.4351 123.676 17.2054C123.934 16.9752 124.272 16.854 124.617 16.8671H137.12C137.467 16.8546 137.805 16.9757 138.065 17.2054V17.2054Z" fill="#758399"/>
<path fill-rule="evenodd" clip-rule="evenodd" d="M144.054 35.5223C143.168 35.0208 142.432 34.2935 141.919 33.4145C141.767 33.1971 141.68 32.9407 141.67 32.6756C141.67 32.3326 141.82 32.0069 142.082 31.785C142.305 31.5521 142.608 31.413 142.93 31.3962C143.418 31.4418 143.866 31.69 144.163 32.0806C144.771 33.0808 145.862 33.6845 147.033 33.6673C147.983 33.6894 148.901 33.3244 149.576 32.6562C150.258 32.01 150.636 31.1065 150.618 30.1673V18.1778C150.614 17.8236 150.763 17.4849 151.027 17.2484C151.282 16.9974 151.626 16.8576 151.983 16.8595C152.345 16.8418 152.697 16.9757 152.955 17.2289C153.203 17.4786 153.336 17.8189 153.325 18.17V30.1867C153.335 31.2638 153.051 32.3233 152.504 33.2512C151.962 34.1758 151.184 34.9396 150.249 35.4639C149.269 36.0189 148.159 36.3034 147.033 36.2884C145.99 36.2994 144.962 36.0352 144.054 35.5223ZM162.86 35.7245C161.777 35.313 160.782 34.6964 159.932 33.9084C159.582 33.6394 159.371 33.2263 159.36 32.7845C159.365 32.4485 159.505 32.1285 159.749 31.8978C159.982 31.6472 160.31 31.506 160.652 31.5089C160.94 31.505 161.218 31.6122 161.429 31.8084C162.086 32.4355 162.85 32.94 163.685 33.2978C164.525 33.6317 165.422 33.7956 166.325 33.78C167.354 33.8126 168.369 33.5348 169.238 32.9828C169.961 32.5766 170.414 31.817 170.428 30.9878C170.442 30.097 169.991 29.2632 169.238 28.7867C168.146 28.1453 166.947 27.7053 165.699 27.4878C163.817 27.0989 162.374 26.4728 161.359 25.5978C160.344 24.7228 159.843 23.5095 159.843 21.9617C159.821 20.9452 160.121 19.9478 160.698 19.1112C161.286 18.2806 162.094 17.6313 163.032 17.2367C164.104 16.7843 165.259 16.5605 166.423 16.5795C167.513 16.5726 168.597 16.7582 169.623 17.1278C170.528 17.4331 171.358 17.9276 172.058 18.5784C172.431 18.8538 172.662 19.2816 172.688 19.745C172.688 20.0746 172.554 20.3902 172.318 20.62C172.092 20.873 171.767 21.015 171.428 21.0089C171.198 21.0177 170.974 20.9384 170.802 20.7873C170.234 20.2551 169.563 19.846 168.83 19.5856C168.071 19.2795 167.261 19.1186 166.442 19.1112C165.417 19.0584 164.4 19.3218 163.529 19.8656C162.853 20.3137 162.447 21.0708 162.447 21.882C162.447 22.6932 162.853 23.4503 163.529 23.8984C164.525 24.4793 165.613 24.8869 166.745 25.1039C167.948 25.3406 169.122 25.707 170.245 26.1967C171.094 26.5717 171.819 27.1783 172.338 27.9467C172.863 28.8301 173.119 29.8481 173.073 30.875C173.088 31.8845 172.777 32.872 172.186 33.6906C171.564 34.5347 170.728 35.1968 169.763 35.6078C168.703 36.0717 167.556 36.305 166.399 36.2923C165.195 36.3147 163.997 36.1224 162.86 35.7245V35.7245Z" fill="#758399"/>
<path fill-rule="evenodd" clip-rule="evenodd" d="M21.8377 35.7867C21.8099 35.7377 21.7853 35.687 21.7638 35.635C21.6146 35.2899 21.5687 34.909 21.6315 34.5383H12.8076L25.921 11.4617L30.226 19.0294L31.4743 16.8206L27.7215 10.2094C27.6165 10.0189 26.9827 9 25.8899 9C25.396 9 24.6882 9.21389 24.1127 10.225L10.8282 33.5817C10.7154 33.7839 10.1671 34.8456 10.7115 35.7867C10.9604 36.2144 11.4893 36.7239 12.656 36.7239H23.7821C22.6232 36.7239 22.0865 36.2222 21.8377 35.7867V35.7867Z" fill="#758399"/>
<path fill-rule="evenodd" clip-rule="evenodd" d="M47.4188 33.5818L36.5027 14.3512C36.3899 14.149 35.7599 13.1262 34.6633 13.1262C34.1694 13.1262 33.4616 13.3362 32.886 14.3473L31.4744 16.8207L32.7305 19.0296L34.6749 15.5879L45.4744 34.5384H41.3677C41.4202 34.8517 41.3908 35.1733 41.2821 35.4718C41.2593 35.5377 41.2306 35.6014 41.1966 35.6623L41.1616 35.7323C40.6094 36.6734 39.4155 36.724 39.1821 36.724H45.6066C45.8438 36.724 47.0338 36.6734 47.586 35.7323C47.831 35.3045 48.006 34.5851 47.4188 33.5818Z" fill="#758399"/>
<path d="M41.1616 35.7322L41.1966 35.6622C41.2307 35.6013 41.2593 35.5376 41.2822 35.4717C41.3908 35.1732 41.4203 34.8516 41.3677 34.5383C41.3072 34.2005 41.186 33.8763 41.0099 33.5817L32.7383 19.0294L31.4744 16.8206L30.2183 19.0294L21.9505 33.5817C21.79 33.8798 21.6821 34.2035 21.6316 34.5383C21.5651 34.9079 21.6069 35.2888 21.7522 35.635C21.7737 35.687 21.7983 35.7377 21.8261 35.7867C22.0749 36.2144 22.6038 36.7239 23.7705 36.7239H39.1705C39.4155 36.7239 40.6094 36.6733 41.1616 35.7322V35.7322ZM31.4744 21.2383L39.0344 34.5383H23.9183L31.4744 21.2383Z" fill="#758399"/>
</g>
</g>
<defs>
<clipPath id="clip0_517_1667">
<rect width="163" height="28" fill="white" transform="translate(10.4744 9)"/>
</clipPath>
<clipPath id="clip1_517_1667">
<rect width="163" height="28" fill="white" transform="translate(10.4744 9)"/>
</clipPath>
</defs>
</svg>
