<svg width="212" height="28" viewBox="0 0 212 28" fill="none" xmlns="http://www.w3.org/2000/svg">
<g clip-path="url(#clip0_511_1965)">
<g clip-path="url(#clip1_511_1965)">
<path fill-rule="evenodd" clip-rule="evenodd" d="M31.4415 14.0032C31.4415 11.9203 28.8332 9.94644 24.8341 8.72236C25.7569 4.64637 25.3468 1.40353 23.5395 0.365301C23.1246 0.122745 22.6398 0.00733773 22.1103 0.00641438V0C20.3479 0 18.0407 1.25612 15.7079 3.43511C13.3751 1.26894 11.068 0.0256352 9.30556 0.0256352V0.0320439C8.76723 0.0320439 8.28016 0.147402 7.85718 0.390936C6.05631 1.42916 5.65255 4.6656 6.58183 8.72877C2.59556 9.95926 0 11.9268 0 14.0032C0 16.0861 2.60838 18.06 6.60746 19.284C5.6846 23.36 6.09476 26.6029 7.90204 27.6411C8.31861 27.8846 8.80568 28 9.34402 28C11.1064 28 13.4136 26.7439 15.7464 24.5649C18.0792 26.7311 20.3864 27.9744 22.1488 27.9744C22.6871 27.9744 23.1742 27.859 23.5972 27.6155C25.398 26.5773 25.8018 23.3408 24.8725 19.2776C28.846 18.0536 31.4415 16.0797 31.4415 14.0032ZM16.7269 4.43488C18.8129 2.49613 20.771 1.43257 22.1039 1.42917V1.43557C22.3987 1.43557 22.6359 1.49325 22.8345 1.6022C23.7061 2.10208 24.0842 4.00549 23.7894 6.45365C23.7189 7.05608 23.6036 7.69055 23.4626 8.33784C22.2065 8.03021 20.835 7.79309 19.393 7.63928C18.5278 6.45365 17.6306 5.37698 16.7269 4.43488ZM9.30556 1.4548C10.6322 1.4548 12.5997 2.51225 14.6889 4.44129C13.7917 5.38338 12.8945 6.45365 12.0421 7.63928C10.5937 7.79309 9.22225 8.03021 7.96613 8.34424C7.81873 7.70337 7.70978 7.08171 7.63287 6.4857C7.33166 4.03754 7.70337 2.13413 8.56855 1.62783C8.76082 1.51247 9.01076 1.4612 9.30556 1.4612V1.4548ZM23.1028 9.72854C22.8657 10.5553 22.5709 11.4076 22.2376 12.26C21.9749 11.7473 21.6993 11.2346 21.3981 10.7219C21.1033 10.2092 20.7892 9.70931 20.4752 9.22224C21.3852 9.35683 22.2633 9.52346 23.1028 9.72854ZM18.6158 19.0021C19.1477 18.2394 19.6604 17.4191 20.1603 16.5539C20.641 15.7144 21.0832 14.8556 21.4869 13.9968C21.0832 13.138 20.641 12.2856 20.1539 11.4461C19.654 10.5873 19.1349 9.7734 18.603 9.01076C17.6545 8.93385 16.6867 8.88899 15.719 8.88899C14.7449 8.88899 13.7771 8.93385 12.8222 9.01717C12.2903 9.77981 11.7776 10.6001 11.2777 11.4653C10.7971 12.3049 10.3484 13.1637 9.9511 14.0224C10.3548 14.8812 10.7971 15.7336 11.2841 16.5731C11.784 17.4319 12.3031 18.2458 12.8351 19.0085C13.7836 19.0854 14.7513 19.1302 15.719 19.1302C16.6931 19.1302 17.6609 19.0854 18.6158 19.0021ZM22.2359 15.7208C22.5819 16.5795 22.8767 17.4383 23.1203 18.2715C22.2807 18.4765 21.3963 18.6496 20.4799 18.7842C20.7939 18.2907 21.1079 17.7844 21.4027 17.2653C21.6975 16.7526 21.9731 16.2335 22.2359 15.7208ZM13.9549 20.5081C14.5445 21.258 15.1405 21.9437 15.7365 22.5589C16.3262 21.9437 16.9222 21.258 17.499 20.5081C16.9158 20.5402 16.3197 20.553 15.7173 20.553C15.1213 20.553 14.5317 20.5338 13.9549 20.5081ZM10.9681 18.7842C10.058 18.6496 9.18 18.483 8.34044 18.2779C8.57757 17.4511 8.87237 16.5988 9.20563 15.7464C9.46839 16.2591 9.74397 16.7718 10.0452 17.2845C10.3464 17.7972 10.654 18.2971 10.9681 18.7842ZM17.4744 7.49828C16.8848 6.74845 16.2888 6.06271 15.6928 5.44747C15.1031 6.06271 14.5071 6.74845 13.9303 7.49828C14.5135 7.46624 15.1096 7.45342 15.712 7.45342C16.308 7.45342 16.8976 7.47265 17.4744 7.49828ZM10.9641 9.22224C10.65 9.71572 10.336 10.222 10.0412 10.7411C9.74639 11.2538 9.47081 11.7665 9.20805 12.2792C8.86197 11.4205 8.56717 10.5617 8.32364 9.72854C9.16319 9.52986 10.0476 9.35683 10.9641 9.22224ZM1.42742 14.0032C1.42742 15.0094 2.89503 16.2783 5.16374 17.2461C5.72131 17.4832 6.32374 17.7011 6.95821 17.8998C7.3171 16.65 7.79135 15.3491 8.38096 14.016C7.78494 12.6766 7.30428 11.3692 6.93898 10.1131C6.31733 10.3117 5.7149 10.5232 5.16374 10.7604C2.89503 11.7217 1.42742 12.997 1.42742 14.0032ZM8.59752 26.4042C7.72593 25.9043 7.34781 24.0009 7.64262 21.5528C7.71311 20.9503 7.82847 20.3159 7.96946 19.6686C9.22559 19.9762 10.5971 20.2133 12.039 20.3671C12.9042 21.5528 13.8015 22.6294 14.7051 23.5715C12.6158 25.5134 10.6547 26.5773 9.32172 26.5773C9.03332 26.5708 8.78979 26.5132 8.59752 26.4042ZM22.8674 26.3786C23.7326 25.8723 24.1043 23.9689 23.8031 21.5207C23.7326 20.9247 23.6172 20.3031 23.4698 19.6558C22.2137 19.9698 20.8422 20.2069 19.3938 20.3607C18.5414 21.5464 17.6442 22.6166 16.747 23.5587C18.8362 25.4878 20.8037 26.5452 22.1304 26.5452C22.4252 26.5452 22.6751 26.4939 22.8674 26.3786ZM26.2763 17.2461C25.7251 17.4832 25.1227 17.6947 24.501 17.8933C24.1357 16.6372 23.6551 15.3298 23.059 13.9904C23.6487 12.6574 24.1229 11.3564 24.4818 10.1067C25.1163 10.3053 25.7187 10.5232 26.2827 10.7604C28.5514 11.7281 30.019 12.997 30.019 14.0032C30.0126 15.0094 28.545 16.2847 26.2763 17.2461ZM18.642 14.0032C18.642 15.6208 17.3307 16.932 15.7131 16.932C14.0956 16.932 12.7843 15.6208 12.7843 14.0032C12.7843 12.3857 14.0956 11.0744 15.7131 11.0744C17.3307 11.0744 18.642 12.3857 18.642 14.0032Z" fill="#758399"/>
<path fill-rule="evenodd" clip-rule="evenodd" d="M56.7189 4.29116C59.7312 5.78882 60.4757 10.524 58.076 12.9237C57.4845 13.5155 56.2702 14.2718 55.3781 14.6046L53.7558 15.2098L55.0661 16.2629C56.1666 17.1473 61.1064 24.0364 61.1064 24.6866C61.1064 24.801 60.3832 24.8944 59.4991 24.8944H57.8918L56.7103 22.9617C54.4251 19.2231 52.4035 16.5389 51.4215 15.9403C50.6595 15.4753 49.8199 15.3351 47.7999 15.3341L45.1705 15.3329V20.1136V24.8944H43.8956H42.6207V14.1938V3.49341L49.0748 3.59636C54.5861 3.68464 55.7025 3.78599 56.7189 4.29116ZM134.615 6.80713C135.838 8.60407 138.336 12.2971 140.167 15.0141L143.495 19.9543L143.58 11.7473L143.665 3.54026H145.094H146.523V14.2349V24.9295L145.04 24.8323L143.557 24.7351L138.188 16.7837C135.235 12.4102 132.676 8.68853 132.5 8.51291C132.287 8.29969 132.181 10.968 132.181 16.544V24.8944H130.906H129.631V14.2173V3.54026H131.011H132.392L134.615 6.80713ZM178.714 4.9745V6.40873H177.439H176.164V4.9745V3.54026H177.439H178.714V4.9745ZM116.736 9.2772C118.096 9.2772 118.157 9.31736 118.157 10.2152C118.157 11.0904 118.067 11.1592 116.803 11.251L115.448 11.3489L115.36 16.1673C115.255 21.9176 115.448 22.6634 117.034 22.6634C117.718 22.6634 118.159 22.8192 118.162 23.0618C118.164 23.2811 118.252 23.7827 118.358 24.1773C118.541 24.8619 118.465 24.8944 116.661 24.8944C114.895 24.8944 114.376 24.6825 113.314 23.5274C113.28 23.4905 113.173 20.7351 113.075 17.4045L112.898 11.3489L112.022 11.2482C111.288 11.1637 111.145 10.9951 111.145 10.2123C111.145 9.38589 111.256 9.2772 112.101 9.2772H113.058V7.36011C113.058 5.53927 113.11 5.41146 114.093 4.81227L115.129 4.18121L115.222 6.72904L115.314 9.2772H116.736ZM170.746 6.72745V9.2772H172.021C173.225 9.2772 173.295 9.33043 173.295 10.2334C173.295 11.1363 173.225 11.1895 172.021 11.1895H170.746V16.544C170.746 22.4135 170.82 22.6634 172.562 22.6634C173.552 22.6634 173.614 22.7294 173.614 23.7789V24.8944H171.879C170.504 24.8944 169.958 24.7344 169.25 24.1257L168.355 23.3566L168.246 17.2732L168.136 11.1895H167.21C166.393 11.1895 166.284 11.0764 166.284 10.2334C166.284 9.38333 166.39 9.2772 167.24 9.2772C168.194 9.2772 168.196 9.2737 168.196 7.39612C168.196 5.62245 168.255 5.47743 169.232 4.85179C169.802 4.48686 170.375 4.18598 170.507 4.18312C170.638 4.18025 170.746 5.32509 170.746 6.72745ZM45.1705 9.23609V12.7009L47.725 12.9237C50.4204 13.1589 53.4004 12.9476 54.732 12.4268C55.8858 11.9758 56.682 10.7191 56.7014 9.31832C56.7412 6.42052 55.4237 5.77129 49.5047 5.77129H45.1705V9.23609ZM74.3339 10.3717C75.9798 11.6271 76.7781 13.1869 76.9649 15.512L77.1297 17.5639H71.5273C68.2244 17.5639 65.8458 17.6917 65.7323 17.8753C65.3486 18.4965 66.2878 20.8967 67.3182 21.9272C68.2731 22.882 68.5511 22.9821 70.2463 22.9821C72.3454 22.9821 73.27 22.5095 74.0244 21.0504C74.4372 20.2523 74.6963 20.1136 75.7758 20.1136C77.2097 20.1136 77.1944 20.0888 76.6118 21.4835C74.9388 25.4872 68.581 26.4517 65.2485 23.2068C63.9099 21.9033 63.3556 20.5665 63.1236 18.0793C62.7931 14.5402 64.2107 11.2861 66.6422 10.0023C68.8793 8.82143 72.5312 8.99673 74.3339 10.3717ZM90.9618 9.81998C92.5837 10.5623 92.8782 11.6622 93.0816 17.7379C93.1817 20.7262 93.4108 23.5587 93.5912 24.0326C93.9122 24.8772 93.8943 24.8944 92.6829 24.8944C91.5928 24.8944 91.4073 24.78 91.1097 23.9265L90.7721 22.9585L89.5645 23.7136C86.1491 25.8499 82.7742 25.6986 80.7723 23.3196C79.0044 21.2186 79.9516 17.8616 82.6279 16.7432C83.1748 16.5147 84.9026 16.158 86.4675 15.9502C90.5981 15.4023 90.8703 15.2627 90.6392 13.8113C90.3396 11.9293 89.2321 11.1895 86.7139 11.1895C84.792 11.1895 84.5562 11.267 83.7039 12.1795C83.1955 12.7238 82.7793 13.3756 82.7793 13.628C82.7793 13.984 82.5119 14.0385 81.5841 13.8709C80.9269 13.752 80.3513 13.6239 80.3051 13.5866C79.9912 13.3316 81.3725 11.0796 82.2563 10.4055C84.0606 9.02924 88.5707 8.72582 90.9618 9.81998ZM105.988 9.44931C107.064 9.6552 109.166 11.6102 109.426 12.6461C109.678 13.6484 109.36 14.058 108.33 14.058C107.673 14.058 107.325 13.7966 106.877 12.9654C106.149 11.6128 104.881 11.0582 103 11.2705C100.36 11.5678 99.2654 13.2657 99.2411 17.103C99.2284 19.1004 99.3642 19.9141 99.8464 20.7383C100.798 22.3628 101.974 23.0882 103.655 23.0882C105.438 23.0882 106.697 22.2481 107.201 20.7211C107.511 19.7844 107.718 19.6219 108.715 19.5368C109.991 19.4274 110.125 19.7159 109.531 21.2881C108.759 23.3324 106.042 25.194 103.815 25.2042C100.966 25.2176 98.2238 23.4232 97.2676 20.9194C96.5142 18.9468 96.7153 14.0143 97.6115 12.4845C98.518 10.9371 100.295 9.62524 101.921 9.30302C103.27 9.03529 103.956 9.06015 105.988 9.44931ZM160.252 9.41903C160.936 9.52995 161.764 9.99273 162.324 10.5763L163.256 11.5487L163.422 17.5043C163.531 21.4325 163.724 23.7043 163.99 24.1773C164.38 24.8692 164.348 24.8944 163.109 24.8944C161.979 24.8944 161.775 24.7778 161.424 23.9313L161.025 22.9681L159.867 23.7579C157.502 25.3716 154.19 25.5778 152.003 24.2477C150.786 23.508 150.348 22.5238 150.348 20.5334C150.348 19.2808 150.512 18.9185 151.547 17.8836C152.791 16.6393 152.958 16.5854 158.316 15.6892C160.617 15.3042 161.144 14.8545 160.938 13.4518C160.714 11.9261 159.831 11.3833 157.347 11.2431C155.265 11.1255 155.104 11.1672 154.263 12.043C153.775 12.5514 153.232 13.2 153.057 13.4843C152.828 13.8562 152.446 13.9547 151.702 13.8342C150.479 13.6366 150.417 13.2443 151.384 11.8238C152.477 10.2168 153.609 9.54174 155.655 9.2772C157.494 9.03944 158.01 9.05538 160.252 9.41903ZM207.444 9.79002C209.629 10.8915 211.223 13.6564 211.223 16.3457V17.5639H205.486H199.749V18.3709C199.749 19.641 200.527 21.182 201.643 22.1206C202.5 22.8419 202.97 22.9821 204.53 22.9821C206.186 22.9821 206.502 22.8728 207.374 22.0014C207.913 21.4621 208.355 20.8167 208.355 20.5672C208.355 20.2421 208.761 20.1136 209.789 20.1136C210.578 20.1136 211.223 20.1911 211.223 20.2858C211.223 20.3804 210.937 21.0175 210.588 21.7015C208.838 25.1335 203.882 26.2238 200.315 23.9615C198.266 22.6621 197.199 20.4203 197.201 17.4217C197.204 14.3684 197.655 12.9664 199.161 11.3317C200.795 9.5599 202.632 8.93235 205.327 9.22589C206.028 9.30238 206.981 9.55608 207.444 9.79002ZM178.714 17.0858V24.8944H177.439H176.164V17.2984C176.164 13.1203 176.26 9.60644 176.377 9.48979C176.493 9.37282 177.067 9.2772 177.651 9.2772H178.714V17.0858ZM185.478 13.7393C186.343 16.1058 187.275 18.7951 187.549 19.7152C187.822 20.6354 188.149 21.3885 188.277 21.3885C188.404 21.3885 189.495 18.6654 190.702 15.3367L192.897 9.28517L194.092 9.28102C194.749 9.27911 195.286 9.38493 195.285 9.51624C195.283 9.64755 194.483 11.8349 193.506 14.3767C192.53 16.9185 191.472 19.7152 191.156 20.5917C189.625 24.8326 189.584 24.8944 188.301 24.8944C187.179 24.8944 187.097 24.8208 186.605 23.3805C186.321 22.5477 185.729 20.9343 185.289 19.7949C182.361 12.2069 181.582 10.0839 181.582 9.68739C181.582 9.36581 181.911 9.26668 182.743 9.33776L183.903 9.43656L185.478 13.7393ZM68.2776 11.4936C67.2057 11.9369 66.1906 13.2682 65.9924 14.4905L65.8037 15.6516H70.1899H74.5761L74.3862 14.4564C74.2577 13.6494 73.8316 12.9249 73.074 12.2254C72.1245 11.3486 71.7191 11.1927 70.4337 11.2096C69.5984 11.2208 68.6282 11.3486 68.2776 11.4936ZM201.891 11.7559C201.062 12.269 199.749 14.4261 199.749 15.2742C199.749 15.547 200.986 15.6516 204.211 15.6516C209.152 15.6516 209.094 15.6819 208.214 13.5767C207.318 11.4308 203.971 10.467 201.891 11.7559ZM90.0528 17.09C89.9725 17.1703 88.4825 17.5256 86.7413 17.8797C83.2995 18.58 82.4606 19.1425 82.4606 20.7511C82.4606 21.2381 82.735 21.9753 83.0706 22.389C83.5965 23.0382 83.9589 23.1408 85.7051 23.1364C87.2809 23.1325 87.9505 22.9745 88.7244 22.4234C89.8048 21.654 90.7473 19.6929 90.7473 18.2138C90.7473 17.344 90.3849 16.7575 90.0528 17.09ZM160.525 17.0517C160.425 17.1531 158.928 17.5272 157.198 17.8832C155.467 18.2393 153.792 18.7655 153.475 19.0526C152.679 19.7726 152.707 21.7544 153.522 22.4922C155.155 23.9705 159.331 23.1122 160.381 21.0822C160.86 20.1567 160.987 16.5822 160.525 17.0517Z" fill="#758399"/>
</g>
</g>
<defs>
<clipPath id="clip0_511_1965">
<rect width="211.223" height="28" fill="white"/>
</clipPath>
<clipPath id="clip1_511_1965">
<rect width="211.223" height="28" fill="white"/>
</clipPath>
</defs>
</svg>
