<svg width="139" height="48" viewBox="0 0 139 48" fill="none" xmlns="http://www.w3.org/2000/svg">
<g clip-path="url(#clip0_517_1669)">
<g clip-path="url(#clip1_517_1669)">
<path fill-rule="evenodd" clip-rule="evenodd" d="M42.396 23.0032C42.396 20.9203 39.7876 18.9464 35.7885 17.7224C36.7114 13.6464 36.3012 10.4035 34.494 9.3653C34.0791 9.12275 33.5942 9.00734 33.0648 9.00641V9C31.3024 9 28.9952 10.2561 26.6624 12.4351C24.3296 10.2689 22.0224 9.02564 20.26 9.02564V9.03204C19.7217 9.03204 19.2346 9.1474 18.8116 9.39094C17.0108 10.4292 16.607 13.6656 17.5363 17.7288C13.55 18.9593 10.9545 20.9268 10.9545 23.0032C10.9545 25.0861 13.5628 27.06 17.5619 28.284C16.6391 32.36 17.0492 35.6029 18.8565 36.6411C19.2731 36.8846 19.7601 37 20.2985 37C22.0609 37 24.3681 35.7439 26.7009 33.5649C29.0337 35.7311 31.3408 36.9744 33.1032 36.9744C33.6416 36.9744 34.1287 36.859 34.5516 36.6155C36.3525 35.5772 36.7563 32.3408 35.827 28.2776C39.8004 27.0536 42.396 25.0797 42.396 23.0032ZM27.6814 13.4349C29.7673 11.4961 31.7255 10.4326 33.0584 10.4292V10.4356C33.3532 10.4356 33.5903 10.4932 33.789 10.6022C34.6606 11.1021 35.0387 13.0055 34.7439 15.4537C34.6734 16.0561 34.558 16.6905 34.417 17.3378C33.1609 17.0302 31.7894 16.7931 30.3475 16.6393C29.4823 15.4537 28.5851 14.377 27.6814 13.4349ZM20.26 10.4548C21.5867 10.4548 23.5541 11.5122 25.6434 13.4413C24.7462 14.3834 23.849 15.4537 22.9966 16.6393C21.5482 16.7931 20.1767 17.0302 18.9206 17.3442C18.7732 16.7034 18.6642 16.0817 18.5873 15.4857C18.2861 13.0375 18.6578 11.1341 19.523 10.6278C19.7153 10.5125 19.9652 10.4612 20.26 10.4612V10.4548ZM34.0573 18.7286C33.8201 19.5553 33.5253 20.4077 33.1921 21.26C32.9293 20.7473 32.6537 20.2346 32.3525 19.7219C32.0577 19.2092 31.7437 18.7093 31.4297 18.2223C32.3397 18.3568 33.2177 18.5235 34.0573 18.7286ZM29.5702 28.0021C30.1021 27.2394 30.6148 26.4191 31.1147 25.5539C31.5954 24.7143 32.0376 23.8556 32.4413 22.9968C32.0376 22.138 31.5954 21.2856 31.1083 20.4461C30.6084 19.5873 30.0893 18.7734 29.5574 18.0107C28.6089 17.9338 27.6411 17.889 26.6734 17.889C25.6993 17.889 24.7315 17.9338 23.7766 18.0172C23.2447 18.7798 22.732 19.6001 22.2321 20.4653C21.7514 21.3049 21.3028 22.1636 20.9055 23.0224C21.3092 23.8812 21.7514 24.7336 22.2385 25.5731C22.7384 26.4319 23.2575 27.2458 23.7894 28.0085C24.7379 28.0854 25.7057 28.1302 26.6734 28.1302C27.6475 28.1302 28.6153 28.0854 29.5702 28.0021ZM33.1905 24.7208C33.5365 25.5795 33.8313 26.4383 34.0749 27.2715C33.2353 27.4765 32.3509 27.6496 31.4344 27.7842C31.7485 27.2907 32.0625 26.7844 32.3573 26.2653C32.6521 25.7526 32.9277 25.2335 33.1905 24.7208ZM24.9094 29.5081C25.499 30.258 26.095 30.9437 26.691 31.5589C27.2806 30.9437 27.8766 30.258 28.4534 29.5081C27.8702 29.5402 27.2742 29.553 26.6718 29.553C26.0758 29.553 25.4862 29.5338 24.9094 29.5081ZM21.9225 27.7842C21.0124 27.6496 20.1344 27.4829 19.2949 27.2779C19.532 26.4511 19.8268 25.5988 20.16 24.7464C20.4228 25.2591 20.6984 25.7718 20.9996 26.2845C21.3008 26.7972 21.6084 27.2971 21.9225 27.7842ZM28.4289 16.4983C27.8393 15.7485 27.2432 15.0627 26.6472 14.4475C26.0576 15.0627 25.4616 15.7485 24.8848 16.4983C25.468 16.4662 26.064 16.4534 26.6664 16.4534C27.2625 16.4534 27.8521 16.4726 28.4289 16.4983ZM21.9186 18.2223C21.6045 18.7157 21.2905 19.222 20.9957 19.7411C20.7009 20.2538 20.4253 20.7665 20.1626 21.2793C19.8165 20.4205 19.5217 19.5617 19.2781 18.7286C20.1177 18.5299 21.0021 18.3568 21.9186 18.2223ZM12.3819 23.0032C12.3819 24.0094 13.8495 25.2783 16.1182 26.2461C16.6758 26.4832 17.2782 26.7011 17.9127 26.8998C18.2716 25.65 18.7458 24.3491 19.3354 23.016C18.7394 21.6766 18.2587 20.3692 17.8934 19.1131C17.2718 19.3117 16.6694 19.5232 16.1182 19.7604C13.8495 20.7217 12.3819 21.997 12.3819 23.0032ZM19.552 35.4042C18.6804 34.9043 18.3023 33.0009 18.5971 30.5527C18.6676 29.9503 18.7829 29.3158 18.9239 28.6686C20.1801 28.9762 21.5515 29.2133 22.9935 29.3671C23.8587 30.5527 24.7559 31.6294 25.6596 32.5715C23.5703 34.5134 21.6092 35.5772 20.2762 35.5772C19.9878 35.5708 19.7443 35.5131 19.552 35.4042ZM33.8218 35.3786C34.687 34.8723 35.0587 32.9689 34.7575 30.5207C34.687 29.9247 34.5717 29.3031 34.4243 28.6558C33.1681 28.9698 31.7967 29.2069 30.3483 29.3607C29.4959 30.5464 28.5987 31.6166 27.7014 32.5587C29.7907 34.4878 31.7582 35.5452 33.0848 35.5452C33.3796 35.5452 33.6296 35.4939 33.8218 35.3786ZM37.2308 26.246C36.6797 26.4832 36.0773 26.6946 35.4556 26.8933C35.0903 25.6372 34.6096 24.3298 34.0136 22.9904C34.6032 21.6573 35.0775 20.3563 35.4364 19.1066C36.0709 19.3053 36.6733 19.5232 37.2372 19.7603C39.506 20.7281 40.9736 21.997 40.9736 23.0032C40.9672 24.0094 39.4996 25.2847 37.2308 26.246ZM29.5965 23.0032C29.5965 24.6207 28.2852 25.932 26.6677 25.932C25.0501 25.932 23.7388 24.6207 23.7388 23.0032C23.7388 21.3857 25.0501 20.0744 26.6677 20.0744C28.2852 20.0744 29.5965 21.3857 29.5965 23.0032Z" fill="#758399"/>
<path fill-rule="evenodd" clip-rule="evenodd" d="M53.5752 23.1473V33.8012H54.8301H56.0852L56.1475 29.6199L56.21 25.4385L58.1811 25.3727L60.1522 25.307L60.7115 26.0601C61.0192 26.4743 62.2821 28.3856 63.5184 30.3072L65.7658 33.8012H67.2312C68.1335 33.8012 68.6969 33.7055 68.6969 33.5522C68.6969 33.4154 68.402 32.874 68.0416 32.3493C66.3892 29.9443 63.6201 25.7253 63.5163 25.4552C63.4398 25.2554 63.7422 25.0698 64.4252 24.898C68.7017 23.8211 70.1724 17.7903 66.9785 14.4281C65.3314 12.6941 64.4653 12.4934 58.6306 12.4934H53.5752V23.1473ZM122.911 14.2805C122.841 14.3942 122.81 15.2808 122.843 16.2511C122.878 17.2904 122.802 18.0978 122.659 18.217C122.525 18.3281 121.954 18.4518 121.389 18.4919L120.363 18.565V19.4815V20.3979L121.565 20.4671L122.768 20.5365L122.791 25.164C122.819 30.6813 122.9 31.8031 123.333 32.6405C123.989 33.9091 125.771 34.5174 127.482 34.0567C128.995 33.6493 129.226 33.3764 128.914 32.3692C128.658 31.5415 128.219 31.2617 127.923 31.7392C127.704 32.0945 126.279 32.0093 125.887 31.6173C125.344 31.0741 125.264 30.1452 125.336 25.2094L125.403 20.627L126.892 20.5125L128.382 20.3979L128.452 19.4349L128.521 18.472L126.962 18.4039L125.403 18.3359L125.289 16.2738L125.174 14.2118L124.107 14.1428C123.519 14.1048 122.981 14.1669 122.911 14.2805ZM63.734 15.3454C65.393 16.151 66.3125 18.3689 65.7252 20.148C64.9685 22.441 63.4964 23.077 59.1654 22.9826L56.21 22.9182L56.1468 19.1465C56.1122 17.0723 56.139 15.2307 56.2066 15.0542C56.405 14.5374 62.56 14.7754 63.734 15.3454ZM75.8813 18.4692C71.2605 20.2462 69.5176 26.5298 72.4374 30.8853C74.1592 33.4537 77.1536 34.6292 80.4929 34.0478C82.9674 33.6168 85.1717 32.314 84.743 31.5357C84.0552 30.2873 83.9698 30.2579 82.9635 30.924C81.8708 31.6468 80.1811 32.1974 79.0545 32.1974C76.3865 32.1974 74.472 30.5226 73.6201 27.4432L73.4774 26.9277H79.6656C83.6376 26.9277 85.9053 26.8439 85.9984 26.6933C86.2575 26.2743 85.6531 23.1773 85.0828 22.0017C84.3428 20.4758 82.8324 19.0464 81.3471 18.4658C79.7689 17.8488 77.4906 17.8504 75.8813 18.4692ZM93.0519 18.4188C91.9414 18.8026 90.139 19.8806 89.864 20.3257C89.752 20.5068 90.6141 22.1163 90.8233 22.1163C90.8749 22.1163 91.3739 21.7676 91.932 21.3416C94.2658 19.5603 97.7452 19.7511 98.9494 21.7266C99.2841 22.2753 99.3969 22.8779 99.3976 24.1211C99.3985 25.8094 99.2452 26.0837 98.6818 25.4011C98.1853 24.7997 96.5845 24.1884 95.0991 24.0333C90.5227 23.5549 87.4588 27.7892 89.6127 31.615C91.1278 34.3069 95.4375 35.0664 98.1892 33.1269C98.7356 32.7418 99.2243 32.4265 99.2754 32.4265C99.3263 32.4265 99.4008 32.7102 99.4406 33.0566C99.5089 33.6502 99.5792 33.6867 100.659 33.6867H101.804V27.6151C101.804 21.8159 101.782 21.5016 101.305 20.611C100.747 19.569 99.467 18.6181 98.1175 18.2433C96.7776 17.8715 94.3978 17.9537 93.0519 18.4188ZM110.478 18.4692C105.384 20.4282 103.965 28.0449 107.956 32.0047C109.751 33.7859 112.495 34.5825 114.998 34.0494C116.28 33.7763 118.565 32.4428 118.799 31.8306C118.924 31.5055 117.858 30.1354 117.48 30.1354C117.391 30.1354 116.994 30.4378 116.598 30.8076C115.626 31.7158 114.498 32.0508 112.901 31.906C110.084 31.6505 108.257 29.3891 108.259 26.16C108.261 22.4751 110.224 20.3001 113.558 20.2884C115.165 20.2829 116.059 20.6387 116.798 21.5786L117.283 22.1956L117.889 21.7435C119.025 20.8956 119.069 20.5975 118.184 19.7468C116.399 18.0309 113.058 17.4769 110.478 18.4692ZM80.5578 20.4089C81.0247 20.6039 81.6536 20.9904 81.9556 21.2681C82.607 21.8668 83.5839 23.8498 83.5871 24.5793L83.5894 25.0948H78.677C75.9095 25.0948 73.7072 25.0022 73.6334 24.8826C73.5612 24.7658 73.7095 24.116 73.9629 23.4388C74.4394 22.1649 75.4095 21.0603 76.6014 20.4339C77.4874 19.9683 79.4734 19.9557 80.5578 20.4089ZM97.5422 26.2493C99.0814 26.9479 99.3985 27.4398 99.3985 29.1305C99.3985 30.3324 99.3116 30.6577 98.883 31.0624C97.7374 32.1436 96.0802 32.5993 94.2768 32.3289C92.3687 32.0428 91.1164 30.1299 91.6179 28.2672C91.8672 27.3415 92.9055 26.214 93.7271 25.9769C94.7889 25.6703 96.5421 25.7957 97.5422 26.2493Z" fill="#758399"/>
</g>
</g>
<defs>
<clipPath id="clip0_517_1669">
<rect width="118.589" height="28" fill="white" transform="translate(10.395 9)"/>
</clipPath>
<clipPath id="clip1_517_1669">
<rect width="118.588" height="28" fill="white" transform="translate(10.9545 9)"/>
</clipPath>
</defs>
</svg>
