<svg width="232" height="48" viewBox="0 0 232 48" fill="none" xmlns="http://www.w3.org/2000/svg">
<g clip-path="url(#clip0_517_1665)">
<g clip-path="url(#clip1_517_1665)">
<path fill-rule="evenodd" clip-rule="evenodd" d="M42.1813 24.0032C42.1813 21.9203 39.5729 19.9464 35.5738 18.7224C36.4967 14.6464 36.0865 11.4035 34.2792 10.3653C33.8643 10.1227 33.3795 10.0073 32.8501 10.0064V10C31.0877 10 28.7805 11.2561 26.4477 13.4351C24.1149 11.2689 21.8077 10.0256 20.0453 10.0256V10.032C19.507 10.032 19.0199 10.1474 18.5969 10.3909C16.7961 11.4292 16.3923 14.6656 17.3216 18.7288C13.3353 19.9593 10.7397 21.9268 10.7397 24.0032C10.7397 26.0861 13.3481 28.06 17.3472 29.284C16.4243 33.36 16.8345 36.6029 18.6418 37.6411C19.0584 37.8846 19.5454 38 20.0838 38C21.8462 38 24.1533 36.7439 26.4861 34.5649C28.8189 36.7311 31.1261 37.9744 32.8885 37.9744C33.4269 37.9744 33.9139 37.859 34.3369 37.6155C36.1378 36.5773 36.5415 33.3408 35.6123 29.2776C39.5857 28.0536 42.1813 26.0797 42.1813 24.0032ZM27.4667 14.4349C29.5526 12.4961 31.5108 11.4326 32.8437 11.4292V11.4356C33.1385 11.4356 33.3756 11.4932 33.5743 11.6022C34.4459 12.1021 34.824 14.0055 34.5292 16.4537C34.4587 17.0561 34.3433 17.6905 34.2023 18.3378C32.9462 18.0302 31.5747 17.7931 30.1327 17.6393C29.2676 16.4537 28.3703 15.377 27.4667 14.4349ZM20.0453 11.4548C21.3719 11.4548 23.3394 12.5122 25.4287 14.4413C24.5315 15.3834 23.6342 16.4537 22.7819 17.6393C21.3335 17.7931 19.962 18.0302 18.7059 18.3442C18.5585 17.7034 18.4495 17.0817 18.3726 16.4857C18.0714 14.0375 18.4431 12.1341 19.3083 11.6278C19.5006 11.5125 19.7505 11.4612 20.0453 11.4612V11.4548ZM33.8425 19.7285C33.6054 20.5553 33.3106 21.4076 32.9774 22.26C32.7146 21.7473 32.439 21.2346 32.1378 20.7219C31.843 20.2092 31.529 19.7093 31.2149 19.2222C32.125 19.3568 33.003 19.5235 33.8425 19.7285ZM29.3555 29.0021C29.8875 28.2394 30.4002 27.4191 30.9 26.5539C31.3807 25.7144 31.8229 24.8556 32.2267 23.9968C31.8229 23.138 31.3807 22.2856 30.8936 21.4461C30.3937 20.5873 29.8746 19.7734 29.3427 19.0108C28.3942 18.9339 27.4265 18.889 26.4588 18.889C25.4846 18.889 24.5169 18.9339 23.562 19.0172C23.0301 19.7798 22.5173 20.6001 22.0175 21.4653C21.5368 22.3049 21.0882 23.1637 20.6908 24.0224C21.0946 24.8812 21.5368 25.7336 22.0239 26.5731C22.5238 27.4319 23.0429 28.2458 23.5748 29.0085C24.5233 29.0854 25.491 29.1302 26.4588 29.1302C27.4329 29.1302 28.4006 29.0854 29.3555 29.0021ZM32.9756 25.7208C33.3217 26.5795 33.6165 27.4383 33.86 28.2715C33.0205 28.4765 32.1361 28.6496 31.2196 28.7842C31.5336 28.2907 31.8477 27.7844 32.1425 27.2653C32.4373 26.7526 32.7129 26.2335 32.9756 25.7208ZM24.6946 30.5081C25.2843 31.258 25.8803 31.9437 26.4763 32.5589C27.0659 31.9437 27.6619 31.258 28.2387 30.5081C27.6555 30.5402 27.0595 30.553 26.4571 30.553C25.861 30.553 25.2714 30.5338 24.6946 30.5081ZM21.7078 28.7842C20.7977 28.6496 19.9197 28.483 19.0802 28.2779C19.3173 27.4511 19.6121 26.5988 19.9454 25.7464C20.2081 26.2591 20.4837 26.7718 20.7849 27.2845C21.0861 27.7972 21.3938 28.2971 21.7078 28.7842ZM28.2141 17.4983C27.6245 16.7485 27.0285 16.0627 26.4325 15.4475C25.8429 16.0627 25.2469 16.7485 24.6701 17.4983C25.2533 17.4662 25.8493 17.4534 26.4517 17.4534C27.0477 17.4534 27.6374 17.4726 28.2141 17.4983ZM21.7038 19.2222C21.3898 19.7157 21.0757 20.222 20.7809 20.7411C20.4861 21.2538 20.2106 21.7665 19.9478 22.2792C19.6017 21.4205 19.3069 20.5617 19.0634 19.7285C19.9029 19.5299 20.7873 19.3568 21.7038 19.2222ZM12.1672 24.0032C12.1672 25.0094 13.6348 26.2783 15.9035 27.2461C16.4611 27.4832 17.0635 27.7011 17.698 27.8998C18.0568 26.65 18.5311 25.3491 19.1207 24.016C18.5247 22.6766 18.044 21.3692 17.6787 20.1131C17.0571 20.3117 16.4546 20.5232 15.9035 20.7604C13.6348 21.7217 12.1672 22.997 12.1672 24.0032ZM19.3373 36.4042C18.4657 35.9043 18.0876 34.0009 18.3824 31.5528C18.4529 30.9503 18.5682 30.3159 18.7092 29.6686C19.9653 29.9762 21.3368 30.2133 22.7788 30.3671C23.644 31.5528 24.5412 32.6294 25.4448 33.5715C23.3556 35.5134 21.3945 36.5773 20.0615 36.5773C19.7731 36.5708 19.5295 36.5132 19.3373 36.4042ZM33.6071 36.3786C34.4723 35.8723 34.844 33.9689 34.5428 31.5207C34.4723 30.9247 34.3569 30.3031 34.2095 29.6558C32.9534 29.9698 31.5819 30.2069 30.1336 30.3607C29.2812 31.5464 28.384 32.6166 27.4867 33.5587C29.576 35.4878 31.5435 36.5452 32.8701 36.5452C33.1649 36.5452 33.4149 36.4939 33.6071 36.3786ZM37.016 27.2461C36.4648 27.4832 35.8624 27.6947 35.2408 27.8933C34.8755 26.6372 34.3948 25.3298 33.7988 23.9904C34.3884 22.6574 34.8627 21.3564 35.2215 20.1067C35.856 20.3053 36.4584 20.5232 37.0224 20.7604C39.2911 21.7281 40.7587 22.997 40.7587 24.0032C40.7523 25.0094 39.2847 26.2847 37.016 27.2461ZM29.3817 24.0032C29.3817 25.6208 28.0704 26.932 26.4529 26.932C24.8353 26.932 23.5241 25.6208 23.5241 24.0032C23.5241 22.3857 24.8353 21.0744 26.4529 21.0744C28.0704 21.0744 29.3817 22.3857 29.3817 24.0032Z" fill="#758399"/>
<path fill-rule="evenodd" clip-rule="evenodd" d="M67.4587 14.2912C70.4709 15.7888 71.2154 20.524 68.8158 22.9237C68.2242 23.5155 67.0099 24.2718 66.1178 24.6046L64.4956 25.2098L65.8058 26.2629C66.9063 27.1473 71.8462 34.0364 71.8462 34.6866C71.8462 34.801 71.123 34.8944 70.2389 34.8944H68.6316L67.4501 32.9617C65.1649 29.2231 63.1432 26.5389 62.1613 25.9403C61.3992 25.4753 60.5597 25.3351 58.5397 25.3341L55.9102 25.3329V30.1136V34.8944H54.6353H53.3605V24.1938V13.4934L59.8145 13.5964C65.3258 13.6846 66.4423 13.786 67.4587 14.2912ZM145.355 16.8071C146.578 18.6041 149.076 22.2971 150.907 25.0141L154.235 29.9543L154.32 21.7473L154.405 13.5403H155.834H157.263V24.2349V34.9295L155.78 34.8323L154.297 34.7351L148.928 26.7837C145.975 22.4102 143.415 18.6885 143.24 18.5129C143.027 18.2997 142.92 20.968 142.92 26.544V34.8944H141.646H140.371V24.2173V13.5403H141.751H143.132L145.355 16.8071ZM189.453 14.9745V16.4087H188.179H186.904V14.9745V13.5403H188.179H189.453V14.9745ZM127.475 19.2772C128.836 19.2772 128.897 19.3174 128.897 20.2152C128.897 21.0904 128.807 21.1592 127.542 21.251L126.188 21.3489L126.1 26.1673C125.995 31.9176 126.187 32.6634 127.773 32.6634C128.457 32.6634 128.898 32.8192 128.901 33.0618C128.904 33.2811 128.992 33.7827 129.098 34.1773C129.281 34.8619 129.204 34.8944 127.4 34.8944C125.635 34.8944 125.116 34.6825 124.054 33.5274C124.02 33.4905 123.913 30.7351 123.815 27.4045L123.638 21.3489L122.762 21.2482C122.027 21.1637 121.885 20.9951 121.885 20.2123C121.885 19.3859 121.996 19.2772 122.841 19.2772H123.797V17.3601C123.797 15.5393 123.849 15.4115 124.833 14.8123L125.869 14.1812L125.961 16.729L126.054 19.2772H127.475ZM181.485 16.7274V19.2772H182.76C183.964 19.2772 184.035 19.3304 184.035 20.2334C184.035 21.1363 183.964 21.1895 182.76 21.1895H181.485V26.544C181.485 32.4135 181.56 32.6634 183.302 32.6634C184.292 32.6634 184.354 32.7294 184.354 33.7789V34.8944H182.619C181.244 34.8944 180.698 34.7344 179.989 34.1257L179.095 33.3566L178.985 27.2732L178.876 21.1895H177.95C177.133 21.1895 177.023 21.0764 177.023 20.2334C177.023 19.3833 177.13 19.2772 177.98 19.2772C178.934 19.2772 178.936 19.2737 178.936 17.3961C178.936 15.6225 178.995 15.4774 179.972 14.8518C180.541 14.4869 181.115 14.186 181.246 14.1831C181.378 14.1802 181.485 15.3251 181.485 16.7274ZM55.9102 19.2361V22.7009L58.4648 22.9237C61.1602 23.1589 64.1402 22.9476 65.4718 22.4268C66.6256 21.9758 67.4217 20.7191 67.4411 19.3183C67.481 16.4205 66.1634 15.7713 60.2445 15.7713H55.9102V19.2361ZM85.0736 20.3717C86.7195 21.6271 87.5179 23.1869 87.7047 25.512L87.8694 27.5639H82.267C78.9641 27.5639 76.5855 27.6917 76.4721 27.8753C76.0883 28.4965 77.0276 30.8967 78.058 31.9272C79.0129 32.882 79.2908 32.9821 80.9861 32.9821C83.0852 32.9821 84.0098 32.5095 84.7642 31.0504C85.1769 30.2523 85.436 30.1136 86.5155 30.1136C87.9494 30.1136 87.9341 30.0888 87.3515 31.4835C85.6786 35.4872 79.3208 36.4517 75.9882 33.2068C74.6496 31.9033 74.0954 30.5665 73.8633 28.0793C73.5328 24.5402 74.9505 21.2861 77.382 20.0023C79.6191 18.8214 83.271 18.9967 85.0736 20.3717ZM101.702 19.82C103.323 20.5623 103.618 21.6622 103.821 27.7379C103.921 30.7262 104.151 33.5587 104.331 34.0326C104.652 34.8772 104.634 34.8944 103.423 34.8944C102.333 34.8944 102.147 34.78 101.849 33.9265L101.512 32.9585L100.304 33.7136C96.8889 35.8499 93.514 35.6986 91.5121 33.3196C89.7441 31.2186 90.6914 27.8616 93.3677 26.7432C93.9146 26.5147 95.6424 26.158 97.2073 25.9502C101.338 25.4023 101.61 25.2627 101.379 23.8113C101.079 21.9293 99.9718 21.1895 97.4536 21.1895C95.5318 21.1895 95.2959 21.267 94.4437 22.1795C93.9353 22.7238 93.519 23.3756 93.519 23.628C93.519 23.984 93.2516 24.0385 92.3239 23.8709C91.6667 23.752 91.091 23.6239 91.0448 23.5866C90.7309 23.3316 92.1122 21.0796 92.996 20.4055C94.8003 19.0292 99.3105 18.7258 101.702 19.82ZM116.728 19.4493C117.804 19.6552 119.906 21.6102 120.166 22.6461C120.418 23.6484 120.1 24.058 119.07 24.058C118.412 24.058 118.065 23.7966 117.617 22.9654C116.888 21.6128 115.62 21.0582 113.74 21.2705C111.099 21.5678 110.005 23.2657 109.981 27.103C109.968 29.1004 110.104 29.9141 110.586 30.7383C111.538 32.3628 112.714 33.0882 114.395 33.0882C116.178 33.0882 117.437 32.2481 117.941 30.7211C118.25 29.7844 118.458 29.6219 119.455 29.5368C120.731 29.4274 120.865 29.7159 120.271 31.2881C119.499 33.3324 116.781 35.194 114.554 35.2042C111.705 35.2176 108.964 33.4232 108.007 30.9194C107.254 28.9468 107.455 24.0143 108.351 22.4845C109.258 20.9371 111.035 19.6252 112.661 19.303C114.01 19.0353 114.695 19.0602 116.728 19.4493ZM170.992 19.419C171.675 19.5299 172.504 19.9927 173.063 20.5763L173.996 21.5487L174.161 27.5043C174.27 31.4325 174.464 33.7043 174.73 34.1773C175.119 34.8692 175.088 34.8944 173.848 34.8944C172.719 34.8944 172.515 34.7778 172.164 33.9313L171.765 32.9681L170.607 33.7579C168.242 35.3716 164.93 35.5778 162.743 34.2477C161.526 33.508 161.087 32.5238 161.087 30.5334C161.087 29.2808 161.251 28.9185 162.286 27.8836C163.53 26.6393 163.697 26.5854 169.055 25.6892C171.356 25.3042 171.884 24.8545 171.678 23.4518C171.454 21.9261 170.571 21.3833 168.087 21.2431C166.005 21.1255 165.844 21.1672 165.003 22.043C164.515 22.5514 163.972 23.2 163.797 23.4843C163.567 23.8562 163.186 23.9547 162.442 23.8342C161.218 23.6366 161.156 23.2443 162.123 21.8238C163.217 20.2168 164.349 19.5417 166.395 19.2772C168.234 19.0394 168.75 19.0554 170.992 19.419ZM218.184 19.79C220.369 20.8915 221.963 23.6564 221.963 26.3457V27.5639H216.226H210.489V28.3709C210.489 29.641 211.267 31.182 212.382 32.1206C213.239 32.8419 213.71 32.9821 215.27 32.9821C216.925 32.9821 217.242 32.8728 218.114 32.0014C218.653 31.4621 219.094 30.8167 219.094 30.5672C219.094 30.2421 219.501 30.1136 220.529 30.1136C221.317 30.1136 221.963 30.1911 221.963 30.2858C221.963 30.3804 221.677 31.0175 221.328 31.7015C219.577 35.1335 214.622 36.2238 211.055 33.9615C209.006 32.6621 207.938 30.4203 207.941 27.4217C207.943 24.3684 208.395 22.9664 209.901 21.3317C211.534 19.5599 213.372 18.9323 216.066 19.2259C216.768 19.3024 217.721 19.5561 218.184 19.79ZM189.453 27.0858V34.8944H188.179H186.904V27.2984C186.904 23.1203 186.999 19.6064 187.116 19.4898C187.233 19.3728 187.807 19.2772 188.391 19.2772H189.453V27.0858ZM196.217 23.7393C197.083 26.1058 198.015 28.7951 198.288 29.7152C198.561 30.6354 198.889 31.3885 199.016 31.3885C199.143 31.3885 200.235 28.6654 201.442 25.3367L203.636 19.2852L204.832 19.281C205.489 19.2791 206.026 19.3849 206.024 19.5162C206.023 19.6476 205.223 21.8349 204.246 24.3767C203.269 26.9185 202.211 29.7152 201.895 30.5917C200.365 34.8326 200.324 34.8944 199.041 34.8944C197.919 34.8944 197.837 34.8208 197.345 33.3805C197.061 32.5477 196.469 30.9343 196.029 29.7949C193.101 22.2069 192.322 20.0839 192.322 19.6874C192.322 19.3658 192.65 19.2667 193.482 19.3378L194.642 19.4366L196.217 23.7393ZM79.0173 21.4936C77.9455 21.9369 76.9304 23.2682 76.7321 24.4905L76.5434 25.6516H80.9297H85.3159L85.1259 24.4564C84.9975 23.6494 84.5713 22.9249 83.8137 22.2254C82.8643 21.3486 82.4589 21.1927 81.1735 21.2096C80.3381 21.2208 79.3679 21.3486 79.0173 21.4936ZM212.63 21.7559C211.802 22.269 210.489 24.4261 210.489 25.2742C210.489 25.547 211.726 25.6516 214.951 25.6516C219.892 25.6516 219.834 25.6819 218.954 23.5767C218.057 21.4308 214.71 20.467 212.63 21.7559ZM100.793 27.09C100.712 27.1703 99.2222 27.5256 97.481 27.8797C94.0392 28.58 93.2003 29.1425 93.2003 30.7511C93.2003 31.2381 93.4747 31.9753 93.8104 32.389C94.3362 33.0382 94.6986 33.1408 96.4449 33.1364C98.0206 33.1325 98.6903 32.9745 99.4641 32.4234C100.545 31.654 101.487 29.6929 101.487 28.2138C101.487 27.344 101.125 26.7575 100.793 27.09ZM171.264 27.0517C171.165 27.1531 169.668 27.5272 167.937 27.8832C166.207 28.2393 164.532 28.7655 164.214 29.0526C163.419 29.7726 163.446 31.7544 164.262 32.4922C165.895 33.9705 170.071 33.1122 171.121 31.0822C171.599 30.1567 171.727 26.5822 171.264 27.0517Z" fill="#758399"/>
</g>
</g>
<defs>
<clipPath id="clip0_517_1665">
<rect width="211.223" height="28" fill="white" transform="translate(10.7397 10)"/>
</clipPath>
<clipPath id="clip1_517_1665">
<rect width="211.223" height="28" fill="white" transform="translate(10.7397 10)"/>
</clipPath>
</defs>
</svg>
