<svg width="119" height="28" viewBox="0 0 119 28" fill="none" xmlns="http://www.w3.org/2000/svg">
<g clip-path="url(#clip0_510_1876)">
<g clip-path="url(#clip1_510_1876)">
<path fill-rule="evenodd" clip-rule="evenodd" d="M32.224 14.0032C32.224 11.9203 29.6156 9.94644 25.6165 8.72236C26.5394 4.64637 26.1292 1.40352 24.322 0.365301C23.9071 0.122745 23.4222 0.00733773 22.8928 0.00641438V0C21.1304 0 18.8232 1.25612 16.4904 3.43511C14.1576 1.26894 11.8505 0.0256352 10.088 0.0256352V0.0320439C9.5497 0.0320439 9.06263 0.147402 8.63965 0.390936C6.83878 1.42916 6.43502 4.6656 7.3643 8.72877C3.37803 9.95926 0.782471 11.9268 0.782471 14.0032C0.782471 16.0861 3.39085 18.06 7.38993 19.284C6.46707 23.36 6.87723 26.6029 8.68451 27.6411C9.10108 27.8846 9.58815 28 10.1265 28C11.8889 28 14.1961 26.7439 16.5289 24.5649C18.8617 26.7311 21.1688 27.9744 22.9313 27.9744C23.4696 27.9744 23.9567 27.859 24.3796 27.6155C26.1805 26.5772 26.5843 23.3408 25.655 19.2776C29.6284 18.0536 32.224 16.0797 32.224 14.0032ZM17.5094 4.43488C19.5953 2.49613 21.5535 1.43257 22.8864 1.42917V1.43557C23.1812 1.43557 23.4183 1.49325 23.617 1.6022C24.4886 2.10208 24.8667 4.00549 24.5719 6.45365C24.5014 7.05608 24.386 7.69055 24.2451 8.33784C22.9889 8.03021 21.6174 7.79309 20.1755 7.63928C19.3103 6.45365 18.4131 5.37697 17.5094 4.43488ZM10.088 1.4548C11.4147 1.4548 13.3822 2.51225 15.4714 4.44129C14.5742 5.38338 13.677 6.45365 12.8246 7.63928C11.3762 7.79309 10.0047 8.03021 8.7486 8.34424C8.6012 7.70336 8.49225 7.08171 8.41534 6.48569C8.11413 4.03754 8.48584 2.13413 9.35102 1.62783C9.54329 1.51247 9.79323 1.4612 10.088 1.4612V1.4548ZM23.8853 9.72855C23.6481 10.5553 23.3533 11.4077 23.0201 12.26C22.7573 11.7473 22.4818 11.2346 22.1805 10.7219C21.8857 10.2092 21.5717 9.70933 21.2577 9.22226C22.1677 9.35684 23.0457 9.52347 23.8853 9.72855ZM19.3982 19.0021C19.9301 18.2394 20.4428 17.4191 20.9427 16.5539C21.4234 15.7143 21.8656 14.8556 22.2693 13.9968C21.8656 13.138 21.4234 12.2856 20.9363 11.4461C20.4364 10.5873 19.9173 9.7734 19.3854 9.01075C18.4369 8.93384 17.4691 8.88898 16.5014 8.88898C15.5273 8.88898 14.5595 8.93384 13.6046 9.01716C13.0727 9.7798 12.56 10.6001 12.0601 11.4653C11.5795 12.3049 11.1308 13.1636 10.7335 14.0224C11.1372 14.8812 11.5795 15.7336 12.0665 16.5731C12.5664 17.4319 13.0855 18.2458 13.6174 19.0085C14.5659 19.0854 15.5337 19.1302 16.5014 19.1302C17.4755 19.1302 18.4433 19.0854 19.3982 19.0021ZM23.0185 15.7208C23.3645 16.5795 23.6593 17.4383 23.9029 18.2715C23.0633 18.4765 22.1789 18.6496 21.2624 18.7842C21.5765 18.2907 21.8905 17.7844 22.1853 17.2653C22.4801 16.7526 22.7557 16.2335 23.0185 15.7208ZM14.7374 20.5081C15.327 21.258 15.923 21.9437 16.519 22.5589C17.1086 21.9437 17.7046 21.258 18.2814 20.5081C17.6982 20.5402 17.1022 20.553 16.4998 20.553C15.9038 20.553 15.3142 20.5338 14.7374 20.5081ZM11.7505 18.7842C10.8404 18.6496 9.96242 18.4829 9.12286 18.2779C9.35999 17.4511 9.65479 16.5988 9.98805 15.7464C10.2508 16.2591 10.5264 16.7718 10.8276 17.2845C11.1288 17.7972 11.4364 18.2971 11.7505 18.7842ZM18.2569 7.49828C17.6673 6.74845 17.0712 6.06271 16.4752 5.44747C15.8856 6.06271 15.2896 6.74845 14.7128 7.49828C15.296 7.46624 15.892 7.45342 16.4945 7.45342C17.0905 7.45342 17.6801 7.47265 18.2569 7.49828ZM11.7466 9.22226C11.4325 9.71573 11.1185 10.222 10.8237 10.7411C10.5289 11.2538 10.2533 11.7665 9.99056 12.2793C9.64448 11.4205 9.34968 10.5617 9.10614 9.72855C9.9457 9.52988 10.8301 9.35684 11.7466 9.22226ZM2.20989 14.0032C2.20989 15.0094 3.6775 16.2783 5.94622 17.2461C6.50378 17.4832 7.10621 17.7011 7.74068 17.8998C8.09957 16.65 8.57382 15.3491 9.16343 14.016C8.56741 12.6766 8.08675 11.3692 7.72145 10.1131C7.0998 10.3117 6.49737 10.5232 5.94622 10.7604C3.6775 11.7217 2.20989 12.997 2.20989 14.0032ZM9.38 26.4042C8.5084 25.9043 8.13028 24.0009 8.42509 21.5527C8.49558 20.9503 8.61094 20.3158 8.75194 19.6686C10.0081 19.9762 11.3795 20.2133 12.8215 20.3671C13.6867 21.5527 14.5839 22.6294 15.4876 23.5715C13.3983 25.5134 11.4372 26.5772 10.1042 26.5772C9.81579 26.5708 9.57226 26.5131 9.38 26.4042ZM23.6498 26.3786C24.515 25.8723 24.8867 23.9689 24.5855 21.5207C24.515 20.9247 24.3997 20.3031 24.2523 19.6558C22.9961 19.9698 21.6247 20.2069 20.1763 20.3607C19.3239 21.5464 18.4267 22.6166 17.5294 23.5587C19.6187 25.4878 21.5862 26.5452 22.9128 26.5452C23.2076 26.5452 23.4576 26.4939 23.6498 26.3786ZM27.0588 17.246C26.5077 17.4832 25.9053 17.6946 25.2836 17.8933C24.9183 16.6372 24.4376 15.3298 23.8416 13.9904C24.4312 12.6573 24.9055 11.3563 25.2644 10.1066C25.8989 10.3053 26.5013 10.5232 27.0653 10.7603C29.334 11.7281 30.8016 12.997 30.8016 14.0032C30.7952 15.0094 29.3276 16.2847 27.0588 17.246ZM19.4245 14.0032C19.4245 15.6207 18.1132 16.932 16.4957 16.932C14.8781 16.932 13.5668 15.6207 13.5668 14.0032C13.5668 12.3857 14.8781 11.0744 16.4957 11.0744C18.1132 11.0744 19.4245 12.3857 19.4245 14.0032Z" fill="#758399"/>
<path fill-rule="evenodd" clip-rule="evenodd" d="M43.4032 14.1473V24.8012H44.6581H45.9132L45.9755 20.6199L46.038 16.4385L48.0091 16.3727L49.9802 16.307L50.5395 17.0601C50.8472 17.4743 52.1101 19.3856 53.3464 21.3072L55.5938 24.8012H57.0592C57.9615 24.8012 58.5249 24.7055 58.5249 24.5522C58.5249 24.4154 58.23 23.874 57.8696 23.3493C56.2172 20.9443 53.4481 16.7253 53.3443 16.4552C53.2678 16.2554 53.5702 16.0698 54.2532 15.898C58.5297 14.8211 60.0004 8.79035 56.8065 5.42807C55.1594 3.69411 54.2933 3.49341 48.4587 3.49341H43.4032V14.1473ZM112.739 5.28051C112.669 5.39415 112.638 6.28084 112.671 7.25114C112.706 8.29042 112.63 9.09782 112.487 9.21696C112.353 9.32808 111.782 9.45181 111.217 9.4919L110.191 9.56499V10.4815V11.3979L111.393 11.4671L112.596 11.5365L112.619 16.164C112.647 21.6813 112.728 22.8031 113.161 23.6405C113.817 24.9091 115.599 25.5174 117.31 25.0567C118.823 24.6493 119.054 24.3764 118.742 23.3692C118.486 22.5415 118.047 22.2617 117.751 22.7392C117.532 23.0945 116.107 23.0093 115.715 22.6173C115.172 22.0741 115.092 21.1452 115.164 16.2094L115.231 11.627L116.72 11.5125L118.21 11.3979L118.28 10.4349L118.349 9.47197L116.79 9.40392L115.231 9.33587L115.117 7.27383L115.002 5.21178L113.935 5.14282C113.347 5.10478 112.809 5.16687 112.739 5.28051ZM53.562 6.34545C55.221 7.15102 56.1405 9.36887 55.5532 11.148C54.7965 13.441 53.3244 14.077 48.9934 13.9826L46.038 13.9182L45.9748 10.1465C45.9402 8.0723 45.967 6.23066 46.0346 6.05424C46.233 5.53736 52.388 5.77541 53.562 6.34545ZM65.7093 9.46922C61.0885 11.2462 59.3456 17.5298 62.2654 21.8853C63.9872 24.4537 66.9816 25.6292 70.3209 25.0478C72.7954 24.6168 74.9997 23.314 74.571 22.5357C73.8832 21.2873 73.7978 21.2579 72.7915 21.924C71.6988 22.6468 70.0091 23.1974 68.8825 23.1974C66.2145 23.1974 64.3 21.5226 63.4481 18.4432L63.3054 17.9277H69.4936C73.4656 17.9277 75.7334 17.8439 75.8264 17.6933C76.0855 17.2743 75.4811 14.1773 74.9108 13.0017C74.1708 11.4758 72.6604 10.0464 71.1751 9.46578C69.5969 8.84877 67.3186 8.85038 65.7093 9.46922ZM82.8799 9.41881C81.7694 9.80258 79.967 10.8806 79.692 11.3257C79.58 11.5068 80.4421 13.1163 80.6513 13.1163C80.7029 13.1163 81.2019 12.7676 81.76 12.3416C84.0938 10.5603 87.5732 10.7511 88.7774 12.7266C89.1121 13.2753 89.2249 13.8779 89.2256 15.1211C89.2265 16.8094 89.0732 17.0837 88.5098 16.4011C88.0133 15.7997 86.4125 15.1884 84.9271 15.0333C80.3507 14.5549 77.2868 18.7892 79.4407 22.615C80.9558 25.3069 85.2655 26.0664 88.0172 24.1269C88.5636 23.7418 89.0523 23.4265 89.1034 23.4265C89.1543 23.4265 89.2288 23.7102 89.2686 24.0566C89.3369 24.6502 89.4072 24.6867 90.4866 24.6867H91.6322V18.6151C91.6322 12.8159 91.6097 12.5016 91.1332 11.611C90.5753 10.569 89.295 9.61815 87.9455 9.24331C86.6056 8.87146 84.2258 8.95371 82.8799 9.41881ZM100.306 9.46922C95.2121 11.4282 93.793 19.0449 97.7837 23.0047C99.5789 24.7859 102.323 25.5825 104.826 25.0494C106.108 24.7763 108.393 23.4428 108.627 22.8306C108.752 22.5055 107.686 21.1354 107.308 21.1354C107.219 21.1354 106.822 21.4378 106.426 21.8076C105.454 22.7158 104.326 23.0508 102.729 22.906C99.9118 22.6505 98.0848 20.3891 98.0866 17.16C98.0887 13.4751 100.052 11.3001 103.386 11.2884C104.993 11.2829 105.887 11.6387 106.626 12.5786L107.111 13.1956L107.717 12.7435C108.853 11.8956 108.897 11.5975 108.012 10.7468C106.227 9.03092 102.886 8.47692 100.306 9.46922ZM70.3858 11.4089C70.8527 11.6039 71.4816 11.9904 71.7836 12.2681C72.435 12.8668 73.4119 14.8498 73.4152 15.5793L73.4174 16.0948H68.505C65.7375 16.0948 63.5352 16.0022 63.4614 15.8826C63.3892 15.7658 63.5375 15.116 63.7909 14.4388C64.2674 13.1649 65.2375 12.0603 66.4294 11.4339C67.3154 10.9683 69.3014 10.9557 70.3858 11.4089ZM87.3702 17.2493C88.9094 17.9479 89.2265 18.4398 89.2265 20.1305C89.2265 21.3324 89.1396 21.6577 88.711 22.0624C87.5654 23.1436 85.9082 23.5993 84.1048 23.3289C82.1967 23.0428 80.9444 21.1299 81.4459 19.2672C81.6952 18.3415 82.7335 17.214 83.5552 16.9769C84.6169 16.6703 86.3701 16.7957 87.3702 17.2493Z" fill="#758399"/>
</g>
</g>
<defs>
<clipPath id="clip0_510_1876">
<rect width="118.589" height="28" fill="white" transform="translate(0.223022)"/>
</clipPath>
<clipPath id="clip1_510_1876">
<rect width="118.588" height="28" fill="white" transform="translate(0.782471)"/>
</clipPath>
</defs>
</svg>
