<svg width="151" height="48" viewBox="0 0 151 48" fill="none" xmlns="http://www.w3.org/2000/svg">
<g clip-path="url(#clip0_517_1666)">
<path d="M53.0621 32.7532C51.6861 32.7881 50.3317 32.406 49.1767 31.6573C48.099 30.9456 47.299 29.8847 46.9113 28.6527L49.2702 27.7833C49.5977 28.5396 50.1328 29.1877 50.8136 29.6523C51.5054 30.116 52.3228 30.3562 53.1555 30.3405C53.9551 30.3826 54.7444 30.1442 55.387 29.6665C55.6664 29.4315 55.8871 29.1346 56.0317 28.7993C56.1762 28.464 56.2405 28.0997 56.2196 27.7352C56.223 27.3958 56.1443 27.0606 55.9902 26.7582C55.8565 26.4875 55.6817 26.2391 55.472 26.0219C55.2059 25.7798 54.904 25.5802 54.5771 25.43C54.175 25.229 53.8436 25.0761 53.5775 24.9713C53.3113 24.8665 52.9205 24.7249 52.4079 24.5493C51.7622 24.3228 51.2752 24.1472 50.958 24.0169C50.5224 23.8327 50.0996 23.6199 49.6921 23.3798C49.2521 23.147 48.8524 22.8448 48.5084 22.4849C48.212 22.1329 47.9731 21.7363 47.8005 21.3097C47.4669 20.4985 47.3968 19.6029 47.6001 18.7497C47.8033 17.8964 48.2697 17.1287 48.9332 16.555C49.8998 15.7036 51.211 15.2778 52.8667 15.2778C54.2524 15.2778 55.3908 15.5827 56.2819 16.1925C57.1494 16.7684 57.7862 17.6318 58.0801 18.6308L55.7636 19.4038C55.5275 18.8798 55.1308 18.4444 54.6309 18.1607C54.0311 17.8303 53.3526 17.6698 52.6684 17.6962C51.9956 17.6572 51.3289 17.8435 50.7739 18.2258C50.5473 18.4017 50.3667 18.6298 50.2473 18.8907C50.128 19.1515 50.0735 19.4374 50.0886 19.7238C50.0906 19.9433 50.1388 20.1598 50.2301 20.3593C50.3213 20.5589 50.4535 20.737 50.6182 20.8821C50.9394 21.197 51.3156 21.4504 51.7282 21.6297C52.1134 21.7911 52.7024 22.0063 53.4897 22.281C53.9711 22.4594 54.3392 22.5897 54.5629 22.6803C54.7867 22.7709 55.1293 22.9154 55.5881 23.1249C55.9493 23.2853 56.2968 23.4747 56.6274 23.6913C56.9232 23.9046 57.2069 24.1343 57.4769 24.3794C57.7674 24.6322 58.0159 24.9295 58.2132 25.2601C58.4012 25.6037 58.5467 25.9689 58.6465 26.3476C58.7701 26.7909 58.8311 27.2494 58.8277 27.7097C58.8277 29.288 58.2887 30.5227 57.2107 31.4138C56.1327 32.3049 54.7498 32.7513 53.0621 32.7532ZM68.5297 32.47L62.7385 15.5723H65.4401L69.2773 27.3472C69.489 27.981 69.6668 28.6257 69.8097 29.2785C69.9501 28.6254 70.1269 27.9806 70.3392 27.3472L74.1283 15.5723H76.8072L71.0387 32.4644L68.5297 32.47ZM81.9215 32.47V15.5723H92.3994V17.9369H84.4334V22.5699H89.5732V24.9345H84.4334V30.0884H92.929V32.4531L81.9215 32.47ZM99.3205 32.47V15.5723H101.832V30.0516H110.084V32.4644L99.3205 32.47ZM119.543 17.9908V32.4644H117.034V17.9851H112.256V15.5723H124.314V17.9851L119.543 17.9908ZM129.511 32.47V15.5723H139.989V17.9369H132.02V22.5699H137.16V24.9345H132.02V30.0884H140.516V32.4531L129.511 32.47Z" fill="#758399"/>
<path fill-rule="evenodd" clip-rule="evenodd" d="M22.4926 9.5745C26.6979 6.89557 32.5146 8.14442 35.4597 12.3582V12.3809C36.1586 13.3594 36.6551 14.4676 36.9201 15.6405C37.1852 16.8134 37.2134 18.0274 37.0031 19.2113C36.7976 20.3413 36.366 21.4181 35.7344 22.3773C36.657 24.1358 36.967 26.1518 36.6151 28.1062C36.404 29.2639 35.9547 30.3652 35.2956 31.3402C34.6365 32.3151 33.7821 33.1425 32.7864 33.7699L25.4009 38.4566C21.1956 41.1356 15.379 39.8867 12.4339 35.6729C11.7344 34.6947 11.2375 33.5865 10.9725 32.4135C10.7074 31.2405 10.6796 30.0264 10.8905 28.8425C11.0937 27.7123 11.5243 26.6352 12.1563 25.6765C11.2342 23.9168 10.9253 21.8998 11.2785 19.9448C11.4879 18.7864 11.9366 17.6845 12.5958 16.7093C13.255 15.7341 14.1103 14.9071 15.1071 14.2811L22.4926 9.5745ZM18.2541 35.9024C19.3803 36.3201 20.6076 36.3824 21.7703 36.0806C22.3011 35.9379 22.8071 35.7154 23.2712 35.4208L30.6595 30.7143C31.2597 30.3365 31.7745 29.8376 32.1709 29.2496C32.5674 28.6615 32.8367 27.9972 32.9618 27.299C33.0883 26.5872 33.0714 25.8573 32.9118 25.1522C32.7523 24.447 32.4535 23.7809 32.0329 23.1929C31.3489 22.206 30.3784 21.453 29.2525 21.0356C28.1266 20.6183 26.8997 20.5568 25.7377 20.8594C25.2061 20.9997 24.6996 21.2223 24.2368 21.5192L21.405 23.3146C21.2644 23.4024 21.1118 23.4692 20.9519 23.5129C20.6038 23.6006 20.2373 23.5804 19.9009 23.4549C19.5646 23.3295 19.2743 23.1048 19.0687 22.8106C18.9419 22.6327 18.8517 22.4316 18.8031 22.2187C18.7544 22.0058 18.7485 21.7854 18.7855 21.5702C18.8238 21.3602 18.9052 21.1604 19.0246 20.9835C19.144 20.8065 19.2989 20.6563 19.4793 20.5422L26.8676 15.8442C27.0076 15.7553 27.1604 15.6884 27.3207 15.646C27.6672 15.5547 28.0332 15.5712 28.3702 15.6931C28.7071 15.815 28.9989 16.0366 29.2067 16.3284C29.4333 16.6478 29.5396 17.037 29.5069 17.4272L29.4814 17.7104L29.7646 17.7925C30.8023 18.1067 31.7791 18.5951 32.6531 19.2367L33.0298 19.5199L33.1713 19.0952C33.2441 18.8696 33.3027 18.6398 33.3469 18.407C33.4738 17.6952 33.457 16.9652 33.2975 16.2601C33.1379 15.5549 32.8389 14.8887 32.4181 14.3008C31.7342 13.3137 30.7637 12.5604 29.6379 12.1426C28.5121 11.7248 27.2851 11.6626 26.1229 11.9645C25.596 12.1069 25.0937 12.3284 24.6333 12.6215L17.2365 17.3281C16.6362 17.7059 16.1215 18.2047 15.725 18.7928C15.3286 19.3809 15.0592 20.0452 14.9342 20.7433C14.8064 21.4545 14.822 22.1841 14.9801 22.8893C15.1381 23.5944 15.4354 24.2608 15.8545 24.8495C16.5385 25.8341 17.5077 26.5856 18.6317 27.0028C19.7557 27.42 20.9805 27.4828 22.1413 27.1829C22.671 27.0412 23.1762 26.8196 23.6393 26.526L26.4712 24.7277C26.6112 24.6388 26.764 24.572 26.9243 24.5295C27.2744 24.4386 27.6439 24.4573 27.9832 24.5828C28.3224 24.7084 28.615 24.9349 28.8216 25.2318C28.949 25.4087 29.0397 25.6094 29.0883 25.8219C29.1369 26.0345 29.1425 26.2546 29.1048 26.4693C29.0674 26.68 28.9864 26.8805 28.8669 27.0581C28.7474 27.2356 28.5921 27.3862 28.411 27.5001L21.0368 32.2067C20.8966 32.295 20.7438 32.3619 20.5837 32.4049C20.2336 32.4957 19.8641 32.4771 19.5248 32.3516C19.1856 32.226 18.893 31.9995 18.6864 31.7026C18.4596 31.3862 18.3505 31.0006 18.3777 30.6123L18.4032 30.3291L18.12 30.247C17.086 29.9354 16.1123 29.4509 15.24 28.8141L14.8605 28.5309L14.7218 28.9557C14.6467 29.1786 14.588 29.4067 14.5462 29.6382C14.4189 30.3498 14.4353 31.0796 14.5943 31.7848C14.7534 32.49 15.0519 33.1563 15.4722 33.7444C16.1569 34.7314 17.1278 35.4846 18.2541 35.9024Z" fill="#758399"/>
</g>
<defs>
<clipPath id="clip0_517_1666">
<rect width="130.265" height="32" fill="white" transform="translate(10.4744 8)"/>
</clipPath>
</defs>
</svg>
