<svg width="131" height="32" viewBox="0 0 131 32" fill="none" xmlns="http://www.w3.org/2000/svg">
<g clip-path="url(#clip0_510_1730)">
<path d="M43.285 24.7532C41.909 24.7881 40.5546 24.406 39.3996 23.6573C38.3219 22.9456 37.5219 21.8847 37.1342 20.6527L39.4931 19.7833C39.8206 20.5396 40.3557 21.1877 41.0365 21.6523C41.7283 22.116 42.5457 22.3562 43.3784 22.3405C44.178 22.3826 44.9673 22.1442 45.6099 21.6665C45.8893 21.4315 46.11 21.1346 46.2546 20.7993C46.3991 20.464 46.4634 20.0997 46.4425 19.7352C46.4459 19.3958 46.3672 19.0606 46.2131 18.7582C46.0794 18.4875 45.9046 18.2391 45.6949 18.0219C45.4288 17.7798 45.1269 17.5802 44.8 17.43C44.3979 17.229 44.0665 17.0761 43.8004 16.9713C43.5342 16.8665 43.1434 16.7249 42.6308 16.5493C41.9851 16.3228 41.4981 16.1472 41.1809 16.0169C40.7453 15.8327 40.3225 15.6199 39.915 15.3798C39.475 15.147 39.0753 14.8448 38.7313 14.4849C38.4349 14.1329 38.196 13.7363 38.0234 13.3097C37.6898 12.4985 37.6197 11.6029 37.823 10.7497C38.0262 9.89642 38.4926 9.12868 39.1561 8.555C40.1227 7.70355 41.4339 7.27783 43.0896 7.27783C44.4753 7.27783 45.6137 7.58273 46.5048 8.19252C47.3723 8.76843 48.0091 9.63178 48.303 10.6308L45.9865 11.4038C45.7504 10.8798 45.3537 10.4444 44.8538 10.1607C44.254 9.83034 43.5755 9.66978 42.8913 9.69624C42.2185 9.65716 41.5518 9.8435 40.9968 10.2258C40.7702 10.4017 40.5896 10.6298 40.4702 10.8907C40.3509 11.1515 40.2964 11.4374 40.3115 11.7238C40.3135 11.9433 40.3617 12.1598 40.453 12.3593C40.5442 12.5589 40.6764 12.737 40.8411 12.8821C41.1623 13.197 41.5385 13.4504 41.9511 13.6297C42.3363 13.7911 42.9253 14.0063 43.7126 14.281C44.194 14.4594 44.5621 14.5897 44.7858 14.6803C45.0096 14.7709 45.3522 14.9154 45.811 15.1249C46.1722 15.2853 46.5197 15.4747 46.8503 15.6913C47.1461 15.9046 47.4298 16.1343 47.6998 16.3794C47.9903 16.6322 48.2388 16.9295 48.4361 17.2601C48.6241 17.6037 48.7696 17.9689 48.8694 18.3476C48.993 18.7909 49.054 19.2494 49.0506 19.7097C49.0506 21.288 48.5116 22.5227 47.4336 23.4138C46.3556 24.3049 44.9727 24.7513 43.285 24.7532ZM58.7526 24.47L52.9614 7.57235H55.663L59.5002 19.3472C59.7119 19.981 59.8897 20.6257 60.0326 21.2785C60.173 20.6254 60.3498 19.9806 60.5621 19.3472L64.3512 7.57235H67.0301L61.2616 24.4644L58.7526 24.47ZM72.1444 24.47V7.57235H82.6223V9.93695H74.6563V14.5699H79.7961V16.9345H74.6563V22.0884H83.1519V24.4531L72.1444 24.47ZM89.5434 24.47V7.57235H92.0552V22.0516H100.307V24.4644L89.5434 24.47ZM109.766 9.99075V24.4644H107.257V9.98509H102.479V7.57235H114.537V9.98509L109.766 9.99075ZM119.734 24.47V7.57235H130.212V9.93695H122.243V14.5699H127.383V16.9345H122.243V22.0884H130.738V24.4531L119.734 24.47Z" fill="#758399"/>
<path fill-rule="evenodd" clip-rule="evenodd" d="M12.7155 1.5745C16.9208 -1.10443 22.7375 0.144416 25.6826 4.35822V4.38088C26.3815 5.35938 26.878 6.46757 27.143 7.64047C27.4081 8.81337 27.4363 10.0274 27.226 11.2113C27.0205 12.3413 26.5889 13.4181 25.9573 14.3773C26.8799 16.1358 27.1899 18.1518 26.838 20.1062C26.6269 21.2639 26.1776 22.3652 25.5185 23.3402C24.8594 24.3151 24.005 25.1425 23.0093 25.7699L15.6238 30.4566C11.4185 33.1356 5.60189 31.8867 2.65675 27.6729C1.95728 26.6947 1.46041 25.5865 1.19537 24.4135C0.930325 23.2405 0.902454 22.0264 1.11339 20.8425C1.31659 19.7123 1.74725 18.6352 2.37923 17.6765C1.45711 15.9168 1.14819 13.8998 1.50136 11.9448C1.7108 10.7864 2.15945 9.68452 2.81868 8.70933C3.47791 7.73414 4.33323 6.90712 5.33003 6.28105L12.7155 1.5745ZM8.47697 27.9024C9.6032 28.3201 10.8305 28.3824 11.9932 28.0806C12.524 27.9379 13.03 27.7154 13.4941 27.4208L20.8824 22.7143C21.4826 22.3365 21.9974 21.8376 22.3938 21.2496C22.7903 20.6615 23.0596 19.9972 23.1847 19.299C23.3112 18.5872 23.2943 17.8573 23.1347 17.1522C22.9752 16.447 22.6764 15.7809 22.2558 15.1929C21.5718 14.206 20.6013 13.453 19.4754 13.0356C18.3495 12.6183 17.1226 12.5568 15.9606 12.8594C15.429 12.9997 14.9225 13.2223 14.4597 13.5192L11.6279 15.3146C11.4873 15.4024 11.3347 15.4692 11.1748 15.5129C10.8267 15.6006 10.4602 15.5804 10.1238 15.4549C9.78749 15.3295 9.49724 15.1048 9.29159 14.8106C9.16484 14.6327 9.07456 14.4316 9.02595 14.2187C8.97735 14.0058 8.97138 13.7854 9.0084 13.5702C9.04667 13.3602 9.12809 13.1604 9.24751 12.9835C9.36693 12.8065 9.52176 12.6563 9.70221 12.5422L17.0905 7.84418C17.2305 7.7553 17.3833 7.68845 17.5436 7.64595C17.8901 7.55475 18.2561 7.5712 18.5931 7.69311C18.93 7.81502 19.2218 8.03662 19.4296 8.32843C19.6562 8.6478 19.7625 9.03699 19.7298 9.42719L19.7043 9.71038L19.9875 9.7925C21.0252 10.1067 22.002 10.5951 22.876 11.2367L23.2527 11.5199L23.3942 11.0952C23.467 10.8696 23.5256 10.6398 23.5698 10.407C23.6967 9.69522 23.6799 8.96524 23.5204 8.26005C23.3608 7.55486 23.0618 6.88871 22.641 6.30082C21.9571 5.31375 20.9866 4.5604 19.8608 4.14259C18.735 3.72477 17.508 3.66262 16.3458 3.96454C15.8189 4.10692 15.3166 4.32844 14.8562 4.62153L7.45938 9.32808C6.85915 9.70585 6.34436 10.2047 5.94792 10.7928C5.55149 11.3809 5.28213 12.0452 5.15708 12.7433C5.02932 13.4545 5.04492 14.1841 5.20297 14.8893C5.36102 15.5944 5.65832 16.2608 6.07743 16.8495C6.76143 17.8341 7.73064 18.5856 8.85461 19.0028C9.97858 19.42 11.2034 19.4828 12.3642 19.1829C12.8939 19.0412 13.3991 18.8196 13.8622 18.526L16.6941 16.7277C16.8341 16.6388 16.9869 16.572 17.1472 16.5295C17.4973 16.4386 17.8668 16.4573 18.2061 16.5828C18.5453 16.7084 18.8379 16.9349 19.0445 17.2318C19.1719 17.4087 19.2626 17.6094 19.3112 17.8219C19.3598 18.0345 19.3654 18.2546 19.3277 18.4693C19.2903 18.68 19.2093 18.8805 19.0898 19.0581C18.9703 19.2356 18.815 19.3862 18.6339 19.5001L11.2597 24.2067C11.1195 24.295 10.9667 24.3619 10.8066 24.4049C10.4565 24.4957 10.087 24.4771 9.74772 24.3516C9.4085 24.226 9.11589 23.9995 8.90929 23.7026C8.68254 23.3862 8.57337 23.0006 8.60062 22.6123L8.6261 22.3291L8.34292 22.247C7.30892 21.9354 6.33515 21.4509 5.46292 20.8141L5.08345 20.5309L4.94469 20.9557C4.86957 21.1786 4.81089 21.4067 4.76911 21.6382C4.64184 22.3498 4.6582 23.0796 4.81723 23.7848C4.97627 24.49 5.27475 25.1563 5.69513 25.7444C6.37979 26.7314 7.35074 27.4846 8.47697 27.9024Z" fill="#758399"/>
</g>
<defs>
<clipPath id="clip0_510_1730">
<rect width="130.265" height="32" fill="white" transform="translate(0.697266)"/>
</clipPath>
</defs>
</svg>
