<svg width="120" height="48" viewBox="0 0 120 48" fill="none" xmlns="http://www.w3.org/2000/svg">
<g clip-path="url(#clip0_517_1668)">
<path d="M54.426 14.1752C54.426 13.9261 54.5589 13.7186 54.8245 13.5525C55.1068 13.3865 55.3973 13.3035 55.6962 13.3035C56.1113 13.3035 56.3687 13.4612 56.4683 13.7767L60.8517 28.5706L65.2102 13.7767C65.3264 13.4612 65.5755 13.3035 65.9573 13.3035C66.2728 13.3035 66.5634 13.3948 66.829 13.5774C67.1113 13.7601 67.2524 13.9676 67.2524 14.2001C67.2524 14.2167 67.2441 14.2416 67.2275 14.2748C67.2275 14.308 67.2275 14.3412 67.2275 14.3744L62.1717 30.9367C61.989 31.4182 61.549 31.6589 60.8517 31.6589C60.1543 31.6589 59.7309 31.4182 59.5815 30.9367L54.4758 14.3744C54.4426 14.2748 54.426 14.2084 54.426 14.1752Z" fill="#758399"/>
<path d="M68.1415 26.9269V20.4514C68.1415 20.2521 68.2411 20.0778 68.4403 19.9284C68.6562 19.7789 68.9052 19.7042 69.1875 19.7042C69.4532 19.7042 69.6856 19.7872 69.8849 19.9533C70.1007 20.1027 70.2086 20.2688 70.2086 20.4514V26.9269C70.2086 27.674 70.4909 28.3465 71.0554 28.9442C71.6199 29.542 72.2924 29.8408 73.0728 29.8408C73.8366 29.8408 74.5007 29.5503 75.0652 28.9691C75.6298 28.3714 75.912 27.6906 75.912 26.9269V20.4265C75.912 20.2438 76.0116 20.0778 76.2109 19.9284C76.4267 19.7789 76.6758 19.7042 76.9581 19.7042C77.2569 19.7042 77.4977 19.7789 77.6803 19.9284C77.8796 20.0612 77.9792 20.2272 77.9792 20.4265V26.9269C77.9792 28.2054 77.4894 29.3261 76.5098 30.2891C75.5467 31.2355 74.4011 31.7088 73.0728 31.7088C71.7279 31.7088 70.5656 31.2355 69.586 30.2891C68.623 29.3261 68.1415 28.2054 68.1415 26.9269Z" fill="#758399"/>
<path d="M80.3672 26.8771V24.262C80.3672 22.9835 80.8487 21.8793 81.8117 20.9495C82.7914 20.0197 83.9619 19.5548 85.3234 19.5548C86.6185 19.5548 87.7393 19.9948 88.6857 20.8748C89.6321 21.7382 90.1053 22.8257 90.1053 24.1374C90.1053 24.6189 90.0472 25.0091 89.931 25.308C89.8148 25.5903 89.6321 25.7978 89.3831 25.9306C89.1506 26.0469 88.9265 26.1216 88.7106 26.1548C88.5114 26.188 88.2374 26.2046 87.8887 26.2046H82.4344V26.9518C82.4344 27.865 82.7582 28.5955 83.4057 29.1435C84.0699 29.6914 84.925 29.9654 85.971 29.9654C86.5189 29.9654 86.9921 29.8823 87.3906 29.7163C87.8057 29.5503 88.1378 29.3925 88.3868 29.2431C88.6359 29.0771 88.8351 28.994 88.9846 28.994C89.217 28.994 89.4163 29.102 89.5823 29.3178C89.7484 29.5171 89.8314 29.7246 89.8314 29.9405C89.8314 30.3223 89.4495 30.7125 88.6857 31.111C87.9385 31.5095 87.0087 31.7088 85.8963 31.7088C84.2691 31.7088 82.9408 31.2688 81.9114 30.3888C80.8819 29.4921 80.3672 28.3216 80.3672 26.8771ZM82.4344 24.8099H87.0419C87.4736 24.8099 87.7642 24.7601 87.9136 24.6605C88.0631 24.5442 88.1378 24.3284 88.1378 24.0129C88.1378 23.2657 87.8638 22.6099 87.3159 22.0454C86.768 21.4808 86.0955 21.1986 85.2985 21.1986C84.5182 21.1986 83.8457 21.4642 83.2812 21.9955C82.7167 22.5103 82.4344 23.1495 82.4344 23.9133V24.8099Z" fill="#758399"/>
<path d="M91.8448 30.3638C91.8448 29.9986 91.9694 29.6914 92.2184 29.4423C92.4675 29.1767 92.7746 29.0438 93.1399 29.0438C93.4886 29.0438 93.7875 29.1767 94.0365 29.4423C94.2856 29.6914 94.4101 29.9986 94.4101 30.3638C94.4101 30.7125 94.2856 31.0197 94.0365 31.2854C93.7875 31.5344 93.4886 31.6589 93.1399 31.6589C92.7746 31.6589 92.4675 31.5344 92.2184 31.2854C91.9694 31.0197 91.8448 30.7125 91.8448 30.3638Z" fill="#758399"/>
<path d="M94.3798 36.3163C94.3798 36.0506 94.4628 35.8265 94.6288 35.6438C94.7949 35.4778 94.9941 35.3948 95.2266 35.3948C95.8741 35.3948 96.2975 35.154 96.4967 34.6725C96.696 34.191 96.7956 33.4688 96.7956 32.5057V20.4265C96.7956 20.2106 96.8869 20.0363 97.0696 19.9035C97.2688 19.7706 97.5179 19.7042 97.8167 19.7042C98.1156 19.7042 98.3647 19.7706 98.5639 19.9035C98.7632 20.0363 98.8628 20.2106 98.8628 20.4265V32.5057C98.8628 33.9503 98.5805 35.0959 98.016 35.9427C97.4515 36.7895 96.5964 37.2129 95.4507 37.2129C94.7367 37.2129 94.3798 36.914 94.3798 36.3163ZM96.8952 16.1178C96.6462 15.8687 96.5217 15.5865 96.5217 15.271C96.5217 14.9555 96.6462 14.6816 96.8952 14.4491C97.1443 14.2167 97.4515 14.1004 97.8167 14.1004C98.1654 14.1004 98.4643 14.2167 98.7134 14.4491C98.9624 14.6816 99.0869 14.9555 99.0869 15.271C99.0869 15.5865 98.9624 15.8687 98.7134 16.1178C98.4643 16.3503 98.1654 16.4665 97.8167 16.4665C97.4681 16.4665 97.1609 16.3503 96.8952 16.1178Z" fill="#758399"/>
<path d="M101.107 29.8159C101.107 29.6001 101.174 29.3925 101.307 29.1933C101.456 28.9774 101.63 28.8695 101.83 28.8695C101.963 28.8695 102.153 28.9691 102.403 29.1684C102.652 29.3676 103.009 29.5669 103.473 29.7661C103.938 29.9488 104.486 30.0401 105.117 30.0401C105.947 30.0401 106.545 29.8906 106.91 29.5918C107.292 29.2929 107.483 28.9193 107.483 28.471C107.483 27.9231 107.276 27.4914 106.861 27.1759C106.446 26.8438 105.939 26.5948 105.341 26.4288C104.744 26.2627 104.146 26.0801 103.548 25.8808C102.95 25.6816 102.444 25.3495 102.029 24.8846C101.614 24.4197 101.406 23.8054 101.406 23.0416C101.406 22.0952 101.738 21.2816 102.403 20.6008C103.083 19.9035 104.113 19.5548 105.491 19.5548C106.371 19.5548 107.176 19.6959 107.907 19.9782C108.637 20.2438 109.003 20.551 109.003 20.8997C109.003 21.0989 108.919 21.3231 108.753 21.5721C108.604 21.8212 108.413 21.9457 108.181 21.9457C108.114 21.9457 107.79 21.8295 107.209 21.5971C106.645 21.348 106.08 21.2235 105.516 21.2235C104.752 21.2235 104.179 21.4061 103.797 21.7714C103.432 22.1201 103.249 22.5186 103.249 22.9669C103.249 23.4318 103.457 23.7971 103.872 24.0627C104.287 24.3284 104.793 24.5359 105.391 24.6854C106.006 24.8348 106.612 25.0174 107.209 25.2333C107.807 25.4491 108.313 25.8227 108.729 26.354C109.144 26.8688 109.351 27.5412 109.351 28.3714C109.351 29.4008 108.986 30.2144 108.255 30.8121C107.525 31.4099 106.504 31.7088 105.192 31.7088C104.063 31.7088 103.1 31.5095 102.303 31.111C101.506 30.6959 101.107 30.2642 101.107 29.8159Z" fill="#758399"/>
<path fill-rule="evenodd" clip-rule="evenodd" d="M27.9646 17.3631L31.8862 10.5647H38.1532L27.9646 28.2274L17.7761 10.5647H24.0431L27.9646 17.3631ZM27.9646 30.5174L39.5276 10.5648H44.9455L27.9646 40.0027L10.9838 10.5648H16.4017L27.9646 30.5174Z" fill="#758399"/>
</g>
<defs>
<clipPath id="clip0_517_1668">
<rect width="98.4906" height="30" fill="white" transform="translate(10.9838 10)"/>
</clipPath>
</defs>
</svg>
