<svg width="99" height="30" viewBox="0 0 99 30" fill="none" xmlns="http://www.w3.org/2000/svg">
<g clip-path="url(#clip0_510_1789)">
<path d="M43.649 4.17516C43.649 3.92611 43.7819 3.71856 44.0475 3.55252C44.3298 3.38649 44.6204 3.30347 44.9192 3.30347C45.3343 3.30347 45.5917 3.4612 45.6913 3.77667L50.0747 18.5706L54.4332 3.77667C54.5494 3.4612 54.7985 3.30347 55.1804 3.30347C55.4958 3.30347 55.7864 3.39479 56.0521 3.57743C56.3343 3.76007 56.4755 3.96762 56.4755 4.20007C56.4755 4.21667 56.4672 4.24158 56.4506 4.27479C56.4506 4.30799 56.4506 4.3412 56.4506 4.37441L51.3947 20.9367C51.2121 21.4182 50.7721 21.6589 50.0747 21.6589C49.3774 21.6589 48.954 21.4182 48.8045 20.9367L43.6989 4.37441C43.6657 4.27479 43.649 4.20837 43.649 4.17516Z" fill="#758399"/>
<path d="M57.3645 16.9269V10.4514C57.3645 10.2521 57.4641 10.0778 57.6633 9.92837C57.8792 9.77894 58.1283 9.70422 58.4105 9.70422C58.6762 9.70422 58.9086 9.78724 59.1079 9.95328C59.3237 10.1027 59.4316 10.2688 59.4316 10.4514V16.9269C59.4316 17.674 59.7139 18.3465 60.2784 18.9442C60.843 19.542 61.5154 19.8408 62.2958 19.8408C63.0596 19.8408 63.7237 19.5503 64.2883 18.9691C64.8528 18.3714 65.135 17.6906 65.135 16.9269V10.4265C65.135 10.2438 65.2347 10.0778 65.4339 9.92837C65.6498 9.77894 65.8988 9.70422 66.1811 9.70422C66.48 9.70422 66.7207 9.77894 66.9033 9.92837C67.1026 10.0612 67.2022 10.2272 67.2022 10.4265V16.9269C67.2022 18.2054 66.7124 19.3261 65.7328 20.2891C64.7698 21.2355 63.6241 21.7088 62.2958 21.7088C60.9509 21.7088 59.7886 21.2355 58.809 20.2891C57.846 19.3261 57.3645 18.2054 57.3645 16.9269Z" fill="#758399"/>
<path d="M69.5902 16.8771V14.262C69.5902 12.9835 70.0717 11.8793 71.0348 10.9495C72.0144 10.0197 73.185 9.55479 74.5465 9.55479C75.8416 9.55479 76.9623 9.99479 77.9087 10.8748C78.8551 11.7382 79.3284 12.8257 79.3284 14.1374C79.3284 14.6189 79.2702 15.0091 79.154 15.308C79.0378 15.5903 78.8551 15.7978 78.6061 15.9306C78.3736 16.0469 78.1495 16.1216 77.9336 16.1548C77.7344 16.188 77.4604 16.2046 77.1118 16.2046H71.6574V16.9518C71.6574 17.865 71.9812 18.5955 72.6287 19.1435C73.2929 19.6914 74.148 19.9654 75.194 19.9654C75.7419 19.9654 76.2151 19.8823 76.6136 19.7163C77.0287 19.5503 77.3608 19.3925 77.6099 19.2431C77.8589 19.0771 78.0582 18.994 78.2076 18.994C78.4401 18.994 78.6393 19.102 78.8053 19.3178C78.9714 19.5171 79.0544 19.7246 79.0544 19.9405C79.0544 20.3223 78.6725 20.7125 77.9087 21.111C77.1616 21.5095 76.2317 21.7088 75.1193 21.7088C73.4921 21.7088 72.1638 21.2688 71.1344 20.3888C70.105 19.4921 69.5902 18.3216 69.5902 16.8771ZM71.6574 14.8099H76.265C76.6967 14.8099 76.9872 14.7601 77.1367 14.6605C77.2861 14.5442 77.3608 14.3284 77.3608 14.0129C77.3608 13.2657 77.0868 12.6099 76.5389 12.0454C75.991 11.4808 75.3185 11.1986 74.5216 11.1986C73.7412 11.1986 73.0687 11.4642 72.5042 11.9955C71.9397 12.5103 71.6574 13.1495 71.6574 13.9133V14.8099Z" fill="#758399"/>
<path d="M81.0679 20.3638C81.0679 19.9986 81.1924 19.6914 81.4414 19.4423C81.6905 19.1767 81.9977 19.0438 82.363 19.0438C82.7116 19.0438 83.0105 19.1767 83.2596 19.4423C83.5086 19.6914 83.6331 19.9986 83.6331 20.3638C83.6331 20.7125 83.5086 21.0197 83.2596 21.2854C83.0105 21.5344 82.7116 21.6589 82.363 21.6589C81.9977 21.6589 81.6905 21.5344 81.4414 21.2854C81.1924 21.0197 81.0679 20.7125 81.0679 20.3638Z" fill="#758399"/>
<path d="M83.6028 26.3163C83.6028 26.0506 83.6858 25.8265 83.8518 25.6438C84.0179 25.4778 84.2171 25.3948 84.4496 25.3948C85.0971 25.3948 85.5205 25.154 85.7198 24.6725C85.919 24.191 86.0186 23.4688 86.0186 22.5057V10.4265C86.0186 10.2106 86.11 10.0363 86.2926 9.90347C86.4918 9.77064 86.7409 9.70422 87.0398 9.70422C87.3386 9.70422 87.5877 9.77064 87.7869 9.90347C87.9862 10.0363 88.0858 10.2106 88.0858 10.4265V22.5057C88.0858 23.9503 87.8035 25.0959 87.239 25.9427C86.6745 26.7895 85.8194 27.2129 84.6737 27.2129C83.9598 27.2129 83.6028 26.914 83.6028 26.3163ZM86.1183 6.11781C85.8692 5.86875 85.7447 5.58649 85.7447 5.27101C85.7447 4.95554 85.8692 4.68158 86.1183 4.44913C86.3673 4.21667 86.6745 4.10045 87.0398 4.10045C87.3884 4.10045 87.6873 4.21667 87.9364 4.44913C88.1854 4.68158 88.31 4.95554 88.31 5.27101C88.31 5.58649 88.1854 5.86875 87.9364 6.11781C87.6873 6.35026 87.3884 6.46648 87.0398 6.46648C86.6911 6.46648 86.3839 6.35026 86.1183 6.11781Z" fill="#758399"/>
<path d="M90.3304 19.8159C90.3304 19.6001 90.3968 19.3925 90.5297 19.1933C90.6791 18.9774 90.8534 18.8695 91.0527 18.8695C91.1855 18.8695 91.3765 18.9691 91.6255 19.1684C91.8746 19.3676 92.2316 19.5669 92.6965 19.7661C93.1614 19.9488 93.7093 20.0401 94.3402 20.0401C95.1704 20.0401 95.7682 19.8906 96.1334 19.5918C96.5153 19.2929 96.7063 18.9193 96.7063 18.471C96.7063 17.9231 96.4987 17.4914 96.0836 17.1759C95.6685 16.8438 95.1621 16.5948 94.5644 16.4288C93.9667 16.2627 93.3689 16.0801 92.7712 15.8808C92.1735 15.6816 91.667 15.3495 91.2519 14.8846C90.8368 14.4197 90.6293 13.8054 90.6293 13.0416C90.6293 12.0952 90.9614 11.2816 91.6255 10.6008C92.3063 9.90347 93.3357 9.55479 94.7138 9.55479C95.5938 9.55479 96.3991 9.69592 97.1297 9.97818C97.8602 10.2438 98.2255 10.551 98.2255 10.8997C98.2255 11.0989 98.1425 11.3231 97.9765 11.5721C97.827 11.8212 97.6361 11.9457 97.4036 11.9457C97.3372 11.9457 97.0134 11.8295 96.4323 11.5971C95.8678 11.348 95.3033 11.2235 94.7387 11.2235C93.975 11.2235 93.4021 11.4061 93.0202 11.7714C92.655 12.1201 92.4723 12.5186 92.4723 12.9669C92.4723 13.4318 92.6799 13.7971 93.095 14.0627C93.5101 14.3284 94.0165 14.5359 94.6142 14.6854C95.2285 14.8348 95.8346 15.0174 96.4323 15.2333C97.0301 15.4491 97.5365 15.8227 97.9516 16.354C98.3667 16.8688 98.5742 17.5412 98.5742 18.3714C98.5742 19.4008 98.2089 20.2144 97.4784 20.8121C96.7478 21.4099 95.7267 21.7088 94.415 21.7088C93.2859 21.7088 92.3229 21.5095 91.5259 21.111C90.7289 20.6959 90.3304 20.2642 90.3304 19.8159Z" fill="#758399"/>
<path fill-rule="evenodd" clip-rule="evenodd" d="M17.1877 7.36313L21.1092 0.564697H27.3762L17.1877 18.2274L6.99914 0.564697H13.2661L17.1877 7.36313ZM17.1877 20.5174L28.7506 0.564817H34.1686L17.1877 30.0027L0.206787 0.564817H5.62472L17.1877 20.5174Z" fill="#758399"/>
</g>
<defs>
<clipPath id="clip0_510_1789">
<rect width="98.4906" height="30" fill="white" transform="translate(0.206787)"/>
</clipPath>
</defs>
</svg>
