<svg width="480" height="267" fill="none" xmlns="http://www.w3.org/2000/svg"><rect x=".5" y=".5" width="479" height="266" rx="7.5" fill="#fff" stroke="#C2CAD6"/><rect x="115" y="5" width="240" height="14" rx="4" fill="#EAEDF0"/><path fill="#C2CAD6" d="M1 22h478v1H1z"/><circle cx="11.23" cy="12" r="3" fill="#EAEDF0"/><circle cx="21.23" cy="12" r="3" fill="#EAEDF0"/><circle cx="31.23" cy="12" r="3" fill="#EAEDF0"/><path fill-rule="evenodd" clip-rule="evenodd" d="M223.158 66.159h-2.948V67h2.948v3.369h-4.632l-1.684-1.684v-8.843h3.368v2.948h2.948v3.369Zm12.631 4.21h-10.105L224 68.685V62.79h3.368V67h.842v-4.21h3.369V67h.842v-4.21h3.368v7.579Zm4.211 0h-3.369v-7.58H240v7.58Zm-3.369-8.422H240v-2.105h-3.369v2.105Zm7.579 4.212h2.948v-3.37h-2.948v-2.947h-3.368v8.843l1.684 1.684h4.632V67h-2.948v-.841Zm10.527 0h-3.369V67h3.369v3.369h-5.053L248 68.685v-4.21l1.684-1.685h5.053v3.369Zm5.052 0v4.21h3.369v-5.895l-1.685-1.684h-2.526v-2.948h-3.368V70.37h3.368v-4.21h.842Z" fill="#FFFFFE"/><path fill-rule="evenodd" clip-rule="evenodd" d="M263.158 70.368h-3.369v-4.21h-.842v4.21h-3.368V59.842h3.368v2.947h2.527l1.684 1.685v5.894Zm-8.421-4.21h-3.369V67h3.369v3.368h-5.053L248 68.684v-4.21l1.684-1.685h5.053v3.369Zm-7.579 0h-2.947V67h2.947v3.368h-4.632l-1.684-1.684v-8.842h3.369v2.947h2.947v3.369Zm-10.526-4.21H240v-2.106h-3.368v2.105Zm0 8.42H240V62.79h-3.368v7.578Zm-.843 0h-10.105L224 68.684V62.79h3.368V67h.843v-4.21h3.368V67h.842v-4.21h3.368v7.578Zm-12.631-4.21h-2.947V67h2.947v3.368h-4.632l-1.684-1.684v-8.842h3.369v2.947h2.947v3.369Zm38.737-4.21h-2.106V59h-4.622l-2.126 2.947h-3.778L248 63.211v-1.264h-2.947V59h-9.264v2.947h-13.031L220.632 59H216v10.105L221.895 75h5.894v-1.684L229.474 75h11.368v-1.684L242.526 75H248v-1.684L249.684 75h10.527L264 71.21v-7.157l-2.105-2.106Z" fill="#9146FF"/><circle cx="240" cy="95" r="12" fill="#EAEDF0"/><path d="M207.695 125.61a.417.417 0 0 1-.13-.02.361.361 0 0 1-.27-.23.513.513 0 0 1 .03-.38c.06-.14.146-.297.26-.47.04-.06.076-.12.11-.18.04-.067.073-.127.1-.18a.373.373 0 0 0 .05-.1c-.2-.033-.434-.04-.7-.02-.26.013-.554.063-.88.15-.294.073-.604.17-.93.29-.327.113-.674.25-1.04.41a.281.281 0 0 1-.22.01.309.309 0 0 1-.16-.16.252.252 0 0 1-.01-.23.304.304 0 0 1 .16-.17c.38-.167.736-.31 1.07-.43.34-.127.666-.227.98-.3.82-.207 1.49-.24 2.01-.1.153.04.26.133.32.28.06.153.046.32-.04.5-.087.173-.19.357-.31.55a.265.265 0 0 0-.04.05.696.696 0 0 1-.03.07c.153-.033.376-.1.67-.2.3-.1.716-.247 1.25-.44a.256.256 0 0 1 .22.02.27.27 0 0 1 .16.17.28.28 0 0 1 0 .23.312.312 0 0 1-.18.16l-.84.29c-.254.087-.48.16-.68.22-.274.08-.48.137-.62.17a1.68 1.68 0 0 1-.31.04Zm3.708-.2a.252.252 0 0 1-.08-.01.45.45 0 0 1-.23-.12.92.92 0 0 1-.08-.14.54.54 0 0 1 .04-.45c.087-.16.194-.327.32-.5.04-.053.077-.11.11-.17.034-.06.067-.117.1-.17a.266.266 0 0 0 .03-.04c-.04.013-.09.033-.15.06a1.548 1.548 0 0 0-.19.12c-.12.073-.246.17-.38.29a16.81 16.81 0 0 0-.52.46 1.591 1.591 0 0 0-.1.09.308.308 0 0 1-.21.08.288.288 0 0 1-.21-.11.258.258 0 0 1-.08-.21.3.3 0 0 1 .1-.21.8.8 0 0 1 .11-.09l.1-.1c.16-.147.317-.283.47-.41.16-.133.314-.247.46-.34.154-.093.304-.16.45-.2a.76.76 0 0 1 .44-.01c.114.033.194.08.24.14.047.06.077.113.09.16.06.153.047.31-.04.47a5.557 5.557 0 0 1-.38.6.5.5 0 0 1-.05.08c.1-.04.227-.087.38-.14.16-.06.357-.137.59-.23a.297.297 0 0 1 .24.02c.074.033.124.09.15.17.034.073.03.15-.01.23a.309.309 0 0 1-.16.16l-.58.2a12.302 12.302 0 0 0-.62.23c-.046.013-.09.027-.13.04a1.094 1.094 0 0 0-.13.04.349.349 0 0 1-.09.01Zm2.224.87a1.02 1.02 0 0 1-.15-.01 1.387 1.387 0 0 1-.13-.03.362.362 0 0 1-.25-.21c-.06-.133-.06-.293 0-.48.067-.193.173-.44.32-.74a2.27 2.27 0 0 0 .08-.18c.027-.067.057-.13.09-.19a1.07 1.07 0 0 0-.28.17l-.29.23a.27.27 0 0 1-.22.06.337.337 0 0 1-.21-.11.27.27 0 0 1-.06-.22c.013-.08.05-.15.11-.21.093-.067.19-.14.29-.22a1.6 1.6 0 0 1 .32-.2c.273-.14.523-.177.75-.11.107.02.187.087.24.2.053.113.05.247-.01.4-.053.153-.147.37-.28.65-.033.08-.07.16-.11.24a7.51 7.51 0 0 1-.13.3l-.02.06c.067-.007.15-.027.25-.06.107-.033.227-.083.36-.15.14-.073.3-.17.48-.29.18-.12.387-.27.62-.45a19.664 19.664 0 0 0 .93-.81 13.814 13.814 0 0 0 .4-.39c.08-.093.177-.123.29-.09a.273.273 0 0 1 .13.07.54.54 0 0 1 .08.1c.047.093.05.203.01.33s-.113.323-.22.59l-.12.26a4.18 4.18 0 0 1-.1.24c-.007.033-.017.07-.03.11a.87.87 0 0 0 .3-.11c.107-.06.213-.127.32-.2.107-.073.207-.15.3-.23.093-.087.177-.16.25-.22a.283.283 0 0 1 .22-.08c.08.007.15.04.21.1.053.067.077.14.07.22 0 .08-.033.15-.1.21-.153.14-.31.273-.47.4-.16.12-.323.227-.49.32-.16.087-.323.15-.49.19-.167.033-.33.03-.49-.01a.405.405 0 0 1-.23-.2.571.571 0 0 1-.04-.3c.02-.113.06-.257.12-.43-.073.067-.15.13-.23.19l-.24.2c-.92.727-1.637 1.09-2.15 1.09Zm10.186 0a1.002 1.002 0 0 1-.28-.04.36.36 0 0 1-.25-.21c-.06-.133-.06-.293 0-.48.066-.193.173-.44.32-.74.026-.053.053-.113.08-.18.026-.067.056-.13.09-.19a1.07 1.07 0 0 0-.28.17c-.094.073-.19.15-.29.23a.27.27 0 0 1-.22.06.337.337 0 0 1-.21-.11.264.264 0 0 1-.06-.22c.013-.08.05-.15.11-.21.093-.067.19-.14.29-.22.1-.08.206-.147.32-.2.273-.14.523-.177.75-.11.106.02.186.087.24.2.053.113.05.247-.01.4-.054.153-.147.37-.28.65-.034.08-.07.16-.11.24a11.184 11.184 0 0 1-.13.3l-.02.06c.066-.007.15-.027.25-.06a2.45 2.45 0 0 0 .36-.15c.14-.073.3-.17.48-.29.18-.12.386-.27.62-.45a19.664 19.664 0 0 0 .93-.81 16.84 16.84 0 0 0 .4-.39c.08-.093.176-.123.29-.09a.278.278 0 0 1 .13.07.54.54 0 0 1 .08.1c.046.093.05.203.01.33s-.114.323-.22.59l-.12.26a5.044 5.044 0 0 1-.1.24c-.007.033-.017.07-.03.11a.87.87 0 0 0 .3-.11 3.707 3.707 0 0 0 .62-.43c.093-.087.176-.16.25-.22a.282.282 0 0 1 .22-.08c.08.007.15.04.21.1.053.067.076.14.07.22 0 .08-.034.15-.1.21a9.21 9.21 0 0 1-.47.4c-.16.12-.324.227-.49.32a2.01 2.01 0 0 1-.49.19c-.167.033-.33.03-.49-.01a.402.402 0 0 1-.23-.2c-.04-.093-.054-.193-.04-.3.02-.113.06-.257.12-.43a3.22 3.22 0 0 1-.23.19c-.074.06-.154.127-.24.2-.92.727-1.637 1.09-2.15 1.09Zm5.322 0a1.02 1.02 0 0 1-.15-.01 1.387 1.387 0 0 1-.13-.03.362.362 0 0 1-.25-.21c-.06-.133-.06-.293 0-.48.067-.193.173-.44.32-.74a2.27 2.27 0 0 0 .08-.18c.027-.067.057-.13.09-.19a1.07 1.07 0 0 0-.28.17l-.29.23a.27.27 0 0 1-.22.06.337.337 0 0 1-.21-.11.27.27 0 0 1-.06-.22c.013-.08.05-.15.11-.21.093-.067.19-.14.29-.22a1.6 1.6 0 0 1 .32-.2c.273-.14.523-.177.75-.11.107.02.187.087.24.2.053.113.05.247-.01.4-.053.153-.147.37-.28.65-.033.08-.07.16-.11.24a7.51 7.51 0 0 1-.13.3l-.02.06c.067-.007.15-.027.25-.06.107-.033.227-.083.36-.15.14-.073.3-.17.48-.29.18-.12.387-.27.62-.45a19.664 19.664 0 0 0 .93-.81 13.814 13.814 0 0 0 .4-.39c.08-.093.177-.123.29-.09a.273.273 0 0 1 .13.07.54.54 0 0 1 .08.1c.047.093.05.203.01.33s-.113.323-.22.59l-.12.26a4.18 4.18 0 0 1-.1.24c-.007.033-.017.07-.03.11a.87.87 0 0 0 .3-.11c.107-.06.213-.127.32-.2.107-.073.207-.15.3-.23.093-.087.177-.16.25-.22a.283.283 0 0 1 .22-.08c.08.007.15.04.21.1.053.067.077.14.07.22 0 .08-.033.15-.1.21-.153.14-.31.273-.47.4-.16.12-.323.227-.49.32-.16.087-.323.15-.49.19-.167.033-.33.03-.49-.01a.405.405 0 0 1-.23-.2c-.04-.093-.053-.193-.04-.3.02-.113.06-.257.12-.43-.073.067-.15.13-.23.19l-.24.2c-.92.727-1.637 1.09-2.15 1.09Zm8.032-.67a.421.421 0 0 1-.13-.02.364.364 0 0 1-.27-.23.513.513 0 0 1 .03-.38c.06-.14.147-.297.26-.47.04-.06.077-.12.11-.18.04-.067.074-.127.1-.18a.346.346 0 0 0 .05-.1c-.2-.033-.433-.04-.7-.02-.26.013-.553.063-.88.15-.293.073-.603.17-.93.29-.326.113-.673.25-1.04.41a.28.28 0 0 1-.22.01.316.316 0 0 1-.16-.16.255.255 0 0 1-.01-.23.31.31 0 0 1 .16-.17c.38-.167.737-.31 1.07-.43.34-.127.667-.227.98-.3.82-.207 1.49-.24 2.01-.1a.45.45 0 0 1 .32.28c.06.153.047.32-.04.5-.086.173-.19.357-.31.55a.38.38 0 0 0-.04.05.418.418 0 0 1-.03.07c.154-.033.377-.1.67-.2.3-.1.717-.247 1.25-.44a.256.256 0 0 1 .22.02c.08.033.134.09.16.17a.272.272 0 0 1 0 .23.306.306 0 0 1-.18.16c-.306.107-.586.203-.84.29-.253.087-.48.16-.68.22a13.2 13.2 0 0 1-.62.17 1.66 1.66 0 0 1-.31.04Zm3.179.67a1.02 1.02 0 0 1-.15-.01 1.387 1.387 0 0 1-.13-.03.362.362 0 0 1-.25-.21c-.06-.133-.06-.293 0-.48.067-.193.173-.44.32-.74a2.27 2.27 0 0 0 .08-.18c.027-.067.057-.13.09-.19a1.07 1.07 0 0 0-.28.17l-.29.23a.27.27 0 0 1-.22.06.337.337 0 0 1-.21-.11.27.27 0 0 1-.06-.22c.013-.08.05-.15.11-.21.093-.067.19-.14.29-.22a1.6 1.6 0 0 1 .32-.2c.273-.14.523-.177.75-.11.107.02.187.087.24.2.053.113.05.247-.01.4-.053.153-.147.37-.28.65-.033.08-.07.16-.11.24a7.51 7.51 0 0 1-.13.3l-.02.06c.067-.007.15-.027.25-.06.107-.033.227-.083.36-.15.14-.073.3-.17.48-.29.18-.12.387-.27.62-.45a19.664 19.664 0 0 0 .93-.81 13.814 13.814 0 0 0 .4-.39c.08-.093.177-.123.29-.09a.273.273 0 0 1 .13.07.54.54 0 0 1 .08.1c.047.093.05.203.01.33s-.113.323-.22.59l-.12.26a4.18 4.18 0 0 1-.1.24c-.007.033-.017.07-.03.11a.87.87 0 0 0 .3-.11c.107-.06.213-.127.32-.2.107-.073.207-.15.3-.23.093-.087.177-.16.25-.22a.283.283 0 0 1 .22-.08c.08.007.15.04.21.1.053.067.077.14.07.22 0 .08-.033.15-.1.21-.153.14-.31.273-.47.4-.16.12-.323.227-.49.32-.16.087-.323.15-.49.19-.167.033-.33.03-.49-.01a.405.405 0 0 1-.23-.2.571.571 0 0 1-.04-.3c.02-.113.06-.257.12-.43-.073.067-.15.13-.23.19l-.24.2c-.92.727-1.637 1.09-2.15 1.09Zm8.032-.67a.417.417 0 0 1-.13-.02.361.361 0 0 1-.27-.23.513.513 0 0 1 .03-.38c.06-.14.147-.297.26-.47.04-.06.077-.12.11-.18.04-.067.073-.127.1-.18a.346.346 0 0 0 .05-.1c-.2-.033-.433-.04-.7-.02-.26.013-.553.063-.88.15-.293.073-.603.17-.93.29-.327.113-.673.25-1.04.41a.28.28 0 0 1-.22.01.312.312 0 0 1-.16-.16.255.255 0 0 1-.01-.23.308.308 0 0 1 .16-.17c.38-.167.737-.31 1.07-.43.34-.127.667-.227.98-.3.82-.207 1.49-.24 2.01-.1.153.04.26.133.32.28.06.153.047.32-.04.5-.087.173-.19.357-.31.55a.312.312 0 0 0-.04.05.696.696 0 0 1-.03.07c.153-.033.377-.1.67-.2.3-.1.717-.247 1.25-.44a.256.256 0 0 1 .22.02.27.27 0 0 1 .16.17.28.28 0 0 1 0 .23.306.306 0 0 1-.18.16l-.84.29c-.253.087-.48.16-.68.22a13.2 13.2 0 0 1-.62.17 1.67 1.67 0 0 1-.31.04Zm3.709-.2a.252.252 0 0 1-.08-.01.445.445 0 0 1-.23-.12.84.84 0 0 1-.08-.14.54.54 0 0 1 .04-.45 4.4 4.4 0 0 1 .32-.5c.04-.053.077-.11.11-.17.033-.06.067-.117.1-.17a.266.266 0 0 0 .03-.04c-.04.013-.09.033-.15.06a1.476 1.476 0 0 0-.19.12 2.58 2.58 0 0 0-.38.29 16.81 16.81 0 0 0-.52.46 1.353 1.353 0 0 0-.1.09.308.308 0 0 1-.21.08.285.285 0 0 1-.21-.11.254.254 0 0 1-.08-.21.3.3 0 0 1 .1-.21.743.743 0 0 1 .11-.09l.1-.1c.16-.147.317-.283.47-.41.16-.133.313-.247.46-.34.153-.093.303-.16.45-.2a.76.76 0 0 1 .44-.01.46.46 0 0 1 .24.14c.047.06.077.113.09.16.06.153.047.31-.04.47-.087.16-.197.337-.33.53a.404.404 0 0 0-.05.07.5.5 0 0 1-.05.08c.1-.04.227-.087.38-.14.16-.06.357-.137.59-.23a.297.297 0 0 1 .24.02c.073.033.123.09.15.17.033.073.03.15-.01.23a.312.312 0 0 1-.16.16l-.58.2a12.302 12.302 0 0 0-.62.23c-.047.013-.09.027-.13.04a1.038 1.038 0 0 0-.13.04.36.36 0 0 1-.09.01Zm4.934.2a.417.417 0 0 1-.13-.02.361.361 0 0 1-.27-.23.513.513 0 0 1 .03-.38c.06-.14.146-.297.26-.47.04-.06.076-.12.11-.18.04-.067.073-.127.1-.18a.373.373 0 0 0 .05-.1c-.2-.033-.434-.04-.7-.02-.26.013-.554.063-.88.15-.294.073-.604.17-.93.29-.327.113-.674.25-1.04.41a.281.281 0 0 1-.22.01.309.309 0 0 1-.16-.16.252.252 0 0 1-.01-.23.304.304 0 0 1 .16-.17c.38-.167.736-.31 1.07-.43.34-.127.666-.227.98-.3.82-.207 1.49-.24 2.01-.1.153.04.26.133.32.28.06.153.046.32-.04.5-.087.173-.19.357-.31.55a.265.265 0 0 0-.04.05.696.696 0 0 1-.03.07c.153-.033.376-.1.67-.2.3-.1.716-.247 1.25-.44a.256.256 0 0 1 .22.02.27.27 0 0 1 .16.17.28.28 0 0 1 0 .23.312.312 0 0 1-.18.16l-.84.29c-.254.087-.48.16-.68.22-.274.08-.48.137-.62.17a1.68 1.68 0 0 1-.31.04Zm5.888 0a.421.421 0 0 1-.13-.02.364.364 0 0 1-.27-.23.513.513 0 0 1 .03-.38c.06-.14.147-.297.26-.47.04-.06.077-.12.11-.18.04-.067.074-.127.1-.18a.346.346 0 0 0 .05-.1c-.2-.033-.433-.04-.7-.02-.26.013-.553.063-.88.15-.293.073-.603.17-.93.29-.326.113-.673.25-1.04.41a.28.28 0 0 1-.22.01.316.316 0 0 1-.16-.16.255.255 0 0 1-.01-.23.31.31 0 0 1 .16-.17c.38-.167.737-.31 1.07-.43.34-.127.667-.227.98-.3.82-.207 1.49-.24 2.01-.1a.45.45 0 0 1 .32.28c.06.153.047.32-.04.5-.086.173-.19.357-.31.55a.38.38 0 0 0-.04.05.418.418 0 0 1-.03.07c.154-.033.377-.1.67-.2.3-.1.717-.247 1.25-.44a.256.256 0 0 1 .22.02c.08.033.134.09.16.17a.272.272 0 0 1 0 .23.306.306 0 0 1-.18.16c-.306.107-.586.203-.84.29-.253.087-.48.16-.68.22a13.2 13.2 0 0 1-.62.17 1.66 1.66 0 0 1-.31.04Zm3.709-.2a.252.252 0 0 1-.08-.01.445.445 0 0 1-.23-.12.84.84 0 0 1-.08-.14.54.54 0 0 1 .04-.45 4.4 4.4 0 0 1 .32-.5c.04-.053.077-.11.11-.17.033-.06.067-.117.1-.17a.266.266 0 0 0 .03-.04c-.04.013-.09.033-.15.06a1.476 1.476 0 0 0-.19.12 2.58 2.58 0 0 0-.38.29 16.81 16.81 0 0 0-.52.46 1.353 1.353 0 0 0-.1.09.308.308 0 0 1-.21.08.285.285 0 0 1-.21-.11.254.254 0 0 1-.08-.21.3.3 0 0 1 .1-.21.743.743 0 0 1 .11-.09l.1-.1c.16-.147.317-.283.47-.41.16-.133.313-.247.46-.34.153-.093.303-.16.45-.2a.76.76 0 0 1 .44-.01.46.46 0 0 1 .24.14c.047.06.077.113.09.16.06.153.047.31-.04.47-.087.16-.197.337-.33.53a.404.404 0 0 0-.05.07.5.5 0 0 1-.05.08c.1-.04.227-.087.38-.14.16-.06.357-.137.59-.23a.297.297 0 0 1 .24.02c.073.033.123.09.15.17.033.073.03.15-.01.23a.312.312 0 0 1-.16.16l-.58.2a12.302 12.302 0 0 0-.62.23c-.047.013-.09.027-.13.04a1.038 1.038 0 0 0-.13.04.36.36 0 0 1-.09.01Zm3.704.3a.29.29 0 0 1-.2-.07c-.107-.087-.137-.197-.09-.33 0-.007.023-.087.07-.24l.18-.52a21.961 21.961 0 0 0 .16-.52l-.48.18c-.18.067-.373.14-.58.22-.2.073-.407.15-.62.23-.213.08-.42.157-.62.23a.28.28 0 0 1-.22-.01.343.343 0 0 1-.17-.18.256.256 0 0 1 .02-.22.302.302 0 0 1 .17-.17c.3-.107.61-.22.93-.34a142.185 142.185 0 0 0 1.82-.68.434.434 0 0 1 .09-.01.173.173 0 0 1 .1.01c.093.013.16.067.2.16a.34.34 0 0 1 .04.21c0 .08-.017.197-.05.35a4.17 4.17 0 0 1-.08.29c-.027.1-.063.217-.11.35a.915.915 0 0 1-.02.07.915.915 0 0 0-.02.07c.267-.147.593-.3.98-.46a.257.257 0 0 1 .22 0 .275.275 0 0 1 .16.15c.04.073.043.15.01.23a.308.308 0 0 1-.16.17 20.377 20.377 0 0 0-1.58.78.228.228 0 0 1-.15.05Zm3.887 0a.29.29 0 0 1-.2-.07c-.107-.087-.137-.197-.09-.33 0-.007.023-.087.07-.24l.18-.52c.033-.113.063-.21.09-.29l.07-.23-.48.18c-.18.067-.374.14-.58.22-.2.073-.407.15-.62.23-.214.08-.42.157-.62.23a.28.28 0 0 1-.22-.01.343.343 0 0 1-.17-.18.256.256 0 0 1 .02-.22.302.302 0 0 1 .17-.17 170.293 170.293 0 0 0 2.75-1.02.434.434 0 0 1 .09-.01.174.174 0 0 1 .1.01c.093.013.16.067.2.16a.347.347 0 0 1 .04.21c0 .08-.017.197-.05.35a4.17 4.17 0 0 1-.08.29 5.42 5.42 0 0 1-.11.35l-.02.07a.61.61 0 0 0-.02.07c.266-.147.593-.3.98-.46a.257.257 0 0 1 .22 0 .277.277 0 0 1 .16.15c.04.073.043.15.01.23a.31.31 0 0 1-.16.17 20.377 20.377 0 0 0-1.58.78.228.228 0 0 1-.15.05Z" fill="#21324B"/><path fill="#EAEDF0" d="M176 137h128v1H176z"/><path d="M192.942 155.24a.426.426 0 0 1-.08-.008.575.575 0 0 1-.088-.008.298.298 0 0 1-.16-.136.334.334 0 0 1-.032-.112.762.762 0 0 1 .016-.208c.021-.091.053-.213.096-.368.048-.16.112-.365.192-.616-.123.043-.259.093-.408.152-.15.059-.304.117-.464.176a.225.225 0 0 1-.176-.008.273.273 0 0 1-.136-.144.204.204 0 0 1 .016-.176.242.242 0 0 1 .136-.136l.496-.184c.16-.059.301-.109.424-.152.122-.048.221-.085.296-.112l.112-.048a.217.217 0 0 1 .152-.008c.069.016.12.056.152.12.026.048.034.091.024.128a1.816 1.816 0 0 1-.024.12.254.254 0 0 0-.024.072 3.43 3.43 0 0 1-.024.08 4.068 4.068 0 0 0-.12.336c-.038.128-.078.259-.12.392a3.894 3.894 0 0 0-.104.336c.101-.021.248-.083.44-.184.165-.091.341-.195.528-.312.186-.117.381-.245.584-.384l.128-.08c.042-.027.085-.056.128-.088a.228.228 0 0 1 .184-.032.244.244 0 0 1 .16.104c.037.059.048.12.032.184a.216.216 0 0 1-.104.144 3.203 3.203 0 0 1-.272.184c-.203.133-.4.261-.592.384a8.072 8.072 0 0 1-.544.32c-.347.181-.622.272-.824.272Zm3.933-.472a.235.235 0 0 1-.16-.056c-.086-.069-.11-.157-.072-.264 0-.005.018-.069.056-.192l.144-.416a4.67 4.67 0 0 1 .072-.232l.056-.184-.384.144c-.144.053-.299.112-.464.176l-.496.184a108.2 108.2 0 0 1-.496.184.225.225 0 0 1-.176-.008.273.273 0 0 1-.136-.144.204.204 0 0 1 .016-.176.242.242 0 0 1 .136-.136 143.317 143.317 0 0 0 1.984-.736l.216-.08a.386.386 0 0 1 .072-.008.14.14 0 0 1 .08.008.198.198 0 0 1 .16.128.28.28 0 0 1 .032.168c0 .064-.014.157-.04.28a3.575 3.575 0 0 1-.064.232c-.022.08-.051.173-.088.28l-.016.056a.483.483 0 0 0-.016.056c.213-.117.474-.24.784-.368a.201.201 0 0 1 .176 0 .219.219 0 0 1 .128.12c.032.059.034.12.008.184a.251.251 0 0 1-.128.136 14.3 14.3 0 0 0-.904.432 12.71 12.71 0 0 0-.36.192.18.18 0 0 1-.12.04Zm2.293.472a.434.434 0 0 1-.08-.008.575.575 0 0 1-.088-.008.302.302 0 0 1-.16-.136.334.334 0 0 1-.032-.112.805.805 0 0 1 .016-.208c.021-.091.053-.213.096-.368.048-.16.112-.365.192-.616-.123.043-.259.093-.408.152-.149.059-.304.117-.464.176a.225.225 0 0 1-.176-.008.277.277 0 0 1-.136-.144.207.207 0 0 1 .016-.176.245.245 0 0 1 .136-.136l.496-.184c.16-.059.301-.109.424-.152.123-.048.221-.085.296-.112l.112-.048a.217.217 0 0 1 .152-.008c.069.016.12.056.152.12.027.048.035.091.024.128a1.06 1.06 0 0 1-.024.12.254.254 0 0 0-.024.072.889.889 0 0 1-.024.08 4.97 4.97 0 0 0-.12.336 13.108 13.108 0 0 1-.184.584 3.467 3.467 0 0 0-.04.144c.101-.021.248-.083.44-.184.165-.091.341-.195.528-.312.187-.117.381-.245.584-.384l.128-.08c.043-.027.085-.056.128-.088a.229.229 0 0 1 .184-.032.244.244 0 0 1 .16.104c.037.059.048.12.032.184a.212.212 0 0 1-.104.144 3.203 3.203 0 0 1-.272.184c-.203.133-.4.261-.592.384a7.83 7.83 0 0 1-.544.32c-.347.181-.621.272-.824.272Zm6.64-.016a.804.804 0 0 1-.224-.032.291.291 0 0 1-.2-.168.527.527 0 0 1 0-.384 5.47 5.47 0 0 1 .256-.592c.021-.043.043-.091.064-.144.021-.053.045-.104.072-.152a.882.882 0 0 0-.224.136l-.232.184a.212.212 0 0 1-.176.048.276.276 0 0 1-.168-.088.212.212 0 0 1-.048-.176.306.306 0 0 1 .088-.168 4.92 4.92 0 0 0 .232-.176 1.29 1.29 0 0 1 .256-.16c.219-.112.419-.141.6-.088.085.016.149.069.192.16.043.091.04.197-.008.32a5.543 5.543 0 0 1-.224.52 3.272 3.272 0 0 1-.088.192 6.73 6.73 0 0 1-.104.24l-.016.048a.925.925 0 0 0 .2-.048 2.08 2.08 0 0 0 .288-.12c.112-.059.24-.136.384-.232.144-.096.309-.216.496-.36a14.62 14.62 0 0 0 .744-.648c.096-.091.173-.165.232-.224l.088-.088c.064-.075.141-.099.232-.072a.218.218 0 0 1 .104.056.408.408 0 0 1 .064.08c.037.075.04.163.008.264a7.764 7.764 0 0 1-.176.472l-.096.208a3.746 3.746 0 0 1-.08.192.62.62 0 0 1-.024.088.699.699 0 0 0 .24-.088 3.258 3.258 0 0 0 .496-.344c.075-.069.141-.128.2-.176a.228.228 0 0 1 .176-.064c.064.005.12.032.168.08a.24.24 0 0 1 .056.176.22.22 0 0 1-.08.168 6.996 6.996 0 0 1-.376.32 3.6 3.6 0 0 1-.392.256 1.63 1.63 0 0 1-.392.152.878.878 0 0 1-.392-.008.322.322 0 0 1-.184-.16.453.453 0 0 1-.032-.24c.016-.091.048-.205.096-.344-.059.053-.12.104-.184.152-.059.048-.123.101-.192.16-.736.581-1.309.872-1.72.872Zm4.682-.696a.217.217 0 0 1-.064-.008.344.344 0 0 1-.184-.096.622.622 0 0 1-.064-.112.43.43 0 0 1 .032-.36c.069-.128.154-.261.256-.4.032-.043.061-.088.088-.136.026-.048.053-.093.08-.136a.28.28 0 0 0 .024-.032 1.647 1.647 0 0 0-.12.048 1.009 1.009 0 0 0-.152.096 2.085 2.085 0 0 0-.304.232 15.062 15.062 0 0 0-.416.368.753.753 0 0 0-.08.072.243.243 0 0 1-.168.064.226.226 0 0 1-.168-.088.202.202 0 0 1-.064-.168.24.24 0 0 1 .08-.168.512.512 0 0 1 .088-.072l.08-.08a9.46 9.46 0 0 1 .376-.328c.128-.107.25-.197.368-.272.122-.075.242-.128.36-.16a.614.614 0 0 1 .352-.008c.09.027.154.064.192.112a.414.414 0 0 1 .072.128.43.43 0 0 1-.032.376 5.088 5.088 0 0 1-.304.48.448.448 0 0 1-.04.064 22.744 22.744 0 0 0 .776-.296.24.24 0 0 1 .192.016.223.223 0 0 1 .12.136.207.207 0 0 1-.008.184.254.254 0 0 1-.128.128l-.464.16a10.65 10.65 0 0 0-.352.128l-.144.056a2.234 2.234 0 0 0-.104.032.78.78 0 0 0-.104.032.324.324 0 0 1-.072.008Zm3.947.16a.32.32 0 0 1-.104-.016.29.29 0 0 1-.216-.184.41.41 0 0 1 .024-.304c.048-.112.117-.237.208-.376.032-.048.061-.096.088-.144.032-.053.059-.101.08-.144a.285.285 0 0 0 .04-.08 2.348 2.348 0 0 0-.56-.016 3.516 3.516 0 0 0-.704.12 7.336 7.336 0 0 0-.744.232c-.261.091-.539.2-.832.328a.225.225 0 0 1-.176.008.25.25 0 0 1-.128-.128.202.202 0 0 1-.008-.184.248.248 0 0 1 .128-.136c.304-.133.589-.248.856-.344.272-.101.533-.181.784-.24.656-.165 1.192-.192 1.608-.08a.362.362 0 0 1 .256.224.487.487 0 0 1-.032.4 5.422 5.422 0 0 1-.248.44.28.28 0 0 0-.032.04.347.347 0 0 1-.024.056c.123-.027.301-.08.536-.16.24-.08.573-.197 1-.352a.207.207 0 0 1 .176.016.216.216 0 0 1 .128.136.219.219 0 0 1 0 .184.248.248 0 0 1-.144.128c-.245.085-.469.163-.672.232a11.61 11.61 0 0 1-1.04.312 1.39 1.39 0 0 1-.248.032Zm2.543.536a.804.804 0 0 1-.224-.032.291.291 0 0 1-.2-.168.527.527 0 0 1 0-.384 5.47 5.47 0 0 1 .256-.592c.021-.043.043-.091.064-.144.021-.053.045-.104.072-.152a.882.882 0 0 0-.224.136l-.232.184a.212.212 0 0 1-.176.048.276.276 0 0 1-.168-.088.212.212 0 0 1-.048-.176.306.306 0 0 1 .088-.168 4.92 4.92 0 0 0 .232-.176 1.29 1.29 0 0 1 .256-.16c.219-.112.419-.141.6-.088.085.016.149.069.192.16.043.091.04.197-.008.32a5.543 5.543 0 0 1-.224.52 3.272 3.272 0 0 1-.088.192 6.73 6.73 0 0 1-.104.24l-.016.048a.925.925 0 0 0 .2-.048 2.08 2.08 0 0 0 .288-.12c.112-.059.24-.136.384-.232.144-.096.309-.216.496-.36a14.62 14.62 0 0 0 .744-.648c.096-.091.173-.165.232-.224l.088-.088c.064-.075.141-.099.232-.072a.218.218 0 0 1 .104.056.408.408 0 0 1 .064.08c.037.075.04.163.008.264a7.764 7.764 0 0 1-.176.472l-.096.208a3.746 3.746 0 0 1-.08.192.62.62 0 0 1-.024.088.699.699 0 0 0 .24-.088 3.258 3.258 0 0 0 .496-.344c.075-.069.141-.128.2-.176a.228.228 0 0 1 .176-.064c.064.005.12.032.168.08a.24.24 0 0 1 .056.176.22.22 0 0 1-.08.168 6.996 6.996 0 0 1-.376.32 3.6 3.6 0 0 1-.392.256 1.63 1.63 0 0 1-.392.152.878.878 0 0 1-.392-.008.322.322 0 0 1-.184-.16.453.453 0 0 1-.032-.24c.016-.091.048-.205.096-.344-.059.053-.12.104-.184.152-.059.048-.123.101-.192.16-.736.581-1.309.872-1.72.872Zm4.258 0a.804.804 0 0 1-.224-.032.291.291 0 0 1-.2-.168.527.527 0 0 1 0-.384c.053-.155.138-.352.256-.592.021-.043.042-.091.064-.144.021-.053.045-.104.072-.152a.865.865 0 0 0-.224.136l-.232.184a.213.213 0 0 1-.176.048.27.27 0 0 1-.168-.088.212.212 0 0 1-.048-.176.3.3 0 0 1 .088-.168c.074-.053.152-.112.232-.176a1.29 1.29 0 0 1 .256-.16c.218-.112.418-.141.6-.088.085.016.149.069.192.16.042.091.04.197-.008.32a5.828 5.828 0 0 1-.224.52 3.272 3.272 0 0 1-.088.192l-.08.184a.347.347 0 0 0-.024.056l-.016.048a.925.925 0 0 0 .2-.048 2.08 2.08 0 0 0 .288-.12c.112-.059.24-.136.384-.232.144-.096.309-.216.496-.36a14.62 14.62 0 0 0 .744-.648 12.773 12.773 0 0 0 .32-.312c.064-.075.141-.099.232-.072a.223.223 0 0 1 .104.056.449.449 0 0 1 .064.08c.037.075.04.163.008.264a7.764 7.764 0 0 1-.176.472l-.096.208a4.928 4.928 0 0 1-.08.192 1.088 1.088 0 0 1-.024.088.714.714 0 0 0 .24-.088 3.454 3.454 0 0 0 .496-.344c.074-.069.141-.128.2-.176a.228.228 0 0 1 .176-.064c.064.005.12.032.168.08a.245.245 0 0 1 .056.176.22.22 0 0 1-.08.168 6.996 6.996 0 0 1-.376.32 3.6 3.6 0 0 1-.392.256 1.63 1.63 0 0 1-.392.152.878.878 0 0 1-.392-.008.319.319 0 0 1-.184-.16.453.453 0 0 1-.032-.24c.016-.091.048-.205.096-.344-.059.053-.12.104-.184.152-.059.048-.123.101-.192.16-.736.581-1.31.872-1.72.872Zm10.316-.536a.32.32 0 0 1-.104-.016.29.29 0 0 1-.216-.184.41.41 0 0 1 .024-.304c.048-.112.117-.237.208-.376.032-.048.061-.096.088-.144.032-.053.059-.101.08-.144a.285.285 0 0 0 .04-.08 2.348 2.348 0 0 0-.56-.016 3.516 3.516 0 0 0-.704.12 7.336 7.336 0 0 0-.744.232c-.261.091-.539.2-.832.328a.225.225 0 0 1-.176.008.25.25 0 0 1-.128-.128.202.202 0 0 1-.008-.184.248.248 0 0 1 .128-.136c.304-.133.589-.248.856-.344.272-.101.533-.181.784-.24.656-.165 1.192-.192 1.608-.08a.362.362 0 0 1 .256.224.487.487 0 0 1-.032.4 5.422 5.422 0 0 1-.248.44.28.28 0 0 0-.032.04.347.347 0 0 1-.024.056c.123-.027.301-.08.536-.16.24-.08.573-.197 1-.352a.207.207 0 0 1 .176.016.216.216 0 0 1 .128.136.219.219 0 0 1 0 .184.248.248 0 0 1-.144.128c-.245.085-.469.163-.672.232a11.61 11.61 0 0 1-1.04.312 1.39 1.39 0 0 1-.248.032Zm2.967-.16a.217.217 0 0 1-.064-.008.348.348 0 0 1-.184-.096.692.692 0 0 1-.064-.112.43.43 0 0 1 .032-.36c.069-.128.155-.261.256-.4.032-.043.061-.088.088-.136.027-.048.053-.093.08-.136a.28.28 0 0 0 .024-.032 1.647 1.647 0 0 0-.12.048 1.061 1.061 0 0 0-.152.096 2.14 2.14 0 0 0-.304.232 15.062 15.062 0 0 0-.496.44.243.243 0 0 1-.168.064.23.23 0 0 1-.168-.088.205.205 0 0 1-.064-.168.24.24 0 0 1 .08-.168.553.553 0 0 1 .088-.072l.08-.08a9.46 9.46 0 0 1 .376-.328c.128-.107.251-.197.368-.272.123-.075.243-.128.36-.16a.614.614 0 0 1 .352-.008.367.367 0 0 1 .192.112.414.414 0 0 1 .072.128.43.43 0 0 1-.032.376 4.607 4.607 0 0 1-.304.48.448.448 0 0 1-.04.064 22.744 22.744 0 0 0 .776-.296.24.24 0 0 1 .192.016.217.217 0 0 1 .12.136.203.203 0 0 1-.008.184.25.25 0 0 1-.128.128l-.464.16a10.65 10.65 0 0 0-.496.184c-.037.011-.072.021-.104.032a.83.83 0 0 0-.104.032.31.31 0 0 1-.072.008Zm1.779.696a.804.804 0 0 1-.224-.032.291.291 0 0 1-.2-.168.527.527 0 0 1 0-.384 5.47 5.47 0 0 1 .256-.592c.021-.043.043-.091.064-.144.021-.053.045-.104.072-.152a.882.882 0 0 0-.224.136l-.232.184a.212.212 0 0 1-.176.048.276.276 0 0 1-.168-.088.212.212 0 0 1-.048-.176.306.306 0 0 1 .088-.168 4.92 4.92 0 0 0 .232-.176 1.29 1.29 0 0 1 .256-.16c.219-.112.419-.141.6-.088.085.016.149.069.192.16.043.091.04.197-.008.32a5.543 5.543 0 0 1-.224.52 3.272 3.272 0 0 1-.088.192 6.73 6.73 0 0 1-.104.24l-.016.048a.925.925 0 0 0 .2-.048 2.08 2.08 0 0 0 .288-.12c.112-.059.24-.136.384-.232.144-.096.309-.216.496-.36a14.62 14.62 0 0 0 .744-.648c.096-.091.173-.165.232-.224l.088-.088c.064-.075.141-.099.232-.072a.218.218 0 0 1 .104.056.408.408 0 0 1 .064.08c.037.075.04.163.008.264a7.764 7.764 0 0 1-.176.472l-.096.208a3.746 3.746 0 0 1-.08.192.62.62 0 0 1-.024.088.699.699 0 0 0 .24-.088 3.258 3.258 0 0 0 .496-.344c.075-.069.141-.128.2-.176a.228.228 0 0 1 .176-.064c.064.005.12.032.168.08a.24.24 0 0 1 .056.176.22.22 0 0 1-.08.168 6.996 6.996 0 0 1-.376.32 3.6 3.6 0 0 1-.392.256 1.63 1.63 0 0 1-.392.152.878.878 0 0 1-.392-.008.322.322 0 0 1-.184-.16.453.453 0 0 1-.032-.24c.016-.091.048-.205.096-.344-.059.053-.12.104-.184.152-.059.048-.123.101-.192.16-.736.581-1.309.872-1.72.872Zm6.426-.536a.32.32 0 0 1-.104-.016.29.29 0 0 1-.216-.184.41.41 0 0 1 .024-.304c.048-.112.117-.237.208-.376.032-.048.061-.096.088-.144.032-.053.059-.101.08-.144a.285.285 0 0 0 .04-.08 2.348 2.348 0 0 0-.56-.016 3.516 3.516 0 0 0-.704.12 7.336 7.336 0 0 0-.744.232c-.261.091-.539.2-.832.328a.225.225 0 0 1-.176.008.25.25 0 0 1-.128-.128.202.202 0 0 1-.008-.184.248.248 0 0 1 .128-.136c.304-.133.589-.248.856-.344.272-.101.533-.181.784-.24.656-.165 1.192-.192 1.608-.08a.362.362 0 0 1 .256.224.487.487 0 0 1-.032.4 5.422 5.422 0 0 1-.248.44.28.28 0 0 0-.032.04.347.347 0 0 1-.024.056c.123-.027.301-.08.536-.16.24-.08.573-.197 1-.352a.207.207 0 0 1 .176.016.216.216 0 0 1 .128.136.219.219 0 0 1 0 .184.248.248 0 0 1-.144.128c-.245.085-.469.163-.672.232a11.61 11.61 0 0 1-1.04.312 1.39 1.39 0 0 1-.248.032Zm8.602 0a.315.315 0 0 1-.104-.016.288.288 0 0 1-.216-.184.41.41 0 0 1 .024-.304c.048-.112.117-.237.208-.376.032-.048.061-.096.088-.144a2.32 2.32 0 0 0 .08-.144.285.285 0 0 0 .04-.08 2.348 2.348 0 0 0-.56-.016 3.516 3.516 0 0 0-.704.12 7.336 7.336 0 0 0-.744.232c-.262.091-.539.2-.832.328a.225.225 0 0 1-.176.008.246.246 0 0 1-.128-.128.202.202 0 0 1-.008-.184.245.245 0 0 1 .128-.136c.304-.133.589-.248.856-.344.272-.101.533-.181.784-.24.656-.165 1.192-.192 1.608-.08a.363.363 0 0 1 .256.224.487.487 0 0 1-.032.4c-.07.139-.152.285-.248.44a.224.224 0 0 0-.032.04.721.721 0 0 1-.024.056c.122-.027.301-.08.536-.16.24-.08.573-.197 1-.352a.207.207 0 0 1 .176.016.218.218 0 0 1 .128.136.227.227 0 0 1 0 .184.248.248 0 0 1-.144.128l-.672.232a11.61 11.61 0 0 1-1.04.312 1.4 1.4 0 0 1-.248.032Zm2.966-.16a.222.222 0 0 1-.064-.008.352.352 0 0 1-.184-.096.692.692 0 0 1-.064-.112.434.434 0 0 1 .032-.36c.07-.128.155-.261.256-.4a1.13 1.13 0 0 0 .088-.136c.027-.048.054-.093.08-.136a.15.15 0 0 0 .024-.032 1.647 1.647 0 0 0-.12.048 1.12 1.12 0 0 0-.152.096 2.14 2.14 0 0 0-.304.232 17.856 17.856 0 0 0-.496.44.243.243 0 0 1-.168.064.23.23 0 0 1-.168-.088.205.205 0 0 1-.064-.168.244.244 0 0 1 .08-.168.553.553 0 0 1 .088-.072l.08-.08c.128-.117.254-.227.376-.328.128-.107.251-.197.368-.272.123-.075.243-.128.36-.16a.614.614 0 0 1 .352-.008.367.367 0 0 1 .192.112.376.376 0 0 1 .072.128.427.427 0 0 1-.032.376 4.607 4.607 0 0 1-.304.48.374.374 0 0 1-.04.064 20.73 20.73 0 0 0 .776-.296.24.24 0 0 1 .192.016.217.217 0 0 1 .12.136.203.203 0 0 1-.008.184.246.246 0 0 1-.128.128l-.464.16a11.56 11.56 0 0 0-.496.184c-.037.011-.072.021-.104.032a.887.887 0 0 0-.104.032.31.31 0 0 1-.072.008Zm1.78.696a.804.804 0 0 1-.224-.032.291.291 0 0 1-.2-.168.527.527 0 0 1 0-.384c.053-.155.138-.352.256-.592.021-.043.042-.091.064-.144.021-.053.045-.104.072-.152a.865.865 0 0 0-.224.136l-.232.184a.213.213 0 0 1-.176.048.27.27 0 0 1-.168-.088.212.212 0 0 1-.048-.176.3.3 0 0 1 .088-.168c.074-.053.152-.112.232-.176a1.29 1.29 0 0 1 .256-.16c.218-.112.418-.141.6-.088.085.016.149.069.192.16.042.091.04.197-.008.32a5.828 5.828 0 0 1-.224.52 3.272 3.272 0 0 1-.088.192l-.08.184a.347.347 0 0 0-.024.056l-.016.048a.925.925 0 0 0 .2-.048 2.08 2.08 0 0 0 .288-.12c.112-.059.24-.136.384-.232.144-.096.309-.216.496-.36a14.62 14.62 0 0 0 .744-.648c.096-.091.173-.165.232-.224l.088-.088c.064-.075.141-.099.232-.072a.223.223 0 0 1 .104.056.449.449 0 0 1 .064.08c.037.075.04.163.008.264a7.764 7.764 0 0 1-.176.472l-.096.208a4.928 4.928 0 0 1-.08.192 1.088 1.088 0 0 1-.024.088.714.714 0 0 0 .24-.088 3.454 3.454 0 0 0 .496-.344c.074-.069.141-.128.2-.176a.228.228 0 0 1 .176-.064c.064.005.12.032.168.08a.245.245 0 0 1 .056.176.22.22 0 0 1-.08.168 6.996 6.996 0 0 1-.376.32 3.6 3.6 0 0 1-.392.256 1.63 1.63 0 0 1-.392.152.878.878 0 0 1-.392-.008.319.319 0 0 1-.184-.16.453.453 0 0 1-.032-.24c.016-.091.048-.205.096-.344-.059.053-.12.104-.184.152-.059.048-.123.101-.192.16-.736.581-1.31.872-1.72.872Zm8.148 0a.804.804 0 0 1-.224-.032.291.291 0 0 1-.2-.168.527.527 0 0 1 0-.384 5.47 5.47 0 0 1 .256-.592c.021-.043.043-.091.064-.144.021-.053.045-.104.072-.152a.882.882 0 0 0-.224.136l-.232.184a.212.212 0 0 1-.176.048.276.276 0 0 1-.168-.088.212.212 0 0 1-.048-.176.306.306 0 0 1 .088-.168 4.92 4.92 0 0 0 .232-.176 1.29 1.29 0 0 1 .256-.16c.219-.112.419-.141.6-.088.085.016.149.069.192.16.043.091.04.197-.008.32a5.543 5.543 0 0 1-.224.52 3.272 3.272 0 0 1-.088.192 6.73 6.73 0 0 1-.104.24l-.016.048a.925.925 0 0 0 .2-.048 2.08 2.08 0 0 0 .288-.12c.112-.059.24-.136.384-.232.144-.096.309-.216.496-.36a14.62 14.62 0 0 0 .744-.648c.096-.091.173-.165.232-.224l.088-.088c.064-.075.141-.099.232-.072a.218.218 0 0 1 .104.056.408.408 0 0 1 .064.08c.037.075.04.163.008.264a7.764 7.764 0 0 1-.176.472l-.096.208a3.746 3.746 0 0 1-.08.192.62.62 0 0 1-.024.088.699.699 0 0 0 .24-.088 3.258 3.258 0 0 0 .496-.344c.075-.069.141-.128.2-.176a.228.228 0 0 1 .176-.064c.064.005.12.032.168.08a.24.24 0 0 1 .056.176.22.22 0 0 1-.08.168 6.996 6.996 0 0 1-.376.32 3.6 3.6 0 0 1-.392.256 1.63 1.63 0 0 1-.392.152.878.878 0 0 1-.392-.008.322.322 0 0 1-.184-.16.453.453 0 0 1-.032-.24c.016-.091.048-.205.096-.344-.059.053-.12.104-.184.152-.059.048-.123.101-.192.16-.736.581-1.309.872-1.72.872Zm6.426-.536a.32.32 0 0 1-.104-.016.29.29 0 0 1-.216-.184.41.41 0 0 1 .024-.304c.048-.112.117-.237.208-.376.032-.048.061-.096.088-.144.032-.053.059-.101.08-.144a.285.285 0 0 0 .04-.08 2.348 2.348 0 0 0-.56-.016 3.516 3.516 0 0 0-.704.12 7.336 7.336 0 0 0-.744.232c-.261.091-.539.2-.832.328a.225.225 0 0 1-.176.008.25.25 0 0 1-.128-.128.202.202 0 0 1-.008-.184.248.248 0 0 1 .128-.136c.304-.133.589-.248.856-.344.272-.101.533-.181.784-.24.656-.165 1.192-.192 1.608-.08a.362.362 0 0 1 .256.224.487.487 0 0 1-.032.4 5.422 5.422 0 0 1-.248.44.28.28 0 0 0-.032.04.347.347 0 0 1-.024.056c.123-.027.301-.08.536-.16.24-.08.573-.197 1-.352a.207.207 0 0 1 .176.016.216.216 0 0 1 .128.136.219.219 0 0 1 0 .184.248.248 0 0 1-.144.128c-.245.085-.469.163-.672.232a11.61 11.61 0 0 1-1.04.312 1.39 1.39 0 0 1-.248.032Zm4.711 0a.315.315 0 0 1-.104-.016.288.288 0 0 1-.216-.184.41.41 0 0 1 .024-.304c.048-.112.117-.237.208-.376.032-.048.061-.096.088-.144a2.32 2.32 0 0 0 .08-.144.285.285 0 0 0 .04-.08 2.348 2.348 0 0 0-.56-.016 3.516 3.516 0 0 0-.704.12 7.336 7.336 0 0 0-.744.232c-.262.091-.539.2-.832.328a.225.225 0 0 1-.176.008.246.246 0 0 1-.128-.128.202.202 0 0 1-.008-.184.245.245 0 0 1 .128-.136c.304-.133.589-.248.856-.344.272-.101.533-.181.784-.24.656-.165 1.192-.192 1.608-.08a.363.363 0 0 1 .256.224.487.487 0 0 1-.032.4c-.07.139-.152.285-.248.44a.224.224 0 0 0-.032.04.721.721 0 0 1-.024.056c.122-.027.301-.08.536-.16.24-.08.573-.197 1-.352a.207.207 0 0 1 .176.016.218.218 0 0 1 .128.136.227.227 0 0 1 0 .184.248.248 0 0 1-.144.128l-.672.232a11.61 11.61 0 0 1-1.04.312 1.4 1.4 0 0 1-.248.032Zm6.857-.16a.222.222 0 0 1-.064-.008.352.352 0 0 1-.184-.096.692.692 0 0 1-.064-.112.434.434 0 0 1 .032-.36c.07-.128.155-.261.256-.4a1.13 1.13 0 0 0 .088-.136c.027-.048.054-.093.08-.136a.15.15 0 0 0 .024-.032 1.647 1.647 0 0 0-.12.048 1.12 1.12 0 0 0-.152.096 2.14 2.14 0 0 0-.304.232 17.856 17.856 0 0 0-.496.44.243.243 0 0 1-.168.064.23.23 0 0 1-.168-.088.205.205 0 0 1-.064-.168.244.244 0 0 1 .08-.168.553.553 0 0 1 .088-.072l.08-.08c.128-.117.254-.227.376-.328.128-.107.251-.197.368-.272.123-.075.243-.128.36-.16a.614.614 0 0 1 .352-.008.367.367 0 0 1 .192.112.376.376 0 0 1 .072.128.427.427 0 0 1-.032.376 4.607 4.607 0 0 1-.304.48.374.374 0 0 1-.04.064 20.73 20.73 0 0 0 .776-.296.24.24 0 0 1 .192.016.217.217 0 0 1 .12.136.203.203 0 0 1-.008.184.246.246 0 0 1-.128.128l-.464.16a11.56 11.56 0 0 0-.496.184c-.037.011-.072.021-.104.032a.887.887 0 0 0-.104.032.31.31 0 0 1-.072.008Zm3.947.16a.32.32 0 0 1-.104-.016.29.29 0 0 1-.216-.184.41.41 0 0 1 .024-.304c.048-.112.118-.237.208-.376.032-.048.062-.096.088-.144.032-.053.059-.101.08-.144a.26.26 0 0 0 .04-.08 2.346 2.346 0 0 0-.56-.016 3.528 3.528 0 0 0-.704.12 7.497 7.497 0 0 0-.744.232c-.261.091-.538.2-.832.328a.225.225 0 0 1-.176.008.254.254 0 0 1-.128-.128.205.205 0 0 1-.008-.184.251.251 0 0 1 .128-.136c.304-.133.59-.248.856-.344.272-.101.534-.181.784-.24.656-.165 1.192-.192 1.608-.08a.362.362 0 0 1 .256.224.483.483 0 0 1-.032.4 5.422 5.422 0 0 1-.248.44.372.372 0 0 0-.032.04.347.347 0 0 1-.024.056c.123-.027.302-.08.536-.16.24-.08.574-.197 1-.352a.207.207 0 0 1 .176.016.216.216 0 0 1 .128.136.219.219 0 0 1 0 .184.242.242 0 0 1-.144.128c-.245.085-.469.163-.672.232a11.215 11.215 0 0 1-1.04.312 1.38 1.38 0 0 1-.248.032Zm-79.644 11a.32.32 0 0 1-.104-.016.29.29 0 0 1-.216-.184.41.41 0 0 1 .024-.304c.048-.112.117-.237.208-.376.032-.048.061-.096.088-.144.032-.053.059-.101.08-.144a.285.285 0 0 0 .04-.08 2.348 2.348 0 0 0-.56-.016 3.516 3.516 0 0 0-.704.12 7.336 7.336 0 0 0-.744.232c-.261.091-.539.2-.832.328a.225.225 0 0 1-.176.008.25.25 0 0 1-.128-.128.202.202 0 0 1-.008-.184.248.248 0 0 1 .128-.136c.304-.133.589-.248.856-.344.272-.101.533-.181.784-.24.656-.165 1.192-.192 1.608-.08a.362.362 0 0 1 .256.224.487.487 0 0 1-.032.4 5.422 5.422 0 0 1-.248.44.28.28 0 0 0-.032.04.347.347 0 0 1-.024.056c.123-.027.301-.08.536-.16.24-.08.573-.197 1-.352a.207.207 0 0 1 .176.016.216.216 0 0 1 .128.136.219.219 0 0 1 0 .184.248.248 0 0 1-.144.128c-.245.085-.469.163-.672.232a11.61 11.61 0 0 1-1.04.312 1.39 1.39 0 0 1-.248.032Zm2.543.536a.804.804 0 0 1-.224-.032.291.291 0 0 1-.2-.168.527.527 0 0 1 0-.384 5.47 5.47 0 0 1 .256-.592c.021-.043.043-.091.064-.144.021-.053.045-.104.072-.152a.882.882 0 0 0-.224.136l-.232.184a.212.212 0 0 1-.176.048.276.276 0 0 1-.168-.088.212.212 0 0 1-.048-.176.306.306 0 0 1 .088-.168 4.92 4.92 0 0 0 .232-.176 1.29 1.29 0 0 1 .256-.16c.219-.112.419-.141.6-.088.085.016.149.069.192.16.043.091.04.197-.008.32a5.543 5.543 0 0 1-.224.52 3.272 3.272 0 0 1-.088.192 6.73 6.73 0 0 1-.104.24l-.016.048a.925.925 0 0 0 .2-.048 2.08 2.08 0 0 0 .288-.12c.112-.059.24-.136.384-.232.144-.096.309-.216.496-.36a14.62 14.62 0 0 0 .744-.648c.096-.091.173-.165.232-.224l.088-.088c.064-.075.141-.099.232-.072a.218.218 0 0 1 .104.056.408.408 0 0 1 .064.08c.037.075.04.163.008.264a7.764 7.764 0 0 1-.176.472l-.096.208a3.746 3.746 0 0 1-.08.192.62.62 0 0 1-.024.088.699.699 0 0 0 .24-.088 3.258 3.258 0 0 0 .496-.344c.075-.069.141-.128.2-.176a.228.228 0 0 1 .176-.064c.064.005.12.032.168.08a.24.24 0 0 1 .056.176.22.22 0 0 1-.08.168 6.996 6.996 0 0 1-.376.32 3.6 3.6 0 0 1-.392.256 1.63 1.63 0 0 1-.392.152.878.878 0 0 1-.392-.008.322.322 0 0 1-.184-.16.453.453 0 0 1-.032-.24c.016-.091.048-.205.096-.344-.059.053-.12.104-.184.152-.059.048-.123.101-.192.16-.736.581-1.309.872-1.72.872Zm6.426-.536a.315.315 0 0 1-.104-.016.288.288 0 0 1-.216-.184.41.41 0 0 1 .024-.304c.048-.112.117-.237.208-.376.032-.048.061-.096.088-.144a2.32 2.32 0 0 0 .08-.144.285.285 0 0 0 .04-.08 2.348 2.348 0 0 0-.56-.016 3.516 3.516 0 0 0-.704.12 7.336 7.336 0 0 0-.744.232c-.262.091-.539.2-.832.328a.225.225 0 0 1-.176.008.246.246 0 0 1-.128-.128.202.202 0 0 1-.008-.184.245.245 0 0 1 .128-.136c.304-.133.589-.248.856-.344.272-.101.533-.181.784-.24.656-.165 1.192-.192 1.608-.08a.363.363 0 0 1 .256.224.487.487 0 0 1-.032.4c-.07.139-.152.285-.248.44a.224.224 0 0 0-.032.04.721.721 0 0 1-.024.056c.122-.027.301-.08.536-.16.24-.08.573-.197 1-.352a.207.207 0 0 1 .176.016.218.218 0 0 1 .128.136.227.227 0 0 1 0 .184.248.248 0 0 1-.144.128l-.672.232a11.61 11.61 0 0 1-1.04.312 1.4 1.4 0 0 1-.248.032Zm4.711 0a.315.315 0 0 1-.104-.016.288.288 0 0 1-.216-.184.41.41 0 0 1 .024-.304c.048-.112.117-.237.208-.376.032-.048.061-.096.088-.144a2.32 2.32 0 0 0 .08-.144.285.285 0 0 0 .04-.08 2.348 2.348 0 0 0-.56-.016 3.516 3.516 0 0 0-.704.12 7.336 7.336 0 0 0-.744.232c-.262.091-.539.2-.832.328a.225.225 0 0 1-.176.008.246.246 0 0 1-.128-.128.202.202 0 0 1-.008-.184.245.245 0 0 1 .128-.136c.304-.133.589-.248.856-.344.272-.101.533-.181.784-.24.656-.165 1.192-.192 1.608-.08a.363.363 0 0 1 .256.224.487.487 0 0 1-.032.4c-.07.139-.152.285-.248.44a.224.224 0 0 0-.032.04.721.721 0 0 1-.024.056c.122-.027.301-.08.536-.16.24-.08.573-.197 1-.352a.207.207 0 0 1 .176.016.218.218 0 0 1 .128.136.227.227 0 0 1 0 .184.248.248 0 0 1-.144.128l-.672.232a11.61 11.61 0 0 1-1.04.312 1.4 1.4 0 0 1-.248.032Zm3.727.08a.235.235 0 0 1-.16-.056c-.086-.069-.11-.157-.072-.264 0-.005.018-.069.056-.192l.144-.416a4.67 4.67 0 0 1 .072-.232l.056-.184-.384.144c-.144.053-.299.112-.464.176l-.496.184a108.2 108.2 0 0 1-.496.184.225.225 0 0 1-.176-.008.273.273 0 0 1-.136-.144.204.204 0 0 1 .016-.176.242.242 0 0 1 .136-.136 143.317 143.317 0 0 0 1.984-.736l.216-.08a.386.386 0 0 1 .072-.008.14.14 0 0 1 .08.008.198.198 0 0 1 .16.128.28.28 0 0 1 .032.168c0 .064-.014.157-.04.28a3.575 3.575 0 0 1-.064.232c-.022.08-.051.173-.088.28l-.016.056a.483.483 0 0 0-.016.056c.213-.117.474-.24.784-.368a.201.201 0 0 1 .176 0 .219.219 0 0 1 .128.12c.032.059.034.12.008.184a.251.251 0 0 1-.128.136 14.3 14.3 0 0 0-.904.432 12.71 12.71 0 0 0-.36.192.18.18 0 0 1-.12.04Zm3.109 0a.236.236 0 0 1-.16-.056c-.085-.069-.109-.157-.072-.264 0-.005.019-.069.056-.192l.144-.416c.027-.091.051-.168.072-.232l.056-.184-.384.144c-.144.053-.299.112-.464.176l-.496.184a108.2 108.2 0 0 1-.496.184.225.225 0 0 1-.176-.008.277.277 0 0 1-.136-.144.207.207 0 0 1 .016-.176.245.245 0 0 1 .136-.136 113.748 113.748 0 0 0 1.984-.736l.216-.08a.405.405 0 0 1 .072-.008.138.138 0 0 1 .08.008.196.196 0 0 1 .16.128.274.274 0 0 1 .032.168c0 .064-.013.157-.04.28a3.032 3.032 0 0 1-.064.232c-.021.08-.051.173-.088.28l-.016.056-.016.056c.213-.117.475-.24.784-.368a.201.201 0 0 1 .176 0 .216.216 0 0 1 .128.12c.032.059.035.12.008.184a.248.248 0 0 1-.128.136 16.193 16.193 0 0 0-1.264.624.18.18 0 0 1-.12.04Zm4.093-.08a.32.32 0 0 1-.104-.016.29.29 0 0 1-.216-.184.41.41 0 0 1 .024-.304c.048-.112.118-.237.208-.376.032-.048.062-.096.088-.144.032-.053.059-.101.08-.144a.26.26 0 0 0 .04-.08 2.346 2.346 0 0 0-.56-.016 3.528 3.528 0 0 0-.704.12 7.497 7.497 0 0 0-.744.232c-.261.091-.538.2-.832.328a.225.225 0 0 1-.176.008.254.254 0 0 1-.128-.128.205.205 0 0 1-.008-.184.251.251 0 0 1 .128-.136c.304-.133.59-.248.856-.344.272-.101.534-.181.784-.24.656-.165 1.192-.192 1.608-.08a.362.362 0 0 1 .256.224.483.483 0 0 1-.032.4 5.422 5.422 0 0 1-.248.44.372.372 0 0 0-.032.04.347.347 0 0 1-.024.056c.123-.027.302-.08.536-.16.24-.08.574-.197 1-.352a.207.207 0 0 1 .176.016.216.216 0 0 1 .128.136.219.219 0 0 1 0 .184.242.242 0 0 1-.144.128c-.245.085-.469.163-.672.232a11.215 11.215 0 0 1-1.04.312 1.38 1.38 0 0 1-.248.032Zm2.967-.16a.222.222 0 0 1-.064-.008.352.352 0 0 1-.184-.096.692.692 0 0 1-.064-.112.434.434 0 0 1 .032-.36c.07-.128.155-.261.256-.4a1.13 1.13 0 0 0 .088-.136c.027-.048.054-.093.08-.136a.15.15 0 0 0 .024-.032 1.647 1.647 0 0 0-.12.048 1.12 1.12 0 0 0-.152.096 2.14 2.14 0 0 0-.304.232 17.856 17.856 0 0 0-.496.44.243.243 0 0 1-.168.064.23.23 0 0 1-.168-.088.205.205 0 0 1-.064-.168.244.244 0 0 1 .08-.168.553.553 0 0 1 .088-.072l.08-.08c.128-.117.254-.227.376-.328.128-.107.251-.197.368-.272.123-.075.243-.128.36-.16a.614.614 0 0 1 .352-.008.367.367 0 0 1 .192.112.376.376 0 0 1 .072.128.427.427 0 0 1-.032.376 4.607 4.607 0 0 1-.304.48.374.374 0 0 1-.04.064 20.73 20.73 0 0 0 .776-.296.24.24 0 0 1 .192.016.217.217 0 0 1 .12.136.203.203 0 0 1-.008.184.246.246 0 0 1-.128.128l-.464.16a11.56 11.56 0 0 0-.496.184c-.037.011-.072.021-.104.032a.887.887 0 0 0-.104.032.31.31 0 0 1-.072.008Zm1.779.696a.918.918 0 0 1-.12-.008.843.843 0 0 1-.104-.024.294.294 0 0 1-.2-.168.527.527 0 0 1 0-.384c.054-.155.139-.352.256-.592.022-.043.043-.091.064-.144a1.64 1.64 0 0 1 .072-.152.882.882 0 0 0-.224.136l-.232.184a.212.212 0 0 1-.176.048.276.276 0 0 1-.168-.088.219.219 0 0 1-.048-.176.306.306 0 0 1 .088-.168 4.92 4.92 0 0 0 .232-.176c.08-.064.166-.117.256-.16.219-.112.419-.141.6-.088.086.016.15.069.192.16.043.091.04.197-.008.32a5.284 5.284 0 0 1-.224.52 2.727 2.727 0 0 1-.088.192 4.61 4.61 0 0 1-.104.24l-.016.048a.912.912 0 0 0 .2-.048c.086-.027.182-.067.288-.12.112-.059.24-.136.384-.232.144-.096.31-.216.496-.36a14.62 14.62 0 0 0 .744-.648c.096-.091.174-.165.232-.224l.088-.088c.064-.075.142-.099.232-.072a.214.214 0 0 1 .104.056.408.408 0 0 1 .064.08.34.34 0 0 1 .008.264c-.032.101-.09.259-.176.472l-.096.208a3.022 3.022 0 0 1-.08.192.62.62 0 0 1-.024.088.699.699 0 0 0 .24-.088 3.083 3.083 0 0 0 .496-.344 5.19 5.19 0 0 1 .2-.176.23.23 0 0 1 .176-.064c.064.005.12.032.168.08a.237.237 0 0 1 .056.176c0 .064-.026.12-.08.168a6.627 6.627 0 0 1-.376.32 3.506 3.506 0 0 1-.392.256c-.128.069-.258.12-.392.152a.878.878 0 0 1-.392-.008.325.325 0 0 1-.184-.16.463.463 0 0 1-.032-.24c.016-.091.048-.205.096-.344-.058.053-.12.104-.184.152l-.192.16c-.736.581-1.309.872-1.72.872Zm5.442-.456a.236.236 0 0 1-.16-.056c-.085-.069-.109-.157-.072-.264 0-.005.019-.069.056-.192l.144-.416c.027-.091.051-.168.072-.232l.056-.184-.384.144c-.144.053-.298.112-.464.176l-.496.184-.496.184a.225.225 0 0 1-.176-.008.277.277 0 0 1-.136-.144.207.207 0 0 1 .016-.176.245.245 0 0 1 .136-.136c.24-.085.488-.176.744-.272a94.29 94.29 0 0 0 1.24-.464l.216-.08a.405.405 0 0 1 .072-.008.137.137 0 0 1 .08.008.196.196 0 0 1 .16.128.267.267 0 0 1 .032.168c0 .064-.013.157-.04.28a3.032 3.032 0 0 1-.064.232c-.021.08-.05.173-.088.28a.483.483 0 0 1-.016.056l-.016.056c.214-.117.475-.24.784-.368a.201.201 0 0 1 .176 0 .213.213 0 0 1 .128.12c.032.059.035.12.008.184a.245.245 0 0 1-.128.136 16.193 16.193 0 0 0-1.264.624.18.18 0 0 1-.12.04Zm1.926.456a.804.804 0 0 1-.224-.032.291.291 0 0 1-.2-.168.527.527 0 0 1 0-.384c.053-.155.138-.352.256-.592.021-.043.042-.091.064-.144.021-.053.045-.104.072-.152a.865.865 0 0 0-.224.136l-.232.184a.213.213 0 0 1-.176.048.27.27 0 0 1-.168-.088.212.212 0 0 1-.048-.176.3.3 0 0 1 .088-.168c.074-.053.152-.112.232-.176a1.29 1.29 0 0 1 .256-.16c.218-.112.418-.141.6-.088.085.016.149.069.192.16.042.091.04.197-.008.32a5.828 5.828 0 0 1-.224.52 3.272 3.272 0 0 1-.088.192l-.08.184a.9.9 0 0 0-.04.104.925.925 0 0 0 .2-.048 2.08 2.08 0 0 0 .288-.12c.112-.059.24-.136.384-.232.144-.096.309-.216.496-.36a14.62 14.62 0 0 0 .744-.648 12.773 12.773 0 0 0 .32-.312c.064-.075.141-.099.232-.072a.223.223 0 0 1 .104.056.449.449 0 0 1 .064.08c.037.075.04.163.008.264a7.764 7.764 0 0 1-.176.472l-.096.208a4.928 4.928 0 0 1-.08.192 1.088 1.088 0 0 1-.024.088.714.714 0 0 0 .24-.088 3.454 3.454 0 0 0 .496-.344c.074-.069.141-.128.2-.176a.228.228 0 0 1 .176-.064c.064.005.12.032.168.08a.245.245 0 0 1 .056.176.22.22 0 0 1-.08.168 6.996 6.996 0 0 1-.376.32 3.6 3.6 0 0 1-.392.256 1.63 1.63 0 0 1-.392.152.878.878 0 0 1-.392-.008.319.319 0 0 1-.184-.16.453.453 0 0 1-.032-.24c.016-.091.048-.205.096-.344-.059.053-.12.104-.184.152-.059.048-.123.101-.192.16-.736.581-1.31.872-1.72.872Zm8.572-.696a.217.217 0 0 1-.064-.008.348.348 0 0 1-.184-.096.692.692 0 0 1-.064-.112.43.43 0 0 1 .032-.36c.069-.128.155-.261.256-.4.032-.043.061-.088.088-.136.027-.048.053-.093.08-.136a.28.28 0 0 0 .024-.032 1.647 1.647 0 0 0-.12.048 1.061 1.061 0 0 0-.152.096 2.14 2.14 0 0 0-.304.232 15.062 15.062 0 0 0-.496.44.243.243 0 0 1-.168.064.23.23 0 0 1-.168-.088.205.205 0 0 1-.064-.168.24.24 0 0 1 .08-.168.553.553 0 0 1 .088-.072l.08-.08a9.46 9.46 0 0 1 .376-.328c.128-.107.251-.197.368-.272.123-.075.243-.128.36-.16a.614.614 0 0 1 .352-.008.367.367 0 0 1 .192.112.414.414 0 0 1 .072.128.43.43 0 0 1-.032.376 4.607 4.607 0 0 1-.304.48.448.448 0 0 1-.04.064 22.744 22.744 0 0 0 .776-.296.24.24 0 0 1 .192.016.217.217 0 0 1 .12.136.203.203 0 0 1-.008.184.25.25 0 0 1-.128.128l-.464.16a10.65 10.65 0 0 0-.496.184c-.037.011-.072.021-.104.032a.83.83 0 0 0-.104.032.31.31 0 0 1-.072.008Zm2.963.24a.236.236 0 0 1-.16-.056c-.085-.069-.109-.157-.072-.264 0-.005.019-.069.056-.192l.144-.416c.027-.091.051-.168.072-.232l.056-.184-.384.144c-.144.053-.299.112-.464.176l-.496.184a108.2 108.2 0 0 1-.496.184.225.225 0 0 1-.176-.008.277.277 0 0 1-.136-.144.207.207 0 0 1 .016-.176.245.245 0 0 1 .136-.136 113.748 113.748 0 0 0 1.984-.736l.216-.08a.405.405 0 0 1 .072-.008.138.138 0 0 1 .08.008.196.196 0 0 1 .16.128.274.274 0 0 1 .032.168c0 .064-.013.157-.04.28a3.032 3.032 0 0 1-.064.232c-.021.08-.051.173-.088.28l-.016.056-.016.056c.213-.117.475-.24.784-.368a.201.201 0 0 1 .176 0 .216.216 0 0 1 .128.12c.032.059.035.12.008.184a.248.248 0 0 1-.128.136 16.193 16.193 0 0 0-1.264.624.18.18 0 0 1-.12.04Zm4.094-.08a.315.315 0 0 1-.104-.016.288.288 0 0 1-.216-.184.41.41 0 0 1 .024-.304c.048-.112.117-.237.208-.376.032-.048.061-.096.088-.144a2.32 2.32 0 0 0 .08-.144.285.285 0 0 0 .04-.08 2.348 2.348 0 0 0-.56-.016 3.516 3.516 0 0 0-.704.12 7.336 7.336 0 0 0-.744.232c-.262.091-.539.2-.832.328a.227.227 0 0 1-.177.008.254.254 0 0 1-.128-.128.205.205 0 0 1-.008-.184.251.251 0 0 1 .128-.136c.305-.133.59-.248.857-.344.272-.101.533-.181.784-.24.656-.165 1.192-.192 1.608-.08a.363.363 0 0 1 .256.224.487.487 0 0 1-.032.4c-.07.139-.152.285-.248.44a.224.224 0 0 0-.032.04.721.721 0 0 1-.024.056c.122-.027.301-.08.536-.16.24-.08.573-.197 1-.352a.207.207 0 0 1 .176.016.218.218 0 0 1 .128.136.227.227 0 0 1 0 .184.248.248 0 0 1-.144.128l-.672.232a11.61 11.61 0 0 1-1.04.312 1.4 1.4 0 0 1-.248.032Zm6.857-.16a.217.217 0 0 1-.064-.008.348.348 0 0 1-.184-.096.692.692 0 0 1-.064-.112.43.43 0 0 1 .032-.36c.069-.128.155-.261.256-.4.032-.043.061-.088.088-.136.027-.048.053-.093.08-.136a.28.28 0 0 0 .024-.032 1.647 1.647 0 0 0-.12.048 1.061 1.061 0 0 0-.152.096 2.14 2.14 0 0 0-.304.232 15.062 15.062 0 0 0-.496.44.243.243 0 0 1-.168.064.23.23 0 0 1-.168-.088.205.205 0 0 1-.064-.168.24.24 0 0 1 .08-.168.553.553 0 0 1 .088-.072l.08-.08a9.46 9.46 0 0 1 .376-.328c.128-.107.251-.197.368-.272.123-.075.243-.128.36-.16a.614.614 0 0 1 .352-.008.367.367 0 0 1 .192.112.414.414 0 0 1 .072.128.43.43 0 0 1-.032.376 4.607 4.607 0 0 1-.304.48.448.448 0 0 1-.04.064 22.744 22.744 0 0 0 .776-.296.24.24 0 0 1 .192.016.217.217 0 0 1 .12.136.203.203 0 0 1-.008.184.25.25 0 0 1-.128.128l-.464.16a10.65 10.65 0 0 0-.496.184c-.037.011-.072.021-.104.032a.83.83 0 0 0-.104.032.31.31 0 0 1-.072.008Zm3.947.16a.32.32 0 0 1-.104-.016.29.29 0 0 1-.216-.184.41.41 0 0 1 .024-.304c.048-.112.118-.237.208-.376.032-.048.062-.096.088-.144.032-.053.059-.101.08-.144a.26.26 0 0 0 .04-.08 2.346 2.346 0 0 0-.56-.016 3.528 3.528 0 0 0-.704.12 7.497 7.497 0 0 0-.744.232c-.261.091-.538.2-.832.328a.225.225 0 0 1-.176.008.254.254 0 0 1-.128-.128.205.205 0 0 1-.008-.184.251.251 0 0 1 .128-.136c.304-.133.59-.248.856-.344.272-.101.534-.181.784-.24.656-.165 1.192-.192 1.608-.08a.362.362 0 0 1 .256.224.483.483 0 0 1-.032.4 5.422 5.422 0 0 1-.248.44.372.372 0 0 0-.032.04.347.347 0 0 1-.024.056c.123-.027.302-.08.536-.16.24-.08.574-.197 1-.352a.207.207 0 0 1 .176.016.216.216 0 0 1 .128.136.219.219 0 0 1 0 .184.242.242 0 0 1-.144.128c-.245.085-.469.163-.672.232a11.215 11.215 0 0 1-1.04.312 1.38 1.38 0 0 1-.248.032Zm4.711 0a.32.32 0 0 1-.104-.016.29.29 0 0 1-.216-.184.41.41 0 0 1 .024-.304c.048-.112.117-.237.208-.376.032-.048.061-.096.088-.144.032-.053.059-.101.08-.144a.285.285 0 0 0 .04-.08 2.348 2.348 0 0 0-.56-.016 3.516 3.516 0 0 0-.704.12 7.336 7.336 0 0 0-.744.232c-.261.091-.539.2-.832.328a.225.225 0 0 1-.176.008.25.25 0 0 1-.128-.128.202.202 0 0 1-.008-.184.248.248 0 0 1 .128-.136c.304-.133.589-.248.856-.344.272-.101.533-.181.784-.24.656-.165 1.192-.192 1.608-.08a.362.362 0 0 1 .256.224.487.487 0 0 1-.032.4 5.422 5.422 0 0 1-.248.44.28.28 0 0 0-.032.04.347.347 0 0 1-.024.056c.123-.027.301-.08.536-.16.24-.08.573-.197 1-.352a.207.207 0 0 1 .176.016.216.216 0 0 1 .128.136.219.219 0 0 1 0 .184.248.248 0 0 1-.144.128c-.245.085-.469.163-.672.232a11.61 11.61 0 0 1-1.04.312 1.39 1.39 0 0 1-.248.032Z" fill="#9CA7B7"/><rect x="196" y="207" width="40" height="16" rx="4" fill="#9146FF"/><rect x="244.5" y="207.5" width="39" height="15" rx="3.5" stroke="#C2CAD6"/><rect x="160.5" y="43.5" width="159" height="195" rx="3.5" stroke="#C2CAD6"/></svg>