<svg width="48" height="48" viewBox="0 0 48 48" fill="none" xmlns="http://www.w3.org/2000/svg">
<path d="M43.1098 35.0687C42.4292 36.6408 41.6237 38.088 40.6904 39.4185C39.4182 41.2324 38.3766 42.4879 37.5739 43.1851C36.3295 44.3295 34.9962 44.9156 33.5684 44.9489C32.5435 44.9489 31.3074 44.6573 29.8686 44.0656C28.425 43.4767 27.0984 43.1851 25.8854 43.1851C24.6132 43.1851 23.2488 43.4767 21.7894 44.0656C20.3278 44.6573 19.1504 44.9656 18.2501 44.9961C16.881 45.0545 15.5163 44.4517 14.1541 43.1851C13.2847 42.4268 12.1973 41.1268 10.8945 39.2852C9.49682 37.3186 8.34769 35.0381 7.44745 32.4382C6.48332 29.6299 6 26.9106 6 24.2779C6 21.2621 6.65164 18.6611 7.95687 16.4814C8.98267 14.7307 10.3473 13.3496 12.0553 12.3357C13.7633 11.3219 15.6088 10.8052 17.5962 10.7722C18.6837 10.7722 20.1098 11.1086 21.8819 11.7696C23.6491 12.433 24.7838 12.7693 25.2812 12.7693C25.6532 12.7693 26.9137 12.376 29.0506 11.5919C31.0713 10.8647 32.7768 10.5636 34.174 10.6822C37.96 10.9877 40.8043 12.4802 42.6959 15.169C39.3099 17.2206 37.635 20.0941 37.6683 23.7804C37.6989 26.6517 38.7405 29.0411 40.7876 30.9382C41.7154 31.8188 42.7514 32.4993 43.9042 32.9826C43.6542 33.7076 43.3903 34.402 43.1098 35.0687ZM34.4268 0.900256C34.4268 3.15077 33.6046 5.25207 31.9657 7.19701C29.988 9.50916 27.5959 10.8452 25.0018 10.6344C24.9688 10.3644 24.9496 10.0803 24.9496 9.78165C24.9496 7.62116 25.8901 5.30901 27.5603 3.41851C28.3942 2.46132 29.4547 1.66543 30.7408 1.03053C32.0241 0.405103 33.2379 0.0592294 34.3795 0C34.4129 0.300859 34.4268 0.601765 34.4268 0.900256Z" fill="black"/>
</svg>
