<svg width="24" height="24" viewBox="0 0 24 24" fill="none" xmlns="http://www.w3.org/2000/svg">
<g clip-path="url(#clip0_901_47)">
<path fill-rule="evenodd" clip-rule="evenodd" d="M10.3356 14.7635L10.3759 14.9213L10.2383 14.8342L10.1007 14.9213L10.141 14.7635L10.0157 14.6595L10.1782 14.6491L10.2383 14.4978L10.2984 14.6491L10.461 14.6595L10.3356 14.7635Z" fill="white"/>
<path fill-rule="evenodd" clip-rule="evenodd" d="M9.02591 13.4963L9.06625 13.6542L8.92862 13.567L8.79104 13.6542L8.83134 13.4963L8.70599 13.3925L8.86851 13.382L8.92862 13.2307L8.98874 13.382L9.15126 13.3925L9.02591 13.4963Z" fill="white"/>
<path fill-rule="evenodd" clip-rule="evenodd" d="M8.68072 11.7526L8.72107 11.9104L8.58348 11.8233L8.44586 11.9104L8.4862 11.7526L8.36081 11.6487L8.52337 11.6383L8.58348 11.4869L8.64355 11.6383L8.80611 11.6487L8.68072 11.7526Z" fill="white"/>
<path fill-rule="evenodd" clip-rule="evenodd" d="M23.9993 4V20.8H-0.000732422V4H23.9993Z" fill="#009C37"/>
<path d="M21.9598 12.4L11.9998 18.76L2.03983 12.4L11.9998 6.04001L21.9598 12.4Z" fill="#FEE000"/>
<path d="M11.9997 8.2C14.3189 8.2 16.1997 10.0808 16.1997 12.4C16.1997 14.7193 14.3189 16.6 11.9997 16.6C9.68047 16.6 7.79971 14.7192 7.79971 12.4C7.79971 10.0808 9.68047 8.2 11.9997 8.2V8.2Z" fill="#002277"/>
<path fill-rule="evenodd" clip-rule="evenodd" d="M13.3807 10.9746L13.4211 11.1324L13.2835 11.0453L13.1459 11.1324L13.1863 10.9746L13.0609 10.8707L13.2235 10.8603L13.2835 10.7089L13.3436 10.8603L13.5061 10.8707L13.3807 10.9746Z" fill="white"/>
<path fill-rule="evenodd" clip-rule="evenodd" d="M13.0537 12.1739L13.0827 12.2874L12.9837 12.2248L12.8847 12.2874L12.9138 12.1739L12.8235 12.0992L12.9405 12.0917L12.9837 11.9828L13.027 12.0917L13.1439 12.0992L13.0537 12.1739Z" fill="white"/>
<path fill-rule="evenodd" clip-rule="evenodd" d="M8.68068 11.7526L8.72102 11.9104L8.58348 11.8233L8.44586 11.9104L8.48624 11.7526L8.36081 11.6487L8.52341 11.6383L8.58348 11.4869L8.64351 11.6383L8.80607 11.6487L8.68068 11.7526Z" fill="white"/>
<path fill-rule="evenodd" clip-rule="evenodd" d="M10.4429 12.6049L10.477 12.7381L10.3608 12.6646L10.2447 12.7381L10.2788 12.6049L10.1729 12.5171L10.3101 12.5084L10.3608 12.3807L10.4116 12.5084L10.5487 12.5171L10.4429 12.6049Z" fill="white"/>
<path fill-rule="evenodd" clip-rule="evenodd" d="M9.36587 13.2046L9.38759 13.2895L9.31355 13.2426L9.23955 13.2895L9.26122 13.2046L9.19379 13.1487L9.28121 13.1431L9.31355 13.0617L9.34589 13.1431L9.43335 13.1487L9.36587 13.2046Z" fill="white"/>
<path fill-rule="evenodd" clip-rule="evenodd" d="M9.02587 13.4964L9.06621 13.6542L8.92867 13.5671L8.79104 13.6542L8.83143 13.4964L8.70599 13.3925L8.8686 13.3821L8.92867 13.2307L8.9887 13.3821L9.15126 13.3925L9.02587 13.4964Z" fill="white"/>
<path fill-rule="evenodd" clip-rule="evenodd" d="M8.57083 13.8533L8.60487 13.9865L8.48875 13.913L8.37263 13.9865L8.40666 13.8533L8.30087 13.7657L8.43799 13.7569L8.48875 13.629L8.53946 13.7569L8.67662 13.7657L8.57083 13.8533Z" fill="white"/>
<path fill-rule="evenodd" clip-rule="evenodd" d="M9.85988 13.886L9.89392 14.0193L9.77784 13.9457L9.66172 14.0193L9.69576 13.886L9.58997 13.7983L9.72713 13.7896L9.77784 13.6618L9.82856 13.7896L9.96567 13.7983L9.85988 13.886Z" fill="white"/>
<path fill-rule="evenodd" clip-rule="evenodd" d="M9.69604 14.324L9.72503 14.4374L9.62606 14.3748L9.52708 14.4374L9.55608 14.324L9.46591 14.2492L9.58284 14.2417L9.62606 14.1328L9.66928 14.2417L9.78621 14.2492L9.69604 14.324Z" fill="white"/>
<path fill-rule="evenodd" clip-rule="evenodd" d="M10.3355 14.7635L10.3759 14.9213L10.2383 14.8341L10.1007 14.9213L10.1411 14.7635L10.0157 14.6596L10.1783 14.6491L10.2383 14.4978L10.2984 14.6491L10.4609 14.6596L10.3355 14.7635Z" fill="white"/>
<path fill-rule="evenodd" clip-rule="evenodd" d="M12.0577 15.7519L12.0733 15.8125L12.0204 15.779L11.9676 15.8125L11.9831 15.7519L11.9349 15.712L11.9973 15.7079L12.0204 15.6497L12.0435 15.7079L12.106 15.712L12.0577 15.7519Z" fill="white"/>
<path fill-rule="evenodd" clip-rule="evenodd" d="M12.1133 13.1691L12.1473 13.3023L12.0312 13.2287L11.9151 13.3023L11.9491 13.1691L11.8433 13.0814L11.9805 13.0726L12.0312 12.9449L12.082 13.0726L12.2191 13.0814L12.1133 13.1691Z" fill="white"/>
<path fill-rule="evenodd" clip-rule="evenodd" d="M12.4974 13.5285L12.5314 13.6616L12.4154 13.5881L12.2992 13.6616L12.3332 13.5285L12.2274 13.4408L12.3646 13.432L12.4154 13.3043L12.4661 13.432L12.6032 13.4408L12.4974 13.5285Z" fill="white"/>
<path fill-rule="evenodd" clip-rule="evenodd" d="M11.8081 13.7891L11.8298 13.874L11.7557 13.8272L11.6817 13.874L11.7034 13.7891L11.6359 13.7332L11.7234 13.7277L11.7557 13.6462L11.7881 13.7277L11.8755 13.7332L11.8081 13.7891Z" fill="white"/>
<path fill-rule="evenodd" clip-rule="evenodd" d="M11.5191 13.5725L11.5481 13.686L11.4491 13.6233L11.3501 13.686L11.3791 13.5725L11.289 13.4976L11.4059 13.4902L11.4491 13.3813L11.4923 13.4902L11.6093 13.4976L11.5191 13.5725Z" fill="white"/>
<path fill-rule="evenodd" clip-rule="evenodd" d="M12.1039 14.3996L12.1442 14.5574L12.0067 14.4703L11.8691 14.5574L11.9095 14.3996L11.784 14.2957L11.9466 14.2853L12.0067 14.1339L12.0667 14.2853L12.2293 14.2957L12.1039 14.3996Z" fill="white"/>
<path fill-rule="evenodd" clip-rule="evenodd" d="M12.9426 14.8171L12.9715 14.9307L12.8726 14.868L12.7736 14.9307L12.8026 14.8171L12.7124 14.7424L12.8293 14.7349L12.8726 14.6261L12.9158 14.7349L13.0327 14.7424L12.9426 14.8171Z" fill="white"/>
<path fill-rule="evenodd" clip-rule="evenodd" d="M13.2993 15.3397L13.3333 15.4729L13.2173 15.3993L13.1011 15.4729L13.1352 15.3397L13.0294 15.252L13.1665 15.2432L13.2173 15.1155L13.2679 15.2432L13.4051 15.252L13.2993 15.3397Z" fill="white"/>
<path fill-rule="evenodd" clip-rule="evenodd" d="M13.6705 14.9228L13.6995 15.0363L13.6005 14.9737L13.5015 15.0363L13.5306 14.9228L13.4404 14.8481L13.5572 14.8406L13.6005 14.7317L13.6437 14.8406L13.7607 14.8481L13.6705 14.9228Z" fill="white"/>
<path fill-rule="evenodd" clip-rule="evenodd" d="M14.1714 15.6743L14.2004 15.7878L14.1015 15.7251L14.0025 15.7878L14.0315 15.6743L13.9413 15.5995L14.0583 15.5921L14.1015 15.4832L14.1446 15.5921L14.2617 15.5995L14.1714 15.6743Z" fill="white"/>
<path fill-rule="evenodd" clip-rule="evenodd" d="M14.1881 15.2379L14.2221 15.371L14.1059 15.2975L13.9898 15.371L14.0239 15.2379L13.9182 15.1501L14.0553 15.1414L14.1059 15.0136L14.1567 15.1414L14.2939 15.1501L14.1881 15.2379Z" fill="white"/>
<path fill-rule="evenodd" clip-rule="evenodd" d="M14.1646 14.8255L14.1937 14.9389L14.0946 14.8763L13.9957 14.9389L14.0247 14.8255L13.9345 14.7507L14.0514 14.7432L14.0946 14.6343L14.1379 14.7432L14.2548 14.7507L14.1646 14.8255Z" fill="white"/>
<path fill-rule="evenodd" clip-rule="evenodd" d="M14.5795 14.8295L14.6085 14.9431L14.5095 14.8804L14.4105 14.9431L14.4396 14.8295L14.3493 14.7548L14.4662 14.7473L14.5095 14.6385L14.5527 14.7473L14.6696 14.7548L14.5795 14.8295Z" fill="white"/>
<path fill-rule="evenodd" clip-rule="evenodd" d="M14.9836 14.6563L15.0177 14.7894L14.9016 14.7159L14.7854 14.7894L14.8195 14.6563L14.7137 14.5685L14.8509 14.5598L14.9016 14.432L14.9523 14.5598L15.0894 14.5685L14.9836 14.6563Z" fill="white"/>
<path fill-rule="evenodd" clip-rule="evenodd" d="M15.1825 14.3231L15.2166 14.4561L15.1004 14.3827L14.9843 14.4561L15.0183 14.3231L14.9126 14.2353L15.0497 14.2265L15.1004 14.0988L15.1511 14.2265L15.2883 14.2353L15.1825 14.3231Z" fill="white"/>
<path fill-rule="evenodd" clip-rule="evenodd" d="M15.0314 13.9151L15.0718 14.0728L14.9343 13.9857L14.7966 14.0728L14.837 13.9151L14.7116 13.8111L14.8742 13.8007L14.9343 13.6493L14.9943 13.8007L15.1568 13.8111L15.0314 13.9151Z" fill="white"/>
<path fill-rule="evenodd" clip-rule="evenodd" d="M15.6192 13.9426L15.6482 14.0561L15.5492 13.9935L15.4502 14.0561L15.4793 13.9426L15.389 13.868L15.5059 13.8604L15.5492 13.7515L15.5924 13.8604L15.7093 13.868L15.6192 13.9426Z" fill="white"/>
<path fill-rule="evenodd" clip-rule="evenodd" d="M9.49067 11.1053C8.97367 11.1053 8.4656 11.1446 7.96924 11.2204C8.02991 11.0128 8.10639 10.8118 8.19711 10.6187C8.62132 10.5668 9.05286 10.5396 9.49072 10.5396C12.0156 10.5396 14.3393 11.4276 16.1651 12.9064C16.1385 13.1215 16.0955 13.3318 16.0372 13.5357C14.2761 12.0221 11.9873 11.1053 9.49067 11.1053L9.49067 11.1053Z" fill="white"/>
<path fill-rule="evenodd" clip-rule="evenodd" d="M8.40992 10.8875C8.41344 10.9285 8.42537 10.9595 8.44552 10.9807C8.46567 11.0019 8.49213 11.011 8.5249 11.0082C8.55796 11.0053 8.58272 10.9918 8.59919 10.9675C8.61566 10.9432 8.62205 10.9106 8.61854 10.8695C8.61502 10.8286 8.60313 10.7975 8.58277 10.7764C8.5624 10.7552 8.53569 10.7461 8.50263 10.749C8.46991 10.7518 8.44535 10.7653 8.4291 10.7895C8.41284 10.8137 8.40641 10.8463 8.40992 10.8875L8.40992 10.8875ZM8.33177 10.8941C8.32661 10.8339 8.33893 10.7848 8.36869 10.7467C8.39845 10.7085 8.44116 10.687 8.49687 10.6822C8.5525 10.6774 8.5983 10.6913 8.63437 10.7239C8.6704 10.7565 8.69097 10.8028 8.69613 10.8629C8.7013 10.9229 8.68894 10.9722 8.65897 11.0104C8.62899 11.0486 8.58624 11.0702 8.53061 11.0749C8.4749 11.0797 8.42914 11.0658 8.39328 11.0332C8.35747 11.0006 8.33694 10.9543 8.33177 10.8941H8.33177ZM8.94048 10.8245L9.03095 10.8215C9.05051 10.8208 9.06477 10.8163 9.07379 10.8081C9.08268 10.7998 9.08687 10.7872 9.08628 10.7701C9.08574 10.7538 9.08086 10.7417 9.07163 10.7336C9.0624 10.7255 9.04886 10.7218 9.03116 10.7224L8.93718 10.7255L8.94048 10.8245H8.94048ZM8.87055 11.0374L8.85806 10.6636L9.03942 10.6575C9.08014 10.6561 9.11066 10.6638 9.13086 10.6806C9.15113 10.6974 9.1618 10.7237 9.16299 10.7596C9.16374 10.7824 9.1596 10.8016 9.15054 10.8172C9.14152 10.8328 9.12806 10.8436 9.11033 10.8498C9.12679 10.855 9.1386 10.8634 9.14593 10.875C9.15317 10.8866 9.1577 10.905 9.15956 10.93L9.16261 10.9741C9.16261 10.9744 9.16261 10.975 9.16265 10.9756C9.16379 10.9979 9.16913 11.0113 9.17848 11.0157L9.17884 11.0272L9.09447 11.03C9.09163 11.0248 9.08939 11.0184 9.0877 11.0108C9.08605 11.0031 9.08478 10.994 9.08418 10.9833L9.08181 10.944C9.08016 10.9209 9.07534 10.9054 9.06721 10.8976C9.05904 10.8897 9.04469 10.8861 9.0242 10.8868L8.94266 10.8895L8.94753 11.0349L8.87057 11.0374L8.87055 11.0374ZM9.42262 10.9534L9.48434 10.9546C9.52007 10.9553 9.54615 10.9464 9.56244 10.928C9.57883 10.9097 9.58738 10.8794 9.58818 10.8375C9.58899 10.7957 9.58209 10.7648 9.56761 10.7449C9.55305 10.7249 9.52997 10.7147 9.49827 10.7141L9.42719 10.7127L9.42262 10.9534V10.9534ZM9.34591 11.0195L9.35302 10.6455L9.49949 10.6483C9.55686 10.6494 9.5994 10.6657 9.62696 10.6972C9.65456 10.7287 9.66781 10.7759 9.66663 10.8389C9.66599 10.8731 9.66019 10.9031 9.64931 10.929C9.63839 10.9548 9.62281 10.9755 9.60279 10.991C9.58763 11.0026 9.57061 11.0108 9.55152 11.0156C9.53243 11.0204 9.50584 11.0225 9.4716 11.0218L9.34591 11.0195L9.34591 11.0195ZM9.82055 11.0279L9.8407 10.6544L10.112 10.669L10.1085 10.7339L9.91296 10.7234L9.90868 10.803L10.0875 10.8127L10.084 10.8766L9.90521 10.8669L9.9 10.963L10.1046 10.9741L10.1009 11.0431L9.82054 11.0279L9.82055 11.0279ZM10.2608 11.054L10.3005 10.6821L10.4137 10.6942L10.4575 10.9852L10.5607 10.7098L10.6743 10.722L10.6346 11.094L10.5629 11.0863L10.5949 10.7863L10.4873 11.0782L10.4091 11.0699L10.3645 10.7617L10.3325 11.0617L10.2608 11.054L10.2608 11.054ZM11.2521 11.1816L11.3304 10.8159L11.5961 10.8728L11.5825 10.9363L11.3911 10.8954L11.3744 10.9733L11.5494 11.0108L11.536 11.0734L11.3609 11.0359L11.3408 11.13L11.5412 11.1729L11.5267 11.2406L11.2521 11.1816L11.2521 11.1816ZM12.2422 11.2047L12.3141 11.2241C12.3335 11.2294 12.3487 11.229 12.3598 11.2232C12.3708 11.2173 12.3788 11.2053 12.3838 11.1869C12.3884 11.1698 12.3875 11.1556 12.3813 11.1444C12.3749 11.1333 12.3633 11.1254 12.3461 11.1208L12.2703 11.1004L12.2422 11.2047L12.2422 11.2047ZM12.2241 11.2701L12.1895 11.3985L12.1151 11.3785L12.2125 11.0173L12.3731 11.0606C12.411 11.0708 12.4371 11.0885 12.4514 11.1134C12.4655 11.1384 12.4676 11.1699 12.4573 11.208C12.4473 11.2453 12.4299 11.2714 12.4054 11.2864C12.3809 11.3015 12.3507 11.3042 12.3154 11.2947L12.2241 11.2701H12.2241ZM12.6738 11.3289L12.7603 11.3554C12.779 11.3612 12.794 11.3616 12.8053 11.3567C12.8164 11.3518 12.8244 11.3412 12.8295 11.3248C12.8342 11.3093 12.8335 11.2962 12.8275 11.2856C12.8213 11.2749 12.8097 11.267 12.7929 11.2618L12.703 11.2341L12.6738 11.3289L12.6738 11.3289ZM12.5384 11.5074L12.6483 11.1499L12.8218 11.2032C12.8608 11.2152 12.8871 11.2324 12.9006 11.2548C12.9144 11.2773 12.9159 11.3057 12.9053 11.34C12.8986 11.3618 12.8885 11.3786 12.8748 11.3904C12.8611 11.4021 12.8449 11.408 12.8262 11.4081C12.84 11.4184 12.8484 11.4302 12.8517 11.4435C12.8547 11.4569 12.853 11.4757 12.8467 11.5L12.8352 11.5426C12.835 11.543 12.8348 11.5434 12.8347 11.5441C12.8286 11.5655 12.8293 11.5799 12.8367 11.5871L12.8333 11.5981L12.7525 11.5733C12.7516 11.5674 12.7516 11.5607 12.7524 11.5529C12.7534 11.5451 12.7551 11.5361 12.7581 11.5258L12.7686 11.4879C12.7746 11.4655 12.7751 11.4493 12.7699 11.4392C12.7647 11.4291 12.7523 11.421 12.7328 11.4151L12.6548 11.3911L12.6121 11.5302L12.5385 11.5074L12.5384 11.5074ZM13.1081 11.5061C13.094 11.5448 13.0916 11.578 13.101 11.6057C13.1104 11.6334 13.1304 11.6528 13.1612 11.6641C13.1924 11.6755 13.2206 11.6737 13.2458 11.6586C13.271 11.6436 13.2907 11.6167 13.3048 11.578C13.3189 11.5394 13.3212 11.5062 13.3117 11.4785C13.3022 11.4507 13.2818 11.4312 13.2507 11.4198C13.2198 11.4085 13.1919 11.4104 13.1669 11.4254C13.1419 11.4405 13.1223 11.4674 13.1081 11.5061L13.1081 11.5061ZM13.0345 11.4791C13.0552 11.4224 13.0872 11.383 13.1302 11.3611C13.1734 11.3391 13.2211 11.3376 13.2737 11.3568C13.3261 11.376 13.3618 11.4079 13.3806 11.4527C13.3995 11.4975 13.3987 11.5481 13.378 11.6047C13.3572 11.6614 13.3252 11.7008 13.2819 11.7228C13.2386 11.7448 13.1908 11.7462 13.1383 11.727C13.0857 11.7078 13.0502 11.6759 13.0315 11.6312C13.0127 11.5865 13.0137 11.5358 13.0345 11.4791H13.0345ZM13.7264 11.9185C13.7062 11.9303 13.6863 11.9368 13.6666 11.938C13.6469 11.9391 13.6261 11.9351 13.604 11.9257C13.556 11.9052 13.5241 11.8719 13.5085 11.8258C13.4929 11.7796 13.4967 11.7293 13.5199 11.675C13.5433 11.6202 13.5769 11.5826 13.6206 11.5625C13.6644 11.5423 13.711 11.5428 13.7606 11.5639C13.8037 11.5823 13.8345 11.6075 13.8531 11.6398C13.8714 11.6721 13.8756 11.7074 13.8653 11.7457L13.7931 11.7149C13.7963 11.6952 13.7933 11.6778 13.7838 11.6627C13.7742 11.6476 13.7587 11.6354 13.737 11.6262C13.7083 11.6139 13.6811 11.6148 13.6557 11.6289C13.6302 11.643 13.6096 11.6687 13.5938 11.7059C13.5778 11.7433 13.5739 11.7762 13.582 11.8047C13.5901 11.8332 13.6091 11.8538 13.6391 11.8665C13.6614 11.8761 13.683 11.8775 13.7037 11.8707C13.7245 11.8638 13.7417 11.8496 13.755 11.8281L13.677 11.795L13.7021 11.7361L13.8446 11.7968L13.7652 11.983L13.7178 11.9628L13.7264 11.9185V11.9185ZM14.0821 11.9086L14.1634 11.9485C14.181 11.957 14.1957 11.9598 14.2076 11.9567C14.2193 11.9536 14.2289 11.9443 14.2365 11.9289C14.2436 11.9144 14.2449 11.9014 14.2407 11.8899C14.2363 11.8784 14.2261 11.8687 14.2102 11.8609L14.1258 11.8196L14.0821 11.9086H14.0821ZM13.9205 12.0638L14.0849 11.7279L14.2479 11.8077C14.2845 11.8256 14.3078 11.8467 14.3178 11.871C14.3277 11.8953 14.3248 11.9236 14.309 11.9558C14.299 11.9763 14.2863 11.9913 14.271 12.0008C14.2557 12.0103 14.2388 12.0136 14.2203 12.0107C14.2323 12.023 14.2388 12.036 14.2398 12.0497C14.2408 12.0634 14.2361 12.0817 14.2261 12.1047L14.208 12.145C14.2078 12.1453 14.2077 12.1458 14.2074 12.1464C14.1979 12.1666 14.1963 12.1809 14.2026 12.1892L14.1975 12.1994L14.1217 12.1624C14.1216 12.1564 14.1226 12.1498 14.1247 12.1422C14.1268 12.1347 14.13 12.126 14.1345 12.1163L14.1508 12.0805C14.1603 12.0593 14.1633 12.0433 14.1597 12.0326C14.1562 12.0219 14.1453 12.012 14.1268 12.0029L14.0536 11.967L13.9896 12.0977L13.9205 12.0638L13.9205 12.0638ZM14.3384 12.2785L14.5203 11.9516L14.7578 12.0837L14.7261 12.1405L14.5551 12.0454L14.5163 12.115L14.6728 12.2021L14.6416 12.258L14.4852 12.171L14.4385 12.255L14.6175 12.3547L14.5839 12.415L14.3384 12.2785V12.2785ZM14.7606 12.3944L14.8256 12.4336C14.8175 12.4526 14.8169 12.47 14.8236 12.4857C14.8304 12.5013 14.845 12.5158 14.8674 12.5294C14.8867 12.541 14.9031 12.5462 14.9169 12.5453C14.9307 12.5444 14.9416 12.5372 14.9497 12.5238C14.9613 12.5044 14.9432 12.4715 14.895 12.4251C14.8944 12.4245 14.8938 12.4239 14.8933 12.4235C14.892 12.4223 14.8901 12.4204 14.8875 12.4178C14.8615 12.3932 14.8446 12.3731 14.8368 12.3574C14.8299 12.3433 14.8271 12.3283 14.8286 12.3125C14.83 12.2966 14.8357 12.2804 14.8458 12.2637C14.8646 12.2326 14.8896 12.2151 14.9208 12.2112C14.9519 12.2074 14.9875 12.2175 15.0275 12.2416C15.065 12.2642 15.0889 12.2907 15.0993 12.321C15.1097 12.3515 15.1058 12.383 15.0876 12.416L15.0243 12.3778C15.0325 12.3616 15.0337 12.3462 15.0278 12.3317C15.0219 12.3171 15.0091 12.3038 14.9893 12.2919C14.972 12.2814 14.9567 12.2767 14.9432 12.2779C14.9298 12.279 14.9194 12.2858 14.9118 12.2983C14.9017 12.3152 14.9122 12.3388 14.9435 12.3692C14.9519 12.3775 14.9585 12.3839 14.9632 12.3886C14.9831 12.4085 14.9969 12.4233 15.0046 12.4324C15.0124 12.4416 15.0187 12.4505 15.0235 12.459C15.0321 12.4741 15.0362 12.4896 15.0354 12.5055C15.0348 12.5213 15.0294 12.5377 15.0193 12.5544C14.9992 12.5876 14.9725 12.6067 14.9389 12.6116C14.9054 12.6163 14.8682 12.6065 14.8273 12.5818C14.787 12.5575 14.761 12.5291 14.7494 12.4966C14.7378 12.464 14.7415 12.43 14.7605 12.3944L14.7606 12.3944ZM15.1548 12.641L15.2177 12.6836C15.2086 12.7021 15.207 12.7194 15.213 12.7354C15.219 12.7514 15.2327 12.7666 15.2545 12.7814C15.273 12.794 15.2892 12.8001 15.303 12.7999C15.3169 12.7997 15.3281 12.7931 15.3369 12.7802C15.3496 12.7613 15.3331 12.7276 15.2875 12.6787C15.2869 12.678 15.2863 12.6775 15.2859 12.6769C15.2846 12.6757 15.2828 12.6738 15.2804 12.671C15.2557 12.6452 15.2399 12.6242 15.233 12.608C15.2267 12.5935 15.2248 12.5785 15.227 12.5627C15.2293 12.547 15.2359 12.5311 15.2467 12.515C15.2672 12.4849 15.2931 12.4686 15.3244 12.4664C15.3557 12.4643 15.3907 12.4763 15.4295 12.5024C15.4656 12.527 15.4882 12.5546 15.497 12.5855C15.5057 12.6165 15.5002 12.6478 15.4803 12.6798L15.419 12.6384C15.428 12.6225 15.43 12.6072 15.425 12.5924C15.4199 12.5776 15.4078 12.5636 15.3886 12.5507C15.3719 12.5393 15.3568 12.5339 15.3433 12.5342C15.3299 12.5347 15.3191 12.5409 15.311 12.5529C15.2998 12.5693 15.3092 12.5934 15.3388 12.6255C15.3468 12.6341 15.3532 12.6409 15.3575 12.6458C15.3762 12.6668 15.3893 12.6821 15.3965 12.6918C15.4038 12.7014 15.4096 12.7106 15.414 12.7192C15.4218 12.7348 15.425 12.7504 15.4235 12.7663C15.422 12.7821 15.4158 12.7982 15.4049 12.8143C15.383 12.8465 15.3553 12.8642 15.3215 12.8672C15.2878 12.8702 15.2512 12.8584 15.2116 12.8316C15.1727 12.8052 15.1481 12.7755 15.1383 12.7424C15.1284 12.7092 15.1338 12.6755 15.1548 12.641L15.1548 12.641ZM15.6301 12.8933C15.6053 12.9261 15.5934 12.9572 15.5941 12.9863C15.595 13.0155 15.6085 13.0401 15.6347 13.0599C15.6612 13.0799 15.6887 13.0864 15.7172 13.0794C15.7457 13.0724 15.7723 13.0523 15.7971 13.0194C15.8219 12.9868 15.8338 12.9557 15.8329 12.9263C15.8319 12.897 15.8181 12.8724 15.7916 12.8524C15.7655 12.8325 15.7381 12.8262 15.7099 12.8333C15.6816 12.8404 15.655 12.8604 15.6301 12.8933L15.6301 12.8933ZM15.5676 12.846C15.6039 12.7977 15.646 12.7695 15.6937 12.761C15.7413 12.7526 15.7875 12.7652 15.8321 12.799C15.8767 12.8326 15.9014 12.8736 15.9064 12.9219C15.9113 12.9703 15.8956 13.0184 15.8594 13.0665C15.8229 13.1146 15.7808 13.1429 15.733 13.1513C15.6852 13.1596 15.6389 13.147 15.5945 13.1134C15.5498 13.0796 15.5251 13.0387 15.5203 12.9905C15.5155 12.9424 15.5312 12.8941 15.5676 12.846L15.5676 12.846Z" fill="#009C37"/>
</g>
<defs>
<clipPath id="clip0_901_47">
<rect y="4" width="24" height="16.8" rx="1" fill="white"/>
</clipPath>
</defs>
</svg>
