<svg width="72" height="72" viewBox="0 0 72 72" fill="none" xmlns="http://www.w3.org/2000/svg">
<path d="M0 8C0 3.58172 3.58172 0 8 0H64C68.4183 0 72 3.58172 72 8V64C72 68.4183 68.4183 72 64 72H8C3.58172 72 0 68.4183 0 64V8Z" fill="#0052CD" fill-opacity="0.05"/>
<path d="M0 8C0 3.58172 3.58172 0 8 0H64C68.4183 0 72 3.58172 72 8V64C72 68.4183 68.4183 72 64 72H8C3.58172 72 0 68.4183 0 64V8Z" fill="url(#paint0_linear)" fill-opacity="0.1"/>
<g filter="url(#filter0_d)">
<rect x="18" y="20" width="36" height="36" rx="8" fill="#0052CD"/>
</g>
<rect width="40" height="40" transform="translate(16 16)" fill="#0052CD"/>
<g clip-path="url(#clip0)">
<g clip-path="url(#clip1)">
<path d="M45.1093 28.33L36.7841 23.5227C36.0372 23.0924 35.11 23.0924 34.3615 23.5227C33.6146 23.9545 33.151 24.7575 33.151 25.6195V26.2468L32.6086 25.9331C31.8617 25.5029 30.9345 25.5029 30.186 25.9331C29.4391 26.3649 28.9755 27.1679 28.9755 28.0315V28.6587L28.4331 28.3451C27.6862 27.9148 26.759 27.9148 26.0106 28.3451C25.2637 28.7769 24.8 29.5799 24.8 30.4434V45.5061C24.8 45.9394 25.0515 46.3424 25.4424 46.5302C25.8318 46.7196 26.3045 46.6681 26.6439 46.3999L30.7724 43.1441L37.1386 46.8196C37.3144 46.9211 37.5113 46.9711 37.7083 46.9711C37.9052 46.9711 38.1022 46.9196 38.2779 46.8196C38.6294 46.6166 38.8476 46.2393 38.8476 45.8333V36.7688C38.8476 35.281 38.0476 33.8962 36.7598 33.1524L34.6721 31.9464V25.621C34.6721 25.2999 34.8448 24.9999 35.1236 24.8393C35.4024 24.6787 35.7478 24.6787 36.0266 24.8393L44.3518 29.645C45.1714 30.1177 45.6805 31.001 45.6805 31.9464V43.2335C45.6805 43.5547 45.5077 43.8547 45.229 44.0153L43.0231 45.2894V34.3568C43.0231 32.869 42.2231 31.4843 40.9353 30.7404L35.8099 27.7815V29.5344L40.1763 32.0555C40.9959 32.5282 41.505 33.4099 41.505 34.3568V45.9454C41.505 46.3499 41.7231 46.7287 42.0746 46.9317C42.2504 47.0332 42.4473 47.0832 42.6443 47.0832C42.8413 47.0832 43.0382 47.0317 43.214 46.9317L45.9895 45.3288C46.7364 44.897 47.2 44.094 47.2 43.2305V31.9433C47.197 30.4601 46.3971 29.0738 45.1093 28.33ZM35.9978 34.4674C36.8174 34.9401 37.3265 35.8219 37.3265 36.7688V45.1773L32.0541 42.1336L33.7464 40.8003C34.3327 40.3382 34.6691 39.6459 34.6691 38.8989V33.7023L35.9978 34.4674ZM33.151 32.8236V38.8959C33.151 39.1747 33.0252 39.4337 32.8071 39.6049L26.3181 44.7213V30.4419C26.3181 30.1207 26.4908 29.8208 26.7696 29.6602C27.0484 29.4996 27.3938 29.4996 27.6726 29.6602L28.9755 30.4116V41.1761L30.4936 39.9792V28.0315C30.4936 27.7103 30.6663 27.4103 30.9451 27.2497C31.2239 27.0891 31.5693 27.0891 31.8481 27.2497L33.151 28.0012V31.0692L31.6329 30.192V31.9464L33.151 32.8236Z" fill="white"/>
</g>
</g>
<defs>
<filter id="filter0_d" x="11" y="19" width="50" height="50" filterUnits="userSpaceOnUse" color-interpolation-filters="sRGB">
<feFlood flood-opacity="0" result="BackgroundImageFix"/>
<feColorMatrix in="SourceAlpha" type="matrix" values="0 0 0 0 0 0 0 0 0 0 0 0 0 0 0 0 0 0 127 0" result="hardAlpha"/>
<feMorphology radius="5" operator="erode" in="SourceAlpha" result="effect1_dropShadow"/>
<feOffset dy="6"/>
<feGaussianBlur stdDeviation="6"/>
<feComposite in2="hardAlpha" operator="out"/>
<feColorMatrix type="matrix" values="0 0 0 0 0 0 0 0 0 0.321569 0 0 0 0 0.803922 0 0 0 0.3 0"/>
<feBlend mode="normal" in2="BackgroundImageFix" result="effect1_dropShadow"/>
<feBlend mode="normal" in="SourceGraphic" in2="effect1_dropShadow" result="shape"/>
</filter>
<linearGradient id="paint0_linear" x1="0" y1="0" x2="72" y2="72" gradientUnits="userSpaceOnUse">
<stop stop-color="#0052CD" stop-opacity="0"/>
<stop offset="1" stop-color="#0052CD"/>
</linearGradient>
<clipPath id="clip0">
<rect width="22.4" height="23.8832" fill="white" transform="translate(24.8 23.2)"/>
</clipPath>
<clipPath id="clip1">
<rect width="22.4" height="23.8832" fill="white" transform="translate(24.8 23.2)"/>
</clipPath>
</defs>
</svg>
