<svg width="72" height="72" viewBox="0 0 72 72" fill="none" xmlns="http://www.w3.org/2000/svg">
<path d="M0 8C0 3.58172 3.58172 0 8 0H64C68.4183 0 72 3.58172 72 8V64C72 68.4183 68.4183 72 64 72H8C3.58172 72 0 68.4183 0 64V8Z" fill="#62D198" fill-opacity="0.2"/>
<path d="M29.75 50.25H42.25" stroke="#FF9B04" stroke-width="3.75"/>
<path d="M28.2975 40.0956C26.8111 38.9347 25.6073 37.452 24.7764 35.759C23.9455 34.0659 23.5091 32.2066 23.5002 30.3206C23.4628 23.5453 28.925 17.9131 35.6986 17.7536C38.3234 17.6904 40.9014 18.4553 43.0671 19.9397C45.2327 21.4242 46.876 23.5528 47.7637 26.0237C48.6515 28.4946 48.7387 31.1824 48.013 33.7056C47.2873 36.2289 45.7855 38.4596 43.7207 40.0813C43.2659 40.4337 42.8972 40.8848 42.6424 41.4007C42.3876 41.9165 42.2535 42.4835 42.25 43.0588L42.25 44.0001C42.25 44.3316 42.1183 44.6495 41.8839 44.884C41.6495 45.1184 41.3315 45.2501 41 45.2501H31C30.6685 45.2501 30.3505 45.1184 30.1161 44.884C29.8817 44.6495 29.75 44.3316 29.75 44.0001L29.75 43.0577C29.7485 42.4861 29.617 41.9224 29.3654 41.4091C29.1137 40.8959 28.7485 40.4467 28.2975 40.0956Z" fill="#FFCE4F"/>
<path d="M28.2975 40.0956C26.8111 38.9347 25.6073 37.452 24.7764 35.759C23.9455 34.0659 23.5091 32.2066 23.5002 30.3206C23.4628 23.5453 28.925 17.9131 35.6986 17.7536C38.3234 17.6904 40.9014 18.4553 43.0671 19.9397C45.2327 21.4242 46.876 23.5528 47.7637 26.0237C48.6515 28.4946 48.7387 31.1824 48.013 33.7056C47.2873 36.2289 45.7855 38.4596 43.7207 40.0813C43.2659 40.4337 42.8972 40.8848 42.6424 41.4007C42.3876 41.9165 42.2535 42.4835 42.25 43.0588L42.25 44.0001C42.25 44.3316 42.1183 44.6495 41.8839 44.884C41.6495 45.1184 41.3315 45.2501 41 45.2501H31C30.6685 45.2501 30.3505 45.1184 30.1161 44.884C29.8817 44.6495 29.75 44.3316 29.75 44.0001L29.75 43.0577C29.7485 42.4861 29.617 41.9224 29.3654 41.4091C29.1137 40.8959 28.7485 40.4467 28.2975 40.0956Z" fill="url(#paint0_radial)" fill-opacity="0.6"/>
<path d="M37.2695 22.8721C38.7985 23.132 40.209 23.8602 41.3063 24.9561C42.4036 26.052 43.1335 27.4617 43.3953 28.9903" stroke="white" stroke-width="3.75" stroke-linecap="round" stroke-linejoin="round"/>
<rect x="12" y="36" width="20" height="20" rx="10" fill="#21324B"/>
<path d="M22 52.875V39.125" stroke="white" stroke-width="1.5" stroke-linejoin="round"/>
<path d="M16.375 44.75L22 39.125L27.625 44.75" stroke="white" stroke-width="1.5" stroke-linejoin="round"/>
<defs>
<radialGradient id="paint0_radial" cx="0" cy="0" r="1" gradientUnits="userSpaceOnUse" gradientTransform="translate(22.6988 46.1323) rotate(-47.7261) scale(33.8986 33.7449)">
<stop stop-color="#FF4500"/>
<stop offset="1" stop-color="#FF4500" stop-opacity="0"/>
</radialGradient>
</defs>
</svg>
