<svg width="72" height="72" fill="none" xmlns="http://www.w3.org/2000/svg"><g clip-path="url(#a)"><rect width="72" height="72" rx="10" fill="#002D70"/><g filter="url(#b)"><path d="M21.073 38.714v8.143c0 4.497 6.684 8.143 14.929 8.143 8.244 0 14.928-3.646 14.928-8.143v-8.143" fill="#3787FF"/><path d="M21.073 38.714v8.143c0 4.497 6.684 8.143 14.929 8.143 8.244 0 14.928-3.646 14.928-8.143v-8.143" fill="url(#c)" fill-opacity=".65"/><path d="M21.073 27.857V36c0 4.497 6.684 8.143 14.929 8.143 8.244 0 14.928-3.646 14.928-8.143v-8.143" fill="#3787FF"/><path d="M21.073 27.857V36c0 4.497 6.684 8.143 14.929 8.143 8.244 0 14.928-3.646 14.928-8.143v-8.143" fill="url(#d)" fill-opacity=".65"/><path d="M36.002 33.286c8.244 0 14.928-3.646 14.928-8.143 0-4.497-6.684-8.143-14.928-8.143-8.245 0-14.929 3.646-14.929 8.143 0 4.497 6.684 8.143 14.929 8.143Z" fill="#3787FF"/><path d="M36.012 30.49c5.627 0 10.189-2.488 10.189-5.557 0-3.07-4.562-5.558-10.19-5.558-5.626 0-10.188 2.488-10.188 5.558 0 3.069 4.562 5.557 10.189 5.557Z" fill="#fff" fill-opacity=".4"/><path fill-rule="evenodd" clip-rule="evenodd" d="M50.93 28.387c-.871 1.348-2.252 2.496-3.893 3.392-2.875 1.568-6.779 2.507-11.035 2.507-4.257 0-8.16-.94-11.035-2.507-1.642-.896-3.022-2.044-3.894-3.392v-3.244c0 4.497 6.684 8.143 14.929 8.143 8.244 0 14.928-3.646 14.928-8.143v3.244Z" fill="#0052CD"/><path fill-rule="evenodd" clip-rule="evenodd" d="M50.93 28.387c-.871 1.348-2.252 2.496-3.893 3.392-2.875 1.568-6.779 2.507-11.035 2.507-4.257 0-8.16-.94-11.035-2.507-1.642-.896-3.022-2.044-3.894-3.392v-3.244c0 4.497 6.684 8.143 14.929 8.143 8.244 0 14.928-3.646 14.928-8.143v3.244Z" fill="url(#e)"/><path fill-rule="evenodd" clip-rule="evenodd" d="M50.93 39.244c-.871 1.348-2.252 2.496-3.893 3.392-2.875 1.568-6.779 2.507-11.035 2.507-4.257 0-8.16-.94-11.035-2.507-1.642-.896-3.022-2.044-3.894-3.392V36c0 4.497 6.684 8.143 14.929 8.143 8.244 0 14.928-3.646 14.928-8.143v3.244Z" fill="#0052CD"/><path fill-rule="evenodd" clip-rule="evenodd" d="M50.93 39.244c-.871 1.348-2.252 2.496-3.893 3.392-2.875 1.568-6.779 2.507-11.035 2.507-4.257 0-8.16-.94-11.035-2.507-1.642-.896-3.022-2.044-3.894-3.392V36c0 4.497 6.684 8.143 14.929 8.143 8.244 0 14.928-3.646 14.928-8.143v3.244Z" fill="url(#f)"/></g></g><defs><radialGradient id="c" cx="0" cy="0" r="1" gradientUnits="userSpaceOnUse" gradientTransform="matrix(-29.85727 -16.28547 13.69224 -25.10292 50.93 55)"><stop stop-color="#063799"/><stop offset="1" stop-color="#063799" stop-opacity="0"/></radialGradient><radialGradient id="d" cx="0" cy="0" r="1" gradientUnits="userSpaceOnUse" gradientTransform="matrix(-29.85727 -16.28547 13.69224 -25.10292 50.93 44.143)"><stop stop-color="#063799"/><stop offset="1" stop-color="#063799" stop-opacity="0"/></radialGradient><radialGradient id="e" cx="0" cy="0" r="1" gradientUnits="userSpaceOnUse" gradientTransform="rotate(-162.974 28.031 13.331) scale(31.2256 17.4843)"><stop stop-color="#063799"/><stop offset="1" stop-color="#063799" stop-opacity="0"/></radialGradient><radialGradient id="f" cx="0" cy="0" r="1" gradientUnits="userSpaceOnUse" gradientTransform="rotate(-162.974 28.844 18.76) scale(31.2256 17.4843)"><stop stop-color="#063799"/><stop offset="1" stop-color="#063799" stop-opacity="0"/></radialGradient><clipPath id="a"><rect width="72" height="72" rx="10" fill="#fff"/></clipPath><filter id="b" x="-63" y="17" width="198" height="218" filterUnits="userSpaceOnUse" color-interpolation-filters="sRGB"><feFlood flood-opacity="0" result="BackgroundImageFix"/><feColorMatrix in="SourceAlpha" values="0 0 0 0 0 0 0 0 0 0 0 0 0 0 0 0 0 0 127 0" result="hardAlpha"/><feOffset dy="2.767"/><feGaussianBlur stdDeviation="1.107"/><feColorMatrix values="0 0 0 0 0 0 0 0 0 0 0 0 0 0 0 0 0 0 0.0196802 0"/><feBlend in2="BackgroundImageFix" result="effect1_dropShadow_1_20"/><feColorMatrix in="SourceAlpha" values="0 0 0 0 0 0 0 0 0 0 0 0 0 0 0 0 0 0 127 0" result="hardAlpha"/><feOffset dy="6.65"/><feGaussianBlur stdDeviation="2.66"/><feColorMatrix values="0 0 0 0 0 0 0 0 0 0 0 0 0 0 0 0 0 0 0.0282725 0"/><feBlend in2="effect1_dropShadow_1_20" result="effect2_dropShadow_1_20"/><feColorMatrix in="SourceAlpha" values="0 0 0 0 0 0 0 0 0 0 0 0 0 0 0 0 0 0 127 0" result="hardAlpha"/><feOffset dy="12.522"/><feGaussianBlur stdDeviation="5.009"/><feColorMatrix values="0 0 0 0 0 0 0 0 0 0 0 0 0 0 0 0 0 0 0.035 0"/><feBlend in2="effect2_dropShadow_1_20" result="effect3_dropShadow_1_20"/><feColorMatrix in="SourceAlpha" values="0 0 0 0 0 0 0 0 0 0 0 0 0 0 0 0 0 0 127 0" result="hardAlpha"/><feOffset dy="22.336"/><feGaussianBlur stdDeviation="8.935"/><feColorMatrix values="0 0 0 0 0 0 0 0 0 0 0 0 0 0 0 0 0 0 0.0417275 0"/><feBlend in2="effect3_dropShadow_1_20" result="effect4_dropShadow_1_20"/><feColorMatrix in="SourceAlpha" values="0 0 0 0 0 0 0 0 0 0 0 0 0 0 0 0 0 0 127 0" result="hardAlpha"/><feOffset dy="41.778"/><feGaussianBlur stdDeviation="16.711"/><feColorMatrix values="0 0 0 0 0 0 0 0 0 0 0 0 0 0 0 0 0 0 0.0503198 0"/><feBlend in2="effect4_dropShadow_1_20" result="effect5_dropShadow_1_20"/><feColorMatrix in="SourceAlpha" values="0 0 0 0 0 0 0 0 0 0 0 0 0 0 0 0 0 0 127 0" result="hardAlpha"/><feOffset dy="100"/><feGaussianBlur stdDeviation="40"/><feColorMatrix values="0 0 0 0 0 0 0 0 0 0 0 0 0 0 0 0 0 0 0.07 0"/><feBlend in2="effect5_dropShadow_1_20" result="effect6_dropShadow_1_20"/><feBlend in="SourceGraphic" in2="effect6_dropShadow_1_20" result="shape"/></filter></defs></svg>