<svg width="72" height="72" viewBox="0 0 72 72" fill="none" xmlns="http://www.w3.org/2000/svg">
<path d="M0 8C0 3.58172 3.58172 0 8 0H64C68.4183 0 72 3.58172 72 8V64C72 68.4183 68.4183 72 64 72H8C3.58172 72 0 68.4183 0 64V8Z" fill="#FFF504" fill-opacity="0.2"/>
<path d="M0 8C0 3.58172 3.58172 0 8 0H64C68.4183 0 72 3.58172 72 8V64C72 68.4183 68.4183 72 64 72H8C3.58172 72 0 68.4183 0 64V8Z" fill="url(#paint0_linear)" fill-opacity="0.2"/>
<path d="M29.75 50.25H42.25" stroke="#FF9B04" stroke-width="3.75"/>
<path d="M28.2975 40.0955C26.8111 38.9346 25.6073 37.4519 24.7764 35.7588C23.9455 34.0658 23.5091 32.2064 23.5002 30.3205C23.4628 23.5451 28.925 17.9129 35.6986 17.7535C38.3234 17.6903 40.9014 18.4551 43.0671 19.9396C45.2327 21.424 46.876 23.5527 47.7637 26.0236C48.6515 28.4945 48.7387 31.1822 48.013 33.7055C47.2873 36.2287 45.7855 38.4595 43.7207 40.0812C43.2659 40.4335 42.8972 40.8847 42.6424 41.4005C42.3876 41.9163 42.2535 42.4833 42.25 43.0587L42.25 43.9999C42.25 44.3315 42.1183 44.6494 41.8839 44.8838C41.6495 45.1182 41.3315 45.2499 41 45.2499H31C30.6685 45.2499 30.3505 45.1182 30.1161 44.8838C29.8817 44.6494 29.75 44.3315 29.75 43.9999L29.75 43.0576C29.7485 42.486 29.617 41.9222 29.3654 41.409C29.1137 40.8958 28.7485 40.4466 28.2975 40.0955Z" fill="#FFCE4F"/>
<path d="M28.2975 40.0955C26.8111 38.9346 25.6073 37.4519 24.7764 35.7588C23.9455 34.0658 23.5091 32.2064 23.5002 30.3205C23.4628 23.5451 28.925 17.9129 35.6986 17.7535C38.3234 17.6903 40.9014 18.4551 43.0671 19.9396C45.2327 21.424 46.876 23.5527 47.7637 26.0236C48.6515 28.4945 48.7387 31.1822 48.013 33.7055C47.2873 36.2287 45.7855 38.4595 43.7207 40.0812C43.2659 40.4335 42.8972 40.8847 42.6424 41.4005C42.3876 41.9163 42.2535 42.4833 42.25 43.0587L42.25 43.9999C42.25 44.3315 42.1183 44.6494 41.8839 44.8838C41.6495 45.1182 41.3315 45.2499 41 45.2499H31C30.6685 45.2499 30.3505 45.1182 30.1161 44.8838C29.8817 44.6494 29.75 44.3315 29.75 43.9999L29.75 43.0576C29.7485 42.486 29.617 41.9222 29.3654 41.409C29.1137 40.8958 28.7485 40.4466 28.2975 40.0955Z" fill="url(#paint1_radial)" fill-opacity="0.6"/>
<path d="M37.269 22.8724C38.7979 23.1323 40.2084 23.8605 41.3057 24.9565C42.403 26.0524 43.133 27.462 43.3947 28.9906" stroke="white" stroke-width="3.75" stroke-linecap="round" stroke-linejoin="round"/>
<rect x="12" y="36" width="20" height="20" rx="10" fill="#21324B"/>
<path fill-rule="evenodd" clip-rule="evenodd" d="M22.5731 41.5567C22.0033 41.4434 21.4126 41.5016 20.8759 41.7239C20.3391 41.9462 19.8803 42.3227 19.5576 42.8058C19.2348 43.2889 19.0625 43.8568 19.0625 44.4378H20.5625C20.5625 44.1535 20.6468 43.8756 20.8048 43.6392C20.9627 43.4028 21.1872 43.2185 21.4499 43.1097C21.7126 43.0009 22.0016 42.9725 22.2804 43.0279C22.5593 43.0834 22.8154 43.2203 23.0165 43.4213C23.2175 43.6224 23.3544 43.8785 23.4099 44.1574C23.4653 44.4362 23.4369 44.7252 23.3281 44.9879C23.2193 45.2506 23.035 45.4751 22.7986 45.633C22.5622 45.791 22.2843 45.8753 22 45.8753C21.8011 45.8753 21.6103 45.9543 21.4697 46.095C21.329 46.2356 21.25 46.4264 21.25 46.6253V48.5003H22.75V47.2779C23.0623 47.1955 23.3605 47.0616 23.632 46.8802C24.1151 46.5575 24.4916 46.0987 24.7139 45.5619C24.9362 45.0252 24.9944 44.4345 24.8811 43.8647C24.7677 43.2949 24.4879 42.7715 24.0771 42.3607C23.6663 41.9499 23.1429 41.6701 22.5731 41.5567ZM22.9375 50.0625C22.9375 50.5803 22.5178 51 22 51C21.4822 51 21.0625 50.5803 21.0625 50.0625C21.0625 49.5447 21.4822 49.125 22 49.125C22.5178 49.125 22.9375 49.5447 22.9375 50.0625Z" fill="white"/>
<defs>
<linearGradient id="paint0_linear" x1="0" y1="0" x2="72" y2="72" gradientUnits="userSpaceOnUse">
<stop stop-color="#FCA326" stop-opacity="0"/>
<stop offset="1" stop-color="#FCA326"/>
</linearGradient>
<radialGradient id="paint1_radial" cx="0" cy="0" r="1" gradientUnits="userSpaceOnUse" gradientTransform="translate(22.6988 46.1321) rotate(-47.7261) scale(33.8986 33.7449)">
<stop stop-color="#FF4500"/>
<stop offset="1" stop-color="#FF4500" stop-opacity="0"/>
</radialGradient>
</defs>
</svg>
