<svg width="28" height="24" viewBox="0 0 28 24" fill="none" xmlns="http://www.w3.org/2000/svg">
<path d="M3 5.25H21V18C21 18.1989 20.921 18.3897 20.7803 18.5303C20.6397 18.671 20.4489 18.75 20.25 18.75H3.75C3.55109 18.75 3.36032 18.671 3.21967 18.5303C3.07902 18.3897 3 18.1989 3 18V5.25Z" fill="#0052CD"/>
<g opacity="0.75">
<path d="M21 15.75L12 9.75L3 15.75" fill="#0D3777"/>
<path d="M21 15.75L12 9.75L3 15.75V18.75H21V15.75Z" fill="#0D3777"/>
</g>
<path d="M12 15L3 6.75V5.25H21V6.75L12 15Z" fill="#002358" fill-opacity="0.1"/>
<path d="M12 13.5L21 5.25H3L12 13.5Z" fill="#3787FF"/>
<path fill-rule="evenodd" clip-rule="evenodd" d="M3 5.25H21L20.1818 6H3.81818L3 5.25Z" fill="white" fill-opacity="0.2"/>
<path d="M14 3V6.66667C14 12.2699 18.7647 14.12 19.6868 14.4262C19.8899 14.4953 20.1101 14.4953 20.3132 14.4262C21.2353 14.12 26 12.2699 26 6.66667V3C26 2.73478 25.8946 2.48043 25.7071 2.29289C25.5196 2.10536 25.2652 2 25 2H15C14.7348 2 14.4804 2.10536 14.2929 2.29289C14.1054 2.48043 14 2.73478 14 3Z" fill="#9CA7B7" stroke="white" stroke-linecap="round" stroke-linejoin="round"/>
<path fill-rule="evenodd" clip-rule="evenodd" d="M25 2.5H24.5C24.6525 5.09114 23.6061 10.5537 21.5905 13.3044C23.2148 12.3864 25.5 10.4267 25.5 6.66667V3C25.5 2.86739 25.4473 2.74021 25.3536 2.64645C25.2598 2.55268 25.1326 2.5 25 2.5Z" fill="#556378"/>
<path fill-rule="evenodd" clip-rule="evenodd" d="M15 2.5C14.8674 2.5 14.7402 2.55268 14.6464 2.64645C14.5527 2.74021 14.5 2.86739 14.5 3V6.66667C14.5 10.4268 16.7852 12.3864 18.4096 13.3044C16.3939 10.5538 15.3476 5.09115 15.5 2.5H15Z" fill="#C2CAD6"/>
</svg>
