<svg width="16" height="16" viewBox="0 0 16 16" fill="none" xmlns="http://www.w3.org/2000/svg">
<path d="M2 3.5H14V12C14 12.1326 13.9473 12.2598 13.8536 12.3536C13.7598 12.4473 13.6326 12.5 13.5 12.5H2.5C2.36739 12.5 2.24021 12.4473 2.14645 12.3536C2.05268 12.2598 2 12.1326 2 12V3.5Z" fill="#0052CD"/>
<g opacity="0.75">
<path d="M14 10.5L8 6.5L2 10.5" fill="#063799"/>
<path d="M14 10.5L8 6.5L2 10.5V12.5H14V10.5Z" fill="#063799"/>
</g>
<path d="M8 10L2 4.5V3.5H14V4.5L8 10Z" fill="#002358" fill-opacity="0.1"/>
<path d="M8 9L14 3.5H2L8 9Z" fill="#3787FF"/>
<path fill-rule="evenodd" clip-rule="evenodd" d="M2 3.5H14L13.4545 4H2.54545L2 3.5Z" fill="white" fill-opacity="0.2"/>
</svg>
