<svg width="72" height="72" viewBox="0 0 72 72" fill="none" xmlns="http://www.w3.org/2000/svg">
<path d="M0 8C0 3.58172 3.58172 0 8 0H64C68.4183 0 72 3.58172 72 8V64C72 68.4183 68.4183 72 64 72H8C3.58172 72 0 68.4183 0 64V8Z" fill="#3787FF" fill-opacity="0.1"/>
<path d="M0 8C0 3.58172 3.58172 0 8 0H64C68.4183 0 72 3.58172 72 8V64C72 68.4183 68.4183 72 64 72H8C3.58172 72 0 68.4183 0 64V8Z" fill="url(#paint0_linear)" fill-opacity="0.1"/>
<rect opacity="0.15" x="18" y="21" width="42" height="42" fill="url(#paint1_radial)"/>
<path d="M29.75 50.25H42.25" stroke="#FF9B04" stroke-width="3.75"/>
<path d="M28.2975 40.0955C26.8111 38.9346 25.6073 37.4519 24.7764 35.7589C23.9455 34.0658 23.5091 32.2064 23.5002 30.3205C23.4628 23.5451 28.925 17.9129 35.6986 17.7535C38.3234 17.6903 40.9014 18.4552 43.0671 19.9396C45.2327 21.4241 46.876 23.5527 47.7637 26.0236C48.6515 28.4945 48.7387 31.1822 48.013 33.7055C47.2873 36.2288 45.7855 38.4595 43.7207 40.0812C43.2659 40.4336 42.8972 40.8847 42.6424 41.4005C42.3876 41.9164 42.2535 42.4834 42.25 43.0587L42.25 44C42.25 44.3315 42.1183 44.6494 41.8839 44.8838C41.6495 45.1183 41.3315 45.25 41 45.25H31C30.6685 45.25 30.3505 45.1183 30.1161 44.8838C29.8817 44.6494 29.75 44.3315 29.75 44L29.75 43.0576C29.7485 42.486 29.617 41.9222 29.3654 41.409C29.1137 40.8958 28.7485 40.4466 28.2975 40.0955Z" fill="#FFCE4F"/>
<path d="M28.2975 40.0955C26.8111 38.9346 25.6073 37.4519 24.7764 35.7589C23.9455 34.0658 23.5091 32.2064 23.5002 30.3205C23.4628 23.5451 28.925 17.9129 35.6986 17.7535C38.3234 17.6903 40.9014 18.4552 43.0671 19.9396C45.2327 21.4241 46.876 23.5527 47.7637 26.0236C48.6515 28.4945 48.7387 31.1822 48.013 33.7055C47.2873 36.2288 45.7855 38.4595 43.7207 40.0812C43.2659 40.4336 42.8972 40.8847 42.6424 41.4005C42.3876 41.9164 42.2535 42.4834 42.25 43.0587L42.25 44C42.25 44.3315 42.1183 44.6494 41.8839 44.8838C41.6495 45.1183 41.3315 45.25 41 45.25H31C30.6685 45.25 30.3505 45.1183 30.1161 44.8838C29.8817 44.6494 29.75 44.3315 29.75 44L29.75 43.0576C29.7485 42.486 29.617 41.9222 29.3654 41.409C29.1137 40.8958 28.7485 40.4466 28.2975 40.0955Z" fill="url(#paint2_radial)" fill-opacity="0.6"/>
<path d="M37.269 22.8725C38.798 23.1324 40.2085 23.8606 41.3058 24.9565C42.4031 26.0525 43.133 27.4621 43.3948 28.9907" stroke="white" stroke-width="3.75" stroke-linecap="round" stroke-linejoin="round"/>
<rect x="41" y="37" width="20" height="20" rx="10" fill="#0052CD"/>
<path d="M56.5 43.5003L49.5 50.5L46 47.0003" stroke="white" stroke-width="2" stroke-linejoin="round"/>
<defs>
<linearGradient id="paint0_linear" x1="0" y1="0" x2="72" y2="72" gradientUnits="userSpaceOnUse">
<stop stop-color="#3787FF" stop-opacity="0"/>
<stop offset="1" stop-color="#3787FF"/>
</linearGradient>
<radialGradient id="paint1_radial" cx="0" cy="0" r="1" gradientUnits="userSpaceOnUse" gradientTransform="translate(39 42) rotate(180) scale(21)">
<stop stop-color="#011764"/>
<stop offset="1" stop-color="#011764" stop-opacity="0"/>
</radialGradient>
<radialGradient id="paint2_radial" cx="0" cy="0" r="1" gradientUnits="userSpaceOnUse" gradientTransform="translate(22.6988 46.1322) rotate(-47.7261) scale(33.8986 33.7449)">
<stop stop-color="#FF4500"/>
<stop offset="1" stop-color="#FF4500" stop-opacity="0"/>
</radialGradient>
</defs>
</svg>
