<svg width="24" height="24" viewBox="0 0 24 24" fill="none" xmlns="http://www.w3.org/2000/svg">
<path d="M0.5 6C0.223857 6 0 6.22386 0 6.5V17.5C0 17.7761 0.223858 18 0.5 18H23.5C23.7761 18 24 17.7761 24 17.5V6.5C24 6.22386 23.7761 6 23.5 6H0.5Z" fill="#00247D"/>
<mask id="mask0_5_20" style="mask-type:alpha" maskUnits="userSpaceOnUse" x="0" y="6" width="24" height="12">
<path d="M0.5 6C0.223857 6 0 6.22386 0 6.5V17.5C0 17.7761 0.223858 18 0.5 18H23.5C23.7761 18 24 17.7761 24 17.5V6.5C24 6.22386 23.7761 6 23.5 6H0.5Z" fill="white"/>
</mask>
<g mask="url(#mask0_5_20)">
<path d="M0 6L24 18L0 6Z" fill="black"/>
<path d="M0 6L24 18" stroke="white" stroke-width="1.6"/>
<path d="M24 6L0 18L24 6Z" fill="black"/>
<path d="M24 6L0 18" stroke="white" stroke-width="1.6"/>
<mask id="mask1_5_20" style="mask-type:alpha" maskUnits="userSpaceOnUse" x="0" y="6" width="24" height="12">
<path fill-rule="evenodd" clip-rule="evenodd" d="M12 12H24V18L12 12ZM12 12V18H0L12 12ZM12 12H0V6L12 12ZM12 12V6H24L12 12Z" fill="white"/>
</mask>
<g mask="url(#mask1_5_20)">
<path d="M0 6L24 18L0 6Z" fill="black"/>
<path d="M0 6L24 18" stroke="#CF142B" stroke-width="1.06667"/>
<path d="M24 6L0 18L24 6Z" fill="black"/>
<path d="M24 6L0 18" stroke="#CF142B" stroke-width="1.06667"/>
</g>
<path d="M12 6V18V6Z" fill="black"/>
<path d="M12 6V18" stroke="white" stroke-width="2.66667"/>
<path d="M0 12H24H0Z" fill="black"/>
<path d="M0 12H24" stroke="white" stroke-width="2.66667"/>
<path d="M12 6V18V6Z" fill="black"/>
<path d="M12 6V18" stroke="#CF142B" stroke-width="1.6"/>
<path d="M0 12H24H0Z" fill="black"/>
<path d="M0 12H24" stroke="#CF142B" stroke-width="1.6"/>
</g>
</svg>
