<svg width="48" height="48" viewBox="0 0 48 48" fill="none" xmlns="http://www.w3.org/2000/svg">
<path fill-rule="evenodd" clip-rule="evenodd" d="M23.9981 3C12.4032 3 3 12.4019 3 24.0006C3 33.2788 9.01658 41.1492 17.3614 43.9261C18.4121 44.1195 18.795 43.471 18.795 42.9141C18.795 42.4165 18.7769 41.0951 18.7666 39.3431C12.9254 40.6116 11.6929 36.5275 11.6929 36.5275C10.7376 34.1013 9.36078 33.4554 9.36078 33.4554C7.4541 32.1534 9.50517 32.1792 9.50517 32.1792C11.613 32.3274 12.7217 34.3437 12.7217 34.3437C14.5948 37.5524 17.6373 36.6255 18.8336 36.0879C19.0244 34.7317 19.5672 33.8061 20.1666 33.2814C15.5037 32.7516 10.601 30.9493 10.601 22.9023C10.601 20.6101 11.4196 18.7344 12.7629 17.2673C12.5463 16.7361 11.8257 14.6 12.9692 11.7097C12.9692 11.7097 14.7315 11.145 18.7434 13.8626C20.418 13.3959 22.2151 13.1638 24.0006 13.1548C25.7849 13.1638 27.5807 13.3959 29.2579 13.8626C33.2672 11.145 35.027 11.7097 35.027 11.7097C36.173 14.6 35.4524 16.7361 35.2371 17.2673C36.583 18.7344 37.3952 20.6101 37.3952 22.9023C37.3952 30.9699 32.4847 32.7451 27.8076 33.2646C28.5605 33.9131 29.2321 35.1945 29.2321 37.1541C29.2321 39.9606 29.2063 42.2257 29.2063 42.9141C29.2063 43.4762 29.5853 44.1298 30.6502 43.9248C38.9886 41.1415 45 33.2763 45 24.0006C45 12.4019 35.5968 3 23.9981 3Z" fill="black"/>
</svg>
