<svg width="72" height="72" viewBox="0 0 72 72" fill="none" xmlns="http://www.w3.org/2000/svg">
<path d="M0 8C0 3.58172 3.58172 0 8 0H64C68.4183 0 72 3.58172 72 8V64C72 68.4183 68.4183 72 64 72H8C3.58172 72 0 68.4183 0 64V8Z" fill="#21324B"/>
<path d="M0 8C0 3.58172 3.58172 0 8 0H64C68.4183 0 72 3.58172 72 8V64C72 68.4183 68.4183 72 64 72H8C3.58172 72 0 68.4183 0 64V8Z" fill="url(#paint0_linear_6_270)" fill-opacity="0.2"/>
<path fill-rule="evenodd" clip-rule="evenodd" d="M35.9984 18.5C26.336 18.5 18.5 26.335 18.5 36.0005C18.5 43.7324 23.5138 50.291 30.4678 52.6051C31.3434 52.7662 31.6625 52.2259 31.6625 51.7618C31.6625 51.3471 31.6474 50.2459 31.6388 48.7859C26.7711 49.843 25.7441 46.4396 25.7441 46.4396C24.948 44.4178 23.8007 43.8795 23.8007 43.8795C22.2117 42.7945 23.921 42.816 23.921 42.816C25.6775 42.9395 26.6014 44.6197 26.6014 44.6197C28.1624 47.2937 30.6977 46.5213 31.6947 46.0733C31.8537 44.9431 32.306 44.1718 32.8055 43.7345C28.9197 43.293 24.8341 41.7911 24.8341 35.0852C24.8341 33.1751 25.5163 31.612 26.6358 30.3894C26.4553 29.9468 25.8547 28.1667 26.8077 25.758C26.8077 25.758 28.2762 25.2875 31.6195 27.5521C33.015 27.1632 34.5126 26.9699 36.0005 26.9624C37.4874 26.9699 38.9839 27.1632 40.3816 27.5521C43.7227 25.2875 45.1891 25.758 45.1891 25.758C46.1442 28.1667 45.5436 29.9468 45.3642 30.3894C46.4858 31.612 47.1626 33.1751 47.1626 35.0852C47.1626 41.8083 43.0706 43.2876 39.173 43.7205C39.8004 44.2609 40.3601 45.3288 40.3601 46.9617C40.3601 49.3005 40.3386 51.1881 40.3386 51.7618C40.3386 52.2302 40.6545 52.7748 41.5418 52.604C48.4905 50.2846 53.5 43.7302 53.5 36.0005C53.5 26.335 45.664 18.5 35.9984 18.5Z" fill="white"/>
<defs>
<linearGradient id="paint0_linear_6_270" x1="0" y1="0" x2="72" y2="72" gradientUnits="userSpaceOnUse">
<stop stop-color="white"/>
<stop offset="1" stop-color="white" stop-opacity="0"/>
</linearGradient>
</defs>
</svg>
