<svg width="48" height="48" viewBox="0 0 48 48" fill="none" xmlns="http://www.w3.org/2000/svg">
<path fill-rule="evenodd" clip-rule="evenodd" d="M44.1598 24.4771C44.1598 22.988 44.0262 21.5562 43.778 20.1816H24V28.3048H35.3017C34.8149 30.9297 33.3354 33.1538 31.1113 34.6429V39.9119H37.8981C41.8689 36.2561 44.1598 30.8725 44.1598 24.4771Z" fill="#4285F4"/>
<path fill-rule="evenodd" clip-rule="evenodd" d="M24.0001 45.0001C29.6701 45.0001 34.4237 43.1197 37.8982 39.9124L31.1114 34.6434C29.231 35.9034 26.8255 36.6479 24.0001 36.6479C18.5306 36.6479 13.9011 32.9538 12.2497 27.9902H5.23389V33.4311C8.68931 40.2942 15.7911 45.0001 24.0001 45.0001Z" fill="#34A853"/>
<path fill-rule="evenodd" clip-rule="evenodd" d="M12.2495 27.9892C11.8295 26.7292 11.5908 25.3833 11.5908 23.9992C11.5908 22.6151 11.8295 21.2692 12.2495 20.0092V14.5684H5.23362C3.81136 17.4033 3 20.6106 3 23.9992C3 27.3878 3.81136 30.595 5.23362 33.43L12.2495 27.9892Z" fill="#FBBC05"/>
<path fill-rule="evenodd" clip-rule="evenodd" d="M24.0001 11.3522C27.0833 11.3522 29.8514 12.4117 32.0278 14.4926L38.0509 8.4695C34.4141 5.08089 29.6605 3 24.0001 3C15.7911 3 8.68931 7.70587 5.23389 14.569L12.2497 20.0099C13.9011 15.0463 18.5306 11.3522 24.0001 11.3522Z" fill="#EA4335"/>
</svg>
