<svg width="72" height="72" fill="none" xmlns="http://www.w3.org/2000/svg"><g clip-path="url(#a)"><rect width="72" height="72" rx="8" fill="#F05A28"/><rect width="72" height="72" rx="8" fill="url(#b)" fill-opacity=".5"/><g filter="url(#c)"><path d="M54.666 33.653a15.115 15.115 0 0 0-.395-2.303 14.11 14.11 0 0 0-1.034-2.755 15.345 15.345 0 0 0-1.924-2.953 14.19 14.19 0 0 0-1.044-1.124c.56-2.237-.682-4.176-.682-4.176-2.144-.133-3.507.672-4.013 1.035-.088-.033-.165-.077-.253-.11a15.15 15.15 0 0 0-1.132-.407c-.385-.122-.78-.232-1.188-.331-.407-.1-.813-.176-1.231-.242l-.22-.034C40.616 17.256 37.933 16 37.933 16c-3.002 1.906-3.562 4.573-3.562 4.573l-.033.154c-.165.044-.33.1-.495.143a7.16 7.16 0 0 0-.682.243c-.23.088-.45.176-.681.275-.451.199-.902.42-1.342.662-.429.242-.846.506-1.253.782l-.11-.044c-4.156-1.587-7.839.32-7.839.32-.34 4.43 1.66 7.217 2.056 7.724a19.151 19.151 0 0 0-1.012 4.386C19.133 37.124 18 41.014 18 41.014c3.2 3.691 6.938 3.923 6.938 3.923l.01-.011a16.925 16.925 0 0 0 1.639 2.413c.264.32.527.617.813.914-1.165 3.35.165 6.127.165 6.127 3.562.132 5.904-1.565 6.399-1.95.352.121.715.231 1.077.32 1.1.286 2.221.451 3.343.495.274.011.56.022.835.011h.396l.176-.01v.01C41.473 55.658 44.42 56 44.42 56c2.1-2.215 2.22-4.419 2.22-4.893v-.198c.44-.309.858-.639 1.254-1.003.835-.76 1.572-1.63 2.188-2.567l.165-.265c2.374.133 4.056-1.476 4.056-1.476-.395-2.48-1.803-3.692-2.1-3.923 0 0-.01-.011-.032-.022s-.022-.022-.022-.022c-.011-.011-.033-.022-.055-.033.01-.154.022-.298.033-.452.022-.264.022-.54.022-.804V39.923l-.011-.165-.011-.22c0-.078-.011-.144-.022-.21s-.011-.143-.022-.21l-.022-.209-.033-.21a10.67 10.67 0 0 0-.154-.815 10.847 10.847 0 0 0-1.21-2.997 10.113 10.113 0 0 0-2.012-2.402 9.993 9.993 0 0 0-5.343-2.435 8.738 8.738 0 0 0-1.418-.078h-.352l-.176.011c-.066 0-.132.011-.187.011a7.816 7.816 0 0 0-3.331 1.09 8.037 8.037 0 0 0-2.012 1.72 7.87 7.87 0 0 0-1.275 2.16 7.614 7.614 0 0 0-.506 2.314c-.011.188-.011.386-.011.573v.144l.01.154c.012.088.012.187.023.275a6.044 6.044 0 0 0 1.154 3.03 6.159 6.159 0 0 0 1.419 1.367 5.923 5.923 0 0 0 1.627.771c.55.166 1.1.232 1.616.232H40.176c.033 0 .066 0 .099-.011.055 0 .11-.011.165-.011.01 0 .033 0 .044-.011l.054-.011c.034 0 .067-.011.1-.011l.186-.033a.823.823 0 0 0 .176-.044c.121-.023.231-.067.341-.1.22-.077.44-.165.627-.264.198-.1.374-.22.55-.33.044-.034.099-.067.142-.11a.42.42 0 0 0 .066-.585.405.405 0 0 0-.516-.1l-.132.067a3.573 3.573 0 0 1-.99.33c-.088.012-.176.023-.275.034-.044 0-.088.01-.143.01h-.263c-.055 0-.11 0-.165-.01h-.066c-.022 0-.055 0-.077-.011-.055-.011-.1-.011-.154-.023a4.266 4.266 0 0 1-1.199-.352 4.199 4.199 0 0 1-1.11-.727 4.222 4.222 0 0 1-1.341-2.458 4.16 4.16 0 0 1-.044-.738c0-.066.01-.132.01-.198v-.088c0-.034.012-.067.012-.1.01-.132.033-.264.055-.396a5.306 5.306 0 0 1 1.528-2.876c.209-.199.429-.375.66-.54a5.124 5.124 0 0 1 1.561-.727c.275-.078.56-.122.857-.155.143-.01.286-.022.44-.022H41.715l.12.011c.32.022.628.066.935.143.616.133 1.22.364 1.781.673a6.581 6.581 0 0 1 2.661 2.765 6.16 6.16 0 0 1 .605 1.863c.022.165.044.33.055.496l.01.12.012.122v.474c0 .077-.011.21-.011.286a8.985 8.985 0 0 1-.055.54c-.022.177-.055.353-.088.53a7.137 7.137 0 0 1-.121.517 9.23 9.23 0 0 1-.33 1.025 8.983 8.983 0 0 1-1.033 1.884 8.504 8.504 0 0 1-3.32 2.722 8.003 8.003 0 0 1-2.068.628 6.99 6.99 0 0 1-1.077.11h-.55c-.198 0-.385-.01-.583-.033a11.478 11.478 0 0 1-2.275-.407 11.524 11.524 0 0 1-2.133-.86c-1.353-.727-2.573-1.72-3.518-2.92a11.37 11.37 0 0 1-1.232-1.917 11.404 11.404 0 0 1-.813-2.105 11.653 11.653 0 0 1-.374-2.215l-.011-.143v-.981a13.228 13.228 0 0 1 .275-2.259c.077-.375.164-.75.274-1.124.21-.738.473-1.454.781-2.127.627-1.344 1.44-2.545 2.419-3.504.242-.242.495-.463.758-.683.264-.21.54-.408.825-.595.275-.187.572-.353.869-.507.142-.077.296-.154.45-.22l.231-.1.231-.099c.308-.132.627-.242.957-.341.077-.022.165-.044.242-.077l.241-.066c.165-.045.33-.089.495-.122.077-.022.165-.033.253-.055s.165-.033.253-.055c.088-.01.165-.033.253-.044l.12-.022.133-.022.252-.033.286-.033c.077-.011.21-.022.286-.033.055-.011.121-.011.176-.022l.121-.011.055-.011h.066c.099-.011.187-.011.286-.022l.143-.011H40.143c.077 0 .165-.011.242-.011a12.927 12.927 0 0 1 2.837.21c1.22.23 2.363.616 3.407 1.134a13.48 13.48 0 0 1 2.782 1.818c.055.044.099.088.154.132.044.044.099.088.143.133.099.088.187.176.286.264.099.088.187.176.275.264.087.089.175.177.263.276A14.229 14.229 0 0 1 52.94 32l.066.132c.044.088.088.177.121.265.044.088.077.165.121.253.033.088.077.165.11.254.132.33.264.65.363.947.165.485.286.915.385 1.29a.293.293 0 0 0 .33.23.303.303 0 0 0 .285-.308c.011-.396 0-.87-.055-1.41Z" fill="#fff"/></g></g><defs><linearGradient id="b" x1="36" y1="0" x2="36" y2="72" gradientUnits="userSpaceOnUse"><stop stop-color="#F05A28"/><stop offset="1" stop-color="#FBCA0A"/></linearGradient><clipPath id="a"><rect width="72" height="72" rx="8" fill="#fff"/></clipPath><filter id="c" x="1" y="5" width="70.725" height="74" filterUnits="userSpaceOnUse" color-interpolation-filters="sRGB"><feFlood flood-opacity="0" result="BackgroundImageFix"/><feColorMatrix in="SourceAlpha" values="0 0 0 0 0 0 0 0 0 0 0 0 0 0 0 0 0 0 127 0" result="hardAlpha"/><feOffset dy="6"/><feGaussianBlur stdDeviation="8.5"/><feComposite in2="hardAlpha" operator="out"/><feColorMatrix values="0 0 0 0 0 0 0 0 0 0.231373 0 0 0 0 0.278431 0 0 0 0.2 0"/><feBlend in2="BackgroundImageFix" result="effect1_dropShadow_812_1342"/><feBlend in="SourceGraphic" in2="effect1_dropShadow_812_1342" result="shape"/></filter></defs></svg>