<svg xmlns="http://www.w3.org/2000/svg" width="72" height="72" fill="none"><path fill="#1EB4D4" d="M0 8a8 8 0 0 1 8-8h56a8 8 0 0 1 8 8v56a8 8 0 0 1-8 8H8a8 8 0 0 1-8-8V8Z"/><path fill="url(#a)" fill-opacity=".2" d="M0 8a8 8 0 0 1 8-8h56a8 8 0 0 1 8 8v56a8 8 0 0 1-8 8H8a8 8 0 0 1-8-8V8Z"/><g filter="url(#b)"><circle cx="36" cy="39" r="16" fill="#35BCD8"/></g><path fill="#fff" fill-rule="evenodd" d="M51.4 17.221c1.431 4.127 1.431 9.516.336 12.169-.547 1.305-.59 2.82-.168 4.168.547 1.642.842 3.368.842 5.221 0 9.221-7.453 16.59-16.632 16.421-8.715-.126-16.084-7.537-16.294-16.21-.043-1.895.252-3.79.842-5.474.463-1.347.463-2.821-.085-4.126-1.052-2.61-1.094-8 .337-12.21.337-.759 1.516-.506 1.516.294v.294c.253 4 1.768 6.4 3.958 7.2.337.169.758.127 1.095-.084 2.568-1.558 5.558-2.526 8.8-2.526 3.242 0 6.273.926 8.8 2.526.379.253.926.253 1.263.084 2.147-1.052 3.579-3.2 3.832-7.157v-.295c.042-.8 1.178-1.053 1.557-.295Zm-15.2 9.053c-7.074-.169-12.885 5.642-12.716 12.758.084 6.694 5.6 12.126 12.252 12.294 7.116.085 12.884-5.684 12.758-12.758-.126-6.694-5.6-12.21-12.295-12.294Zm-1.264 6.61 2.948 4.548 2.863 4.547c.168.253.252.547.252.842 0 .548-.294 1.053-.758 1.348a1.662 1.662 0 0 1-1.81-.042c-.21-.127-.379-.253-.463-.464l-1.642-2.357c-.127-.253-.421-.253-.632-.043l-2.316 2.695c-.294.295-.673.505-1.136.505-.38 0-.8-.126-1.095-.379a1.59 1.59 0 0 1-.084-2.231l3.115-3.41c.127-.211.21-.506.042-.759l-1.978-3.115a1.518 1.518 0 0 1-.253-.843c0-.547.295-1.052.758-1.347.758-.463 1.726-.252 2.19.505Z" clip-rule="evenodd"/><defs><linearGradient id="a" x1="0" x2="72" y1="0" y2="72" gradientUnits="userSpaceOnUse"><stop stop-color="#fff"/><stop offset="1" stop-color="#fff" stop-opacity="0"/></linearGradient><filter id="b" width="38" height="41" x="17" y="23" color-interpolation-filters="sRGB" filterUnits="userSpaceOnUse"><feFlood flood-opacity="0" result="BackgroundImageFix"/><feColorMatrix in="SourceAlpha" result="hardAlpha" values="0 0 0 0 0 0 0 0 0 0 0 0 0 0 0 0 0 0 127 0"/><feMorphology in="SourceAlpha" radius="4" result="effect1_dropShadow_1_85"/><feOffset dy="6"/><feGaussianBlur stdDeviation="3.5"/><feComposite in2="hardAlpha" operator="out"/><feColorMatrix values="0 0 0 0 0 0 0 0 0 0.231373 0 0 0 0 0.278431 0 0 0 0.25 0"/><feBlend in2="BackgroundImageFix" result="effect1_dropShadow_1_85"/><feBlend in="SourceGraphic" in2="effect1_dropShadow_1_85" result="shape"/></filter></defs></svg>