<svg width="72" height="72" viewBox="0 0 72 72" fill="none" xmlns="http://www.w3.org/2000/svg">
<path d="M0 8C0 3.58172 3.58172 0 8 0H64C68.4183 0 72 3.58172 72 8V64C72 68.4183 68.4183 72 64 72H8C3.58172 72 0 68.4183 0 64V8Z" fill="#1EB4D4"/>
<path d="M0 8C0 3.58172 3.58172 0 8 0H64C68.4183 0 72 3.58172 72 8V64C72 68.4183 68.4183 72 64 72H8C3.58172 72 0 68.4183 0 64V8Z" fill="url(#paint0_linear_1_85)" fill-opacity="0.2"/>
<g filter="url(#filter0_d_1_85)">
<circle cx="36" cy="39" r="16" fill="#35BCD8"/>
</g>
<path fill-rule="evenodd" clip-rule="evenodd" d="M51.3994 17.2212C52.831 21.3475 52.831 26.737 51.7362 29.3896C51.1889 30.6948 51.1467 32.2106 51.5678 33.558C52.1152 35.2001 52.4099 36.9264 52.4099 38.7791C52.4099 48.0001 44.9573 55.3685 35.7783 55.2001C27.0625 55.0738 19.6941 47.6633 19.4836 38.9896C19.4415 37.0948 19.7362 35.2001 20.3257 33.5159C20.7889 32.1685 20.7889 30.6948 20.2415 29.3896C19.1889 26.7791 19.1467 21.3896 20.5783 17.1791C20.9152 16.4212 22.0941 16.6738 22.0941 17.4738V17.7685C22.3467 21.7685 23.8625 24.1685 26.052 24.9685C26.3889 25.137 26.8099 25.0948 27.1467 24.8843C29.7152 23.3264 32.7046 22.358 35.9467 22.358C39.1889 22.358 42.2204 23.2843 44.7467 24.8843C45.1257 25.137 45.6731 25.137 46.0099 24.9685C48.1573 23.9159 49.5889 21.7685 49.8415 17.8106V17.5159C49.8836 16.7159 51.0204 16.4633 51.3994 17.2212ZM36.1994 26.2738C29.1257 26.1054 23.3152 31.9159 23.4836 39.0317C23.5678 45.7264 29.0836 51.158 35.7362 51.3264C42.852 51.4106 48.6204 45.6422 48.4941 38.5685C48.3678 31.8738 42.8941 26.358 36.1994 26.2738ZM34.9362 32.8844L37.8836 37.4318L40.7468 41.9792C40.9152 42.2318 40.9994 42.5265 40.9994 42.8213C40.9994 43.3686 40.7047 43.8739 40.2415 44.1686C39.6941 44.5055 38.9783 44.5055 38.431 44.1265C38.2204 44.0002 38.052 43.8739 37.9678 43.6634L36.3257 41.3055C36.1994 41.0528 35.9047 41.0528 35.6941 41.2634L33.3783 43.9581C33.0836 44.2528 32.7047 44.4634 32.2415 44.4634C31.8626 44.4634 31.4415 44.3371 31.1468 44.0844C30.5152 43.495 30.4731 42.4844 31.0626 41.8528L34.1783 38.4423C34.3047 38.2318 34.3889 37.9371 34.2204 37.6844L32.2415 34.5686C32.0731 34.316 31.9889 34.0213 31.9889 33.7265C31.9889 33.1792 32.2836 32.6739 32.7468 32.3792C33.5047 31.916 34.4731 32.1265 34.9362 32.8844Z" fill="white"/>
<defs>
<filter id="filter0_d_1_85" x="17" y="23" width="38" height="41" filterUnits="userSpaceOnUse" color-interpolation-filters="sRGB">
<feFlood flood-opacity="0" result="BackgroundImageFix"/>
<feColorMatrix in="SourceAlpha" type="matrix" values="0 0 0 0 0 0 0 0 0 0 0 0 0 0 0 0 0 0 127 0" result="hardAlpha"/>
<feMorphology radius="4" operator="erode" in="SourceAlpha" result="effect1_dropShadow_1_85"/>
<feOffset dy="6"/>
<feGaussianBlur stdDeviation="3.5"/>
<feComposite in2="hardAlpha" operator="out"/>
<feColorMatrix type="matrix" values="0 0 0 0 0 0 0 0 0 0.231373 0 0 0 0 0.278431 0 0 0 0.25 0"/>
<feBlend mode="normal" in2="BackgroundImageFix" result="effect1_dropShadow_1_85"/>
<feBlend mode="normal" in="SourceGraphic" in2="effect1_dropShadow_1_85" result="shape"/>
</filter>
<linearGradient id="paint0_linear_1_85" x1="0" y1="0" x2="72" y2="72" gradientUnits="userSpaceOnUse">
<stop stop-color="white"/>
<stop offset="1" stop-color="white" stop-opacity="0"/>
</linearGradient>
</defs>
</svg>
