<svg width="32" height="32" viewBox="0 0 32 32" fill="none" xmlns="http://www.w3.org/2000/svg">
<path fill-rule="evenodd" clip-rule="evenodd" d="M3.12787 4.89733C1.60001 7.00025 1.60001 10 1.60001 15.9996C1.60001 21.9992 1.60001 24.999 3.12787 27.1019C3.62131 27.781 4.21857 28.3783 4.89772 28.8717C7.00065 30.3996 10.0004 30.3996 16 30.3996C21.9996 30.3996 24.9994 30.3996 27.1023 28.8717C27.7814 28.3783 28.3787 27.781 28.8721 27.1019C30.4 24.999 30.4 21.9992 30.4 15.9996C30.4 10 30.4 7.00025 28.8721 4.89733C28.3787 4.21817 27.7814 3.62091 27.1023 3.12747C24.9994 1.59961 21.9996 1.59961 16 1.59961C10.0004 1.59961 7.00065 1.59961 4.89772 3.12747C4.21857 3.62091 3.62131 4.21817 3.12787 4.89733Z" fill="white"/>
<path fill-rule="evenodd" clip-rule="evenodd" d="M0 16C0 10.0185 0 7.02769 1.28616 4.8C2.12873 3.34062 3.34062 2.12873 4.8 1.28616C7.02769 0 10.0185 0 16 0C21.9815 0 24.9723 0 27.2 1.28616C28.6594 2.12873 29.8713 3.34062 30.7138 4.8C32 7.02769 32 10.0185 32 16C32 21.9815 32 24.9723 30.7138 27.2C29.8713 28.6594 28.6594 29.8713 27.2 30.7138C24.9723 32 21.9815 32 16 32C10.0185 32 7.02769 32 4.8 30.7138C3.34062 29.8713 2.12873 28.6594 1.28616 27.2C0 24.9723 0 21.9815 0 16ZM13.9997 19.2544C13.9277 19.1309 13.8248 19.0691 13.691 19.0691C13.5366 19.0691 13.3976 19.1412 13.2741 19.2853C12.8007 19.8513 12.4199 20.263 12.1317 20.5203C11.8538 20.7673 11.612 20.8908 11.4061 20.8908C11.1077 20.8908 10.9584 20.685 10.9584 20.2733C10.9584 19.9851 11.0562 19.3933 11.2517 18.4979C11.4782 17.4481 11.5914 16.7225 11.5914 16.3212C11.5914 15.6522 11.2569 15.3177 10.5879 15.3177C10.2483 15.3177 9.87261 15.436 9.46092 15.6728C9.05953 15.9095 8.64785 16.3057 8.22587 16.8615C7.81419 17.407 7.43853 18.1171 7.09889 18.9919C7.09889 18.4259 7.11433 17.8753 7.1452 17.3401C8.51405 15.8477 9.50209 14.5458 10.1093 13.4342C10.7166 12.3124 11.0202 11.2317 11.0202 10.1922C11.0202 9.54381 10.8709 9.01892 10.5725 8.61753C10.2843 8.20584 9.90348 8 9.43005 8C8.54493 8 7.78331 8.58665 7.1452 9.75995C6.51739 10.923 6.0388 12.3638 5.70946 14.0826C5.3904 15.8014 5.23088 17.4533 5.23088 19.0383L5.21544 20.2733C5.20515 20.4689 5.2 20.7313 5.2 21.0607C5.2 21.637 5.24631 22.0384 5.33894 22.2648C5.44186 22.481 5.64771 22.589 5.95647 22.589C6.72837 22.589 7.2121 22.1773 7.40765 21.354C7.56203 20.7262 7.76273 20.1292 8.00974 19.5632C8.25675 18.9971 8.50376 18.5442 8.75077 18.2046C8.99778 17.8547 9.18818 17.6797 9.32198 17.6797C9.43519 17.6797 9.4918 17.762 9.4918 17.9267C9.4918 18.1737 9.4249 18.6214 9.2911 19.2698C9.14701 20.0109 9.07497 20.5255 9.07497 20.8136C9.07497 21.39 9.20877 21.8326 9.47636 22.1413C9.74395 22.4398 10.1402 22.589 10.6651 22.589C11.3032 22.589 11.8693 22.4141 12.3633 22.0641C12.8676 21.7142 13.3565 21.2665 13.8299 20.721C14.0255 20.4946 14.1232 20.1755 14.1232 19.7639C14.1232 19.5477 14.0821 19.3779 13.9997 19.2544ZM8.48832 10.3312C8.71475 9.79597 8.92059 9.52837 9.10585 9.52837C9.23964 9.52837 9.34256 9.61586 9.41461 9.79082C9.48665 9.96579 9.52267 10.2179 9.52267 10.5473C9.52267 11.2677 9.31169 12.0705 8.88971 12.9556C8.47803 13.8408 7.95313 14.659 7.31502 15.4103C7.44882 14.3502 7.61864 13.3725 7.82448 12.4771C8.04062 11.5714 8.2619 10.8561 8.48832 10.3312ZM27.4765 19.2544C27.4044 19.1309 27.3015 19.0691 27.1677 19.0691C27.0133 19.0691 26.8744 19.1412 26.7509 19.2853C26.3083 19.8205 25.9121 20.2013 25.5622 20.4277C25.2122 20.6438 24.8263 20.7519 24.4043 20.7519C23.9206 20.7519 23.5449 20.5255 23.2773 20.0726C23.0097 19.6198 22.8759 18.853 22.8759 17.7723C22.8759 17.3298 22.8914 16.9027 22.9222 16.491C25.5261 15.5029 26.8281 13.7327 26.8281 11.1803C26.8281 10.5216 26.6789 9.99152 26.3804 9.59013C26.0819 9.17844 25.6754 8.9726 25.1608 8.9726C24.4609 8.9726 23.8279 9.28136 23.2619 9.89889C22.6958 10.5164 22.2224 11.3192 21.8416 12.3072C21.4608 13.2953 21.1777 14.3554 20.9925 15.4875C20.5293 15.5595 19.9736 15.611 19.3252 15.6419L17.8122 15.7191C18.0592 14.2576 18.1827 13.0997 18.1827 12.2455C18.1827 11.278 17.9975 10.5679 17.627 10.115C17.2667 9.65188 16.7521 9.42031 16.0832 9.42031C15.373 9.42031 14.6731 9.62615 13.9836 10.0378C13.294 10.4392 12.7228 10.9538 12.2699 11.5816C12.0126 11.9419 11.884 12.2815 11.884 12.6006C11.884 12.8064 11.9354 12.9762 12.0384 13.11C12.1413 13.2438 12.2648 13.3107 12.4089 13.3107C12.5736 13.3107 12.7228 13.2232 12.8566 13.0483C13.7623 11.8441 14.5754 11.242 15.2958 11.242C15.5325 11.242 15.7229 11.3295 15.867 11.5045C16.0111 11.6794 16.0832 12.0088 16.0832 12.4925C16.0832 13.2541 15.9494 14.3605 15.6818 15.8117L14.8635 15.8426C14.4107 15.8632 14.0865 15.9558 13.8909 16.1205C13.6954 16.2748 13.5976 16.5218 13.5976 16.8615C13.5976 17.1291 13.6748 17.3246 13.8292 17.4481C13.9836 17.5613 14.2306 17.618 14.5702 17.618L15.3112 17.5871C15.1054 18.5648 14.8275 19.7587 14.4776 21.1687C14.4261 21.4054 14.4004 21.5907 14.4004 21.7245C14.4004 22.3214 14.7297 22.6199 15.3884 22.6199C15.9957 22.6199 16.4074 22.1722 16.6235 21.2768C16.994 19.7536 17.2822 18.4671 17.488 17.4173C17.6836 17.407 18.0489 17.3812 18.5841 17.3401C19.3869 17.2783 20.1279 17.1857 20.8072 17.0622C20.7763 17.4121 20.7609 17.762 20.7609 18.112C20.7609 19.5529 21.0594 20.6593 21.6563 21.4312C22.2533 22.2031 23.0509 22.589 24.0492 22.589C25.2019 22.589 26.2878 21.9664 27.3067 20.721C27.5022 20.4843 27.6 20.1652 27.6 19.7639C27.6 19.5477 27.5588 19.3779 27.4765 19.2544ZM24.358 10.9332C24.6153 10.5216 24.8572 10.3157 25.0836 10.3157C25.2071 10.3157 25.31 10.3826 25.3923 10.5164C25.4747 10.6502 25.5159 10.8355 25.5159 11.0722C25.5159 12.0602 25.3203 12.8682 24.9292 13.496C24.5381 14.1238 23.9309 14.6075 23.1075 14.9472C23.2413 14.1032 23.4214 13.3262 23.6478 12.616C23.8743 11.9058 24.111 11.3449 24.358 10.9332Z" fill="#3943AE"/>
<path fill-rule="evenodd" clip-rule="evenodd" d="M0 16C0 10.0185 0 7.02769 1.28616 4.8C2.12873 3.34062 3.34062 2.12873 4.8 1.28616C7.02769 0 10.0185 0 16 0C21.9815 0 24.9723 0 27.2 1.28616C28.6594 2.12873 29.8713 3.34062 30.7138 4.8C32 7.02769 32 10.0185 32 16C32 21.9815 32 24.9723 30.7138 27.2C29.8713 28.6594 28.6594 29.8713 27.2 30.7138C24.9723 32 21.9815 32 16 32C10.0185 32 7.02769 32 4.8 30.7138C3.34062 29.8713 2.12873 28.6594 1.28616 27.2C0 24.9723 0 21.9815 0 16ZM13.9997 19.2544C13.9277 19.1309 13.8248 19.0691 13.691 19.0691C13.5366 19.0691 13.3976 19.1412 13.2741 19.2853C12.8007 19.8513 12.4199 20.263 12.1317 20.5203C11.8538 20.7673 11.612 20.8908 11.4061 20.8908C11.1077 20.8908 10.9584 20.685 10.9584 20.2733C10.9584 19.9851 11.0562 19.3933 11.2517 18.4979C11.4782 17.4481 11.5914 16.7225 11.5914 16.3212C11.5914 15.6522 11.2569 15.3177 10.5879 15.3177C10.2483 15.3177 9.87261 15.436 9.46092 15.6728C9.05953 15.9095 8.64785 16.3057 8.22587 16.8615C7.81419 17.407 7.43853 18.1171 7.09889 18.9919C7.09889 18.4259 7.11433 17.8753 7.1452 17.3401C8.51405 15.8477 9.50209 14.5458 10.1093 13.4342C10.7166 12.3124 11.0202 11.2317 11.0202 10.1922C11.0202 9.54381 10.8709 9.01892 10.5725 8.61753C10.2843 8.20584 9.90348 8 9.43005 8C8.54493 8 7.78331 8.58665 7.1452 9.75995C6.51739 10.923 6.0388 12.3638 5.70946 14.0826C5.3904 15.8014 5.23088 17.4533 5.23088 19.0383L5.21544 20.2733C5.20515 20.4689 5.2 20.7313 5.2 21.0607C5.2 21.637 5.24631 22.0384 5.33894 22.2648C5.44186 22.481 5.64771 22.589 5.95647 22.589C6.72837 22.589 7.2121 22.1773 7.40765 21.354C7.56203 20.7262 7.76273 20.1292 8.00974 19.5632C8.25675 18.9971 8.50376 18.5442 8.75077 18.2046C8.99778 17.8547 9.18818 17.6797 9.32198 17.6797C9.43519 17.6797 9.4918 17.762 9.4918 17.9267C9.4918 18.1737 9.4249 18.6214 9.2911 19.2698C9.14701 20.0109 9.07497 20.5255 9.07497 20.8136C9.07497 21.39 9.20877 21.8326 9.47636 22.1413C9.74395 22.4398 10.1402 22.589 10.6651 22.589C11.3032 22.589 11.8693 22.4141 12.3633 22.0641C12.8676 21.7142 13.3565 21.2665 13.8299 20.721C14.0255 20.4946 14.1232 20.1755 14.1232 19.7639C14.1232 19.5477 14.0821 19.3779 13.9997 19.2544ZM8.48832 10.3312C8.71475 9.79597 8.92059 9.52837 9.10585 9.52837C9.23964 9.52837 9.34256 9.61586 9.41461 9.79082C9.48665 9.96579 9.52267 10.2179 9.52267 10.5473C9.52267 11.2677 9.31169 12.0705 8.88971 12.9556C8.47803 13.8408 7.95313 14.659 7.31502 15.4103C7.44882 14.3502 7.61864 13.3725 7.82448 12.4771C8.04062 11.5714 8.2619 10.8561 8.48832 10.3312ZM27.4765 19.2544C27.4044 19.1309 27.3015 19.0691 27.1677 19.0691C27.0133 19.0691 26.8744 19.1412 26.7509 19.2853C26.3083 19.8205 25.9121 20.2013 25.5622 20.4277C25.2122 20.6438 24.8263 20.7519 24.4043 20.7519C23.9206 20.7519 23.5449 20.5255 23.2773 20.0726C23.0097 19.6198 22.8759 18.853 22.8759 17.7723C22.8759 17.3298 22.8914 16.9027 22.9222 16.491C25.5261 15.5029 26.8281 13.7327 26.8281 11.1803C26.8281 10.5216 26.6789 9.99152 26.3804 9.59013C26.0819 9.17844 25.6754 8.9726 25.1608 8.9726C24.4609 8.9726 23.8279 9.28136 23.2619 9.89889C22.6958 10.5164 22.2224 11.3192 21.8416 12.3072C21.4608 13.2953 21.1777 14.3554 20.9925 15.4875C20.5293 15.5595 19.9736 15.611 19.3252 15.6419L17.8122 15.7191C18.0592 14.2576 18.1827 13.0997 18.1827 12.2455C18.1827 11.278 17.9975 10.5679 17.627 10.115C17.2667 9.65188 16.7521 9.42031 16.0832 9.42031C15.373 9.42031 14.6731 9.62615 13.9836 10.0378C13.294 10.4392 12.7228 10.9538 12.2699 11.5816C12.0126 11.9419 11.884 12.2815 11.884 12.6006C11.884 12.8064 11.9354 12.9762 12.0384 13.11C12.1413 13.2438 12.2648 13.3107 12.4089 13.3107C12.5736 13.3107 12.7228 13.2232 12.8566 13.0483C13.7623 11.8441 14.5754 11.242 15.2958 11.242C15.5325 11.242 15.7229 11.3295 15.867 11.5045C16.0111 11.6794 16.0832 12.0088 16.0832 12.4925C16.0832 13.2541 15.9494 14.3605 15.6818 15.8117L14.8635 15.8426C14.4107 15.8632 14.0865 15.9558 13.8909 16.1205C13.6954 16.2748 13.5976 16.5218 13.5976 16.8615C13.5976 17.1291 13.6748 17.3246 13.8292 17.4481C13.9836 17.5613 14.2306 17.618 14.5702 17.618L15.3112 17.5871C15.1054 18.5648 14.8275 19.7587 14.4776 21.1687C14.4261 21.4054 14.4004 21.5907 14.4004 21.7245C14.4004 22.3214 14.7297 22.6199 15.3884 22.6199C15.9957 22.6199 16.4074 22.1722 16.6235 21.2768C16.994 19.7536 17.2822 18.4671 17.488 17.4173C17.6836 17.407 18.0489 17.3812 18.5841 17.3401C19.3869 17.2783 20.1279 17.1857 20.8072 17.0622C20.7763 17.4121 20.7609 17.762 20.7609 18.112C20.7609 19.5529 21.0594 20.6593 21.6563 21.4312C22.2533 22.2031 23.0509 22.589 24.0492 22.589C25.2019 22.589 26.2878 21.9664 27.3067 20.721C27.5022 20.4843 27.6 20.1652 27.6 19.7639C27.6 19.5477 27.5588 19.3779 27.4765 19.2544ZM24.358 10.9332C24.6153 10.5216 24.8572 10.3157 25.0836 10.3157C25.2071 10.3157 25.31 10.3826 25.3923 10.5164C25.4747 10.6502 25.5159 10.8355 25.5159 11.0722C25.5159 12.0602 25.3203 12.8682 24.9292 13.496C24.5381 14.1238 23.9309 14.6075 23.1075 14.9472C23.2413 14.1032 23.4214 13.3262 23.6478 12.616C23.8743 11.9058 24.111 11.3449 24.358 10.9332Z" fill="url(#paint0_radial)"/>
<defs>
<radialGradient id="paint0_radial" cx="0" cy="0" r="1" gradientUnits="userSpaceOnUse" gradientTransform="translate(32 32) rotate(-135) scale(45.2548)">
<stop stop-color="#120031" stop-opacity="0.49"/>
<stop offset="1" stop-color="#120031" stop-opacity="0"/>
</radialGradient>
</defs>
</svg>
