<svg width="24" height="24" viewBox="0 0 24 24" fill="none" xmlns="http://www.w3.org/2000/svg">
<rect y="3" width="24" height="18" rx="1" fill="white"/>
<path d="M24 3H0V9H24V3Z" fill="#FF9933"/>
<path d="M24 15H0V21H24V15Z" fill="#128807"/>
<path d="M12 15C13.6569 15 15 13.6569 15 12C15 10.3431 13.6569 9 12 9C10.3431 9 9 10.3431 9 12C9 13.6569 10.3431 15 12 15Z" fill="#000088"/>
<path d="M12 14.625C13.4497 14.625 14.625 13.4497 14.625 12C14.625 10.5503 13.4497 9.375 12 9.375C10.5503 9.375 9.375 10.5503 9.375 12C9.375 13.4497 10.5503 14.625 12 14.625Z" fill="white"/>
<path d="M12 12.525C12.2899 12.525 12.525 12.2899 12.525 12C12.525 11.71 12.2899 11.475 12 11.475C11.71 11.475 11.475 11.71 11.475 12C11.475 12.2899 11.71 12.525 12 12.525Z" fill="#000088"/>
<path d="M14.5854 12.4728C14.6573 12.4822 14.7232 12.4316 14.7327 12.3598C14.7421 12.2879 14.6915 12.222 14.6197 12.2125C14.5478 12.203 14.4819 12.2536 14.4724 12.3255C14.463 12.3974 14.5135 12.4633 14.5854 12.4728Z" fill="#000088"/>
<path d="M12 14.625L12.09 13.05L12 12.3L11.91 13.05L12 14.625Z" fill="#000088"/>
<path d="M14.375 13.1258C14.4419 13.1535 14.5187 13.1217 14.5464 13.0548C14.5742 12.9878 14.5424 12.911 14.4754 12.8833C14.4084 12.8555 14.3317 12.8873 14.3039 12.9543C14.2762 13.0213 14.308 13.0981 14.375 13.1258Z" fill="#000088"/>
<path d="M11.3206 14.5356L11.8152 13.0375L11.9224 12.2898L11.6413 12.9909L11.3206 14.5356Z" fill="#000088"/>
<path d="M14.0027 13.7021C14.0602 13.7463 14.1426 13.7354 14.1867 13.6779C14.2308 13.6204 14.22 13.538 14.1625 13.4939C14.1049 13.4497 14.0226 13.4606 13.9784 13.5181C13.9343 13.5756 13.9451 13.658 14.0027 13.7021Z" fill="#000088"/>
<path d="M10.6875 14.2733L11.5529 12.9543L11.85 12.2598L11.3971 12.8643L10.6875 14.2733Z" fill="#000088"/>
<path d="M13.4939 14.1624C13.538 14.22 13.6204 14.2308 13.6779 14.1867C13.7354 14.1425 13.7463 14.0602 13.7021 14.0026C13.658 13.9451 13.5756 13.9343 13.5181 13.9784C13.4606 14.0225 13.4497 14.1049 13.4939 14.1624Z" fill="#000088"/>
<path d="M10.1438 13.8562L11.3212 12.8061L11.7879 12.2121L11.1939 12.6788L10.1438 13.8562Z" fill="#000088"/>
<path d="M12.8833 14.4754C12.911 14.5424 12.9878 14.5742 13.0548 14.5464C13.1217 14.5187 13.1535 14.4419 13.1258 14.375C13.0981 14.308 13.0213 14.2762 12.9543 14.3039C12.8873 14.3317 12.8555 14.4084 12.8833 14.4754Z" fill="#000088"/>
<path d="M9.72668 13.3125L11.1357 12.6029L11.7402 12.15L11.0457 12.4471L9.72668 13.3125Z" fill="#000088"/>
<path d="M12.2125 14.6197C12.222 14.6915 12.2879 14.7421 12.3598 14.7327C12.4316 14.7232 12.4822 14.6573 12.4728 14.5854C12.4633 14.5135 12.3974 14.463 12.3255 14.4724C12.2536 14.4819 12.203 14.5478 12.2125 14.6197Z" fill="#000088"/>
<path d="M9.46444 12.6794L11.0091 12.3587L11.7102 12.0776L10.9625 12.1848L9.46444 12.6794Z" fill="#000088"/>
<path d="M11.5272 14.5854C11.5178 14.6573 11.5684 14.7232 11.6402 14.7327C11.7121 14.7421 11.778 14.6915 11.7875 14.6197C11.797 14.5478 11.7464 14.4819 11.6745 14.4724C11.6026 14.463 11.5367 14.5135 11.5272 14.5854Z" fill="#000088"/>
<path d="M9.375 12L10.95 12.09L11.7 12L10.95 11.91L9.375 12Z" fill="#000088"/>
<path d="M10.8742 14.375C10.8465 14.4419 10.8783 14.5187 10.9452 14.5464C11.0122 14.5742 11.089 14.5424 11.1167 14.4754C11.1445 14.4084 11.1126 14.3317 11.0457 14.3039C10.9787 14.2762 10.9019 14.308 10.8742 14.375Z" fill="#000088"/>
<path d="M9.46444 11.3206L10.9625 11.8152L11.7102 11.9224L11.0091 11.6413L9.46444 11.3206Z" fill="#000088"/>
<path d="M10.2979 14.0027C10.2537 14.0602 10.2646 14.1426 10.3221 14.1867C10.3796 14.2308 10.462 14.22 10.5061 14.1625C10.5503 14.1049 10.5394 14.0226 10.4819 13.9784C10.4244 13.9343 10.342 13.9451 10.2979 14.0027Z" fill="#000088"/>
<path d="M9.72669 10.6875L11.0457 11.5529L11.7402 11.85L11.1357 11.3971L9.72669 10.6875Z" fill="#000088"/>
<path d="M9.83754 13.4939C9.78004 13.538 9.76919 13.6204 9.81332 13.6779C9.85744 13.7354 9.93984 13.7463 9.99734 13.7021C10.0549 13.658 10.0657 13.5756 10.0216 13.5181C9.97744 13.4606 9.89505 13.4497 9.83754 13.4939Z" fill="#000088"/>
<path d="M10.1438 10.1438L11.1939 11.3212L11.7879 11.7879L11.3212 11.1939L10.1438 10.1438Z" fill="#000088"/>
<path d="M9.52459 12.8833C9.45762 12.911 9.42581 12.9878 9.45355 13.0548C9.48129 13.1217 9.55807 13.1535 9.62504 13.1258C9.69201 13.0981 9.72381 13.0213 9.69607 12.9543C9.66833 12.8873 9.59156 12.8555 9.52459 12.8833Z" fill="#000088"/>
<path d="M10.6875 9.72668L11.3971 11.1357L11.85 11.7402L11.5529 11.0457L10.6875 9.72668Z" fill="#000088"/>
<path d="M9.38033 12.2125C9.30846 12.222 9.25787 12.2879 9.26733 12.3598C9.27679 12.4316 9.34272 12.4822 9.41459 12.4728C9.48646 12.4633 9.53705 12.3974 9.52758 12.3255C9.51812 12.2536 9.45219 12.203 9.38033 12.2125Z" fill="#000088"/>
<path d="M11.3206 9.46444L11.6413 11.0091L11.9224 11.7102L11.8152 10.9625L11.3206 9.46444Z" fill="#000088"/>
<path d="M9.41459 11.5272C9.34272 11.5178 9.27679 11.5684 9.26733 11.6402C9.25787 11.7121 9.30846 11.778 9.38033 11.7875C9.45219 11.797 9.51812 11.7464 9.52758 11.6745C9.53705 11.6026 9.48646 11.5367 9.41459 11.5272Z" fill="#000088"/>
<path d="M12 9.375L11.91 10.95L12 11.7L12.09 10.95L12 9.375Z" fill="#000088"/>
<path d="M9.62505 10.8742C9.55808 10.8465 9.4813 10.8783 9.45356 10.9452C9.42582 11.0122 9.45762 11.089 9.52459 11.1167C9.59156 11.1445 9.66834 11.1127 9.69608 11.0457C9.72382 10.9787 9.69202 10.9019 9.62505 10.8742Z" fill="#000088"/>
<path d="M12.6794 9.46444L12.1848 10.9625L12.0776 11.7102L12.3587 11.0091L12.6794 9.46444Z" fill="#000088"/>
<path d="M9.99735 10.2979C9.93984 10.2537 9.85745 10.2646 9.81332 10.3221C9.76919 10.3796 9.78004 10.462 9.83755 10.5061C9.89505 10.5503 9.97745 10.5394 10.0216 10.4819C10.0657 10.4244 10.0549 10.342 9.99735 10.2979Z" fill="#000088"/>
<path d="M13.3125 9.72668L12.4471 11.0457L12.15 11.7402L12.6029 11.1357L13.3125 9.72668Z" fill="#000088"/>
<path d="M10.5061 9.83755C10.462 9.78004 10.3796 9.76919 10.3221 9.81332C10.2646 9.85745 10.2537 9.93984 10.2979 9.99735C10.342 10.0549 10.4244 10.0657 10.4819 10.0216C10.5394 9.97745 10.5503 9.89505 10.5061 9.83755Z" fill="#000088"/>
<path d="M13.8562 10.1438L12.6788 11.1939L12.2121 11.7879L12.8061 11.3212L13.8562 10.1438Z" fill="#000088"/>
<path d="M11.1167 9.52459C11.089 9.45762 11.0122 9.42582 10.9452 9.45356C10.8783 9.4813 10.8465 9.55807 10.8742 9.62504C10.9019 9.69201 10.9787 9.72382 11.0457 9.69608C11.1127 9.66834 11.1445 9.59156 11.1167 9.52459Z" fill="#000088"/>
<path d="M14.2733 10.6875L12.8643 11.3971L12.2598 11.85L12.9543 11.5529L14.2733 10.6875Z" fill="#000088"/>
<path d="M11.7875 9.38033C11.778 9.30846 11.7121 9.25787 11.6402 9.26733C11.5684 9.27679 11.5178 9.34272 11.5272 9.41459C11.5367 9.48646 11.6026 9.53705 11.6745 9.52759C11.7464 9.51812 11.797 9.45219 11.7875 9.38033Z" fill="#000088"/>
<path d="M14.5356 11.3206L12.9909 11.6413L12.2898 11.9224L13.0375 11.8152L14.5356 11.3206Z" fill="#000088"/>
<path d="M12.4728 9.41459C12.4822 9.34272 12.4316 9.27679 12.3598 9.26733C12.2879 9.25787 12.222 9.30846 12.2125 9.38033C12.203 9.45219 12.2536 9.51812 12.3255 9.52758C12.3974 9.53705 12.4633 9.48646 12.4728 9.41459Z" fill="#000088"/>
<path d="M14.625 12L13.05 11.91L12.3 12L13.05 12.09L14.625 12Z" fill="#000088"/>
<path d="M13.1258 9.62504C13.1535 9.55807 13.1217 9.4813 13.0548 9.45356C12.9878 9.42582 12.911 9.45762 12.8833 9.52459C12.8555 9.59156 12.8874 9.66834 12.9543 9.69608C13.0213 9.72382 13.0981 9.69201 13.1258 9.62504Z" fill="#000088"/>
<path d="M14.5356 12.6794L13.0375 12.1848L12.2898 12.0776L12.9909 12.3587L14.5356 12.6794Z" fill="#000088"/>
<path d="M13.7021 9.99735C13.7463 9.93984 13.7354 9.85745 13.6779 9.81332C13.6204 9.76919 13.538 9.78004 13.4939 9.83755C13.4497 9.89506 13.4606 9.97745 13.5181 10.0216C13.5756 10.0657 13.658 10.0549 13.7021 9.99735Z" fill="#000088"/>
<path d="M14.2733 13.3125L12.9543 12.4471L12.2598 12.15L12.8643 12.6029L14.2733 13.3125Z" fill="#000088"/>
<path d="M14.1625 10.5061C14.22 10.462 14.2308 10.3796 14.1867 10.3221C14.1426 10.2646 14.0602 10.2537 14.0027 10.2979C13.9451 10.342 13.9343 10.4244 13.9784 10.4819C14.0226 10.5394 14.1049 10.5503 14.1625 10.5061Z" fill="#000088"/>
<path d="M13.8562 13.8562L12.8061 12.6788L12.2121 12.2121L12.6788 12.8061L13.8562 13.8562Z" fill="#000088"/>
<path d="M14.4754 11.1167C14.5424 11.089 14.5742 11.0122 14.5464 10.9452C14.5187 10.8783 14.4419 10.8465 14.375 10.8742C14.308 10.9019 14.2762 10.9787 14.3039 11.0457C14.3317 11.1127 14.4084 11.1445 14.4754 11.1167Z" fill="#000088"/>
<path d="M13.3125 14.2733L12.6029 12.8643L12.15 12.2598L12.4471 12.9543L13.3125 14.2733Z" fill="#000088"/>
<path d="M14.6197 11.7875C14.6915 11.778 14.7421 11.7121 14.7327 11.6402C14.7232 11.5684 14.6573 11.5178 14.5854 11.5272C14.5135 11.5367 14.463 11.6026 14.4724 11.6745C14.4819 11.7464 14.5478 11.797 14.6197 11.7875Z" fill="#000088"/>
<path d="M12.6794 14.5356L12.3587 12.9909L12.0776 12.2898L12.1848 13.0375L12.6794 14.5356Z" fill="#000088"/>
</svg>
