<svg width="48" height="48" viewBox="0 0 48 48" fill="none" xmlns="http://www.w3.org/2000/svg">
<path d="M41.8917 3H6.10012C4.38979 3 3 4.35567 3 6.02721V41.9693C3 43.6423 4.38979 45 6.10012 45H41.8917C43.605 45 45.0006 43.6423 45.0006 41.9693V6.02721C45.0006 4.35567 43.605 3 41.8917 3Z" fill="#0077B5"/>
<path fill-rule="evenodd" clip-rule="evenodd" d="M12.3433 16.0059C10.3466 16.0059 8.73047 14.3869 8.73047 12.3931C8.73047 10.4007 10.3466 8.78223 12.3433 8.78223C14.3348 8.78223 15.9533 10.4007 15.9533 12.3931C15.9533 14.3869 14.3348 16.0059 12.3433 16.0059ZM38.7894 38.7897H32.564V29.0425C32.564 26.717 32.5214 23.7274 29.3271 23.7274C26.0852 23.7274 25.5888 26.2597 25.5888 28.8742V38.7897H19.3638V18.746H25.3397V21.4845H25.4226C26.2538 19.9089 28.2859 18.2473 31.3166 18.2473C37.6247 18.2473 38.7894 22.3986 38.7894 27.7953V38.7897ZM15.4568 38.7895H9.22713V18.7459H15.4568V38.7895Z" fill="white"/>
</svg>
