<svg width="119" height="40" fill="none" xmlns="http://www.w3.org/2000/svg"><g clip-path="url(#a)" fill="#fff"><path fill-rule="evenodd" clip-rule="evenodd" d="M63.32 19.023h5.99V14.27h3.17v12.19h-3.17V21.71h-5.99v4.752h-3.058v-12.19h3.057v4.752h.002Zm21.245-4.752h-4.89c-1.356 0-2.18.255-2.804.879-.622.62-.86 1.408-.86 2.798v4.842c0 1.39.237 2.175.86 2.797.62.623 1.446.88 2.803.88h4.891c1.356 0 2.18-.257 2.804-.88.625-.62.86-1.407.86-2.797v-4.842c0-1.39-.237-2.175-.86-2.8-.625-.622-1.448-.877-2.803-.877Zm.604 8.59c0 .713-.237.913-1.099.913h-3.9c-.86 0-1.1-.2-1.1-.913v-4.99c0-.713.24-.913 1.1-.913h3.9c.882 0 1.1.18 1.1.912v4.991Zm10.64-3.712h4.376c1.355 0 2.198.256 2.804.878.549.55.86 1.444.86 2.413v.732c0 .97-.312 1.845-.86 2.413-.606.622-1.431.879-2.804.879h-8.35v-2.688h7.838c.86 0 1.1-.2 1.1-.912v-.365c0-.714-.24-.914-1.1-.914h-4.375c-1.359 0-2.2-.259-2.804-.879-.549-.55-.861-1.442-.861-2.412v-.732c0-.97.31-1.846.861-2.412.606-.624 1.428-.879 2.803-.879h7.916v2.686h-7.404c-.86 0-1.099.2-1.099.913v.365c0 .715.24.915 1.1.915v-.001Zm9.979-2.192V14.27h12.454v2.688h-4.688v9.503h-3.06v-9.503h-4.707.001Z"/><path d="M52.946 14.175h-4.892c-1.355 0-2.18.255-2.803.879-.622.62-.86 1.407-.86 2.795v8.61h3.058v-8.684c0-.712.24-.912 1.1-.912h3.902c.88 0 1.098.182 1.098.912v8.685h3.06v-8.61c0-1.39-.238-2.175-.86-2.795-.622-.625-1.446-.881-2.803-.881v.001ZM34.01 8.573 20.069.538a4.085 4.085 0 0 0-4.058 0 4.057 4.057 0 0 0-2.026 3.503V5.09l-.909-.525a4.085 4.085 0 0 0-4.057 0 4.058 4.058 0 0 0-2.027 3.51v1.048l-.908-.524a4.085 4.085 0 0 0-4.056 0A4.058 4.058 0 0 0 0 12.104v25.17a1.907 1.907 0 0 0 3.087 1.494L10 33.325l10.663 6.143a1.936 1.936 0 0 0 1.907 0c.587-.34.954-.97.954-1.65V22.676a6.995 6.995 0 0 0-3.497-6.044l-3.496-2.015V4.046A1.513 1.513 0 0 1 18.8 2.738l13.941 8.031a4.452 4.452 0 0 1 2.225 3.845v18.861c0 .538-.29 1.038-.756 1.307l-3.694 2.128V18.643A6.994 6.994 0 0 0 27.02 12.6l-8.582-4.944v2.93l7.31 4.212a4.448 4.448 0 0 1 2.226 3.845v19.365c0 .675.365 1.308.953 1.648a1.936 1.936 0 0 0 1.908 0l4.649-2.678a4.058 4.058 0 0 0 2.027-3.507v-18.86a7.01 7.01 0 0 0-3.501-6.038ZM18.75 18.828a4.448 4.448 0 0 1 2.225 3.846v14.05l-8.828-5.086 2.834-2.228a4.018 4.018 0 0 0 1.545-3.177V17.55l2.225 1.279-.001-.001Zm-4.766-2.747v10.147c0 .466-.211.9-.576 1.185L2.54 35.963V12.1a1.512 1.512 0 0 1 2.268-1.306l2.183 1.256v17.988l2.542-2V8.073a1.511 1.511 0 0 1 2.268-1.307l2.182 1.255v5.128l-2.54-1.465v2.931l2.542 1.466h-.002Z"/></g><defs><clipPath id="a"><path fill="#fff" d="M0 0h118.75v40H0z"/></clipPath></defs></svg>