<svg width="119" height="40" viewBox="0 0 119 40" fill="none" xmlns="http://www.w3.org/2000/svg">
<g clip-path="url(#clip0_437_15157)">
<path fill-rule="evenodd" clip-rule="evenodd" d="M63.3205 19.0225H69.3105V14.2713H72.4792V26.4613H69.3105V21.7088H63.3205V26.4613H60.2617V14.2713H63.3192V19.0225H63.3205ZM84.5655 14.2713H79.6742C78.3192 14.2713 77.4942 14.5263 76.8705 15.15C76.2492 15.77 76.0105 16.5575 76.0105 17.9475V22.79C76.0105 24.18 76.248 24.965 76.8705 25.5875C77.4917 26.21 78.3167 26.4663 79.6742 26.4663H84.5655C85.9205 26.4663 86.7455 26.21 87.3692 25.5875C87.9942 24.9675 88.2292 24.18 88.2292 22.79V17.9475C88.2292 16.5575 87.9917 15.7725 87.3692 15.1488C86.7442 14.5263 85.9205 14.2713 84.5655 14.2713ZM85.1692 22.8613C85.1692 23.5738 84.9317 23.7738 84.0705 23.7738H80.1692C79.3092 23.7738 79.0692 23.5738 79.0692 22.8613V17.8713C79.0692 17.1575 79.3092 16.9575 80.1692 16.9575H84.0705C84.9517 16.9575 85.1705 17.1388 85.1705 17.87V22.8613H85.1692ZM95.8092 19.1488H100.185C101.54 19.1488 102.383 19.405 102.989 20.0275C103.538 20.5775 103.849 21.4713 103.849 22.44V23.1725C103.849 24.1425 103.537 25.0175 102.989 25.585C102.383 26.2075 101.558 26.4638 100.185 26.4638H91.8342V23.7763H99.673C100.533 23.7763 100.773 23.5763 100.773 22.8638V22.4988C100.773 21.785 100.533 21.585 99.673 21.585H95.298C93.9392 21.585 93.098 21.3263 92.4942 20.7063C91.9455 20.1563 91.633 19.2638 91.633 18.2938V17.5625C91.633 16.5925 91.943 15.7163 92.4942 15.15C93.1005 14.5263 93.9217 14.2713 95.2967 14.2713H103.213V16.9575H95.8092C94.9492 16.9575 94.7105 17.1575 94.7105 17.87V18.235C94.7105 18.95 94.9492 19.15 95.8105 19.15L95.8092 19.1488ZM105.788 16.9575V14.27H118.242V16.9575H113.554V26.4613H110.494V16.9575H105.787H105.788Z" fill="white"/>
<path d="M52.9456 14.175H48.0544C46.6994 14.175 45.8744 14.43 45.2506 15.0537C44.6294 15.6737 44.3906 16.4612 44.3906 17.8487V26.4587H47.4494V17.775C47.4494 17.0625 47.6881 16.8625 48.5494 16.8625H52.4506C53.3306 16.8625 53.5494 17.045 53.5494 17.775V26.46H56.6094V17.85C56.6094 16.46 56.3706 15.675 55.7481 15.055C55.1269 14.43 54.3031 14.1737 52.9456 14.1737V14.175Z" fill="white"/>
<path d="M34.01 8.57255L20.0688 0.537552C19.451 0.184103 18.7517 -0.00183105 18.04 -0.00183105C17.3283 -0.00183105 16.629 0.184103 16.0112 0.537552C15.3963 0.89303 14.8855 1.40376 14.5299 2.01864C14.1743 2.63352 13.9864 3.331 13.985 4.0413V5.09005L13.0763 4.56505C12.4585 4.2116 11.7592 4.02567 11.0475 4.02567C10.3358 4.02567 9.63647 4.2116 9.01875 4.56505C8.40297 4.92116 7.89163 5.43289 7.53599 6.04894C7.18036 6.665 6.99293 7.36372 6.9925 8.07505V9.12255L6.08375 8.5988C5.46618 8.24558 4.76707 8.05978 4.05562 8.05978C3.34418 8.05978 2.64507 8.24558 2.0275 8.5988C1.41222 8.95432 0.901098 9.4652 0.545282 10.0803C0.189465 10.6954 0.00143275 11.3932 0 12.1038L0 37.2738C0.000930513 37.6314 0.102379 37.9816 0.292769 38.2843C0.483159 38.5871 0.754821 38.8302 1.07675 38.9859C1.39868 39.1417 1.75792 39.2038 2.11345 39.1652C2.46899 39.1266 2.80651 38.9888 3.0875 38.7676L10 33.3251L20.6625 39.4676C20.9534 39.6323 21.282 39.7189 21.6162 39.7189C21.9505 39.7189 22.2791 39.6323 22.57 39.4676C23.1575 39.1276 23.5238 38.4976 23.5238 37.8188V22.6751C23.5215 21.4497 23.1974 20.2464 22.5838 19.1857C21.9702 18.125 21.0887 17.2441 20.0275 16.6313L16.5312 14.6163V4.04505C16.5319 3.77986 16.6022 3.51949 16.7352 3.29007C16.8682 3.06064 17.0592 2.87022 17.2891 2.7379C17.5189 2.60557 17.7795 2.536 18.0447 2.53616C18.3098 2.53632 18.5703 2.6062 18.8 2.7388L32.7412 10.7701C33.4163 11.1601 33.9771 11.7205 34.3675 12.3952C34.758 13.07 34.9645 13.8355 34.9662 14.6151V33.4763C34.9662 34.0138 34.6763 34.5138 34.21 34.7826L30.5163 36.9113V18.6426C30.5138 17.4174 30.1896 16.2143 29.576 15.1539C28.9624 14.0934 28.081 13.2127 27.02 12.6001L18.4375 7.6563V10.5851L25.7488 14.7976C26.424 15.1873 26.985 15.7476 27.3755 16.4225C27.766 17.0973 27.9723 17.8629 27.9737 18.6426V38.0076C27.9737 38.6826 28.3388 39.3163 28.9275 39.6563C29.2184 39.821 29.547 39.9075 29.8813 39.9075C30.2155 39.9075 30.5441 39.821 30.835 39.6563L35.4837 36.9776C36.7337 36.2563 37.5112 34.9151 37.5112 33.4713V14.6101C37.5057 13.3856 37.1795 12.1839 36.5652 11.1247C35.951 10.0654 35.07 9.18554 34.01 8.57255ZM18.75 18.8276C19.4255 19.2174 19.9866 19.7779 20.3771 20.453C20.7676 21.1281 20.9738 21.8939 20.975 22.6738V36.7238L12.1475 31.6376L14.9812 29.4101C15.4639 29.0332 15.854 28.551 16.1218 28.0003C16.3896 27.4495 16.5279 26.8449 16.5262 26.2326V17.5501L18.7513 18.8288L18.75 18.8276ZM13.9838 16.0813V26.2276C13.9838 26.6938 13.7725 27.1276 13.4075 27.4126L2.54125 35.9626V12.1001C2.54163 11.8349 2.61177 11.5745 2.74462 11.345C2.87748 11.1156 3.06837 10.9251 3.29813 10.7927C3.52789 10.6604 3.78843 10.5908 4.05358 10.591C4.31874 10.5912 4.57918 10.6611 4.80875 10.7938L6.9925 12.0501V30.0376L9.53375 28.0376V8.07255C9.534 7.80721 9.60411 7.54661 9.73703 7.31697C9.86995 7.08732 10.061 6.89671 10.2909 6.76431C10.5209 6.63192 10.7816 6.5624 11.047 6.56275C11.3123 6.5631 11.5729 6.6333 11.8025 6.7663L13.9838 8.0213V13.1488L11.4437 11.6838V14.6151L13.9862 16.0813H13.9838Z" fill="white"/>
</g>
<defs>
<clipPath id="clip0_437_15157">
<rect width="118.75" height="40" fill="white"/>
</clipPath>
</defs>
</svg>
