<svg width="142" height="48" viewBox="0 0 142 48" fill="none" xmlns="http://www.w3.org/2000/svg">
<g clip-path="url(#clip0)">
<path fill-rule="evenodd" clip-rule="evenodd" d="M75.985 22.8273H83.1731V17.1251H86.9756V31.7529H83.1731V26.0506H75.985V31.7529H72.3164V17.1251H75.985V22.8273ZM101.48 17.1251H95.6099C93.9842 17.1251 92.9947 17.4319 92.2458 18.1792C91.4999 18.9235 91.2137 19.8684 91.2137 21.5362V27.3478C91.2137 29.0157 91.4999 29.9575 92.2458 30.7048C92.9917 31.4522 93.9811 31.759 95.6099 31.759H101.48C103.105 31.759 104.095 31.4522 104.844 30.7048C105.593 29.9605 105.876 29.0157 105.876 27.3478V21.5362C105.876 19.8684 105.59 18.9266 104.844 18.1792C104.095 17.4319 103.105 17.1251 101.48 17.1251ZM102.204 27.4329C102.204 28.2896 101.918 28.5296 100.886 28.5296H96.2036C95.1715 28.5296 94.8853 28.2896 94.8853 27.4329V21.4451C94.8853 20.5884 95.1715 20.3484 96.2036 20.3484H100.886C101.942 20.3484 102.204 20.5671 102.204 21.4451V27.4329ZM114.972 22.9792H120.224C121.85 22.9792 122.861 23.2861 123.588 24.0334C124.246 24.6927 124.62 25.7651 124.62 26.9286V27.8066C124.62 28.9701 124.246 30.0213 123.588 30.7018C122.861 31.4491 121.871 31.756 120.224 31.756H110.202V28.5327H119.609C120.641 28.5327 120.927 28.2927 120.927 27.4359V26.9985C120.927 26.1418 120.641 25.9018 119.609 25.9018H114.357C112.729 25.9018 111.718 25.5919 110.993 24.8476C110.336 24.1884 109.961 23.1159 109.961 21.9524V21.0744C109.961 19.9109 110.333 18.8597 110.993 18.1792C111.721 17.4319 112.707 17.1251 114.357 17.1251H123.856V20.3484H114.972C113.94 20.3484 113.654 20.5884 113.654 21.4451V21.8825C113.654 22.7392 113.94 22.9792 114.972 22.9792ZM126.946 20.3484V17.1251H141.891V20.3484H136.265V31.7529H132.594V20.3484H126.946Z" fill="#21324B"/>
<path d="M63.5321 17.0096H57.6624C56.0366 17.0096 55.0471 17.3164 54.2982 18.0638C53.5523 18.8081 53.2661 19.7529 53.2661 21.4177V23.6385V24.322V31.7499H56.9378V24.3251V23.6415V21.3327C56.9378 20.4759 57.224 20.2359 58.256 20.2359H62.9385C63.9949 20.2359 64.2567 20.4547 64.2567 21.3327V23.6415V24.3251V31.7529H67.9284V24.3251V23.6415V21.4208C67.9284 19.7529 67.6422 18.8111 66.8963 18.0668C66.1504 17.3164 65.1609 17.0096 63.5321 17.0096Z" fill="#0052CD"/>
<g clip-path="url(#clip1)">
<path d="M40.8114 10.2866L24.0819 0.647089C22.581 -0.215696 20.7178 -0.215696 19.2138 0.647089C17.7129 1.51291 16.7813 3.12304 16.7813 4.85165V6.10937L15.6913 5.48051C14.1904 4.61772 12.3272 4.61772 10.8232 5.48051C9.32224 6.34633 8.39063 7.95646 8.39063 9.6881V10.9458L7.3007 10.317C5.79976 9.45418 3.93653 9.45418 2.43255 10.317C0.931612 11.1828 0 12.7929 0 14.5246V44.7281C0 45.597 0.505383 46.4051 1.29086 46.7818C2.0733 47.1615 3.02318 47.0582 3.70515 46.5205L12.0014 39.9919L24.7944 47.362C25.1475 47.5656 25.5433 47.6658 25.9391 47.6658C26.3349 47.6658 26.7307 47.5625 27.0838 47.362C27.7901 46.9549 28.2285 46.1985 28.2285 45.3843V27.2081C28.2285 24.2248 26.6211 21.4481 24.0332 19.9565L19.8379 17.5382V4.85468C19.8379 4.21063 20.185 3.60911 20.7452 3.28709C21.3054 2.96506 21.9995 2.96506 22.5597 3.28709L39.2892 12.9235C40.9363 13.8714 41.9592 15.6425 41.9592 17.5382V40.1711C41.9592 40.8152 41.6121 41.4167 41.052 41.7387L36.6192 44.2937V22.3716C36.6192 19.3884 35.0117 16.6116 32.4239 15.12L22.1243 9.18684V12.7018L30.8986 17.757C32.5456 18.7048 33.5686 20.4729 33.5686 22.3716V45.6091C33.5686 46.4203 34.007 47.1797 34.7133 47.5868C35.0665 47.7904 35.4623 47.8906 35.8581 47.8906C36.2538 47.8906 36.6496 47.7873 37.0028 47.5868L42.5803 44.3727C44.0812 43.5068 45.0128 41.8967 45.0128 40.1651V17.5322C45.0068 14.558 43.3993 11.7782 40.8114 10.2866ZM22.5019 22.5934C24.1489 23.5413 25.1719 25.3094 25.1719 27.2081V44.0689L14.577 37.9656L17.9777 35.2921C19.156 34.3656 19.8318 32.9772 19.8318 31.4795V21.0592L22.5019 22.5934ZM16.7813 19.2972V31.4734C16.7813 32.0324 16.5286 32.5519 16.0902 32.8952L3.05058 43.1544V14.5215C3.05058 13.8775 3.39766 13.2759 3.95784 12.9539C4.51803 12.6319 5.21217 12.6319 5.77236 12.9539L8.39063 14.4608V36.0456L11.4412 33.6456V9.6881C11.4412 9.04405 11.7883 8.44253 12.3485 8.12051C12.9087 7.79848 13.6028 7.79848 14.163 8.12051L16.7813 9.62734V15.7792L13.7307 14.0203V17.5382L16.7813 19.2972Z" fill="#0052CD"/>
</g>
</g>
<defs>
<clipPath id="clip0">
<rect width="141.873" height="48" fill="white"/>
</clipPath>
<clipPath id="clip1">
<rect width="45.0128" height="47.8906" fill="white"/>
</clipPath>
</defs>
</svg>
