<svg width="32" height="24" viewBox="0 0 32 24" fill="none" xmlns="http://www.w3.org/2000/svg">
<path d="M0 2C0 0.89543 0.895431 0 2 0H30C31.1046 0 32 0.895431 32 2V22C32 23.1046 31.1046 24 30 24H2C0.895431 24 0 23.1046 0 22V2Z" fill="#FFF6EA"/>
<path d="M18.7557 7.04443H13.2385V16.9589H18.7557V7.04443Z" fill="#FF5F00"/>
<path d="M13.5936 12.0016C13.5927 11.0468 13.8091 10.1042 14.2263 9.2454C14.6436 8.38655 15.2507 7.63388 16.0019 7.04437C15.0717 6.31324 13.9546 5.85856 12.7782 5.7323C11.6019 5.60604 10.4137 5.81329 9.34962 6.33037C8.28548 6.84745 7.3883 7.6535 6.76061 8.65637C6.13292 9.65925 5.80005 10.8185 5.80005 12.0016C5.80005 13.1847 6.13292 14.344 6.76061 15.3468C7.3883 16.3497 8.28548 17.1558 9.34962 17.6728C10.4137 18.1899 11.6019 18.3972 12.7782 18.2709C13.9546 18.1446 15.0717 17.69 16.0019 16.9588C15.2507 16.3693 14.6436 15.6167 14.2264 14.7578C13.8091 13.899 13.5927 12.9564 13.5936 12.0016Z" fill="#EB001B"/>
<path d="M26.2 12.0016C26.2001 13.1847 25.8673 14.3439 25.2396 15.3468C24.6119 16.3497 23.7148 17.1557 22.6507 17.6728C21.5866 18.1899 20.3984 18.3972 19.2221 18.2709C18.0458 18.1447 16.9287 17.69 15.9985 16.9588C16.749 16.3687 17.3557 15.6159 17.7729 14.7572C18.19 13.8985 18.4068 12.9563 18.4068 12.0016C18.4068 11.0469 18.19 10.1047 17.7729 9.24598C17.3557 8.38727 16.749 7.63448 15.9985 7.04437C16.9287 6.31324 18.0458 5.85856 19.2221 5.7323C20.3984 5.60604 21.5866 5.8133 22.6507 6.33039C23.7148 6.84747 24.6119 7.65352 25.2396 8.6564C25.8673 9.65927 26.2001 10.8185 26.2 12.0016Z" fill="#F79E1B"/>
</svg>
