<svg width="72" height="72" viewBox="0 0 72 72" fill="none" xmlns="http://www.w3.org/2000/svg">
<rect width="72" height="72" rx="10" fill="#E1ECF9"/>
<path fill-rule="evenodd" clip-rule="evenodd" d="M20 26.9945C20 25.455 21.1647 23.7311 23.7796 22.3048C26.3377 20.9094 29.9743 20 34.0732 20C38.1721 20 41.8087 20.9094 44.3668 22.3048C46.9817 23.7311 48.1464 25.455 48.1464 26.9945C48.1464 28.5339 46.9817 30.2578 44.3668 31.6841C41.8087 33.0795 38.1721 33.989 34.0732 33.989C29.9743 33.989 26.3377 33.0795 23.7796 31.6841C21.1647 30.2578 20 28.5339 20 26.9945ZM20 32.7286C20.7019 33.3237 21.4949 33.8552 22.343 34.3178C25.4212 35.9968 29.5713 36.989 34.0732 36.989C38.5751 36.989 42.7252 35.9968 45.8034 34.3178C46.6515 33.8552 47.4445 33.3237 48.1464 32.7286V35.4889C48.1464 37.0284 46.9817 38.7523 44.3668 40.1786C41.8087 41.574 38.1721 42.4834 34.0732 42.4834C29.9743 42.4834 26.3377 41.574 23.7796 40.1786C21.1647 38.7523 20 37.0284 20 35.4889V32.7286ZM45.8034 42.8123C46.6515 42.3497 47.4445 41.8181 48.1464 41.2231V43.9834C48.1464 44.016 48.1459 44.0486 48.1448 44.0812C49.2967 44.6645 50.1342 45.7785 50.3358 47.1015C50.8518 46.1494 51.1464 45.1063 51.1464 43.9834V35.4889V26.9945C51.1464 23.8426 48.8249 21.3192 45.8034 19.6711C42.7252 17.9921 38.5751 17 34.0732 17C29.5713 17 25.4212 17.9921 22.343 19.6711C19.3215 21.3192 17 23.8426 17 26.9945V35.4889V43.9834C17 47.1353 19.3215 49.6587 22.343 51.3068C25.4212 52.9858 29.5713 53.9779 34.0732 53.9779C38.2715 53.9779 42.1637 53.1151 45.1661 51.6371C44.0449 51.3115 43.1229 50.5174 42.6262 49.4808C40.2676 50.409 37.315 50.9779 34.0732 50.9779C29.9743 50.9779 26.3377 50.0685 23.7796 48.6731C21.1647 47.2468 20 45.5229 20 43.9834V41.2231C20.7019 41.8181 21.4949 42.3497 22.343 42.8123C25.4212 44.4913 29.5713 45.4834 34.0732 45.4834C38.5751 45.4834 42.7252 44.4913 45.8034 42.8123Z" fill="#0052CD"/>
<path fill-rule="evenodd" clip-rule="evenodd" d="M43.8441 44.5372C43.5817 44.7618 43.3407 45.0007 43.1191 45.2615L41.0687 45.774C40.8783 45.8241 40.7182 45.9498 40.6362 46.1301C40.2083 47.0352 39.9549 48.0123 39.8693 48.9923C39.8501 49.1894 39.926 49.3783 40.0658 49.5169L41.5853 50.9859C41.6467 51.3226 41.736 51.65 41.851 51.9757L41.2717 54.0117C41.2133 54.1983 41.2492 54.4102 41.3592 54.5661C41.9376 55.3953 42.6504 56.1004 43.4605 56.663C43.6245 56.7744 43.8274 56.8034 44.0178 56.7533L46.0536 56.1695C46.3775 56.2816 46.7078 56.3701 47.0443 56.435L48.5155 57.9585C48.6454 58.1028 48.8377 58.1712 49.0354 58.1568C50.0439 58.0731 51.0101 57.801 51.9058 57.3836C52.0889 57.2979 52.216 57.1381 52.2665 56.9494L52.7829 54.8965C53.0453 54.6719 53.2863 54.433 53.5079 54.1722L55.5583 53.6597C55.7487 53.6096 55.9088 53.4839 55.9908 53.3036C56.4188 52.3985 56.6722 51.4214 56.7578 50.4414C56.7769 50.2443 56.7011 50.0554 56.5612 49.9168L55.0418 48.4478C54.9803 48.1111 54.891 47.7837 54.776 47.458L55.3553 45.422C55.4137 45.2354 55.3778 45.0235 55.2679 44.8676C54.6894 44.0384 53.9766 43.3333 53.1666 42.7707C53.0026 42.6593 52.7997 42.6303 52.6092 42.6804L50.5734 43.2642C50.2495 43.1521 49.9193 43.0636 49.5827 42.9987L48.1115 41.4752C47.9817 41.3309 47.7893 41.2625 47.5916 41.2769C46.5831 41.3606 45.6169 41.6327 44.7213 42.0501C44.5381 42.1359 44.4111 42.2956 44.3605 42.4844L43.8441 44.5372ZM51.3978 49.8135C51.3978 51.4704 50.0546 52.8135 48.3978 52.8135C46.7409 52.8135 45.3978 51.4704 45.3978 49.8135C45.3978 48.1567 46.7409 46.8135 48.3978 46.8135C50.0546 46.8135 51.3978 48.1567 51.3978 49.8135Z" fill="#0052CD"/>
<path d="M43.1191 45.2615L43.3616 46.2317C43.5643 46.181 43.746 46.0682 43.8813 45.9089L43.1191 45.2615ZM43.8441 44.5372L44.4944 45.2969C44.6518 45.1622 44.7634 44.982 44.8139 44.7811L43.8441 44.5372ZM41.0687 45.774L40.8262 44.8038L40.8142 44.807L41.0687 45.774ZM40.6362 46.1301L41.5402 46.5575C41.5423 46.5531 41.5444 46.5486 41.5464 46.5442L40.6362 46.1301ZM39.8693 48.9923L40.8646 49.0888L40.8655 49.0793L39.8693 48.9923ZM40.0658 49.5169L39.3618 50.2272L39.3707 50.2358L40.0658 49.5169ZM41.5853 50.9859L42.569 50.8063C42.5315 50.6008 42.4305 50.4122 42.2803 50.267L41.5853 50.9859ZM41.851 51.9757L42.8128 52.2494C42.8695 52.0502 42.8629 51.8383 42.794 51.6429L41.851 51.9757ZM41.2717 54.0117L42.226 54.3105C42.2287 54.3022 42.2312 54.2938 42.2336 54.2854L41.2717 54.0117ZM41.3592 54.5661L42.1793 53.994L42.1764 53.9898L41.3592 54.5661ZM43.4605 56.663L42.89 57.4844L42.8987 57.4903L43.4605 56.663ZM44.0178 56.7533L44.2723 57.7204C44.2794 57.7185 44.2864 57.7166 44.2934 57.7146L44.0178 56.7533ZM46.0536 56.1695L46.3806 55.2245C46.1861 55.1572 45.9757 55.1515 45.7779 55.2083L46.0536 56.1695ZM47.0443 56.435L47.7637 55.7403C47.6208 55.5923 47.4357 55.492 47.2337 55.4531L47.0443 56.435ZM48.5155 57.9585L49.2589 57.2897C49.251 57.2809 49.243 57.2723 49.2348 57.2639L48.5155 57.9585ZM49.0354 58.1568L49.1083 59.1542L49.1182 59.1534L49.0354 58.1568ZM51.9058 57.3836L52.3282 58.29L52.33 58.2892L51.9058 57.3836ZM52.2665 56.9494L53.2325 57.2082C53.2338 57.2032 53.2351 57.1983 53.2363 57.1933L52.2665 56.9494ZM52.7829 54.8965L52.1326 54.1368C51.9753 54.2715 51.8636 54.4517 51.8131 54.6526L52.7829 54.8965ZM53.5079 54.1722L53.2654 53.202C53.0627 53.2527 52.881 53.3655 52.7458 53.5248L53.5079 54.1722ZM55.5583 53.6597L55.8008 54.6299L55.8128 54.6267L55.5583 53.6597ZM55.9908 53.3036L55.0868 52.8762C55.0847 52.8806 55.0826 52.8851 55.0806 52.8895L55.9908 53.3036ZM56.7578 50.4414L55.7624 50.3449L55.7616 50.3544L56.7578 50.4414ZM56.5612 49.9168L57.2652 49.2065L57.2563 49.1979L56.5612 49.9168ZM55.0418 48.4478L54.058 48.6274C54.0955 48.8329 54.1965 49.0215 54.3467 49.1667L55.0418 48.4478ZM54.776 47.458L53.8142 47.1843C53.7575 47.3835 53.7641 47.5954 53.833 47.7908L54.776 47.458ZM55.3553 45.422L54.401 45.1232C54.3984 45.1315 54.3958 45.1399 54.3935 45.1483L55.3553 45.422ZM55.2679 44.8676L54.4477 45.4397L54.4507 45.4439L55.2679 44.8676ZM53.1666 42.7707L53.737 41.9493L53.7283 41.9434L53.1666 42.7707ZM52.6092 42.6804L52.3547 41.7133C52.3477 41.7152 52.3406 41.7171 52.3336 41.7191L52.6092 42.6804ZM50.5734 43.2642L50.2465 44.2092C50.4409 44.2765 50.6513 44.2822 50.8491 44.2255L50.5734 43.2642ZM49.5827 42.9987L48.8633 43.6934C49.0062 43.8414 49.1913 43.9417 49.3933 43.9806L49.5827 42.9987ZM48.1115 41.4752L47.3681 42.144C47.376 42.1528 47.384 42.1614 47.3922 42.1699L48.1115 41.4752ZM47.5916 41.2769L47.5187 40.2795L47.5088 40.2803L47.5916 41.2769ZM44.7213 42.0501L44.2988 41.1437L44.297 41.1445L44.7213 42.0501ZM44.3605 42.4844L43.3946 42.2255C43.3932 42.2305 43.3919 42.2354 43.3907 42.2404L44.3605 42.4844ZM43.8813 45.9089C44.0658 45.6918 44.2687 45.4901 44.4944 45.2969L43.1939 43.7775C42.8947 44.0336 42.6157 44.3096 42.357 44.6141L43.8813 45.9089ZM41.3112 46.7442L43.3616 46.2317L42.8766 44.2914L40.8262 44.8039L41.3112 46.7442ZM41.5464 46.5442C41.4932 46.6611 41.3971 46.7217 41.3232 46.7411L40.8142 44.807C40.3595 44.9266 39.9432 45.2385 39.7259 45.716L41.5464 46.5442ZM40.8655 49.0793C40.9413 48.211 41.1656 47.3499 41.5402 46.5575L39.7321 45.7027C39.2509 46.7205 38.9684 47.8136 38.8731 48.9053L40.8655 49.0793ZM40.7697 48.8066C40.824 48.8604 40.877 48.9609 40.8646 49.0888L38.8739 48.8958C38.8233 49.418 39.0279 49.8962 39.3618 50.2271L40.7697 48.8066ZM42.2803 50.267L40.7609 48.798L39.3707 50.2358L40.8902 51.7049L42.2803 50.267ZM42.794 51.6429C42.6951 51.3628 42.6202 51.0867 42.569 50.8063L40.6015 51.1655C40.6733 51.5586 40.7769 51.9372 40.908 52.3085L42.794 51.6429ZM42.2336 54.2854L42.8128 52.2494L40.8892 51.7021L40.3099 53.7381L42.2336 54.2854ZM42.1764 53.9898C42.2136 54.0426 42.2321 54.0949 42.2396 54.1415C42.2472 54.1885 42.2462 54.2462 42.226 54.3105L40.3174 53.7129C40.1641 54.2026 40.2562 54.7373 40.542 55.1425L42.1764 53.9898ZM44.0309 55.8417C43.317 55.3458 42.6891 54.7247 42.1793 53.994L40.539 55.1382C41.1861 56.0659 41.9839 56.855 42.89 57.4843L44.0309 55.8417ZM43.7633 55.7863C43.8325 55.768 43.9307 55.7735 44.0222 55.8357L42.8987 57.4903C43.3182 57.7752 43.8222 57.8389 44.2723 57.7204L43.7633 55.7863ZM45.7779 55.2083L43.7421 55.7921L44.2934 57.7146L46.3292 57.1308L45.7779 55.2083ZM47.2337 55.4531C46.9438 55.3972 46.6595 55.321 46.3806 55.2245L45.7266 57.1145C46.0955 57.2422 46.4717 57.343 46.855 57.4169L47.2337 55.4531ZM49.2348 57.2639L47.7637 55.7403L46.325 57.1296L47.7961 58.6531L49.2348 57.2639ZM48.9626 57.1595C49.0362 57.1541 49.1585 57.1781 49.2589 57.2897L47.7721 58.6273C48.1322 59.0276 48.6393 59.1884 49.1083 59.1541L48.9626 57.1595ZM51.4834 56.4772C50.6866 56.8485 49.8349 57.087 48.9527 57.1602L49.1182 59.1534C50.2529 59.0591 51.3337 58.7535 52.3282 58.29L51.4834 56.4772ZM51.3006 56.6905C51.3227 56.6083 51.3848 56.5234 51.4815 56.4781L52.33 58.2892C52.793 58.0723 53.1093 57.6679 53.2325 57.2082L51.3006 56.6905ZM51.8131 54.6526L51.2967 56.7054L53.2363 57.1933L53.7527 55.1404L51.8131 54.6526ZM52.7458 53.5248C52.5613 53.742 52.3583 53.9436 52.1326 54.1368L53.4331 55.6562C53.7323 55.4001 54.0114 55.1241 54.2701 54.8196L52.7458 53.5248ZM55.3158 52.6895L53.2654 53.202L53.7504 55.1423L55.8008 54.6298L55.3158 52.6895ZM55.0806 52.8895C55.1338 52.7726 55.2299 52.7121 55.3038 52.6926L55.8128 54.6267C56.2675 54.5071 56.6838 54.1953 56.9011 53.7177L55.0806 52.8895ZM55.7616 50.3544C55.6857 51.2227 55.4614 52.0838 55.0868 52.8762L56.8949 53.7311C57.3761 52.7132 57.6586 51.6201 57.754 50.5284L55.7616 50.3544ZM55.8573 50.6271C55.803 50.5733 55.75 50.4728 55.7624 50.3449L57.7531 50.5379C57.8037 50.0157 57.5991 49.5376 57.2652 49.2066L55.8573 50.6271ZM54.3467 49.1667L55.8661 50.6358L57.2563 49.1979L55.7368 47.7288L54.3467 49.1667ZM53.833 47.7908C53.9319 48.0709 54.0068 48.347 54.058 48.6274L56.0255 48.2682C55.9537 47.8751 55.8501 47.4965 55.719 47.1252L53.833 47.7908ZM54.3935 45.1483L53.8142 47.1843L55.7379 47.7316L56.3171 45.6956L54.3935 45.1483ZM54.4507 45.4439C54.4134 45.3911 54.3949 45.3388 54.3874 45.2922C54.3799 45.2452 54.3808 45.1875 54.401 45.1232L56.3096 45.7208C56.4629 45.2311 56.3708 44.6964 56.0851 44.2912L54.4507 45.4439ZM52.5961 43.5921C53.31 44.0879 53.9379 44.709 54.4477 45.4397L56.088 44.2955C55.4409 43.3678 54.6431 42.5787 53.737 41.9494L52.5961 43.5921ZM52.8638 43.6474C52.7945 43.6657 52.6963 43.6602 52.6048 43.598L53.7283 41.9434C53.3088 41.6585 52.8048 41.5948 52.3547 41.7133L52.8638 43.6474ZM50.8491 44.2255L52.8849 43.6416L52.3336 41.7191L50.2978 42.3029L50.8491 44.2255ZM49.3933 43.9806C49.6832 44.0365 49.9675 44.1127 50.2465 44.2092L50.9004 42.3192C50.5315 42.1915 50.1553 42.0907 49.772 42.0168L49.3933 43.9806ZM47.3922 42.1699L48.8633 43.6934L50.302 42.3041L48.8309 40.7806L47.3922 42.1699ZM47.6645 42.2742C47.5909 42.2796 47.4685 42.2556 47.3681 42.144L48.8549 40.8064C48.4948 40.4061 47.9877 40.2453 47.5187 40.2796L47.6645 42.2742ZM45.1437 42.9565C45.9404 42.5852 46.7921 42.3467 47.6743 42.2735L47.5088 40.2803C46.3741 40.3746 45.2933 40.6802 44.2988 41.1437L45.1437 42.9565ZM45.3264 42.7432C45.3044 42.8255 45.2423 42.9103 45.1455 42.9556L44.297 41.1445C43.834 41.3614 43.5177 41.7658 43.3946 42.2255L45.3264 42.7432ZM44.8139 44.7811L45.3303 42.7283L43.3907 42.2404L42.8743 44.2933L44.8139 44.7811ZM48.3978 53.8135C50.6069 53.8135 52.3978 52.0227 52.3978 49.8135H50.3978C50.3978 50.9181 49.5024 51.8135 48.3978 51.8135V53.8135ZM44.3978 49.8135C44.3978 52.0227 46.1887 53.8135 48.3978 53.8135V51.8135C47.2932 51.8135 46.3978 50.9181 46.3978 49.8135H44.3978ZM48.3978 45.8135C46.1887 45.8135 44.3978 47.6044 44.3978 49.8135H46.3978C46.3978 48.709 47.2932 47.8135 48.3978 47.8135V45.8135ZM52.3978 49.8135C52.3978 47.6044 50.6069 45.8135 48.3978 45.8135V47.8135C49.5024 47.8135 50.3978 48.709 50.3978 49.8135H52.3978Z" fill="#E1ECF9"/>
</svg>
