<svg width="76" height="72" viewBox="0 0 76 72" fill="none" xmlns="http://www.w3.org/2000/svg">
<path d="M0 8C0 3.58172 3.58172 0 8 0H64C68.4183 0 72 3.58172 72 8V64C72 68.4183 68.4183 72 64 72H8C3.58172 72 0 68.4183 0 64V8Z" fill="#9C73DF" fill-opacity="0.2"/>
<path fill-rule="evenodd" clip-rule="evenodd" d="M21.5833 31.9154L21.1119 31.332L19.9451 32.2746L20.4165 32.858C21.2511 33.8912 22.304 35.0129 23.5913 36.0707L20.3331 41.714L19.9581 42.3635L21.2571 43.1135L21.6321 42.464L24.794 36.9874C26.5162 38.202 28.5866 39.2578 31.0338 39.8866L30.045 45.4939L29.9148 46.2325L31.392 46.493L31.5222 45.7544L32.5012 40.2025C33.5984 40.3941 34.7639 40.5 35.9999 40.5C37.2308 40.5 38.3918 40.3949 39.4849 40.2049L40.4638 45.7564L40.594 46.495L42.0712 46.2346L41.941 45.4959L40.9525 39.8901C43.4025 39.2625 45.4752 38.207 47.1991 36.9922L50.3441 42.4395L50.7191 43.089L52.0182 42.339L51.6432 41.6895L48.4022 36.0759C49.6924 35.0167 50.7474 33.8929 51.5834 32.8581L52.0547 32.2747L50.8879 31.332L50.4166 31.9154C49.5379 33.003 48.4115 34.1844 47.0145 35.265L46.4051 35.6168L46.4461 35.6879C44.6829 36.949 42.5257 38.0279 39.9352 38.5883L39.222 38.7141L39.2243 38.727C38.213 38.9029 37.1389 39 35.9999 39C34.8558 39 33.7772 38.902 32.7618 38.7246L32.7642 38.711L32.0488 38.5849C29.4621 38.0228 27.3079 36.9437 25.5471 35.6831L25.5883 35.6117L24.978 35.2592C23.5844 34.1802 22.4604 33.0011 21.5833 31.9154Z" fill="#9C73DF"/>
<path d="M48 18V16.9323L52.3333 11.4271V11.3542H48.1406V10H54.276V11.1354L50.1094 16.5729V16.6458H54.4219V18H48Z" fill="#9C73DF"/>
<path d="M56 18V16.6654L61.4167 9.78385V9.69271H56.1758V8H63.8451V9.41927L58.6367 16.2161V16.3073H64.0273V18H56Z" fill="#9C73DF"/>
<path d="M66 18V16.3984L72.5 8.14063V8.03125H66.2109V6H75.4141V7.70313L69.1641 15.8594V15.9688H75.6328V18H66Z" fill="#9C73DF"/>
</svg>