<svg width="72" height="72" viewBox="0 0 72 72" fill="none" xmlns="http://www.w3.org/2000/svg">
<rect width="72" height="72" rx="8" fill="#2F81C4"/>
<rect width="72" height="72" rx="8" fill="url(#paint0_linear)" fill-opacity="0.2"/>
<path d="M43.8794 16C42.3252 16.0116 40.78 16.2376 39.2877 16.6717L39.1827 16.705C38.2413 16.5387 37.2884 16.4467 36.3326 16.43C34.3693 16.3967 32.6826 16.8733 31.3226 17.6667C29.9826 17.2017 27.2026 16.4 24.2725 16.56C22.2325 16.6717 20.0058 17.2917 18.3558 19.0334C16.7108 20.775 15.8408 23.4701 16.0241 27.1368C16.0741 28.1484 16.3625 29.7985 16.8408 31.9351C17.3191 34.0718 17.9908 36.5735 18.8291 38.8552C19.6675 41.1386 20.5858 43.1886 22.0208 44.5819C22.7375 45.2803 23.7242 45.8669 24.8875 45.8186C25.7042 45.7853 26.4425 45.4269 27.0792 44.8986C27.3892 45.3069 27.7209 45.4853 28.0226 45.6503C28.4026 45.8586 28.7726 46.0003 29.1559 46.0936C29.8442 46.2653 31.0226 46.4953 32.4026 46.2603C32.8726 46.1819 33.3676 46.0286 33.8609 45.8103C33.8793 46.3603 33.9009 46.8986 33.9226 47.4436C33.9909 49.1703 34.0343 50.7653 34.5526 52.1637C34.636 52.392 34.8643 53.5687 35.7643 54.607C36.6643 55.647 38.4277 56.2954 40.436 55.8654C41.8527 55.562 43.6544 55.0154 44.851 53.312C46.0344 51.6287 46.5677 49.2136 46.6727 45.2969C46.6994 45.0853 46.7311 44.9053 46.7644 44.7369L47.0461 44.7619H47.0794C48.5911 44.8303 50.2311 44.6153 51.6011 43.9786C52.8144 43.4169 53.7328 42.8486 54.4011 41.8402C54.5678 41.5902 54.7511 41.2886 54.8011 40.7686C54.8511 40.2486 54.5528 39.4352 54.0578 39.0602C53.0661 38.3069 52.4428 38.5935 51.7744 38.7319C51.1161 38.8774 50.4452 38.9589 49.7711 38.9752C51.6978 35.7302 53.0794 32.2835 53.8678 29.2335C54.3345 27.4334 54.5961 25.7734 54.6178 24.3217C54.6395 22.8701 54.5211 21.5851 53.6511 20.4734C50.9328 17 47.1111 16.04 44.1544 16.0067C44.0627 16.005 43.971 16.0033 43.8794 16.005V16ZM43.801 17.0667C46.5977 17.04 50.1711 17.825 52.7361 21.1034C53.3128 21.8401 53.4845 22.9167 53.4645 24.2434C53.4428 25.5684 53.1978 27.1551 52.7494 28.8934C51.8794 32.2601 50.2361 36.1852 47.9211 39.7069C48.0028 39.765 48.0912 39.8131 48.1844 39.8502C48.6677 40.0502 49.7694 40.2219 51.9678 39.7702C52.5211 39.6535 52.9261 39.5752 53.3461 39.8952C53.4482 39.9817 53.5288 40.0907 53.5817 40.2136C53.6347 40.3365 53.6584 40.47 53.6511 40.6036C53.6287 40.8059 53.554 40.9988 53.4345 41.1636C53.0094 41.8019 52.1711 42.4069 51.0961 42.9052C50.1444 43.3486 48.7794 43.5802 47.5694 43.5936C46.9627 43.6002 46.4027 43.5536 45.9277 43.4052L45.8977 43.3936C45.7144 45.1603 45.2927 48.6486 45.0177 50.2403C44.7977 51.5237 44.4127 52.5437 43.6777 53.307C42.9444 54.0703 41.906 54.5303 40.5093 54.8303C38.7793 55.202 37.5176 54.802 36.7043 54.117C35.8926 53.4337 35.521 52.527 35.2976 51.972C35.1443 51.5887 35.0643 51.092 34.9876 50.4286C34.911 49.7653 34.8543 48.9536 34.816 48.0386C34.7649 46.6376 34.7482 45.2355 34.766 43.8336C34.0433 44.4955 33.1453 44.9352 32.1793 45.1003C31.0309 45.2953 30.0059 45.1036 29.3942 44.9503C29.0927 44.8745 28.8016 44.762 28.5276 44.6153C28.2442 44.4636 27.9742 44.2919 27.7942 43.9536C27.6885 43.7598 27.6548 43.5348 27.6992 43.3186C27.7556 43.0994 27.8834 42.9052 28.0626 42.7669C28.3926 42.4986 28.8292 42.3486 29.4876 42.2119C30.6859 41.9652 31.1043 41.7969 31.3593 41.5952C31.5759 41.4219 31.8209 41.0719 32.2543 40.5586C32.2522 40.5358 32.2505 40.513 32.2493 40.4902C31.4737 40.4684 30.7143 40.264 30.0326 39.8935C29.7826 40.1569 28.5059 41.5069 26.9492 43.3802C26.2942 44.1636 25.5709 44.6136 24.8075 44.6453C24.0442 44.6786 23.3542 44.2936 22.7675 43.7253C21.5958 42.5869 20.6608 40.6286 19.8458 38.4152C19.0325 36.2018 18.3708 33.7368 17.9008 31.6368C17.4291 29.5368 17.1508 27.8434 17.1108 27.0268C16.9358 23.5567 17.7475 21.2184 19.1391 19.7434C20.5325 18.2684 22.4425 17.71 24.3042 17.6033C27.6459 17.4117 30.8193 18.5767 31.4609 18.8267C32.6976 17.9867 34.2909 17.4633 36.281 17.4967C37.2257 17.5099 38.1658 17.6318 39.0827 17.86L39.116 17.845C39.5195 17.7032 39.9308 17.5841 40.3477 17.4883C41.4797 17.2243 42.637 17.084 43.7994 17.07L43.801 17.0667ZM44.0544 18.1834H43.811C42.8562 18.1967 41.9049 18.3039 40.971 18.5034C43.0477 19.4234 44.616 20.84 45.721 22.2534C46.4886 23.232 47.1231 24.308 47.6077 25.4534C47.7911 25.8934 47.9144 26.2651 47.9844 26.5534C48.0194 26.6984 48.0427 26.8201 48.0511 26.9468C48.0544 27.0101 48.0577 27.0751 48.0311 27.1868C48.0311 27.1918 48.0227 27.2034 48.0211 27.2084C48.0711 28.6684 47.7094 29.6585 47.6661 31.0518C47.6327 32.0618 47.8911 33.2485 47.9544 34.5435C48.0144 35.7602 47.8677 37.0969 47.0777 38.4085C47.1444 38.4885 47.2044 38.5685 47.2677 38.6485C49.3577 35.3568 50.8644 31.7151 51.6678 28.6101C52.0978 26.9384 52.3261 25.4234 52.3461 24.2234C52.3628 23.0234 52.1394 22.1534 51.8544 21.7901C49.6178 18.93 46.5911 18.2034 44.0544 18.1834ZM36.071 18.61C34.1009 18.615 32.6876 19.21 31.6159 20.1017C30.5109 21.0234 29.7692 22.2851 29.2826 23.5767C28.7042 25.1101 28.5059 26.5934 28.4276 27.6001L28.4492 27.5868C29.0442 27.2534 29.8259 26.9201 30.6626 26.7268C31.4993 26.5351 32.4009 26.4751 33.2176 26.7918C34.0343 27.1084 34.7093 27.8534 34.9543 28.9834C36.1276 34.4118 34.5893 36.4302 34.0226 37.9535C33.8076 38.5057 33.6235 39.0693 33.4709 39.6419C33.5426 39.6252 33.6143 39.6052 33.6859 39.5985C34.0859 39.5652 34.3993 39.6985 34.5859 39.7785C35.156 40.0152 35.5476 40.5119 35.7593 41.0786C35.8143 41.2269 35.8543 41.3869 35.8776 41.5519C35.9023 41.6196 35.9136 41.6915 35.911 41.7636C35.8478 43.8399 35.855 45.9178 35.9326 47.9936C35.971 48.8903 36.0276 49.6803 36.0993 50.3036C36.171 50.9253 36.2726 51.3987 36.3376 51.5587C36.551 52.092 36.8626 52.7903 37.426 53.2653C37.9893 53.7387 38.7977 54.0553 40.2743 53.7387C41.5543 53.4637 42.3444 53.082 42.8727 52.5337C43.3994 51.9853 43.7144 51.222 43.916 50.0536C44.2177 48.3036 44.8244 43.2286 44.8977 42.2736C44.8644 41.5536 44.971 41.0002 45.201 40.5786C45.4377 40.1452 45.8044 39.8802 46.1211 39.7369C46.2794 39.6652 46.4277 39.6169 46.5494 39.5819C46.4206 39.3968 46.2855 39.2161 46.1444 39.0402C45.6878 38.4865 45.3139 37.8695 45.0344 37.2085C44.9005 36.9356 44.7576 36.6671 44.606 36.4035C44.3844 36.0035 44.1044 35.5035 43.811 34.9418C43.2244 33.8168 42.586 32.4535 42.2544 31.1251C41.9243 29.7985 41.876 28.4251 42.7227 27.4568C43.4727 26.5968 44.7894 26.2401 46.7661 26.4401C46.7077 26.2651 46.6727 26.1201 46.5744 25.8868C46.1275 24.8349 45.5442 23.8464 44.8394 22.9467C43.1644 20.805 40.4527 18.6817 36.2626 18.6134H36.071V18.61ZM25.0009 18.6967C24.7892 18.6967 24.5775 18.7034 24.3675 18.715C22.6842 18.8117 21.0925 19.3 19.9542 20.5067C18.8141 21.7134 18.0641 23.6917 18.2275 26.9668C18.2591 27.5868 18.5291 29.3235 18.9925 31.3868C19.4541 33.4502 20.1092 35.8785 20.8958 38.0235C21.6842 40.1686 22.6392 42.0352 23.5459 42.9186C24.0025 43.3602 24.3992 43.5386 24.7592 43.5236C25.1209 43.5069 25.5559 43.2986 26.0875 42.6602C27.0569 41.4909 28.063 40.3526 29.1042 39.2469C28.3654 38.6054 27.8 37.7882 27.4601 36.8707C27.1201 35.9532 27.0167 34.9648 27.1592 33.9968C27.3309 32.7652 27.3542 31.6135 27.3342 30.7035C27.3142 29.8168 27.2509 29.2268 27.2509 28.8584C27.2506 28.8479 27.2506 28.8373 27.2509 28.8268V28.8184L27.2492 28.8084C27.2482 26.8898 27.5821 24.9839 28.2359 23.1801C28.7026 21.9401 29.3976 20.68 30.4392 19.66C29.4159 19.3234 27.5992 18.81 25.6325 18.7134C25.4216 18.7025 25.2121 18.697 25.0009 18.6967ZM45.6644 27.5001C44.5327 27.5151 43.8977 27.8068 43.5644 28.1884C43.0927 28.7301 43.0477 29.6801 43.341 30.8501C43.6327 32.0218 44.236 33.3318 44.8027 34.4202C45.086 34.9652 45.361 35.4552 45.5827 35.8535C45.8061 36.2535 45.9694 36.5368 46.0694 36.7785C46.1611 37.0019 46.2627 37.1985 46.3661 37.3819C46.8044 36.4569 46.8827 35.5485 46.8377 34.6018C46.7794 33.4302 46.5077 32.2318 46.5477 31.0185C46.5927 29.6001 46.8727 28.6768 46.8977 27.5801C46.4887 27.5271 46.0768 27.5004 45.6644 27.5001ZM31.9409 27.6918C31.5952 27.695 31.2509 27.7364 30.9143 27.8151C30.2433 27.9781 29.5971 28.2298 28.9926 28.5634C28.7881 28.6731 28.5935 28.8003 28.4109 28.9434L28.3742 28.9768C28.3842 29.2201 28.4326 29.8101 28.4526 30.6785C28.4726 31.6285 28.4492 32.8402 28.2659 34.1518C27.8676 37.0019 29.9359 39.3619 32.3659 39.3652C32.5076 38.7802 32.7409 38.1869 32.9743 37.5619C33.6509 35.7385 34.9826 34.4085 33.8609 29.2185C33.6776 28.3684 33.3143 28.0251 32.8143 27.8318C32.534 27.7327 32.2381 27.6852 31.9409 27.6918ZM45.136 28.0318H45.2194C45.3294 28.0351 45.431 28.0468 45.5194 28.0684C45.6094 28.0884 45.686 28.1184 45.7494 28.1601C45.7819 28.1802 45.8098 28.2069 45.8313 28.2385C45.8529 28.2701 45.8675 28.3058 45.8744 28.3434L45.8727 28.3568C45.876 28.4359 45.8557 28.5142 45.8144 28.5818C45.7652 28.6733 45.7035 28.7574 45.6311 28.8318C45.462 29.018 45.2355 29.1423 44.9877 29.1851C44.7465 29.2143 44.5031 29.1531 44.3044 29.0135C44.223 28.9587 44.15 28.8925 44.0877 28.8168C44.0338 28.7573 43.9974 28.684 43.9827 28.6051C43.9792 28.5667 43.9836 28.5279 43.9957 28.4912C44.0077 28.4545 44.0271 28.4207 44.0527 28.3918C44.1074 28.3296 44.1736 28.2787 44.2477 28.2418C44.4077 28.1518 44.6244 28.0851 44.8694 28.0484C44.961 28.0351 45.051 28.0284 45.136 28.0268V28.0318ZM32.1026 28.3118C32.1909 28.3118 32.2843 28.3201 32.3793 28.3334C32.6343 28.3684 32.8609 28.4368 33.0343 28.5368C33.1188 28.5809 33.1941 28.6409 33.2559 28.7134C33.2896 28.7519 33.315 28.797 33.3305 28.8457C33.346 28.8945 33.3512 28.9459 33.3459 28.9968C33.3299 29.0926 33.2865 29.1818 33.2209 29.2535C33.1528 29.3372 33.0724 29.4102 32.9826 29.4701C32.7658 29.6237 32.4996 29.6908 32.2359 29.6585C31.9665 29.6142 31.7199 29.4803 31.5359 29.2785C31.4577 29.1972 31.3914 29.1051 31.3393 29.0051C31.2843 28.9171 31.2603 28.8133 31.2709 28.7101C31.2959 28.5301 31.4443 28.4368 31.5893 28.3851C31.7544 28.3323 31.9278 28.3098 32.1009 28.3184L32.1026 28.3118ZM47.2027 40.5502L47.1977 40.5519C46.9527 40.6402 46.7511 40.6769 46.5811 40.7519C46.4091 40.8181 46.2674 40.945 46.1827 41.1086C46.0777 41.3002 45.9877 41.6402 46.0144 42.2186C46.0898 42.2705 46.1731 42.3099 46.2611 42.3352C46.5461 42.4219 47.0244 42.4786 47.5577 42.4702C48.6211 42.4586 49.9294 42.2102 50.6244 41.8869C51.1946 41.622 51.7238 41.2768 52.1961 40.8619C49.8744 41.3419 48.5611 41.2136 47.7561 40.8819C47.5562 40.7987 47.3697 40.6881 47.2027 40.5502ZM33.8176 40.7069H33.7826C33.6943 40.7152 33.5659 40.7452 33.3176 41.0202C32.7376 41.6702 32.5343 42.0786 32.0559 42.4602C31.5776 42.8402 30.9559 43.0436 29.7142 43.2986C29.3209 43.3786 29.0959 43.4669 28.9459 43.5386C28.9942 43.5786 28.9892 43.5886 29.0626 43.6269C29.2442 43.7269 29.4776 43.8153 29.6659 43.8636C30.1992 43.9969 31.0759 44.1519 31.9909 43.9969C32.9059 43.8403 33.8576 43.4019 34.6693 42.2636C34.8093 42.0669 34.8243 41.7769 34.7093 41.4652C34.5926 41.1536 34.3376 40.8852 34.1576 40.8102C34.0505 40.7585 33.9356 40.7248 33.8176 40.7102V40.7069Z" fill="white"/>
<defs>
<linearGradient id="paint0_linear" x1="0" y1="0" x2="72" y2="72" gradientUnits="userSpaceOnUse">
<stop stop-color="white"/>
<stop offset="1" stop-color="white" stop-opacity="0"/>
</linearGradient>
</defs>
</svg>
