<svg width="72" height="72" viewBox="0 0 72 72" fill="none" xmlns="http://www.w3.org/2000/svg">
<path d="M0 8C0 3.58172 3.58172 0 8 0H64C68.4183 0 72 3.58172 72 8V64C72 68.4183 68.4183 72 64 72H8C3.58172 72 0 68.4183 0 64V8Z" fill="#FFBD59" fill-opacity="0.1"/>
<path d="M0 8C0 3.58172 3.58172 0 8 0H64C68.4183 0 72 3.58172 72 8V64C72 68.4183 68.4183 72 64 72H8C3.58172 72 0 68.4183 0 64V8Z" fill="url(#paint0_linear_102_1288)" fill-opacity="0.2"/>
<path d="M33.5029 17.2649L17.6381 44.6736C17.3843 45.1122 17.2504 45.6099 17.25 46.1166C17.2496 46.6233 17.3826 47.1213 17.6358 47.5603C17.8889 47.9992 18.2532 48.3638 18.692 48.6173C19.1307 48.8708 19.6285 49.0043 20.1353 49.0043H51.8647C52.3715 49.0043 52.8693 48.8708 53.308 48.6173C53.7468 48.3638 54.1111 47.9993 54.3642 47.5603C54.6174 47.1213 54.7504 46.6233 54.75 46.1166C54.7496 45.6099 54.6157 45.1122 54.3618 44.6736L38.4971 17.2649C38.2437 16.827 37.8795 16.4635 37.4413 16.2108C37.003 15.958 36.5059 15.825 36 15.825C35.4941 15.825 34.997 15.958 34.5587 16.2108C34.1204 16.4635 33.7563 16.827 33.5029 17.2649Z" fill="#FFBD59"/>
<path d="M33.5029 17.2649L17.6381 44.6736C17.3843 45.1122 17.2504 45.6099 17.25 46.1166C17.2496 46.6233 17.3826 47.1213 17.6358 47.5603C17.8889 47.9992 18.2532 48.3638 18.692 48.6173C19.1307 48.8708 19.6285 49.0043 20.1353 49.0043H51.8647C52.3715 49.0043 52.8693 48.8708 53.308 48.6173C53.7468 48.3638 54.1111 47.9993 54.3642 47.5603C54.6174 47.1213 54.7504 46.6233 54.75 46.1166C54.7496 45.6099 54.6157 45.1122 54.3618 44.6736L38.4971 17.2649C38.2437 16.827 37.8795 16.4635 37.4413 16.2108C37.003 15.958 36.5059 15.825 36 15.825C35.4941 15.825 34.997 15.958 34.5587 16.2108C34.1204 16.4635 33.7563 16.827 33.5029 17.2649Z" fill="url(#paint1_radial_102_1288)"/>
<rect opacity="0.25" x="26" y="25.2501" width="20" height="20" fill="url(#paint2_radial_102_1288)"/>
<path fill-rule="evenodd" clip-rule="evenodd" d="M34.125 25.2501V37.7501H37.875V25.2501H34.125ZM37.875 42.1251C37.875 43.1606 37.0355 44.0001 36 44.0001C34.9645 44.0001 34.125 43.1606 34.125 42.1251C34.125 41.0895 34.9645 40.2501 36 40.2501C37.0355 40.2501 37.875 41.0895 37.875 42.1251Z" fill="white"/>
<defs>
<linearGradient id="paint0_linear_102_1288" x1="0" y1="0" x2="72" y2="72" gradientUnits="userSpaceOnUse">
<stop stop-color="#FFBD59" stop-opacity="0"/>
<stop offset="1" stop-color="#FFBD59"/>
</linearGradient>
<radialGradient id="paint1_radial_102_1288" cx="0" cy="0" r="1" gradientUnits="userSpaceOnUse" gradientTransform="translate(44.6559 49.0057) rotate(-135) scale(30.6029 25.0453)">
<stop stop-color="#ED7200"/>
<stop offset="1" stop-color="#ED7200" stop-opacity="0"/>
</radialGradient>
<radialGradient id="paint2_radial_102_1288" cx="0" cy="0" r="1" gradientUnits="userSpaceOnUse" gradientTransform="translate(36 35.2501) rotate(90) scale(10)">
<stop stop-color="#F13154"/>
<stop offset="1" stop-color="#F13154" stop-opacity="0"/>
</radialGradient>
</defs>
</svg>
