<svg width="24" height="24" viewBox="0 0 24 24" fill="none" xmlns="http://www.w3.org/2000/svg">
<path d="M0 5C0 4.44772 0.447715 4 1 4H23C23.5523 4 24 4.44772 24 5V19C24 19.5523 23.5523 20 23 20H1C0.447716 20 0 19.5523 0 19V5Z" fill="white"/>
<path d="M0.5 5C0.5 4.72386 0.723858 4.5 1 4.5H23C23.2761 4.5 23.5 4.72386 23.5 5V19C23.5 19.2761 23.2761 19.5 23 19.5H1C0.723858 19.5 0.5 19.2761 0.5 19V5Z" stroke="#21324B" stroke-opacity="0.15"/>
<path d="M0 5C0 4.44772 0.447715 4 1 4H23C23.5523 4 24 4.44772 24 5V12H0V5Z" fill="#ED2939"/>
<path d="M5.06889 10.9444C6.69506 10.9444 8.01332 9.62615 8.01332 7.99998C8.01332 6.37381 6.69506 5.05554 5.06889 5.05554C3.44272 5.05554 2.12445 6.37381 2.12445 7.99998C2.12445 9.62615 3.44272 10.9444 5.06889 10.9444Z" fill="white"/>
<path d="M6.4022 10.9444C8.02837 10.9444 9.34664 9.62615 9.34664 7.99998C9.34664 6.37381 8.02837 5.05554 6.4022 5.05554C4.77603 5.05554 3.45776 6.37381 3.45776 7.99998C3.45776 9.62615 4.77603 10.9444 6.4022 10.9444Z" fill="#ED2939"/>
<path d="M6.68 5.54443L6.22937 6.93134L7.40914 6.07419H5.95087L7.13064 6.93134L6.68 5.54443Z" fill="white"/>
</svg>
