<svg width="25" height="25" viewBox="0 0 25 25" fill="none" xmlns="http://www.w3.org/2000/svg">
<path d="M6 4.5C6 3.39543 6.89543 2.5 8 2.5H16C17.1046 2.5 18 3.39543 18 4.5V21.5C18 22.6046 17.1046 23.5 16 23.5H8C6.89543 23.5 6 22.6046 6 21.5V4.5Z" fill="#3787FF"/>
<circle cx="12" cy="18.25" r="2.25" fill="#063799"/>
<path d="M17.779 1.53621L17.779 1.53627L16.4531 2.86217L14.8163 4.49895L14.8163 4.49897L14.8111 4.50416L13.5361 5.7792L13.536 5.77926C12.915 6.4005 12.5661 7.24306 12.5662 8.12151C12.5662 8.99994 12.9152 9.84237 13.5364 10.4635C14.1575 11.0847 14.9999 11.4336 15.8784 11.4337C16.7568 11.4338 17.5993 11.085 18.2206 10.4639L18.2206 10.4639L19.5465 9.13796L19.5466 9.13791L19.5516 9.13284L21.1377 7.54675L22.4635 6.22093L22.4635 6.22087C23.0846 5.59963 23.4335 4.75707 23.4334 3.87862C23.4333 3.00019 23.0844 2.15776 22.4632 1.53662C21.8421 0.91547 20.9996 0.566481 20.1212 0.566406C19.2428 0.566331 18.4003 0.915176 17.779 1.53621Z" fill="white" stroke="white" stroke-linecap="round" stroke-linejoin="round"/>
<path fill-rule="evenodd" clip-rule="evenodd" d="M20.1211 1.06641C19.3753 1.06634 18.66 1.36253 18.1325 1.88983L18.1324 1.8899L16.8066 3.21572C16.5869 3.43539 16.5869 3.79155 16.8066 4.01122C17.0263 4.23089 17.3824 4.23089 17.6021 4.01122L18.9279 2.68546L18.9279 2.68539C19.2444 2.36906 19.6736 2.19137 20.121 2.19141C20.5685 2.19144 20.9977 2.36923 21.3141 2.68566C21.6306 3.0021 21.8084 3.43126 21.8084 3.87876C21.8084 4.32623 21.6307 4.7554 21.3144 5.07188L21.3143 5.07195L19.9886 6.3977C19.7689 6.61737 19.7689 6.97353 19.9886 7.1932C20.2082 7.41287 20.5644 7.41287 20.7841 7.1932L22.1099 5.86737L22.11 5.8673C22.6373 5.33983 22.9335 4.6245 22.9334 3.87867C22.9333 3.13283 22.637 2.41756 22.1096 1.89017C21.5822 1.36278 20.867 1.06647 20.1211 1.06641ZM19.9885 4.01107C20.2081 4.23074 20.2081 4.58689 19.9885 4.80656L16.8065 7.98854C16.5868 8.20821 16.2307 8.20821 16.011 7.98854C15.7913 7.76887 15.7913 7.41272 16.011 7.19305L19.193 4.01107C19.4127 3.7914 19.7688 3.7914 19.9885 4.01107ZM16.011 4.80693C16.2306 5.0266 16.2306 5.38276 16.011 5.60243L14.6852 6.92818L14.6851 6.92825C14.3688 7.24473 14.1911 7.6739 14.1912 8.12137C14.1912 8.56887 14.369 8.99803 14.6854 9.31446C15.0019 9.6309 15.431 9.80868 15.8785 9.80872C16.326 9.80876 16.7552 9.63107 17.0716 9.31474L17.0717 9.31467L18.3975 7.98891C18.6171 7.76924 18.9733 7.76924 19.193 7.98891C19.4126 8.20858 19.4126 8.56474 19.193 8.78441L17.8671 10.1102L17.8671 10.1103C17.3396 10.6376 16.6243 10.9338 15.8784 10.9337C15.1326 10.9337 14.4173 10.6373 13.8899 10.11C13.3625 9.58257 13.0662 8.8673 13.0662 8.12146C13.0661 7.37562 13.3623 6.6603 13.8896 6.13282L13.8897 6.13276L15.2155 4.80693C15.4351 4.58726 15.7913 4.58726 16.011 4.80693Z" fill="#FF9A23"/>
<path fill-rule="evenodd" clip-rule="evenodd" d="M20.1211 1.06641C19.3753 1.06634 18.66 1.36253 18.1325 1.88983L18.1324 1.8899L16.8066 3.21572C16.5869 3.43539 16.5869 3.79155 16.8066 4.01122C17.0263 4.23089 17.3824 4.23089 17.6021 4.01122L18.9279 2.68546L18.9279 2.68539C19.2444 2.36906 19.6736 2.19137 20.121 2.19141C20.5685 2.19144 20.9977 2.36923 21.3141 2.68566C21.6306 3.0021 21.8084 3.43126 21.8084 3.87876C21.8084 4.32623 21.6307 4.7554 21.3144 5.07188L21.3143 5.07195L19.9886 6.3977C19.7689 6.61737 19.7689 6.97353 19.9886 7.1932C20.2082 7.41287 20.5644 7.41287 20.7841 7.1932L22.1099 5.86737L22.11 5.8673C22.6373 5.33983 22.9335 4.6245 22.9334 3.87867C22.9333 3.13283 22.637 2.41756 22.1096 1.89017C21.5822 1.36278 20.867 1.06647 20.1211 1.06641ZM19.9885 4.01107C20.2081 4.23074 20.2081 4.58689 19.9885 4.80656L16.8065 7.98854C16.5868 8.20821 16.2307 8.20821 16.011 7.98854C15.7913 7.76887 15.7913 7.41272 16.011 7.19305L19.193 4.01107C19.4127 3.7914 19.7688 3.7914 19.9885 4.01107ZM16.011 4.80693C16.2306 5.0266 16.2306 5.38276 16.011 5.60243L14.6852 6.92818L14.6851 6.92825C14.3688 7.24473 14.1911 7.6739 14.1912 8.12137C14.1912 8.56887 14.369 8.99803 14.6854 9.31446C15.0019 9.6309 15.431 9.80868 15.8785 9.80872C16.326 9.80876 16.7552 9.63107 17.0716 9.31474L17.0717 9.31467L18.3975 7.98891C18.6171 7.76924 18.9733 7.76924 19.193 7.98891C19.4126 8.20858 19.4126 8.56474 19.193 8.78441L17.8671 10.1102L17.8671 10.1103C17.3396 10.6376 16.6243 10.9338 15.8784 10.9337C15.1326 10.9337 14.4173 10.6373 13.8899 10.11C13.3625 9.58257 13.0662 8.8673 13.0662 8.12146C13.0661 7.37562 13.3623 6.6603 13.8896 6.13282L13.8897 6.13276L15.2155 4.80693C15.4351 4.58726 15.7913 4.58726 16.011 4.80693Z" fill="url(#paint0_radial_1969_77378)"/>
<defs>
<radialGradient id="paint0_radial_1969_77378" cx="0" cy="0" r="1" gradientUnits="userSpaceOnUse" gradientTransform="translate(12.7499 11.2503) rotate(-45) scale(12.7279)">
<stop stop-color="#FF4500"/>
<stop offset="1" stop-color="#FF4500" stop-opacity="0"/>
</radialGradient>
</defs>
</svg>
