<svg width="48" height="48" viewBox="0 0 48 48" fill="none" xmlns="http://www.w3.org/2000/svg">
<path d="M24.0004 3C12.4024 3 3 12.4022 3 24.0001C3 35.5986 12.4024 45 24.0004 45C35.5996 45 45.001 35.5986 45.001 24.0001C45.001 12.4029 35.5998 3 24.0004 3Z" fill="#1ED760"/>
<path d="M33.631 33.2878C33.2548 33.9047 32.4474 34.1003 31.8305 33.7217C26.8998 30.7099 20.6927 30.0278 13.3827 31.6979C12.6783 31.8584 11.9761 31.4171 11.8156 30.7124C11.6544 30.0077 12.094 29.3056 12.8001 29.1451C20.7998 27.3167 27.6616 28.1044 33.1972 31.4873C33.8141 31.866 34.0097 32.6709 33.631 33.2878ZM36.2014 27.569C35.7274 28.3401 34.7193 28.5834 33.9495 28.1094C28.3046 24.639 19.6999 23.6341 13.0231 25.6609C12.1572 25.9224 11.2426 25.4344 10.9798 24.57C10.719 23.7041 11.2072 22.7913 12.0717 22.528C19.6984 20.2139 29.1798 21.3348 35.6622 25.3183C36.4321 25.7923 36.6754 26.8001 36.2014 27.569ZM36.4221 21.6147C29.6538 17.5945 18.4869 17.2249 12.0248 19.1862C10.9871 19.5009 9.88968 18.9151 9.57522 17.8774C9.26075 16.8392 9.84605 15.7426 10.8845 15.4271C18.3026 13.1752 30.6343 13.6103 38.4268 18.2363C39.3621 18.7902 39.6681 19.9957 39.1139 20.9278C38.5622 21.8612 37.3524 22.1689 36.4221 21.6147Z" fill="black"/>
</svg>
