<svg width="21" height="21" fill="none" xmlns="http://www.w3.org/2000/svg"><path d="M10.08 0c5.578 0 10.08 4.507 10.08 10.09 0 5.584-4.502 10.09-10.08 10.09A10.072 10.072 0 0 1 0 10.09C0 4.507 4.503 0 10.08 0Zm0 2.69a7.375 7.375 0 0 0-7.392 7.4c0 4.104 3.293 7.4 7.392 7.4 4.1 0 7.392-3.296 7.392-7.4 0-4.103-3.293-7.4-7.392-7.4Zm-2.486 7.804c1.142 0 2.083.942 2.083 2.085 0 1.144-.94 2.086-2.083 2.086a2.095 2.095 0 0 1-2.083-2.086c0-1.143.94-2.085 2.083-2.085Zm4.973 0c1.142 0 2.083.942 2.083 2.085 0 1.144-.94 2.086-2.083 2.086a2.095 2.095 0 0 1-2.084-2.086c0-1.143.941-2.085 2.084-2.085Zm0-4.978c1.142 0 2.083.942 2.083 2.085 0 1.144-.94 2.086-2.083 2.086A2.095 2.095 0 0 1 10.483 7.6c0-1.143.941-2.085 2.084-2.085Zm-4.973 0c1.142 0 2.083.942 2.083 2.085 0 1.144-.94 2.086-2.083 2.086A2.095 2.095 0 0 1 5.51 7.6c0-1.143.94-2.085 2.083-2.085Z" fill="#F22F46"/></svg>