<svg width="24" height="24" viewBox="0 0 24 24" fill="none" xmlns="http://www.w3.org/2000/svg">
<g clip-path="url(#clip0)">
<path d="M0 17.84V17.36H24V17.84V18.32H0V17.84ZM0 15.88V15.4H24V15.88V16.36H0V15.88ZM0 13.94V13.48H24V13.94V14.4H0V13.94Z" fill="#B22134"/>
<path d="M4.48012e-05 5.68H24V6.16V6.64H4.48012e-05V5.68Z" fill="#B22134"/>
<path d="M4.48012e-05 7.64H24V8.12V8.6H4.48012e-05V7.64Z" fill="#B22134"/>
<path d="M4.48012e-05 9.6H24V10.06V10.52H4.48012e-05V9.6Z" fill="#B22134"/>
<path d="M4.48012e-05 11.52H24V12V12.48H4.48012e-05V11.52Z" fill="#B22134"/>
<path d="M0 5.68H9.60004V12.48H0V5.68Z" fill="#3C3A6E"/>
<path d="M0.869998 12.0076C0.807718 11.9541 0.792278 11.9541 0.729998 12.0076C0.583586 12.1333 0.560342 12.1308 0.607874 11.9945C0.64913 11.8761 0.643658 11.8592 0.53627 11.7733L0.419998 11.6803L0.570998 11.6801C0.706715 11.6799 0.724427 11.6677 0.745998 11.5599C0.759198 11.4939 0.783498 11.4399 0.799998 11.4399C0.816498 11.4399 0.840798 11.4939 0.853998 11.5599C0.87557 11.6677 0.893282 11.6799 1.029 11.6801L1.18 11.6803L1.06373 11.7733C0.956339 11.8592 0.950866 11.8761 0.992122 11.9945C1.03966 12.1308 1.01641 12.1333 0.869998 12.0076Z" fill="white"/>
<path d="M2.47 12.0076C2.40772 11.9541 2.39228 11.9541 2.33 12.0076C2.18359 12.1333 2.16034 12.1308 2.20787 11.9945C2.24913 11.8761 2.24366 11.8592 2.13627 11.7733L2.02 11.6803L2.171 11.6801C2.30671 11.6799 2.32443 11.6677 2.346 11.5599C2.3592 11.4939 2.3835 11.4399 2.4 11.4399C2.4165 11.4399 2.4408 11.4939 2.454 11.5599C2.47557 11.6677 2.49328 11.6799 2.629 11.6801L2.78 11.6803L2.66373 11.7733C2.55634 11.8592 2.55087 11.8761 2.59212 11.9945C2.63966 12.1308 2.61641 12.1333 2.47 12.0076Z" fill="white"/>
<path d="M4.07 12.0076C4.00771 11.9541 3.99228 11.9541 3.93 12.0076C3.78359 12.1333 3.76034 12.1308 3.80787 11.9945C3.84913 11.8761 3.84366 11.8592 3.73627 11.7733L3.62 11.6803L3.771 11.6801C3.90671 11.6799 3.92443 11.6677 3.946 11.5599C3.9592 11.4939 3.9835 11.4399 4 11.4399C4.0165 11.4399 4.0408 11.4939 4.054 11.5599C4.07557 11.6677 4.09328 11.6799 4.229 11.6801L4.38 11.6803L4.26373 11.7733C4.15634 11.8592 4.15087 11.8761 4.19212 11.9945C4.23966 12.1308 4.21641 12.1333 4.07 12.0076Z" fill="white"/>
<path d="M5.67 12.0076C5.60772 11.9541 5.59228 11.9541 5.53 12.0076C5.38359 12.1333 5.36034 12.1308 5.40787 11.9945C5.44913 11.8761 5.44366 11.8592 5.33627 11.7733L5.22 11.6803L5.371 11.6801C5.50672 11.6799 5.52443 11.6677 5.546 11.5599C5.5592 11.4939 5.5835 11.4399 5.6 11.4399C5.6165 11.4399 5.6408 11.4939 5.654 11.5599C5.67557 11.6677 5.69328 11.6799 5.829 11.6801L5.98 11.6803L5.86373 11.7733C5.75634 11.8592 5.75087 11.8761 5.79212 11.9945C5.83966 12.1308 5.81641 12.1333 5.67 12.0076Z" fill="white"/>
<path d="M7.27 12.0076C7.20772 11.9541 7.19228 11.9541 7.13 12.0076C6.98359 12.1333 6.96034 12.1308 7.00787 11.9945C7.04913 11.8761 7.04366 11.8592 6.93627 11.7733L6.82 11.6803L6.971 11.6801C7.10672 11.6799 7.12443 11.6677 7.146 11.5599C7.1592 11.4939 7.1835 11.4399 7.2 11.4399C7.2165 11.4399 7.2408 11.4939 7.254 11.5599C7.27557 11.6677 7.29328 11.6799 7.429 11.6801L7.58 11.6803L7.46373 11.7733C7.35634 11.8592 7.35087 11.8761 7.39212 11.9945C7.43966 12.1308 7.41641 12.1333 7.27 12.0076Z" fill="white"/>
<path d="M8.87 12.0076C8.80772 11.9541 8.79228 11.9541 8.73 12.0076C8.58359 12.1333 8.56034 12.1308 8.60787 11.9945C8.64913 11.8761 8.64366 11.8592 8.53627 11.7733L8.42 11.6803L8.571 11.6801C8.70672 11.6799 8.72443 11.6677 8.746 11.5599C8.7592 11.4939 8.7835 11.4399 8.8 11.4399C8.8165 11.4399 8.8408 11.4939 8.854 11.5599C8.87557 11.6677 8.89328 11.6799 9.029 11.6801L9.18 11.6803L9.06373 11.7733C8.95634 11.8592 8.95087 11.8761 8.99212 11.9945C9.03966 12.1308 9.01641 12.1333 8.87 12.0076Z" fill="white"/>
<path d="M1.67 11.3276C1.60772 11.2741 1.59228 11.2741 1.53 11.3276C1.38359 11.4533 1.36034 11.4508 1.40787 11.3145C1.44913 11.1961 1.44366 11.1792 1.33627 11.0933L1.22 11.0003L1.36682 11.0001C1.49737 10.9999 1.51656 10.9866 1.54 10.8799C1.55449 10.8139 1.58149 10.7599 1.6 10.7599C1.6185 10.7599 1.6455 10.8139 1.66 10.8799C1.68343 10.9866 1.70263 10.9999 1.83318 11.0001L1.98 11.0003L1.86373 11.0933C1.75634 11.1792 1.75087 11.1961 1.79212 11.3145C1.83966 11.4508 1.81641 11.4533 1.67 11.3276Z" fill="white"/>
<path d="M3.27 11.3276C3.20772 11.2741 3.19228 11.2741 3.13 11.3276C2.98359 11.4533 2.96034 11.4508 3.00787 11.3145C3.04913 11.1961 3.04366 11.1792 2.93627 11.0933L2.82 11.0003L2.96682 11.0001C3.09737 10.9999 3.11656 10.9866 3.14 10.8799C3.15449 10.8139 3.18149 10.7599 3.2 10.7599C3.2185 10.7599 3.2455 10.8139 3.26 10.8799C3.28343 10.9866 3.30263 10.9999 3.43318 11.0001L3.58 11.0003L3.46373 11.0933C3.35634 11.1792 3.35087 11.1961 3.39212 11.3145C3.43966 11.4508 3.41641 11.4533 3.27 11.3276Z" fill="white"/>
<path d="M4.87 11.3276C4.80772 11.2741 4.79228 11.2741 4.73 11.3276C4.58359 11.4533 4.56034 11.4508 4.60787 11.3145C4.64913 11.1961 4.64366 11.1792 4.53627 11.0933L4.42 11.0003L4.56682 11.0001C4.69737 10.9999 4.71656 10.9866 4.74 10.8799C4.75449 10.8139 4.78149 10.7599 4.8 10.7599C4.8185 10.7599 4.8455 10.8139 4.86 10.8799C4.88343 10.9866 4.90263 10.9999 5.03318 11.0001L5.18 11.0003L5.06373 11.0933C4.95634 11.1792 4.95087 11.1961 4.99212 11.3145C5.03966 11.4508 5.01641 11.4533 4.87 11.3276Z" fill="white"/>
<path d="M6.47 11.3276C6.40772 11.2741 6.39228 11.2741 6.33 11.3276C6.18359 11.4533 6.16034 11.4508 6.20787 11.3145C6.24913 11.1961 6.24366 11.1792 6.13627 11.0933L6.02 11.0003L6.16682 11.0001C6.29737 10.9999 6.31656 10.9866 6.34 10.8799C6.35449 10.8139 6.38149 10.7599 6.4 10.7599C6.4185 10.7599 6.4455 10.8139 6.46 10.8799C6.48343 10.9866 6.50263 10.9999 6.63318 11.0001L6.78 11.0003L6.66373 11.0933C6.55634 11.1792 6.55087 11.1961 6.59212 11.3145C6.63966 11.4508 6.61641 11.4533 6.47 11.3276Z" fill="white"/>
<path d="M8.07 11.3276C8.00772 11.2741 7.99228 11.2741 7.93 11.3276C7.78359 11.4533 7.76034 11.4508 7.80787 11.3145C7.84913 11.1961 7.84366 11.1792 7.73627 11.0933L7.62 11.0003L7.76682 11.0001C7.89737 10.9999 7.91656 10.9866 7.94 10.8799C7.95449 10.8139 7.98149 10.7599 8 10.7599C8.0185 10.7599 8.0455 10.8139 8.06 10.8799C8.08343 10.9866 8.10263 10.9999 8.23318 11.0001L8.38 11.0003L8.26373 11.0933C8.15634 11.1792 8.15087 11.1961 8.19212 11.3145C8.23966 11.4508 8.21641 11.4533 8.07 11.3276Z" fill="white"/>
<path d="M0.869998 10.6476C0.807718 10.5941 0.792278 10.5941 0.729998 10.6476C0.583586 10.7733 0.560342 10.7708 0.607874 10.6345C0.64913 10.5161 0.643658 10.4992 0.53627 10.4133L0.419998 10.3203L0.566822 10.3201C0.697366 10.3199 0.716563 10.3066 0.739998 10.1999C0.754494 10.1339 0.781494 10.0799 0.799998 10.0799C0.818502 10.0799 0.845502 10.1339 0.859998 10.1999C0.883434 10.3066 0.90263 10.3199 1.03318 10.3201L1.18 10.3203L1.06373 10.4133C0.956339 10.4992 0.950866 10.5161 0.992122 10.6345C1.03966 10.7708 1.01641 10.7733 0.869998 10.6476Z" fill="white"/>
<path d="M2.47 10.6476C2.40772 10.5941 2.39228 10.5941 2.33 10.6476C2.18359 10.7733 2.16034 10.7709 2.20787 10.6345C2.24913 10.5162 2.24366 10.4993 2.13627 10.4133L2.02 10.3203L2.16682 10.3201C2.29737 10.3199 2.31656 10.3066 2.34 10.1999C2.35449 10.1339 2.38149 10.0799 2.4 10.0799C2.4185 10.0799 2.4455 10.1339 2.46 10.1999C2.48343 10.3066 2.50263 10.3199 2.63318 10.3201L2.78 10.3203L2.66929 10.4101C2.57002 10.4906 2.56252 10.5134 2.59672 10.6307C2.63706 10.769 2.61481 10.772 2.47 10.6476Z" fill="white"/>
<path d="M4.07 10.6476C4.00771 10.5941 3.99228 10.5941 3.93 10.6476C3.78518 10.772 3.76293 10.769 3.80328 10.6307C3.83747 10.5134 3.82998 10.4906 3.73071 10.4101L3.62 10.3203L3.76682 10.3201C3.89737 10.3199 3.91656 10.3066 3.94 10.1999C3.95449 10.1339 3.98149 10.0799 4 10.0799C4.0185 10.0799 4.0455 10.1339 4.06 10.1999C4.08343 10.3066 4.10263 10.3199 4.23318 10.3201L4.38 10.3203L4.26373 10.4133C4.15634 10.4992 4.15087 10.5161 4.19212 10.6345C4.23966 10.7708 4.21641 10.7733 4.07 10.6476Z" fill="white"/>
<path d="M5.67 10.6476C5.60772 10.5941 5.59228 10.5941 5.53 10.6476C5.38359 10.7733 5.36034 10.7708 5.40787 10.6345C5.44913 10.5161 5.44366 10.4992 5.33627 10.4133L5.22 10.3203L5.36682 10.3201C5.49737 10.3199 5.51656 10.3066 5.54 10.1999C5.55449 10.1339 5.58149 10.0799 5.6 10.0799C5.6185 10.0799 5.6455 10.1339 5.66 10.1999C5.68343 10.3066 5.70263 10.3199 5.83318 10.3201L5.98 10.3203L5.86929 10.4101C5.77002 10.4906 5.76252 10.5134 5.79672 10.6307C5.83706 10.769 5.81481 10.772 5.67 10.6476Z" fill="white"/>
<path d="M7.27 10.6476C7.20772 10.5941 7.19228 10.5941 7.13 10.6476C6.98518 10.772 6.96293 10.769 7.00328 10.6307C7.03747 10.5134 7.02998 10.4906 6.93071 10.4101L6.82 10.3203L6.96682 10.3201C7.09737 10.3199 7.11656 10.3066 7.14 10.1999C7.15449 10.1339 7.18149 10.0799 7.2 10.0799C7.2185 10.0799 7.2455 10.1339 7.26 10.1999C7.28343 10.3066 7.30263 10.3199 7.43318 10.3201L7.58 10.3203L7.46373 10.4133C7.35634 10.4992 7.35087 10.5161 7.39212 10.6345C7.43966 10.7708 7.41641 10.7733 7.27 10.6476Z" fill="white"/>
<path d="M8.87 10.6476C8.80772 10.5941 8.79228 10.5941 8.73 10.6476C8.58359 10.7733 8.56034 10.7708 8.60787 10.6345C8.64913 10.5161 8.64366 10.4992 8.53627 10.4133L8.42 10.3203L8.56682 10.3201C8.69737 10.3199 8.71656 10.3066 8.74 10.1999C8.75449 10.1339 8.7815 10.0799 8.8 10.0799C8.8185 10.0799 8.8455 10.1339 8.86 10.1999C8.88343 10.3066 8.90263 10.3199 9.03318 10.3201L9.18 10.3203L9.06373 10.4133C8.95634 10.4992 8.95087 10.5161 8.99212 10.6345C9.03966 10.7708 9.01641 10.7733 8.87 10.6476Z" fill="white"/>
<path d="M1.67 9.9676C1.60772 9.91411 1.59228 9.91411 1.53 9.9676C1.38359 10.0933 1.36034 10.0908 1.40787 9.95449C1.44913 9.83615 1.44366 9.81925 1.33627 9.73332L1.22 9.64028L1.36682 9.64008C1.49737 9.63991 1.51656 9.62658 1.54 9.51988C1.55449 9.45388 1.58149 9.39988 1.6 9.39988C1.6185 9.39988 1.6455 9.45388 1.66 9.51988C1.68343 9.62658 1.70263 9.63992 1.83318 9.64008L1.98 9.64028L1.86373 9.73332C1.75634 9.81924 1.75087 9.83614 1.79212 9.95449C1.83966 10.0908 1.81641 10.0933 1.67 9.9676Z" fill="white"/>
<path d="M4.87 9.9676C4.80772 9.91411 4.79228 9.91411 4.73 9.9676C4.58359 10.0933 4.56034 10.0908 4.60787 9.95449C4.64913 9.83615 4.64366 9.81925 4.53627 9.73332L4.42 9.64028L4.56682 9.64008C4.69737 9.63991 4.71656 9.62658 4.74 9.51988C4.75449 9.45388 4.78149 9.39988 4.8 9.39988C4.8185 9.39988 4.8455 9.45388 4.86 9.51988C4.88343 9.62658 4.90263 9.63992 5.03318 9.64008L5.18 9.64028L5.06373 9.73332C4.95634 9.81924 4.95087 9.83614 4.99212 9.95449C5.03966 10.0908 5.01641 10.0933 4.87 9.9676Z" fill="white"/>
<path d="M8.07 9.9676C8.00772 9.91411 7.99228 9.91411 7.93 9.9676C7.78359 10.0933 7.76034 10.0908 7.80787 9.95449C7.84913 9.83615 7.84366 9.81925 7.73627 9.73332L7.62 9.64028L7.76682 9.64008C7.89737 9.63991 7.91656 9.62658 7.94 9.51988C7.95449 9.45388 7.98149 9.39988 8 9.39988C8.0185 9.39988 8.0455 9.45388 8.06 9.51988C8.08343 9.62658 8.10263 9.63992 8.23318 9.64008L8.38 9.64028L8.26373 9.73332C8.15634 9.81924 8.15087 9.83614 8.19212 9.95449C8.23966 10.0908 8.21641 10.0933 8.07 9.9676Z" fill="white"/>
<path d="M3.2731 9.97368C3.20503 9.91208 3.19487 9.91208 3.1268 9.97368C3.02096 10.0695 2.99016 10.0555 3.01888 9.92476C3.03978 9.82962 3.0247 9.79511 2.93206 9.72602L2.81995 9.64242L2.96677 9.64115C3.09698 9.64003 3.11658 9.6263 3.13995 9.51988C3.15445 9.45388 3.18145 9.39988 3.19995 9.39988C3.21845 9.39988 3.24545 9.45388 3.25995 9.51988C3.28333 9.6263 3.30292 9.64003 3.43313 9.64115L3.57995 9.64242L3.46784 9.72602C3.3752 9.79511 3.36012 9.82962 3.38102 9.92476C3.40973 10.0555 3.37894 10.0695 3.2731 9.97368Z" fill="white"/>
<path d="M6.4731 9.97368C6.40503 9.91208 6.39487 9.91208 6.3268 9.97368C6.22096 10.0695 6.19017 10.0555 6.21888 9.92476C6.23978 9.82962 6.2247 9.79511 6.13206 9.72602L6.01995 9.64242L6.16677 9.64115C6.29698 9.64003 6.31658 9.6263 6.33995 9.51988C6.35445 9.45388 6.38145 9.39988 6.39995 9.39988C6.41846 9.39988 6.44546 9.45388 6.45995 9.51988C6.48333 9.6263 6.50292 9.64003 6.63313 9.64115L6.77995 9.64242L6.66784 9.72602C6.5752 9.79511 6.56012 9.82962 6.58102 9.92476C6.60974 10.0555 6.57894 10.0695 6.4731 9.97368Z" fill="white"/>
<path d="M0.873098 9.29372C0.80503 9.23212 0.794866 9.23212 0.726798 9.29372C0.620906 9.38956 0.590166 9.37553 0.618938 9.24453C0.639626 9.15034 0.624526 9.1136 0.536722 9.04453L0.429162 8.95992H0.571378C0.69687 8.95992 0.716693 8.94581 0.73995 8.83992C0.754446 8.77392 0.781446 8.71992 0.79995 8.71992C0.818454 8.71992 0.845454 8.77392 0.85995 8.83992C0.883206 8.94581 0.903026 8.95992 1.02852 8.95992H1.17074L1.06318 9.04453C0.975375 9.1136 0.960273 9.15034 0.980962 9.24453C1.00973 9.37553 0.978986 9.38955 0.873098 9.29372Z" fill="white"/>
<path d="M2.4731 9.29372C2.40503 9.23212 2.39487 9.23212 2.3268 9.29372C2.22091 9.38956 2.19017 9.37553 2.21894 9.24453C2.23963 9.15034 2.22453 9.1136 2.13672 9.04453L2.02916 8.95992H2.17138C2.29687 8.95992 2.31669 8.94581 2.33995 8.83992C2.35445 8.77392 2.38145 8.71992 2.39995 8.71992C2.41845 8.71992 2.44545 8.77392 2.45995 8.83992C2.48321 8.94581 2.50303 8.95992 2.62852 8.95992H2.77074L2.66318 9.04453C2.57538 9.1136 2.56027 9.15034 2.58096 9.24453C2.60973 9.37553 2.57899 9.38955 2.4731 9.29372Z" fill="white"/>
<path d="M4.0731 9.29372C4.00503 9.23212 3.99487 9.23212 3.9268 9.29372C3.82091 9.38956 3.79017 9.37553 3.81894 9.24453C3.83963 9.15034 3.82453 9.1136 3.73672 9.04453L3.62916 8.95992H3.77138C3.89687 8.95992 3.91669 8.94581 3.93995 8.83992C3.95445 8.77392 3.98145 8.71992 3.99995 8.71992C4.01845 8.71992 4.04545 8.77392 4.05995 8.83992C4.08321 8.94581 4.10303 8.95992 4.22852 8.95992H4.37074L4.26318 9.04453C4.17538 9.1136 4.16027 9.15034 4.18096 9.24453C4.20973 9.37553 4.17899 9.38955 4.0731 9.29372Z" fill="white"/>
<path d="M5.6731 9.29372C5.60503 9.23212 5.59487 9.23212 5.5268 9.29372C5.42091 9.38956 5.39017 9.37553 5.41894 9.24453C5.43963 9.15034 5.42453 9.1136 5.33672 9.04453L5.22916 8.95992H5.37138C5.49687 8.95992 5.51669 8.94581 5.53995 8.83992C5.55445 8.77392 5.58145 8.71992 5.59995 8.71992C5.61845 8.71992 5.64545 8.77392 5.65995 8.83992C5.68321 8.94581 5.70303 8.95992 5.82852 8.95992H5.97074L5.86318 9.04453C5.77538 9.1136 5.76027 9.15034 5.78096 9.24453C5.80973 9.37553 5.77899 9.38955 5.6731 9.29372Z" fill="white"/>
<path d="M7.2731 9.29372C7.20503 9.23212 7.19487 9.23212 7.1268 9.29372C7.02091 9.38956 6.99017 9.37553 7.01894 9.24453C7.03963 9.15034 7.02453 9.1136 6.93672 9.04453L6.82916 8.95992H6.97138C7.09687 8.95992 7.11669 8.94581 7.13995 8.83992C7.15445 8.77392 7.18145 8.71992 7.19995 8.71992C7.21845 8.71992 7.24546 8.77392 7.25995 8.83992C7.28321 8.94581 7.30303 8.95992 7.42852 8.95992H7.57074L7.46318 9.04453C7.37538 9.1136 7.36027 9.15034 7.38096 9.24453C7.40974 9.37553 7.37899 9.38955 7.2731 9.29372Z" fill="white"/>
<path d="M8.8731 9.29372C8.80503 9.23212 8.79487 9.23212 8.7268 9.29372C8.62091 9.38956 8.59017 9.37553 8.61894 9.24453C8.63963 9.15034 8.62453 9.1136 8.53672 9.04453L8.42916 8.95992H8.57138C8.69687 8.95992 8.71669 8.94581 8.73995 8.83992C8.75445 8.77392 8.78145 8.71992 8.79995 8.71992C8.81845 8.71992 8.84546 8.77392 8.85995 8.83992C8.88321 8.94581 8.90303 8.95992 9.02852 8.95992H9.17074L9.06318 9.04453C8.97538 9.1136 8.96027 9.15034 8.98096 9.24453C9.00974 9.37553 8.97899 9.38955 8.8731 9.29372Z" fill="white"/>
<path d="M1.67 8.60764C1.60772 8.55416 1.59228 8.55416 1.53 8.60764C1.3836 8.73337 1.36034 8.73089 1.40785 8.59461C1.44857 8.47779 1.44296 8.45835 1.34401 8.37324L1.23554 8.27993H1.37459C1.49657 8.27993 1.51688 8.26519 1.54 8.15993C1.57371 8.00645 1.62629 8.00645 1.66 8.15993C1.68312 8.2652 1.70343 8.27993 1.82541 8.27993H1.96446L1.85598 8.37324C1.75704 8.45835 1.75143 8.47779 1.79215 8.59461C1.83965 8.73088 1.81639 8.73337 1.67 8.60764Z" fill="white"/>
<path d="M3.27 8.60764C3.20772 8.55416 3.19228 8.55416 3.13 8.60764C2.9836 8.73337 2.96034 8.73089 3.00785 8.59461C3.04857 8.47779 3.04296 8.45835 2.94401 8.37324L2.83554 8.27993H2.97459C3.09657 8.27993 3.11688 8.26519 3.14 8.15993C3.17371 8.00645 3.22629 8.00645 3.26 8.15993C3.28312 8.2652 3.30343 8.27993 3.42541 8.27993H3.56446L3.45598 8.37324C3.35704 8.45835 3.35143 8.47779 3.39215 8.59461C3.43965 8.73088 3.41639 8.73337 3.27 8.60764Z" fill="white"/>
<path d="M4.87 8.60764C4.80772 8.55416 4.79228 8.55416 4.73 8.60764C4.5836 8.73337 4.56034 8.73089 4.60785 8.59461C4.64857 8.47779 4.64296 8.45835 4.54401 8.37324L4.43554 8.27993H4.57459C4.69657 8.27993 4.71688 8.26519 4.74 8.15993C4.77371 8.00645 4.82629 8.00645 4.86 8.15993C4.88312 8.2652 4.90343 8.27993 5.02541 8.27993H5.16446L5.05598 8.37324C4.95704 8.45835 4.95143 8.47779 4.99215 8.59461C5.03965 8.73088 5.01639 8.73337 4.87 8.60764Z" fill="white"/>
<path d="M6.47 8.60764C6.40772 8.55416 6.39228 8.55416 6.33 8.60764C6.1836 8.73337 6.16034 8.73089 6.20785 8.59461C6.24857 8.47779 6.24296 8.45835 6.14401 8.37324L6.03554 8.27993H6.17459C6.29657 8.27993 6.31688 8.26519 6.34 8.15993C6.37371 8.00645 6.42629 8.00645 6.46 8.15993C6.48312 8.2652 6.50343 8.27993 6.62541 8.27993H6.76446L6.65598 8.37324C6.55704 8.45835 6.55143 8.47779 6.59215 8.59461C6.63965 8.73088 6.61639 8.73337 6.47 8.60764Z" fill="white"/>
<path d="M8.07 8.60764C8.00772 8.55416 7.99228 8.55416 7.93 8.60764C7.7836 8.73337 7.76034 8.73089 7.80785 8.59461C7.84857 8.47779 7.84296 8.45835 7.74401 8.37324L7.63554 8.27993H7.77459C7.89657 8.27993 7.91688 8.26519 7.94 8.15993C7.97371 8.00645 8.02629 8.00645 8.06 8.15993C8.08312 8.2652 8.10343 8.27993 8.22541 8.27993H8.36446L8.25598 8.37324C8.15704 8.45835 8.15143 8.47779 8.19215 8.59461C8.23966 8.73088 8.21639 8.73337 8.07 8.60764Z" fill="white"/>
<path d="M1.03689 8.04322L0.918398 7.95884L0.79991 7.87447L0.681414 7.95884L0.562918 8.04322L0.607658 7.91488C0.648498 7.79772 0.642938 7.7784 0.543922 7.69322L0.435446 7.59992H0.574498C0.696478 7.59992 0.716786 7.58518 0.739906 7.47992C0.773614 7.32644 0.826197 7.32644 0.859906 7.47992C0.883026 7.58518 0.903334 7.59992 1.02531 7.59992H1.16437L1.05589 7.69322C0.956872 7.7784 0.951314 7.79772 0.992154 7.91488L1.03689 8.04322Z" fill="white"/>
<path d="M2.63689 8.04322L2.5184 7.95884L2.39991 7.87447L2.28141 7.95884L2.16292 8.04322L2.20766 7.91488C2.2485 7.79772 2.24294 7.7784 2.14392 7.69322L2.03545 7.59992H2.1745C2.29648 7.59992 2.31679 7.58518 2.33991 7.47992C2.37361 7.32644 2.4262 7.32644 2.45991 7.47992C2.48303 7.58518 2.50333 7.59992 2.62531 7.59992H2.76437L2.65589 7.69322C2.55687 7.7784 2.55131 7.79772 2.59215 7.91488L2.63689 8.04322Z" fill="white"/>
<path d="M4.23689 8.04322L4.1184 7.95884L3.99991 7.87447L3.88141 7.95884L3.76292 8.04322L3.80766 7.91488C3.8485 7.79772 3.84294 7.7784 3.74392 7.69322L3.63545 7.59992H3.7745C3.89648 7.59992 3.91679 7.58518 3.93991 7.47992C3.97361 7.32644 4.0262 7.32644 4.05991 7.47992C4.08303 7.58518 4.10333 7.59992 4.22531 7.59992H4.36437L4.25589 7.69322C4.15687 7.7784 4.15131 7.79772 4.19215 7.91488L4.23689 8.04322Z" fill="white"/>
<path d="M5.83689 8.04322L5.7184 7.95884L5.59991 7.87447L5.48141 7.95884L5.36292 8.04322L5.40766 7.91488C5.4485 7.79772 5.44294 7.7784 5.34392 7.69322L5.23545 7.59992H5.3745C5.49647 7.59992 5.51679 7.58518 5.53991 7.47992C5.57362 7.32644 5.6262 7.32644 5.65991 7.47992C5.68303 7.58518 5.70333 7.59992 5.82531 7.59992H5.96437L5.85589 7.69322C5.75687 7.7784 5.75132 7.79772 5.79215 7.91488L5.83689 8.04322Z" fill="white"/>
<path d="M7.43689 8.04322L7.3184 7.95884L7.19991 7.87447L7.08141 7.95884L6.96292 8.04322L7.00766 7.91488C7.0485 7.79772 7.04294 7.7784 6.94392 7.69322L6.83545 7.59992H6.9745C7.09647 7.59992 7.11679 7.58518 7.13991 7.47992C7.17361 7.32644 7.2262 7.32644 7.25991 7.47992C7.28303 7.58518 7.30333 7.59992 7.42531 7.59992H7.56437L7.45589 7.69322C7.35687 7.7784 7.35132 7.79772 7.39216 7.91488L7.43689 8.04322Z" fill="white"/>
<path d="M9.03689 8.04322L8.9184 7.95884L8.79991 7.87447L8.68141 7.95884L8.56292 8.04322L8.60766 7.91488C8.6485 7.79772 8.64294 7.7784 8.54392 7.69322L8.43545 7.59992H8.5745C8.69648 7.59992 8.71679 7.58518 8.73991 7.47992C8.77361 7.32644 8.8262 7.32644 8.85991 7.47992C8.88303 7.58518 8.90333 7.59992 9.02532 7.59992H9.16437L9.05589 7.69322C8.95687 7.7784 8.95131 7.79772 8.99216 7.91488L9.03689 8.04322Z" fill="white"/>
<path d="M1.6731 7.25372C1.60503 7.19212 1.59487 7.19212 1.5268 7.25372C1.42091 7.34956 1.39016 7.33553 1.41893 7.20453C1.43962 7.11034 1.42452 7.0736 1.33671 7.00453L1.22915 6.91992H1.37555C1.50621 6.91992 1.52453 6.90703 1.54595 6.79992C1.55915 6.73392 1.58345 6.67992 1.59995 6.67992C1.61645 6.67992 1.64075 6.73392 1.65395 6.79992C1.67537 6.90703 1.69368 6.91992 1.82434 6.91992H1.97074L1.86318 7.00453C1.77538 7.0736 1.76027 7.11034 1.78096 7.20453C1.80973 7.33553 1.77899 7.34955 1.6731 7.25372Z" fill="white"/>
<path d="M3.2731 7.25372C3.20503 7.19212 3.19487 7.19212 3.1268 7.25372C3.02091 7.34956 2.99016 7.33553 3.01893 7.20453C3.03962 7.11034 3.02452 7.0736 2.93671 7.00453L2.82915 6.91992H2.97555C3.10621 6.91992 3.12453 6.90703 3.14595 6.79992C3.15915 6.73392 3.18345 6.67992 3.19995 6.67992C3.21645 6.67992 3.24075 6.73392 3.25395 6.79992C3.27537 6.90703 3.29368 6.91992 3.42434 6.91992H3.57074L3.46318 7.00453C3.37538 7.0736 3.36027 7.11034 3.38096 7.20453C3.40973 7.33553 3.37899 7.34955 3.2731 7.25372Z" fill="white"/>
<path d="M4.8731 7.25372C4.80503 7.19212 4.79487 7.19212 4.7268 7.25372C4.62091 7.34956 4.59016 7.33553 4.61893 7.20453C4.63962 7.11034 4.62452 7.0736 4.53671 7.00453L4.42915 6.91992H4.57555C4.70621 6.91992 4.72453 6.90703 4.74595 6.79992C4.75915 6.73392 4.78345 6.67992 4.79995 6.67992C4.81645 6.67992 4.84075 6.73392 4.85395 6.79992C4.87537 6.90703 4.89368 6.91992 5.02434 6.91992H5.17074L5.06318 7.00453C4.97538 7.0736 4.96027 7.11034 4.98096 7.20453C5.00973 7.33553 4.97899 7.34955 4.8731 7.25372Z" fill="white"/>
<path d="M6.4731 7.25372C6.40503 7.19212 6.39487 7.19212 6.3268 7.25372C6.22091 7.34956 6.19016 7.33553 6.21893 7.20453C6.23962 7.11034 6.22452 7.0736 6.13671 7.00453L6.02916 6.91992H6.17555C6.30621 6.91992 6.32453 6.90703 6.34595 6.79992C6.35915 6.73392 6.38345 6.67992 6.39995 6.67992C6.41645 6.67992 6.44075 6.73392 6.45395 6.79992C6.47537 6.90703 6.49368 6.91992 6.62434 6.91992H6.77074L6.66318 7.00453C6.57538 7.0736 6.56027 7.11034 6.58096 7.20453C6.60974 7.33553 6.57899 7.34955 6.4731 7.25372Z" fill="white"/>
<path d="M8.0731 7.25372C8.00503 7.19212 7.99487 7.19212 7.9268 7.25372C7.82091 7.34956 7.79016 7.33553 7.81893 7.20453C7.83962 7.11034 7.82452 7.0736 7.73671 7.00453L7.62916 6.91992H7.77555C7.90621 6.91992 7.92453 6.90703 7.94595 6.79992C7.95915 6.73392 7.98345 6.67992 7.99995 6.67992C8.01645 6.67992 8.04075 6.73392 8.05395 6.79992C8.07537 6.90703 8.09368 6.91992 8.22434 6.91992H8.37074L8.26318 7.00453C8.17538 7.0736 8.16027 7.11034 8.18096 7.20453C8.20973 7.33553 8.17899 7.34955 8.0731 7.25372Z" fill="white"/>
<path d="M1.00969 6.65553L0.904798 6.5868C0.805642 6.52183 0.794168 6.52183 0.695008 6.5868L0.590116 6.65553L0.617175 6.53233C0.639867 6.42901 0.626879 6.39548 0.536675 6.32452L0.429115 6.23992H0.571331C0.696823 6.23992 0.716646 6.2258 0.739903 6.11992C0.773611 5.96644 0.826194 5.96644 0.859903 6.11992C0.883159 6.22581 0.902979 6.23992 1.02847 6.23992H1.17069L1.06313 6.32452C0.97293 6.39548 0.959939 6.42902 0.982631 6.53233L1.00969 6.65553Z" fill="white"/>
<path d="M2.60969 6.65553L2.5048 6.5868C2.40564 6.52183 2.39417 6.52183 2.29501 6.5868L2.19012 6.65553L2.21718 6.53233C2.23987 6.42901 2.22688 6.39548 2.13668 6.32452L2.02912 6.23992H2.17133C2.29682 6.23992 2.31665 6.2258 2.3399 6.11992C2.37361 5.96644 2.42619 5.96644 2.4599 6.11992C2.48316 6.22581 2.50298 6.23992 2.62847 6.23992H2.77069L2.66313 6.32452C2.57293 6.39548 2.55994 6.42902 2.58263 6.53233L2.60969 6.65553Z" fill="white"/>
<path d="M4.20969 6.65553L4.1048 6.5868C4.00564 6.52183 3.99417 6.52183 3.89501 6.5868L3.79012 6.65553L3.81718 6.53233C3.83987 6.42901 3.82688 6.39548 3.73668 6.32452L3.62912 6.23992H3.77133C3.89682 6.23992 3.91665 6.2258 3.9399 6.11992C3.97361 5.96644 4.02619 5.96644 4.0599 6.11992C4.08316 6.22581 4.10298 6.23992 4.22848 6.23992H4.37069L4.26313 6.32452C4.17293 6.39548 4.15994 6.42902 4.18263 6.53233L4.20969 6.65553Z" fill="white"/>
<path d="M5.80969 6.65553L5.7048 6.5868C5.60564 6.52183 5.59417 6.52183 5.49501 6.5868L5.39012 6.65553L5.41718 6.53233C5.43987 6.42901 5.42688 6.39548 5.33668 6.32452L5.22912 6.23992H5.37133C5.49682 6.23992 5.51665 6.2258 5.5399 6.11992C5.57361 5.96644 5.62619 5.96644 5.6599 6.11992C5.68316 6.22581 5.70298 6.23992 5.82848 6.23992H5.97069L5.86313 6.32452C5.77293 6.39548 5.75994 6.42902 5.78263 6.53233L5.80969 6.65553Z" fill="white"/>
<path d="M7.40969 6.65553L7.3048 6.5868C7.20564 6.52183 7.19417 6.52183 7.09501 6.5868L6.99012 6.65553L7.01718 6.53233C7.03987 6.42901 7.02688 6.39548 6.93668 6.32452L6.82912 6.23992H6.97133C7.09682 6.23992 7.11665 6.2258 7.1399 6.11992C7.17361 5.96644 7.22619 5.96644 7.2599 6.11992C7.28316 6.22581 7.30298 6.23992 7.42848 6.23992H7.57069L7.46313 6.32452C7.37293 6.39548 7.35994 6.42902 7.38263 6.53233L7.40969 6.65553Z" fill="white"/>
<path d="M9.00969 6.65553L8.9048 6.5868C8.80564 6.52183 8.79417 6.52183 8.69501 6.5868L8.59012 6.65553L8.61718 6.53233C8.63987 6.42901 8.62688 6.39548 8.53668 6.32452L8.42912 6.23992H8.57133C8.69682 6.23992 8.71665 6.2258 8.7399 6.11992C8.77361 5.96644 8.82619 5.96644 8.8599 6.11992C8.88316 6.22581 8.90298 6.23992 9.02848 6.23992H9.17069L9.06313 6.32452C8.97293 6.39548 8.95994 6.42902 8.98263 6.53233L9.00969 6.65553Z" fill="white"/>
</g>
<defs>
<clipPath id="clip0">
<rect y="5.68" width="24" height="12.64" rx="1" fill="white"/>
</clipPath>
</defs>
</svg>
