<svg width="16" height="16" viewBox="0 0 16 16" fill="none" xmlns="http://www.w3.org/2000/svg">
<path fill-rule="evenodd" clip-rule="evenodd" d="M7.99935 1C4.13441 1 1 4.13398 1 8.00022C1 11.0929 3.00553 13.7164 5.78713 14.642C6.13736 14.7065 6.26499 14.4903 6.26499 14.3047C6.26499 14.1388 6.25897 13.6984 6.25553 13.1144C4.30845 13.5372 3.89763 12.1758 3.89763 12.1758C3.57921 11.3671 3.12026 11.1518 3.12026 11.1518C2.4847 10.7178 3.16839 10.7264 3.16839 10.7264C3.87099 10.7758 4.24055 11.4479 4.24055 11.4479C4.86494 12.5175 5.87909 12.2085 6.27788 12.0293C6.34148 11.5772 6.52239 11.2687 6.72221 11.0938C5.1679 10.9172 3.53366 10.3164 3.53366 7.63409C3.53366 6.87004 3.80653 6.24479 4.2543 5.75576C4.18211 5.57872 3.94189 4.86666 4.32306 3.90322C4.32306 3.90322 4.91049 3.715 6.2478 4.62086C6.80601 4.4653 7.40505 4.38795 8.00022 4.38494C8.59495 4.38795 9.19356 4.4653 9.75263 4.62086C11.0891 3.715 11.6756 3.90322 11.6756 3.90322C12.0577 4.86666 11.8175 5.57872 11.7457 5.75576C12.1943 6.24479 12.4651 6.87004 12.4651 7.63409C12.4651 10.3233 10.8282 10.915 9.26919 11.0882C9.52015 11.3044 9.74404 11.7315 9.74404 12.3847C9.74404 13.3202 9.73544 14.0752 9.73544 14.3047C9.73544 14.4921 9.86178 14.7099 10.2167 14.6416C12.9962 13.7138 15 11.0921 15 8.00022C15 4.13398 11.8656 1 7.99935 1Z" fill="black"/>
</svg>
