<svg viewBox="0 0 16 16" fill="none" xmlns="http://www.w3.org/2000/svg">
<g clip-path="url(#clip0_613_2170)">
<path fill-rule="evenodd" clip-rule="evenodd" d="M8.19526 0.108751C8.15339 0.04114 8.07952 0 8 0C7.92048 0 7.84661 0.0411398 7.80474 0.108751L7.38379 0.788525C7.32155 0.793802 7.25954 0.799872 7.19775 0.806722L6.65199 0.222878C6.59772 0.164821 6.51729 0.138948 6.43935 0.154472C6.3614 0.169997 6.29703 0.224713 6.26915 0.299134L5.98895 1.04698C5.92913 1.06432 5.86962 1.08241 5.81044 1.10125L5.16065 0.634182C5.09609 0.587776 5.01212 0.578063 4.93867 0.608506C4.86522 0.638948 4.81274 0.705215 4.79994 0.783686L4.67077 1.5753C4.61611 1.60375 4.56184 1.63289 4.508 1.66269L3.77754 1.32977C3.70514 1.29677 3.62081 1.3036 3.55466 1.34783C3.48851 1.39205 3.44996 1.46736 3.45278 1.54688L3.48126 2.3513C3.43425 2.38899 3.38773 2.42725 3.34169 2.46607L2.55755 2.28134C2.48011 2.26309 2.39874 2.28623 2.34248 2.34248C2.28623 2.39874 2.26309 2.48011 2.28134 2.55755L2.46608 3.34172C2.42727 3.38775 2.38902 3.43427 2.35135 3.48126L1.54688 3.45278C1.46736 3.44996 1.39205 3.48851 1.34783 3.55466C1.3036 3.62081 1.29677 3.70514 1.32977 3.77754L1.66273 4.50809C1.63295 4.5619 1.60383 4.61612 1.57539 4.67076L0.783686 4.79993C0.705215 4.81274 0.638948 4.86522 0.608506 4.93867C0.578063 5.01212 0.587776 5.09609 0.634183 5.16065L1.10131 5.81052C1.08248 5.86967 1.0644 5.92913 1.04707 5.98891L0.299134 6.26915C0.224713 6.29703 0.169997 6.3614 0.154473 6.43935C0.138948 6.51729 0.164822 6.59772 0.222879 6.65199L0.806777 7.1978C0.799929 7.25956 0.793862 7.32155 0.788586 7.38375L0.108751 7.80474C0.04114 7.84661 0 7.92047 0 8C0 8.07952 0.0411399 8.15339 0.108751 8.19526L0.788595 8.61625C0.793873 8.67845 0.799942 8.74043 0.806792 8.80218L0.222879 9.34801C0.164822 9.40228 0.138948 9.48271 0.154473 9.56065C0.169997 9.63859 0.224713 9.70297 0.299134 9.73085L1.04719 10.0111C1.06451 10.0709 1.08258 10.1303 1.1014 10.1894L0.634183 10.8394C0.587776 10.9039 0.578064 10.9879 0.608506 11.0613C0.638948 11.1348 0.705215 11.1873 0.783686 11.2001L1.57569 11.3293C1.60408 11.3838 1.63314 11.4379 1.66286 11.4916L1.32977 12.2225C1.29677 12.2949 1.3036 12.3792 1.34783 12.4453C1.39205 12.5115 1.46736 12.55 1.54688 12.5472L2.35179 12.5187C2.38936 12.5656 2.42749 12.6119 2.46618 12.6578L2.28134 13.4425C2.26309 13.5199 2.28623 13.6013 2.34248 13.6575C2.39874 13.7138 2.48011 13.7369 2.55755 13.7187L3.34215 13.5338C3.38804 13.5725 3.43442 13.6107 3.48128 13.6482L3.45278 14.4531C3.44996 14.5326 3.48851 14.608 3.55466 14.6522C3.62081 14.6964 3.70514 14.7032 3.77754 14.6702L4.50834 14.3372C4.56206 14.3669 4.61618 14.396 4.67072 14.4244L4.79994 15.2163C4.81274 15.2948 4.86522 15.3611 4.93867 15.3915C5.01212 15.4219 5.09609 15.4122 5.16065 15.3658L5.81059 14.8986C5.8697 14.9175 5.92914 14.9356 5.9889 14.9529L6.26915 15.7009C6.29703 15.7753 6.3614 15.83 6.43935 15.8455C6.51729 15.8611 6.59772 15.8352 6.65199 15.7771L7.19775 15.1933C7.25954 15.2001 7.32156 15.2062 7.3838 15.2115L7.80474 15.8912C7.84661 15.9589 7.92048 16 8 16C8.07952 16 8.15339 15.9589 8.19526 15.8912L8.61619 15.2115C8.67844 15.2062 8.74047 15.2001 8.80226 15.1933L9.34801 15.7771C9.40228 15.8352 9.48271 15.8611 9.56065 15.8455C9.63859 15.83 9.70297 15.7753 9.73085 15.7009L10.0111 14.9529C10.0709 14.9356 10.1303 14.9175 10.1895 14.8987L10.8394 15.3658C10.9039 15.4122 10.9879 15.4219 11.0613 15.3915C11.1348 15.3611 11.1873 15.2948 11.2001 15.2163L11.3293 14.4244C11.3838 14.396 11.438 14.3669 11.4917 14.3372L12.2225 14.6702C12.2949 14.7032 12.3792 14.6964 12.4453 14.6522C12.5115 14.608 12.55 14.5326 12.5472 14.4531L12.5187 13.6483C12.5656 13.6107 12.612 13.5726 12.658 13.5338L13.4425 13.7187C13.5199 13.7369 13.6013 13.7138 13.6575 13.6575C13.7138 13.6013 13.7369 13.5199 13.7187 13.4425L13.5338 12.658C13.5726 12.612 13.6107 12.5656 13.6483 12.5187L14.4531 12.5472C14.5326 12.55 14.608 12.5115 14.6522 12.4453C14.6964 12.3792 14.7032 12.2949 14.6702 12.2225L14.3372 11.4918C14.367 11.438 14.396 11.3838 14.4245 11.3293L15.2163 11.2001C15.2948 11.1873 15.3611 11.1348 15.3915 11.0613C15.4219 10.9879 15.4122 10.9039 15.3658 10.8394L14.8987 10.1895C14.9175 10.1303 14.9356 10.0709 14.953 10.0111L15.7009 9.73085C15.7753 9.70297 15.83 9.63859 15.8455 9.56065C15.8611 9.48271 15.8352 9.40228 15.7771 9.34801L15.1933 8.8023C15.2002 8.74048 15.2063 8.67843 15.2116 8.61616L15.8912 8.19526C15.9589 8.15339 16 8.07952 16 8C16 7.92047 15.9589 7.84661 15.8912 7.80474L15.2116 7.38384C15.2063 7.32157 15.2002 7.25952 15.1933 7.1977L15.7771 6.65199C15.8352 6.59772 15.8611 6.51729 15.8455 6.43935C15.83 6.3614 15.7753 6.29703 15.7009 6.26915L14.953 5.98893C14.9356 5.92914 14.9175 5.86966 14.8987 5.81052L15.3658 5.16065C15.4122 5.09609 15.4219 5.01212 15.3915 4.93867C15.3611 4.86522 15.2948 4.81274 15.2163 4.79993L14.4244 4.67073C14.396 4.61616 14.3669 4.562 14.3372 4.50826L14.6702 3.77754C14.7032 3.70514 14.6964 3.62081 14.6522 3.55466C14.608 3.48851 14.5326 3.44996 14.4531 3.45278L13.6483 3.48127C13.6107 3.43439 13.5726 3.38798 13.5338 3.34205L13.7187 2.55755C13.7369 2.48011 13.7138 2.39874 13.6575 2.34248C13.6013 2.28623 13.5199 2.26309 13.4425 2.28134L12.6579 2.46616C12.612 2.42744 12.5656 2.38928 12.5187 2.35169L12.5472 1.54688C12.55 1.46736 12.5115 1.39205 12.4453 1.34783C12.3792 1.3036 12.2949 1.29677 12.2225 1.32977L11.4917 1.66282C11.438 1.63308 11.3838 1.604 11.3293 1.5756L11.2001 0.783685C11.1873 0.705214 11.1348 0.638948 11.0613 0.608506C10.9879 0.578063 10.9039 0.587776 10.8394 0.634182L10.1894 1.10135C10.1303 1.08252 10.0709 1.06444 10.0111 1.04711L9.73085 0.299134C9.70297 0.224713 9.63859 0.169997 9.56065 0.154472C9.48271 0.138948 9.40228 0.164821 9.34801 0.222878L8.80223 0.806735C8.74045 0.799882 8.67844 0.79381 8.61621 0.788531L8.19526 0.108751ZM7.98935 1.40557C8.1131 1.40877 8.23071 1.46035 8.31709 1.5493C8.40347 1.63826 8.45179 1.75755 8.45175 1.88174C8.45175 2.00803 8.40158 2.12914 8.31228 2.21844C8.22298 2.30774 8.10186 2.35791 7.97557 2.35791C7.84929 2.35791 7.72817 2.30774 7.63887 2.21844C7.54957 2.12914 7.4994 2.00803 7.4994 1.88174C7.49937 1.81803 7.51213 1.75496 7.53692 1.69627C7.56171 1.63759 7.59802 1.58447 7.64371 1.54007C7.68939 1.49566 7.74352 1.46088 7.8029 1.43778C7.86227 1.41468 7.92567 1.40372 7.98935 1.40557ZM9.0795 2.18949C9.91542 2.34606 10.7072 2.68272 11.4 3.17609C12.0927 3.66946 12.6697 4.30772 13.091 5.04652L12.5291 6.31427C12.4326 6.53322 12.5321 6.79045 12.7495 6.88844L13.8305 7.36767C13.864 7.70556 13.8681 8.04572 13.8428 8.38432H13.241C13.1813 8.38432 13.1568 8.42413 13.1568 8.48231V8.75791C13.1568 9.4071 12.7909 9.54949 12.4694 9.5847C12.1631 9.61992 11.8248 9.45609 11.7819 9.2693C11.6055 8.278 11.3151 8.04887 10.8596 7.68933L10.8265 7.66317C11.416 7.28958 12.0284 6.73686 12.0284 5.99887C12.0284 5.20116 11.4818 4.69896 11.1097 4.45246C10.5861 4.10796 10.0073 4.03906 9.85117 4.03906H3.6349C4.49447 3.07881 5.64663 2.42874 6.91299 2.18949L7.64639 2.9581C7.81175 3.13112 8.08581 3.13877 8.25883 2.97188L9.0795 2.18949ZM2.31203 5.71408C2.43592 5.71767 2.55352 5.76942 2.63986 5.85833C2.72621 5.94724 2.77448 6.06632 2.77443 6.19025C2.77443 6.31654 2.72426 6.43766 2.63496 6.52696C2.54566 6.61626 2.42454 6.66643 2.29825 6.66643C2.17196 6.66643 2.05085 6.61626 1.96155 6.52696C1.87225 6.43766 1.82208 6.31654 1.82208 6.19025C1.82205 6.12655 1.83481 6.06348 1.8596 6.00479C1.88439 5.9461 1.9207 5.89298 1.96639 5.84858C2.01207 5.80418 2.0662 5.7694 2.12558 5.7463C2.18495 5.72319 2.24835 5.71224 2.31203 5.71408ZM13.6651 5.73552C13.789 5.7391 13.9066 5.79085 13.993 5.87977C14.0793 5.96868 14.1276 6.08775 14.1275 6.21169C14.1275 6.33798 14.0774 6.4591 13.9881 6.54839C13.8988 6.63769 13.7777 6.68786 13.6514 6.68786C13.5251 6.68786 13.404 6.63769 13.3147 6.54839C13.2254 6.4591 13.1752 6.33798 13.1752 6.21169C13.1752 6.14798 13.1879 6.08492 13.2127 6.02623C13.2375 5.96754 13.2738 5.91442 13.3195 5.87002C13.3652 5.82562 13.4193 5.79083 13.4787 5.76773C13.5381 5.74463 13.6015 5.73367 13.6651 5.73552ZM3.20926 5.81207H4.03911V9.55408H2.36409C2.15722 8.82764 2.09275 8.06806 2.17423 7.31714L3.20007 6.86088C3.41902 6.76289 3.51854 6.50719 3.42055 6.28825L3.20926 5.81207ZM6.67261 5.85188H8.64926C8.75184 5.85188 9.37041 5.96978 9.37041 6.4337C9.37041 6.81801 8.89577 6.9558 8.50533 6.9558H6.67108L6.67261 5.85188ZM6.67261 8.54049H8.18687C8.32466 8.54049 8.92639 8.5803 9.11777 9.34892C9.13885 9.43216 9.1691 9.5818 9.20337 9.75144L9.20338 9.75145C9.2662 10.0623 9.34258 10.4403 9.40103 10.5998C9.49136 10.8754 9.8573 11.4266 10.2477 11.4266H12.7189C12.5533 11.6484 12.3722 11.8582 12.1769 12.0544L11.171 11.8385C10.9367 11.788 10.7055 11.938 10.655 12.1723L10.4161 13.2869C9.64808 13.6348 8.81396 13.8129 7.97077 13.8089C7.12758 13.805 6.29517 13.6191 5.53041 13.2639L5.29155 12.1493C5.24103 11.915 5.01136 11.765 4.7771 11.8155L3.79261 12.0268C3.60991 11.8384 3.44009 11.6378 3.28428 11.4266H8.07203C8.12562 11.4266 8.16237 11.4174 8.16237 11.3669V9.67351C8.16237 9.62451 8.12562 9.6138 8.07203 9.6138H6.67108L6.67261 8.54049ZM4.46323 12.4188C4.58711 12.4224 4.70472 12.4741 4.79106 12.563C4.8774 12.6519 4.92567 12.771 4.92562 12.8949C4.92562 13.0212 4.87545 13.1423 4.78615 13.2316C4.69685 13.3209 4.57574 13.3711 4.44945 13.3711C4.32316 13.3711 4.20204 13.3209 4.11274 13.2316C4.02345 13.1423 3.97328 13.0212 3.97328 12.8949C3.97325 12.8312 3.98601 12.7682 4.0108 12.7095C4.03558 12.6508 4.07189 12.5977 4.11758 12.5533C4.16327 12.5089 4.2174 12.4741 4.27677 12.451C4.33614 12.4279 4.39955 12.4169 4.46323 12.4188ZM11.5139 12.4402C11.6378 12.4438 11.7554 12.4955 11.8418 12.5845C11.9281 12.6734 11.9764 12.7924 11.9763 12.9164C11.9763 13.0427 11.9262 13.1638 11.8369 13.2531C11.7476 13.3424 11.6265 13.3926 11.5002 13.3926C11.3739 13.3926 11.2528 13.3424 11.1635 13.2531C11.0742 13.1638 11.024 13.0427 11.024 12.9164C11.024 12.8527 11.0367 12.7896 11.0615 12.7309C11.0863 12.6722 11.1226 12.6191 11.1683 12.5747C11.214 12.5303 11.2681 12.4955 11.3275 12.4724C11.3869 12.4493 11.4503 12.4384 11.5139 12.4402Z" fill="#21324B"/>
</g>
</svg>
