<svg width="32" height="32" viewBox="0 0 32 32" fill="none" xmlns="http://www.w3.org/2000/svg">
<path d="M0.5 8C0.223858 8 0 8.22386 0 8.5V23.5C0 23.7761 0.223858 24 0.5 24H31.5C31.7761 24 32 23.7761 32 23.5V8.5C32 8.22386 31.7761 8 31.5 8H0.5Z" fill="#00247D"/>
<mask id="mask0" mask-type="alpha" maskUnits="userSpaceOnUse" x="0" y="8" width="32" height="16">
<path d="M0.5 8C0.223858 8 0 8.22386 0 8.5V23.5C0 23.7761 0.223858 24 0.5 24H31.5C31.7761 24 32 23.7761 32 23.5V8.5C32 8.22386 31.7761 8 31.5 8H0.5Z" fill="white"/>
</mask>
<g mask="url(#mask0)">
<path d="M0 8L32 24L0 8Z" fill="black"/>
<path d="M0 8L32 24" stroke="white" stroke-width="1.6"/>
<path d="M32 8L0 24L32 8Z" fill="black"/>
<path d="M32 8L0 24" stroke="white" stroke-width="1.6"/>
<mask id="mask1" mask-type="alpha" maskUnits="userSpaceOnUse" x="0" y="8" width="32" height="16">
<path fill-rule="evenodd" clip-rule="evenodd" d="M16 16H32V24L16 16ZM16 16V24H0L16 16ZM16 16H0V8L16 16ZM16 16V8H32L16 16Z" fill="white"/>
</mask>
<g mask="url(#mask1)">
<path d="M0 8L32 24L0 8Z" fill="black"/>
<path d="M0 8L32 24" stroke="#CF142B" stroke-width="1.06667"/>
<path d="M32 8L0 24L32 8Z" fill="black"/>
<path d="M32 8L0 24" stroke="#CF142B" stroke-width="1.06667"/>
</g>
<path d="M16 8V24V8Z" fill="black"/>
<path d="M16 8V24" stroke="white" stroke-width="2.66667"/>
<path d="M0 16H32H0Z" fill="black"/>
<path d="M0 16H32" stroke="white" stroke-width="2.66667"/>
<path d="M16 8V24V8Z" fill="black"/>
<path d="M16 8V24" stroke="#CF142B" stroke-width="1.6"/>
<path d="M0 16H32H0Z" fill="black"/>
<path d="M0 16H32" stroke="#CF142B" stroke-width="1.6"/>
</g>
</svg>
