<svg width="32" height="32" viewBox="0 0 32 32" fill="none" xmlns="http://www.w3.org/2000/svg">
<rect y="4" width="32" height="24" rx="1" fill="white"/>
<path d="M32 4H0V12H32V4Z" fill="#FF9933"/>
<path d="M32 20H0V28H32V20Z" fill="#128807"/>
<path d="M16 20C18.2091 20 20 18.2091 20 16C20 13.7909 18.2091 12 16 12C13.7909 12 12 13.7909 12 16C12 18.2091 13.7909 20 16 20Z" fill="#000088"/>
<path d="M16 19.5C17.933 19.5 19.5 17.933 19.5 16C19.5 14.067 17.933 12.5 16 12.5C14.067 12.5 12.5 14.067 12.5 16C12.5 17.933 14.067 19.5 16 19.5Z" fill="white"/>
<path d="M16.0008 16.7C16.3874 16.7 16.7008 16.3866 16.7008 16C16.7008 15.6134 16.3874 15.3 16.0008 15.3C15.6142 15.3 15.3008 15.6134 15.3008 16C15.3008 16.3866 15.6142 16.7 16.0008 16.7Z" fill="#000088"/>
<path d="M19.4481 16.6303C19.544 16.643 19.6319 16.5755 19.6445 16.4797C19.6571 16.3839 19.5896 16.296 19.4938 16.2833C19.398 16.2707 19.3101 16.3382 19.2975 16.434C19.2849 16.5298 19.3523 16.6177 19.4481 16.6303Z" fill="#000088"/>
<path d="M16.0009 19.5L16.1209 17.4L16.0009 16.4L15.8809 17.4L16.0009 19.5Z" fill="#000088"/>
<path d="M19.1664 17.5011C19.2557 17.5381 19.3581 17.4957 19.3951 17.4064C19.432 17.3171 19.3896 17.2147 19.3004 17.1777C19.2111 17.1407 19.1087 17.1831 19.0717 17.2724C19.0347 17.3617 19.0771 17.4641 19.1664 17.5011Z" fill="#000088"/>
<path d="M15.0948 19.3807L15.7543 17.3834L15.8972 16.3864L15.5224 17.3212L15.0948 19.3807Z" fill="#000088"/>
<path d="M18.6699 18.2695C18.7466 18.3283 18.8564 18.3139 18.9153 18.2372C18.9741 18.1605 18.9597 18.0507 18.883 17.9918C18.8063 17.933 18.6964 17.9474 18.6376 18.0241C18.5788 18.1008 18.5932 18.2107 18.6699 18.2695Z" fill="#000088"/>
<path d="M14.2492 19.0311L15.4032 17.2724L15.7992 16.3464L15.1953 17.1524L14.2492 19.0311Z" fill="#000088"/>
<path d="M17.991 18.8833C18.0498 18.9599 18.1597 18.9744 18.2363 18.9156C18.313 18.8567 18.3275 18.7469 18.2686 18.6702C18.2098 18.5935 18.0999 18.5791 18.0233 18.6379C17.9466 18.6967 17.9321 18.8066 17.991 18.8833Z" fill="#000088"/>
<path d="M13.5256 18.4749L15.0954 17.0748L15.7177 16.2828L14.9257 16.9051L13.5256 18.4749Z" fill="#000088"/>
<path d="M17.1772 19.3005C17.2142 19.3898 17.3166 19.4322 17.4059 19.3953C17.4951 19.3583 17.5375 19.2559 17.5006 19.1666C17.4636 19.0773 17.3612 19.0349 17.2719 19.0719C17.1826 19.1089 17.1402 19.2113 17.1772 19.3005Z" fill="#000088"/>
<path d="M12.9691 17.75L14.8477 16.8039L15.6538 16.2L14.7277 16.5961L12.9691 17.75Z" fill="#000088"/>
<path d="M16.2833 19.4929C16.2959 19.5887 16.3838 19.6562 16.4796 19.6436C16.5754 19.6309 16.6429 19.543 16.6303 19.4472C16.6176 19.3514 16.5297 19.2839 16.4339 19.2966C16.3381 19.3092 16.2706 19.3971 16.2833 19.4929Z" fill="#000088"/>
<path d="M12.6187 16.9059L14.6782 16.4783L15.6131 16.1035L14.6161 16.2464L12.6187 16.9059Z" fill="#000088"/>
<path d="M15.3704 19.4472C15.3578 19.543 15.4252 19.6309 15.521 19.6436C15.6169 19.6562 15.7048 19.5887 15.7174 19.4929C15.73 19.3971 15.6626 19.3092 15.5667 19.2966C15.4709 19.2839 15.383 19.3514 15.3704 19.4472Z" fill="#000088"/>
<path d="M12.4996 16L14.5996 16.12L15.5996 16L14.5996 15.88L12.4996 16Z" fill="#000088"/>
<path d="M14.4983 19.1666C14.4614 19.2559 14.5038 19.3583 14.5931 19.3953C14.6823 19.4322 14.7847 19.3898 14.8217 19.3005C14.8587 19.2113 14.8163 19.1089 14.727 19.0719C14.6377 19.0349 14.5353 19.0773 14.4983 19.1666Z" fill="#000088"/>
<path d="M12.6191 15.0941L14.6165 15.7536L15.6135 15.8965L14.6786 15.5217L12.6191 15.0941Z" fill="#000088"/>
<path d="M13.731 18.6702C13.6722 18.7469 13.6867 18.8567 13.7633 18.9156C13.84 18.9744 13.9499 18.9599 14.0087 18.8833C14.0675 18.8066 14.0531 18.6967 13.9764 18.6379C13.8997 18.5791 13.7899 18.5935 13.731 18.6702Z" fill="#000088"/>
<path d="M12.9682 14.25L14.7269 15.4039L15.6529 15.8L14.8469 15.1961L12.9682 14.25Z" fill="#000088"/>
<path d="M13.1168 17.9918C13.0402 18.0507 13.0257 18.1605 13.0845 18.2372C13.1434 18.3139 13.2532 18.3283 13.3299 18.2695C13.4066 18.2107 13.4211 18.1008 13.3622 18.0241C13.3034 17.9474 13.1935 17.933 13.1168 17.9918Z" fill="#000088"/>
<path d="M13.5259 13.5251L14.9259 15.0949L15.7179 15.7171L15.0956 14.9252L13.5259 13.5251Z" fill="#000088"/>
<path d="M12.6985 17.1777C12.6092 17.2147 12.5668 17.3171 12.6038 17.4064C12.6408 17.4957 12.7432 17.5381 12.8325 17.5011C12.9218 17.4641 12.9642 17.3617 12.9272 17.2724C12.8902 17.1831 12.7878 17.1407 12.6985 17.1777Z" fill="#000088"/>
<path d="M14.2504 12.9689L15.1965 14.8476L15.8004 15.6536L15.4043 14.7276L14.2504 12.9689Z" fill="#000088"/>
<path d="M12.5074 16.2833C12.4116 16.296 12.3441 16.3839 12.3567 16.4797C12.3693 16.5755 12.4572 16.643 12.5531 16.6303C12.6489 16.6177 12.7163 16.5298 12.7037 16.434C12.6911 16.3382 12.6032 16.2707 12.5074 16.2833Z" fill="#000088"/>
<path d="M15.0935 12.6193L15.5211 14.6788L15.8958 15.6136L15.7529 14.6166L15.0935 12.6193Z" fill="#000088"/>
<path d="M12.5519 15.3697C12.456 15.357 12.3681 15.4245 12.3555 15.5203C12.3429 15.6161 12.4104 15.704 12.5062 15.7167C12.602 15.7293 12.6899 15.6618 12.7025 15.566C12.7151 15.4702 12.6477 15.3823 12.5519 15.3697Z" fill="#000088"/>
<path d="M15.9991 12.5L15.8791 14.6L15.9991 15.6L16.1191 14.6L15.9991 12.5Z" fill="#000088"/>
<path d="M12.8336 14.4989C12.7443 14.4619 12.6419 14.5043 12.6049 14.5936C12.568 14.6829 12.6104 14.7853 12.6996 14.8223C12.7889 14.8593 12.8913 14.8169 12.9283 14.7276C12.9653 14.6383 12.9229 14.5359 12.8336 14.4989Z" fill="#000088"/>
<path d="M16.9052 12.6193L16.2457 14.6166L16.1028 15.6136L16.4776 14.6788L16.9052 12.6193Z" fill="#000088"/>
<path d="M13.3301 13.7305C13.2534 13.6717 13.1436 13.6861 13.0847 13.7628C13.0259 13.8395 13.0403 13.9493 13.117 14.0082C13.1937 14.067 13.3036 14.0525 13.3624 13.9759C13.4212 13.8992 13.4068 13.7893 13.3301 13.7305Z" fill="#000088"/>
<path d="M17.7508 12.9689L16.5968 14.7276L16.2008 15.6536L16.8047 14.8476L17.7508 12.9689Z" fill="#000088"/>
<path d="M14.009 13.1167C13.9502 13.04 13.8403 13.0256 13.7637 13.0844C13.687 13.1433 13.6725 13.2531 13.7314 13.3298C13.7902 13.4065 13.9001 13.4209 13.9767 13.3621C14.0534 13.3033 14.0679 13.1934 14.009 13.1167Z" fill="#000088"/>
<path d="M18.4744 13.5251L16.9046 14.9252L16.2823 15.7171L17.0743 15.0949L18.4744 13.5251Z" fill="#000088"/>
<path d="M14.8228 12.6995C14.7858 12.6102 14.6834 12.5678 14.5941 12.6047C14.5049 12.6417 14.4625 12.7441 14.4994 12.8334C14.5364 12.9227 14.6388 12.9651 14.7281 12.9281C14.8174 12.8911 14.8598 12.7887 14.8228 12.6995Z" fill="#000088"/>
<path d="M19.0309 14.25L17.1523 15.1961L16.3463 15.8L17.2723 15.4039L19.0309 14.25Z" fill="#000088"/>
<path d="M15.7167 12.5071C15.7041 12.4113 15.6162 12.3438 15.5204 12.3564C15.4246 12.3691 15.3571 12.457 15.3697 12.5528C15.3824 12.6486 15.4703 12.7161 15.5661 12.7034C15.6619 12.6908 15.7294 12.6029 15.7167 12.5071Z" fill="#000088"/>
<path d="M19.3813 15.0941L17.3218 15.5217L16.3869 15.8965L17.3839 15.7536L19.3813 15.0941Z" fill="#000088"/>
<path d="M16.6296 12.5528C16.6422 12.457 16.5748 12.3691 16.479 12.3564C16.3831 12.3438 16.2952 12.4113 16.2826 12.5071C16.27 12.6029 16.3374 12.6908 16.4333 12.7034C16.5291 12.7161 16.617 12.6486 16.6296 12.5528Z" fill="#000088"/>
<path d="M19.5004 16L17.4004 15.88L16.4004 16L17.4004 16.12L19.5004 16Z" fill="#000088"/>
<path d="M17.5017 12.8334C17.5386 12.7441 17.4962 12.6417 17.4069 12.6047C17.3177 12.5678 17.2153 12.6102 17.1783 12.6995C17.1413 12.7887 17.1837 12.8911 17.273 12.9281C17.3623 12.9651 17.4647 12.9227 17.5017 12.8334Z" fill="#000088"/>
<path d="M19.3809 16.9059L17.3835 16.2464L16.3865 16.1035L17.3214 16.4783L19.3809 16.9059Z" fill="#000088"/>
<path d="M18.269 13.3298C18.3278 13.2531 18.3133 13.1433 18.2367 13.0844C18.16 13.0256 18.0501 13.0401 17.9913 13.1167C17.9325 13.1934 17.9469 13.3033 18.0236 13.3621C18.1003 13.4209 18.2101 13.4065 18.269 13.3298Z" fill="#000088"/>
<path d="M19.0318 17.75L17.2731 16.5961L16.3471 16.2L17.1531 16.8039L19.0318 17.75Z" fill="#000088"/>
<path d="M18.8832 14.0082C18.9598 13.9493 18.9743 13.8395 18.9155 13.7628C18.8566 13.6861 18.7468 13.6717 18.6701 13.7305C18.5934 13.7893 18.5789 13.8992 18.6378 13.9759C18.6966 14.0526 18.8065 14.067 18.8832 14.0082Z" fill="#000088"/>
<path d="M18.4741 18.4749L17.0741 16.9051L16.2821 16.2828L16.9044 17.0748L18.4741 18.4749Z" fill="#000088"/>
<path d="M19.3015 14.8223C19.3908 14.7853 19.4332 14.6829 19.3962 14.5936C19.3592 14.5043 19.2568 14.4619 19.1675 14.4989C19.0782 14.5359 19.0358 14.6383 19.0728 14.7276C19.1098 14.8169 19.2122 14.8593 19.3015 14.8223Z" fill="#000088"/>
<path d="M17.7496 19.0311L16.8035 17.1524L16.1996 16.3464L16.5957 17.2724L17.7496 19.0311Z" fill="#000088"/>
<path d="M19.4926 15.7167C19.5884 15.704 19.6559 15.6161 19.6433 15.5203C19.6307 15.4245 19.5428 15.357 19.4469 15.3697C19.3511 15.3823 19.2837 15.4702 19.2963 15.566C19.3089 15.6618 19.3968 15.7293 19.4926 15.7167Z" fill="#000088"/>
<path d="M16.9065 19.3807L16.4789 17.3212L16.1042 16.3864L16.2471 17.3834L16.9065 19.3807Z" fill="#000088"/>
</svg>
