<svg xmlns="http://www.w3.org/2000/svg" width="153.088" height="55.344" viewBox="0 0 153.088 55.344"><g transform="translate(-301.702 -4.291)"><path d="M1.7,0V-16.33H8.924a4.635,4.635,0,0,1,2.082.472,5.385,5.385,0,0,1,1.645,1.242,5.861,5.861,0,0,1,1.081,1.748,5.258,5.258,0,0,1,.391,1.967,5.43,5.43,0,0,1-.793,2.887,4.555,4.555,0,0,1-2.151,1.874L14.9,0H11.339L8-5.474H4.876V0ZM4.876-8.257H8.855a1.679,1.679,0,0,0,.816-.207,2.088,2.088,0,0,0,.656-.563,2.809,2.809,0,0,0,.437-.84,3.253,3.253,0,0,0,.161-1.035,2.949,2.949,0,0,0-.184-1.058,2.761,2.761,0,0,0-.495-.839,2.236,2.236,0,0,0-.713-.552,1.851,1.851,0,0,0-.817-.2H4.876ZM21.942.23A6.688,6.688,0,0,1,19.32-.265a6.012,6.012,0,0,1-2-1.345,5.973,5.973,0,0,1-1.277-1.978,6.348,6.348,0,0,1-.448-2.369,6.713,6.713,0,0,1,.437-2.426,5.922,5.922,0,0,1,1.265-2,6.039,6.039,0,0,1,2.013-1.369,6.7,6.7,0,0,1,2.656-.506,6.533,6.533,0,0,1,2.633.506A6.056,6.056,0,0,1,26.576-10.4a5.767,5.767,0,0,1,1.242,1.978,6.587,6.587,0,0,1,.425,2.346q0,.3-.011.575a2.339,2.339,0,0,1-.058.46H18.86A3.576,3.576,0,0,0,19.2-3.772a3.126,3.126,0,0,0,.713.943,3.105,3.105,0,0,0,.989.6,3.249,3.249,0,0,0,1.15.207,3.553,3.553,0,0,0,1.736-.448,2.374,2.374,0,0,0,1.116-1.185l2.645.736A5.377,5.377,0,0,1,25.427-.656,6.594,6.594,0,0,1,21.942.23ZM25.07-7.038a3.2,3.2,0,0,0-1-2.174,3.058,3.058,0,0,0-2.151-.816,3.07,3.07,0,0,0-1.161.219,3.031,3.031,0,0,0-.955.61,3.159,3.159,0,0,0-.678.943,3.323,3.323,0,0,0-.311,1.219ZM33.419.23a4.572,4.572,0,0,1-1.633-.288,3.925,3.925,0,0,1-1.311-.805,3.747,3.747,0,0,1-.863-1.208,3.657,3.657,0,0,1-.31-1.518,3.344,3.344,0,0,1,.379-1.576A3.613,3.613,0,0,1,30.74-6.394a5.245,5.245,0,0,1,1.621-.793,7.073,7.073,0,0,1,2.07-.288,8.919,8.919,0,0,1,1.576.138,6.417,6.417,0,0,1,1.368.391v-.69a2.416,2.416,0,0,0-.678-1.84,2.821,2.821,0,0,0-2.013-.644,5.33,5.33,0,0,0-1.886.345,8.758,8.758,0,0,0-1.886,1.012l-.943-1.955a8.9,8.9,0,0,1,5.014-1.541,5.875,5.875,0,0,1,4.036,1.277,4.677,4.677,0,0,1,1.438,3.692v3.749a1.083,1.083,0,0,0,.173.69.756.756,0,0,0,.563.23V0a6.862,6.862,0,0,1-1.357.161A2.055,2.055,0,0,1,38.491-.23,1.681,1.681,0,0,1,37.9-1.265l-.069-.667A5.334,5.334,0,0,1,35.88-.322,5.614,5.614,0,0,1,33.419.23Zm.874-2.254A4.015,4.015,0,0,0,35.777-2.3a2.693,2.693,0,0,0,1.093-.736,1.107,1.107,0,0,0,.506-.874V-5.29a7.546,7.546,0,0,0-1.2-.334,6.442,6.442,0,0,0-1.242-.126,3.293,3.293,0,0,0-1.955.54,1.623,1.623,0,0,0-.759,1.368,1.647,1.647,0,0,0,.6,1.3A2.171,2.171,0,0,0,34.293-2.024Zm8.28-4a6.558,6.558,0,0,1,.437-2.392A5.825,5.825,0,0,1,44.275-10.4a6.157,6.157,0,0,1,2-1.357,6.615,6.615,0,0,1,2.645-.506,6.339,6.339,0,0,1,3.369.851,5.435,5.435,0,0,1,2.082,2.231l-3.013.92a2.707,2.707,0,0,0-1.035-1.023A2.9,2.9,0,0,0,48.9-9.637a2.936,2.936,0,0,0-1.242.265,3.053,3.053,0,0,0-1,.736A3.409,3.409,0,0,0,45.989-7.5a4.3,4.3,0,0,0-.242,1.472A4.12,4.12,0,0,0,46-4.554a3.71,3.71,0,0,0,.679,1.15,2.981,2.981,0,0,0,1,.747,2.883,2.883,0,0,0,1.219.265,2.956,2.956,0,0,0,1.529-.414,2.328,2.328,0,0,0,.978-1.012l3.013.92A5.065,5.065,0,0,1,52.371-.644,6.433,6.433,0,0,1,48.944.23,6.615,6.615,0,0,1,46.3-.276a6.068,6.068,0,0,1-2-1.369,6.072,6.072,0,0,1-1.277-2A6.437,6.437,0,0,1,42.573-6.026ZM63.526-.621a13.754,13.754,0,0,1-1.518.552,6.377,6.377,0,0,1-1.886.276A4.378,4.378,0,0,1,58.915.046a2.655,2.655,0,0,1-.989-.518,2.528,2.528,0,0,1-.679-.92,3.33,3.33,0,0,1-.253-1.369V-9.683H55.407v-2.369h1.587v-3.91h3.082v3.91h2.53v2.369h-2.53V-3.8a1.1,1.1,0,0,0,.333.908,1.273,1.273,0,0,0,.817.264,2.835,2.835,0,0,0,.943-.161q.46-.161.736-.276ZM109.595,0V-16.33h6.923a4.635,4.635,0,0,1,2.081.472,5.385,5.385,0,0,1,1.645,1.242,5.861,5.861,0,0,1,1.081,1.748,5.258,5.258,0,0,1,.391,1.967,5.667,5.667,0,0,1-.368,2.012,5.588,5.588,0,0,1-1.035,1.737,5.085,5.085,0,0,1-1.61,1.219,4.658,4.658,0,0,1-2.07.46h-3.864V0Zm3.174-8.257h3.68a1.818,1.818,0,0,0,1.461-.713A2.95,2.95,0,0,0,118.5-10.9a3.182,3.182,0,0,0-.184-1.116,2.71,2.71,0,0,0-.483-.839,1.922,1.922,0,0,0-.7-.518,2.055,2.055,0,0,0-.816-.172h-3.542ZM123.6-16.79h3.082V-3.864a1.521,1.521,0,0,0,.322,1.035,1.157,1.157,0,0,0,.92.368,2.309,2.309,0,0,0,.609-.092,4.123,4.123,0,0,0,.633-.23l.414,2.346a5.96,5.96,0,0,1-1.449.46,7.905,7.905,0,0,1-1.5.161A3.086,3.086,0,0,1,124.4-.587a2.921,2.921,0,0,1-.794-2.2ZM134.2.23a4.572,4.572,0,0,1-1.633-.288,3.925,3.925,0,0,1-1.311-.805A3.747,3.747,0,0,1,130.4-2.07a3.657,3.657,0,0,1-.311-1.518,3.344,3.344,0,0,1,.38-1.576,3.613,3.613,0,0,1,1.058-1.231,5.245,5.245,0,0,1,1.622-.793,7.073,7.073,0,0,1,2.07-.288,8.919,8.919,0,0,1,1.576.138,6.417,6.417,0,0,1,1.368.391v-.69a2.416,2.416,0,0,0-.678-1.84,2.821,2.821,0,0,0-2.012-.644,5.33,5.33,0,0,0-1.886.345A8.758,8.758,0,0,0,131.7-8.763l-.943-1.955a8.9,8.9,0,0,1,5.014-1.541,5.875,5.875,0,0,1,4.036,1.277,4.677,4.677,0,0,1,1.438,3.692v3.749a1.083,1.083,0,0,0,.173.69.756.756,0,0,0,.564.23V0a6.862,6.862,0,0,1-1.357.161,2.055,2.055,0,0,1-1.345-.391,1.681,1.681,0,0,1-.587-1.035l-.069-.667a5.334,5.334,0,0,1-1.955,1.61A5.614,5.614,0,0,1,134.2.23Zm.874-2.254a4.015,4.015,0,0,0,1.484-.276,2.693,2.693,0,0,0,1.092-.736,1.107,1.107,0,0,0,.506-.874V-5.29a7.546,7.546,0,0,0-1.2-.334,6.442,6.442,0,0,0-1.242-.126,3.293,3.293,0,0,0-1.955.54,1.623,1.623,0,0,0-.759,1.368,1.647,1.647,0,0,0,.6,1.3A2.171,2.171,0,0,0,135.079-2.024Zm8.993,4.37a5.946,5.946,0,0,0,.759.172,4.136,4.136,0,0,0,.621.057A1.318,1.318,0,0,0,146,2.461a1.182,1.182,0,0,0,.46-.4,3.929,3.929,0,0,0,.414-.793q.207-.506.437-1.265l-4.761-12.052h3.174l3.266,9.384,2.9-9.384h2.9L149.73,2.392a4.315,4.315,0,0,1-1.495,2.07,4.2,4.2,0,0,1-2.622.805,4.985,4.985,0,0,1-.748-.057,4.781,4.781,0,0,1-.793-.2Z" transform="translate(300 41.557)" fill="#fff"/><path d="M18.8,1.8A33.45,33.45,0,0,0,6.207,3.983C3.489,5.131,1.8,6.647,1.8,7.938s1.689,2.807,4.407,3.955A33.45,33.45,0,0,0,18.8,14.077,33.45,33.45,0,0,0,31.4,11.893C34.114,10.746,35.8,9.23,35.8,7.938S34.114,5.131,31.4,3.983A33.45,33.45,0,0,0,18.8,1.8m0-1.8C29.185,0,37.6,3.554,37.6,7.938s-8.418,7.938-18.8,7.938S0,12.323,0,7.938,8.418,0,18.8,0Z" transform="translate(384.908 11.711) rotate(60)" fill="#00f2fe"/><path d="M18.729,1.8A33.887,33.887,0,0,0,6.175,3.937C3.476,5.056,1.8,6.523,1.8,7.766s1.676,2.71,4.375,3.829a33.887,33.887,0,0,0,12.554,2.137,33.887,33.887,0,0,0,12.554-2.137c2.7-1.119,4.375-2.586,4.375-3.829s-1.676-2.71-4.375-3.829A33.887,33.887,0,0,0,18.729,1.8m0-1.8C29.073,0,37.459,3.477,37.459,7.766s-8.385,7.766-18.729,7.766S0,12.055,0,7.766,8.385,0,18.729,0Z" transform="translate(368.09 24.125)" fill="#00f2fe"/><path d="M18.8,1.8A33.45,33.45,0,0,0,6.207,3.983C3.489,5.131,1.8,6.647,1.8,7.938s1.689,2.807,4.407,3.955A33.45,33.45,0,0,0,18.8,14.077,33.45,33.45,0,0,0,31.4,11.893C34.114,10.746,35.8,9.23,35.8,7.938S34.114,5.131,31.4,3.983A33.45,33.45,0,0,0,18.8,1.8m0-1.8C29.185,0,37.6,3.554,37.6,7.938s-8.418,7.938-18.8,7.938S0,12.323,0,7.938,8.418,0,18.8,0Z" transform="translate(403.709 19.649) rotate(120)" fill="#00f2fe"/><path d="M23.939,11.171a2.416,2.416,0,0,1,4.133,2.375l-.016.044a2.416,2.416,0,0,0,1.863,3.225l.08.013a2.416,2.416,0,0,1,0,4.765l-.08.013a2.416,2.416,0,0,0-1.863,3.225l.016.044a2.416,2.416,0,0,1-4.133,2.375h0a2.416,2.416,0,0,0-3.736,0h0a2.416,2.416,0,0,1-4.133-2.375l.016-.044a2.416,2.416,0,0,0-1.863-3.225l-.08-.013a2.416,2.416,0,0,1,0-4.765l.08-.013a2.416,2.416,0,0,0,1.863-3.225l-.016-.044A2.416,2.416,0,0,1,20.2,11.171h0a2.416,2.416,0,0,0,3.736,0Z" transform="translate(377.833 4.291) rotate(30)" fill="#00f2fe"/><path d="M5.128,1.122a1,1,0,0,1,1.621,0l3.983,5.515a1,1,0,0,1-.811,1.585H1.956a1,1,0,0,1-.811-1.585Z" transform="translate(392.758 25.535) rotate(90)" fill="#010326"/></g></svg>