<svg width="168" height="41" fill="none" xmlns="http://www.w3.org/2000/svg"><path d="M61.524 24.682c0-1.88-1.226-3.266-2.663-3.572 1.626-.563 2.805-2.067 2.805-3.9 0-3.173-2.098-4.959-5.846-4.959h-6.907v16.426h3.536v-6.203h3.276c1.415 0 2.24 1.057 2.24 2.631 0 1.669.188 2.867.471 3.572h3.56c-.283-.634-.472-1.645-.472-3.995ZM55.82 19.89h-3.371V15.07h3.253c1.886 0 2.451 1.222 2.451 2.444 0 1.198-.542 2.373-2.333 2.373Zm13.787 9.094c2.899 0 4.903-1.669 5.492-4.489H71.94c-.283 1.081-1.155 1.786-2.24 1.786-1.484 0-2.592-1.057-2.757-2.678h8.274c.047-.33.07-.635.07-1.011 0-3.337-2.404-5.664-5.68-5.664-3.442 0-5.94 2.444-5.94 6.017 0 3.571 2.498 6.039 5.94 6.039Zm-2.64-7.52c-.024-.987 1.037-2.021 2.522-2.021 1.485 0 2.451.963 2.498 2.02h-5.02Zm13.701 7.52c1.792 0 3.041-.705 3.89-1.716.188 1.175 1.084 1.716 2.24 1.716.895 0 1.484-.188 1.79-.33v-2.161c-.306.047-.588.094-.8.094-.52 0-.779-.188-.779-.8v-3.595c0-3.478-1.744-5.264-5.233-5.264-2.616 0-5.044 1.011-5.398 4.395h2.853c.188-1.245.919-1.81 2.663-1.81 1.25 0 2.075.565 2.075 1.41 0 .776-.59.87-2.31 1.128-2.523.376-5.163.917-5.163 3.455 0 2.326 1.886 3.478 4.172 3.478Zm.472-2.444c-.896 0-1.509-.447-1.509-1.27 0-.704.684-.986 2.004-1.174 1.155-.165 1.673-.259 2.357-.564v.87c0 1.292-1.603 2.138-2.852 2.138Zm14.147 2.444c3.088 0 5.068-1.81 5.422-4.677h-3.018c-.188 1.316-1.06 2.092-2.38 2.092-1.768 0-2.594-1.387-2.594-3.478 0-2.021.779-3.408 2.475-3.408 1.297 0 2.17.8 2.358 2.139h3.041c-.307-2.843-2.287-4.724-5.375-4.724-3.441 0-5.775 2.327-5.775 5.993 0 3.619 2.263 6.063 5.846 6.063Zm12.321 0c1.132 0 1.744-.165 2.522-.588v-2.373a5.042 5.042 0 0 1-1.838.329c-.99 0-1.721-.47-1.721-2.045v-4.605h3.324l.117-2.468h-3.441V13.99h-2.876v1.95c0 1.034-.259 1.293-1.32 1.293h-1.108v2.468h2.121v5.193c0 2.538 1.698 4.089 4.22 4.089Zm20.66-13.818v-2.937h-11.032v16.45h3.536v-6.745h5.539v-2.937h-5.539v-3.831h7.496Zm1.672 13.512h3.182V11.523h-3.182v17.154Zm11.431.306c3.559 0 6.129-2.538 6.129-6.016 0-3.502-2.57-6.04-6.129-6.04-3.536 0-6.105 2.538-6.105 6.04 0 3.478 2.569 6.016 6.105 6.016Zm0-2.585c-1.603 0-2.687-1.363-2.687-3.431s1.084-3.455 2.687-3.455c1.626 0 2.711 1.387 2.711 3.455s-1.085 3.431-2.711 3.431Zm23.541-9.165-2.735 8.013-2.498-8.013h-2.852l-2.853 7.708-2.475-7.708h-3.512l4.101 11.444h3.324l2.593-6.909 2.475 6.91h3.3L168 17.232h-3.088Z" fill="#fff"/><path fill-rule="evenodd" clip-rule="evenodd" d="M25.635 24.798c-.616 0-1.115.498-1.115 1.112v11.11c0 .614.5 1.112 1.115 1.112H36.78c.616 0 1.115-.498 1.115-1.111V25.91c0-.614-.5-1.112-1.115-1.112H25.635ZM22.29 25.91a3.339 3.339 0 0 1 3.344-3.334H36.78a3.338 3.338 0 0 1 3.344 3.334v11.11a3.338 3.338 0 0 1-3.344 3.334H25.635a3.339 3.339 0 0 1-3.344-3.333V25.91Z" fill="#fff"/><path fill-rule="evenodd" clip-rule="evenodd" d="M25.635 2.576c-.616 0-1.115.498-1.115 1.111V14.8c0 .613.5 1.11 1.115 1.11H36.78c.616 0 1.115-.497 1.115-1.11V3.687c0-.613-.5-1.11-1.115-1.11H25.635ZM22.29 3.687A3.339 3.339 0 0 1 25.635.354H36.78a3.339 3.339 0 0 1 3.344 3.333V14.8a3.339 3.339 0 0 1-3.344 3.333H25.635a3.339 3.339 0 0 1-3.344-3.334V3.689Z" fill="#FF0072"/><path fill-rule="evenodd" clip-rule="evenodd" d="M3.344 24.798c-.616 0-1.115.498-1.115 1.112v11.11c0 .614.5 1.112 1.115 1.112h11.145c.616 0 1.115-.498 1.115-1.111V25.91c0-.614-.5-1.112-1.115-1.112H3.344ZM0 25.91a3.339 3.339 0 0 1 3.344-3.334h11.145a3.339 3.339 0 0 1 3.344 3.334v11.11a3.339 3.339 0 0 1-3.344 3.334H3.344A3.339 3.339 0 0 1 0 37.021V25.91ZM3.344 2.576c-.616 0-1.115.498-1.115 1.111V14.8c0 .613.5 1.11 1.115 1.11h11.145c.616 0 1.115-.497 1.115-1.11V3.687c0-.613-.5-1.11-1.115-1.11H3.344ZM0 3.687A3.339 3.339 0 0 1 3.344.354h11.145a3.339 3.339 0 0 1 3.344 3.333V14.8a3.339 3.339 0 0 1-3.344 3.333H3.344A3.339 3.339 0 0 1 0 14.798V3.689Z" fill="#fff"/><path d="M16.719 12.576a3.339 3.339 0 0 0 3.343-3.333A3.338 3.338 0 0 0 16.72 5.91a3.339 3.339 0 0 0-3.344 3.333 3.339 3.339 0 0 0 3.344 3.333Z" fill="#fff"/><path d="M23.405 12.576a3.339 3.339 0 0 0 3.344-3.333 3.339 3.339 0 0 0-3.344-3.333 3.339 3.339 0 0 0-3.344 3.333 3.339 3.339 0 0 0 3.344 3.333ZM31.208 20.354a3.339 3.339 0 0 0 3.344-3.333 3.339 3.339 0 0 0-3.344-3.334 3.338 3.338 0 0 0-3.344 3.334 3.339 3.339 0 0 0 3.344 3.333Z" fill="#fff"/><path d="M31.208 27.02a3.339 3.339 0 0 0 3.344-3.333 3.339 3.339 0 0 0-3.344-3.333 3.339 3.339 0 0 0-3.344 3.333 3.338 3.338 0 0 0 3.344 3.334ZM16.719 34.799a3.338 3.338 0 0 0 3.343-3.333 3.339 3.339 0 0 0-3.343-3.334 3.339 3.339 0 0 0-3.344 3.334 3.339 3.339 0 0 0 3.344 3.333Z" fill="#fff"/><path d="M23.405 34.799a3.339 3.339 0 0 0 3.344-3.333 3.339 3.339 0 0 0-3.344-3.334 3.339 3.339 0 0 0-3.344 3.334 3.339 3.339 0 0 0 3.344 3.333ZM31.208 25.91c1.23 0 2.229-.996 2.229-2.223a2.226 2.226 0 0 0-2.23-2.222c-1.23 0-2.229.995-2.229 2.222 0 1.227.998 2.222 2.23 2.222ZM16.718 33.688c1.232 0 2.23-.995 2.23-2.223a2.226 2.226 0 0 0-2.23-2.222c-1.23 0-2.229.995-2.229 2.222 0 1.228.998 2.223 2.23 2.223Z" fill="#fff"/><path d="M23.406 33.688c1.231 0 2.229-.995 2.229-2.223a2.226 2.226 0 0 0-2.23-2.222c-1.23 0-2.228.995-2.228 2.222 0 1.228.998 2.223 2.229 2.223Z" fill="#fff"/><path opacity=".35" d="M22.291 8.688h-4.458v1.11h4.458v-1.11ZM30.65 17.576v4.445h1.115v-4.445H30.65ZM22.291 30.91h-4.458v1.11h4.458v-1.11Z" fill="#fff"/><path d="M16.718 11.466c1.232 0 2.23-.995 2.23-2.223a2.226 2.226 0 0 0-2.23-2.222c-1.23 0-2.229.995-2.229 2.222 0 1.227.998 2.223 2.23 2.223Z" fill="#fff"/><path d="M23.406 11.466c1.231 0 2.229-.995 2.229-2.223a2.226 2.226 0 0 0-2.23-2.222c-1.23 0-2.228.995-2.228 2.222 0 1.227.998 2.223 2.229 2.223ZM31.208 19.243c1.23 0 2.229-.995 2.229-2.222a2.226 2.226 0 0 0-2.23-2.223c-1.23 0-2.229.995-2.229 2.223 0 1.227.998 2.222 2.23 2.222Z" fill="#FF0072"/></svg>