<svg width="163" height="24" fill="none" xmlns="http://www.w3.org/2000/svg"><path d="M43.526 10.502a.289.289 0 0 0-.284.284v6.858c0 .213.107.319.32.319h5.467c.213 0 .32-.091.32-.274v-6.903a.285.285 0 0 0-.18-.264.284.284 0 0 0-.11-.02h-5.533Zm6.116-1.419h8.868a.294.294 0 0 0 .29-.289V6.346c0-.197-.092-.294-.274-.294H43.52c-.172 0-.264.091-.279.274v2.468a.293.293 0 0 0 .29.29h6.11Zm9.158 1.683a.263.263 0 0 0-.269-.264h-5.574a.269.269 0 0 0-.269.269v1.784h-2.28a.269.269 0 0 0-.238.39l2.533 4.86a.285.285 0 0 0 .254.158h5.478a.268.268 0 0 0 .238-.39l-1.014-1.987h.857a.288.288 0 0 0 .289-.284l-.005-4.536Zm53.386-.264a.288.288 0 0 0-.284.284v6.858c0 .213.107.319.32.319h5.467c.213 0 .32-.091.32-.274v-6.903a.292.292 0 0 0-.289-.284h-5.534Zm6.117-1.419h8.868a.292.292 0 0 0 .288-.289V6.346c0-.197-.091-.294-.278-.294h-15c-.172 0-.263.091-.279.274v2.468a.295.295 0 0 0 .289.289h6.112Zm9.157 1.683a.256.256 0 0 0-.021-.102.267.267 0 0 0-.248-.162h-5.574a.268.268 0 0 0-.269.269v1.784h-2.28a.27.27 0 0 0-.267.258.264.264 0 0 0 .029.132l2.534 4.86a.278.278 0 0 0 .253.158h5.493a.27.27 0 0 0 .267-.258.263.263 0 0 0-.029-.132l-1.013-1.987h.856a.29.29 0 0 0 .289-.284l-.02-4.536Zm-51.683 4.166h-9.121v-4.167a.263.263 0 0 0-.264-.263h-5.574a.263.263 0 0 0-.263.263v6.879c0 .213.111.319.34.319h14.918c.197 0 .294-.107.294-.32v-2.397a.316.316 0 0 0-.33-.314Zm.046-5.849a.269.269 0 0 0 .268-.268V6.346c0-.197-.091-.294-.274-.294H60.813c-.17 0-.26.091-.274.274v2.489a.269.269 0 0 0 .269.268h15.015Z" fill="#fff"/><path d="M69.689 10.502h-1.014c-.187 0-.278.086-.278.253v2.5c0 .172.1.258.298.258h7.095c.208 0 .314-.102.314-.3v-2.447a.265.265 0 0 0-.269-.264H69.69Zm23.454-1.419a.274.274 0 0 0 .264-.213l.507-2.585a.203.203 0 0 0-.234-.233h-5.422a.34.34 0 0 0-.364.294l-.482 2.418a.275.275 0 0 0 .263.319h5.468Zm-6.122 1.632-.84 4.217h-.827l-.836-4.217a.264.264 0 0 0-.258-.213h-5.468a.263.263 0 0 0-.259.32l1.394 6.842a.39.39 0 0 0 .38.3h10.936a.335.335 0 0 0 .36-.3l1.403-6.843a.263.263 0 0 0-.263-.319h-5.458a.268.268 0 0 0-.264.213ZM83.87 9.083a.269.269 0 0 0 .263-.32l-.477-2.417a.375.375 0 0 0-.36-.294H77.85c-.167 0-.253.071-.253.208v.086l.507 2.535a.269.269 0 0 0 .263.217l5.503-.015Zm16.22 1.419a.264.264 0 0 0-.264.264v6.898c0 .198.112.299.34.299h5.275c.223 0 .34-.101.34-.299v-6.898a.256.256 0 0 0-.021-.102.286.286 0 0 0-.058-.087.27.27 0 0 0-.19-.075h-5.422Zm-4.353-1.419h14.133c.198 0 .294-.106.294-.32V6.367a.278.278 0 0 0-.009-.128.273.273 0 0 0-.305-.186H95.757a.279.279 0 0 0-.319.314v2.398c-.01.213.102.319.3.319Zm48.742 0a.27.27 0 0 0 .268-.269V6.347c0-.197-.106-.294-.319-.294h-14.939a.295.295 0 0 0-.294.294v2.469a.258.258 0 0 0 .162.248c.032.013.067.02.102.02h15.02Zm-5.542 1.419a.263.263 0 0 0-.269.269v3.862a.303.303 0 0 1-.106.222.31.31 0 0 1-.233.077h-2.732c-.212 0-.319-.101-.319-.3v-3.861a.27.27 0 0 0-.268-.269h-5.574a.268.268 0 0 0-.189.079.271.271 0 0 0-.075.19v6.873a.32.32 0 0 0 .314.319h14.939c.203 0 .299-.107.299-.32v-6.872a.266.266 0 0 0-.079-.19.267.267 0 0 0-.19-.079h-5.518Zm22.842-1.419c.036 0 .07-.007.103-.02a.279.279 0 0 0 .085-.059.241.241 0 0 0 .056-.087.227.227 0 0 0 .019-.102V6.367c0-.213-.097-.315-.293-.315H146.81a.322.322 0 0 0-.225.092.325.325 0 0 0-.095.223v2.448a.258.258 0 0 0 .162.248c.032.013.067.02.102.02h15.025Zm-15.289 1.682v6.899a.302.302 0 0 0 .086.213.292.292 0 0 0 .213.086h5.443c.228 0 .339-.102.339-.299v-6.899a.265.265 0 0 0-.263-.263h-5.574a.263.263 0 0 0-.244.263Zm9.469.001v6.898a.295.295 0 0 0 .184.278.293.293 0 0 0 .115.021h5.442c.228 0 .34-.101.34-.299v-6.898a.269.269 0 0 0-.076-.187.266.266 0 0 0-.187-.077h-5.539a.266.266 0 0 0-.196.072.269.269 0 0 0-.083.192Z" fill="#fff"/><path fill-rule="evenodd" clip-rule="evenodd" d="M4.378 0H.208C.093 0 0 .086 0 .193V13.32c0 .107.093.193.208.193h4.17c.115 0 .208-.086.208-.193V.193C4.586.086 4.493 0 4.378 0ZM25.19 3.026h4.17c.115 0 .208.086.208.193v12.448c0 .107-.093.193-.208.193h-4.17c-.115 0-.208-.086-.208-.193V3.22c0-.107.093-.193.208-.193Zm-2.087 3.016h-4.17c-.114 0-.208.086-.208.192V17.76c0 .107.093.193.209.193h4.17c.114 0 .208-.086.208-.193V6.234c0-.106-.094-.192-.209-.192Zm8.33.01h4.17c.115 0 .208.086.208.192v2.631c0 .106-.093.193-.208.193h-4.17c-.115 0-.208-.087-.208-.193v-2.63c0-.107.093-.193.208-.193Zm-24.988 4.44h4.17c.115 0 .208.086.208.192v7.076c0 .107-.093.193-.208.193h-4.17c-.115 0-.208-.086-.208-.193v-7.076c0-.106.093-.192.208-.192Zm6.252 7.471h4.17c.115 0 .208.086.208.193v5.651c0 .107-.093.193-.208.193h-4.17c-.115 0-.208-.086-.208-.193v-5.651c0-.107.093-.193.208-.193Z" fill="url(#a)"/><defs><linearGradient id="a" x1="15.96" y1="24" x2="15.96" y2="0" gradientUnits="userSpaceOnUse"><stop stop-color="#B350CC"/><stop offset="1" stop-color="#4DD4FF"/></linearGradient></defs></svg>