<svg width="142" height="64" fill="none" xmlns="http://www.w3.org/2000/svg"><path d="m23.117.114-.227 7.858-.342 7.743v7.858l-.228 7.858-7.516-.228H0l.228-7.63-.114-7.744.342-7.744V.342h15.032l7.63-.228ZM8.655 10.135c0-.683 0-1.252.341-1.936.228-.455.456-.91.911-1.366a5.056 5.056 0 0 1 1.253-.911c.342-.228.797-.342 1.253-.342.341 0 .57 0 .91.114.342 0 .57.114.912.228l.683.341c.228.114.342.228.342.228l.114 3.644 2.277-.114.683-5.466c-.341-.114-.683-.341-1.024-.455-.456-.114-.911-.342-1.367-.342a17.38 17.38 0 0 0-3.416-.342c-1.253 0-2.392.342-3.53.798-1.025.341-1.936.91-2.62 1.708-.797.683-1.252 1.594-1.594 2.505-.342 1.025-.456 2.05-.456 3.075 0 .683.228 1.252.456 1.822.228.455.683 1.025 1.025 1.366.455.456.91.798 1.48 1.025.57.342 1.139.57 1.595.911l1.366.684c.57.227 1.025.569 1.48.91.456.342.798.684 1.14 1.14.341.455.569.91.569 1.48.114.683 0 1.48-.342 2.164a4.777 4.777 0 0 1-1.025 1.594 3.11 3.11 0 0 1-1.366 1.025 3.153 3.153 0 0 1-1.48.341c-.342 0-.684 0-1.026-.113-.455-.114-.797-.228-1.252-.342-.114-.228-.456-.342-.798-.456-.341-.114-.455-.227-.455-.341l.114-4.214-2.62.114-.683 5.694c.114.114.456.228.797.456a7.913 7.913 0 0 0 1.48.569c.684.228 1.367.342 2.05.456.798.113 1.595.227 2.392.227 1.025 0 2.05-.227 3.075-.57.797-.227 1.594-.569 2.277-1.024.57-.456 1.14-.911 1.595-1.48.455-.57.797-1.14 1.025-1.709.227-.57.455-1.139.57-1.822.113-.57.113-1.139.113-1.708 0-.683-.228-1.367-.456-1.936-.227-.57-.569-1.025-1.024-1.48a7.314 7.314 0 0 0-1.48-1.14c-.57-.34-1.14-.682-1.709-.91l-1.367-.57c-.455-.227-1.024-.569-1.48-.797a5.396 5.396 0 0 1-1.139-1.139c-.341-.455-.455-1.024-.57-1.594Zm37.012 22.093-6.833.228h-6.832l-6.72.227-.227-7.174-.342-7.288-.114-7.289-.341-7.288h6.719l6.719-.114h6.718l.342 7.06.342 7.175.455 7.175.114 7.288Zm-4.1-8.769H34.85V7.175h-6.036v21.75h12.754V23.46ZM56.482 32l-8.313-1.025-.114-6.947.114-6.946v-6.947l.113-6.946 7.858.341.114 7.175-.114 7.06.228 7.06.114 7.175ZM89.508.683l-1.024 6.605-1.025 6.605-1.253 6.605-1.025 6.605-1.253 6.491-6.15-.114-6.376-.455h-6.264l-6.263-.342.797-6.377 1.139-6.377 1.025-6.377.91-6.378L63.773.57l6.49.114L76.64.57l6.491.228 6.377-.114Zm-4.782 13.438c.113-1.367-.114-2.733-.684-4.1-.455-1.138-1.139-2.05-2.05-2.847-.91-.797-2.05-1.252-3.188-1.594-1.367-.341-2.847-.57-4.328-.57l-7.971-.113v1.708l.57.228h1.138c.113 0 .34.114.455.114.114.114.114.227.114.341l-3.53 18.335c0 .114-.115.341-.228.455-.114.114-.342.114-.456.114h-1.821V27.9l7.858.114c1.935.114 3.985-.227 5.807-.91 1.709-.684 3.189-1.595 4.442-2.962 1.252-1.252 2.163-2.847 2.847-4.555.683-1.48 1.025-3.416 1.025-5.466Zm-4.783-2.733c.227.797.227 1.594.227 2.505 0 1.14-.114 2.164-.341 3.189a28.515 28.515 0 0 1-.797 2.96c-.342.912-.798 1.709-1.367 2.506-.456.683-1.139 1.367-1.822 1.936-.683.57-1.367 1.025-2.164 1.253-.797.341-1.594.455-2.505.455H69.58l3.644-19.018h.455c.57 0 1.025.114 1.595.114a29.88 29.88 0 0 1 1.48.342l1.367.683a5.39 5.39 0 0 1 1.138 1.139c.342.683.57 1.253.684 1.936Zm36.553-4.783v6.377l-.113 6.377-.228 6.378-.114 6.49h-6.377l-6.264.57h-6.263l-6.377.456.227-6.72-.113-6.604.114-6.605.341-6.605V0l6.491.228h6.377l6.264.114 6.491-.228-.456 6.491Zm-5.694-.797L99.301 5.58l-3.417-.114-.341 20.726h3.416l11.502.342v-3.075l-11.502-.228.114-5.921 10.363.114v-3.075l-10.363-.114.114-5.58 11.502.228.113-3.075ZM141.209.114l-.228 7.858-.341 7.743v7.858l-.228 7.858-7.516-.228h-14.804l.114-7.63-.114-7.744.228-7.744V.342l7.629-.114h7.63l7.63-.114Zm-14.462 10.021c0-.683 0-1.252.341-1.936.228-.57.57-1.025.911-1.48a5.056 5.056 0 0 1 1.253-.911c.342-.228.797-.342 1.253-.342.341 0 .569 0 .911.114.341.114.683.114.911.342a5.5 5.5 0 0 0 .797.341c.228.114.341.228.341.228l.114 3.644 2.278-.114.797-5.466c-.342-.114-.797-.341-1.139-.455-.455-.114-.911-.342-1.366-.342-.456-.114-1.025-.228-1.481-.228h-1.936c-1.252 0-2.391.342-3.53.797-1.025.342-1.822 1.025-2.619 1.709a7.232 7.232 0 0 0-1.594 2.505c-.342 1.025-.456 2.05-.456 3.075 0 .683.228 1.252.456 1.822.227.455.683 1.025 1.025 1.366.455.456.911.797 1.48 1.025.569.342 1.025.57 1.594.911l1.367.684a10.4 10.4 0 0 1 1.48.91 5.4 5.4 0 0 1 1.139 1.14c.342.455.569.91.569 1.48 0 .683 0 1.48-.341 2.163a7.299 7.299 0 0 1-.911 1.595 3.11 3.11 0 0 1-1.367 1.025 3.15 3.15 0 0 1-1.48.341c-.342 0-.684 0-1.025-.114-.456-.113-.797-.227-1.253-.341-.341-.114-.683-.228-1.025-.456-.341-.114-.455-.228-.455-.341l.114-4.1-2.62.114-.797 5.694c.114.114.456.228.797.455a7.904 7.904 0 0 0 1.481.57c.683.227 1.366.341 1.936.455.797.114 1.594.228 2.391.114 1.025 0 2.05-.228 3.075-.57.797-.227 1.594-.569 2.278-1.024.569-.456 1.138-.911 1.594-1.48.455-.57.797-1.14 1.025-1.709.455-1.025.683-2.277.683-3.416 0-.683-.228-1.367-.455-1.936-.228-.57-.57-1.025-1.025-1.48a7.31 7.31 0 0 0-1.481-1.14c-.569-.341-1.139-.683-1.708-.91l-1.253-.684c-.455-.227-1.025-.569-1.48-.797a5.396 5.396 0 0 1-1.139-1.139c-.228-.569-.342-1.138-.455-1.708Z" fill="#ED1E79"/><path d="M19.701 48.854a49.25 49.25 0 0 0-.683 3.188c-.228.912-.456 1.936-.57 3.075-.113 1.14-.455 2.278-.797 3.417-.114.683-.341 1.48-.57 2.163 0 .228-.113.342-.113.57 0 .227-.114.341-.228.57l-.114.113c0 .114-.114.114-.114.228s-.113.114-.113.228l-.114.113-.114.114h-1.367l-.227-.114-.114-.113h-.114l-.114-.114v-.114c0-.114-.114-.114-.114-.228-.114-.114-.114-.228-.114-.342 0-.227-.114-.341-.114-.569 0-.114-.114-.342-.114-.456-.113-.227-.113-.569-.227-.797-.114-.455-.228-.797-.228-.91-.456-1.823-.911-4.214-1.48-6.606-.114-.341-.114-.57-.228-.91-.114-.342 0-.342-.114-.456v-.456c0-.114 0-.227-.114-.341 0-.114-.114-.228-.114-.342 0 0 0-.114-.114-.114 0 0-.114.114-.114.228-.114.228-.114.455-.114.683v1.025c-.113.57-.113 1.139-.227 1.708a281.877 281.877 0 0 1-.342 3.189c-.114 1.025-1.139 1.936-1.253 2.619-.113.57-.227 1.139-.341 1.594-.114.342-.228.684-.228 1.025 0 .114-.114.114-.114.228s0 .114-.114.228v.114c0 .114 0 0 0 0-.114.114-.228.341-.341.455l-.456.228c-.114.114-.228.114-.455.228-.228.113-.456.113-.798.113h-.455c0 .228 0 .342 0 0H5.58l-.228-.113h-.341l-.114-.114h-.114l-.228-.228v-.114l-.114-.114s-.114-.114-.114-.227c0 0 0-.114-.113-.114 0-.114 0-.114-.114-.228 0-.114 0-.114-.114-.228-.114-.228-.114-.57-.228-.797-.114-.228.114-.456.114-.683a64.284 64.284 0 0 0-.342-1.936 64.939 64.939 0 0 1-.341-1.936 462.006 462.006 0 0 0-1.025-5.352c-.342-1.709-.797-3.645-1.025-5.239 0-.456-.114-.911-.228-1.253-.228-1.138-.341-2.39-.228-3.644.114-.341.114-1.366.342-1.139.228.228.342-.227.456-.569.227-.57.455-.455.797-.455.797 0 1.708 2.846 2.05 5.807 0 .342.113.797.227 1.14.342 1.593.57 3.074.797 4.782.228 1.708.456 3.644.57 4.783.114.456.228.911.341 1.48.114.228.114.456.114.684.114-.342.114-.684.114-.911.114-1.48.342-2.62.342-3.075 0-.456.114-.797.228-1.253 0-.228.113-.455.113-.797 0-.114.114-.341.114-.57v-.341l.114-.57c.114-.796.228-1.48.456-2.277 0-.114 0-.228.114-.342 0-.113.113-.227.113-.341v-.228c-.113-.114-.113-.114 0-.228 0-.114.114-.114.114-.227v-.114l.114-.228.114-.114v-.228s0-.114.114-.114 0-.114 0-.114 0-.113.114-.113l.114-.114s0-.114.114-.114c0-.342.227-.57.569-.683.114-.114.228-.114.342-.228 0 0 .114 0 .114-.114h.911l.227.114c-.114.228-.114.228 0 .228l.228.114c.114 0 .114.113.228.113l.114.114v.114h.114c.114.228.227.342.455.57.228.341.342.569.456.91.227.456.341.798.455 1.253.114.456.342.911.456 1.48.114.228.114.57.227.798l.114.342c0 .113.114.227.114.341.228 1.139.456 2.278.57 3.075.114.797.455 1.822.569 2.62.228-1.14.455-2.392.683-3.531.342-2.164.683-4.328 1.139-6.15.114-.455.114-.91.228-1.48 0-.456 0-.911.228-1.253.113-.455.113-.91.227-1.48.114-.684.228-1.253.456-1.822 0-.114.114-.342.114-.456 0-.114 0 0 0 0 .114-.227.227-.341.341-.57a.89.89 0 0 1 .456-.455c.114-.114.228-.114.341-.227.228-.114.456-.114.684-.342.227-.228.341-.228.455-.114.57.911.797 2.05.684 3.075v.683c-.114.228-.228.456-.456.683-.911 1.025.114.456-.57 4.214-.341.57-.455 1.253-.455 1.822Zm6.492 8.541v1.253c0 .683 0 1.252-.114 1.935v.456c0 .114.114.114.114.228 0 0 0 .114-.114.227v.456c0 .228-.228.456-.455.57l-.114.113h-.456c-.114 0-.228.114-.455 0h-.342c-.228 0-.456-.114-.683-.114-.114 0-.342 0-.456-.113-.114-.114-.227-.228-.455-.228h-.114s-.114 0-.114-.114-.114-.114-.114-.114l-.114-.114-.114-.114s0-.114-.113-.114v-.911s0-.114.113-.227v-.456c.114-.228.114-.683.228-1.253.114-.569.228-1.252.228-1.822.114-.797.114-1.708.114-1.936 0-.569 0-1.252-.114-1.935-.114-.684 0-1.48 0-1.936.114-.684 0-1.367 0-2.05-.114-.797-.228-1.595-.228-2.164 0-.342 0-.57-.114-.911v-.911c0-.342-.114-.797-.114-1.139 0-.57-.113-1.025-.227-1.594-.114-.456-.114-1.025-.114-1.48v-.342c-.114-.342 0-.797.228-1.139.227-.114.341-.342.569-.342.228 0 .455 0 .57-.227.227-.114.569-.228.91-.228.797 0 1.367.57 1.48 1.366v.57c.115.455.229.91.229 1.366 0 .57-.114 1.14-.114 1.48 0 .115.114.228.114.456.113.684.113 1.367.113 2.05.114.911.114 1.936.228 2.278v.341c0 .228 0 .797-.114 1.367v1.594c.114.57.114 1.253.114 1.822v3.645c0 .113.114.341.114.455ZM37.466 41.11c0 .228 0 .342-.228.456l-2.05.341-.797.114c.114 1.139.114 2.392.228 3.53.114 1.822.114 4.556.228 6.264.114 3.872.114 2.505.227 6.377.114 1.139 0 2.278-.227 3.416-.114.684-.684 1.367-1.253 1.709-.114.114-.342.114-.456-.114-.227-.114-.455-.228-.569-.228a2.25 2.25 0 0 1-1.366-2.05 21.987 21.987 0 0 0 0-3.872c0-.683-.114-5.466-.114-6.15v-3.757 2.163-4.669c.114-.797 0-1.48-.114-2.277l-1.367.114c-.455.114-1.025.114-1.48-.114-.456-.228-.683-.57-.911-1.025v-.912c.114-.682.455-1.138.797-1.138.57 0 1.139 0 1.708-.114.342 0 2.505-.227 2.733-.227h.456c.341 0 .797-.114 1.139-.114-.228 0-.57.114-.911.114.341 0 .683 0 1.024-.114h1.139c-.228.114.684 0 1.48-.228 0 .114 0 .114-.113.228-.114.114.114.114.114.227.341.342.455.797.569 1.367 0 .228.114.455.114.683Zm14.123 14.349v.228-1.822 2.163c0 .797-.114 2.164-.114 2.847 0-.227-.114.228-.114.911v1.14c0 .455-.114.91-.228 1.366-.113 0-.114-.114-.114-.228-.113.228-.227.114-.341.228l-.342.341h-2.05c-.113 0-.227-.114-.341-.114v-.341c.114-.228.114-.456.114-.57.91-.455.455-.341.114-1.138v-6.264c0-1.025-.114-2.05-.114-2.96h-1.594.113c.228 0 .114 0 0 0h-2.505l-.342.113c-.341.114-.797.228-1.139.342a5.527 5.527 0 0 1 0 1.936c0 .683 0 1.366.114 1.936.114.57 0 1.025 0 1.139v2.277c0 .684 0 1.367-.114 1.936v.57a.346.346 0 0 1 0 .455v.456c0 .113 0 .227-.113.341a.245.245 0 0 1-.228.228l-.114.114-.342.114c-.114.114-.227.114-.341 0h-1.025c-.114 0-.342 0-.456-.114l-.341-.228-.114-.114-.114-.114a.245.245 0 0 1-.228-.227c-.114-.114-.114-.228-.114-.228v-.797c0-.114 0-.228.114-.342 0-.114 0-.228.114-.456 0-.227.114-.683.228-1.252.114-.57.114-1.253.227-1.936 0-.911.114-1.822.114-2.05v-3.189c-.114-.113-.341-.113-.455-.227-.114-.114-.228-.228-.228-.456v-.569c0-.114 0-.114.114-.114l.114-.114.114-.114.341-.341.114-.114c0-.342-.114-.684-.114-1.025-.114-.797-.227-1.709-.227-2.164 0-.228-.114-.797-.114-.911v-.911c0-.342-.114-.797-.114-1.139 0-.57-.114-1.025-.228-1.594-.114-.456-.114-1.025-.114-1.48.114-.114.114-.228 0-.342-.114-.342 0-.797.228-1.139.228-.114.342-.456.57-.342.227 0 .455-.114.683-.227.227-.114.57-.228.797-.228.797 0 1.366.683 1.366 1.366v.684c.114.455.114 1.025.114 1.594 0 .57-.114 1.139-.114 1.48 0 .114 0 .342.114.456.114.683.114 1.366.114 2.164 0 1.025.114 2.05.114 2.277v.114l.342-.114h.455c.114 0 .228 0 .342-.114h.569l.342-.114H48.4h-.57v-.341c0-.342 0-.57-.113-1.025-.114-.456-.114-1.139-.228-2.05a23.278 23.278 0 0 1 0-3.986c.114-.683.456-1.366 1.14-1.708a.347.347 0 0 1 .455 0c.113.114.341.114.569.228.797.342 1.367 1.025 1.48 1.936 0 1.253.114 3.188.228 4.441 0 .342.114 1.708.228 3.075a38.99 38.99 0 0 1 .114 3.075v1.025c-.114.569-.114 1.48-.114 2.39Zm20.041-6.263c0 .228 0 .342-.227.342-.57 0-1.139.113-1.708.227-.57.114-1.594.114-2.278.228-.341 0-.797.114-1.138.114h-.57v1.367c0 .91 0 1.822-.114 2.619-.114.797 0 1.708 0 2.391v4.442c0 .341 0 .797-.114 1.138 0 .114 0 .228-.113.342 0 .114 0 .114-.114.228l-.114.114c-.228.227-.456.341-.797.569-.114.114-.342.114-.57 0-.228 0-.455-.114-.683-.114-.228 0-.342-.114-.57-.228l-.341-.341c-.114-.114-.228-.228-.228-.342v-7.516c0-.57.114-1.139.114-1.708V50.22c0-2.05.114-3.986.228-4.555v-1.14c0-.34.114-.682.114-1.024.114-.683.227-1.367.227-2.05v-.797.342-.114c0-.114.114-.228.114-.342.114-.228.228-.455.456-.683.228-.228.455-.342.797-.57.342-.113.683-.227 1.025-.227H68.1c.341 0 .569 0 1.025-.114.455-.114.797-.114 1.138-.114 0 .114-.114.114-.227.228.227 0 .113.114.227.227.228.114.342.342.456.57.114.228.114.57.114.797 0 .114.114.228.114.342v.341c0 .228 0 .342-.114.342h-.342c-.342-.114-.683-.114-.91-.114h-.912l-.911.114-.911.114c-.228 0-.456 0-.797.114h-.342v1.253c0 .684-.114 1.936-.228 3.417v1.025h.57c.228 0 .455-.114.683-.114h1.822-.797 1.709c-.228.114.57 0 1.253-.114 0 .114 0 .114-.114.114s.114.114.114.227c.228.342.341.684.341 1.14.342.113.456.227.57.34Zm12.073-3.758v.455c0 .342-.114.684-.228 1.025-.114.456-.341.797-.57 1.14-.227.34-.455.796-.796 1.024-.342.342-.683.57-1.025.797h-.114l.114.114.228.114c.114 0 .114.114.227.114h.114l.114.114.114.114h.114l.114.113h.114l.114.114.113.114c.114.228.342.456.456.683l.114.114v.114l.114.114s0 .114.114.114v.228s0 .228.113.228c.114.227.114.569.114.797.114.455.114.91.114 1.366v2.392c0 1.138-.114 2.277-.228 2.733v1.822c0 .114-.113.228-.113.341 0 0 0 .114-.114.114-.114.114-.228.114-.342.228-.114.114-.228.114-.342.114l-.341.114c-.228 0-.456 0-.683.114a.346.346 0 0 1-.456 0c-.57-.114-.911-.57-1.025-1.14v-1.024c0-.228.114-.342.114-.57v-.569c0-.341.114-.91.114-1.594V55.23c0-.569-.114-1.025-.228-1.594 0-.228-.114-.455-.114-.683 0-.228-.114-.342-.114-.342s-.114-.227-.114-.341l-.113-.114.341.114h-.569s-.456-.228-.683-.228l-.684-.228h-1.252v2.164c0 .455 0 .91-.114 1.366-.114.911 0 2.05 0 3.189 0 .57 0 1.139-.114 1.708 0 .456-.114 1.025-.342 1.48-.114.456-.341.798-.57 1.253 0 .114-.113.114-.113.228s-.114.114-.114.228l-.228.341-.114.114c-.114 0-.227.114-.341.114h-.228c-.114 0-.228-.114-.342-.114l-.341-.341-.114-.228c-.114-.114-.114-.114-.114-.228-.114-.114-.114-.228-.228-.341 0 0-.114-.114-.114-.228 0 0 0-.114-.113-.114-.114 0-.342 0-.342-.342V60.47c0-.342.114-.683.114-1.025.114-.797.114-1.594.114-1.822v-5.694c0-1.367-.114-2.733 0-3.075.114-.797 0-1.48-.114-2.277 1.366-.684-.228-.228 0-2.506.114-.797 0-1.139-.228-1.252v-.684c-.228-1.594.114-3.188 1.025-3.302h.57c.682-.114 1.366-.114 2.05-.114h1.366c.227 0 .455 0 .683.114.57.114 1.025.228 1.48.455.342.114.684.342 1.025.456.228.114.456.228.57.455.114 0 .227.114.341.228l.114.114c.114 0 .114.114.114.114l.114.114.114.114.228.341.113.114.114.114c0 .114.114.228.228.342.228.341.342.683.456.91v.228c0 .114 0 .114.113.228.114.114 0 .114 0 .228v1.48l.342.57Zm-4.1-2.278c-.113-.227-.113-.341-.227-.455l-.228-.342c-.114-.114-.228-.228-.342-.228h-.455l-.114-.113h-.57l-.227-.456c-.342-.114-.683-.114-1.025-.228-.114 0-.114 0-.228-.114h-.114c.114.228.114.456.114.684 0 .227 0 .455.114.683l.342 2.733v3.53l.341-.114.57-.227c.341-.114.683-.228 1.025-.456.113 0 .227-.114.227-.114.114-.114.228-.114.342-.228.114-.227.342-.341.455-.569 0-.114.114-.228.114-.342.114-.114.114-.227.114-.455v-1.594c0-.114 0-.228-.114-.342-.114-.114 0-.114 0-.228v-.911s0-.114-.114-.114m.342 9.338c0-.113.114-.113 0 0Zm9.108 4.897v1.253c0 .683 0 1.252-.114 1.935v.456c0 .114.114.114.114.228 0 0 0 .114-.114.227v.456c0 .228-.227.456-.341.57l-.114.113h-.456c-.114 0-.228.114-.341 0h-.342c-.228 0-.456-.114-.683-.114-.114 0-.342 0-.456-.113-.114-.114-.228-.228-.341-.228h-.114s-.114 0-.114-.114-.114-.114-.114-.114h-.114l-.114-.114s0-.114-.114-.114v-1.025s0-.114.114-.227v-.456c.114-.228.114-.683.228-1.253.114-.569.228-1.252.228-1.822.114-.797.114-1.708.114-1.936 0-.569 0-1.252-.114-1.935-.114-.684 0-1.48 0-1.936 0-.684 0-1.367-.114-2.05-.114-.797-.228-1.595-.228-2.164 0-.342 0-.57-.114-.911v-.911c0-.342-.114-.797-.114-1.139 0-.57-.114-1.025-.227-1.594-.114-.456-.114-1.025-.114-1.48v-.342c-.114-.342 0-.797.227-1.139.228-.114.342-.342.57-.342.228 0 .455 0 .57-.227.227-.114.569-.228.91-.228.797 0 1.367.57 1.48 1.366v.57c.115.455.115.91.228 1.366 0 .57-.114 1.14-.114 1.48 0 .115.114.342.114.456 0 .114.114 1.14.114 2.05 0 .911.114 1.936.228 2.278v3.302c.114.57.114 1.253.114 1.822v3.645c-.342.113-.228.341-.228.455Zm11.73 4.669c0 .114.114.228 0 .228s0 0-.114.114l-.228.114h-.228c-.114 0-.227 0-.227.114-.228 0-.342 0-.456.114-.342 0-.683.113-1.025.227l-2.05.342h-2.391c-.342 0-.683-.114-1.025-.228h-.342l-.114-.114h-.227l-.114-.227h-.114l-.114-.114s-.114 0-.114-.114-.114 0-.114 0l-.227-.114-.228-.228h-.114l-.114-.228-.114-.114-.114-.113c0-.114-.114-.114-.114-.228l-.114-.228-.113-.228v-.114l-.114-.113c-.114-.114 0-.114 0-.228 0 0-.114-.114-.114-.228v-.114c-.114-.228-.114-.57-.114-.797 0-.114 0-.228-.114-.342v-2.392c0-1.593 0-3.416.114-5.351 0-.228 0-.456.114-.684v-.569c0-.228.114-.456.114-.683v-.342c0-.114.114-.228.114-.342.113-.91.227-1.708.341-2.505l.114-.57v-.568c.114-.341.114-.683.228-1.025l.114-.455c0-.114.114-.228.114-.342.114-.228.114-.455.114-.57.113-.34.227-.796.341-1.252.114-.455.342-.797.57-1.139l.341-.341a.856.856 0 0 1 .797-.57h.228c.228-.114.456-.114.797-.227.228 0 1.025-.114 1.367-.114h.57c.34-.114.683-.114 1.024-.114l.683-.114h1.709l.227.228.114.114c0 .113.114.113.114.227v.228s0 .114-.114.228-.114.228-.114.341c0 .114-.114.228-.114.228-.113.114-.227.342-.341.456-.114.114-.114.227-.228.227s-.114.114-.228.114h-.911c-.114 0-.683 0-1.025.114-.341.114-.797.114-1.138.114 0 .114-.114.228-.114.456l-.228.683c0 .228-.114.455-.114.683-.114.228-.114.456-.114.683 0 .114 0 .228-.114.228v.456c-.114.341-.227.91-.227 1.252-.114.228-.114.456-.114.684 0 .227-.114.455-.114.57 0 .227-.114.455-.114.682h1.367c.341 0 .683 0 1.024-.114h2.278s.114 0 .114.114h.228c.113 0 .113.114.227.228s.114.114.114.228.114.114.114.228 0 .341.114.455v.342a1.377 1.377 0 0 1-.797.797c-.228.114-.456.114-.797.228-.228 0-.57 0-.797.114-.228.113-.114 0 0 0 .113 0 .113 0 0 0l-.57.113h-2.05c-.341.114-.797.114-1.138.228v.456c-.114.455-.114.91-.114 1.48v7.971s.114 0 .114.114l.227.227.456.114h1.708c-.114 0 .228 0 .683-.114.342 0 .57-.114.911-.227.114 0 .342-.114.456-.114.114 0 .114 0 .228-.114l.227-.114c0 .114 0 .114-.114.114.114 0 .114.114.228.114.456.114.683.455.911.683.228.455.342.57.456.683Zm14.919-13.666v8.769c-.114.797-.114 1.594-.228 2.278v.797s0 .114-.114.228c-.113.114-.227.455-.341.683l-.228.455-.114.228v.114h-.114c-.114.114-.227.228-.341.228-.114.114-.342.228-.456.228-.228.113-.455.227-.683.227h-1.025c-.114 0-.114 0-.228-.114h-.228c0 .114 0 .114-.113.114-.114 0-.114-.114-.228-.114 0 0-.114 0-.114-.113h-.114v-.114s-.114 0-.114-.114h-.114l-.341.114h-.114v-.456l-.114-.114c-.114-.114 0-.114 0-.114s0-.113-.114-.113 0-.114 0-.114 0-.114-.114-.114 0-.114 0-.114c0-.114-.114-.228-.114-.228l-.114-.228c0-.114-.113-.227-.113-.341 0-.114-.114-.228-.114-.342a18.65 18.65 0 0 1-.342-1.253l-.342-1.366c-.113-.342-.227-.797-.341-1.139-.114-.228-.114-.455-.228-.683-.228-.911-.456-1.936-.797-2.961-.342-1.025-.456-2.05-.797-3.075-.114-.57-.228-1.025-.342-1.594-.114-.57-.342-1.025-.455-1.594a8.381 8.381 0 0 0-.456-1.595c-.114-.227-.114-.455-.228-.797-.114-.114-.114-.228-.114-.342v-.113 2.733c0 .91 0 1.708.114 2.619.114.911.114 1.594.114 2.278.114 1.48.114 2.619.114 3.416 0 .797.114 1.936 0 2.847 0 .91-.114 1.936-.228 2.847a7.518 7.518 0 0 1-.569 1.708c-.114.228-.228.456-.456.683-.114.114-.227.228-.341.228l-.228.114h-.456c0-.114-.113-.228-.113-.228a.245.245 0 0 0-.228-.228s-.114 0-.114-.113c0-.114-.114-.114-.114-.114-.114-.114-.228-.342-.342-.57-.113-.227-.227-.455-.341-.797-.114-.683-.228-1.366-.114-2.05.114-1.025.114-2.163.114-3.188v-3.189c0-.57 0-2.847-.114-5.124v-4.898c0-.34 0-.569.114-.796 0-.114.114-.342.114-.57v-.569c0-.114 0-.114.114-.114.113 0 0 0 0-.114v-.114l.341-.341.228-.114s.114 0 .114-.114l.114-.114c.114-.114.341-.114.455-.114h.456c.341 0 .683 0 1.025.114l1.025.342c.113.113.113.113.227.113s.114.114.228.114c.114.114.342.228.342.342.114.114.227.342.341.57l.342.683.342.683s0 .114.113.228v.114c0 .113 0 .113.114.227.114.228.228.57.342.797.114.228.228.57.228.798.341 1.138.683 2.277 1.025 3.53.114.341.227.57.227.91.114.343.114.57.228.912.114.57.342 1.139.456 1.708.341 1.139.569 2.164.797 3.189.114.227.114.455.228.683 0 .114.113.228.113.342v.227s0 .114.114.114v.228h.114v-5.922c0-.797 0-1.708.114-2.505v-3.644c0-1.139-.114-2.62-.228-3.986.114 0 .114.228.228.342 0-.342.228-.228.342-.456.341-1.025.911-1.025 1.48-1.252.228-.114.456-.342.683-.342.228 0 .342 0 .342.114.114.227.114.455.114.797.114 1.253.114 2.62.228 3.986v1.935c0 .684 0 1.367.114 2.05.113.114.227.57.455.911Zm13.437 3.531v.683c0 .57-.114 1.025-.227 1.594a16.295 16.295 0 0 1-1.025 3.075c-.456.911-1.139 1.822-1.822 2.62a16.712 16.712 0 0 1-2.164 1.821c-.342.228-.683.456-1.025.57-.114 0-.342.114-.455.227-.114 0-.228.114-.342.228l-.456.228c-.114 0-.341.114-.455.114-.114 0-.342.114-.456.114l-.455.114c-.342.114-.683.114-.911.114h-.911c-.456 0-.797-.228-1.139-.456-.228-.228-.456-.456-.456-.797 0-.114 0-.342.114-.342h.114c0-.683-.114-1.48-.228-2.163-.113-1.025 0-2.62 0-3.645V42.932c0-.455 0-.91-.113-1.139v-.911c0-.341 0-.683.227-.91.228-.57.684-.912 1.253-1.026a.347.347 0 0 1 .456 0c.227 0 .455.114.683.114.114 0 .341.114.455.114.57 0 1.139.114 1.822.342.798.228 1.595.455 2.278.797l.342.228.227.114.228.114c.114.113.228.113.342.227.114.114.227.114.341.228h.228c.114 0 .114.114.114.114.114 0 .114.114.228.114h.114l.114.114c.113.114.227.227.341.227l.342.342c.341.342.683.797 1.025 1.253 0 0 0 .114.114.227v.114c0 .114.113.228.227.228v.114s0 .114.114.114c0 .114.114.228.114.228.228.57.456 1.025.569 1.594.228.797.456 1.48.57 2.278.114.797.228 1.822.228 2.733v.797l-.684.114Zm-2.847-.57v-1.366c0-.228 0-.456-.113-.57 0-.114 0-.341-.114-.455v-.683c-.114-.684-.342-1.367-.57-1.936a6.035 6.035 0 0 0-.911-1.709c0-.113-.114-.113-.114-.227-.114 0-.114-.114-.114-.114a99.768 99.768 0 0 0-.341-.342c0-.114-.114-.114-.228-.228l-.114-.114-.114-.113c-.114 0-.114-.114-.227-.114h-.114l-.114-.114a7.262 7.262 0 0 0-1.595-.911h-1.024v3.985c0 .228 0 .684-.114 1.481v6.15c0 1.138-.114 2.277-.114 3.416v1.594c0 .57 0 1.025-.114 1.595l1.025-.342.683-.342c.456-.227.797-.455 1.139-.797.228-.114.342-.342.455-.455a9190275782079.316 9190275782079.316 0 0 0 .798-.798l.113-.114.114-.113c.342-.456.57-.911.911-1.48v-.115s0-.114.114-.114 0-.113.114-.113v-.114c.114-.228.114-.456.228-.684.114-.227.114-.455.114-.683.114-.228.114-.455.114-.683 0-.228.114-.456.114-.683v-.797l.113-.798Z" fill="#fff"/><path d="M140.983 58.534v.911c-.114.114-.114.227-.228.455a2.48 2.48 0 0 1-.57.911l-.114.114-.113.114-.114.114c0 .114-.114.114-.114.114l-.114.114-.228.227-1.025.684c-.341.227-.797.341-1.138.455-.342.114-.684.228-1.025.228l-.684.114c-.683 0-1.252 0-1.936-.114h-.227c-.114 0-.228 0-.228-.114h-.57l-.455-.228-.228-.114-.228-.113h-.113l-.114-.114a2.47 2.47 0 0 1-.911-.57c-.228-.227-.456-.455-.797-.57-.456-.455-.798-.91-1.025-1.48v-.683l.227-.455v-.114s.114-.114.114-.228v-.342s0-.114 0 0c0-.227.114-.114.114-.114s.114.114.114 0c.114 0 .114.114.228.114.114-.114.228-.114.341 0 0 0 .114.114.114.228h.114l.228-.228c.114-.114.114-.114.228-.114s.114.114.227.114h.228s.114 0 .114.114v.114c0 .114 0 0 0 0s0 .228.114.342c.114.114.114 0 .114 0v-.114h.114s0 .114.114.114v.569l.113.114.114.114v.114c.114.114.114.114.114.228.342.341.797.569 1.253.569.455.114 1.025.114 1.594.114l.342-.114c.114 0 .228-.114.341-.114l.342-.228.342-.227c.227-.114.455-.342.569-.456l.114-.114h.114l.114-.114s.228-.227.228-.341l.113-.114s0-.114.114-.114 0-.114 0-.114c0-.114 0-.342-.114-.456-.113-.113-.113-.341-.227-.455 0-.114-.114-.342-.114-.57 0-.113-.114-.341-.114-.455-.228-.342-.456-.91-.683-1.48a7.9 7.9 0 0 1-.57-1.48l-.341-.684c-.228-.342-.456-.683-.684-1.139-.227-.455-.569-.797-.911-1.139a2.629 2.629 0 0 1-.569-.797c-.114-.114-.228-.341-.342-.57a1.552 1.552 0 0 1-.341-.455c-.114-.227-.342-.455-.456-.683a1.574 1.574 0 0 1-.342-.456l-.113-.113s0-.114-.114-.114l-.228-.228c-.342-.342-.569-.797-.797-1.139a4.207 4.207 0 0 1-.57-1.252c-.113-.342-.227-.798-.341-1.253v-1.025c0-.342.114-.456.114-.57.114-.227.227-.569.341-.797.114-.227.342-.455.456-.683.228-.228.455-.455.683-.57.228-.227.456-.34.683-.455.114-.114.114-.114.228-.114s.114-.114.228-.114.228-.113.341-.113h.114c.114 0 .114 0 .114-.114h.342c.114 0 .228-.114.342-.114h2.619s.114 0 .114.114h.227l.684.341c.114 0 .114.114.227.114.114 0 .114.114.228.114l.342.228.114.114h.227l.114.114c.114 0 .114.114.114.114.228.341.456.683.456 1.138a.885.885 0 0 1-.228.911c0 .114-.114.114-.114.114s-.114 0-.114.114c-.114 0-.228.114-.341.114h-.684l-.114-.114v-.114l-.113-.114h-.456c-.114.114-.228.114-.342 0h-.341c-.114 0-.114 0-.114-.113 0-.114 0 0 0 0s0-.114-.114-.114l-.456-.456h-1.138c-.228 0-.456 0-.684.114h-.455c-.114.114-.228.114-.342.228l-.228.227-.113.114v.911l.113.342c0 .114.114.228.114.228.114.114.114.227.114.227.114.114.228.342.342.57.114.114.228.342.342.57.113.227.341.341.455.569 0 .114.114.114.228.227l.341.342.57.683 1.366 1.709c.456.569.684.91 1.025 1.366-.683.797.114.342.911 1.48.114.114.114.228.228.228s.114.228.228.456c.114.342.341.683.569.91.114.229.228.57.342.912.114.341.228.57.341.91.114.343.228.684.342.912.114.342.114.683.228.911.342 1.139.455 1.708.342 2.164Z" fill="#fff"/></svg>