<svg width="24" height="24" viewBox="0 0 24 24" fill="none" xmlns="http://www.w3.org/2000/svg">
<path d="M4.57538 19.4246C3.64613 18.4954 4.26246 16.5444 3.78948 15.4013C3.29917 14.2163 1.5 13.2625 1.5 12C1.5 10.7374 3.29918 9.78369 3.78949 8.59869C4.26247 7.45555 3.64613 5.50463 4.57538 4.57538C5.50463 3.64613 7.45555 4.26246 8.5987 3.78948C9.78372 3.29917 10.7375 1.5 12 1.5C13.2626 1.5 14.2163 3.29918 15.4013 3.78949C16.5445 4.26247 18.4954 3.64613 19.4246 4.57538C20.3539 5.50463 19.7375 7.45555 20.2105 8.5987C20.7008 9.78372 22.5 10.7375 22.5 12C22.5 13.2626 20.7008 14.2163 20.2105 15.4013C19.7375 16.5445 20.3539 18.4954 19.4246 19.4246C18.4954 20.3539 16.5444 19.7375 15.4013 20.2105C14.2163 20.7008 13.2625 22.5 12 22.5C10.7374 22.5 9.78369 20.7008 8.59869 20.2105C7.45555 19.7375 5.50463 20.3539 4.57538 19.4246Z" fill="#0052CD"/>
<path d="M16.125 9.75L10.625 15L7.875 12.375" stroke="white" stroke-width="1.5" stroke-linecap="round" stroke-linejoin="round"/>
</svg>
