<svg width="24" height="24" viewBox="0 0 24 24" fill="none" xmlns="http://www.w3.org/2000/svg"><path d="M21.5549 17.5343C21.2146 18.3204 20.8119 19.044 20.3452 19.7093C19.7091 20.6162 19.1883 21.2439 18.7869 21.5925C18.1647 22.1647 17.4981 22.4578 16.7842 22.4745C16.2717 22.4745 15.6537 22.3286 14.9343 22.0328C14.2125 21.7384 13.5492 21.5925 12.9427 21.5925C12.3066 21.5925 11.6244 21.7384 10.8947 22.0328C10.1639 22.3286 9.57518 22.4828 9.12505 22.4981C8.4405 22.5272 7.75816 22.2259 7.07707 21.5925C6.64237 21.2134 6.09864 20.5634 5.44727 19.6426C4.74841 18.6593 4.17385 17.5191 3.72372 16.2191C3.24166 14.815 3 13.4553 3 12.1389C3 10.6311 3.32582 9.33055 3.97844 8.24072C4.49133 7.36534 5.17367 6.6748 6.02767 6.16787C6.88166 5.66094 7.80441 5.40262 8.79812 5.38609C9.34185 5.38609 10.0549 5.55428 10.941 5.88482C11.8245 6.21648 12.3919 6.38467 12.6406 6.38467C12.8266 6.38467 13.4568 6.18801 14.5253 5.79594C15.5357 5.43234 16.3884 5.28179 17.087 5.34109C18.98 5.49386 20.4021 6.24009 21.3479 7.58449C19.655 8.6103 18.8175 10.0471 18.8341 11.8902C18.8494 13.3258 19.3702 14.5205 20.3938 15.4691C20.8577 15.9094 21.3757 16.2496 21.9521 16.4913C21.8271 16.8538 21.6952 17.201 21.5549 17.5343ZM17.2134 0.450128C17.2134 1.57538 16.8023 2.62603 15.9829 3.5985C14.994 4.75458 13.7979 5.42262 12.5009 5.3172C12.4844 5.18221 12.4748 5.04013 12.4748 4.89083C12.4748 3.81058 12.9451 2.65451 13.7802 1.70926C14.1971 1.23066 14.7274 0.832714 15.3704 0.515264C16.012 0.202552 16.619 0.0296147 17.1898 0C17.2064 0.150429 17.2134 0.300883 17.2134 0.450128Z" fill="#21324B"/></svg>
