<svg xmlns="http://www.w3.org/2000/svg" width="24" height="24" fill="none"><path fill="#2684FF" fill-rule="evenodd" d="M3.41 4.393a.563.563 0 0 1 .434-.195l16.416.003a.562.562 0 0 1 .563.652l-2.388 14.66a.562.562 0 0 1-.563.472H6.417a.765.765 0 0 1-.748-.639L3.281 4.851a.562.562 0 0 1 .13-.458Zm6.832 10.282h3.656l.886-5.173H9.252l.99 5.173Z" clip-rule="evenodd"/><path fill="url(#a)" d="M20.063 9.502h-5.279l-.886 5.173h-3.656l-4.317 5.124a.762.762 0 0 0 .492.186h11.458a.562.562 0 0 0 .563-.473l1.625-10.01Z"/><defs><linearGradient id="a" x1="16.692" x2="10.594" y1="7.717" y2="16.375" gradientUnits="userSpaceOnUse"><stop offset=".18" stop-color="#0052CC"/><stop offset="1" stop-color="#2684FF"/></linearGradient></defs></svg>