<svg width="16" height="16" viewBox="0 0 16 16" fill="none" xmlns="http://www.w3.org/2000/svg"><path fill-rule="evenodd" clip-rule="evenodd" d="M3.40571 1.5H12.5943C13.3691 1.5 14 2.13086 14 2.91257V15.2143L12.5257 13.9114L11.696 13.1434L10.8183 12.3274L11.1817 13.596H3.40571C2.63086 13.596 2 12.9651 2 12.1834V2.91257C2 2.13086 2.63086 1.5 3.40571 1.5Z" fill="#5865F2"/><path fill-rule="evenodd" clip-rule="evenodd" d="M9.49488 9.89994C9.70059 10.1605 9.94745 10.4554 9.94745 10.4554C11.4629 10.4074 12.0457 9.41308 12.0457 9.41308C12.0457 7.20508 11.0583 5.41537 11.0583 5.41537C10.0709 4.6748 9.13145 4.69537 9.13145 4.69537L9.03545 4.80508C10.2012 5.16166 10.7429 5.67594 10.7429 5.67594C10.0297 5.28508 9.3303 5.09308 8.67888 5.01766C8.18516 4.9628 7.71202 4.97651 7.29373 5.03137C7.25782 5.03137 7.22713 5.0366 7.19254 5.04248C7.1875 5.04334 7.18239 5.04421 7.17716 5.04508C6.93716 5.06566 6.35431 5.1548 5.62059 5.47708C5.36688 5.59366 5.21602 5.67594 5.21602 5.67594C5.21602 5.67594 5.78516 5.13423 7.01945 4.77766L6.95088 4.69537C6.95088 4.69537 6.01145 4.6748 5.02402 5.41537C5.02402 5.41537 4.03659 7.20508 4.03659 9.41308C4.03659 9.41308 4.61259 10.4074 6.12802 10.4554C6.12802 10.4554 6.38173 10.1468 6.58745 9.88623C5.71659 9.62565 5.38745 9.07708 5.38745 9.07708C5.38745 9.07708 5.45602 9.12508 5.57945 9.19365C5.5863 9.20051 5.59316 9.20737 5.60688 9.21423C5.61716 9.22108 5.62745 9.22623 5.63773 9.23137C5.64802 9.23651 5.65831 9.24165 5.66859 9.24851C5.84002 9.34451 6.01145 9.41994 6.16916 9.48165C6.45031 9.59137 6.78631 9.70108 7.17716 9.77651C7.69145 9.87251 8.29488 9.9068 8.95316 9.78337C9.27545 9.72851 9.60459 9.63251 9.94745 9.48851C10.1874 9.39937 10.4549 9.26908 10.736 9.08394C10.736 9.08394 10.3932 9.64623 9.49488 9.89994ZM6.05942 8.01421C6.05942 7.59593 6.36799 7.25307 6.75885 7.25307C7.1497 7.25307 7.46513 7.59593 7.45827 8.01421C7.45827 8.4325 7.1497 8.77536 6.75885 8.77536C6.37485 8.77536 6.05942 8.4325 6.05942 8.01421ZM8.56227 8.01421C8.56227 7.59593 8.87084 7.25307 9.2617 7.25307C9.65256 7.25307 9.96113 7.59593 9.96113 8.01421C9.96113 8.4325 9.65256 8.77536 9.2617 8.77536C8.8777 8.77536 8.56227 8.4325 8.56227 8.01421Z" fill="white"/></svg>
