<svg xmlns="http://www.w3.org/2000/svg" width="24" height="24" fill="none"><path fill="#E24329" fill-rule="evenodd" d="m12 19.996 3.223-9.917H8.777L12 19.995Z" clip-rule="evenodd"/><path fill="#FC6D26" fill-rule="evenodd" d="m12 19.996-3.223-9.917H4.261L12 19.996Z" clip-rule="evenodd"/><path fill="#FCA326" fill-rule="evenodd" d="m4.262 10.079-.98 3.013a.667.667 0 0 0 .243.746L12 19.996l-7.738-9.917Z" clip-rule="evenodd"/><path fill="#E24329" fill-rule="evenodd" d="M4.261 10.079h4.517L6.837 4.106a.333.333 0 0 0-.635 0l-1.94 5.973Z" clip-rule="evenodd"/><path fill="#FC6D26" fill-rule="evenodd" d="m12 19.996 3.222-9.917h4.516L12 19.996Z" clip-rule="evenodd"/><path fill="#FCA326" fill-rule="evenodd" d="m19.738 10.079.98 3.013a.667.667 0 0 1-.243.746L12 19.996l7.738-9.917Z" clip-rule="evenodd"/><path fill="#E24329" fill-rule="evenodd" d="M19.739 10.079h-4.517l1.941-5.973a.334.334 0 0 1 .635 0l1.94 5.973Z" clip-rule="evenodd"/></svg>