<svg width="24" height="24" viewBox="0 0 24 24" fill="none" xmlns="http://www.w3.org/2000/svg"><path d="M20.9459 1.5H3.05006C2.1949 1.5 1.5 2.17783 1.5 3.0136V20.9846C1.5 21.8211 2.1949 22.5 3.05006 22.5H20.9459C21.8025 22.5 22.5003 21.8211 22.5003 20.9846V3.0136C22.5003 2.17783 21.8025 1.5 20.9459 1.5Z" fill="#0077B5"/><path fill-rule="evenodd" clip-rule="evenodd" d="M6.17161 8.00248C5.17324 8.00248 4.36517 7.19296 4.36517 6.19604C4.36517 5.19985 5.17324 4.39062 6.17161 4.39062C7.16736 4.39062 7.97659 5.19985 7.97659 6.19604C7.97659 7.19296 7.16736 8.00248 6.17161 8.00248ZM19.3946 19.3943H16.2819V14.5207C16.2819 13.358 16.2607 11.8632 14.6635 11.8632C13.0426 11.8632 12.7943 13.1293 12.7943 14.4366V19.3943H9.68182V9.37254H12.6698V10.7418H12.7112C13.1268 9.95397 14.1429 9.12316 15.6582 9.12316C18.8123 9.12316 19.3946 11.1988 19.3946 13.8972V19.3943ZM7.72836 19.3943H4.6135V9.37246H7.72836V19.3943Z" fill="white"/></svg>
