<svg width="150" height="30" fill="none" xmlns="http://www.w3.org/2000/svg"><g clip-path="url(#a)" fill="#000"><path fill-rule="evenodd" clip-rule="evenodd" d="M11.216 5H7.755c-.095 0-.173.072-.173.16V16.1c0 .089.078.16.173.16h3.463c.095 0 .172-.071.172-.16V5.16c0-.088-.077-.16-.172-.16Zm17.28 2.522h3.463c.096 0 .173.071.173.16v10.374c0 .088-.077.16-.173.16h-3.462c-.096 0-.173-.072-.173-.16V7.682c0-.089.077-.16.173-.16Zm-1.733 2.513h-3.462c-.095 0-.173.072-.173.16V19.8c0 .089.078.16.173.16h3.462c.096 0 .173-.071.173-.16v-9.605c0-.088-.077-.16-.173-.16Zm6.916.008h3.463c.095 0 .173.072.173.16v2.193c0 .089-.078.16-.173.16h-3.463c-.095 0-.172-.071-.172-.16v-2.192c0-.089.077-.16.172-.16Zm-20.747 3.7h3.462c.096 0 .173.072.173.16V19.8c0 .089-.077.16-.173.16h-3.462c-.096 0-.173-.071-.173-.16v-5.896c0-.089.077-.16.173-.16Zm5.191 6.226h3.463c.095 0 .173.072.173.16v4.71c0 .09-.078.161-.173.161h-3.463c-.095 0-.173-.072-.173-.16v-4.71c0-.089.078-.16.173-.16Z"/><path d="M43.722 13.752a.24.24 0 0 0-.235.236v5.715c0 .178.088.266.265.266h4.54c.176 0 .265-.076.265-.228v-5.753a.24.24 0 0 0-.07-.168.236.236 0 0 0-.17-.068h-4.595ZM48.8 12.57h7.364a.244.244 0 0 0 .24-.242v-2.04c0-.165-.076-.245-.227-.245H43.718c-.143 0-.219.076-.231.228v2.057a.246.246 0 0 0 .24.241H48.8ZM56.404 13.972a.22.22 0 0 0-.222-.22h-4.63a.223.223 0 0 0-.222.224v1.487h-1.893a.221.221 0 0 0-.19.107.221.221 0 0 0-.008.218l2.104 4.05a.236.236 0 0 0 .21.131h4.549a.222.222 0 0 0 .221-.215.226.226 0 0 0-.024-.11l-.841-1.656h.71a.24.24 0 0 0 .24-.236l-.004-3.78ZM100.732 13.752a.241.241 0 0 0-.236.236v5.715c0 .178.089.266.265.266h4.54c.177 0 .265-.076.265-.228v-5.753a.24.24 0 0 0-.24-.236h-4.594ZM105.81 12.57h7.364a.244.244 0 0 0 .24-.242v-2.04c0-.165-.076-.245-.232-.245h-12.455c-.142 0-.218.076-.231.228v2.057a.243.243 0 0 0 .24.241h5.074ZM113.414 13.972a.214.214 0 0 0-.066-.157.222.222 0 0 0-.158-.063h-4.628a.22.22 0 0 0-.157.066.22.22 0 0 0-.066.158v1.487h-1.893a.216.216 0 0 0-.108.028.228.228 0 0 0-.114.186.211.211 0 0 0 .024.11l2.104 4.051c.019.04.05.073.086.096.038.023.08.035.124.035h4.561a.224.224 0 0 0 .198-.325l-.842-1.656h.711a.236.236 0 0 0 .168-.069.236.236 0 0 0 .072-.167l-.016-3.78ZM70.5 17.444h-7.574v-3.472a.22.22 0 0 0-.218-.22h-4.629a.219.219 0 0 0-.219.22v5.731c0 .178.093.266.282.266h12.387c.165 0 .244-.088.244-.266v-1.998a.257.257 0 0 0-.08-.19.258.258 0 0 0-.193-.072ZM70.538 12.57a.222.222 0 0 0 .223-.225v-2.057c0-.165-.076-.245-.227-.245H58.075c-.14 0-.216.076-.227.228v2.074a.225.225 0 0 0 .223.224h12.467Z"/><path d="M65.447 13.752h-.842c-.156 0-.231.072-.231.211v2.083c0 .143.084.215.248.215h5.89c.173 0 .262-.085.262-.25v-2.04a.222.222 0 0 0-.066-.156.218.218 0 0 0-.158-.063h-5.103ZM84.92 12.57a.227.227 0 0 0 .218-.178l.421-2.154a.172.172 0 0 0-.047-.147.169.169 0 0 0-.146-.048h-4.503a.282.282 0 0 0-.302.245l-.4 2.015a.228.228 0 0 0 .219.266h4.54ZM79.837 13.93l-.699 3.514h-.686l-.694-3.515a.219.219 0 0 0-.214-.177h-4.54a.218.218 0 0 0-.214.169.225.225 0 0 0 0 .097l1.156 5.702a.327.327 0 0 0 .316.25h9.08a.277.277 0 0 0 .299-.25l1.165-5.702a.214.214 0 0 0-.045-.186.217.217 0 0 0-.173-.08h-4.532a.221.221 0 0 0-.22.177ZM77.22 12.57a.222.222 0 0 0 .215-.17.225.225 0 0 0 .003-.097l-.395-2.015a.311.311 0 0 0-.299-.245h-4.523c-.139 0-.21.06-.21.173v.072l.42 2.112a.224.224 0 0 0 .219.182l4.57-.013ZM90.688 13.752a.215.215 0 0 0-.154.064.23.23 0 0 0-.048.071.232.232 0 0 0-.016.085v5.748c0 .165.092.25.281.25h4.38c.186 0 .283-.085.283-.25v-5.748a.223.223 0 0 0-.139-.205.219.219 0 0 0-.085-.015h-4.502ZM87.074 12.57h11.735c.164 0 .244-.09.244-.267v-1.998a.23.23 0 0 0-.155-.254.225.225 0 0 0-.106-.008H87.09a.23.23 0 0 0-.198.064.233.233 0 0 0-.066.198v1.998c-.009.177.084.266.248.266ZM127.547 12.57a.226.226 0 0 0 .158-.066.228.228 0 0 0 .065-.159v-2.057c0-.165-.088-.245-.265-.245h-12.404a.248.248 0 0 0-.173.072.252.252 0 0 0-.053.08.25.25 0 0 0-.018.093v2.057a.226.226 0 0 0 .015.086.23.23 0 0 0 .047.072c.021.021.045.038.071.049a.224.224 0 0 0 .085.017h12.472ZM122.944 13.752a.22.22 0 0 0-.207.137.232.232 0 0 0-.016.087v3.218a.274.274 0 0 1-.088.185.265.265 0 0 1-.194.064h-2.268c-.177 0-.265-.084-.265-.249v-3.218a.227.227 0 0 0-.065-.159.226.226 0 0 0-.158-.065h-4.629a.218.218 0 0 0-.203.138.225.225 0 0 0-.015.086v5.727a.266.266 0 0 0 .261.266h12.404c.169 0 .248-.088.248-.266v-5.727a.223.223 0 0 0-.223-.224h-4.582ZM141.908 12.57a.22.22 0 0 0 .156-.067.215.215 0 0 0 .062-.158v-2.04c0-.177-.08-.262-.244-.262h-12.404a.262.262 0 0 0-.185.077.256.256 0 0 0-.079.185v2.04a.208.208 0 0 0 .015.086.222.222 0 0 0 .203.139h12.476ZM129.213 13.972v5.748a.244.244 0 0 0 .153.232.24.24 0 0 0 .096.017h4.519c.189 0 .281-.084.281-.249v-5.748a.22.22 0 0 0-.218-.22h-4.629a.22.22 0 0 0-.202.22ZM137.078 13.972v5.748a.242.242 0 0 0 .248.25h4.519c.189 0 .281-.085.281-.25v-5.748a.216.216 0 0 0-.064-.156.215.215 0 0 0-.154-.064h-4.599a.216.216 0 0 0-.163.06.216.216 0 0 0-.068.16Z"/></g><defs><clipPath id="a"><path fill="#fff" transform="translate(7 5)" d="M0 0h135.2v20H0z"/></clipPath></defs></svg>