<svg xmlns="http://www.w3.org/2000/svg" width="24" height="24" fill="none"><path fill="#1ED760" d="M12 1.5C6.201 1.5 1.5 6.201 1.5 12c0 5.8 4.701 10.5 10.5 10.5 5.8 0 10.5-4.7 10.5-10.5 0-5.798-4.7-10.5-10.5-10.5Z"/><path fill="#000" d="M16.815 16.645a.654.654 0 0 1-.9.217c-2.465-1.506-5.569-1.847-9.224-1.012a.655.655 0 0 1-.291-1.277c4-.914 7.43-.52 10.198 1.171.309.19.407.592.217.9Zm1.286-2.86a.819.819 0 0 1-1.126.27C14.152 12.32 9.85 11.818 6.51 12.831a.82.82 0 0 1-.476-1.566c3.814-1.158 8.555-.597 11.796 1.395.385.237.507.74.27 1.125Zm.11-2.977c-3.384-2.01-8.968-2.195-12.199-1.214a.982.982 0 1 1-.57-1.88c3.71-1.126 9.875-.908 13.771 1.405a.981.981 0 1 1-1.002 1.689Z"/></svg>