<svg xmlns="http://www.w3.org/2000/svg" width="24" height="24" fill="none"><path fill="#FE7203" d="M4.125 5.25c0-.621.504-1.125 1.125-1.125h13.5c.621 0 1.125.504 1.125 1.125v13.5c0 .621-.504 1.125-1.125 1.125H5.25a1.125 1.125 0 0 1-1.125-1.125V5.25Z"/><path fill="url(#a)" d="M4.125 5.25c0-.621.504-1.125 1.125-1.125h13.5c.621 0 1.125.504 1.125 1.125v13.5c0 .621-.504 1.125-1.125 1.125H5.25a1.125 1.125 0 0 1-1.125-1.125V5.25Z"/><path fill="#fff" fill-rule="evenodd" d="m10.917 12.787 2.461 4.43 2.363-4.43h-1.477l-.886 1.674-.984-1.674h-1.477Z" clip-rule="evenodd" opacity=".6"/><path fill="#fff" fill-rule="evenodd" d="m11.213 6.586 3.051 6.201H8.063l3.15-6.201Zm0 3.74 1.18 2.461h-2.46l1.28-2.46Z" clip-rule="evenodd"/><defs><linearGradient id="a" x1="12" x2="12" y1="4.125" y2="19.875" gradientUnits="userSpaceOnUse"><stop stop-color="#FB2F01" stop-opacity="0"/><stop offset="1" stop-color="#FB2F01"/></linearGradient></defs></svg>