<svg width="150" height="30" fill="none" xmlns="http://www.w3.org/2000/svg"><path fill-rule="evenodd" clip-rule="evenodd" d="M27.654 27c.156 0 .353-.15.604-.342.069-.053.142-.109.219-.166.503-.368.97-.763 1.398-1.188.428-.423.73-.784.902-1.085.171-.3.024-.382-.442-.245s-.632-.212-.497-1.044c.136-.833.516-1.946 1.141-3.338.625-1.393 1.472-2.97 2.539-4.73a46.726 46.726 0 0 1 3.771-5.304.682.682 0 0 0 .148-.532 1.706 1.706 0 0 0-.203-.594 2.75 2.75 0 0 0-.441-.594 3.844 3.844 0 0 0-.57-.491c-.761-.532.784-.31 2.154-.114.556.08 1.082.156 1.415.175 1.152.068 2.195.171 3.128.308.244.036.46-.137.644-.491.184-.355.325-.778.423-1.27.098-.491.14-.976.129-1.454-.012-.477-.105-.825-.276-1.044-.138-.177-.59-.266-1.325-.307-.736-.041-1.65-.04-2.741 0-1.093.04-2.276.137-3.55.287-1.277.15-2.521.335-3.736.553a30.53 30.53 0 0 0-3.33.778c-1.006.3-1.766.628-2.282.983-.14.097-.257.3-.33.655-.074.355-.08.71-.019 1.065s.196.641.404.86c.209.218.522.245.94.082.76-.297 1.716-.533 2.869-.696a37.596 37.596 0 0 1 3.716-.327c.363-.015-.049.365-.592.868-.408.377-.89.822-1.174 1.22-.662.929-1.35 1.98-2.06 3.153a58.71 58.71 0 0 0-2.06 3.706 98.506 98.506 0 0 0-1.803 3.707 34.705 34.705 0 0 0-1.288 3.153c-.32.928-.479 1.61-.479 2.047 0 .082.08.225.239.43.16.204.361.41.607.614.246.203.515.382.81.532.162.083.316.143.463.18h.535ZM42.64 11.061c-.608.241-1.247.643-1.916 1.206a16.42 16.42 0 0 0-1.97 1.99 22.014 22.014 0 0 0-1.824 2.512 17.918 17.918 0 0 0-1.423 2.754 14.218 14.218 0 0 0-.821 2.733c-.17.897-.17 1.722 0 2.471.073.296.242.564.51.805.267.24.572.448.912.623.34.174.694.3 1.058.381.365.08.657.107.876.08.316-.026.705-.16 1.168-.401a9.83 9.83 0 0 0 1.423-.924c.486-.376.967-.798 1.442-1.267a14.1 14.1 0 0 0 1.295-1.467c.243-.32.322-.522.237-.602-.085-.08-.286.013-.602.282a73.9 73.9 0 0 1-1.441 1.084c-.474.35-.919.651-1.332.905a9.81 9.81 0 0 1-1.113.603c-.328.147-.59.22-.785.22-.633-.053-.875-.528-.73-1.426.146-.898.523-1.99 1.131-3.276.34.294.724.57 1.15.823.425.255.833.33 1.223.221.608-.16 1.252-.589 1.933-1.286a18.91 18.91 0 0 0 1.916-2.312 17.664 17.664 0 0 0 1.478-2.471c.389-.804.596-1.407.62-1.81.024-.32-.122-.655-.437-1.004a4.488 4.488 0 0 0-1.168-.905 5.705 5.705 0 0 0-1.478-.562c-.523-.12-.967-.114-1.332.02Zm-1.185 4.747a29.667 29.667 0 0 0-1.398 1.717 14.957 14.957 0 0 0-1.087 1.64c.29-.026.682-.226 1.179-.599a14.36 14.36 0 0 0 1.578-1.409 21.83 21.83 0 0 0 1.633-1.87c.531-.682.967-1.332 1.306-1.95.145-.282.205-.449.18-.5-.023-.052-.193.025-.507.23-.412.31-.871.702-1.379 1.178s-1.01.998-1.505 1.563Zm15.201-4.306c-.194-.002-.486.214-.875.646a12.188 12.188 0 0 0-.529-.546 7.711 7.711 0 0 0-.62-.546 2.918 2.918 0 0 0-.639-.384.92.92 0 0 0-.62-.06c-.778.16-1.574.572-2.389 1.233-.815.66-1.605 1.45-2.37 2.365a28.977 28.977 0 0 0-2.172 2.973 39.63 39.63 0 0 0-1.787 3.074c-.51.984-.912 1.874-1.204 2.67-.291.795-.437 1.381-.437 1.758 0 .19.06.399.182.628.121.228.285.438.493.626.206.189.425.351.656.485.231.136.456.203.675.203.097 0 .286-.122.565-.364.28-.243.608-.566.986-.97a66.56 66.56 0 0 0 2.717-3.115c-.268.54-.474 1.025-.62 1.456-.146.432-.219.782-.219 1.051 0 .19.06.399.182.628.122.228.286.438.492.626.207.189.426.351.657.485.23.136.456.203.675.203.194 0 .425-.087.693-.263.267-.175.548-.397.84-.667.291-.269.57-.573.838-.91.267-.336.51-.654.73-.95.17-.243.212-.378.127-.405-.085-.027-.213-.013-.382.04-.17.054-.341.122-.511.202-.17.082-.268.109-.292.082-.097-.108-.036-.418.182-.93.22-.512.535-1.126.949-1.84.413-.715.88-1.49 1.404-2.326a128.56 128.56 0 0 1 1.514-2.366c.487-.741.93-1.395 1.332-1.962.401-.566.687-.956.857-1.173.121-.161.115-.337-.018-.525a2.037 2.037 0 0 0-.584-.526 5.782 5.782 0 0 0-.803-.424c-.28-.122-.505-.182-.675-.182Zm12.356 3.96a77.862 77.862 0 0 0-1.75 2.695c-.583.94-1.105 1.83-1.566 2.675a26.61 26.61 0 0 0-1.13 2.293c-.29.684-.436 1.2-.436 1.548 0 .188.06.397.182.624.121.228.285.436.491.624.206.188.425.349.656.482.23.135.456.202.674.202.195 0 .425-.087.692-.262.267-.174.547-.395.838-.663.292-.268.57-.57.838-.905.267-.335.51-.65.729-.946.17-.24.212-.375.127-.402-.085-.027-.213-.013-.382.04-.17.054-.34.12-.51.2-.17.082-.268.109-.291.082-.098-.107-.019-.43.236-.966a29.98 29.98 0 0 1 1.039-1.951c.437-.765.94-1.582 1.511-2.454.571-.87 1.117-1.703 1.64-2.494a83.56 83.56 0 0 1 1.42-2.091c.424-.604.722-.999.893-1.187.12-.134.114-.295-.019-.483a2.43 2.43 0 0 0-.564-.543 4.248 4.248 0 0 0-.783-.443c-.28-.12-.505-.18-.674-.18h-.037c-.291 0-.85.375-1.675 1.126-.826.75-1.756 1.716-2.787 2.896a75.185 75.185 0 0 0-3.187 3.922 69.73 69.73 0 0 0-2.951 4.163 46.854 46.854 0 0 1 2.259-3.68 90.038 90.038 0 0 1 2.185-3.078 48.002 48.002 0 0 1 1.822-2.313 61.41 61.41 0 0 1 1.202-1.388c.146-.134.146-.295 0-.482a2.527 2.527 0 0 0-.62-.544 5.153 5.153 0 0 0-.837-.442c-.292-.121-.523-.181-.692-.181-.292 0-.85.376-1.676 1.126-.826.751-1.755 1.717-2.787 2.896a75.185 75.185 0 0 0-3.187 3.922 69.767 69.767 0 0 0-2.951 4.163 46.903 46.903 0 0 1 2.259-3.68 89.939 89.939 0 0 1 2.186-3.078 48.077 48.077 0 0 1 1.82-2.312c.534-.63.935-1.093 1.203-1.388.146-.134.146-.295 0-.483a2.526 2.526 0 0 0-.62-.543 5.135 5.135 0 0 0-.837-.443c-.292-.12-.523-.18-.692-.18-.195 0-.541.275-1.038.824-.498.55-1.07 1.26-1.712 2.132a53.958 53.958 0 0 0-1.986 2.896 66.076 66.076 0 0 0-1.876 3.097 36.455 36.455 0 0 0-1.42 2.736c-.377.818-.566 1.428-.566 1.83 0 .188.091.436.274.744.182.308.394.59.637.846.242.255.48.429.71.522.231.094.395.034.493-.18a.95.95 0 0 1 .145-.242c.413-.75.929-1.595 1.548-2.534.62-.939 1.28-1.897 1.986-2.876a61.153 61.153 0 0 1 2.167-2.836c.74-.912 1.44-1.73 2.095-2.454a84.82 84.82 0 0 0-1.73 2.655 47.248 47.248 0 0 0-1.53 2.614c-.45.832-.814 1.576-1.093 2.233-.28.657-.42 1.16-.42 1.509 0 .188.091.436.273.744.182.308.389.59.62.845.23.255.46.43.692.523.23.094.407.034.528-.181l.292-.563c.437-.75.96-1.582 1.567-2.495a76.348 76.348 0 0 1 4.062-5.51 55.508 55.508 0 0 1 2.021-2.373Zm9.845-8.063V7.4c-.387 0-.695.103-.924.308-.231.205-.443.458-.636.758a4.127 4.127 0 0 0-.418.923c-.085.287.042.43.381.43h1.162a142.604 142.604 0 0 0-2.831 4.386 118.575 118.575 0 0 0-2.65 4.469 56.592 56.592 0 0 0-1.96 3.77c-.507 1.094-.761 1.833-.761 2.214 0 .192.06.404.181.636.121.232.284.445.49.636.205.191.423.355.653.492.23.137.454.205.672.205.193 0 .423-.088.69-.267a6.47 6.47 0 0 0 .834-.676c.29-.272.569-.58.835-.922.266-.341.508-.663.726-.964.168-.245.211-.382.127-.41-.085-.027-.212-.013-.381.04-.17.056-.34.124-.508.206-.17.082-.267.11-.29.082-.122-.109.023-.594.435-1.455.41-.861.986-1.947 1.724-3.26a94.834 94.834 0 0 1 2.63-4.365c1.017-1.6 2.081-3.204 3.194-4.817h1.306c.363 0 .672-.13.926-.39s.49-.54.707-.84c.194-.3.345-.574.454-.82.109-.246-.03-.37-.418-.37h-1.233l.87-1.106c.121-.164.115-.342-.017-.533a2.065 2.065 0 0 0-.58-.533 5.87 5.87 0 0 0-.8-.43c-.277-.124-.502-.185-.67-.185-.195 0-.527.253-1 .758-.47.506-1.021 1.183-1.65 2.03h-1.27Zm10.153 4.103c-.196-.002-.487.214-.876.646a11.604 11.604 0 0 0-.53-.546 7.915 7.915 0 0 0-.619-.546 2.916 2.916 0 0 0-.638-.384.92.92 0 0 0-.62-.06c-.779.16-1.575.572-2.39 1.233a17.43 17.43 0 0 0-2.37 2.365 28.947 28.947 0 0 0-2.172 2.973 39.598 39.598 0 0 0-1.787 3.074c-.51.984-.912 1.874-1.204 2.67-.292.795-.437 1.381-.437 1.758 0 .19.06.399.182.628.121.228.286.438.493.626.206.189.425.351.656.485.231.136.456.203.675.203.098 0 .286-.122.565-.364.28-.243.609-.566.986-.97a66.466 66.466 0 0 0 2.718-3.115c-.269.54-.475 1.025-.62 1.456-.147.432-.22.782-.22 1.051 0 .19.061.399.183.628.121.228.286.438.492.626.207.189.425.351.657.485.23.136.456.203.675.203.194 0 .425-.087.693-.263.267-.175.548-.397.84-.667a7.91 7.91 0 0 0 .838-.91c.267-.336.51-.654.73-.95.169-.243.212-.378.127-.405-.085-.027-.213-.013-.383.04a4.12 4.12 0 0 0-.51.202c-.17.082-.269.109-.292.082-.098-.108-.037-.418.182-.93.22-.512.535-1.126.948-1.84.414-.715.881-1.49 1.405-2.326.523-.835 1.027-1.624 1.513-2.366.487-.741.93-1.395 1.332-1.962.401-.566.687-.956.857-1.173.121-.161.115-.337-.018-.525a2.03 2.03 0 0 0-.584-.526 5.786 5.786 0 0 0-.803-.424c-.28-.121-.504-.182-.674-.182Zm-9.559 12.136c-.097-.106-.019-.455.234-1.044.253-.59.62-1.292 1.102-2.11a44.27 44.27 0 0 1 1.662-2.592c.626-.91 1.27-1.748 1.932-2.512.662-.763 1.3-1.392 1.914-1.888.615-.496 1.138-.717 1.572-.663a39.177 39.177 0 0 0-1.969 2.632 50.87 50.87 0 0 0-2.113 3.315 104.62 104.62 0 0 1-1.517 1.808c-.505.59-.963 1.12-1.372 1.588-.41.469-.747.837-1.012 1.105s-.41.388-.433.361Zm15.412-12.683c-.197 0-.554.282-1.072.846a26.738 26.738 0 0 0-1.755 2.176 64.79 64.79 0 0 0-2.034 2.941 68.246 68.246 0 0 0-1.94 3.142 33.486 33.486 0 0 0-1.461 2.78c-.382.832-.573 1.45-.573 1.852 0 .189.062.397.185.625.124.229.29.437.499.625.209.188.43.35.666.483.234.135.462.202.683.202.197 0 .43-.086.703-.262.27-.174.554-.396.85-.665.295-.267.579-.57.85-.906.27-.335.517-.651.739-.947.172-.241.215-.376.13-.403-.087-.027-.217-.012-.389.04a4.205 4.205 0 0 0-.517.202c-.172.08-.272.108-.296.08-.099-.106-.018-.43.24-.967a29.89 29.89 0 0 1 1.054-1.954c.443-.765.955-1.584 1.534-2.457.579-.873 1.14-1.706 1.682-2.498a124.47 124.47 0 0 1 1.46-2.095c.43-.604.721-1 .869-1.188.123-.161.117-.336-.019-.524a2.144 2.144 0 0 0-.572-.523 4.788 4.788 0 0 0-.813-.423c-.296-.122-.53-.182-.703-.182Zm2.569-.776c.192-.027.47-.176.834-.448a11.21 11.21 0 0 0 1.09-.937c.362-.353.682-.713.961-1.08.277-.367.417-.658.417-.876 0-.271-.078-.502-.236-.692a1.858 1.858 0 0 0-.599-.469 3 3 0 0 0-.78-.265 2.58 2.58 0 0 0-.78-.04c-.17.027-.376.156-.617.386-.243.232-.503.497-.78.795-.28.299-.552.618-.817.957-.267.34-.508.646-.727.917-.193.245-.23.483-.108.713.12.231.314.428.58.591.267.163.55.292.854.387.302.095.538.116.708.061Zm9.976-8.068a2.654 2.654 0 0 0-.633-.111h-.009a.662.662 0 0 0-.111.009c-.225.054-.608.38-1.147.978a42.6 42.6 0 0 0-1.918 2.323 90.085 90.085 0 0 0-2.407 3.26 158.008 158.008 0 0 0-5.096 7.683 79.86 79.86 0 0 0-2.126 3.608 37.29 37.29 0 0 0-1.486 2.954c-.376.857-.564 1.475-.564 1.855 0 .19.063.401.188.632.125.23.288.442.489.632.2.19.426.353.677.489.25.136.489.204.715.204.2 0 .438-.087.715-.265.275-.176.557-.4.846-.672.287-.271.576-.577.864-.918.288-.338.533-.658.734-.958.175-.244.226-.38.15-.407-.075-.027-.2-.013-.376.04a5.524 5.524 0 0 0-.545.204c-.189.082-.295.11-.32.082-.076-.082.043-.448.357-1.1.313-.653.772-1.502 1.373-2.548a90.532 90.532 0 0 1 2.181-3.567 153.94 153.94 0 0 1 2.765-4.157c.991-1.44 2.025-2.88 3.103-4.32a110.814 110.814 0 0 1 3.197-4.076c.201-.245.22-.49.056-.734a2.493 2.493 0 0 0-.695-.672 3.28 3.28 0 0 0-.977-.448Zm4.331 12.04c-.074-.4-.293-.806-.654-1.22a5.953 5.953 0 0 0-1.253-1.078 6.723 6.723 0 0 0-1.477-.72c-.512-.173-.967-.22-1.366-.14-.548.133-1.153.466-1.814 1a14.627 14.627 0 0 0-1.982 1.978 22.792 22.792 0 0 0-1.888 2.617 26.816 26.816 0 0 0-1.553 2.838 16.466 16.466 0 0 0-.99 2.639c-.225.825-.287 1.518-.188 2.078.05.266.262.552.636.859.374.306.791.587 1.253.84.461.253.922.453 1.384.599.461.146.804.206 1.029.18.523-.08 1.115-.373 1.776-.88.661-.505 1.333-1.138 2.02-1.898a25.61 25.61 0 0 0 2.001-2.538 26.886 26.886 0 0 0 1.682-2.738c.474-.892.842-1.731 1.103-2.518.262-.785.356-1.418.281-1.898Zm12.963-.964c.17-.242.269-.423.297-.544v-.117a1.724 1.724 0 0 0-.599-.906 2.923 2.923 0 0 0-.981-.522 3.088 3.088 0 0 0-1.019-.14c-.328.013-.566.06-.717.14-.453.268-1.089.79-1.906 1.567-.818.777-1.712 1.7-2.68 2.772a81.669 81.669 0 0 0-2.963 3.474 60.153 60.153 0 0 0-2.754 3.675 61.67 61.67 0 0 1 2.264-3.515 66.775 66.775 0 0 1 2.151-2.932c.68-.87 1.289-1.6 1.83-2.19.541-.589.95-1.03 1.226-1.325.151-.134.151-.295 0-.482a2.576 2.576 0 0 0-.641-.542 5.41 5.41 0 0 0-.868-.442c-.301-.121-.541-.181-.717-.181-.201 0-.566.275-1.094.824-.528.549-1.119 1.259-1.773 2.129-.655.87-1.34 1.835-2.057 2.892a57.862 57.862 0 0 0-1.963 3.093 31.472 31.472 0 0 0-1.452 2.732c-.377.817-.566 1.426-.566 1.828 0 .187.094.435.282.743.19.307.402.59.642.844.238.255.478.428.717.522.238.094.421.034.547-.18l.151-.323c.478-.829 1.101-1.773 1.868-2.831a100.07 100.07 0 0 1 2.435-3.214 90.018 90.018 0 0 1 2.566-3.113 44.477 44.477 0 0 1 2.34-2.53c-.176.32-.44.722-.793 1.205-.352.481-.698.964-1.038 1.446-.339.481-.641.937-.906 1.365-.264.43-.396.737-.396.924 0 .187.063.388.189.602.126.215.296.415.51.602.213.188.439.348.679.482.239.134.472.201.698.201.201 0 .44-.086.717-.261.277-.174.56-.395.85-.663.288-.267.578-.562.868-.883.288-.322.534-.63.735-.924.176-.24.226-.375.151-.402-.076-.026-.202-.012-.377.04a8.023 8.023 0 0 0-.528.18c-.177.068-.278.088-.303.062-.051-.054.038-.214.264-.482.227-.268.516-.602.868-1.004s.742-.83 1.17-1.286c.428-.455.823-.89 1.189-1.306.365-.415.661-.783.887-1.104Zm-16.115.85c-.257.685-.642 1.504-1.156 2.457a60.404 60.404 0 0 1-1.752 3.02 54.06 54.06 0 0 1-1.909 2.9c-.619.873-1.168 1.571-1.646 2.095-.48.524-.789.719-.929.584-.164-.134-.111-.55.157-1.248.268-.699.655-1.524 1.157-2.477a52.799 52.799 0 0 1 1.717-3.001c.642-1.047 1.266-2 1.874-2.86.607-.859 1.15-1.544 1.63-2.054.478-.51.81-.711.998-.604.162.107.115.503-.141 1.188Zm-60.52 6.447c-.482.818-.85 1.52-1.102 2.11-.253.589-.332.938-.235 1.044.024.027.168-.093.433-.361s.602-.636 1.012-1.105c.41-.469.867-.998 1.372-1.588.506-.588 1.012-1.191 1.518-1.808a50.828 50.828 0 0 1 2.113-3.315 39.177 39.177 0 0 1 1.968-2.632c-.433-.054-.957.167-1.571.663s-1.252 1.125-1.914 1.888a28.18 28.18 0 0 0-1.933 2.512c-.627.91-1.18 1.775-1.661 2.592Z" fill="#000"/></svg>