<svg width="100" height="100" viewBox="0 0 100 100" fill="none" xmlns="http://www.w3.org/2000/svg">
<rect width="100" height="100" fill="white"/>
<g clip-path="url(#clip0_6_23)">
<path d="M72.7731 30.8249L51.9601 18.8068C50.0928 17.7311 47.7748 17.7311 45.9037 18.8068C44.0364 19.8862 42.8774 21.8937 42.8774 24.0488V25.6169L41.5214 24.8329C39.6541 23.7572 37.3361 23.7572 35.465 24.8329C33.5977 25.9123 32.4387 27.9198 32.4387 30.0787V31.6468L31.0827 30.8628C29.2154 29.7871 26.8974 29.7871 25.0263 30.8628C23.159 31.9422 22 33.9497 22 36.1086V73.7652C22 74.8484 22.6287 75.8559 23.6059 76.3256C24.5794 76.799 25.7611 76.6703 26.6095 75.9999L36.9308 67.8603L52.8464 77.049C53.2858 77.3028 53.7782 77.4278 54.2705 77.4278C54.7629 77.4278 55.2553 77.299 55.6947 77.049C56.5734 76.5415 57.1188 75.5984 57.1188 74.5833V51.9219C57.1188 48.2025 55.119 44.7406 51.8995 42.8809L46.6801 39.8659V24.0526C46.6801 23.2496 47.1119 22.4997 47.8089 22.0982C48.5058 21.6967 49.3694 21.6967 50.0663 22.0982L70.8793 34.1125C72.9284 35.2943 74.201 37.5025 74.201 39.8659V68.0837C74.201 68.8867 73.7692 69.6367 73.0723 70.0381L67.5575 73.2235V45.892C67.5575 42.1726 65.5577 38.7107 62.3382 36.851L49.5247 29.4538V33.836L60.4406 40.1387C62.4897 41.3204 63.7623 43.5248 63.7623 45.892V74.8636C63.7623 75.8749 64.3077 76.8218 65.1865 77.3293C65.6258 77.5831 66.1182 77.7081 66.6106 77.7081C67.103 77.7081 67.5954 77.5793 68.0348 77.3293L74.9737 73.322C76.841 72.2425 78 70.2351 78 68.0762V39.8584C77.9924 36.1503 75.9926 32.6846 72.7731 30.8249ZM49.9943 46.1685C52.0434 47.3503 53.3161 49.5547 53.3161 51.9219V72.9432L40.1351 65.3339L44.3659 62.0008C45.8317 60.8456 46.6726 59.1146 46.6726 57.2473V44.2558L49.9943 46.1685ZM42.8774 42.059V57.2398C42.8774 57.9367 42.563 58.5844 42.0176 59.0124L25.7952 71.8032V36.1048C25.7952 35.3019 26.227 34.5519 26.9239 34.1504C27.6208 33.7489 28.4844 33.7489 29.1813 34.1504L32.4387 36.0291V62.9401L36.2339 59.9479V30.0787C36.2339 29.2758 36.6657 28.5258 37.3626 28.1243C38.0595 27.7228 38.9231 27.7228 39.62 28.1243L42.8774 30.003V37.6729L39.0822 35.4799V39.8659L42.8774 42.059Z" fill="#0052CD"/>
</g>
<defs>
<clipPath id="clip0_6_23">
<rect width="56" height="59.7081" fill="white" transform="translate(22 18)"/>
</clipPath>
</defs>
</svg>
