<svg width="24" height="24" viewBox="0 0 24 24" fill="none" xmlns="http://www.w3.org/2000/svg">
<g clip-path="url(#clip0_1_12)">
<path d="M11.9858 0.00253296C12.0114 0.00253296 12.037 0.0343318 12.0755 0.0915703C12.1075 0.142449 14.8055 3.35417 18.0739 7.22731C21.3422 11.1005 24.0082 14.2867 23.9954 14.3058C23.989 14.3249 21.3871 16.4427 18.2149 19.0057C15.0426 21.5687 12.3446 23.7502 12.2229 23.8519C12.0114 24.0236 11.9986 24.03 11.9217 23.9537C11.8768 23.9092 9.17241 21.715 5.91046 19.0757C2.64851 16.4364 -0.0110315 14.2613 0.00178564 14.2295C0.0146027 14.1977 2.69337 11.0241 5.96814 7.17007C9.24291 3.31601 11.9217 0.12973 11.9345 0.0788508C11.9473 0.0279721 11.9665 0.00253296 11.9858 0.00253296Z" fill="#00BEF2"/>
<path d="M11.5436 20.1823C11.1719 20.0487 10.7233 19.6672 10.5374 19.311C10.3067 18.8722 10.3259 18.1853 10.5823 17.6384C10.781 17.2313 10.781 17.2186 10.6528 17.1232C10.5823 17.0723 9.72995 16.6017 8.76867 16.0866C7.80739 15.5714 6.96787 15.1199 6.91019 15.0881C6.83329 15.0436 6.70512 15.0881 6.47441 15.2343C5.72461 15.705 4.94277 15.6541 4.32755 15.0881C3.88536 14.681 3.75719 14.3948 3.75719 13.8097C3.75719 13.2437 3.87254 12.9512 4.23783 12.5887C4.73129 12.0989 5.39137 11.9336 6.02581 12.1435C6.37187 12.2579 6.37828 12.2579 6.59617 12.0926C6.85251 11.9018 8.90966 10.0384 9.90298 9.10346L10.5887 8.45476L10.3836 8.02865C9.96707 7.17007 10.1785 6.21609 10.9091 5.64371C11.3065 5.33208 11.6012 5.23668 12.1716 5.23668C13.5046 5.23668 14.4338 6.62312 13.934 7.86329C13.7994 8.20672 13.7994 8.21308 13.9275 8.42296C14.0365 8.60739 15.8886 10.827 16.8691 11.959C17.0421 12.1562 17.2344 12.3152 17.2984 12.3152C17.3625 12.3152 17.5804 12.2516 17.7855 12.1753C18.7404 11.8 19.7465 12.2198 20.1438 13.161C20.4002 13.7652 20.1759 14.5793 19.6312 15.069C19.2466 15.4124 18.9647 15.5205 18.452 15.5205C18.0931 15.5205 17.9585 15.4824 17.5804 15.2789C17.2984 15.1262 17.0806 15.0499 16.9908 15.0754C16.837 15.1135 14.4723 16.7225 13.9468 17.1423C13.6263 17.4031 13.6007 17.4984 13.7673 17.8864C13.9275 18.268 13.9083 18.8658 13.7289 19.241C13.5302 19.6544 13.0368 20.0678 12.6074 20.195C12.1716 20.3159 11.9089 20.3159 11.5436 20.1823V20.1823ZM11.6525 13.1738V9.54865L11.4474 9.26882C11.3321 9.11618 11.2231 8.98898 11.2039 8.98898C11.1206 8.98898 6.98068 12.7222 6.98068 12.7985C6.98068 12.8176 7.04477 13.0084 7.12167 13.2119C7.19858 13.4218 7.25625 13.7207 7.24984 13.8924C7.24344 14.0641 7.24343 14.2549 7.24343 14.3185C7.24984 14.4648 8.63409 15.3425 10.7105 16.5318C11.2808 16.8625 11.4795 16.9451 11.55 16.8879C11.6333 16.8179 11.6525 16.112 11.6525 13.1738V13.1738ZM13.4085 16.3791C16.1513 14.6683 16.664 14.3249 16.696 14.1977C16.7153 14.1214 16.7409 13.8225 16.7473 13.5235L16.7665 12.9893L15.3695 11.3421C13.8699 9.58045 13.3187 8.98262 13.1906 8.98262C13.1457 8.98262 12.9214 9.10982 12.6907 9.26246L12.2677 9.54229L12.287 13.161C12.3062 16.4046 12.3318 16.9515 12.4536 16.9515C12.4664 16.9579 12.9022 16.6971 13.4085 16.3791V16.3791Z" fill="white"/>
<path fill-rule="evenodd" clip-rule="evenodd" d="M11.4877 5.3607C11.2989 5.42161 11.13 5.52052 10.9337 5.67454C10.2182 6.23506 10.0105 7.16892 10.4193 8.0116L10.4194 8.01172L10.6244 8.43783C10.6318 8.45316 10.6284 8.47147 10.616 8.4832L9.9303 9.13191L9.93023 9.13198C9.4333 9.59967 8.67047 10.2994 7.99988 10.9061C7.33068 11.5115 6.75051 12.0268 6.62008 12.1239C6.62003 12.1239 6.61998 12.124 6.61993 12.124L6.61807 12.1254C6.51347 12.2048 6.44791 12.2546 6.36256 12.2621C6.31991 12.2659 6.27476 12.2591 6.22037 12.2451C6.16609 12.2312 6.09935 12.2092 6.01329 12.1807C5.39391 11.9759 4.74932 12.1366 4.26582 12.6164C4.08553 12.7954 3.96926 12.9547 3.8974 13.1372C3.82542 13.32 3.79678 13.5292 3.79678 13.8097C3.79678 14.0996 3.82859 14.3113 3.91275 14.4998C3.99695 14.6884 4.13517 14.8574 4.35447 15.0593C4.65616 15.3368 4.99708 15.4868 5.35319 15.5108C5.70946 15.5347 6.08409 15.4328 6.45312 15.2012C6.56908 15.1277 6.66205 15.0779 6.7372 15.0525C6.8118 15.0272 6.87672 15.0234 6.92976 15.0539C6.99001 15.0871 7.82785 15.5377 8.78748 16.052C9.26824 16.3096 9.72178 16.5561 10.064 16.7446C10.2351 16.8389 10.3784 16.9187 10.4834 16.9781C10.5871 17.0367 10.6562 17.0771 10.6761 17.0914L10.6765 17.0918C10.7074 17.1148 10.7369 17.1371 10.7561 17.1641C10.7776 17.1943 10.7849 17.2278 10.7793 17.2691C10.7742 17.3078 10.7576 17.3548 10.7315 17.4151C10.7052 17.4759 10.6676 17.5538 10.6181 17.6552C10.3657 18.1938 10.3488 18.8674 10.5725 19.2928L10.5726 19.2929C10.6625 19.4653 10.8174 19.646 10.9968 19.8005C11.1761 19.9549 11.377 20.0807 11.557 20.1454L11.5436 20.1823L11.5573 20.1454C11.7368 20.2111 11.8892 20.2432 12.0494 20.2448C12.2099 20.2463 12.3805 20.2171 12.5964 20.1573C12.8044 20.0956 13.0302 19.9637 13.229 19.7955C13.4278 19.6271 13.5968 19.4246 13.6931 19.2241C13.7799 19.0427 13.8288 18.8051 13.8359 18.565C13.843 18.3248 13.8082 18.0859 13.7309 17.9017C13.6482 17.7092 13.6068 17.5767 13.6359 17.4574C13.6651 17.3379 13.7627 17.2413 13.9217 17.1119L13.9219 17.1117C14.1861 16.9007 14.91 16.3926 15.5858 15.9333C15.924 15.7035 16.2507 15.4855 16.5026 15.3225C16.6285 15.241 16.7359 15.1731 16.8169 15.1243C16.8573 15.0999 16.8915 15.0801 16.9181 15.0657C16.9428 15.0524 16.9652 15.0414 16.9805 15.0374C17.011 15.0289 17.0479 15.0299 17.0874 15.0362C17.1279 15.0426 17.1748 15.0553 17.2266 15.0732C17.3302 15.1092 17.4572 15.1674 17.5993 15.2443C17.788 15.3459 17.9129 15.4045 18.0341 15.4382C18.1547 15.4717 18.2738 15.4812 18.452 15.4812C18.7056 15.4812 18.8989 15.4545 19.0754 15.3869C19.2519 15.3193 19.4144 15.2097 19.6047 15.0398C20.1391 14.5593 20.3561 13.7625 20.1073 13.1763L20.1073 13.1762C19.7183 12.2547 18.7349 11.8444 17.8001 12.2118L17.7994 12.2121C17.696 12.2505 17.5893 12.2858 17.5002 12.3116C17.4556 12.3244 17.415 12.335 17.3813 12.3424C17.3485 12.3496 17.3192 12.3545 17.2984 12.3545C17.2831 12.3545 17.2676 12.3499 17.2538 12.3444C17.2394 12.3386 17.224 12.3305 17.208 12.3208C17.176 12.3015 17.1389 12.2741 17.0992 12.2412C17.0197 12.1753 16.9269 12.0847 16.8392 11.9848L16.839 11.9846C16.3486 11.4184 15.6402 10.5802 15.041 9.86067C14.7413 9.50088 14.4688 9.17063 14.2644 8.91873C14.1622 8.7928 14.0769 8.68634 14.0137 8.60551C13.9516 8.52605 13.9089 8.469 13.8935 8.4431C13.8935 8.44301 13.8934 8.44292 13.8934 8.44283L13.8924 8.44115C13.8307 8.34016 13.7917 8.27631 13.7926 8.19277C13.7931 8.15156 13.8031 8.10761 13.8205 8.05407C13.8378 8.00055 13.8636 7.93454 13.8971 7.84905L13.8972 7.8487C14.3869 6.63366 13.4758 5.27598 12.1716 5.27598C11.8885 5.27598 11.6768 5.2997 11.4877 5.3607ZM11.53 20.2192C11.3384 20.1503 11.1292 20.0186 10.9449 19.8598C10.7605 19.701 10.5981 19.5128 10.5023 19.3291C10.2646 18.877 10.2862 18.177 10.5464 17.6218L10.5467 17.6212C10.5964 17.5193 10.6332 17.443 10.6588 17.3841C10.6845 17.3245 10.6972 17.286 10.7008 17.2588C10.7041 17.2341 10.6998 17.2211 10.6914 17.2094C10.6808 17.1945 10.6623 17.1795 10.6293 17.1548C10.6135 17.1436 10.5497 17.1061 10.4442 17.0464C10.3396 16.9871 10.1965 16.9075 10.0256 16.8134C9.68365 16.625 9.23038 16.3787 8.74985 16.1211C7.78874 15.6061 6.94891 15.1544 6.89096 15.1224L6.89024 15.122C6.86644 15.1082 6.82896 15.1045 6.76275 15.1269C6.69692 15.1491 6.61046 15.1947 6.49573 15.2675L6.49557 15.2676C6.11484 15.5065 5.72369 15.6145 5.34783 15.5892C4.97176 15.5638 4.61416 15.4053 4.30063 15.1169C4.07774 14.9117 3.93077 14.7341 3.84034 14.5316C3.74987 14.329 3.71759 14.105 3.71759 13.8097C3.71759 13.5243 3.74662 13.3042 3.82364 13.1086C3.90079 12.9127 4.02484 12.7445 4.20983 12.5609C4.71325 12.0613 5.38882 11.8913 6.03833 12.1062C6.1253 12.135 6.18913 12.1559 6.24019 12.169C6.29114 12.1821 6.3261 12.1864 6.35555 12.1838C6.41381 12.1787 6.46009 12.1464 6.57212 12.0614L6.57241 12.0612C6.69862 11.9672 7.275 11.4555 7.94653 10.848C8.61692 10.2416 9.3793 9.54218 9.8757 9.07499C9.87571 9.07497 9.87572 9.07496 9.87573 9.07495L10.5406 8.44598L10.3479 8.0457C9.92368 7.17123 10.1389 6.19714 10.8846 5.61288C11.0855 5.45527 11.2627 5.35067 11.4632 5.28597C11.6635 5.22137 11.8844 5.19739 12.1716 5.19739C13.5333 5.19739 14.4806 6.61245 13.9708 7.8777C13.937 7.96384 13.9123 8.02737 13.8958 8.07816C13.8794 8.12896 13.8721 8.16412 13.8718 8.19365C13.8712 8.25102 13.8957 8.29498 13.9614 8.4026L13.9617 8.40309C13.9737 8.42343 14.0127 8.47597 14.0763 8.55734C14.1391 8.63762 14.224 8.74366 14.3261 8.86944C14.5302 9.12097 14.8024 9.45094 15.102 9.81061C15.701 10.5299 16.4089 11.3675 16.8989 11.9332C16.9843 12.0305 17.0741 12.118 17.15 12.1809C17.188 12.2124 17.2218 12.2371 17.2493 12.2537C17.263 12.262 17.2745 12.2679 17.2836 12.2716C17.2881 12.2734 17.2917 12.2745 17.2944 12.2752C17.2957 12.2755 17.2967 12.2757 17.2975 12.2758C17.2982 12.2759 17.2985 12.2759 17.2984 12.2759C17.3098 12.2759 17.3317 12.2728 17.3642 12.2657C17.3957 12.2588 17.4345 12.2487 17.478 12.2361C17.565 12.211 17.6696 12.1764 17.7712 12.1386C18.746 11.7557 19.7747 12.1849 20.1803 13.1458C20.4443 13.7679 20.2127 14.5992 19.6577 15.0981L19.6576 15.0982C19.4634 15.2717 19.2927 15.3879 19.1039 15.4602C18.9151 15.5325 18.7111 15.5598 18.452 15.5598C18.2712 15.5598 18.1437 15.5503 18.0127 15.5139C17.8824 15.4776 17.7509 15.4153 17.5615 15.3134L17.5615 15.3134C17.4216 15.2376 17.2987 15.1815 17.2005 15.1474C17.1514 15.1304 17.1093 15.1192 17.0749 15.1138C17.0398 15.1082 17.016 15.1091 17.0017 15.1131C17.0015 15.1132 17.0012 15.1133 17.001 15.1133L17.0004 15.1135C17.0004 15.1135 17.0003 15.1135 17.0001 15.1136C16.9999 15.1136 16.9997 15.1137 16.9994 15.1138C16.9987 15.114 16.9977 15.1144 16.9965 15.1149C16.994 15.1158 16.9908 15.1172 16.9868 15.119C16.9788 15.1228 16.9686 15.128 16.956 15.1348C16.9309 15.1483 16.898 15.1674 16.858 15.1915C16.7781 15.2396 16.6715 15.307 16.5458 15.3883C16.2946 15.5509 15.9685 15.7685 15.6306 15.9982C14.9543 16.4577 14.2333 16.9639 13.9718 17.1728C13.8104 17.3041 13.735 17.3855 13.7129 17.4759C13.6908 17.5665 13.7198 17.6756 13.8038 17.871L13.8039 17.8713C13.8867 18.0686 13.9224 18.3194 13.9151 18.5673C13.9077 18.8152 13.8573 19.0641 13.7647 19.2579L13.7646 19.258C13.6623 19.4709 13.4853 19.6818 13.2803 19.8553C13.0755 20.0287 12.84 20.1671 12.6187 20.2327L12.618 20.2329C12.3983 20.2938 12.2197 20.325 12.0487 20.3234C11.8773 20.3217 11.7157 20.2871 11.53 20.2192ZM13.1526 8.9513C13.164 8.94735 13.1778 8.94333 13.1906 8.94333C13.2192 8.94333 13.2505 8.95881 13.2813 8.97894C13.314 9.00032 13.3536 9.03206 13.4008 9.07442C13.4953 9.15927 13.6241 9.29016 13.7949 9.47521C14.1368 9.84553 14.6499 10.436 15.3997 11.3168L16.7968 12.964C16.8031 12.9715 16.8065 12.981 16.8061 12.9907L16.7869 13.5244C16.7869 13.5245 16.7869 13.5246 16.7869 13.5247C16.7837 13.6748 16.7756 13.8249 16.766 13.9472C16.7564 14.0681 16.745 14.1653 16.7345 14.2072C16.7281 14.2323 16.7116 14.2574 16.6876 14.284C16.6631 14.3111 16.6279 14.3432 16.5795 14.3821C16.4826 14.4602 16.3285 14.5693 16.0908 14.7272C15.6152 15.0432 14.8008 15.5571 13.4295 16.4124C13.1763 16.5715 12.9405 16.7163 12.7664 16.8206C12.6794 16.8727 12.6076 16.9149 12.5566 16.9436C12.5311 16.958 12.5104 16.9692 12.4955 16.9768C12.4881 16.9805 12.4814 16.9837 12.4759 16.986C12.4733 16.987 12.4698 16.9884 12.4661 16.9893C12.4653 16.9895 12.4644 16.9898 12.4633 16.99C12.4617 16.9903 12.4597 16.9906 12.4575 16.9908C12.4563 16.9909 12.4537 16.9911 12.4503 16.9907C12.4177 16.9895 12.394 16.9689 12.378 16.9413C12.3622 16.9142 12.3501 16.8749 12.34 16.8228C12.3196 16.7177 12.3043 16.5454 12.2923 16.2743C12.2682 15.7312 12.257 14.7828 12.2474 13.1613L12.2281 9.5425C12.2281 9.52929 12.2347 9.51693 12.2458 9.5096L12.6687 9.22977C12.7847 9.15305 12.8993 9.08256 12.9908 9.03111C13.0365 9.00543 13.077 8.9842 13.1093 8.96927C13.1254 8.96182 13.14 8.95567 13.1526 8.9513ZM13.0298 9.0995C12.9403 9.14981 12.8274 9.21924 12.7127 9.29515L12.3074 9.56325L12.3266 13.1608C12.3362 14.7828 12.3474 15.7296 12.3714 16.2709C12.3834 16.542 12.3985 16.7091 12.4178 16.8079C12.4275 16.8578 12.4375 16.8866 12.4465 16.902C12.4489 16.9061 12.4509 16.9087 12.4524 16.9103C12.4544 16.9093 12.4568 16.9082 12.4596 16.9068C12.4729 16.9 12.4923 16.8895 12.5174 16.8753C12.5675 16.847 12.6387 16.8053 12.7255 16.7533C12.899 16.6493 13.1343 16.5048 13.3873 16.3459L13.3874 16.3459C14.7589 15.4904 15.5723 14.9771 16.0468 14.6619C16.2842 14.5042 16.4357 14.3967 16.5296 14.3211C16.5766 14.2833 16.6081 14.2542 16.6286 14.2316C16.6495 14.2084 16.6559 14.1949 16.6576 14.1882C16.6663 14.1538 16.6773 14.0633 16.687 13.941C16.6966 13.8201 16.7045 13.6714 16.7077 13.5227L16.7077 13.5221L16.7264 13.0031L15.3392 11.3675C14.5894 10.4866 14.0772 9.8973 13.7365 9.52829C13.5661 9.34368 13.4394 9.215 13.3477 9.13271C13.3017 9.0915 13.2655 9.06277 13.2377 9.04457C13.209 9.0258 13.1949 9.02216 13.1909 9.02193C13.191 9.022 13.1874 9.02246 13.1787 9.02548C13.1696 9.02866 13.1575 9.03364 13.1427 9.0405C13.1131 9.0542 13.0747 9.07431 13.0298 9.0995ZM11.1866 8.95317C11.1889 8.95223 11.1955 8.94969 11.2039 8.94969C11.2147 8.94969 11.2231 8.95369 11.2268 8.95557C11.2314 8.95793 11.2355 8.96078 11.239 8.96338C11.246 8.96863 11.2537 8.97553 11.2616 8.98318C11.2775 8.99864 11.2973 9.02028 11.3197 9.04605C11.3645 9.09778 11.4211 9.16847 11.4791 9.24524L11.4795 9.24571L11.6845 9.52554C11.6895 9.53226 11.6921 9.54035 11.6921 9.54865V13.1738C11.6921 14.6428 11.6873 15.5544 11.6721 16.1075C11.6645 16.3839 11.6542 16.5719 11.6405 16.6955C11.6337 16.7573 11.6258 16.8043 11.6166 16.8388C11.6079 16.8711 11.5961 16.9006 11.5756 16.9179L11.5751 16.9183C11.5456 16.9423 11.5071 16.9475 11.4641 16.9419C11.4213 16.9363 11.3682 16.9194 11.3022 16.8915C11.1698 16.8355 10.9756 16.731 10.6905 16.5657C9.65216 15.971 8.78645 15.4539 8.17932 15.0671C7.87584 14.8737 7.63638 14.7125 7.47211 14.5902C7.3901 14.5292 7.32593 14.4772 7.28173 14.4353C7.2597 14.4144 7.24168 14.3951 7.22878 14.3778C7.21708 14.3621 7.20483 14.3419 7.20388 14.3202C7.20386 14.3199 7.20385 14.3196 7.20384 14.3192C7.20384 14.319 7.20384 14.3188 7.20384 14.3185V14.3184C7.20384 14.2548 7.20384 14.0634 7.21027 13.891C7.21644 13.7259 7.16024 13.4322 7.08452 13.2255C7.04596 13.1234 7.01059 13.0245 6.98482 12.9486C6.97193 12.9106 6.96137 12.8782 6.95399 12.8539C6.95031 12.8418 6.94732 12.8313 6.94521 12.8231C6.94362 12.8169 6.94109 12.8068 6.94109 12.7985C6.94109 12.7888 6.94464 12.7813 6.94573 12.7791C6.94736 12.7757 6.94924 12.7727 6.95078 12.7704C6.95392 12.7658 6.95791 12.7608 6.96218 12.7557C6.97086 12.7454 6.9832 12.732 6.99856 12.716C7.02942 12.684 7.07435 12.6395 7.13113 12.5848C7.24479 12.4751 7.40706 12.3228 7.60183 12.1424C7.99142 11.7815 8.51166 11.3076 9.03443 10.8361C9.5572 10.3646 10.0826 9.89541 10.4826 9.54407C10.6826 9.36843 10.8514 9.2221 10.9729 9.11961C11.0336 9.06841 11.0827 9.02791 11.1182 9.0001C11.1359 8.98625 11.1506 8.97517 11.1619 8.9674C11.1675 8.96357 11.1729 8.96006 11.1778 8.95735C11.1802 8.95602 11.1833 8.95448 11.1866 8.95317ZM7.02266 12.8064C7.02435 12.8128 7.02673 12.8211 7.02981 12.8312C7.03685 12.8544 7.04711 12.886 7.05986 12.9235C7.08534 12.9986 7.12044 13.0967 7.15875 13.1981L7.15889 13.1985C7.23693 13.4115 7.29606 13.7156 7.28941 13.8939C7.28312 14.0624 7.28303 14.2496 7.28303 14.3158C7.28344 14.3167 7.28528 14.3214 7.29245 14.3311C7.30154 14.3433 7.31595 14.359 7.33644 14.3784C7.37727 14.4172 7.43853 14.467 7.51963 14.5274C7.6816 14.648 7.91917 14.8079 8.2221 15.0009C8.82777 15.3868 9.69232 15.9032 10.7302 16.4977L10.7304 16.4978C11.0157 16.6633 11.206 16.7654 11.3332 16.8192C11.397 16.8461 11.4423 16.8598 11.4744 16.864C11.5054 16.868 11.5183 16.8625 11.5244 16.8579C11.5247 16.8575 11.5265 16.8554 11.5292 16.8499C11.5325 16.8432 11.5362 16.8331 11.54 16.8187C11.5478 16.7897 11.5551 16.7472 11.5618 16.687C11.5751 16.5667 11.5853 16.3815 11.5929 16.1054C11.6081 15.5535 11.6129 14.643 11.6129 13.1738V9.56143L11.4158 9.2924C11.4157 9.29232 11.4156 9.29224 11.4156 9.29216C11.3583 9.21639 11.3029 9.14725 11.2596 9.09728C11.2379 9.07217 11.2197 9.05247 11.2061 9.03932C11.2047 9.03792 11.2034 9.03663 11.2021 9.03545C11.1933 9.04173 11.1817 9.05049 11.1673 9.06176C11.133 9.08868 11.0847 9.12846 11.0242 9.17949C10.9033 9.28146 10.735 9.42738 10.5351 9.60292C10.1355 9.95395 9.61031 10.4229 9.08769 10.8942C8.56506 11.3656 8.04511 11.8393 7.65586 12.1998C7.46121 12.3801 7.29941 12.532 7.18634 12.6411C7.12975 12.6957 7.08566 12.7393 7.05583 12.7703C7.04085 12.7859 7.02993 12.7978 7.02294 12.8061C7.02285 12.8062 7.02275 12.8063 7.02266 12.8064Z" fill="white"/>
</g>
<defs>
<clipPath id="clip0_1_12">
<rect width="24" height="24" fill="white"/>
</clipPath>
</defs>
</svg>
