<svg width="150" height="30" fill="none" xmlns="http://www.w3.org/2000/svg"><g clip-path="url(#a)" fill="#fff"><path d="M53.992 8.13c-1.068-.535-2-.812-3.276-.976-.299-.038-1.905-.07-2.2-.045-1.245.11-2.283.357-3.301.787a9.83 9.83 0 0 0-4.483 3.81 10.627 10.627 0 0 0-1.492 4.24c-.257 2.014-.017 4.034.686 5.771.125.31.48 1.03.655 1.328a10.132 10.132 0 0 0 3.084 3.27 10.046 10.046 0 0 0 4.276 1.594c1.037.134 2.253.112 3.321-.06a9.576 9.576 0 0 0 4.368-1.942c.334-.266.982-.91 1.242-1.235.552-.687 1.094-1.675 1.065-1.938-.019-.165-.097-.25-.34-.373-.632-.317-2.948-1.42-3.008-1.431a.404.404 0 0 0-.32.082c-.043.036-.12.157-.175.275a5.072 5.072 0 0 1-1.265 1.654c-.933.803-1.921 1.175-3.25 1.223-2.255.081-4.147-.919-5.243-2.772-.581-.982-.873-2.029-.947-3.397-.084-1.537.218-3.017.843-4.138.887-1.591 2.325-2.595 4.121-2.876.363-.057 1.288-.078 1.675-.038 1.357.14 2.507.746 3.375 1.778.243.29.436.585.649.994.164.317.186.347.29.4.078.04.14.055.202.047.115-.014 3.163-1.479 3.257-1.565.168-.153.18-.284.053-.582-.321-.753-.817-1.472-1.485-2.156a8.626 8.626 0 0 0-2.377-1.729ZM80.792 7.643a.515.515 0 0 0-.141-.168l-.085-.057-1.766.001c-1.95 0-1.867-.006-1.985.16l-.055.077-.006 9.867-.007 9.867.057.083a.67.67 0 0 0 .127.135c.07.052.09.053 1.813.06 1.97.008 1.898.014 2.025-.177l.067-.102.006-9.817.007-9.817-.057-.112ZM101.847 7.643a.51.51 0 0 0-.141-.168l-.085-.057-1.765.001c-1.95 0-1.868-.006-1.985.16l-.056.077v3.6l.058.082c.126.177.03.168 1.912.176 1.152.005 1.726-.002 1.794-.02a.441.441 0 0 0 .295-.27c.021-.07.03-.567.03-1.784V7.754l-.057-.111ZM93.677 13.92c-.909-.724-2.016-1.18-3.314-1.365-.264-.037-1.494-.069-1.763-.045-.854.076-1.682.292-2.35.613-.56.269-.918.515-1.335.92-.86.838-1.266 1.825-1.266 3.086 0 .895.225 1.655.696 2.356.534.794 1.403 1.446 2.442 1.833.362.135.372.138 2.028.601.852.239 1.519.44 1.653.497.433.187.71.416.85.702.057.116.07.182.079.381.005.133-.003.3-.018.372-.116.54-.548.86-1.29.953a4.761 4.761 0 0 1-1.244-.05c-1.066-.226-2.026-.934-2.646-1.955a2.522 2.522 0 0 0-.181-.268.435.435 0 0 0-.296-.129c-.102 0-2.508 1.134-2.602 1.226a.478.478 0 0 0-.099.173c-.04.132-.01.226.204.664.487.996 1.27 1.826 2.312 2.456.904.545 1.875.86 3.113 1.013.398.048 1.653.04 2.063-.014 1.005-.133 1.79-.39 2.508-.822.665-.4 1.275-1.011 1.629-1.633.584-1.027.69-2.484.264-3.626-.124-.332-.2-.48-.409-.79-.512-.763-1.342-1.383-2.418-1.807a40.2 40.2 0 0 0-1.813-.575c-1.605-.48-1.743-.526-2.036-.672-.642-.32-.904-.718-.814-1.234.118-.68.817-1.06 1.841-1.002.71.04 1.246.217 1.81.594.395.264.656.555.989 1.101a.54.54 0 0 0 .135.14c.171.115.19.11 1.503-.506.662-.31 1.23-.58 1.263-.602a.436.436 0 0 0 .153-.356c-.033-.204-.392-.852-.7-1.264a7.076 7.076 0 0 0-.941-.966ZM101.848 13.028a.497.497 0 0 0-.125-.138l-.082-.058-1.777-.007-1.778-.006-.085.057a.626.626 0 0 0-.142.142l-.056.084v14.289l.056.083c.03.045.088.106.127.134.07.052.09.053 1.813.06 1.971.008 1.898.014 2.025-.177l.067-.102v-7.14c0-6.73-.002-7.146-.043-7.221Z"/><path fill-rule="evenodd" clip-rule="evenodd" d="M68.218 12.556c1.462.19 2.586.651 3.616 1.481.318.257.847.8 1.082 1.114.756 1.005 1.209 2.167 1.398 3.583.062.47.062 1.685 0 2.085-.058.37-.12.483-.3.551-.049.019-1.557.027-4.96.027h-4.89l-.097.054c-.1.056-.198.211-.198.313 0 .087.122.48.219.704.218.509.61.995 1.071 1.333.224.164.716.403.986.48.394.113.68.15 1.175.152.258 0 .56-.013.683-.03.882-.13 1.585-.515 2.123-1.164.223-.27.316-.33.474-.31.051.007.693.297 1.426.644 1.436.68 1.498.716 1.535.912.024.127-.014.235-.18.513-.227.381-.471.69-.82 1.038-1.048 1.045-2.456 1.688-4.166 1.904-.425.054-1.676.062-2.087.013-1.043-.122-1.868-.358-2.676-.766a6.95 6.95 0 0 1-1.81-1.3c-1.23-1.202-1.974-2.742-2.22-4.603-.06-.457-.061-1.664-.001-2.136.234-1.836.976-3.35 2.247-4.592 1.206-1.177 2.695-1.866 4.397-2.034.36-.036 1.605-.014 1.973.034Zm-3.881 4.687a2.953 2.953 0 0 1 2.237-1.445c.596-.069 1.253.014 1.75.22.707.295 1.326.973 1.56 1.71.103.325.073.485-.113.601l-.088.055h-5.401l-.091-.057a.374.374 0 0 1-.172-.318c0-.116.16-.5.318-.767ZM112.506 12.556c1.292.177 2.354.588 3.242 1.255.251.188.696.617.891.859a4.843 4.843 0 0 1 1.056 2.548c.034.298.038.957.032 5.27l-.007 4.931-.052.07a.699.699 0 0 1-.12.12c-.068.05-.098.052-1.694.058-1.499.007-1.703.012-1.805-.086-.021-.02-.038-.046-.061-.076-.055-.072-.068-.121-.081-.305-.013-.168-.029-.236-.071-.296a.421.421 0 0 0-.36-.146c-.045.009-.222.11-.394.227-1.007.676-2.208 1.012-3.619 1.013-1.111 0-2.094-.195-2.896-.577-.831-.395-1.511-1.042-1.887-1.794-.462-.926-.547-2.246-.214-3.3.532-1.678 2.067-2.795 4.527-3.293.233-.047 1.319-.228 2.413-.4 1.5-.238 2.003-.326 2.05-.36a.637.637 0 0 0 .122-.13c.055-.08.058-.102.047-.36a1.65 1.65 0 0 0-.256-.85c-.323-.516-.865-.854-1.561-.973a4.88 4.88 0 0 0-1.221-.003c-.938.152-1.786.75-2.283 1.612-.185.32-.289.398-.494.369-.123-.017-2.724-1.255-2.811-1.337a.38.38 0 0 1-.112-.322c.032-.195.38-.83.656-1.198.806-1.071 2.035-1.878 3.476-2.284.475-.133.951-.216 1.649-.288.244-.025 1.563.008 1.838.046Zm-2.631 9.426c.127-.036.909-.187 1.738-.335.828-.149 1.562-.271 1.631-.273a.364.364 0 0 1 .337.179c.134.218-.001 1.087-.249 1.604-.378.79-1.029 1.376-1.821 1.64-.591.196-1.361.243-1.868.114-.26-.066-.607-.257-.775-.426-.26-.26-.363-.524-.363-.926 0-.673.251-1.076.854-1.373.156-.076.388-.168.516-.204Z"/><path d="M39.106 6.401c-.35-1.859-1.816-3.206-3.683-3.383a3.879 3.879 0 0 0-1.372.115c-1.494.375-2.658 1.597-2.996 3.144-.048.22-.055.329-.055.816 0 .488.007.597.055.817a4.134 4.134 0 0 0 1.569 2.46c1.254.942 2.897 1.079 4.313.36 1.136-.578 1.926-1.65 2.168-2.943.06-.32.06-1.067 0-1.386Z"/></g><defs><clipPath id="a"><path fill="#fff" transform="translate(31 3)" d="M0 0h87v25H0z"/></clipPath></defs></svg>