<svg width="24" height="24" viewBox="0 0 24 24" fill="none" xmlns="http://www.w3.org/2000/svg"><path fill-rule="evenodd" clip-rule="evenodd" d="M11.999 1.5C6.20162 1.5 1.5 6.20097 1.5 12.0003C1.5 16.6394 4.50829 20.5746 8.6807 21.9631C9.20604 22.0597 9.39748 21.7355 9.39748 21.4571C9.39748 21.2082 9.38846 20.5475 9.3833 19.6716C6.46268 20.3058 5.84645 18.2638 5.84645 18.2638C5.36881 17.0507 4.68039 16.7277 4.68039 16.7277C3.72705 16.0767 4.75259 16.0896 4.75259 16.0896C5.80649 16.1637 6.36083 17.1718 6.36083 17.1718C7.29742 18.7762 8.81864 18.3128 9.41682 18.044C9.51222 17.3659 9.78359 16.903 10.0833 16.6407C7.75185 16.3758 5.30048 15.4746 5.30048 11.4511C5.30048 10.3051 5.7098 9.36718 6.38146 8.63364C6.27317 8.36807 5.91284 7.29999 6.48459 5.85483C6.48459 5.85483 7.36574 5.5725 9.3717 6.93129C10.209 6.69795 11.1076 6.58192 12.0003 6.57741C12.8924 6.58192 13.7903 6.69795 14.6289 6.93129C16.6336 5.5725 17.5135 5.85483 17.5135 5.85483C18.0865 7.29999 17.7262 8.36807 17.6185 8.63364C18.2915 9.36718 18.6976 10.3051 18.6976 11.4511C18.6976 15.485 16.2423 16.3726 13.9038 16.6323C14.2802 16.9566 14.6161 17.5973 14.6161 18.577C14.6161 19.9803 14.6032 21.1128 14.6032 21.4571C14.6032 21.7381 14.7927 22.0649 15.3251 21.9624C19.4943 20.5708 22.5 16.6381 22.5 12.0003C22.5 6.20097 17.7984 1.5 11.999 1.5Z" fill="#dfecf5"/></svg>
