<svg xmlns="http://www.w3.org/2000/svg" width="24" height="24" fill="none"><path fill="#4285F4" fill-rule="evenodd" d="M22.08 12.239c0-.745-.067-1.46-.191-2.148h-9.89v4.061h5.652a4.83 4.83 0 0 1-2.095 3.17v2.634h3.393c1.985-1.828 3.13-4.52 3.13-7.717Z" clip-rule="evenodd"/><path fill="#34A853" fill-rule="evenodd" d="M12 22.5c2.835 0 5.212-.94 6.949-2.544l-3.393-2.634c-.94.63-2.143 1.002-3.556 1.002-2.735 0-5.05-1.847-5.875-4.329H2.617v2.72A10.496 10.496 0 0 0 12 22.5Z" clip-rule="evenodd"/><path fill="#FBBC05" fill-rule="evenodd" d="M6.125 13.995A6.312 6.312 0 0 1 5.795 12c0-.692.12-1.365.33-1.995v-2.72H2.617A10.496 10.496 0 0 0 1.5 12c0 1.694.406 3.297 1.117 4.715l3.508-2.72Z" clip-rule="evenodd"/><path fill="#EA4335" fill-rule="evenodd" d="M12 5.676c1.541 0 2.926.53 4.014 1.57l3.011-3.011C17.207 2.54 14.83 1.5 12 1.5a10.496 10.496 0 0 0-9.383 5.785l3.508 2.72C6.95 7.523 9.265 5.676 12 5.676Z" clip-rule="evenodd"/></svg>