<svg width="150" height="30" fill="none" xmlns="http://www.w3.org/2000/svg"><path d="M123.477 14.573c0-2.369 1.633-3.936 3.759-3.936s3.758 1.567 3.758 3.936c0 2.369-1.632 3.936-3.758 3.936-2.126-.037-3.759-1.604-3.759-3.936Zm4.252 7.361c3.758 0 7.023-3.134 7.023-7.398 0-4.263-3.265-7.397-7.023-7.397-2.468 0-3.91 1.42-3.91 1.42V2h-3.797v19.789h2.772l.645-1.422c.038 0 1.671 1.567 4.29 1.567Zm-14.73-7.361c0 2.369-1.632 3.936-3.758 3.936-2.127 0-3.759-1.567-3.759-3.936 0-2.369 1.632-3.936 3.759-3.936 2.126 0 3.758 1.567 3.758 3.936Zm-4.252 7.361c2.62 0 4.252-1.567 4.252-1.567l.645 1.422h2.772V7.357h-2.772l-.645 1.421s-1.632-1.567-4.252-1.567c-3.759 0-7.024 3.134-7.024 7.398 0 4.264 3.265 7.325 7.024 7.325ZM98.952 2h-3.758v19.789h3.758V2Zm-7.365 5.175c-2.278 0-3.606 1.713-3.606 1.713l-.646-1.567h-2.771v14.431h3.758V14.1c0-1.895 1.29-3.134 3.113-3.134.835 0 1.291.146 1.291.146V7.357s-.493-.182-1.139-.182Zm-17.008 3.462c1.974 0 3.265 1.24 3.607 2.843h-7.214c.304-1.604 1.633-2.843 3.607-2.843Zm2.771 6.742s-.835 1.093-2.771 1.093-3.113-1.093-3.417-2.514H81.64s.152-.802.152-1.421c0-4.41-3.265-7.399-7.213-7.399-4.1 0-7.517 3.28-7.517 7.399 0 4.118 3.417 7.397 7.517 7.397 3.417 0 5.885-2.368 6.72-4.555H77.35Zm-23.575-2.806c0-2.369 1.632-3.936 3.758-3.936 2.126 0 3.758 1.567 3.758 3.936 0 2.369-1.632 3.936-3.758 3.936-2.126-.037-3.758-1.604-3.758-3.936Zm4.252-7.398c-2.62 0-4.252 1.567-4.252 1.567l-.646-1.421h-2.771v19.46h3.758v-6.268s1.48 1.421 3.91 1.421c3.759 0 7.024-3.134 7.024-7.398 0-4.263-3.265-7.361-7.023-7.361ZM39.081 21.169l-.341.802c-.456 1.093-1.291 1.895-2.962 1.895v2.988s.646.146 1.291.146c2.468 0 3.759-1.239 5.24-4.701.341-.802 6.036-14.905 6.036-14.905h-3.873l-3.416 9.438-3.797-9.475h-3.91l5.732 13.812ZM16 4.515v17.274h3.91v-7.216h7.365v7.216h3.91V4.515h-3.91v6.596H19.91V4.515H16Z" fill="#fff"/></svg>