<svg xmlns="http://www.w3.org/2000/svg" width="142" height="48" fill="none"><g clip-path="url(#a)"><path fill="#fff" fill-rule="evenodd" d="M75.985 22.827h7.188v-5.702h3.803v14.628h-3.803V26.05h-7.188v5.702h-3.669V17.125h3.669v5.702Zm25.495-5.702h-5.87c-1.626 0-2.615.307-3.364 1.054-.746.745-1.032 1.69-1.032 3.357v5.812c0 1.668.286 2.61 1.032 3.357.746.747 1.735 1.054 3.364 1.054h5.87c1.625 0 2.615-.307 3.364-1.054.749-.744 1.032-1.69 1.032-3.357v-5.812c0-1.668-.286-2.61-1.032-3.357-.749-.747-1.739-1.054-3.364-1.054Zm.724 10.308c0 .857-.286 1.097-1.318 1.097h-4.682c-1.032 0-1.319-.24-1.319-1.097v-5.988c0-.857.286-1.097 1.319-1.097h4.682c1.056 0 1.318.22 1.318 1.097v5.988Zm12.768-4.454h5.252c1.626 0 2.637.307 3.364 1.054.658.66 1.032 1.732 1.032 2.896v.878c0 1.163-.374 2.214-1.032 2.895-.727.747-1.717 1.054-3.364 1.054h-10.022v-3.223h9.407c1.032 0 1.318-.24 1.318-1.097v-.438c0-.856-.286-1.096-1.318-1.096h-5.252c-1.628 0-2.639-.31-3.364-1.054-.657-.66-1.032-1.732-1.032-2.896v-.878c0-1.163.372-2.214 1.032-2.895.728-.747 1.714-1.054 3.364-1.054h9.499v3.223h-8.884c-1.032 0-1.318.24-1.318 1.097v.438c0 .856.286 1.096 1.318 1.096Zm11.974-2.63v-3.224h14.945v3.223h-5.626v11.405h-3.671V20.348h-5.648Z" clip-rule="evenodd"/><path fill="#3888ff" d="M63.532 17.01h-5.87c-1.625 0-2.615.306-3.364 1.054-.746.744-1.032 1.689-1.032 3.354V31.75h3.672V21.332c0-.856.286-1.096 1.318-1.096h4.682c1.057 0 1.319.219 1.319 1.097v10.42h3.671V21.42c0-1.668-.286-2.61-1.032-3.354-.746-.75-1.735-1.057-3.364-1.057Z"/><g clip-path="url(#b)"><path fill="#3888ff" d="M40.811 10.287 24.081.647a4.901 4.901 0 0 0-4.867 0 4.868 4.868 0 0 0-2.433 4.205v1.257l-1.09-.628a4.901 4.901 0 0 0-4.868 0 4.869 4.869 0 0 0-2.432 4.207v1.258l-1.09-.629a4.901 4.901 0 0 0-4.868 0A4.869 4.869 0 0 0 0 14.525v30.203a2.29 2.29 0 0 0 1.29 2.054c.783.38 1.733.276 2.415-.261l8.296-6.53 12.793 7.371a2.29 2.29 0 0 0 1.145.304 2.288 2.288 0 0 0 2.29-2.281V27.207a8.392 8.392 0 0 0-4.196-7.252l-4.195-2.418V4.855a1.813 1.813 0 0 1 2.722-1.568l16.73 9.637a5.342 5.342 0 0 1 2.67 4.614v22.633c0 .644-.348 1.246-.908 1.568l-4.433 2.555V22.372a8.393 8.393 0 0 0-4.195-7.252l-10.3-5.933v3.515l8.775 5.055a5.338 5.338 0 0 1 2.67 4.615v23.237c0 .811.438 1.57 1.144 1.978a2.29 2.29 0 0 0 1.145.304c.396 0 .792-.104 1.145-.304l5.577-3.214a4.87 4.87 0 0 0 2.433-4.208V17.532a8.412 8.412 0 0 0-4.202-7.245Zm-18.31 12.306a5.339 5.339 0 0 1 2.67 4.615v16.86l-10.594-6.102 3.4-2.674a4.82 4.82 0 0 0 1.855-3.813V21.06l2.67 1.534Zm-5.72-3.296v12.176c0 .56-.252 1.079-.69 1.422L3.05 43.155V14.52a1.814 1.814 0 0 1 2.721-1.567l2.619 1.507v21.585l3.05-2.4V9.688a1.813 1.813 0 0 1 2.722-1.567l2.618 1.506v6.152l-3.05-1.759v3.518l3.05 1.76Z"/></g></g><defs><clipPath id="a"><path fill="#fff" d="M0 0h141.873v48H0z"/></clipPath><clipPath id="b"><path fill="#fff" d="M0 0h45.013v47.891H0z"/></clipPath></defs></svg>