<svg width="150" height="30" fill="none" xmlns="http://www.w3.org/2000/svg"><g clip-path="url(#a)" fill="#fff"><path fill-rule="evenodd" clip-rule="evenodd" d="M51.671 21.526a6.792 6.792 0 0 1-2.702-2.968c-.612-1.277-.931-2.768-.931-4.471 0-1.704.306-3.194.931-4.472a6.792 6.792 0 0 1 2.702-2.967c1.184-.706 2.595-1.052 4.219-1.052 2.448 0 4.365.772 5.749 2.302 1.384 1.53 2.076 3.594 2.076 6.189s-.692 4.657-2.076 6.188c-1.384 1.53-3.3 2.302-5.75 2.302-1.636 0-3.034-.346-4.218-1.051Zm7.971-2.742c.879-1.144 1.318-2.714 1.318-4.697 0-1.97-.44-3.54-1.318-4.685-.878-1.158-2.129-1.73-3.766-1.73s-2.9.572-3.78 1.73c-.877 1.158-1.317 2.715-1.317 4.685 0 1.983.44 3.553 1.318 4.697.878 1.145 2.142 1.717 3.766 1.717 1.65.013 2.901-.559 3.78-1.717Zm7.413 3.26c-.226-.186-.333-.452-.333-.811v-9.236c0-.332.12-.599.346-.785.227-.186.506-.28.812-.28.12 0 .24.014.346.04.106.027.213.067.306.12.093.054.173.12.253.2a.99.99 0 0 1 .173.28c.04.106.067.226.067.359l-.027 1.41a3.375 3.375 0 0 1 1.158-1.783 3.12 3.12 0 0 1 2.036-.719c.28 0 .492.094.639.293.146.2.226.44.226.706 0 .252-.067.465-.2.652-.133.186-.332.28-.585.28-1.012 0-1.81.239-2.383.704-.572.48-.864 1.198-.864 2.156v5.59c0 .346-.12.612-.36.798a1.29 1.29 0 0 1-.825.28 1.04 1.04 0 0 1-.785-.253Zm8.983-3.047c0 1.131.266 1.996.811 2.582.533.599 1.265.892 2.183.865h.998c.122 0 .244-.011.376-.023l.037-.004c.146-.013.279-.04.372-.066.107-.027.213-.067.306-.107a.755.755 0 0 0 .24-.16.818.818 0 0 0 .146-.239.919.919 0 0 0 .053-.333c0-.24-.08-.452-.24-.625-.159-.173-.385-.266-.664-.266h-.067l-.812.04h-.12c-.465 0-.811-.187-1.011-.533-.2-.346-.306-.891-.306-1.623V12.53h2.05c.266 0 .478-.067.611-.2.134-.133.2-.306.2-.532 0-.213-.066-.4-.2-.546-.133-.146-.332-.213-.612-.213h-2.036V7.78c0-.306-.08-.533-.24-.679a.901.901 0 0 0-.625-.226c-.293 0-.545.093-.758.28a1.115 1.115 0 0 0-.373.718l-.306 3.167h-1.344c-.28 0-.48.067-.626.2-.146.133-.213.306-.213.532 0 .226.067.4.213.546.147.146.346.213.626.213h1.33v6.467Zm8.104 3.034c-.226-.2-.332-.465-.332-.811V7.02c0-.333.12-.599.346-.785.226-.186.505-.28.811-.28.306 0 .586.094.812.28.226.186.346.452.346.785v5.576c.333-.585.825-1.038 1.49-1.37.666-.333 1.425-.493 2.263-.493.559 0 1.078.08 1.557.253.479.173.918.426 1.304.758.386.333.692.799.918 1.371.227.572.333 1.238.333 1.983v6.122c0 .346-.12.625-.346.811a1.274 1.274 0 0 1-.825.293c-.306 0-.586-.093-.812-.293-.226-.2-.333-.465-.333-.811V15.03c0-.878-.213-1.543-.638-1.996-.426-.439-.998-.665-1.73-.665-.879 0-1.637.306-2.25.931-.611.626-.93 1.464-.93 2.542v5.377c0 .346-.12.625-.347.811a1.274 1.274 0 0 1-.825.293c-.32 0-.586-.093-.812-.293Zm13.774-1.29c.479.545 1.091.971 1.836 1.29.746.32 1.584.48 2.502.48.918 0 1.757-.16 2.502-.48.759-.319 1.357-.745 1.836-1.29a5.733 5.733 0 0 0 1.092-1.877 6.59 6.59 0 0 0 .372-2.249c0-1.091-.213-2.09-.652-2.968-.439-.878-1.104-1.583-1.996-2.116-.892-.532-1.943-.798-3.154-.798-.931 0-1.756.16-2.502.466-.745.306-1.357.732-1.836 1.277a5.746 5.746 0 0 0-1.091 1.877 6.691 6.691 0 0 0-.373 2.275c0 .799.12 1.544.373 2.25a5.684 5.684 0 0 0 1.09 1.863Zm7.865-4.1c0 1.345-.32 2.396-.932 3.155-.612.758-1.477 1.144-2.595 1.157-1.091 0-1.956-.386-2.582-1.157-.625-.772-.931-1.823-.931-3.154 0-1.344.306-2.396.931-3.168.626-.771 1.491-1.157 2.595-1.157 1.092 0 1.957.386 2.582 1.157.626.786.932 1.837.932 3.168Zm5.15 9.755c-.226-.186-.346-.452-.346-.785V12.037c0-.346.12-.612.346-.812.226-.2.506-.292.812-.292.372 0 .652.093.851.28.2.185.293.452.293.81v.813c.759-1.398 2.05-2.09 3.859-2.09.799 0 1.504.16 2.143.493.639.32 1.144.758 1.544 1.317.399.56.705 1.185.918 1.89a7.81 7.81 0 0 1 .319 2.262c0 1.704-.452 3.101-1.37 4.192-.919 1.091-2.156 1.624-3.727 1.624-1.716 0-2.954-.666-3.699-2.01v5.11c0 .333-.12.6-.346.786-.226.186-.506.28-.812.28-.279 0-.559-.094-.785-.294Zm6.534-5.709c.373-.173.679-.399.905-.678.24-.28.439-.613.586-.985.159-.373.266-.759.332-1.145.067-.386.093-.798.093-1.21 0-.506-.053-.999-.159-1.478a5.923 5.923 0 0 0-.493-1.384 2.618 2.618 0 0 0-.971-1.078 2.75 2.75 0 0 0-1.491-.412c-.638 0-1.171.106-1.623.319a2.502 2.502 0 0 0-1.052.905c-.252.4-.439.852-.545 1.357-.12.506-.173 1.105-.173 1.77 0 .44.04.865.106 1.265.067.399.2.785.373 1.157.173.373.386.692.625.959.253.266.559.492.932.652.373.16.798.24 1.264.24.493 0 .918-.08 1.291-.254Zm8.384 5.976c.226.2.479.306.772.306.439 0 .758-.213.985-.68l6.72-13.906a.97.97 0 0 0-.213-1.197 1.165 1.165 0 0 0-.785-.307c-.2 0-.399.054-.572.173-.173.12-.32.293-.439.533l-3.381 6.986-3.327-6.893a1.675 1.675 0 0 0-.279-.386 1.03 1.03 0 0 0-.346-.226 1.159 1.159 0 0 0-1.171.24c-.226.212-.346.452-.346.745 0 .172.04.332.12.505l4.192 8.41-2.156 4.485c-.08.16-.12.32-.12.48 0 .292.12.532.346.732Z"/><path d="M38.656 21.539c.24-.373.266-.506.213-.586-.013-.013-.027-.053-.067-.066-.053-.013-.106.026-.226.133-.12.12-.253.226-.373.333-3.672 3.087-9.501 3.42-14.345.439-5.164-3.18-7.48-9.063-5.803-13.933.054-.16.067-.227.027-.267-.027-.026-.08-.026-.093-.026-.093 0-.2.066-.426.412a12.595 12.595 0 0 0-1.517 3.806c-1.49 6.76 2.795 13.455 9.555 14.932a12.623 12.623 0 0 0 13.055-5.177s-.013 0 0 0Z"/><path fill-rule="evenodd" clip-rule="evenodd" d="M35.382 4.438c-.213-.053-.425-.106-.638-.146-5.03-.958-9.955 2.582-10.993 7.905-.812 4.192 1.012 8.238 4.285 10.234.067.053.094.08.094.12 0 .033-.028.057-.045.071a.131.131 0 0 0-.009.008c-.08.067-.2.067-.492-.013a13.438 13.438 0 0 1-3.008-1.278c-5.642-3.247-7.918-9.807-5.07-14.652 2.848-4.844 9.741-6.148 15.384-2.9.048.019.089.045.133.073l.053.033c.386.24.453.346.453.439 0 .013 0 .067-.027.093-.027.027-.066.027-.12.013Zm-10.113 5.91c1.623-3.754 5.482-5.976 9.328-5.138 2.888.64 4.485 2.848 4.858 3.394 2.076 2.994 1.424 6.241 1.25 7.04-.146.705-.678 3.007-2.754 4.87-.373.346-3.553 3.114-7.44 2.156 0 0-2.847-.692-4.87-3.966-.026-.04-.16-.279-.093-.386 0-.013.027-.053.067-.066.034-.012.069.007.094.02l.012.007c.186.12.4.226.479.266l.107.053a.723.723 0 0 1 .096.034l.05.02c.28.132.585.239.905.305a4.624 4.624 0 0 0 5.51-3.526 4.624 4.624 0 0 0-3.527-5.51 4.609 4.609 0 0 0-3.966.972c0 .008-.005.011-.012.015-.005.003-.01.006-.015.011-.013.014-.053.054-.106.04-.04-.013-.067-.04-.08-.053-.066-.093.013-.346.107-.559Z"/></g><defs><clipPath id="a"><path fill="#fff" transform="translate(15 2)" d="M0 0h120v25H0z"/></clipPath></defs></svg>