<svg width="150" height="30" fill="none" xmlns="http://www.w3.org/2000/svg"><path fill-rule="evenodd" clip-rule="evenodd" d="M112.031 14.013v6.383c0 .487-.162.865-.433 1.136-.27.27-.703.433-1.19.433s-.919-.163-1.19-.433c-.27-.27-.433-.65-.433-1.136v-6.383c0-.92-.162-1.569-.541-2.001-.378-.433-.973-.65-1.73-.65-.92 0-1.677.271-2.272.866-.595.595-.866 1.352-.866 2.38v5.788c0 .487-.162.865-.432 1.136-.271.27-.703.433-1.19.433s-.92-.163-1.19-.433c-.271-.27-.433-.65-.433-1.136V4.872c0-.433.162-.812.433-1.082a1.78 1.78 0 0 1 1.19-.433c.487 0 .865.108 1.19.379.324.27.432.595.432 1.082v6.058a4.837 4.837 0 0 1 1.731-1.569c.704-.378 1.515-.54 2.434-.54 2.975 0 4.49 1.73 4.49 5.246Zm30.561-2.163c-.487-.974-1.136-1.731-2.001-2.272a5.347 5.347 0 0 0-2.867-.812c-.92 0-1.731.163-2.434.541a3.915 3.915 0 0 0-1.623 1.623V4.818c0-.487-.108-.812-.433-1.082-.324-.27-.703-.379-1.19-.379-.486 0-.865.163-1.19.433-.27.27-.432.65-.432 1.082v15.47c0 .487.162.865.432 1.136.271.27.65.432 1.136.432.487 0 .92-.162 1.19-.432.271-.27.433-.65.433-1.136v-.65c.379.704.92 1.299 1.623 1.677a5.062 5.062 0 0 0 2.434.596c1.082 0 2.055-.27 2.921-.812.865-.54 1.514-1.298 2.001-2.326.487-1.028.703-2.218.703-3.516s-.216-2.488-.703-3.461Zm-2.542 3.461c0 1.353-.271 2.38-.866 3.084-.595.703-1.406 1.081-2.38 1.081-1.027 0-1.839-.378-2.38-1.081-.595-.704-.865-1.731-.865-3.03 0-1.298.325-2.325.865-3.029.541-.703 1.353-1.027 2.38-1.027 1.028 0 1.785.324 2.38 1.027.595.704.866 1.677.866 2.975Zm-13.09-4.922c0-.487-.162-.865-.433-1.136-.27-.27-.703-.433-1.19-.433s-.919.163-1.19.433c-.27.27-.433.65-.433 1.136v5.788c0 .973-.27 1.785-.811 2.38s-1.244.92-2.164.92c-.811 0-1.352-.217-1.73-.65-.379-.433-.541-1.082-.541-2.001v-6.437c0-.487-.163-.865-.433-1.136-.271-.27-.703-.433-1.19-.433s-.92.163-1.19.433c-.271.27-.433.65-.433 1.136v6.383c0 3.516 1.515 5.247 4.652 5.247.811 0 1.623-.163 2.272-.541a3.914 3.914 0 0 0 1.623-1.623v.65c0 .486.162.81.432 1.08.271.271.649.38 1.136.38a1.78 1.78 0 0 0 1.19-.433c.271-.27.433-.65.433-1.082V10.39Zm-29.858 9.304a.614.614 0 0 0-.162-.433c-.108-.108-.217-.216-.379-.216s-.433.108-.811.378c-.595.325-1.136.595-1.623.812-.541.216-1.136.324-1.893.324-1.407 0-2.542-.433-3.3-1.244-.757-.811-1.19-2.055-1.244-3.624h8.655c.27 0 .487-.054.649-.216.162-.163.216-.379.216-.704 0-1.839-.487-3.3-1.406-4.327-.92-1.028-2.218-1.568-3.84-1.568-1.19 0-2.218.27-3.084.81-.865.542-1.569 1.353-2.055 2.327-.487 1.027-.758 2.163-.758 3.462 0 2.001.595 3.624 1.677 4.76 1.082 1.135 2.597 1.73 4.544 1.73 1.406 0 2.704-.378 3.949-1.135.595-.379.865-.758.865-1.136ZM87.744 14.5c.162-1.352.595-2.434 1.298-3.191.704-.758 1.677-1.136 2.921-1.136 1.19 0 2.11.378 2.759 1.136.649.757.974 1.785 1.028 3.191h-8.006Zm-4.057-5.571c.217 0 .379.054.541.216a.66.66 0 0 1 .217.487c0 .108 0 .216-.054.324l-5.14 11.305a1.002 1.002 0 0 1-.378.433.914.914 0 0 1-.54.162.913.913 0 0 1-.541-.162c-.163-.108-.271-.27-.38-.433L72.22 9.956c-.054-.108-.054-.216-.054-.324 0-.217.108-.379.27-.541.163-.162.38-.216.595-.216.325 0 .541.162.65.486l4.651 10.494 4.652-10.44c.163-.324.379-.486.703-.486Zm-12.711.703c0-.27-.054-.433-.216-.541-.163-.108-.379-.162-.704-.162h-.378c-1.947.108-3.246.92-3.949 2.434V9.686c0-.27-.054-.433-.216-.595-.108-.162-.325-.216-.541-.216-.27 0-.433.054-.595.216-.162.162-.216.324-.216.595v11.359c0 .27.054.433.216.595.162.162.379.216.595.216.27 0 .433-.054.595-.216.162-.162.216-.325.216-.595v-6.707c0-.974.325-1.893.92-2.65.595-.758 1.514-1.19 2.758-1.299l.758-.054c.487-.054.757-.27.757-.703ZM60.591 19.26c.108.108.162.27.162.433 0 .378-.27.757-.866 1.136-1.244.757-2.542 1.136-3.948 1.136-1.948 0-3.462-.596-4.544-1.731-1.082-1.136-1.677-2.759-1.677-4.76 0-1.299.27-2.434.757-3.462.487-.974 1.19-1.785 2.056-2.326.866-.541 1.893-.811 3.083-.811 1.623 0 2.921.54 3.84 1.568.92 1.028 1.407 2.488 1.407 4.327 0 .325-.054.541-.216.704-.163.162-.379.216-.65.216h-8.654c.054 1.569.487 2.813 1.244 3.624.757.811 1.893 1.244 3.3 1.244.757 0 1.352-.108 1.893-.324a22.562 22.562 0 0 0 1.623-.812c.378-.27.649-.378.81-.378.163.054.271.108.38.216Zm-7.898-7.951c-.703.757-1.136 1.839-1.298 3.191H59.4c-.053-1.406-.378-2.434-1.027-3.191-.65-.758-1.569-1.136-2.759-1.136s-2.163.378-2.92 1.136Zm-14.496 9.574c.54.324 1.136.595 1.839.811.703.162 1.46.27 2.11.216 1.514 0 2.704-.324 3.57-.973.92-.65 1.352-1.46 1.352-2.543 0-.703-.162-1.244-.433-1.676-.27-.433-.703-.812-1.352-1.136a16.93 16.93 0 0 0-2.759-.866l-.215-.057c-.711-.189-1.284-.34-1.678-.538-.433-.216-.757-.432-.92-.703a1.869 1.869 0 0 1-.27-.973c0-.65.27-1.19.811-1.623.541-.379 1.244-.595 2.164-.595.703 0 1.298.108 1.73.324.488.217.92.487 1.407.812.379.27.65.432.812.432.108 0 .27-.108.378-.216a.615.615 0 0 0 .163-.433c0-.432-.325-.811-.92-1.244a5.58 5.58 0 0 0-1.623-.757c-.649-.162-1.298-.27-1.947-.27-1.352 0-2.488.324-3.354 1.027-.865.703-1.298 1.623-1.298 2.705 0 .92.325 1.677.974 2.218.649.54 1.785 1.027 3.3 1.352l.288.072c.734.182 1.335.331 1.767.523.487.216.811.433 1.027.703.217.27.325.595.325 1.028 0 .703-.27 1.244-.865 1.622-.541.38-1.353.541-2.38.541-.812 0-1.46-.108-2.002-.324a8.615 8.615 0 0 1-1.568-.812c-.379-.27-.65-.378-.812-.378a.584.584 0 0 0-.378.162.614.614 0 0 0-.163.433c0 .216.108.378.217.54.162.163.378.38.703.596Z" fill="#fff"/><path d="m28.19 17.908-8.492 4.868c-1.136.649-2.38.649-3.462.216l5.517 3.246c3.733 2.163 8.384-.541 8.384-4.814v-6.329c-.162 1.136-.81 2.164-1.947 2.813ZM13.802 19.368v-9.79c0-1.298.595-2.434 1.514-3.138L9.8 9.686c-3.732 2.164-3.732 7.518 0 9.682l5.518 3.192c-.92-.758-1.515-1.84-1.515-3.192ZM21.753 2.762l-5.517 3.192c1.082-.433 2.326-.433 3.462.216l8.492 4.868a3.917 3.917 0 0 1 1.947 2.813V7.576c0-4.273-4.651-6.977-8.384-4.814Z" fill="#fff"/></svg>