<svg width="24" height="24" viewBox="0 0 24 24" fill="none" xmlns="http://www.w3.org/2000/svg"><path fill-rule="evenodd" clip-rule="evenodd" d="M20.3623 8.25509C20.3623 13.9502 16.0288 20.515 8.10473 20.515C5.67033 20.515 3.40712 19.8017 1.5 18.5782C1.83783 18.6181 2.18022 18.6387 2.52717 18.6387C4.54728 18.6387 6.40418 17.9493 7.87761 16.7955C5.99332 16.7601 4.4012 15.5161 3.85337 13.8041C4.11587 13.8532 4.38636 13.8794 4.6637 13.8794C5.05745 13.8794 5.43864 13.8281 5.79929 13.7299C3.82826 13.3327 2.34342 11.5923 2.34342 9.50367C2.34342 9.48541 2.34342 9.46829 2.34342 9.45003C2.92435 9.77302 3.58973 9.96704 4.29505 9.98987C3.13891 9.21606 2.37766 7.899 2.37766 6.40275C2.37766 5.61411 2.58995 4.8734 2.96201 4.23655C5.08598 6.84443 8.26223 8.55867 11.8425 8.739C11.7695 8.42286 11.7318 8.0953 11.7318 7.75634C11.7318 5.37786 13.6595 3.4502 16.0391 3.4502C17.2785 3.4502 18.3982 3.97177 19.1845 4.80949C20.1649 4.61547 21.0871 4.2571 21.9202 3.76405C21.5984 4.76954 20.9147 5.61411 20.0257 6.1471C20.8976 6.0421 21.7262 5.8127 22.5 5.46916C21.9225 6.33427 21.1921 7.0921 20.3498 7.69813C20.3589 7.88302 20.3623 8.0702 20.3623 8.25509Z" fill="#1DA1F2"/></svg>
