<svg xmlns="http://www.w3.org/2000/svg" xml:space="preserve" width="197" height="171"><path fill="#FFF" d="M1.7 85.9c0 3.7 1 7.4 2.8 10.5l33.9 58.8c3.5 6 8.8 10.9 15.4 13.1 13 4.3 26.4-1.2 32.8-12.3l8.2-14.2-32.3-55.9 34.1-59.2 8.2-14.2c2.5-4.3 5.7-7.7 9.6-10.5H61.8c-9.2 0-17.7 4.9-22.3 12.9L4.6 75.4c-1.9 3.1-2.9 6.8-2.9 10.5z" class="st0"/><path fill="#FFF" d="M195.3 85.9c0-3.7-1-7.4-2.8-10.5l-34.4-59.6c-6.4-11-19.8-16.6-32.8-12.3-6.6 2.2-11.9 7.1-15.4 13.1L102.2 30l32.3 55.9-34.1 59.1-8.2 14.2c-2.5 4.2-5.7 7.7-9.6 10.5h52.6c9.2 0 17.7-4.9 22.3-12.9l34.9-60.5c1.9-3.1 2.9-6.7 2.9-10.4z" class="st0"/><path fill="#6363F1" d="M1.7 85.9c0 3.7 1 7.4 2.8 10.5l33.9 58.8c3.5 6 8.8 10.9 15.4 13.1 13 4.3 26.4-1.2 32.8-12.3l8.2-14.2-32.3-55.9 34.1-59.2 8.2-14.2c2.5-4.3 5.7-7.7 9.6-10.5H61.8c-9.2 0-17.7 4.9-22.3 12.9L4.6 75.4c-1.9 3.1-2.9 6.8-2.9 10.5z" class="st1"/><path fill="#6363F1" d="M195.3 85.9c0-3.7-1-7.4-2.8-10.5l-34.4-59.6c-6.4-11-19.8-16.6-32.8-12.3-6.6 2.2-11.9 7.1-15.4 13.1L102.2 30l32.3 55.9-34.1 59.1-8.2 14.2c-2.5 4.2-5.7 7.7-9.6 10.5h52.6c9.2 0 17.7-4.9 22.3-12.9l34.9-60.5c1.9-3.1 2.9-6.7 2.9-10.4z" class="st1"/></svg>