<svg width="640" height="400" viewBox="0 0 640 400" fill="none" xmlns="http://www.w3.org/2000/svg">
<rect width="640" height="400" fill="#0039CD"/>
<rect width="640" height="400" fill="url(#paint0_radial_8_1037)"/>
<g clip-path="url(#clip0_8_1037)">
<g clip-path="url(#clip1_8_1037)">
<path fill-rule="evenodd" clip-rule="evenodd" d="M290.866 135.29H267.914V174.998H272.583V157.806H289.077V153.355H272.583V139.785H290.866V135.29ZM296.405 135.29H301.118V174.954H296.405V135.29ZM367.139 175.303C366.179 174.91 365.35 174.43 364.652 173.776C363.91 173.078 363.343 172.249 362.994 171.289C362.644 170.329 362.426 169.194 362.426 167.842V150.955H357.539V146.679H362.47V138.694H367.182V146.679H374.033V150.955H367.182V166.707C367.182 168.278 367.488 169.456 368.055 170.198C368.753 171.027 369.757 171.463 371.11 171.463C372.2 171.463 373.204 171.158 374.208 170.503V175.085C373.64 175.347 373.073 175.521 372.506 175.652C371.939 175.783 371.197 175.827 370.324 175.827C369.19 175.87 368.142 175.652 367.139 175.303ZM378.836 168.54C380.058 170.852 381.716 172.598 383.854 173.907C385.992 175.216 388.435 175.87 391.097 175.696C394.021 175.696 396.551 174.998 398.646 173.689C400.74 172.38 402.398 170.547 403.62 168.278L399.649 166.358C397.686 169.761 394.893 171.463 391.272 171.463C389.744 171.463 388.261 171.114 386.821 170.372C385.381 169.631 384.203 168.54 383.286 167.056C382.327 165.616 381.847 163.784 381.716 161.645H404.056C404.187 161.253 404.231 160.773 404.231 160.206C404.231 157.413 403.707 154.926 402.617 152.744C401.526 150.606 399.998 148.861 397.948 147.639C395.94 146.373 393.497 145.763 390.748 145.763C387.999 145.763 385.599 146.461 383.548 147.813C381.454 149.21 379.883 151.042 378.748 153.311C377.614 155.624 377.047 158.111 377.047 160.86C377.047 163.696 377.614 166.271 378.836 168.54ZM398.253 154.315C398.864 155.493 399.169 156.671 399.257 157.849H382.021C382.501 155.537 383.505 153.66 385.032 152.22C386.559 150.78 388.435 150.082 390.661 150.082C392.581 150.082 394.195 150.475 395.46 151.304C396.726 152.133 397.642 153.137 398.253 154.315ZM409.77 146.723H414.221V151.26H414.439C415.006 149.69 416.054 148.424 417.668 147.377C419.239 146.33 420.897 145.806 422.642 145.806C423.951 145.806 425.042 146.024 425.959 146.417V151.479C424.78 150.868 423.428 150.606 421.988 150.606C420.635 150.606 419.37 150.999 418.235 151.784C417.101 152.57 416.184 153.617 415.486 154.926C414.788 156.235 414.483 157.675 414.483 159.158V174.998H409.77V146.723ZM310.589 172.86C308.8 170.852 307.884 168.06 307.884 164.482V146.679H312.596V163.74C312.596 166.445 313.207 168.409 314.429 169.674C315.651 170.94 317.309 171.551 319.36 171.551C320.931 171.551 322.371 171.114 323.592 170.285C324.814 169.456 325.774 168.322 326.472 166.969C327.17 165.616 327.476 164.176 327.476 162.649V146.679H332.232V174.954H327.738V170.852H327.519C326.734 172.249 325.512 173.427 323.81 174.387C322.109 175.347 320.32 175.827 318.4 175.827C314.953 175.87 312.378 174.867 310.589 172.86ZM344.666 173.776C345.364 174.43 346.193 174.91 347.153 175.303C348.113 175.652 349.204 175.87 350.338 175.827C351.211 175.827 351.953 175.783 352.52 175.652C353.087 175.521 353.654 175.347 354.222 175.085V170.503C353.218 171.158 352.215 171.463 351.124 171.463C349.771 171.463 348.767 171.027 348.069 170.198C347.502 169.456 347.197 168.278 347.197 166.707V150.955H354.047V146.679H347.153V138.694H342.44V146.679H337.51V150.955H342.44V167.842C342.44 169.194 342.659 170.329 343.008 171.289C343.357 172.249 343.924 173.078 344.666 173.776Z" fill="white"/>
<path d="M239.927 152.386H219.005L200.7 170.695L211.159 181.155L239.927 152.386Z" fill="#54C5F8"/>
<path d="M195.464 165.464L185 155L219 121H239.923L195.464 165.464Z" fill="#54C5F8"/>
<path d="M211.153 181.154L218.999 189H239.922L221.613 170.695L211.153 181.154Z" fill="#01579B"/>
<path d="M211.153 181.155L226.67 175.783L221.613 170.695L211.153 181.155Z" fill="url(#paint1_linear_8_1037)"/>
<path d="M211.15 160.231L200.69 170.69L211.15 181.15L221.609 170.69L211.15 160.231Z" fill="#29B6F6"/>
<path d="M239.923 152.386L221.618 170.691L239.923 189H219L211.155 181.155L200.691 170.691L219 152.386H239.923ZM219 121L185 155L195.464 165.464L239.923 121H219Z" fill="url(#paint2_radial_8_1037)"/>
</g>
</g>
<g clip-path="url(#clip2_8_1037)">
<g clip-path="url(#clip3_8_1037)">
<path fill-rule="evenodd" clip-rule="evenodd" d="M181.209 259.034H186.876C188.799 259.034 190.478 259.431 191.914 260.227C193.347 261.023 194.45 262.13 195.219 263.545C195.989 264.962 196.373 266.587 196.373 268.424C196.373 270.261 195.989 271.886 195.219 273.303C194.45 274.721 193.347 275.825 191.914 276.621C190.48 277.417 188.801 277.814 186.876 277.814H181.209V259.034ZM186.876 275.694C189.098 275.694 190.858 275.056 192.163 273.778C193.465 272.501 194.117 270.718 194.117 268.426C194.117 266.135 193.465 264.351 192.163 263.074C190.86 261.796 189.098 261.159 186.876 261.159H183.414V275.691H186.876V275.694ZM199.806 277.66C199.037 277.275 198.443 276.747 198.023 276.072C197.603 275.399 197.393 274.634 197.393 273.776C197.393 272.359 197.926 271.254 198.994 270.458C200.059 269.662 201.407 269.265 203.034 269.265C203.838 269.265 204.585 269.354 205.276 269.529C205.967 269.704 206.496 269.905 206.864 270.131V269.319C206.864 268.321 206.514 267.521 205.815 266.918C205.115 266.316 204.231 266.013 203.165 266.013C202.413 266.013 201.723 266.176 201.092 266.499C200.463 266.822 199.965 267.272 199.597 267.85L197.918 266.591C198.443 265.787 199.165 265.158 200.082 264.703C200.999 264.248 202.02 264.02 203.139 264.02C204.957 264.02 206.387 264.497 207.428 265.45C208.468 266.404 208.989 267.702 208.989 269.346V277.818H206.864V275.903H206.759C206.374 276.551 205.796 277.101 205.027 277.555C204.258 278.01 203.392 278.238 202.429 278.238C201.452 278.238 200.578 278.045 199.806 277.66ZM204.739 275.694C205.385 275.309 205.901 274.793 206.286 274.147C206.671 273.501 206.864 272.791 206.864 272.022C206.444 271.742 205.928 271.514 205.317 271.339C204.704 271.164 204.058 271.076 203.375 271.076C202.151 271.076 201.228 271.329 200.609 271.837C199.987 272.345 199.677 273.001 199.677 273.803C199.677 274.537 199.956 275.132 200.516 275.587C201.076 276.041 201.783 276.269 202.641 276.269C203.392 276.269 204.093 276.078 204.739 275.694ZM213.467 264.649H211.342V278.026H213.572V270.602C213.572 269.397 213.927 268.418 214.635 267.665C215.343 266.914 216.264 266.538 217.402 266.538C217.91 266.538 218.311 266.573 218.609 266.643V264.359C218.346 264.308 218.023 264.281 217.638 264.281C216.746 264.281 215.923 264.501 215.172 264.937C214.419 265.376 213.886 265.987 213.572 266.774H213.467V264.649ZM224.021 277.249C224.338 277.553 224.727 277.794 225.19 277.971C225.654 278.148 226.156 278.238 226.693 278.24C227.113 278.24 227.458 278.215 227.73 278.162C228.001 278.108 228.267 278.02 228.53 277.899V275.72C228.059 276.019 227.567 276.167 227.061 276.167C226.432 276.167 225.951 275.969 225.619 275.576C225.34 275.218 225.2 274.665 225.2 273.914V266.46H228.452V264.44H225.2V260.663H222.97V264.44H220.635V266.46H222.97V274.445C222.97 275.087 223.058 275.63 223.233 276.074C223.408 276.518 223.671 276.911 224.021 277.249Z" fill="white"/>
<path d="M144.71 277.288L139.922 272.499C139.354 271.915 139 271.092 139 270.288C139 269.915 139.21 269.333 139.368 268.998L143.789 259.789L144.71 277.288Z" fill="#01579B"/>
<path d="M161.105 260.71L156.316 255.922C155.899 255.502 155.027 255 154.29 255C153.657 255 153.035 255.128 152.632 255.368L143.791 259.789L161.105 260.71Z" fill="#40C4FF"/>
<path d="M150.421 282.998H162.026V278.024L153.368 275.262L145.449 278.024L150.421 282.998Z" fill="#40C4FF"/>
<path d="M143.791 274.71C143.791 276.187 143.976 276.551 144.713 277.29L145.449 278.026H162.027L153.922 268.817L143.791 259.791V274.71Z" fill="#29B6F6"/>
<path d="M158.526 259.789H143.79L162.025 278.024H166.999V266.604L161.105 260.71C160.279 259.879 159.542 259.789 158.526 259.789Z" fill="#01579B"/>
<path opacity="0.2" d="M144.896 277.473C144.16 276.732 143.975 276.004 143.975 274.71V259.974L143.79 259.789V274.708C143.792 276.004 143.792 276.362 144.896 277.473L145.45 278.026L144.896 277.473Z" fill="white"/>
<path opacity="0.2" d="M166.815 266.421V277.841H161.841L162.026 278.024H167V266.606L166.815 266.421Z" fill="#263238"/>
<path opacity="0.2" d="M161.105 260.71C160.192 259.797 159.443 259.789 158.343 259.789H143.791L143.976 259.974H158.345C158.892 259.974 160.28 259.881 161.105 260.71Z" fill="white"/>
</g>
</g>
<g clip-path="url(#clip4_8_1037)">
<g clip-path="url(#clip5_8_1037)">
<path d="M283.447 265.067C285.514 265.067 287.231 266.133 288.047 267.283V265.35H291.197V279.7H288.931C288.812 279.7 288.695 279.678 288.586 279.632C288.476 279.587 288.377 279.521 288.293 279.437C288.21 279.354 288.143 279.254 288.098 279.145C288.053 279.036 288.03 278.918 288.031 278.8V277.767C287.231 278.933 285.514 280 283.447 280C279.514 280 276.531 276.633 276.531 272.533C276.531 268.433 279.514 265.067 283.447 265.067ZM284.014 267.933C281.464 267.933 279.731 269.95 279.731 272.533C279.731 275.117 281.447 277.133 284.014 277.133C286.564 277.133 288.297 275.117 288.297 272.533C288.297 269.95 286.581 267.933 284.014 267.933ZM294.781 265.35H297.947V267.3C298.814 265.867 300.447 265.067 302.314 265.067C305.647 265.067 307.797 267.417 307.797 271.067V279.7H305.531C305.412 279.7 305.295 279.678 305.186 279.632C305.076 279.587 304.977 279.521 304.893 279.437C304.81 279.354 304.743 279.254 304.698 279.145C304.653 279.036 304.63 278.918 304.631 278.8V271.583C304.631 269.317 303.481 267.933 301.647 267.933C299.547 267.933 297.947 269.567 297.947 272.633V279.7H295.681C295.562 279.7 295.445 279.678 295.336 279.632C295.226 279.587 295.127 279.521 295.043 279.437C294.96 279.354 294.893 279.254 294.848 279.145C294.803 279.036 294.78 278.918 294.781 278.8V265.35ZM317.214 265.067C319.281 265.067 320.997 266.133 321.814 267.283V258.183H324.964V279.717H322.697C322.579 279.717 322.462 279.694 322.352 279.649C322.243 279.604 322.144 279.538 322.06 279.454C321.976 279.37 321.91 279.271 321.865 279.162C321.82 279.052 321.797 278.935 321.797 278.817V277.783C320.997 278.933 319.264 280 317.197 280C313.264 280 310.281 276.633 310.281 272.533C310.297 268.433 313.281 265.067 317.214 265.067ZM317.781 267.933C315.231 267.933 313.497 269.95 313.497 272.533C313.497 275.117 315.214 277.133 317.781 277.133C320.331 277.133 322.064 275.117 322.064 272.533C322.064 269.95 320.331 267.933 317.781 267.933ZM328.547 265.35H331.697V267.9C331.974 267.115 332.485 266.435 333.162 265.952C333.839 265.469 334.649 265.206 335.481 265.2C335.895 265.199 336.308 265.238 336.714 265.317V268.567C336.204 268.395 335.669 268.305 335.131 268.3C333.314 268.3 331.681 269.817 331.681 272.7V279.7H329.414C329.296 279.7 329.179 279.678 329.069 279.632C328.96 279.587 328.86 279.521 328.777 279.437C328.693 279.354 328.627 279.254 328.582 279.145C328.537 279.036 328.514 278.918 328.514 278.8V265.35H328.547ZM345.247 280C340.997 280 337.731 276.7 337.731 272.533C337.731 268.367 340.997 265.067 345.247 265.067C349.497 265.067 352.764 268.367 352.764 272.533C352.764 276.7 349.497 280 345.247 280ZM345.247 277.067C347.781 277.067 349.547 275.083 349.547 272.533C349.547 269.983 347.764 268 345.247 268C342.697 268 340.914 269.983 340.914 272.533C340.914 275.083 342.697 277.067 345.247 277.067ZM356.897 262.217C356.337 262.213 355.801 261.989 355.405 261.593C355.009 261.197 354.784 260.66 354.781 260.1C354.791 259.543 355.017 259.012 355.413 258.62C355.808 258.228 356.341 258.006 356.897 258C357.457 258 357.993 258.222 358.388 258.618C358.784 259.013 359.006 259.549 359.006 260.108C359.006 260.667 358.784 261.204 358.388 261.599C357.993 261.995 357.457 262.217 356.897 262.217ZM355.331 265.35H358.481V279.7H356.231C356.112 279.7 355.995 279.678 355.886 279.632C355.776 279.587 355.677 279.521 355.593 279.437C355.51 279.354 355.443 279.254 355.398 279.145C355.353 279.036 355.33 278.918 355.331 278.8V265.35ZM367.997 265.067C370.064 265.067 371.781 266.133 372.597 267.283V258.183H375.747V279.717H373.481C373.362 279.717 373.245 279.694 373.136 279.649C373.026 279.604 372.927 279.538 372.843 279.454C372.76 279.37 372.693 279.271 372.648 279.162C372.603 279.052 372.58 278.935 372.581 278.817V277.783C371.781 278.933 370.047 280 367.981 280C364.047 280 361.064 276.633 361.064 272.533C361.081 268.433 364.064 265.067 367.997 265.067ZM368.581 267.933C366.031 267.933 364.297 269.95 364.297 272.533C364.297 275.117 366.014 277.133 368.581 277.133C371.131 277.133 372.864 275.117 372.864 272.533C372.864 269.95 371.131 267.933 368.581 267.933Z" fill="white"/>
<path d="M410.597 274.283C410.28 274.283 409.971 274.19 409.708 274.014C409.445 273.838 409.239 273.588 409.118 273.296C408.997 273.003 408.966 272.682 409.027 272.371C409.089 272.061 409.241 271.776 409.465 271.552C409.689 271.328 409.974 271.176 410.284 271.114C410.595 271.052 410.916 271.084 411.209 271.205C411.501 271.326 411.751 271.531 411.927 271.794C412.103 272.058 412.197 272.367 412.197 272.683C412.197 273.108 412.028 273.515 411.728 273.815C411.428 274.115 411.021 274.283 410.597 274.283ZM392.98 274.283C392.663 274.283 392.354 274.19 392.091 274.014C391.828 273.838 391.623 273.588 391.502 273.296C391.381 273.003 391.349 272.682 391.411 272.371C391.472 272.061 391.625 271.776 391.849 271.552C392.072 271.328 392.357 271.176 392.668 271.114C392.978 271.052 393.3 271.084 393.592 271.205C393.885 271.326 394.134 271.531 394.31 271.794C394.486 272.058 394.58 272.367 394.58 272.683C394.58 273.108 394.411 273.515 394.111 273.815C393.811 274.115 393.404 274.283 392.98 274.283ZM411.163 264.683L414.363 259.167C414.406 259.091 414.434 259.008 414.445 258.921C414.456 258.835 414.45 258.748 414.427 258.664C414.404 258.58 414.364 258.501 414.311 258.433C414.257 258.364 414.191 258.307 414.115 258.264C414.039 258.221 413.956 258.194 413.869 258.183C413.783 258.173 413.695 258.179 413.611 258.203C413.528 258.226 413.449 258.266 413.381 258.32C413.313 258.374 413.256 258.441 413.213 258.517L409.98 264.1C407.412 262.927 404.62 262.324 401.797 262.333C398.97 262.326 396.174 262.923 393.597 264.083L390.363 258.5C390.277 258.348 390.133 258.237 389.965 258.191C389.797 258.145 389.617 258.167 389.465 258.253C389.313 258.339 389.201 258.481 389.154 258.649C389.107 258.818 389.128 258.998 389.213 259.15L392.397 264.667C389.644 266.168 387.31 268.332 385.604 270.963C383.899 273.593 382.877 276.608 382.63 279.733H420.913C420.674 276.61 419.657 273.596 417.953 270.968C416.25 268.339 413.916 266.178 411.163 264.683Z" fill="#3DDC84"/>
</g>
</g>
<g clip-path="url(#clip6_8_1037)">
<g clip-path="url(#clip7_8_1037)">
<path d="M469.611 278.661H472.908V264.625H469.611V278.661ZM471.253 262.784C472.285 262.784 473.093 261.99 473.093 260.997C473.093 259.99 472.285 259.196 471.253 259.196C470.233 259.196 469.425 259.99 469.425 260.997C469.425 261.99 470.233 262.784 471.253 262.784ZM483.885 259.236C478.311 259.236 474.815 263.036 474.815 269.114C474.815 275.192 478.311 278.979 483.885 278.979C489.447 278.979 492.943 275.192 492.943 269.114C492.943 263.036 489.447 259.236 483.885 259.236ZM483.885 262.149C487.289 262.149 489.46 264.85 489.46 269.114C489.46 273.364 487.288 276.066 483.885 276.066C480.469 276.066 478.311 273.364 478.311 269.114C478.311 264.85 480.469 262.149 483.885 262.149ZM494.334 273.285C494.479 276.807 497.366 278.979 501.762 278.979C506.383 278.979 509.297 276.701 509.297 273.073C509.297 270.226 507.655 268.624 503.775 267.737L501.577 267.234C499.233 266.678 498.267 265.936 498.267 264.665C498.267 263.076 499.723 262.017 501.881 262.017C504.066 262.017 505.562 263.089 505.721 264.877H508.979C508.899 261.513 506.119 259.236 501.908 259.236C497.75 259.236 494.797 261.526 494.797 264.916C494.797 267.644 496.466 269.339 499.988 270.147L502.464 270.73C504.874 271.299 505.854 272.093 505.854 273.471C505.854 275.06 504.251 276.198 501.948 276.198C499.617 276.198 497.856 275.046 497.644 273.285H494.334L494.334 273.285Z" fill="white"/>
</g>
</g>
<defs>
<radialGradient id="paint0_radial_8_1037" cx="0" cy="0" r="1" gradientUnits="userSpaceOnUse" gradientTransform="translate(640 400) rotate(-147.995) scale(754.718 678.399)">
<stop stop-color="#310082"/>
<stop offset="1" stop-color="#310082" stop-opacity="0"/>
</radialGradient>
<linearGradient id="paint1_linear_8_1037" x1="214.203" y1="183.174" x2="221.995" y2="175.382" gradientUnits="userSpaceOnUse">
<stop stop-color="#1A237E" stop-opacity="0.4"/>
<stop offset="1" stop-color="#1A237E" stop-opacity="0"/>
</linearGradient>
<radialGradient id="paint2_radial_8_1037" cx="0" cy="0" r="1" gradientUnits="userSpaceOnUse" gradientTransform="translate(186.545 125.636) scale(83.1942)">
<stop stop-color="white" stop-opacity="0.1"/>
<stop offset="1" stop-color="white" stop-opacity="0"/>
</radialGradient>
<clipPath id="clip0_8_1037">
<rect width="240.958" height="68" fill="white" transform="translate(185 121)"/>
</clipPath>
<clipPath id="clip1_8_1037">
<rect width="240.958" height="68" fill="white" transform="translate(185 121)"/>
</clipPath>
<clipPath id="clip2_8_1037">
<rect width="89.5308" height="28" fill="white" transform="translate(139 255)"/>
</clipPath>
<clipPath id="clip3_8_1037">
<rect width="89.5308" height="28" fill="white" transform="translate(139 255)"/>
</clipPath>
<clipPath id="clip4_8_1037">
<rect width="144.667" height="22" fill="white" transform="translate(276.531 258)"/>
</clipPath>
<clipPath id="clip5_8_1037">
<rect width="144.667" height="22" fill="white" transform="translate(276.531 258)"/>
</clipPath>
<clipPath id="clip6_8_1037">
<rect width="40.339" height="20" fill="white" transform="translate(469.198 259)"/>
</clipPath>
<clipPath id="clip7_8_1037">
<rect width="40.339" height="20" fill="white" transform="translate(469.198 259)"/>
</clipPath>
</defs>
</svg>
