<svg width="1504" height="666" fill="none" xmlns="http://www.w3.org/2000/svg"><mask id="b" style="mask-type:alpha" maskUnits="userSpaceOnUse" x="32" y="0" width="1440" height="617"><path fill="url(#a)" d="M32 0h1440v617H32z"/></mask><g mask="url(#b)"><rect x="32" y="-191" width="1440" height="1000" rx="500" fill="url(#c)"/><mask id="e" style="mask-type:alpha" maskUnits="userSpaceOnUse" x="32" y="-191" width="1440" height="1000"><rect x="32" y="-191" width="1440" height="1000" rx="500" fill="url(#d)"/></mask><g mask="url(#e)" stroke-opacity=".24"><path stroke="url(#f)" d="M32.5-64v698"/><path stroke="url(#g)" d="M64.5-64v698"/><path stroke="url(#h)" d="M96.5-64v698"/><path stroke="url(#i)" d="M128.5-64v698"/><path stroke="url(#j)" d="M160.5-64v698"/><path stroke="url(#k)" d="M192.5-64v698"/><path stroke="url(#l)" d="M224.5-64v698"/><path stroke="url(#m)" d="M256.5-64v698"/><path stroke="url(#n)" d="M288.5-64v698"/><path stroke="url(#o)" d="M320.5-64v698"/><path stroke="url(#p)" d="M352.5-64v698"/><path stroke="url(#q)" d="M384.5-64v698"/><path stroke="url(#r)" d="M416.5-64v698"/><path stroke="url(#s)" d="M448.5-64v698"/><path stroke="url(#t)" d="M480.5-64v698"/><path stroke="url(#u)" d="M512.5-64v698"/><path stroke="url(#v)" d="M544.5-64v698"/><path stroke="url(#w)" d="M576.5-64v698"/><path stroke="url(#x)" d="M608.5-64v698"/><path stroke="url(#y)" d="M640.5-64v698"/><path stroke="url(#z)" d="M672.5-64v698"/><path stroke="url(#A)" d="M704.5-64v698"/><path stroke="url(#B)" d="M736.5-64v698"/><path stroke="url(#C)" d="M768.5-64v698"/><path stroke="url(#D)" d="M800.5-64v698"/><path stroke="url(#E)" d="M832.5-64v698"/><path stroke="url(#F)" d="M864.5-64v698"/><path stroke="url(#G)" d="M896.5-64v698"/><path stroke="url(#H)" d="M928.5-64v698"/><path stroke="url(#I)" d="M960.5-64v698"/><path stroke="url(#J)" d="M992.5-64v698"/><path stroke="url(#K)" d="M1024.5-64v698"/><path stroke="url(#L)" d="M1056.5-64v698"/><path stroke="url(#M)" d="M1088.5-64v698"/><path stroke="url(#N)" d="M1120.5-64v698"/><path stroke="url(#O)" d="M1152.5-64v698"/><path stroke="url(#P)" d="M1184.5-64v698"/><path stroke="url(#Q)" d="M1216.5-64v698"/><path stroke="url(#R)" d="M1248.5-64v698"/><path stroke="url(#S)" d="M1280.5-64v698"/><path stroke="url(#T)" d="M1312.5-64v698"/><path stroke="url(#U)" d="M1344.5-64v698"/><path stroke="url(#V)" d="M1376.5-64v698"/><path stroke="url(#W)" d="M1408.5-64v698"/><path stroke="url(#X)" d="M1440.5-64v698"/><path stroke="url(#Y)" d="M32 31.5h1440"/><path stroke="url(#Z)" d="M32 63.5h1440"/><path stroke="url(#aa)" d="M32 95.5h1440"/><path stroke="url(#ab)" d="M32 127.5h1440"/><path stroke="url(#ac)" d="M32 159.5h1440"/><path stroke="url(#ad)" d="M32 191.5h1440"/><path stroke="url(#ae)" d="M32 223.5h1440"/><path stroke="url(#af)" d="M32 255.5h1440"/><path stroke="url(#ag)" d="M32 287.5h1440"/><path stroke="url(#ah)" d="M32 319.5h1440"/><path stroke="url(#ai)" d="M32 351.5h1440"/><path stroke="url(#aj)" d="M32 383.5h1440"/><path stroke="url(#ak)" d="M32 415.5h1440"/><path stroke="url(#al)" d="M32 447.5h1440"/><path stroke="url(#am)" d="M32 479.5h1440"/><path stroke="url(#an)" d="M32 511.5h1440"/><path stroke="url(#ao)" d="M32 543.5h1440"/><path stroke="url(#ap)" d="M32 575.5h1440"/><path stroke="url(#aq)" d="M32 607.5h1440"/></g></g><g filter="url(#ar)"><ellipse cx="744" cy="350.096" rx="326" ry="69.904" fill="url(#as)"/></g><g filter="url(#at)"><ellipse cx="752" cy="457.096" rx="720" ry="176.904" fill="url(#au)"/></g><g opacity=".4" filter="url(#av)" stroke-width="19"><path clip-rule="evenodd" d="M597.593 334.15h-35.626v-48.098H458v-29.58l100.457-146.925h39.136v144.105h41.737v32.337h-41.737v48.161Zm-100.116-80.573 64.491-94.804-.001 94.804h-64.49Z" stroke="url(#aw)"/><path clip-rule="evenodd" d="M1004.26 334.15h-35.624v-48.098H864.67v-29.58l100.457-146.925h39.133v144.105H1046v32.337h-41.74v48.161Zm-100.113-80.573 64.491-94.804-.002 94.804h-64.489Z" stroke="url(#ax)"/><path d="M762.733 338c-17.54 0-33.155-4.92-46.845-14.76-13.69-10.053-24.493-23.743-32.407-41.07-7.701-17.54-11.551-37.648-11.551-60.322s3.85-42.674 11.551-60.001c7.914-17.54 18.61-31.23 32.086-41.07 13.69-10.054 29.412-15.08 47.166-15.08 17.755 0 33.477 5.026 47.167 15.08 13.69 9.84 24.385 23.53 32.086 41.07 7.915 17.327 11.872 37.327 11.872 60.001s-3.957 42.782-11.872 60.322c-7.701 17.327-18.396 31.017-32.086 41.07-13.476 9.84-29.198 14.76-47.167 14.76Zm.321-33.69c10.482 0 19.787-3.53 27.915-10.589 8.343-7.059 14.76-16.792 19.252-29.198 4.706-12.407 7.059-26.632 7.059-42.675 0-16.043-2.353-30.268-7.059-42.674-4.492-12.621-10.909-22.461-19.252-29.519-8.128-7.059-17.54-10.589-28.236-10.589-10.695 0-20.107 3.53-28.235 10.589-8.129 7.058-14.546 16.791-19.252 29.198-4.492 12.407-6.738 26.738-6.738 42.995 0 16.043 2.246 30.268 6.738 42.675 4.706 12.406 11.123 22.139 19.252 29.198 8.342 7.059 17.861 10.589 28.556 10.589Z" stroke="url(#ay)"/></g><g opacity=".4" stroke-opacity=".2" stroke-width="2"><path clip-rule="evenodd" d="M597.593 334.15h-35.626v-48.098H458v-29.58l100.457-146.925h39.136v144.105h41.737v32.337h-41.737v48.161Zm-100.116-80.573 64.491-94.804-.001 94.804h-64.49Z" stroke="url(#az)"/><path clip-rule="evenodd" d="M1004.26 334.15h-35.624v-48.098H864.67v-29.58l100.457-146.925h39.133v144.105H1046v32.337h-41.74v48.161Zm-100.113-80.573 64.491-94.804-.002 94.804h-64.489Z" stroke="url(#aA)"/><path d="M762.733 338c-17.54 0-33.155-4.92-46.845-14.76-13.69-10.053-24.493-23.743-32.407-41.07-7.701-17.54-11.551-37.648-11.551-60.322s3.85-42.674 11.551-60.001c7.914-17.54 18.61-31.23 32.086-41.07 13.69-10.054 29.412-15.08 47.166-15.08 17.755 0 33.477 5.026 47.167 15.08 13.69 9.84 24.385 23.53 32.086 41.07 7.915 17.327 11.872 37.327 11.872 60.001s-3.957 42.782-11.872 60.322c-7.701 17.327-18.396 31.017-32.086 41.07-13.476 9.84-29.198 14.76-47.167 14.76Zm.321-33.69c10.482 0 19.787-3.53 27.915-10.589 8.343-7.059 14.76-16.792 19.252-29.198 4.706-12.407 7.059-26.632 7.059-42.675 0-16.043-2.353-30.268-7.059-42.674-4.492-12.621-10.909-22.461-19.252-29.519-8.128-7.059-17.54-10.589-28.236-10.589-10.695 0-20.107 3.53-28.235 10.589-8.129 7.058-14.546 16.791-19.252 29.198-4.492 12.407-6.738 26.738-6.738 42.995 0 16.043 2.246 30.268 6.738 42.675 4.706 12.406 11.123 22.139 19.252 29.198 8.342 7.059 17.861 10.589 28.556 10.589Z" stroke="url(#aB)"/></g><path clip-rule="evenodd" d="M597.593 334.15h-35.626v-48.098H458v-29.58l100.457-146.925h39.136v144.105h41.737v32.337h-41.737v48.161Zm-100.116-80.573 64.491-94.804-.001 94.804h-64.49Z" stroke="url(#aC)" stroke-opacity=".2" stroke-width="8"/><path clip-rule="evenodd" d="M1004.26 334.15h-35.624v-48.098H864.67v-29.58l100.457-146.925h39.133v144.105H1046v32.337h-41.74v48.161Zm-100.113-80.573 64.491-94.804-.002 94.804h-64.489Z" stroke="url(#aD)" stroke-opacity=".2" stroke-width="8"/><path d="M762.733 338c-17.54 0-33.155-4.92-46.845-14.76-13.69-10.053-24.493-23.743-32.407-41.07-7.701-17.54-11.551-37.648-11.551-60.322s3.85-42.674 11.551-60.001c7.914-17.54 18.61-31.23 32.086-41.07 13.69-10.054 29.412-15.08 47.166-15.08 17.755 0 33.477 5.026 47.167 15.08 13.69 9.84 24.385 23.53 32.086 41.07 7.915 17.327 11.872 37.327 11.872 60.001s-3.957 42.782-11.872 60.322c-7.701 17.327-18.396 31.017-32.086 41.07-13.476 9.84-29.198 14.76-47.167 14.76Zm.321-33.69c10.482 0 19.787-3.53 27.915-10.589 8.343-7.059 14.76-16.792 19.252-29.198 4.706-12.407 7.059-26.632 7.059-42.675 0-16.043-2.353-30.268-7.059-42.674-4.492-12.621-10.909-22.461-19.252-29.519-8.128-7.059-17.54-10.589-28.236-10.589-10.695 0-20.107 3.53-28.235 10.589-8.129 7.058-14.546 16.791-19.252 29.198-4.492 12.407-6.738 26.738-6.738 42.995 0 16.043 2.246 30.268 6.738 42.675 4.706 12.406 11.123 22.139 19.252 29.198 8.342 7.059 17.861 10.589 28.556 10.589Z" stroke="url(#aE)" stroke-opacity=".2" stroke-width="8"/><path clip-rule="evenodd" d="M597.593 334.15h-35.626v-48.098H458v-29.58l100.457-146.925h39.136v144.105h41.737v32.337h-41.737v48.161Zm-100.116-80.573 64.491-94.804-.001 94.804h-64.49Z" stroke="url(#aF)"/><path clip-rule="evenodd" d="M1004.26 334.15h-35.624v-48.098H864.67v-29.58l100.457-146.925h39.133v144.105H1046v32.337h-41.74v48.161Zm-100.113-80.573 64.491-94.804-.002 94.804h-64.489Z" stroke="url(#aG)"/><path d="M762.733 338c-17.54 0-33.155-4.92-46.845-14.76-13.69-10.053-24.493-23.743-32.407-41.07-7.701-17.54-11.551-37.648-11.551-60.322s3.85-42.674 11.551-60.001c7.914-17.54 18.61-31.23 32.086-41.07 13.69-10.054 29.412-15.08 47.166-15.08 17.755 0 33.477 5.026 47.167 15.08 13.69 9.84 24.385 23.53 32.086 41.07 7.915 17.327 11.872 37.327 11.872 60.001s-3.957 42.782-11.872 60.322c-7.701 17.327-18.396 31.017-32.086 41.07-13.476 9.84-29.198 14.76-47.167 14.76Zm.321-33.69c10.482 0 19.787-3.53 27.915-10.589 8.343-7.059 14.76-16.792 19.252-29.198 4.706-12.407 7.059-26.632 7.059-42.675 0-16.043-2.353-30.268-7.059-42.674-4.492-12.621-10.909-22.461-19.252-29.519-8.128-7.059-17.54-10.589-28.236-10.589-10.695 0-20.107 3.53-28.235 10.589-8.129 7.058-14.546 16.791-19.252 29.198-4.492 12.407-6.738 26.738-6.738 42.995 0 16.043 2.246 30.268 6.738 42.675 4.706 12.406 11.123 22.139 19.252 29.198 8.342 7.059 17.861 10.589 28.556 10.589Z" stroke="url(#aH)"/><defs><linearGradient id="f" x1="32" y1="-64" x2="32" y2="634" gradientUnits="userSpaceOnUse"><stop stop-color="#fff" stop-opacity="0"/><stop offset=".495" stop-color="#fff"/><stop offset="1" stop-color="#fff" stop-opacity="0"/></linearGradient><linearGradient id="g" x1="64" y1="-64" x2="64" y2="634" gradientUnits="userSpaceOnUse"><stop stop-color="#fff" stop-opacity="0"/><stop offset=".495" stop-color="#fff"/><stop offset="1" stop-color="#fff" stop-opacity="0"/></linearGradient><linearGradient id="h" x1="96" y1="-64" x2="96" y2="634" gradientUnits="userSpaceOnUse"><stop stop-color="#fff" stop-opacity="0"/><stop offset=".495" stop-color="#fff"/><stop offset="1" stop-color="#fff" stop-opacity="0"/></linearGradient><linearGradient id="i" x1="128" y1="-64" x2="128" y2="634" gradientUnits="userSpaceOnUse"><stop stop-color="#fff" stop-opacity="0"/><stop offset=".495" stop-color="#fff"/><stop offset="1" stop-color="#fff" stop-opacity="0"/></linearGradient><linearGradient id="j" x1="160" y1="-64" x2="160" y2="634" gradientUnits="userSpaceOnUse"><stop stop-color="#fff" stop-opacity="0"/><stop offset=".495" stop-color="#fff"/><stop offset="1" stop-color="#fff" stop-opacity="0"/></linearGradient><linearGradient id="k" x1="192" y1="-64" x2="192" y2="634" gradientUnits="userSpaceOnUse"><stop stop-color="#fff" stop-opacity="0"/><stop offset=".495" stop-color="#fff"/><stop offset="1" stop-color="#fff" stop-opacity="0"/></linearGradient><linearGradient id="l" x1="224" y1="-64" x2="224" y2="634" gradientUnits="userSpaceOnUse"><stop stop-color="#fff" stop-opacity="0"/><stop offset=".495" stop-color="#fff"/><stop offset="1" stop-color="#fff" stop-opacity="0"/></linearGradient><linearGradient id="m" x1="256" y1="-64" x2="256" y2="634" gradientUnits="userSpaceOnUse"><stop stop-color="#fff" stop-opacity="0"/><stop offset=".495" stop-color="#fff"/><stop offset="1" stop-color="#fff" stop-opacity="0"/></linearGradient><linearGradient id="n" x1="288" y1="-64" x2="288" y2="634" gradientUnits="userSpaceOnUse"><stop stop-color="#fff" stop-opacity="0"/><stop offset=".495" stop-color="#fff"/><stop offset="1" stop-color="#fff" stop-opacity="0"/></linearGradient><linearGradient id="o" x1="320" y1="-64" x2="320" y2="634" gradientUnits="userSpaceOnUse"><stop stop-color="#fff" stop-opacity="0"/><stop offset=".495" stop-color="#fff"/><stop offset="1" stop-color="#fff" stop-opacity="0"/></linearGradient><linearGradient id="p" x1="352" y1="-64" x2="352" y2="634" gradientUnits="userSpaceOnUse"><stop stop-color="#fff" stop-opacity="0"/><stop offset=".495" stop-color="#fff"/><stop offset="1" stop-color="#fff" stop-opacity="0"/></linearGradient><linearGradient id="q" x1="384" y1="-64" x2="384" y2="634" gradientUnits="userSpaceOnUse"><stop stop-color="#fff" stop-opacity="0"/><stop offset=".495" stop-color="#fff"/><stop offset="1" stop-color="#fff" stop-opacity="0"/></linearGradient><linearGradient id="r" x1="416" y1="-64" x2="416" y2="634" gradientUnits="userSpaceOnUse"><stop stop-color="#fff" stop-opacity="0"/><stop offset=".495" stop-color="#fff"/><stop offset="1" stop-color="#fff" stop-opacity="0"/></linearGradient><linearGradient id="s" x1="448" y1="-64" x2="448" y2="634" gradientUnits="userSpaceOnUse"><stop stop-color="#fff" stop-opacity="0"/><stop offset=".495" stop-color="#fff"/><stop offset="1" stop-color="#fff" stop-opacity="0"/></linearGradient><linearGradient id="t" x1="480" y1="-64" x2="480" y2="634" gradientUnits="userSpaceOnUse"><stop stop-color="#fff" stop-opacity="0"/><stop offset=".495" stop-color="#fff"/><stop offset="1" stop-color="#fff" stop-opacity="0"/></linearGradient><linearGradient id="u" x1="512" y1="-64" x2="512" y2="634" gradientUnits="userSpaceOnUse"><stop stop-color="#fff" stop-opacity="0"/><stop offset=".495" stop-color="#fff"/><stop offset="1" stop-color="#fff" stop-opacity="0"/></linearGradient><linearGradient id="v" x1="544" y1="-64" x2="544" y2="634" gradientUnits="userSpaceOnUse"><stop stop-color="#fff" stop-opacity="0"/><stop offset=".495" stop-color="#fff"/><stop offset="1" stop-color="#fff" stop-opacity="0"/></linearGradient><linearGradient id="w" x1="576" y1="-64" x2="576" y2="634" gradientUnits="userSpaceOnUse"><stop stop-color="#fff" stop-opacity="0"/><stop offset=".495" stop-color="#fff"/><stop offset="1" stop-color="#fff" stop-opacity="0"/></linearGradient><linearGradient id="x" x1="608" y1="-64" x2="608" y2="634" gradientUnits="userSpaceOnUse"><stop stop-color="#fff" stop-opacity="0"/><stop offset=".495" stop-color="#fff"/><stop offset="1" stop-color="#fff" stop-opacity="0"/></linearGradient><linearGradient id="y" x1="640" y1="-64" x2="640" y2="634" gradientUnits="userSpaceOnUse"><stop stop-color="#fff" stop-opacity="0"/><stop offset=".495" stop-color="#fff"/><stop offset="1" stop-color="#fff" stop-opacity="0"/></linearGradient><linearGradient id="z" x1="672" y1="-64" x2="672" y2="634" gradientUnits="userSpaceOnUse"><stop stop-color="#fff" stop-opacity="0"/><stop offset=".495" stop-color="#fff"/><stop offset="1" stop-color="#fff" stop-opacity="0"/></linearGradient><linearGradient id="A" x1="704" y1="-64" x2="704" y2="634" gradientUnits="userSpaceOnUse"><stop stop-color="#fff" stop-opacity="0"/><stop offset=".495" stop-color="#fff"/><stop offset="1" stop-color="#fff" stop-opacity="0"/></linearGradient><linearGradient id="B" x1="736" y1="-64" x2="736" y2="634" gradientUnits="userSpaceOnUse"><stop stop-color="#fff" stop-opacity="0"/><stop offset=".495" stop-color="#fff"/><stop offset="1" stop-color="#fff" stop-opacity="0"/></linearGradient><linearGradient id="C" x1="768" y1="-64" x2="768" y2="634" gradientUnits="userSpaceOnUse"><stop stop-color="#fff" stop-opacity="0"/><stop offset=".495" stop-color="#fff"/><stop offset="1" stop-color="#fff" stop-opacity="0"/></linearGradient><linearGradient id="D" x1="800" y1="-64" x2="800" y2="634" gradientUnits="userSpaceOnUse"><stop stop-color="#fff" stop-opacity="0"/><stop offset=".495" stop-color="#fff"/><stop offset="1" stop-color="#fff" stop-opacity="0"/></linearGradient><linearGradient id="E" x1="832" y1="-64" x2="832" y2="634" gradientUnits="userSpaceOnUse"><stop stop-color="#fff" stop-opacity="0"/><stop offset=".495" stop-color="#fff"/><stop offset="1" stop-color="#fff" stop-opacity="0"/></linearGradient><linearGradient id="F" x1="864" y1="-64" x2="864" y2="634" gradientUnits="userSpaceOnUse"><stop stop-color="#fff" stop-opacity="0"/><stop offset=".495" stop-color="#fff"/><stop offset="1" stop-color="#fff" stop-opacity="0"/></linearGradient><linearGradient id="G" x1="896" y1="-64" x2="896" y2="634" gradientUnits="userSpaceOnUse"><stop stop-color="#fff" stop-opacity="0"/><stop offset=".495" stop-color="#fff"/><stop offset="1" stop-color="#fff" stop-opacity="0"/></linearGradient><linearGradient id="H" x1="928" y1="-64" x2="928" y2="634" gradientUnits="userSpaceOnUse"><stop stop-color="#fff" stop-opacity="0"/><stop offset=".495" stop-color="#fff"/><stop offset="1" stop-color="#fff" stop-opacity="0"/></linearGradient><linearGradient id="I" x1="960" y1="-64" x2="960" y2="634" gradientUnits="userSpaceOnUse"><stop stop-color="#fff" stop-opacity="0"/><stop offset=".495" stop-color="#fff"/><stop offset="1" stop-color="#fff" stop-opacity="0"/></linearGradient><linearGradient id="J" x1="992" y1="-64" x2="992" y2="634" gradientUnits="userSpaceOnUse"><stop stop-color="#fff" stop-opacity="0"/><stop offset=".495" stop-color="#fff"/><stop offset="1" stop-color="#fff" stop-opacity="0"/></linearGradient><linearGradient id="K" x1="1024" y1="-64" x2="1024" y2="634" gradientUnits="userSpaceOnUse"><stop stop-color="#fff" stop-opacity="0"/><stop offset=".495" stop-color="#fff"/><stop offset="1" stop-color="#fff" stop-opacity="0"/></linearGradient><linearGradient id="L" x1="1056" y1="-64" x2="1056" y2="634" gradientUnits="userSpaceOnUse"><stop stop-color="#fff" stop-opacity="0"/><stop offset=".495" stop-color="#fff"/><stop offset="1" stop-color="#fff" stop-opacity="0"/></linearGradient><linearGradient id="M" x1="1088" y1="-64" x2="1088" y2="634" gradientUnits="userSpaceOnUse"><stop stop-color="#fff" stop-opacity="0"/><stop offset=".495" stop-color="#fff"/><stop offset="1" stop-color="#fff" stop-opacity="0"/></linearGradient><linearGradient id="N" x1="1120" y1="-64" x2="1120" y2="634" gradientUnits="userSpaceOnUse"><stop stop-color="#fff" stop-opacity="0"/><stop offset=".495" stop-color="#fff"/><stop offset="1" stop-color="#fff" stop-opacity="0"/></linearGradient><linearGradient id="O" x1="1152" y1="-64" x2="1152" y2="634" gradientUnits="userSpaceOnUse"><stop stop-color="#fff" stop-opacity="0"/><stop offset=".495" stop-color="#fff"/><stop offset="1" stop-color="#fff" stop-opacity="0"/></linearGradient><linearGradient id="P" x1="1184" y1="-64" x2="1184" y2="634" gradientUnits="userSpaceOnUse"><stop stop-color="#fff" stop-opacity="0"/><stop offset=".495" stop-color="#fff"/><stop offset="1" stop-color="#fff" stop-opacity="0"/></linearGradient><linearGradient id="Q" x1="1216" y1="-64" x2="1216" y2="634" gradientUnits="userSpaceOnUse"><stop stop-color="#fff" stop-opacity="0"/><stop offset=".495" stop-color="#fff"/><stop offset="1" stop-color="#fff" stop-opacity="0"/></linearGradient><linearGradient id="R" x1="1248" y1="-64" x2="1248" y2="634" gradientUnits="userSpaceOnUse"><stop stop-color="#fff" stop-opacity="0"/><stop offset=".495" stop-color="#fff"/><stop offset="1" stop-color="#fff" stop-opacity="0"/></linearGradient><linearGradient id="S" x1="1280" y1="-64" x2="1280" y2="634" gradientUnits="userSpaceOnUse"><stop stop-color="#fff" stop-opacity="0"/><stop offset=".495" stop-color="#fff"/><stop offset="1" stop-color="#fff" stop-opacity="0"/></linearGradient><linearGradient id="T" x1="1312" y1="-64" x2="1312" y2="634" gradientUnits="userSpaceOnUse"><stop stop-color="#fff" stop-opacity="0"/><stop offset=".495" stop-color="#fff"/><stop offset="1" stop-color="#fff" stop-opacity="0"/></linearGradient><linearGradient id="U" x1="1344" y1="-64" x2="1344" y2="634" gradientUnits="userSpaceOnUse"><stop stop-color="#fff" stop-opacity="0"/><stop offset=".495" stop-color="#fff"/><stop offset="1" stop-color="#fff" stop-opacity="0"/></linearGradient><linearGradient id="V" x1="1376" y1="-64" x2="1376" y2="634" gradientUnits="userSpaceOnUse"><stop stop-color="#fff" stop-opacity="0"/><stop offset=".495" stop-color="#fff"/><stop offset="1" stop-color="#fff" stop-opacity="0"/></linearGradient><linearGradient id="W" x1="1408" y1="-64" x2="1408" y2="634" gradientUnits="userSpaceOnUse"><stop stop-color="#fff" stop-opacity="0"/><stop offset=".495" stop-color="#fff"/><stop offset="1" stop-color="#fff" stop-opacity="0"/></linearGradient><linearGradient id="X" x1="1440" y1="-64" x2="1440" y2="634" gradientUnits="userSpaceOnUse"><stop stop-color="#fff" stop-opacity="0"/><stop offset=".495" stop-color="#fff"/><stop offset="1" stop-color="#fff" stop-opacity="0"/></linearGradient><linearGradient id="Y" x1="32" y1="32" x2="1472" y2="32" gradientUnits="userSpaceOnUse"><stop stop-color="#fff" stop-opacity="0"/><stop offset=".495" stop-color="#fff"/><stop offset="1" stop-color="#fff" stop-opacity="0"/></linearGradient><linearGradient id="Z" x1="32" y1="64" x2="1472" y2="64" gradientUnits="userSpaceOnUse"><stop stop-color="#fff" stop-opacity="0"/><stop offset=".495" stop-color="#fff"/><stop offset="1" stop-color="#fff" stop-opacity="0"/></linearGradient><linearGradient id="aa" x1="32" y1="96" x2="1472" y2="96" gradientUnits="userSpaceOnUse"><stop stop-color="#fff" stop-opacity="0"/><stop offset=".495" stop-color="#fff"/><stop offset="1" stop-color="#fff" stop-opacity="0"/></linearGradient><linearGradient id="ab" x1="32" y1="128" x2="1472" y2="128" gradientUnits="userSpaceOnUse"><stop stop-color="#fff" stop-opacity="0"/><stop offset=".495" stop-color="#fff"/><stop offset="1" stop-color="#fff" stop-opacity="0"/></linearGradient><linearGradient id="ac" x1="32" y1="160" x2="1472" y2="160" gradientUnits="userSpaceOnUse"><stop stop-color="#fff" stop-opacity="0"/><stop offset=".495" stop-color="#fff"/><stop offset="1" stop-color="#fff" stop-opacity="0"/></linearGradient><linearGradient id="ad" x1="32" y1="192" x2="1472" y2="192" gradientUnits="userSpaceOnUse"><stop stop-color="#fff" stop-opacity="0"/><stop offset=".495" stop-color="#fff"/><stop offset="1" stop-color="#fff" stop-opacity="0"/></linearGradient><linearGradient id="ae" x1="32" y1="224" x2="1472" y2="224" gradientUnits="userSpaceOnUse"><stop stop-color="#fff" stop-opacity="0"/><stop offset=".495" stop-color="#fff"/><stop offset="1" stop-color="#fff" stop-opacity="0"/></linearGradient><linearGradient id="af" x1="32" y1="256" x2="1472" y2="256" gradientUnits="userSpaceOnUse"><stop stop-color="#fff" stop-opacity="0"/><stop offset=".495" stop-color="#fff"/><stop offset="1" stop-color="#fff" stop-opacity="0"/></linearGradient><linearGradient id="ag" x1="32" y1="288" x2="1472" y2="288" gradientUnits="userSpaceOnUse"><stop stop-color="#fff" stop-opacity="0"/><stop offset=".495" stop-color="#fff"/><stop offset="1" stop-color="#fff" stop-opacity="0"/></linearGradient><linearGradient id="ah" x1="32" y1="320" x2="1472" y2="320" gradientUnits="userSpaceOnUse"><stop stop-color="#fff" stop-opacity="0"/><stop offset=".495" stop-color="#fff"/><stop offset="1" stop-color="#fff" stop-opacity="0"/></linearGradient><linearGradient id="ai" x1="32" y1="352" x2="1472" y2="352" gradientUnits="userSpaceOnUse"><stop stop-color="#fff" stop-opacity="0"/><stop offset=".495" stop-color="#fff"/><stop offset="1" stop-color="#fff" stop-opacity="0"/></linearGradient><linearGradient id="aj" x1="32" y1="384" x2="1472" y2="384" gradientUnits="userSpaceOnUse"><stop stop-color="#fff" stop-opacity="0"/><stop offset=".495" stop-color="#fff"/><stop offset="1" stop-color="#fff" stop-opacity="0"/></linearGradient><linearGradient id="ak" x1="32" y1="416" x2="1472" y2="416" gradientUnits="userSpaceOnUse"><stop stop-color="#fff" stop-opacity="0"/><stop offset=".495" stop-color="#fff"/><stop offset="1" stop-color="#fff" stop-opacity="0"/></linearGradient><linearGradient id="al" x1="32" y1="448" x2="1472" y2="448" gradientUnits="userSpaceOnUse"><stop stop-color="#fff" stop-opacity="0"/><stop offset=".495" stop-color="#fff"/><stop offset="1" stop-color="#fff" stop-opacity="0"/></linearGradient><linearGradient id="am" x1="32" y1="480" x2="1472" y2="480" gradientUnits="userSpaceOnUse"><stop stop-color="#fff" stop-opacity="0"/><stop offset=".495" stop-color="#fff"/><stop offset="1" stop-color="#fff" stop-opacity="0"/></linearGradient><linearGradient id="an" x1="32" y1="512" x2="1472" y2="512" gradientUnits="userSpaceOnUse"><stop stop-color="#fff" stop-opacity="0"/><stop offset=".495" stop-color="#fff"/><stop offset="1" stop-color="#fff" stop-opacity="0"/></linearGradient><linearGradient id="ao" x1="32" y1="544" x2="1472" y2="544" gradientUnits="userSpaceOnUse"><stop stop-color="#fff" stop-opacity="0"/><stop offset=".495" stop-color="#fff"/><stop offset="1" stop-color="#fff" stop-opacity="0"/></linearGradient><linearGradient id="ap" x1="32" y1="576" x2="1472" y2="576" gradientUnits="userSpaceOnUse"><stop stop-color="#fff" stop-opacity="0"/><stop offset=".495" stop-color="#fff"/><stop offset="1" stop-color="#fff" stop-opacity="0"/></linearGradient><linearGradient id="aq" x1="32" y1="608" x2="1472" y2="608" gradientUnits="userSpaceOnUse"><stop stop-color="#fff" stop-opacity="0"/><stop offset=".495" stop-color="#fff"/><stop offset="1" stop-color="#fff" stop-opacity="0"/></linearGradient><linearGradient id="as" x1="744" y1="280.192" x2="744" y2="420" gradientUnits="userSpaceOnUse"><stop/><stop offset="1" stop-opacity="0"/></linearGradient><linearGradient id="au" x1="752" y1="280.192" x2="752" y2="634" gradientUnits="userSpaceOnUse"><stop offset=".162"/><stop offset="1" stop-opacity="0"/></linearGradient><linearGradient id="aw" x1="752" y1="105.697" x2="752" y2="263.992" gradientUnits="userSpaceOnUse"><stop stop-color="#0085FF"/><stop offset="1" stop-color="#0085FF" stop-opacity="0"/></linearGradient><linearGradient id="ax" x1="752" y1="105.697" x2="752" y2="263.992" gradientUnits="userSpaceOnUse"><stop stop-color="#0085FF"/><stop offset="1" stop-color="#0085FF" stop-opacity="0"/></linearGradient><linearGradient id="ay" x1="752" y1="105.697" x2="752" y2="263.992" gradientUnits="userSpaceOnUse"><stop stop-color="#0085FF"/><stop offset="1" stop-color="#0085FF" stop-opacity="0"/></linearGradient><linearGradient id="az" x1="752" y1="105.697" x2="752" y2="235.896" gradientUnits="userSpaceOnUse"><stop stop-color="#A771FF"/><stop offset="1" stop-color="#0052CD" stop-opacity="0"/></linearGradient><linearGradient id="aA" x1="752" y1="105.697" x2="752" y2="235.896" gradientUnits="userSpaceOnUse"><stop stop-color="#A771FF"/><stop offset="1" stop-color="#0052CD" stop-opacity="0"/></linearGradient><linearGradient id="aB" x1="752" y1="105.697" x2="752" y2="235.896" gradientUnits="userSpaceOnUse"><stop stop-color="#A771FF"/><stop offset="1" stop-color="#0052CD" stop-opacity="0"/></linearGradient><linearGradient id="aC" x1="752" y1="105.697" x2="752" y2="271.187" gradientUnits="userSpaceOnUse"><stop stop-color="#0052CD"/><stop offset="1" stop-color="#0052CD" stop-opacity="0"/></linearGradient><linearGradient id="aD" x1="752" y1="105.697" x2="752" y2="271.187" gradientUnits="userSpaceOnUse"><stop stop-color="#0052CD"/><stop offset="1" stop-color="#0052CD" stop-opacity="0"/></linearGradient><linearGradient id="aE" x1="752" y1="105.697" x2="752" y2="271.187" gradientUnits="userSpaceOnUse"><stop stop-color="#0052CD"/><stop offset="1" stop-color="#0052CD" stop-opacity="0"/></linearGradient><radialGradient id="a" cx="0" cy="0" r="1" gradientUnits="userSpaceOnUse" gradientTransform="matrix(719.99968 268.2319 -198.1752 531.95045 752 309)"><stop/><stop offset=".347" stop-opacity=".302"/><stop offset=".597" stop-opacity="0"/><stop offset=".875" stop-opacity="0"/><stop offset="1" stop-opacity="0"/></radialGradient><radialGradient id="c" cx="0" cy="0" r="1" gradientUnits="userSpaceOnUse" gradientTransform="rotate(39.704 -51.921 1195.914) scale(693.464 692.563)"><stop stop-color="#06F" stop-opacity=".4"/><stop offset="1" stop-opacity="0"/></radialGradient><radialGradient id="d" cx="0" cy="0" r="1" gradientUnits="userSpaceOnUse" gradientTransform="rotate(39.704 -51.921 1195.914) scale(693.464 692.563)"><stop stop-opacity=".64"/><stop offset=".165" stop-opacity="0"/></radialGradient><radialGradient id="aF" cx="0" cy="0" r="1" gradientUnits="userSpaceOnUse" gradientTransform="matrix(0 231.991 -587.21 0 752 105.697)"><stop stop-color="#fff"/><stop offset=".867" stop-color="#fff" stop-opacity="0"/></radialGradient><radialGradient id="aG" cx="0" cy="0" r="1" gradientUnits="userSpaceOnUse" gradientTransform="matrix(0 231.991 -587.21 0 752 105.697)"><stop stop-color="#fff"/><stop offset=".867" stop-color="#fff" stop-opacity="0"/></radialGradient><radialGradient id="aH" cx="0" cy="0" r="1" gradientUnits="userSpaceOnUse" gradientTransform="matrix(0 231.991 -587.21 0 752 105.697)"><stop stop-color="#fff"/><stop offset=".867" stop-color="#fff" stop-opacity="0"/></radialGradient><filter id="ar" x="386" y="248.192" width="716" height="203.808" filterUnits="userSpaceOnUse" color-interpolation-filters="sRGB"><feFlood flood-opacity="0" result="BackgroundImageFix"/><feBlend in="SourceGraphic" in2="BackgroundImageFix" result="shape"/><feGaussianBlur stdDeviation="16" result="effect1_foregroundBlur_15_318"/></filter><filter id="at" x="0" y="248.192" width="1504" height="417.808" filterUnits="userSpaceOnUse" color-interpolation-filters="sRGB"><feFlood flood-opacity="0" result="BackgroundImageFix"/><feBlend in="SourceGraphic" in2="BackgroundImageFix" result="shape"/><feGaussianBlur stdDeviation="16" result="effect1_foregroundBlur_15_318"/></filter><filter id="av" x="384.5" y="32.197" width="735" height="379.303" filterUnits="userSpaceOnUse" color-interpolation-filters="sRGB"><feFlood flood-opacity="0" result="BackgroundImageFix"/><feBlend in="SourceGraphic" in2="BackgroundImageFix" result="shape"/><feGaussianBlur stdDeviation="32" result="effect1_foregroundBlur_15_318"/></filter></defs></svg>