<svg width="619" height="464" fill="none" xmlns="http://www.w3.org/2000/svg"><g clip-path="url(#a)"><mask id="c" fill="#fff"><path d="M0 0h485v49.035H0V0Z"/></mask><path d="M0 0h485v49.035H0V0Z" fill="#171D26"/><rect x="332.883" y="8.688" width="32.096" height="32.096" rx="3.566" fill="#2F363D"/><path d="M348.931 25.478a.743.743 0 1 0 0-1.485.743.743 0 0 0 0 1.485ZM354.132 25.478a.743.743 0 1 0 0-1.486.743.743 0 0 0 0 1.486ZM343.728 25.478a.743.743 0 1 0 0-1.485.743.743 0 0 0 0 1.485Z" stroke="#DFECF5" stroke-width="1.486" stroke-linecap="round" stroke-linejoin="round"/><rect x="375.677" y="8.495" width="80.794" height="32.482" rx="3.566" fill="#3888FF"/><path fill-rule="evenodd" clip-rule="evenodd" d="M392.839 25.404v4.235h1.337v-4.235h4.235v-1.337h-4.235v-4.235h-1.337v4.235h-4.235v1.337h4.235Z" fill="#fff"/><path d="M410.308 20.01v9.725h-1.467V20.01h1.467Zm3.443 5.394v4.331h-1.42v-7.294h1.363v1.187h.091c.167-.386.43-.696.788-.93.361-.235.815-.352 1.363-.352.497 0 .932.104 1.306.313.374.206.663.513.869.922.206.408.309.913.309 1.515v4.64H417v-4.47c0-.528-.138-.941-.413-1.239-.276-.3-.654-.451-1.135-.451-.33 0-.623.071-.879.214a1.54 1.54 0 0 0-.603.627c-.146.272-.219.601-.219.987Zm12.039-1.182-1.287.228a1.53 1.53 0 0 0-.256-.47 1.266 1.266 0 0 0-.466-.366c-.196-.095-.441-.143-.736-.143-.402 0-.737.09-1.007.271-.269.177-.403.407-.403.689 0 .243.09.44.27.589.181.148.472.27.874.365l1.159.266c.671.155 1.171.394 1.501.717.329.323.494.743.494 1.259 0 .437-.127.826-.38 1.168-.25.339-.6.605-1.05.798-.446.193-.964.29-1.553.29-.817 0-1.483-.175-1.999-.523-.516-.351-.833-.85-.95-1.496l1.373-.209c.085.358.261.629.527.812.266.18.612.271 1.04.271.465 0 .837-.096 1.116-.29.278-.196.418-.435.418-.717a.746.746 0 0 0-.257-.574c-.168-.155-.426-.273-.774-.352l-1.235-.27c-.68-.156-1.184-.403-1.51-.741-.323-.34-.484-.768-.484-1.287 0-.43.12-.808.361-1.13.24-.323.573-.575.997-.756.424-.183.91-.275 1.458-.275.788 0 1.409.17 1.862.513.452.339.752.793.897 1.363Zm4.848 5.66c-.719 0-1.338-.153-1.857-.46a3.127 3.127 0 0 1-1.197-1.306c-.279-.564-.418-1.224-.418-1.98 0-.748.139-1.406.418-1.976a3.243 3.243 0 0 1 1.178-1.334c.506-.32 1.098-.48 1.776-.48.412 0 .81.068 1.197.204.386.136.733.35 1.04.641.307.292.549.67.726 1.135.178.462.266 1.024.266 1.686v.503h-5.798v-1.063h4.407c0-.374-.076-.705-.228-.993a1.726 1.726 0 0 0-.641-.688 1.794 1.794 0 0 0-.96-.252c-.398 0-.747.098-1.044.294a1.968 1.968 0 0 0-.684.76c-.158.31-.238.648-.238 1.012v.83c0 .488.086.903.257 1.245.174.342.416.603.726.784.311.177.673.266 1.088.266.269 0 .514-.038.736-.114a1.526 1.526 0 0 0 .945-.926l1.344.242a2.443 2.443 0 0 1-.579 1.04 2.813 2.813 0 0 1-1.04.688 3.895 3.895 0 0 1-1.42.243Zm4.705-.147v-7.294h1.372V23.6h.076c.133-.393.367-.702.703-.926a2.012 2.012 0 0 1 1.149-.342 6.024 6.024 0 0 1 .603.033v1.358a2.543 2.543 0 0 0-.304-.052 2.883 2.883 0 0 0-.436-.033c-.336 0-.635.07-.898.213a1.585 1.585 0 0 0-.845 1.43v4.454h-1.42Zm8.968-7.294v1.14h-3.984v-1.14h3.984Zm-2.916-1.748h1.42v6.9c0 .276.041.483.124.623.082.136.188.23.318.28.133.047.277.071.432.071.114 0 .214-.008.299-.024.086-.015.152-.028.2-.038l.256 1.173a2.369 2.369 0 0 1-.351.095 2.772 2.772 0 0 1-.57.057 2.499 2.499 0 0 1-1.045-.2 1.788 1.788 0 0 1-.783-.645c-.2-.291-.3-.657-.3-1.097v-7.195Z" fill="#fff"/><g clip-path="url(#b)"><path d="M32.688 19.807H20.801l4.755 5.622v3.887l2.377 1.19v-5.077l4.755-5.622Z" stroke="#DFECF5" stroke-width="1.189" stroke-linecap="round" stroke-linejoin="round"/></g><path d="M42.08 30.156V20.43h6.03v1.264h-4.563v2.963h4.131v1.258h-4.131v4.241h-1.468Zm7.721 0v-7.294h1.42v7.294h-1.42Zm.717-8.42a.902.902 0 0 1-.636-.247.803.803 0 0 1-.261-.598c0-.234.087-.434.26-.598a.893.893 0 0 1 .637-.252c.247 0 .458.084.632.252a.787.787 0 0 1 .266.598c0 .231-.089.43-.266.598a.886.886 0 0 1-.632.247Zm4.033-1.306v9.726h-1.42V20.43h1.42Zm5.316 2.432v1.14h-3.985v-1.14h3.985Zm-2.916-1.748h1.42v6.9c0 .276.04.483.123.623.083.136.188.23.318.28.133.047.277.071.433.071.114 0 .213-.008.299-.024l.2-.038L60 30.1a2.39 2.39 0 0 1-.352.095 2.772 2.772 0 0 1-.57.057 2.499 2.499 0 0 1-1.045-.2 1.792 1.792 0 0 1-.783-.645c-.2-.291-.3-.657-.3-1.097v-7.195Zm7.552 9.19c-.719 0-1.338-.154-1.857-.461a3.125 3.125 0 0 1-1.197-1.306c-.278-.564-.418-1.224-.418-1.98 0-.748.14-1.406.418-1.976a3.245 3.245 0 0 1 1.178-1.334c.506-.32 1.099-.48 1.776-.48.412 0 .81.068 1.197.204a2.9 2.9 0 0 1 1.04.641c.307.291.55.67.727 1.135.177.462.265 1.024.265 1.686v.503h-5.798v-1.063h4.407c0-.374-.076-.705-.228-.993a1.724 1.724 0 0 0-.641-.688 1.792 1.792 0 0 0-.96-.252c-.398 0-.747.098-1.044.294a1.976 1.976 0 0 0-.684.76c-.158.31-.237.648-.237 1.012v.83c0 .488.085.903.256 1.245.174.342.416.603.726.784.31.177.673.266 1.088.266.27 0 .514-.038.736-.114a1.527 1.527 0 0 0 .945-.926l1.344.242c-.108.395-.3.742-.58 1.04a2.809 2.809 0 0 1-1.04.688 3.894 3.894 0 0 1-1.42.242Zm4.705-.148v-7.294h1.372v1.159h.076c.133-.393.368-.702.703-.927a2.01 2.01 0 0 1 1.15-.341 5.994 5.994 0 0 1 .603.033v1.358a2.555 2.555 0 0 0-.304-.052 2.895 2.895 0 0 0-.437-.034c-.336 0-.635.072-.898.214a1.588 1.588 0 0 0-.845 1.43v4.454h-1.42Z" fill="#DFECF5"/><rect x="9.361" y="9.361" width="74.903" height="31.59" rx="3.12" stroke="#2F363D" stroke-width=".892"/><path d="M485 48.143H0v1.783h485v-1.783Z" fill="#2F363D" mask="url(#c)"/><g clip-path="url(#d)"><g clip-path="url(#e)"><mask id="f" fill="#fff"><path d="M0 49.035h35.662v33.879H0V49.035Z"/></mask><path d="M0 49.035h35.662v33.879H0V49.035Z" fill="#171D26"/><rect x="11.367" y="59.511" width="12.927" height="12.927" rx="2.006" stroke="#363A43" stroke-width="1.337"/><path d="M34.77 49.035v33.879h1.783V49.035H34.77Z" fill="#2F363D" mask="url(#f)"/><mask id="g" fill="#fff"><path d="M35.662 49.035h124.816v33.879H35.662V49.035Z"/></mask><path d="M35.662 49.035h124.816v33.879H35.662V49.035Z" fill="#171D26"/><path d="M47.986 65.687a4.009 4.009 0 1 1 2.23 2.228l-.734.734h-1.338v1.337h-1.337v1.338h-2.229v-2.23l3.408-3.407Z" stroke="#DFECF5" stroke-width="1.337" stroke-linejoin="round"/><path d="M52.157 65.083a1.337 1.337 0 1 0 0-2.675 1.337 1.337 0 0 0 0 2.675ZM61.39 69.475v-5.836h1.136v5.836H61.39Zm.573-6.736a.722.722 0 0 1-.509-.198.643.643 0 0 1-.209-.479c0-.187.07-.347.21-.478a.714.714 0 0 1 .508-.202c.198 0 .366.067.506.202a.63.63 0 0 1 .212.478c0 .185-.07.345-.212.48a.709.709 0 0 1-.506.197Zm4.275 6.85c-.47 0-.891-.12-1.261-.361-.367-.243-.656-.59-.866-1.037-.208-.451-.312-.992-.312-1.623 0-.63.105-1.17.316-1.618.212-.449.504-.792.873-1.03.37-.238.79-.357 1.258-.357.362 0 .653.06.874.182.223.12.395.259.516.418.124.16.22.3.29.422h.068v-2.891h1.135v7.78H68.02v-.907h-.095a3.008 3.008 0 0 1-.296.425c-.127.16-.302.299-.524.418-.223.12-.512.179-.867.179Zm.251-.97c.327 0 .603-.085.828-.258.228-.174.4-.416.517-.725.119-.31.179-.669.179-1.08 0-.404-.059-.759-.175-1.063a1.563 1.563 0 0 0-.513-.71c-.225-.17-.504-.255-.836-.255-.342 0-.627.089-.855.266-.228.177-.4.42-.516.726a2.96 2.96 0 0 0-.171 1.037c0 .39.058.74.174 1.052.117.312.29.559.517.741.23.18.514.27.851.27Z" fill="#DFECF5"/><rect x="74.192" y="57.691" width="30.132" height="16.566" rx="3.566" fill="#2F363D"/><path d="M78.73 64.293v.771h1.763v3.644h-1.762v.767h4.338v-.767h-1.69v-4.415H78.73Zm1.648-1.36c0 .144.043.264.13.36.089.095.223.143.402.143.175 0 .308-.048.397-.143a.506.506 0 0 0 .134-.36.614.614 0 0 0-.038-.22.415.415 0 0 0-.115-.167.411.411 0 0 0-.158-.096.588.588 0 0 0-.22-.039.627.627 0 0 0-.225.039.453.453 0 0 0-.273.268.676.676 0 0 0-.034.215Zm3.908 6.542h.886v-3.716c.06-.112.13-.214.21-.307a1.75 1.75 0 0 1 .268-.244 1.504 1.504 0 0 1 .843-.259c.189 0 .355.023.498.067a.905.905 0 0 1 .374.216.945.945 0 0 1 .225.388c.051.16.076.354.076.584v3.27h.886v-3.29c0-.344-.043-.64-.129-.89a1.608 1.608 0 0 0-.359-.622 1.413 1.413 0 0 0-.57-.36 2.234 2.234 0 0 0-.737-.114 2.002 2.002 0 0 0-1.073.325c-.102.067-.2.147-.292.24-.09.089-.172.188-.249.297l-.062-.767h-.795v5.182Zm7.791-6.436h-.89v1.254h-1.36v.685h1.36v2.816c0 .32.04.592.124.819.086.223.202.405.35.546.146.143.319.249.516.316.202.064.417.095.647.095a4.433 4.433 0 0 0 .81-.076c.124-.023.239-.05.344-.082.105-.035.195-.075.268-.12l-.124-.627a16.55 16.55 0 0 1-.211.048 10.521 10.521 0 0 1-.57.091c-.102.01-.2.015-.297.015-.13 0-.255-.016-.373-.048a.768.768 0 0 1-.517-.479 1.383 1.383 0 0 1-.077-.498v-2.816h1.973v-.685h-1.973V63.04Zm7.188 4.094v-4.63h-.944L95.2 67.334v.522h3.18v1.619h.886v-1.619h.972v-.723h-.972Zm-3.084 0 2.054-3.184.144-.269v3.453H96.18Z" fill="#A2B3BE"/><path d="M159.587 49.035v33.879h1.783V49.035h-1.783Z" fill="#2F363D" mask="url(#g)"/><mask id="h" fill="#fff"><path d="M160.478 49.035h178.308v33.879H160.478V49.035Z"/></mask><path d="M160.478 49.035h178.308v33.879H160.478V49.035Z" fill="#171D26"/><path d="M168.374 69.475v-5.836h1.098v.927h.061a1.41 1.41 0 0 1 .562-.74 1.61 1.61 0 0 1 .919-.274 4.816 4.816 0 0 1 .483.026v1.087a2.083 2.083 0 0 0-.243-.042 2.33 2.33 0 0 0-.35-.027c-.268 0-.508.057-.718.171a1.269 1.269 0 0 0-.676 1.144v3.564h-1.136Zm6.355.117c-.547 0-1.024-.125-1.432-.376a2.533 2.533 0 0 1-.95-1.052c-.225-.451-.338-.978-.338-1.58 0-.606.113-1.135.338-1.589.225-.453.542-.805.95-1.056.408-.25.885-.376 1.432-.376.547 0 1.025.125 1.432.376.408.25.725.603.95 1.056.226.454.338.983.338 1.588 0 .603-.112 1.13-.338 1.58-.225.452-.542.803-.95 1.053-.407.251-.885.376-1.432.376Zm.004-.953c.354 0 .648-.094.881-.281.233-.188.406-.437.517-.749.114-.311.171-.654.171-1.03 0-.372-.057-.714-.171-1.025a1.669 1.669 0 0 0-.517-.756c-.233-.19-.527-.285-.881-.285-.357 0-.654.095-.889.285a1.7 1.7 0 0 0-.521.756 3.037 3.037 0 0 0-.167 1.026c0 .374.056.718.167 1.03.114.31.288.56.521.748.235.187.532.28.889.28Zm5.12-6.945v7.78h-1.136v-7.78h1.136Zm4.044 7.898c-.575 0-1.071-.123-1.486-.368a2.496 2.496 0 0 1-.957-1.045c-.223-.45-.335-.979-.335-1.584 0-.598.112-1.125.335-1.58a2.59 2.59 0 0 1 .942-1.068c.405-.256.879-.384 1.421-.384.329 0 .648.054.957.163.309.11.587.28.832.513.246.233.44.536.581.908.142.37.213.82.213 1.349v.403h-4.639v-.851h3.526c0-.3-.061-.564-.182-.794a1.385 1.385 0 0 0-.513-.551 1.435 1.435 0 0 0-.768-.202 1.48 1.48 0 0 0-.835.236 1.586 1.586 0 0 0-.548.608c-.126.248-.19.518-.19.81v.664c0 .39.069.722.206.995.139.274.333.483.581.627.248.142.538.213.87.213.215 0 .412-.03.589-.091.177-.064.33-.157.46-.281a1.23 1.23 0 0 0 .296-.46l1.075.194a1.954 1.954 0 0 1-.463.832c-.221.235-.498.419-.832.55-.332.13-.711.194-1.136.194Z" fill="#DFECF5"/><rect x="191.177" y="57.691" width="30.132" height="16.566" rx="3.566" fill="#2F363D"/><path d="M197.674 63.039h-.891v1.254h-1.36v.685h1.36v2.816c0 .32.042.592.125.819.086.223.202.405.349.546.147.143.319.249.517.316.201.064.417.095.647.095a4.453 4.453 0 0 0 .809-.076c.125-.023.239-.05.345-.082a1.32 1.32 0 0 0 .268-.12l-.125-.627c-.054.013-.124.03-.21.048a8.637 8.637 0 0 1-.57.091 3.17 3.17 0 0 1-.297.015c-.131 0-.255-.016-.373-.048a.771.771 0 0 1-.518-.479 1.387 1.387 0 0 1-.076-.498v-2.816h1.973v-.685h-1.973V63.04Zm5.885 6.531c.505 0 .927-.1 1.269-.301.345-.205.603-.438.776-.7l-.541-.42a1.803 1.803 0 0 1-1.456.7c-.239-.002-.458-.046-.656-.136a1.514 1.514 0 0 1-.508-.368 1.692 1.692 0 0 1-.325-.508 2.357 2.357 0 0 1-.149-.666v-.033h3.702v-.398c0-.36-.046-.696-.139-1.005a2.279 2.279 0 0 0-.412-.81 1.903 1.903 0 0 0-.699-.531 2.271 2.271 0 0 0-.977-.196c-.297 0-.587.06-.871.182a2.325 2.325 0 0 0-.752.522c-.224.23-.402.51-.536.842a2.928 2.928 0 0 0-.202 1.12v.202c0 .36.061.694.182 1 .122.307.291.572.508.796.217.223.477.397.781.522.306.124.641.186 1.005.186Zm-.115-4.644a1.222 1.222 0 0 1 .996.45c.109.134.193.293.254.479.061.181.091.352.091.512v.043h-2.787c.035-.24.096-.45.182-.632a1.69 1.69 0 0 1 .326-.47 1.3 1.3 0 0 1 .431-.282c.159-.067.328-.1.507-.1Zm5.66 1.288-1.369-1.92h-1.025l1.93 2.561-1.982 2.62h1.034l1.432-1.973 1.431 1.973h1.025l-1.982-2.62 1.929-2.562h-1.039l-1.384 1.92Zm5.651-3.175h-.891v1.254h-1.359v.685h1.359v2.816c0 .32.042.592.125.819.086.223.203.405.35.546.146.143.319.249.517.316.201.064.416.095.646.095a4.437 4.437 0 0 0 .809-.076c.125-.023.24-.05.345-.082.106-.035.195-.075.268-.12l-.124-.627a16.38 16.38 0 0 1-.211.048 10.344 10.344 0 0 1-.57.091 3.17 3.17 0 0 1-.297.015c-.13 0-.255-.016-.373-.048a.765.765 0 0 1-.517-.48 1.385 1.385 0 0 1-.077-.497v-2.816h1.973v-.685h-1.973V63.04Z" fill="#A2B3BE"/><path d="M337.895 49.035v33.879h1.783V49.035h-1.783Z" fill="#2F363D" mask="url(#h)"/><mask id="i" fill="#fff"><path d="M338.787 49.035h178.309v33.879H338.787V49.035Z"/></mask><path d="M338.787 49.035h178.309v33.879H338.787V49.035Z" fill="#171D26"/><path d="M347.82 66.01v3.465h-1.136v-5.836h1.09v.95h.072c.134-.31.345-.557.631-.745.289-.187.652-.28 1.09-.28.398 0 .746.083 1.045.25.299.164.531.41.695.737.165.327.247.73.247 1.212v3.712h-1.136V65.9c0-.423-.11-.754-.33-.992-.221-.24-.523-.36-.908-.36-.264 0-.498.056-.703.17a1.228 1.228 0 0 0-.483.501 1.661 1.661 0 0 0-.174.79Zm6.956 3.594c-.37 0-.704-.069-1.003-.205a1.692 1.692 0 0 1-.711-.604c-.172-.264-.258-.587-.258-.97 0-.329.063-.6.19-.812.127-.213.298-.382.513-.506.215-.124.456-.217.722-.28.266-.064.537-.112.813-.145l.851-.099c.218-.028.376-.072.475-.133.098-.06.148-.16.148-.296v-.027c0-.332-.094-.589-.281-.771-.185-.182-.461-.273-.828-.273-.383 0-.684.084-.905.254a1.363 1.363 0 0 0-.452.559l-1.067-.244c.126-.354.311-.64.554-.858.246-.22.528-.38.848-.479a3.302 3.302 0 0 1 1.006-.152c.233 0 .48.028.741.084.264.053.509.152.737.296.231.144.419.35.566.62.147.265.221.61.221 1.036v3.876h-1.11v-.798h-.045a1.628 1.628 0 0 1-.331.433c-.147.142-.335.26-.566.353-.23.094-.506.14-.828.14Zm.247-.912c.314 0 .582-.062.805-.186.226-.124.397-.286.513-.487.119-.202.179-.419.179-.65v-.751a.595.595 0 0 1-.236.114 3.676 3.676 0 0 1-.391.087l-.43.065a53.8 53.8 0 0 0-.349.045 2.82 2.82 0 0 0-.604.14c-.18.067-.324.162-.433.286-.107.121-.16.283-.16.486 0 .281.104.494.312.638.207.142.472.213.794.213Zm4.146.783v-5.836h1.09v.95h.072c.122-.322.321-.573.597-.752.276-.183.606-.274.991-.274.39 0 .717.091.98.274a1.6 1.6 0 0 1 .589.752h.061a1.64 1.64 0 0 1 .665-.745c.304-.187.666-.28 1.087-.28.529 0 .961.165 1.295.497.337.332.505.832.505 1.5v3.914h-1.136v-3.807c0-.395-.107-.681-.323-.859a1.173 1.173 0 0 0-.771-.266c-.37 0-.657.114-.862.342-.205.226-.308.516-.308.87v3.72h-1.132v-3.88c0-.316-.099-.57-.296-.763-.198-.192-.455-.289-.772-.289-.215 0-.414.057-.596.171a1.25 1.25 0 0 0-.437.468 1.43 1.43 0 0 0-.163.695v3.598h-1.136Zm11.97.117c-.575 0-1.07-.123-1.486-.368a2.509 2.509 0 0 1-.957-1.045c-.223-.45-.334-.979-.334-1.584 0-.598.111-1.125.334-1.58.226-.457.54-.812.942-1.068.406-.256.879-.384 1.421-.384.329 0 .649.054.958.163.309.11.586.28.832.513.245.233.439.536.581.908.142.37.213.82.213 1.349v.403h-4.639v-.851h3.525c0-.3-.06-.564-.182-.794a1.371 1.371 0 0 0-.513-.551 1.432 1.432 0 0 0-.767-.202c-.319 0-.598.079-.836.236a1.576 1.576 0 0 0-.547.608 1.75 1.75 0 0 0-.19.81v.664c0 .39.068.722.205.995.139.274.333.483.581.627.249.142.539.213.87.213.216 0 .412-.03.589-.091a1.218 1.218 0 0 0 .756-.74l1.075.193c-.086.316-.24.594-.463.832-.22.235-.498.419-.832.55-.332.13-.711.194-1.136.194Z" fill="#DFECF5"/><rect x="378.486" y="57.691" width="48.132" height="16.566" rx="3.566" fill="#2F363D"/><path d="M384.653 69.475h.675l2.112-5.182h-.905l-1.451 3.908-.086.32-.082-.32-1.484-3.908h-.91l2.131 5.182Zm7.331 0h.925v-.077a2.35 2.35 0 0 1-.134-.503 3.403 3.403 0 0 1-.048-.55v-2.41c0-.29-.053-.543-.158-.76a1.582 1.582 0 0 0-.431-.546 1.889 1.889 0 0 0-.656-.321 2.928 2.928 0 0 0-.819-.11c-.323 0-.612.044-.867.134-.252.09-.466.206-.642.35a1.607 1.607 0 0 0-.411.492 1.253 1.253 0 0 0-.144.556h.891a.67.67 0 0 1 .076-.311.8.8 0 0 1 .225-.264c.096-.073.213-.132.35-.177.14-.044.298-.067.474-.067.188 0 .357.024.507.072.154.048.283.115.388.201a.924.924 0 0 1 .331.742v.407h-.968c-.36 0-.687.035-.981.106-.291.07-.54.175-.747.316a1.52 1.52 0 0 0-.484.536 1.588 1.588 0 0 0-.167.747c0 .217.041.42.124.608.086.185.208.345.364.479.153.137.34.246.56.326.224.08.473.12.747.12a2.1 2.1 0 0 0 .479-.053 2.3 2.3 0 0 0 .426-.144 2.362 2.362 0 0 0 .661-.464c.01.108.024.213.043.316.023.099.051.182.086.249Zm-1.565-.676c-.173 0-.324-.022-.455-.067a.9.9 0 0 1-.326-.186.74.74 0 0 1-.196-.278.974.974 0 0 1-.063-.355c0-.133.024-.253.072-.359a.785.785 0 0 1 .221-.273c.134-.108.314-.188.541-.239a3.52 3.52 0 0 1 .804-.081h.824v1.048a1.28 1.28 0 0 1-.211.297 1.552 1.552 0 0 1-.316.25 1.836 1.836 0 0 1-.412.176c-.15.045-.311.067-.483.067Zm7.25-4.601c-.377 0-.714.083-1.011.249a2.36 2.36 0 0 0-.756.67l-.005-.13-.038-.694h-.843v5.182h.89V66.15c.058-.16.13-.303.216-.43a1.392 1.392 0 0 1 .771-.56c.175-.055.372-.082.589-.082.169 0 .33.01.484.028.156.016.32.043.493.082l.119-.867a1.57 1.57 0 0 0-.402-.09 4.025 4.025 0 0 0-.507-.034Zm4.506 4.654a1.38 1.38 0 0 1-.699-.163 1.328 1.328 0 0 1-.446-.435 1.825 1.825 0 0 1-.249-.594 3.272 3.272 0 0 1-.071-.675v-.202c0-.223.024-.445.071-.665.051-.22.134-.42.249-.599.115-.175.265-.317.451-.426.188-.112.419-.168.694-.168.179 0 .345.03.498.091.156.061.29.144.402.25.112.105.2.228.263.368.068.138.103.284.106.44h.838c0-.261-.053-.507-.158-.737a1.854 1.854 0 0 0-.436-.598 2.11 2.11 0 0 0-.67-.393 2.318 2.318 0 0 0-.843-.148c-.393 0-.736.07-1.03.21-.293.14-.538.33-.732.565a2.44 2.44 0 0 0-.446.829c-.099.313-.148.64-.148.981v.202c0 .344.049.673.148.986.099.31.248.583.446.819.194.24.439.43.732.57.294.14.637.21 1.03.21a2.275 2.275 0 0 0 1.46-.522 1.84 1.84 0 0 0 .465-.546c.118-.21.179-.43.182-.66h-.838a.817.817 0 0 1-.115.402c-.07.121-.164.227-.283.316a1.43 1.43 0 0 1-.871.292Zm4.372-3.788V62.12h-.886v7.356h.886V65.71a1.694 1.694 0 0 1 .484-.503c.121-.083.253-.147.397-.192.144-.044.295-.067.455-.067.195-.003.367.024.517.082.15.054.275.137.374.249.092.102.163.231.21.388.048.153.072.332.072.536v3.27h.886v-3.26c0-.348-.043-.648-.129-.9a1.654 1.654 0 0 0-.359-.633 1.395 1.395 0 0 0-.57-.364 2.152 2.152 0 0 0-1.327-.028 1.728 1.728 0 0 0-.502.253 1.841 1.841 0 0 0-.273.235 1.823 1.823 0 0 0-.235.287Zm8.213 4.41h.924v-.076a2.41 2.41 0 0 1-.134-.503 3.403 3.403 0 0 1-.048-.55v-2.41c0-.29-.053-.543-.158-.76a1.582 1.582 0 0 0-.431-.546 1.88 1.88 0 0 0-.656-.321 2.918 2.918 0 0 0-.819-.11 2.62 2.62 0 0 0-.867.134c-.252.09-.466.206-.641.35a1.61 1.61 0 0 0-.412.492 1.253 1.253 0 0 0-.144.556h.891a.67.67 0 0 1 .076-.311.824.824 0 0 1 .225-.264c.096-.073.213-.132.35-.177.14-.044.298-.067.474-.067.188 0 .358.024.508.072.153.048.282.115.388.201a.933.933 0 0 1 .33.742v.407h-.967c-.361 0-.688.035-.982.106-.291.07-.54.175-.747.316a1.52 1.52 0 0 0-.484.536 1.6 1.6 0 0 0-.167.747c0 .217.041.42.124.608.086.185.208.345.364.479.153.137.34.246.56.326.224.08.473.12.747.12.17 0 .329-.018.479-.053a2.1 2.1 0 0 0 .786-.354c.111-.08.212-.165.301-.254.01.108.024.213.043.316.023.099.051.182.087.249Zm-1.566-.675c-.173 0-.324-.022-.455-.067a.9.9 0 0 1-.326-.186.752.752 0 0 1-.196-.278.974.974 0 0 1-.062-.355c0-.133.024-.253.071-.359a.797.797 0 0 1 .221-.273c.134-.108.314-.188.541-.239.23-.054.498-.081.804-.081h.824v1.048a1.25 1.25 0 0 1-.211.297 1.525 1.525 0 0 1-.316.25 1.836 1.836 0 0 1-.412.176c-.15.045-.311.067-.483.067Zm7.25-4.601c-.377 0-.714.083-1.011.249a2.371 2.371 0 0 0-.756.67l-.005-.13-.038-.694h-.843v5.182h.891V66.15a1.93 1.93 0 0 1 .215-.43c.09-.132.193-.242.311-.331a1.35 1.35 0 0 1 .46-.23c.176-.054.372-.081.589-.081.169 0 .33.01.484.028.156.016.321.043.493.082l.12-.867a1.59 1.59 0 0 0-.403-.09 4.013 4.013 0 0 0-.507-.034Z" fill="#A2B3BE"/><path d="M516.204 49.035v33.879h1.783V49.035h-1.783Z" fill="#2F363D" mask="url(#i)"/></g><path d="M909.375 82.022H0v1.783h909.375v-1.783Z" fill="#2F363D" mask="url(#path-14-inside-2_31_736)"/><g clip-path="url(#j)"><mask id="k" fill="#fff"><path d="M0 82.914h35.662v41.011H0v-41.01Z"/></mask><path d="M0 82.914h35.662v41.011H0v-41.01Z" fill="#171D26"/><rect x="11.367" y="96.956" width="12.927" height="12.927" rx="2.006" stroke="#363A43" stroke-width="1.337"/><path d="M34.77 82.914v41.011h1.783v-41.01H34.77Z" fill="#2F363D" mask="url(#k)"/><mask id="l" fill="#fff"><path d="M35.662 82.914h124.816v41.011H35.662v-41.01Z"/></mask><path d="M35.662 82.914h124.816v41.011H35.662v-41.01Z" fill="#171D26"/><path d="M46.336 99.139v7.78h-.942v-6.793h-.046l-1.9 1.262v-.958l1.946-1.291h.942Z" fill="#F8FCFF"/><path d="M159.587 82.914v41.011h1.783v-41.01h-1.783Z" fill="#2F363D" mask="url(#l)"/><mask id="m" fill="#fff"><path d="M160.478 82.914h178.308v41.011H160.478v-41.01Z"/></mask><path d="M160.478 82.914h178.308v41.011H160.478v-41.01Z" fill="#171D26"/><path d="M168.431 106.919v-5.835h.866v.912h.076c.122-.312.318-.554.589-.726.271-.175.597-.262.976-.262.385 0 .706.087.962.262.258.172.459.414.604.726h.061a1.69 1.69 0 0 1 .672-.718c.299-.18.657-.27 1.075-.27.522 0 .949.163 1.28.49.332.324.498.829.498 1.516v3.905h-.896v-3.905c0-.431-.118-.738-.354-.923a1.307 1.307 0 0 0-.832-.278c-.41 0-.728.124-.953.373-.226.245-.339.557-.339.934v3.799h-.911v-3.996c0-.332-.108-.599-.323-.802-.216-.205-.493-.308-.832-.308-.233 0-.451.062-.654.186-.2.125-.362.297-.486.517-.122.218-.182.47-.182.756v3.647h-.897Zm11.745.122c-.562 0-1.047-.124-1.455-.372a2.502 2.502 0 0 1-.938-1.049c-.218-.451-.327-.975-.327-1.573 0-.597.109-1.124.327-1.58.22-.459.527-.816.919-1.072.395-.258.856-.387 1.383-.387.304 0 .604.051.9.152.297.101.566.266.81.494.243.225.437.524.581.896.144.373.216.831.216 1.376v.38h-4.498v-.775h3.587c0-.33-.066-.624-.198-.882a1.492 1.492 0 0 0-1.398-.836c-.357 0-.666.089-.927.266a1.752 1.752 0 0 0-.596.684 2 2 0 0 0-.209.904v.517c0 .441.076.814.228 1.121.154.304.368.535.642.695.273.157.591.236.953.236.236 0 .448-.033.638-.099.193-.069.359-.17.498-.304.139-.137.247-.307.323-.509l.866.243a1.92 1.92 0 0 1-.459.775c-.216.22-.482.393-.798.517a2.976 2.976 0 0 1-1.068.182Z" fill="#F8FCFF"/><path d="M337.895 82.914v41.011h1.783v-41.01h-1.783Z" fill="#2F363D" mask="url(#m)"/><mask id="n" fill="#fff"><path d="M338.787 82.914h178.309v41.011H338.787v-41.01Z"/></mask><path d="M338.787 82.914h178.309v41.011H338.787v-41.01Z" fill="#171D26"/><path d="M349.111 107.041c-.547 0-1.018-.129-1.413-.388a2.527 2.527 0 0 1-.912-1.067c-.213-.453-.319-.971-.319-1.554 0-.593.109-1.116.327-1.569.22-.456.527-.812.919-1.068.395-.258.856-.387 1.383-.387.41 0 .78.076 1.109.228.33.152.599.365.81.638.21.274.34.593.391.958h-.897a1.385 1.385 0 0 0-.456-.707c-.233-.208-.547-.312-.942-.312a1.57 1.57 0 0 0-.919.274c-.261.18-.465.434-.612.763-.144.327-.216.711-.216 1.152 0 .45.071.843.212 1.177.145.335.347.594.608.779.264.185.573.278.927.278.233 0 .445-.041.635-.122a1.301 1.301 0 0 0 .763-.897h.897a2.08 2.08 0 0 1-.376.931c-.198.274-.46.492-.787.654a2.54 2.54 0 0 1-1.132.239Zm3.606-.122v-5.835h.866v.881h.061c.106-.288.299-.523.577-.703.279-.179.593-.269.942-.269l.247.003c.099.003.174.007.224.012v.912c-.03-.008-.1-.019-.208-.034a2.043 2.043 0 0 0-.339-.027c-.283 0-.537.059-.759.178a1.346 1.346 0 0 0-.525.487c-.126.205-.19.439-.19.703v3.692h-.896Zm6.249.122c-.562 0-1.047-.124-1.455-.372a2.502 2.502 0 0 1-.938-1.049c-.218-.451-.327-.975-.327-1.573 0-.597.109-1.124.327-1.58.22-.459.527-.816.919-1.072.395-.258.856-.387 1.383-.387.304 0 .604.051.901.152.296.101.566.266.809.494.243.225.437.524.581.896.144.373.217.831.217 1.376v.38h-4.499v-.775h3.587c0-.33-.066-.624-.198-.882a1.497 1.497 0 0 0-.554-.612 1.56 1.56 0 0 0-.844-.224c-.357 0-.666.089-.927.266a1.752 1.752 0 0 0-.596.684 2 2 0 0 0-.209.904v.517c0 .441.076.814.228 1.121.154.304.368.535.642.695.273.157.591.236.953.236.236 0 .449-.033.639-.099.192-.069.358-.17.497-.304.14-.137.247-.307.323-.509l.866.243a1.92 1.92 0 0 1-.459.775c-.216.22-.481.393-.798.517a2.976 2.976 0 0 1-1.068.182Zm5.498.015a2.36 2.36 0 0 1-1.007-.209 1.728 1.728 0 0 1-.718-.611c-.177-.269-.266-.593-.266-.973 0-.334.066-.605.198-.813.131-.21.307-.375.528-.494a2.76 2.76 0 0 1 .729-.266c.269-.061.538-.109.809-.144.355-.046.642-.08.863-.103.223-.025.385-.067.486-.125.104-.058.156-.16.156-.304v-.031c0-.374-.103-.666-.308-.873-.203-.208-.51-.312-.923-.312-.428 0-.764.094-1.007.281-.243.188-.414.388-.513.601l-.851-.304c.152-.355.355-.631.608-.829.256-.2.534-.339.836-.418.304-.081.603-.121.896-.121.188 0 .403.023.646.068.246.043.483.133.711.27.23.137.422.343.573.619.152.276.228.646.228 1.11v3.844h-.896v-.79h-.046a1.586 1.586 0 0 1-.304.407 1.75 1.75 0 0 1-.566.368c-.235.102-.523.152-.862.152Zm.137-.805c.354 0 .653-.07.896-.209a1.415 1.415 0 0 0 .745-1.235v-.821c-.038.046-.122.088-.251.126a4.368 4.368 0 0 1-.441.095 19.877 19.877 0 0 1-.858.114c-.233.03-.451.08-.654.148-.2.066-.362.166-.486.3-.122.132-.182.312-.182.54 0 .311.115.547.345.706.233.157.528.236.886.236Zm6.712-5.167v.76h-3.024v-.76h3.024Zm-2.143-1.398h.897v5.562c0 .253.036.443.11.57a.568.568 0 0 0 .289.25c.119.041.244.061.376.061.098 0 .18-.005.243-.015l.152-.03.182.805a1.695 1.695 0 0 1-.254.068 1.835 1.835 0 0 1-.414.038c-.254 0-.502-.054-.745-.163a1.473 1.473 0 0 1-.6-.498c-.157-.223-.236-.504-.236-.843v-5.805Zm5.875 7.355c-.562 0-1.047-.124-1.455-.372a2.502 2.502 0 0 1-.938-1.049c-.218-.451-.327-.975-.327-1.573 0-.597.109-1.124.327-1.58.22-.459.527-.816.919-1.072.396-.258.856-.387 1.383-.387.304 0 .604.051.901.152.296.101.566.266.809.494.243.225.437.524.581.896.145.373.217.831.217 1.376v.38h-4.498v-.775h3.586c0-.33-.066-.624-.198-.882a1.497 1.497 0 0 0-.554-.612 1.557 1.557 0 0 0-.844-.224c-.357 0-.666.089-.927.266a1.752 1.752 0 0 0-.596.684 2.014 2.014 0 0 0-.209.904v.517c0 .441.076.814.228 1.121.154.304.368.535.642.695.273.157.591.236.953.236.236 0 .449-.033.639-.099.192-.069.358-.17.497-.304.14-.137.247-.307.323-.509l.867.243a1.933 1.933 0 0 1-.46.775 2.24 2.24 0 0 1-.798.517 2.972 2.972 0 0 1-1.068.182Zm7.124-3.875v.836h-3.404v-.836h3.404Zm1.578 3.753v-5.835h.866v.912h.076c.121-.312.318-.554.589-.726.271-.175.596-.262.976-.262.385 0 .705.087.961.262.259.172.46.414.604.726h.061c.15-.302.374-.541.673-.718.298-.18.657-.27 1.075-.27.522 0 .948.163 1.28.49.332.324.498.829.498 1.516v3.905h-.897v-3.905c0-.431-.118-.738-.353-.923a1.309 1.309 0 0 0-.832-.278c-.41 0-.728.124-.954.373-.225.245-.338.557-.338.934v3.799h-.912v-3.996c0-.332-.107-.599-.323-.802-.215-.205-.492-.308-.832-.308-.233 0-.451.062-.653.186-.2.125-.362.297-.486.517-.122.218-.183.47-.183.756v3.647h-.896Zm9.298 0v-5.835h.897v5.835h-.897Zm.456-6.808a.636.636 0 0 1-.452-.178.574.574 0 0 1-.186-.43c0-.167.062-.31.186-.429a.638.638 0 0 1 .452-.178c.175 0 .324.06.448.178.127.12.19.262.19.43 0 .167-.063.31-.19.429a.622.622 0 0 1-.448.178Zm4.438 9.118c-.433 0-.805-.055-1.117-.167a2.326 2.326 0 0 1-1.268-1.003l.714-.501c.081.106.183.228.308.364.124.14.293.26.509.361.217.104.502.156.854.156.472 0 .86-.114 1.167-.342.306-.228.459-.585.459-1.071v-1.186h-.075c-.066.107-.16.239-.282.396a1.607 1.607 0 0 1-.516.414c-.223.119-.525.178-.905.178-.471 0-.894-.111-1.268-.334a2.343 2.343 0 0 1-.886-.973c-.215-.425-.323-.942-.323-1.55 0-.597.106-1.118.316-1.561.21-.446.502-.79.877-1.034a2.323 2.323 0 0 1 1.3-.368c.38 0 .681.063.904.19.225.124.398.266.517.425.121.157.215.287.281.388h.091v-.927h.866v6.003c0 .501-.114.909-.342 1.223a1.94 1.94 0 0 1-.912.695 3.43 3.43 0 0 1-1.269.224Zm-.03-3.206c.36 0 .664-.082.912-.247.248-.165.437-.402.566-.711.129-.309.194-.678.194-1.109 0-.42-.064-.791-.19-1.113a1.665 1.665 0 0 0-.563-.756c-.248-.183-.554-.274-.919-.274-.38 0-.696.097-.95.289a1.763 1.763 0 0 0-.566.775 2.998 2.998 0 0 0-.186 1.079c0 .405.063.764.19 1.075.129.309.319.552.57.73.253.174.567.262.942.262Zm4.194.896v-5.835h.867v.881h.06c.107-.288.299-.523.578-.703.278-.179.593-.269.942-.269l.247.003c.099.003.173.007.224.012v.912c-.03-.008-.1-.019-.209-.034a2.022 2.022 0 0 0-.338-.027c-.284 0-.537.059-.76.178a1.306 1.306 0 0 0-.714 1.19v3.692h-.897Zm5.698.137c-.37 0-.705-.069-1.007-.209a1.734 1.734 0 0 1-.718-.611c-.177-.269-.266-.593-.266-.973 0-.334.066-.605.198-.813a1.4 1.4 0 0 1 .528-.494c.22-.119.464-.208.73-.266a8.62 8.62 0 0 1 .809-.144c.354-.046.642-.08.862-.103.223-.025.385-.067.486-.125.104-.058.156-.16.156-.304v-.031c0-.374-.102-.666-.308-.873-.202-.208-.51-.312-.923-.312-.428 0-.763.094-1.007.281-.243.188-.414.388-.512.601l-.851-.304c.152-.355.354-.631.607-.829.256-.2.535-.339.836-.418.304-.081.603-.121.897-.121.187 0 .403.023.646.068.245.043.482.133.71.27.231.137.422.343.574.619.152.276.228.646.228 1.11v3.844h-.897v-.79h-.045a1.586 1.586 0 0 1-.304.407 1.761 1.761 0 0 1-.566.368c-.236.102-.523.152-.863.152Zm.137-.805c.355 0 .653-.07.897-.209a1.42 1.42 0 0 0 .744-1.235v-.821c-.038.046-.121.088-.251.126a4.344 4.344 0 0 1-.44.095 20.671 20.671 0 0 1-.859.114 3.41 3.41 0 0 0-.653.148c-.2.066-.363.166-.487.3-.121.132-.182.312-.182.54 0 .311.115.547.346.706.233.157.528.236.885.236Zm6.712-5.167v.76h-3.024v-.76h3.024Zm-2.143-1.398h.897v5.562c0 .253.037.443.11.57a.568.568 0 0 0 .289.25c.119.041.244.061.376.061.099 0 .18-.005.243-.015l.152-.03.183.805a1.714 1.714 0 0 1-.255.068 1.835 1.835 0 0 1-.414.038c-.253 0-.502-.054-.745-.163a1.486 1.486 0 0 1-.6-.498c-.157-.223-.236-.504-.236-.843v-5.805Zm3.492 7.233v-5.835h.897v5.835h-.897Zm.456-6.808a.634.634 0 0 1-.452-.178.574.574 0 0 1-.186-.43c0-.167.062-.31.186-.429a.636.636 0 0 1 .452-.178c.175 0 .324.06.448.178.127.12.19.262.19.43 0 .167-.063.31-.19.429a.622.622 0 0 1-.448.178Zm4.453 6.93c-.526 0-.989-.125-1.386-.376a2.563 2.563 0 0 1-.927-1.052c-.221-.451-.331-.978-.331-1.581 0-.608.11-1.138.331-1.592.223-.453.532-.805.927-1.056.397-.251.86-.376 1.386-.376.527 0 .988.125 1.383.376.398.251.707.603.927 1.056.223.454.335.984.335 1.592 0 .603-.112 1.13-.335 1.581-.22.45-.529.801-.927 1.052-.395.251-.856.376-1.383.376Zm0-.805c.401 0 .73-.103.988-.308a1.81 1.81 0 0 0 .574-.809c.124-.335.186-.697.186-1.087s-.062-.753-.186-1.09a1.834 1.834 0 0 0-.574-.817c-.258-.208-.587-.312-.988-.312-.4 0-.729.104-.987.312-.259.208-.45.48-.574.817a3.13 3.13 0 0 0-.186 1.09c0 .39.062.752.186 1.087.124.334.315.604.574.809.258.205.587.308.987.308Zm4.91-2.827v3.51h-.897v-5.835h.867v.912h.076c.136-.297.344-.535.623-.715.278-.182.638-.273 1.079-.273.395 0 .74.081 1.037.243.296.16.527.403.691.729.165.325.247.735.247 1.231v3.708h-.896v-3.647c0-.458-.12-.815-.358-1.071-.238-.259-.564-.388-.98-.388-.286 0-.542.062-.767.186a1.338 1.338 0 0 0-.528.544c-.129.238-.194.527-.194.866Zm9.495-1.018-.805.228a1.517 1.517 0 0 0-.225-.392 1.084 1.084 0 0 0-.395-.319c-.167-.083-.381-.125-.642-.125-.357 0-.654.082-.893.247-.235.162-.353.368-.353.619 0 .223.081.399.243.528.162.129.416.237.76.323l.866.213c.522.127.911.32 1.167.581.256.259.383.592.383.999 0 .335-.096.634-.288.897-.19.263-.456.471-.798.623-.342.152-.74.228-1.193.228-.595 0-1.088-.129-1.478-.388-.39-.258-.637-.635-.741-1.132l.851-.212c.081.314.234.549.46.706.228.157.525.236.893.236.418 0 .749-.089.995-.266.248-.18.372-.395.372-.646a.677.677 0 0 0-.212-.509c-.142-.139-.36-.243-.654-.312l-.972-.228c-.535-.126-.927-.323-1.178-.588-.248-.269-.372-.605-.372-1.007 0-.33.092-.621.277-.874.187-.253.442-.452.764-.597a2.684 2.684 0 0 1 1.101-.216c.578 0 1.031.127 1.36.38.332.253.568.587.707 1.003Zm4.799.775v.836h-3.404v-.836h3.404Zm4.116-2.082v.76h-3.024v-.76h3.024Zm-2.143-1.398h.897v5.562c0 .253.036.443.11.57a.568.568 0 0 0 .289.25c.119.041.244.061.376.061.099 0 .18-.005.243-.015l.152-.03.182.805a1.695 1.695 0 0 1-.254.068 1.835 1.835 0 0 1-.414.038c-.254 0-.502-.054-.745-.163a1.473 1.473 0 0 1-.6-.498c-.157-.223-.236-.504-.236-.843v-5.805Zm5.209 7.37a2.36 2.36 0 0 1-1.007-.209 1.728 1.728 0 0 1-.718-.611c-.177-.269-.266-.593-.266-.973 0-.334.066-.605.198-.813.131-.21.307-.375.528-.494a2.76 2.76 0 0 1 .729-.266c.269-.061.538-.109.809-.144.355-.046.642-.08.863-.103.223-.025.385-.067.486-.125.104-.058.156-.16.156-.304v-.031c0-.374-.103-.666-.308-.873-.203-.208-.51-.312-.923-.312-.428 0-.764.094-1.007.281-.243.188-.414.388-.513.601l-.851-.304c.152-.355.355-.631.608-.829.256-.2.534-.339.836-.418.304-.081.603-.121.897-.121.187 0 .402.023.645.068.246.043.483.133.711.27.23.137.422.343.573.619.152.276.228.646.228 1.11v3.844h-.896v-.79h-.046a1.586 1.586 0 0 1-.304.407 1.75 1.75 0 0 1-.566.368c-.235.102-.523.152-.862.152Zm.137-.805c.354 0 .653-.07.896-.209.246-.139.431-.319.555-.54.127-.22.19-.452.19-.695v-.821c-.038.046-.122.088-.251.126a4.368 4.368 0 0 1-.441.095 19.877 19.877 0 0 1-.858.114c-.233.03-.451.08-.654.148-.2.066-.362.166-.486.3-.122.132-.182.312-.182.54 0 .311.115.547.345.706.233.157.528.236.886.236Zm4.296.668v-7.78h.896v2.872h.076c.066-.101.157-.231.274-.388a1.6 1.6 0 0 1 .509-.425c.223-.127.524-.19.904-.19.491 0 .924.123 1.299.368.375.246.668.594.878 1.045.21.451.315.983.315 1.596 0 .618-.105 1.154-.315 1.607-.21.451-.502.8-.874 1.048a2.283 2.283 0 0 1-1.288.369c-.375 0-.675-.062-.9-.186a1.682 1.682 0 0 1-.521-.429 6.34 6.34 0 0 1-.281-.403h-.106v.896h-.866Zm.881-2.917c0 .44.065.829.194 1.166.129.334.318.596.566.786.248.188.552.282.912.282.374 0 .687-.099.938-.297.253-.2.443-.468.57-.805.129-.34.194-.717.194-1.132 0-.411-.064-.78-.19-1.11a1.71 1.71 0 0 0-.566-.786c-.251-.195-.566-.293-.946-.293-.365 0-.672.093-.92.278a1.666 1.666 0 0 0-.562.767c-.127.327-.19.708-.19 1.144Zm6.538-4.863v7.78h-.896v-7.78h.896Zm4.089 7.902c-.562 0-1.047-.124-1.455-.372a2.502 2.502 0 0 1-.938-1.049c-.218-.451-.327-.975-.327-1.573 0-.597.109-1.124.327-1.58.22-.459.527-.816.919-1.072.395-.258.856-.387 1.383-.387.304 0 .604.051.9.152.297.101.567.266.81.494.243.225.437.524.581.896.144.373.217.831.217 1.376v.38h-4.499v-.775h3.587c0-.33-.066-.624-.198-.882a1.492 1.492 0 0 0-1.398-.836c-.357 0-.666.089-.927.266a1.752 1.752 0 0 0-.596.684 2 2 0 0 0-.209.904v.517c0 .441.076.814.228 1.121.154.304.368.535.642.695.273.157.591.236.953.236.236 0 .449-.033.638-.099.193-.069.359-.17.498-.304.139-.137.247-.307.323-.509l.866.243a1.92 1.92 0 0 1-.459.775c-.216.22-.482.393-.798.517a2.976 2.976 0 0 1-1.068.182Z" fill="#F8FCFF"/><path d="M516.204 82.914v41.011h1.783v-41.01h-1.783Z" fill="#2F363D" mask="url(#n)"/></g><path d="M909.375 123.034H0v1.783h909.375v-1.783Z" fill="#2F363D" mask="url(#path-36-inside-7_31_736)"/><g clip-path="url(#o)"><mask id="p" fill="#fff"><path d="M0 123.925h35.662v41.011H0v-41.011Z"/></mask><path d="M0 123.925h35.662v41.011H0v-41.011Z" fill="#171D26"/><rect x="11.367" y="137.967" width="12.927" height="12.927" rx="2.006" stroke="#363A43" stroke-width="1.337"/><path d="M34.77 123.925v41.011h1.783v-41.011H34.77Z" fill="#2F363D" mask="url(#p)"/><mask id="q" fill="#fff"><path d="M35.662 123.925h124.816v41.011H35.662v-41.011Z"/></mask><path d="M35.662 123.925h124.816v41.011H35.662v-41.011Z" fill="#171D26"/><path d="M43.6 147.93v-.684l2.569-2.811c.301-.329.55-.616.744-.859.195-.245.34-.476.433-.691.097-.218.145-.446.145-.684a1.26 1.26 0 0 0-.73-1.174 1.723 1.723 0 0 0-.76-.163c-.298 0-.56.062-.782.186-.22.121-.392.292-.513.513-.12.22-.179.478-.179.775h-.896c0-.456.105-.856.315-1.201a2.19 2.19 0 0 1 .859-.805 2.582 2.582 0 0 1 1.227-.289c.456 0 .86.096 1.212.289.352.192.628.452.828.779.2.326.3.69.3 1.09 0 .286-.052.566-.156.84-.1.271-.278.573-.532.908-.25.331-.598.737-1.044 1.215l-1.748 1.87v.06h3.617v.836H43.6Z" fill="#F8FCFF"/><path d="M159.587 123.925v41.011h1.783v-41.011h-1.783Z" fill="#2F363D" mask="url(#q)"/><mask id="r" fill="#fff"><path d="M160.478 123.925h178.308v41.011H160.478v-41.011Z"/></mask><path d="M160.478 123.925h178.308v41.011H160.478v-41.011Z" fill="#171D26"/><path d="M172.109 145.544v-3.449h.896v5.835h-.896v-.988h-.061c-.137.297-.35.549-.638.756-.289.206-.654.308-1.095.308-.364 0-.689-.08-.972-.239a1.67 1.67 0 0 1-.669-.73c-.162-.326-.243-.738-.243-1.234v-3.708h.897v3.647c0 .425.119.765.357 1.018.24.253.547.38.919.38.223 0 .45-.057.68-.171.233-.114.428-.289.585-.524.16-.236.24-.536.24-.901Zm6.672-2.142-.805.227a1.511 1.511 0 0 0-.225-.391 1.093 1.093 0 0 0-.395-.319c-.167-.084-.381-.125-.642-.125-.357 0-.655.082-.893.247-.235.162-.353.368-.353.619 0 .223.081.399.243.528.162.129.416.237.76.323l.866.213c.522.126.911.32 1.167.581.255.258.383.591.383.999 0 .334-.096.633-.288.897-.19.263-.456.471-.798.623-.342.152-.74.228-1.193.228-.595 0-1.088-.129-1.478-.388-.39-.258-.637-.635-.741-1.132l.851-.213c.081.314.234.55.46.707.228.157.525.236.893.236.418 0 .749-.089.995-.266.248-.18.372-.396.372-.646a.68.68 0 0 0-.212-.509c-.142-.14-.36-.244-.654-.312l-.973-.228c-.534-.127-.927-.323-1.177-.589-.248-.268-.373-.604-.373-1.007 0-.329.093-.62.278-.873.187-.254.442-.452.763-.597a2.692 2.692 0 0 1 1.102-.216c.578 0 1.031.126 1.36.38.332.253.568.587.707 1.003Zm3.903 4.65c-.563 0-1.048-.124-1.455-.373-.406-.25-.718-.6-.939-1.048-.218-.451-.327-.975-.327-1.573s.109-1.125.327-1.58a2.58 2.58 0 0 1 .92-1.072c.395-.258.856-.387 1.382-.387.304 0 .605.05.901.152.296.101.566.266.809.493.243.226.437.525.581.897.145.372.217.831.217 1.375v.38h-4.498v-.775h3.586a1.92 1.92 0 0 0-.197-.881 1.499 1.499 0 0 0-.555-.612 1.557 1.557 0 0 0-.844-.224c-.357 0-.666.089-.927.266a1.752 1.752 0 0 0-.596.684 2.01 2.01 0 0 0-.209.904v.517c0 .44.076.814.228 1.121.154.303.369.535.642.695.274.157.591.235.954.235.235 0 .448-.033.638-.098a1.39 1.39 0 0 0 .498-.304c.139-.137.247-.307.323-.509l.866.243a1.928 1.928 0 0 1-.46.775c-.215.22-.481.392-.798.516a2.945 2.945 0 0 1-1.067.183Zm3.78-.122v-5.835h.866v.881h.061c.106-.289.299-.523.577-.703.279-.18.593-.27.943-.27.065 0 .148.002.246.004.099.003.174.007.225.012v.911a2.982 2.982 0 0 0-.209-.034 2.146 2.146 0 0 0-.338-.026c-.284 0-.537.059-.76.178a1.353 1.353 0 0 0-.525.487c-.126.205-.19.439-.19.702v3.693h-.896Z" fill="#F8FCFF"/><path d="M337.895 123.925v41.011h1.783v-41.011h-1.783Z" fill="#2F363D" mask="url(#r)"/><mask id="s" fill="#fff"><path d="M338.787 123.925h178.309v41.011H338.787v-41.011Z"/></mask><path d="M338.787 123.925h178.309v41.011H338.787v-41.011Z" fill="#171D26"/><path d="M349.111 148.052c-.547 0-1.018-.129-1.413-.388a2.527 2.527 0 0 1-.912-1.067c-.213-.454-.319-.972-.319-1.554 0-.593.109-1.116.327-1.569.22-.456.527-.812.919-1.068.395-.258.856-.387 1.383-.387.41 0 .78.076 1.109.228.33.152.599.364.81.638.21.273.34.593.391.957h-.897a1.383 1.383 0 0 0-.456-.706c-.233-.208-.547-.312-.942-.312a1.57 1.57 0 0 0-.919.274 1.777 1.777 0 0 0-.612.763c-.144.327-.216.711-.216 1.151 0 .451.071.844.212 1.178.145.334.347.594.608.779.264.185.573.277.927.277.233 0 .445-.04.635-.121a1.301 1.301 0 0 0 .763-.897h.897a2.08 2.08 0 0 1-.376.931c-.198.273-.46.491-.787.653-.324.16-.701.24-1.132.24Zm3.606-.122v-5.835h.866v.881h.061c.106-.289.299-.523.577-.703a1.7 1.7 0 0 1 .942-.27c.066 0 .149.002.247.004.099.003.174.007.224.012v.911c-.03-.007-.1-.019-.208-.034a2.159 2.159 0 0 0-.339-.026c-.283 0-.537.059-.759.178a1.346 1.346 0 0 0-.525.487c-.126.205-.19.439-.19.702v3.693h-.896Zm6.249.122c-.562 0-1.047-.124-1.455-.373-.405-.25-.718-.6-.938-1.048-.218-.451-.327-.975-.327-1.573s.109-1.125.327-1.58c.22-.459.527-.816.919-1.072.395-.258.856-.387 1.383-.387.304 0 .604.05.901.152.296.101.566.266.809.493.243.226.437.525.581.897.144.372.217.831.217 1.375v.38h-4.499v-.775h3.587c0-.329-.066-.623-.198-.881a1.497 1.497 0 0 0-.554-.612 1.56 1.56 0 0 0-.844-.224c-.357 0-.666.089-.927.266a1.752 1.752 0 0 0-.596.684c-.14.281-.209.582-.209.904v.517c0 .44.076.814.228 1.121.154.303.368.535.642.695.273.157.591.235.953.235.236 0 .449-.033.639-.098.192-.069.358-.17.497-.304.14-.137.247-.307.323-.509l.866.243a1.926 1.926 0 0 1-.459.775c-.216.22-.481.392-.798.516a2.954 2.954 0 0 1-1.068.183Zm5.498.015c-.37 0-.706-.07-1.007-.209a1.73 1.73 0 0 1-.718-.612c-.177-.268-.266-.592-.266-.972 0-.335.066-.606.198-.813.131-.211.307-.375.528-.494a2.76 2.76 0 0 1 .729-.266c.269-.061.538-.109.809-.145.355-.045.642-.079.863-.102.223-.025.385-.067.486-.125.104-.059.156-.16.156-.304v-.031c0-.375-.103-.666-.308-.874-.203-.207-.51-.311-.923-.311-.428 0-.764.094-1.007.281-.243.187-.414.388-.513.6l-.851-.304c.152-.354.355-.63.608-.828.256-.2.534-.339.836-.418.304-.081.603-.121.896-.121.188 0 .403.022.646.068.246.043.483.133.711.27.23.137.422.343.573.619.152.276.228.646.228 1.109v3.845h-.896v-.79h-.046a1.566 1.566 0 0 1-.304.406c-.142.145-.33.268-.566.369a2.184 2.184 0 0 1-.862.152Zm.137-.805c.354 0 .653-.07.896-.209a1.429 1.429 0 0 0 .745-1.235v-.821c-.038.046-.122.088-.251.126a4.368 4.368 0 0 1-.441.095 19.877 19.877 0 0 1-.858.114c-.233.03-.451.079-.654.148-.2.066-.362.166-.486.3-.122.132-.182.311-.182.539 0 .312.115.547.345.707.233.157.528.236.886.236Zm6.712-5.167v.759h-3.024v-.759h3.024Zm-2.143-1.398h.897v5.562c0 .253.036.443.11.569a.566.566 0 0 0 .289.251c.119.041.244.061.376.061.098 0 .18-.005.243-.015l.152-.031.182.806a1.827 1.827 0 0 1-.254.068 1.895 1.895 0 0 1-.414.038c-.254 0-.502-.054-.745-.163a1.473 1.473 0 0 1-.6-.498c-.157-.223-.236-.504-.236-.843v-5.805Zm5.875 7.355c-.562 0-1.047-.124-1.455-.373-.405-.25-.718-.6-.938-1.048-.218-.451-.327-.975-.327-1.573s.109-1.125.327-1.58c.22-.459.527-.816.919-1.072.396-.258.856-.387 1.383-.387.304 0 .604.05.901.152.296.101.566.266.809.493.243.226.437.525.581.897.145.372.217.831.217 1.375v.38h-4.498v-.775h3.586c0-.329-.066-.623-.198-.881a1.497 1.497 0 0 0-.554-.612 1.557 1.557 0 0 0-.844-.224c-.357 0-.666.089-.927.266a1.752 1.752 0 0 0-.596.684 2.01 2.01 0 0 0-.209.904v.517c0 .44.076.814.228 1.121.154.303.368.535.642.695.273.157.591.235.953.235.236 0 .449-.033.639-.098.192-.069.358-.17.497-.304.14-.137.247-.307.323-.509l.867.243a1.94 1.94 0 0 1-.46.775c-.215.22-.481.392-.798.516a2.95 2.95 0 0 1-1.068.183Zm7.124-3.875v.835h-3.404v-.835h3.404Zm1.578 3.753v-5.835h.896v5.835h-.896Zm.456-6.808a.64.64 0 0 1-.453-.179.573.573 0 0 1-.186-.429c0-.167.062-.31.186-.429a.64.64 0 0 1 .453-.179c.174 0 .324.06.448.179a.57.57 0 0 1 .19.429.57.57 0 0 1-.19.429.625.625 0 0 1-.448.179Zm2.979 3.298v3.51h-.897v-5.835h.867v.911h.076c.136-.296.344-.534.623-.714.278-.182.638-.273 1.079-.273.395 0 .74.081 1.037.243.296.159.527.402.691.729.165.324.247.735.247 1.231v3.708h-.896v-3.647c0-.458-.119-.816-.358-1.071-.238-.259-.564-.388-.98-.388-.286 0-.542.062-.767.186a1.326 1.326 0 0 0-.528.544c-.129.238-.194.526-.194.866Zm5.362 3.51v-5.835h.896v5.835h-.896Zm.456-6.808a.64.64 0 0 1-.453-.179.573.573 0 0 1-.186-.429c0-.167.062-.31.186-.429a.64.64 0 0 1 .453-.179c.174 0 .324.06.448.179a.57.57 0 0 1 .19.429.57.57 0 0 1-.19.429.625.625 0 0 1-.448.179Zm4.62.973v.759h-3.024v-.759h3.024Zm-2.142-1.398h.896v5.562c0 .253.037.443.11.569a.57.57 0 0 0 .289.251c.119.041.244.061.376.061.099 0 .18-.005.243-.015l.152-.031.183.806a1.847 1.847 0 0 1-.255.068 1.895 1.895 0 0 1-.414.038c-.253 0-.501-.054-.745-.163a1.486 1.486 0 0 1-.6-.498c-.157-.223-.235-.504-.235-.843v-5.805Zm3.491 7.233v-5.835h.897v5.835h-.897Zm.456-6.808a.636.636 0 0 1-.452-.179.573.573 0 0 1-.186-.429c0-.167.062-.31.186-.429a.636.636 0 0 1 .452-.179c.175 0 .324.06.448.179.127.119.19.262.19.429 0 .167-.063.31-.19.429a.624.624 0 0 1-.448.179Zm3.8 6.945c-.37 0-.705-.07-1.007-.209a1.736 1.736 0 0 1-.718-.612c-.177-.268-.266-.592-.266-.972 0-.335.066-.606.198-.813.132-.211.308-.375.528-.494a2.76 2.76 0 0 1 .729-.266c.269-.061.539-.109.81-.145.354-.045.642-.079.862-.102.223-.025.385-.067.486-.125.104-.059.156-.16.156-.304v-.031c0-.375-.102-.666-.308-.874-.202-.207-.51-.311-.923-.311-.428 0-.763.094-1.007.281-.243.187-.414.388-.513.6l-.851-.304c.152-.354.355-.63.608-.828.256-.2.535-.339.836-.418.304-.081.603-.121.897-.121.187 0 .402.022.646.068.245.043.482.133.71.27.231.137.422.343.574.619.152.276.228.646.228 1.109v3.845h-.897v-.79h-.046a1.56 1.56 0 0 1-.303.406 1.74 1.74 0 0 1-.567.369 2.184 2.184 0 0 1-.862.152Zm.137-.805c.354 0 .653-.07.896-.209a1.429 1.429 0 0 0 .745-1.235v-.821c-.038.046-.121.088-.251.126a4.344 4.344 0 0 1-.44.095 20.671 20.671 0 0 1-.859.114c-.233.03-.451.079-.653.148a1.126 1.126 0 0 0-.487.3c-.121.132-.182.311-.182.539 0 .312.115.547.346.707.233.157.528.236.885.236Zm5.071-7.113v7.781h-.897v-7.781h.897Zm4.985 4.028v.835h-3.404v-.835h3.404Zm4.116-2.082v.759h-3.024v-.759h3.024Zm-2.143-1.398h.897v5.562c0 .253.036.443.11.569a.566.566 0 0 0 .289.251c.119.041.244.061.376.061.098 0 .18-.005.243-.015l.152-.031.182.806a1.827 1.827 0 0 1-.254.068 1.898 1.898 0 0 1-.415.038 1.8 1.8 0 0 1-.744-.163 1.473 1.473 0 0 1-.6-.498c-.157-.223-.236-.504-.236-.843v-5.805Zm5.209 7.37c-.37 0-.706-.07-1.007-.209a1.73 1.73 0 0 1-.718-.612c-.177-.268-.266-.592-.266-.972 0-.335.066-.606.198-.813.131-.211.307-.375.528-.494a2.76 2.76 0 0 1 .729-.266c.269-.061.538-.109.809-.145.355-.045.642-.079.863-.102.223-.025.385-.067.486-.125.104-.059.156-.16.156-.304v-.031c0-.375-.103-.666-.308-.874-.203-.207-.51-.311-.923-.311-.428 0-.764.094-1.007.281-.243.187-.414.388-.513.6l-.851-.304c.152-.354.355-.63.608-.828.256-.2.534-.339.836-.418.304-.081.603-.121.896-.121.188 0 .403.022.646.068.246.043.483.133.711.27.23.137.421.343.573.619.152.276.228.646.228 1.109v3.845h-.896v-.79h-.046a1.566 1.566 0 0 1-.304.406c-.142.145-.33.268-.566.369a2.184 2.184 0 0 1-.862.152Zm.136-.805c.355 0 .654-.07.897-.209a1.429 1.429 0 0 0 .745-1.235v-.821c-.038.046-.122.088-.251.126a4.429 4.429 0 0 1-.441.095 19.877 19.877 0 0 1-.858.114c-.233.03-.451.079-.654.148-.2.066-.362.166-.486.3-.122.132-.182.311-.182.539 0 .312.115.547.345.707.233.157.528.236.885.236Zm4.296.668v-7.781h.897v2.873h.076a7.47 7.47 0 0 1 .274-.388 1.6 1.6 0 0 1 .509-.425c.223-.127.524-.19.904-.19.491 0 .924.122 1.299.368.375.246.668.594.878 1.045.21.451.315.983.315 1.596 0 .618-.105 1.153-.315 1.607-.21.45-.502.8-.874 1.048a2.283 2.283 0 0 1-1.288.369c-.375 0-.675-.062-.9-.186a1.67 1.67 0 0 1-.521-.43 6.086 6.086 0 0 1-.281-.402h-.106v.896h-.867Zm.882-2.918c0 .441.064.83.194 1.167.129.334.317.596.566.786.248.188.552.281.911.281.375 0 .688-.098.939-.296.253-.2.443-.469.57-.805a3.17 3.17 0 0 0 .194-1.133c0-.41-.064-.78-.19-1.109a1.712 1.712 0 0 0-.567-.786c-.25-.195-.566-.293-.946-.293-.364 0-.671.093-.919.277a1.667 1.667 0 0 0-.562.768c-.127.327-.19.708-.19 1.143Zm6.538-4.863v7.781h-.896v-7.781h.896Zm4.089 7.903c-.562 0-1.047-.124-1.455-.373-.405-.25-.718-.6-.938-1.048-.218-.451-.327-.975-.327-1.573s.109-1.125.327-1.58a2.57 2.57 0 0 1 .919-1.072c.395-.258.856-.387 1.383-.387.304 0 .604.05.9.152.297.101.566.266.81.493.243.226.437.525.581.897.144.372.216.831.216 1.375v.38h-4.498v-.775h3.587c0-.329-.066-.623-.198-.881a1.492 1.492 0 0 0-1.398-.836c-.357 0-.666.089-.927.266a1.762 1.762 0 0 0-.597.684 2.01 2.01 0 0 0-.208.904v.517c0 .44.076.814.227 1.121.155.303.369.535.643.695.273.157.591.235.953.235.236 0 .448-.033.638-.098.193-.069.359-.17.498-.304.139-.137.247-.307.323-.509l.866.243a1.926 1.926 0 0 1-.459.775c-.216.22-.482.392-.798.516a2.954 2.954 0 0 1-1.068.183Zm7.914-4.65-.806.227a1.479 1.479 0 0 0-.224-.391 1.093 1.093 0 0 0-.395-.319c-.167-.084-.381-.125-.642-.125-.357 0-.655.082-.893.247-.235.162-.353.368-.353.619 0 .223.081.399.243.528.162.129.415.237.76.323l.866.213c.522.126.911.32 1.167.581.255.258.383.591.383.999 0 .334-.096.633-.288.897-.19.263-.456.471-.798.623-.342.152-.74.228-1.193.228-.595 0-1.088-.129-1.478-.388-.39-.258-.637-.635-.741-1.132l.851-.213c.081.314.234.55.46.707.228.157.525.236.893.236.417 0 .749-.089.995-.266.248-.18.372-.396.372-.646a.676.676 0 0 0-.213-.509c-.141-.14-.359-.244-.653-.312l-.973-.228c-.534-.127-.927-.323-1.177-.589-.249-.268-.373-.604-.373-1.007 0-.329.093-.62.278-.873.187-.254.442-.452.763-.597a2.692 2.692 0 0 1 1.102-.216c.578 0 1.031.126 1.36.38.332.253.568.587.707 1.003Z" fill="#F8FCFF"/><path d="M516.204 123.925v41.011h1.783v-41.011h-1.783Z" fill="#2F363D" mask="url(#s)"/></g><path d="M909.375 164.044H0v1.783h909.375v-1.783Z" fill="#2F363D" mask="url(#path-50-inside-12_31_736)"/><g clip-path="url(#t)"><mask id="u" fill="#fff"><path d="M0 164.936h35.662v41.011H0v-41.011Z"/></mask><path d="M0 164.936h35.662v41.011H0v-41.011Z" fill="#171D26"/><rect x="11.367" y="178.978" width="12.927" height="12.927" rx="2.006" stroke="#363A43" stroke-width="1.337"/><path d="M34.77 164.936v41.011h1.783v-41.011H34.77Z" fill="#2F363D" mask="url(#u)"/><mask id="v" fill="#fff"><path d="M35.662 164.936h124.816v41.011H35.662v-41.011Z"/></mask><path d="M35.662 164.936h124.816v41.011H35.662v-41.011Z" fill="#171D26"/><path d="M46.23 189.048c-.502 0-.95-.086-1.342-.259a2.29 2.29 0 0 1-.93-.718 1.928 1.928 0 0 1-.373-1.075h.958c.02.251.106.468.258.65.152.18.35.319.596.418.246.099.518.148.817.148.334 0 .63-.058.89-.175.258-.116.46-.278.607-.486.147-.208.22-.448.22-.722 0-.286-.07-.538-.212-.756a1.411 1.411 0 0 0-.623-.517c-.274-.124-.608-.186-1.003-.186h-.623v-.836h.623c.309 0 .58-.055.813-.167a1.264 1.264 0 0 0 .752-1.185c0-.264-.058-.493-.175-.688a1.196 1.196 0 0 0-.494-.456 1.597 1.597 0 0 0-.744-.163c-.269 0-.522.049-.76.148a1.412 1.412 0 0 0-.578.422c-.15.182-.23.402-.243.661h-.912c.015-.408.138-.765.369-1.072.23-.309.532-.549.904-.721a2.911 2.911 0 0 1 1.235-.259c.481 0 .894.098 1.238.293.345.192.61.447.794.763.185.317.278.659.278 1.026 0 .438-.115.812-.346 1.121a1.752 1.752 0 0 1-.93.642v.061c.49.081.874.29 1.15.627.276.334.414.748.414 1.242 0 .423-.115.803-.345 1.14-.228.334-.54.598-.935.79a3.034 3.034 0 0 1-1.349.289Z" fill="#F8FCFF"/><path d="M159.587 164.936v41.011h1.783v-41.011h-1.783Z" fill="#2F363D" mask="url(#v)"/><mask id="w" fill="#fff"><path d="M160.478 164.936h178.308v41.011H160.478v-41.011Z"/></mask><path d="M160.478 164.936h178.308v41.011H160.478v-41.011Z" fill="#171D26"/><path d="M172.109 186.556v-3.45h.896v5.835h-.896v-.987h-.061c-.137.296-.35.548-.638.756-.289.205-.654.307-1.095.307-.364 0-.689-.079-.972-.239a1.673 1.673 0 0 1-.669-.729c-.162-.327-.243-.739-.243-1.235v-3.708h.897v3.647c0 .426.119.765.357 1.018.24.254.547.38.919.38.223 0 .45-.057.68-.171.233-.114.428-.289.585-.524.16-.236.24-.536.24-.9Zm6.672-2.143-.805.228a1.5 1.5 0 0 0-.225-.392 1.093 1.093 0 0 0-.395-.319c-.167-.083-.381-.125-.642-.125-.357 0-.655.082-.893.247-.235.162-.353.368-.353.619 0 .223.081.399.243.528.162.129.416.237.76.323l.866.213c.522.127.911.32 1.167.581.255.259.383.592.383.999 0 .335-.096.634-.288.897-.19.263-.456.471-.798.623-.342.152-.74.228-1.193.228-.595 0-1.088-.129-1.478-.388-.39-.258-.637-.635-.741-1.132l.851-.212c.081.314.234.549.46.706.228.157.525.236.893.236.418 0 .749-.089.995-.266.248-.18.372-.395.372-.646a.68.68 0 0 0-.212-.509c-.142-.139-.36-.243-.654-.312l-.973-.228c-.534-.126-.927-.323-1.177-.589-.248-.268-.373-.604-.373-1.006 0-.33.093-.621.278-.874.187-.253.442-.452.763-.597a2.692 2.692 0 0 1 1.102-.216c.578 0 1.031.127 1.36.38.332.253.568.587.707 1.003Zm3.903 4.65c-.563 0-1.048-.124-1.455-.372a2.504 2.504 0 0 1-.939-1.049c-.218-.451-.327-.975-.327-1.573s.109-1.124.327-1.58a2.58 2.58 0 0 1 .92-1.072c.395-.258.856-.387 1.382-.387.304 0 .605.051.901.152.296.101.566.266.809.494.243.225.437.524.581.896.145.373.217.831.217 1.376v.38h-4.498v-.775h3.586c0-.33-.066-.624-.197-.882a1.499 1.499 0 0 0-.555-.612 1.557 1.557 0 0 0-.844-.224c-.357 0-.666.089-.927.266a1.752 1.752 0 0 0-.596.684 2.014 2.014 0 0 0-.209.904v.517c0 .441.076.814.228 1.121.154.304.369.535.642.695.274.157.591.236.954.236.235 0 .448-.033.638-.099a1.39 1.39 0 0 0 .498-.304c.139-.137.247-.307.323-.509l.866.243a1.922 1.922 0 0 1-.46.775 2.24 2.24 0 0 1-.798.517 2.966 2.966 0 0 1-1.067.182Zm3.78-.122v-5.835h.866v.881h.061c.106-.288.299-.523.577-.703.279-.179.593-.269.943-.269l.246.003c.099.003.174.007.225.012v.912a2.77 2.77 0 0 0-.209-.035 2.146 2.146 0 0 0-.338-.026c-.284 0-.537.059-.76.178a1.353 1.353 0 0 0-.525.487c-.126.205-.19.439-.19.703v3.692h-.896Z" fill="#F8FCFF"/><path d="M337.895 164.936v41.011h1.783v-41.011h-1.783Z" fill="#2F363D" mask="url(#w)"/><mask id="x" fill="#fff"><path d="M338.787 164.936h178.309v41.011H338.787v-41.011Z"/></mask><path d="M338.787 164.936h178.309v41.011H338.787v-41.011Z" fill="#171D26"/><path d="M349.111 189.063c-.547 0-1.018-.129-1.413-.388a2.527 2.527 0 0 1-.912-1.067c-.213-.453-.319-.971-.319-1.554 0-.593.109-1.116.327-1.569.22-.456.527-.812.919-1.068.395-.258.856-.387 1.383-.387.41 0 .78.076 1.109.228.33.152.599.365.81.638a2 2 0 0 1 .391.957h-.897a1.387 1.387 0 0 0-.456-.706c-.233-.208-.547-.312-.942-.312a1.57 1.57 0 0 0-.919.274c-.261.18-.465.434-.612.763-.144.327-.216.711-.216 1.152 0 .45.071.843.212 1.177.145.335.347.594.608.779.264.185.573.278.927.278.233 0 .445-.041.635-.122a1.301 1.301 0 0 0 .763-.897h.897a2.08 2.08 0 0 1-.376.931c-.198.274-.46.492-.787.654a2.54 2.54 0 0 1-1.132.239Zm7.283-2.507v-3.45h.897v5.835h-.897v-.987h-.06a1.92 1.92 0 0 1-.639.756c-.288.205-.653.307-1.094.307-.365 0-.689-.079-.973-.239a1.676 1.676 0 0 1-.668-.729c-.162-.327-.243-.739-.243-1.235v-3.708h.896v3.647c0 .426.119.765.357 1.018.241.254.547.38.92.38.223 0 .449-.057.68-.171.233-.114.428-.289.585-.524.16-.236.239-.536.239-.9Zm6.673-2.143-.806.228a1.468 1.468 0 0 0-.224-.392 1.093 1.093 0 0 0-.395-.319c-.167-.083-.381-.125-.642-.125-.357 0-.655.082-.893.247-.235.162-.353.368-.353.619 0 .223.081.399.243.528.162.129.415.237.76.323l.866.213c.522.127.91.32 1.166.581.256.259.384.592.384.999 0 .335-.096.634-.289.897-.19.263-.456.471-.798.623-.341.152-.739.228-1.193.228-.595 0-1.087-.129-1.477-.388-.39-.258-.637-.635-.741-1.132l.851-.212c.081.314.234.549.459.706.228.157.526.236.893.236.418 0 .75-.089.996-.266.248-.18.372-.395.372-.646a.678.678 0 0 0-.213-.509c-.142-.139-.359-.243-.653-.312l-.973-.228c-.534-.126-.927-.323-1.178-.589-.248-.268-.372-.604-.372-1.006 0-.33.093-.621.277-.874a1.9 1.9 0 0 1 .764-.597 2.689 2.689 0 0 1 1.102-.216c.577 0 1.031.127 1.36.38.332.253.567.587.707 1.003Zm3.994-1.307v.76h-3.025v-.76h3.025Zm-2.143-1.398h.896v5.562c0 .253.037.443.111.57a.57.57 0 0 0 .288.25c.119.041.245.061.376.061.099 0 .18-.005.244-.015l.152-.03.182.805a1.714 1.714 0 0 1-.255.068 1.835 1.835 0 0 1-.414.038 1.8 1.8 0 0 1-.744-.163 1.482 1.482 0 0 1-.601-.498c-.157-.223-.235-.504-.235-.843v-5.805Zm5.799 7.355c-.527 0-.989-.125-1.386-.376a2.545 2.545 0 0 1-.927-1.053c-.221-.45-.331-.977-.331-1.58 0-.608.11-1.138.331-1.592.222-.453.531-.805.927-1.056.397-.251.859-.376 1.386-.376.527 0 .988.125 1.383.376.398.251.707.603.927 1.056.223.454.335.984.335 1.592 0 .603-.112 1.13-.335 1.58-.22.451-.529.802-.927 1.053-.395.251-.856.376-1.383.376Zm0-.805c.4 0 .73-.103.988-.308.258-.205.45-.475.574-.809.124-.335.186-.697.186-1.087s-.062-.753-.186-1.09a1.842 1.842 0 0 0-.574-.817c-.258-.208-.588-.312-.988-.312s-.729.104-.988.312a1.84 1.84 0 0 0-.573.817 3.13 3.13 0 0 0-.186 1.09c0 .39.062.752.186 1.087.124.334.315.604.573.809.259.205.588.308.988.308Zm4.013.683v-5.835h.866v.912h.076c.122-.312.318-.554.589-.726.271-.175.597-.262.977-.262.385 0 .705.087.961.262.258.172.46.414.604.726h.061a1.69 1.69 0 0 1 .672-.718c.299-.18.657-.27 1.075-.27.522 0 .949.163 1.281.49.331.324.497.829.497 1.516v3.905h-.896v-3.905c0-.431-.118-.738-.354-.923a1.305 1.305 0 0 0-.832-.278c-.41 0-.728.124-.953.373-.226.245-.338.557-.338.934v3.799h-.912v-3.996c0-.332-.108-.599-.323-.802-.215-.205-.493-.308-.832-.308-.233 0-.451.062-.654.186-.2.125-.362.297-.486.517-.121.218-.182.47-.182.756v3.647h-.897Zm12.642-3.753v.836h-3.404v-.836h3.404Zm5.255 1.368v-3.45h.897v5.835h-.897v-.987h-.061a1.91 1.91 0 0 1-.638.756c-.289.205-.653.307-1.094.307-.365 0-.689-.079-.973-.239a1.676 1.676 0 0 1-.668-.729c-.162-.327-.243-.739-.243-1.235v-3.708h.896v3.647c0 .426.119.765.357 1.018.241.254.547.38.92.38.223 0 .449-.057.68-.171.233-.114.428-.289.585-.524.159-.236.239-.536.239-.9Zm6.673-2.143-.806.228a1.496 1.496 0 0 0-.224-.392 1.093 1.093 0 0 0-.395-.319c-.167-.083-.381-.125-.642-.125-.357 0-.655.082-.893.247-.236.162-.353.368-.353.619 0 .223.081.399.243.528.162.129.415.237.76.323l.866.213c.522.127.91.32 1.166.581.256.259.384.592.384.999 0 .335-.096.634-.289.897-.19.263-.456.471-.798.623-.342.152-.739.228-1.193.228-.595 0-1.087-.129-1.477-.388-.391-.258-.637-.635-.741-1.132l.851-.212c.081.314.234.549.459.706.228.157.526.236.893.236.418 0 .75-.089.996-.266.248-.18.372-.395.372-.646a.678.678 0 0 0-.213-.509c-.142-.139-.359-.243-.653-.312l-.973-.228c-.534-.126-.927-.323-1.178-.589-.248-.268-.372-.604-.372-1.006 0-.33.092-.621.277-.874a1.9 1.9 0 0 1 .764-.597 2.685 2.685 0 0 1 1.102-.216c.577 0 1.031.127 1.36.38.332.253.567.587.707 1.003Zm3.902 4.65c-.562 0-1.047-.124-1.455-.372a2.502 2.502 0 0 1-.938-1.049c-.218-.451-.327-.975-.327-1.573s.109-1.124.327-1.58c.22-.459.527-.816.919-1.072.395-.258.856-.387 1.383-.387.304 0 .604.051.9.152.297.101.567.266.81.494.243.225.437.524.581.896.144.373.217.831.217 1.376v.38h-4.499v-.775h3.587c0-.33-.066-.624-.198-.882a1.497 1.497 0 0 0-.554-.612 1.562 1.562 0 0 0-.844-.224c-.357 0-.666.089-.927.266a1.752 1.752 0 0 0-.596.684 2 2 0 0 0-.209.904v.517c0 .441.076.814.228 1.121.154.304.368.535.642.695.273.157.591.236.953.236.236 0 .449-.033.639-.099.192-.069.358-.17.497-.304.14-.137.247-.307.323-.509l.866.243a1.92 1.92 0 0 1-.459.775c-.216.22-.482.393-.798.517a2.976 2.976 0 0 1-1.068.182Zm3.78-.122v-5.835h.867v.881h.06c.107-.288.299-.523.578-.703.279-.179.593-.269.942-.269l.247.003c.099.003.174.007.224.012v.912c-.03-.008-.1-.019-.209-.035a2.136 2.136 0 0 0-.338-.026c-.284 0-.537.059-.76.178a1.306 1.306 0 0 0-.714 1.19v3.692h-.897Zm6.896-3.753v.836h-3.404v-.836h3.404Zm4.176-2.082v.76h-3.145v-.76h3.145Zm-2.203 5.835V182.3c0-.334.078-.613.235-.835.157-.223.361-.39.612-.502a1.94 1.94 0 0 1 .794-.167c.22 0 .4.018.539.053.14.036.244.069.312.099l-.258.775a5.378 5.378 0 0 0-.19-.057 1.152 1.152 0 0 0-.312-.034c-.296 0-.51.074-.642.224-.129.149-.194.368-.194.657v6.428h-.896Zm3.46 0v-5.835h.896v5.835h-.896Zm.456-6.808a.635.635 0 0 1-.452-.178.575.575 0 0 1-.187-.43c0-.167.063-.31.187-.429a.635.635 0 0 1 .452-.178c.175 0 .324.059.448.178.127.119.19.262.19.429a.567.567 0 0 1-.19.43.623.623 0 0 1-.448.178Zm4.529 6.93c-.562 0-1.047-.124-1.455-.372a2.502 2.502 0 0 1-.938-1.049c-.218-.451-.327-.975-.327-1.573s.109-1.124.327-1.58c.22-.459.527-.816.919-1.072.395-.258.856-.387 1.383-.387.304 0 .604.051.901.152.296.101.566.266.809.494.243.225.437.524.581.896.144.373.217.831.217 1.376v.38h-4.499v-.775h3.587c0-.33-.066-.624-.198-.882a1.497 1.497 0 0 0-.554-.612 1.56 1.56 0 0 0-.844-.224c-.357 0-.666.089-.927.266a1.752 1.752 0 0 0-.596.684 2 2 0 0 0-.209.904v.517c0 .441.076.814.228 1.121.154.304.368.535.642.695.273.157.591.236.953.236.236 0 .449-.033.639-.099.192-.069.358-.17.497-.304.14-.137.247-.307.323-.509l.866.243a1.92 1.92 0 0 1-.459.775c-.216.22-.481.393-.798.517a2.976 2.976 0 0 1-1.068.182Zm4.677-7.902v7.78h-.896v-7.78h.896Zm3.846 7.902c-.486 0-.916-.123-1.288-.369a2.485 2.485 0 0 1-.874-1.048c-.21-.453-.315-.989-.315-1.607 0-.613.105-1.145.315-1.596.21-.451.503-.799.878-1.045a2.322 2.322 0 0 1 1.299-.368c.38 0 .68.063.9.19.223.124.393.266.51.425.119.157.211.287.277.388h.076v-2.872h.897v7.78h-.867v-.896h-.106a6.34 6.34 0 0 1-.281.403 1.682 1.682 0 0 1-.521.429c-.225.124-.525.186-.9.186Zm.121-.805c.36 0 .664-.094.912-.282.248-.19.437-.452.566-.786.13-.337.194-.726.194-1.166 0-.436-.063-.817-.19-1.144a1.66 1.66 0 0 0-.562-.767c-.248-.185-.555-.278-.92-.278-.379 0-.696.098-.949.293a1.74 1.74 0 0 0-.566.786 3.11 3.11 0 0 0-.187 1.11c0 .415.064.792.19 1.132.13.337.32.605.57.805.254.198.568.297.942.297Zm8.454-3.845-.806.228a1.468 1.468 0 0 0-.224-.392 1.093 1.093 0 0 0-.395-.319c-.167-.083-.381-.125-.642-.125-.357 0-.655.082-.893.247-.235.162-.353.368-.353.619 0 .223.081.399.243.528.162.129.415.237.76.323l.866.213c.522.127.911.32 1.166.581.256.259.384.592.384.999 0 .335-.096.634-.289.897-.19.263-.456.471-.798.623-.341.152-.739.228-1.192.228-.596 0-1.088-.129-1.478-.388-.39-.258-.637-.635-.741-1.132l.851-.212c.081.314.234.549.46.706.227.157.525.236.892.236.418 0 .75-.089.996-.266.248-.18.372-.395.372-.646a.678.678 0 0 0-.213-.509c-.142-.139-.359-.243-.653-.312l-.973-.228c-.534-.126-.927-.323-1.178-.589-.248-.268-.372-.604-.372-1.006 0-.33.093-.621.277-.874a1.9 1.9 0 0 1 .764-.597 2.689 2.689 0 0 1 1.102-.216c.577 0 1.031.127 1.36.38.332.253.567.587.707 1.003Z" fill="#F8FCFF"/><path d="M516.204 164.936v41.011h1.783v-41.011h-1.783Z" fill="#2F363D" mask="url(#x)"/></g><path d="M909.375 205.056H0v1.783h909.375v-1.783Z" fill="#2F363D" mask="url(#path-64-inside-17_31_736)"/><g clip-path="url(#y)"><mask id="z" fill="#fff"><path d="M0 205.947h35.662v41.011H0v-41.011Z"/></mask><path d="M0 205.947h35.662v41.011H0v-41.011Z" fill="#171D26"/><rect x="11.367" y="219.989" width="12.927" height="12.927" rx="2.006" stroke="#363A43" stroke-width="1.337"/><path d="M34.77 205.947v41.011h1.783v-41.011H34.77Z" fill="#2F363D" mask="url(#z)"/><mask id="A" fill="#fff"><path d="M35.662 205.947h124.816v41.011H35.662v-41.011Z"/></mask><path d="M35.662 205.947h124.816v41.011H35.662v-41.011Z" fill="#171D26"/><path d="M43.418 228.356v-.775l3.42-5.41h.562v1.201h-.38l-2.584 4.088v.061h4.605v.835h-5.623Zm3.662 1.596V222.171h.897v7.781h-.897Z" fill="#F8FCFF"/><path d="M159.587 205.947v41.011h1.783v-41.011h-1.783Z" fill="#2F363D" mask="url(#A)"/><mask id="B" fill="#fff"><path d="M160.478 205.947h178.308v41.011H160.478v-41.011Z"/></mask><path d="M160.478 205.947h178.308v41.011H160.478v-41.011Z" fill="#171D26"/><path d="M172.109 227.566v-3.449h.896v5.835h-.896v-.988h-.061c-.137.297-.35.549-.638.756-.289.206-.654.308-1.095.308-.364 0-.689-.08-.972-.239a1.67 1.67 0 0 1-.669-.73c-.162-.326-.243-.738-.243-1.234v-3.708h.897v3.647c0 .425.119.765.357 1.018.24.253.547.38.919.38.223 0 .45-.057.68-.171.233-.114.428-.289.585-.524.16-.236.24-.536.24-.901Zm6.672-2.142-.805.227a1.511 1.511 0 0 0-.225-.391 1.093 1.093 0 0 0-.395-.319c-.167-.084-.381-.125-.642-.125-.357 0-.655.082-.893.247-.235.162-.353.368-.353.619 0 .223.081.399.243.528.162.129.416.237.76.323l.866.213c.522.126.911.32 1.167.581.255.258.383.591.383.999 0 .334-.096.633-.288.897-.19.263-.456.471-.798.623-.342.152-.74.228-1.193.228-.595 0-1.088-.129-1.478-.388-.39-.258-.637-.636-.741-1.132l.851-.213c.081.314.234.55.46.707.228.157.525.235.893.235.418 0 .749-.088.995-.265.248-.18.372-.396.372-.646a.68.68 0 0 0-.212-.509c-.142-.14-.36-.244-.654-.312l-.973-.228c-.534-.127-.927-.323-1.177-.589-.248-.268-.373-.604-.373-1.007 0-.329.093-.62.278-.873.187-.254.442-.452.763-.597a2.692 2.692 0 0 1 1.102-.216c.578 0 1.031.126 1.36.38.332.253.568.587.707 1.003Zm3.903 4.65c-.563 0-1.048-.124-1.455-.373-.406-.25-.718-.6-.939-1.048-.218-.451-.327-.975-.327-1.573s.109-1.125.327-1.581c.221-.458.527-.815.92-1.071.395-.258.856-.387 1.382-.387.304 0 .605.05.901.152.296.101.566.266.809.493.243.226.437.525.581.897.145.372.217.831.217 1.375v.38h-4.498v-.775h3.586a1.92 1.92 0 0 0-.197-.881 1.499 1.499 0 0 0-.555-.612 1.557 1.557 0 0 0-.844-.224c-.357 0-.666.089-.927.266a1.752 1.752 0 0 0-.596.684 2.01 2.01 0 0 0-.209.904v.517c0 .44.076.814.228 1.12.154.304.369.536.642.696.274.157.591.235.954.235.235 0 .448-.033.638-.098a1.39 1.39 0 0 0 .498-.304c.139-.137.247-.307.323-.51l.866.244a1.928 1.928 0 0 1-.46.775c-.215.22-.481.392-.798.516a2.945 2.945 0 0 1-1.067.183Zm3.78-.122v-5.835h.866v.881h.061c.106-.289.299-.523.577-.703.279-.18.593-.27.943-.27.065 0 .148.002.246.004.099.003.174.007.225.012v.911a2.982 2.982 0 0 0-.209-.034 2.033 2.033 0 0 0-.338-.026c-.284 0-.537.059-.76.178a1.358 1.358 0 0 0-.525.486 1.32 1.32 0 0 0-.19.703v3.693h-.896Z" fill="#F8FCFF"/><path d="M337.895 205.947v41.011h1.783v-41.011h-1.783Z" fill="#2F363D" mask="url(#B)"/><mask id="C" fill="#fff"><path d="M338.787 205.947h178.309v41.011H338.787v-41.011Z"/></mask><path d="M338.787 205.947h178.309v41.011H338.787v-41.011Z" fill="#171D26"/><path d="M348.944 230.074c-.486 0-.916-.123-1.288-.369a2.499 2.499 0 0 1-.874-1.048c-.21-.454-.315-.989-.315-1.607 0-.613.105-1.145.315-1.596.211-.451.503-.799.878-1.045a2.314 2.314 0 0 1 1.299-.368c.38 0 .68.063.901.19.223.124.392.266.509.425.119.157.211.286.277.388h.076v-2.873h.897v7.781h-.867v-.896h-.106c-.066.106-.159.24-.281.402a1.67 1.67 0 0 1-.521.43c-.225.124-.525.186-.9.186Zm.122-.806c.359 0 .663-.093.911-.281.249-.19.437-.452.567-.786.129-.337.193-.726.193-1.167 0-.435-.063-.816-.19-1.143a1.667 1.667 0 0 0-.562-.768c-.248-.185-.555-.277-.919-.277-.38 0-.697.098-.95.293a1.74 1.74 0 0 0-.566.786 3.127 3.127 0 0 0-.186 1.109c0 .416.063.793.19 1.133.129.336.319.605.569.805.254.198.568.296.943.296Zm4.319.684v-5.835h.897v5.835h-.897Zm.456-6.808a.638.638 0 0 1-.452-.179.573.573 0 0 1-.186-.429c0-.167.062-.31.186-.429a.638.638 0 0 1 .452-.179c.175 0 .324.06.449.179a.57.57 0 0 1 .19.429.57.57 0 0 1-.19.429.628.628 0 0 1-.449.179Zm6.217 2.28-.806.227a1.479 1.479 0 0 0-.224-.391 1.093 1.093 0 0 0-.395-.319c-.167-.084-.381-.125-.642-.125-.357 0-.655.082-.893.247-.235.162-.353.368-.353.619 0 .223.081.399.243.528.162.129.415.237.76.323l.866.213c.522.126.911.32 1.166.581.256.258.384.591.384.999 0 .334-.096.633-.289.897-.19.263-.456.471-.798.623-.341.152-.739.228-1.192.228-.596 0-1.088-.129-1.478-.388-.39-.258-.637-.636-.741-1.132l.851-.213c.081.314.234.55.46.707.227.157.525.235.892.235.418 0 .75-.088.996-.265.248-.18.372-.396.372-.646a.676.676 0 0 0-.213-.509c-.142-.14-.359-.244-.653-.312l-.973-.228c-.534-.127-.927-.323-1.178-.589-.248-.268-.372-.604-.372-1.007 0-.329.093-.62.278-.873a1.88 1.88 0 0 1 .763-.597 2.689 2.689 0 0 1 1.102-.216c.577 0 1.031.126 1.36.38.332.253.567.587.707 1.003Zm3.826 4.65c-.547 0-1.018-.129-1.413-.388a2.527 2.527 0 0 1-.912-1.067c-.212-.454-.319-.972-.319-1.554 0-.593.109-1.116.327-1.569.22-.456.527-.812.919-1.068.395-.258.856-.387 1.383-.387.411 0 .78.076 1.11.228.329.152.599.364.809.638.21.273.34.592.391.957h-.896a1.395 1.395 0 0 0-.456-.706c-.233-.208-.547-.312-.943-.312a1.57 1.57 0 0 0-.919.274 1.777 1.777 0 0 0-.612.763c-.144.327-.216.711-.216 1.151 0 .451.071.844.213 1.178.144.334.347.594.607.779.264.185.573.277.927.277.233 0 .445-.04.635-.121a1.301 1.301 0 0 0 .764-.897h.896a2.08 2.08 0 0 1-.376.931c-.198.273-.46.491-.786.653-.325.16-.702.24-1.133.24Zm5.977 0c-.527 0-.99-.126-1.387-.376a2.56 2.56 0 0 1-.927-1.053c-.221-.451-.331-.977-.331-1.58 0-.608.11-1.139.331-1.592a2.55 2.55 0 0 1 .927-1.056c.397-.251.86-.376 1.387-.376.526 0 .987.125 1.382.376.398.25.707.603.927 1.056.223.453.335.984.335 1.592 0 .603-.112 1.129-.335 1.58-.22.451-.529.802-.927 1.053-.395.25-.856.376-1.382.376Zm0-.806c.4 0 .729-.102.987-.307.259-.206.45-.475.574-.81.124-.334.186-.696.186-1.086 0-.39-.062-.754-.186-1.091a1.83 1.83 0 0 0-.574-.816c-.258-.208-.587-.312-.987-.312-.401 0-.73.104-.988.312a1.83 1.83 0 0 0-.574.816 3.137 3.137 0 0 0-.186 1.091c0 .39.062.752.186 1.086.124.335.315.604.574.81.258.205.587.307.988.307Zm4.012.684v-5.835h.867v.881h.06c.107-.289.299-.523.578-.703a1.7 1.7 0 0 1 .942-.27c.066 0 .148.002.247.004.099.003.174.007.224.012v.911c-.03-.007-.1-.019-.209-.034a2.024 2.024 0 0 0-.338-.026c-.284 0-.537.059-.76.178a1.311 1.311 0 0 0-.714 1.189v3.693h-.897Zm6.007.122c-.486 0-.916-.123-1.288-.369a2.492 2.492 0 0 1-.874-1.048c-.21-.454-.315-.989-.315-1.607 0-.613.105-1.145.315-1.596.21-.451.503-.799.878-1.045a2.314 2.314 0 0 1 1.299-.368c.38 0 .68.063.901.19.222.124.392.266.509.425.119.157.211.286.277.388h.076v-2.873h.897v7.781h-.867v-.896h-.106c-.066.106-.16.24-.281.402a1.67 1.67 0 0 1-.521.43c-.225.124-.525.186-.9.186Zm.122-.806c.359 0 .663-.093.911-.281.249-.19.437-.452.566-.786a3.23 3.23 0 0 0 .194-1.167c0-.435-.063-.816-.19-1.143a1.667 1.667 0 0 0-.562-.768c-.248-.185-.555-.277-.919-.277-.38 0-.697.098-.95.293a1.74 1.74 0 0 0-.566.786 3.127 3.127 0 0 0-.186 1.109c0 .416.063.793.189 1.133.13.336.32.605.57.805.254.198.568.296.943.296Zm7.663-3.069v.835h-3.405v-.835h3.405Zm4.115-2.082v.759h-3.024v-.759h3.024Zm-2.143-1.399h.897v5.563c0 .253.037.443.11.569a.57.57 0 0 0 .289.251c.119.041.244.061.376.061.099 0 .18-.005.243-.015l.152-.031.182.806c-.06.023-.145.045-.254.068a1.895 1.895 0 0 1-.414.038c-.254 0-.502-.054-.745-.163a1.473 1.473 0 0 1-.6-.498c-.157-.223-.236-.504-.236-.843v-5.806Zm4.814 7.234-1.778-5.835h.942l1.261 4.467h.061l1.246-4.467h.958l1.231 4.452h.06l1.262-4.452h.942l-1.778 5.835h-.882l-1.276-4.483h-.091l-1.277 4.483h-.881Zm7.37 0v-5.835h.897v5.835h-.897Zm.456-6.808a.638.638 0 0 1-.452-.179.573.573 0 0 1-.186-.429c0-.167.062-.31.186-.429a.638.638 0 0 1 .452-.179c.175 0 .324.06.448.179.127.119.19.262.19.429 0 .167-.063.31-.19.429a.624.624 0 0 1-.448.179Zm4.621.973v.759h-3.024v-.759h3.024Zm-2.143-1.399h.897v5.563c0 .253.037.443.11.569a.57.57 0 0 0 .289.251c.119.041.244.061.376.061.099 0 .18-.005.243-.015l.152-.031.182.806c-.06.023-.145.045-.254.068a1.895 1.895 0 0 1-.414.038c-.254 0-.502-.054-.745-.163a1.473 1.473 0 0 1-.6-.498c-.157-.223-.236-.504-.236-.843v-5.806Zm5.8 7.356c-.547 0-1.019-.129-1.414-.388a2.518 2.518 0 0 1-.911-1.067c-.213-.454-.32-.972-.32-1.554 0-.593.109-1.116.327-1.569.221-.456.527-.812.92-1.068.395-.258.856-.387 1.382-.387.411 0 .781.076 1.11.228.329.152.599.364.809.638.21.273.341.592.391.957h-.896a1.395 1.395 0 0 0-.456-.706c-.233-.208-.547-.312-.942-.312-.35 0-.656.091-.92.274a1.768 1.768 0 0 0-.611.763c-.145.327-.217.711-.217 1.151 0 .451.071.844.213 1.178.144.334.347.594.608.779.263.185.572.277.927.277a1.6 1.6 0 0 0 .634-.121c.19-.081.351-.198.483-.35a1.35 1.35 0 0 0 .281-.547h.896a2.068 2.068 0 0 1-1.162 1.584c-.324.16-.702.24-1.132.24Zm4.502-3.632v3.51h-.897v-7.781h.897v2.857h.076c.136-.301.342-.54.615-.718.276-.179.643-.269 1.102-.269.398 0 .746.079 1.045.239.299.157.53.399.695.726.167.324.251.737.251 1.238v3.708h-.897v-3.647c0-.464-.12-.822-.361-1.075-.238-.256-.568-.384-.991-.384-.294 0-.558.062-.791.186-.23.124-.412.305-.547.543-.131.239-.197.527-.197.867Zm8.767-.243v.835h-3.404v-.835h3.404Zm1.578 5.941v-8.023h.866v.927h.107c.065-.102.157-.231.273-.388.119-.159.289-.301.509-.425.223-.127.524-.19.904-.19.492 0 .925.122 1.3.368s.667.594.877 1.045c.211.451.316.983.316 1.596 0 .618-.105 1.153-.316 1.607-.21.45-.501.8-.874 1.048a2.28 2.28 0 0 1-1.287.369c-.375 0-.675-.062-.901-.186a1.665 1.665 0 0 1-.52-.43 5.403 5.403 0 0 1-.281-.402h-.076v3.084h-.897Zm.881-5.106c0 .441.065.83.194 1.167.129.334.318.596.566.786.248.188.552.281.912.281.375 0 .688-.098.938-.296.254-.2.444-.469.57-.805a3.17 3.17 0 0 0 .194-1.133c0-.41-.063-.78-.19-1.109a1.71 1.71 0 0 0-.566-.786c-.251-.195-.566-.293-.946-.293-.365 0-.671.092-.919.277a1.669 1.669 0 0 0-.563.768c-.126.327-.19.708-.19 1.143Zm5.638 2.918v-5.835h.867v.881h.06c.107-.289.299-.523.578-.703.278-.18.592-.27.942-.27.066 0 .148.002.247.004.099.003.173.007.224.012v.911c-.03-.007-.1-.019-.209-.034a2.024 2.024 0 0 0-.338-.026c-.284 0-.537.059-.76.178a1.311 1.311 0 0 0-.714 1.189v3.693h-.897Zm6.174.122c-.527 0-.989-.126-1.387-.376a2.56 2.56 0 0 1-.927-1.053c-.22-.451-.33-.977-.33-1.58 0-.608.11-1.139.33-1.592a2.55 2.55 0 0 1 .927-1.056c.398-.251.86-.376 1.387-.376s.988.125 1.383.376c.398.25.707.603.927 1.056.223.453.334.984.334 1.592 0 .603-.111 1.129-.334 1.58-.22.451-.529.802-.927 1.053-.395.25-.856.376-1.383.376Zm0-.806c.4 0 .729-.102.988-.307.258-.206.449-.475.573-.81.125-.334.187-.696.187-1.086 0-.39-.062-.754-.187-1.091a1.837 1.837 0 0 0-.573-.816c-.259-.208-.588-.312-.988-.312s-.729.104-.988.312c-.258.207-.449.48-.573.816a3.114 3.114 0 0 0-.187 1.091c0 .39.062.752.187 1.086.124.335.315.604.573.81.259.205.588.307.988.307Zm8.576-5.151-2.158 5.835h-.912l-2.158-5.835h.973l1.611 4.65h.06l1.611-4.65h.973Zm1.183 5.835v-5.835h.897v5.835h-.897Zm.456-6.808a.638.638 0 0 1-.452-.179.573.573 0 0 1-.186-.429c0-.167.062-.31.186-.429a.638.638 0 0 1 .452-.179c.175 0 .324.06.448.179.127.119.19.262.19.429 0 .167-.063.31-.19.429a.624.624 0 0 1-.448.179Zm4.287 6.93a2.28 2.28 0 0 1-1.288-.369 2.484 2.484 0 0 1-.874-1.048c-.21-.454-.316-.989-.316-1.607 0-.613.106-1.145.316-1.596.21-.451.503-.799.877-1.045a2.315 2.315 0 0 1 1.3-.368c.38 0 .68.063.9.19.223.124.393.266.509.425.119.157.212.286.278.388h.076v-2.873h.896v7.781h-.866v-.896h-.106c-.066.106-.16.24-.282.402-.121.16-.295.303-.52.43-.225.124-.526.186-.9.186Zm.121-.806c.36 0 .664-.093.912-.281.248-.19.437-.452.566-.786.129-.337.194-.726.194-1.167 0-.435-.064-.816-.19-1.143a1.674 1.674 0 0 0-.562-.768c-.249-.185-.555-.277-.92-.277-.38 0-.696.098-.95.293-.25.192-.439.454-.566.786a3.127 3.127 0 0 0-.186 1.109c0 .416.063.793.19 1.133.129.336.319.605.57.805.253.198.567.296.942.296Zm6.766.806c-.562 0-1.047-.124-1.455-.373-.405-.25-.718-.6-.938-1.048-.218-.451-.327-.975-.327-1.573s.109-1.125.327-1.581c.22-.458.527-.815.919-1.071.396-.258.856-.387 1.383-.387.304 0 .604.05.901.152.296.101.566.266.809.493.243.226.437.525.581.897.145.372.217.831.217 1.375v.38h-4.498v-.775h3.586c0-.329-.066-.623-.198-.881a1.497 1.497 0 0 0-.554-.612 1.56 1.56 0 0 0-.844-.224c-.357 0-.666.089-.927.266a1.752 1.752 0 0 0-.596.684 2.01 2.01 0 0 0-.209.904v.517c0 .44.076.814.228 1.12.154.304.368.536.642.696.273.157.591.235.953.235.236 0 .449-.033.639-.098.192-.069.358-.17.497-.304.14-.137.247-.307.323-.51l.867.244a1.94 1.94 0 0 1-.46.775c-.215.22-.481.392-.798.516a2.95 2.95 0 0 1-1.068.183Zm3.781-.122v-5.835h.866v.881h.061c.106-.289.299-.523.577-.703a1.7 1.7 0 0 1 .942-.27c.066 0 .149.002.247.004.099.003.174.007.224.012v.911c-.03-.007-.1-.019-.209-.034a2.024 2.024 0 0 0-.338-.026c-.283 0-.537.059-.759.178a1.351 1.351 0 0 0-.525.486 1.32 1.32 0 0 0-.19.703v3.693h-.896Zm8.114-4.528-.806.227a1.479 1.479 0 0 0-.224-.391 1.093 1.093 0 0 0-.395-.319c-.167-.084-.381-.125-.642-.125-.357 0-.655.082-.893.247-.235.162-.353.368-.353.619 0 .223.081.399.243.528.162.129.415.237.76.323l.866.213c.522.126.911.32 1.166.581.256.258.384.591.384.999 0 .334-.096.633-.289.897-.19.263-.455.471-.797.623-.342.152-.74.228-1.193.228-.596 0-1.088-.129-1.478-.388-.39-.258-.637-.636-.741-1.132l.851-.213c.081.314.234.55.46.707.228.157.525.235.892.235.418 0 .75-.088.996-.265.248-.18.372-.396.372-.646a.676.676 0 0 0-.213-.509c-.141-.14-.359-.244-.653-.312l-.973-.228c-.534-.127-.927-.323-1.177-.589-.249-.268-.373-.604-.373-1.007 0-.329.093-.62.278-.873.187-.254.442-.452.763-.597a2.689 2.689 0 0 1 1.102-.216c.578 0 1.031.126 1.36.38.332.253.567.587.707 1.003Z" fill="#F8FCFF"/><path d="M516.204 205.947v41.011h1.783v-41.011h-1.783Z" fill="#2F363D" mask="url(#C)"/></g><path d="M909.375 246.066H0v1.783h909.375v-1.783Z" fill="#2F363D" mask="url(#path-78-inside-22_31_736)"/><path fill="#171D26" d="M0 246.958h909.375v41.011H0z"/><path d="M17.831 261.223v12.481M11.59 267.464h12.482" stroke="#8B949E" stroke-width="1.337" stroke-linecap="round" stroke-linejoin="round"/><path d="M33.98 263.183v7.781h-.942v-7.781h.942Zm2.664 4.27v3.511h-.896v-5.836h.866v.912h.076c.137-.296.344-.534.623-.714.279-.182.638-.274 1.079-.274.395 0 .74.081 1.037.243.296.16.527.403.692.73.164.324.246.734.246 1.231v3.708h-.896v-3.647c0-.459-.12-.816-.357-1.072-.238-.258-.565-.387-.98-.387-.287 0-.542.062-.768.186a1.331 1.331 0 0 0-.528.543c-.13.238-.194.527-.194.866Zm9.495-1.018-.805.228a1.505 1.505 0 0 0-.224-.391 1.083 1.083 0 0 0-.395-.319c-.167-.084-.382-.126-.642-.126-.358 0-.655.083-.893.247-.236.162-.353.369-.353.62 0 .222.08.398.243.528.162.129.415.236.76.323l.866.212c.522.127.91.321 1.166.582.256.258.384.591.384.999 0 .334-.096.633-.289.896-.19.264-.456.472-.798.623-.342.152-.74.228-1.193.228-.595 0-1.088-.129-1.478-.387-.39-.258-.637-.636-.74-1.132l.85-.213c.082.314.235.55.46.707.228.157.526.235.893.235.418 0 .75-.088.995-.266.249-.18.373-.395.373-.646a.68.68 0 0 0-.213-.509c-.142-.139-.36-.243-.653-.311l-.973-.228c-.534-.127-.927-.323-1.178-.589-.248-.269-.372-.604-.372-1.007 0-.329.092-.62.277-.874.188-.253.442-.452.764-.596a2.687 2.687 0 0 1 1.102-.217c.577 0 1.03.127 1.36.38.332.254.567.588.706 1.003Zm3.903 4.65c-.562 0-1.047-.124-1.455-.372a2.5 2.5 0 0 1-.938-1.048c-.218-.451-.327-.976-.327-1.573 0-.598.109-1.125.327-1.581a2.58 2.58 0 0 1 .92-1.071c.394-.259.855-.388 1.382-.388.304 0 .604.051.9.152.297.102.566.266.81.494.243.226.436.524.58.897.145.372.217.831.217 1.375v.38H47.96v-.775h3.587c0-.329-.066-.623-.198-.881a1.483 1.483 0 0 0-.555-.612 1.548 1.548 0 0 0-.843-.224c-.357 0-.666.088-.927.266a1.738 1.738 0 0 0-.596.684c-.14.281-.21.582-.21.904v.516c0 .441.076.815.228 1.121.155.304.369.536.643.695.273.157.591.236.953.236.236 0 .448-.033.638-.099a1.35 1.35 0 0 0 .498-.304 1.37 1.37 0 0 0 .323-.509l.866.243a1.915 1.915 0 0 1-.46.775 2.232 2.232 0 0 1-.797.517 2.95 2.95 0 0 1-1.068.182Zm3.78-.121v-5.836h.867v.882h.06c.107-.289.3-.523.578-.703.278-.18.593-.27.942-.27a8.164 8.164 0 0 1 .471.015v.912c-.03-.007-.1-.019-.209-.034a2.027 2.027 0 0 0-.338-.027c-.284 0-.537.06-.76.179a1.312 1.312 0 0 0-.714 1.189v3.693h-.897Zm6.884-5.836v.76h-3.024v-.76h3.024Zm-2.142-1.398h.896v5.562c0 .254.037.443.11.57a.572.572 0 0 0 .29.251c.118.04.244.061.375.061a1.472 1.472 0 0 0 .395-.046l.183.805a1.894 1.894 0 0 1-.669.107c-.253 0-.501-.055-.744-.164a1.47 1.47 0 0 1-.6-.497c-.158-.223-.236-.504-.236-.844v-5.805Zm6.622 7.234v-7.781h2.629c.608 0 1.107.104 1.497.312.39.205.678.487.866.847.187.36.281.769.281 1.227 0 .458-.094.865-.281 1.22a1.98 1.98 0 0 1-.862.835c-.388.2-.883.301-1.486.301h-2.128v-.852H67.8c.415 0 .75-.06 1.003-.182a1.15 1.15 0 0 0 .554-.517c.117-.225.175-.493.175-.805 0-.312-.058-.584-.175-.817a1.188 1.188 0 0 0-.558-.539c-.256-.129-.594-.194-1.015-.194h-1.656v6.945h-.942Zm3.662-3.495 1.915 3.495h-1.094l-1.885-3.495h1.064Zm5.368 3.616c-.527 0-.99-.125-1.387-.376a2.547 2.547 0 0 1-.927-1.052c-.22-.451-.33-.978-.33-1.581 0-.607.11-1.138.33-1.591a2.55 2.55 0 0 1 .927-1.057c.397-.25.86-.376 1.387-.376.526 0 .987.126 1.382.376.398.251.707.603.927 1.057.223.453.335.984.335 1.591 0 .603-.112 1.13-.335 1.581-.22.451-.529.802-.927 1.052-.395.251-.856.376-1.382.376Zm0-.805c.4 0 .729-.103.987-.308.259-.205.45-.475.574-.809.124-.334.186-.696.186-1.087 0-.39-.062-.753-.186-1.09a1.84 1.84 0 0 0-.574-.817c-.258-.207-.587-.311-.987-.311s-.73.104-.988.311c-.259.208-.45.48-.574.817-.124.337-.186.7-.186 1.09 0 .391.062.753.186 1.087.124.334.315.604.574.809.258.205.587.308.988.308Zm5.136.684-1.778-5.836h.942l1.261 4.468h.061l1.246-4.468h.958l1.23 4.453h.061l1.262-4.453h.942l-1.778 5.836h-.881l-1.277-4.483h-.091l-1.277 4.483h-.881Z" fill="#A2B3BE"/></g></g><g filter="url(#D)"><g clip-path="url(#E)"><path d="M407 174c0-6.627 5.373-12 12-12h156c6.627 0 12 5.373 12 12v230c0 6.627-5.373 12-12 12H419c-6.627 0-12-5.373-12-12V174Z" fill="#171D26"/><path d="m438.202 194.816-1.444.255a1.715 1.715 0 0 0-.287-.527 1.419 1.419 0 0 0-.522-.41c-.221-.107-.496-.16-.826-.16-.451 0-.828.101-1.129.304-.302.199-.453.456-.453.772 0 .274.101.494.303.661.203.166.53.303.981.41l1.299.298c.753.174 1.314.442 1.684.804.369.363.554.833.554 1.412 0 .49-.143.927-.427 1.31-.28.38-.673.679-1.177.895-.501.217-1.081.325-1.742.325-.916 0-1.663-.195-2.242-.586-.579-.394-.934-.953-1.066-1.678l1.54-.234c.096.401.293.705.591.911.298.202.687.303 1.167.303.522 0 .939-.108 1.251-.325.313-.22.469-.488.469-.804a.836.836 0 0 0-.287-.644c-.189-.174-.478-.306-.869-.395l-1.385-.303c-.763-.174-1.328-.451-1.694-.831-.362-.38-.543-.861-.543-1.444 0-.483.135-.905.405-1.267.27-.363.643-.645 1.119-.847.475-.206 1.021-.309 1.635-.309.884 0 1.58.191 2.088.575.508.38.843.889 1.007 1.529Zm5.357 6.349c-.792 0-1.474-.179-2.045-.538a3.559 3.559 0 0 1-1.311-1.497c-.305-.635-.458-1.363-.458-2.184 0-.831.156-1.564.469-2.2a3.583 3.583 0 0 1 1.321-1.496c.568-.359 1.237-.538 2.008-.538.622 0 1.175.115 1.662.346a2.98 2.98 0 0 1 1.177.959c.302.412.481.893.538 1.443h-1.55a1.855 1.855 0 0 0-.586-.991c-.302-.277-.706-.415-1.214-.415-.444 0-.833.117-1.167.352-.33.23-.588.561-.772.99-.185.426-.277.931-.277 1.513 0 .597.09 1.112.271 1.545.182.433.437.769.767 1.007.334.238.727.356 1.178.356.302 0 .575-.055.82-.165.249-.113.456-.275.623-.484.171-.21.29-.462.357-.757h1.55a3.009 3.009 0 0 1-.517 1.417 2.962 2.962 0 0 1-1.155.98c-.48.238-1.043.357-1.689.357Zm6.657-5.023V201h-1.593v-10.909h1.572v4.059h.101c.192-.44.485-.79.879-1.05.394-.259.909-.388 1.545-.388.561 0 1.051.115 1.47.346.422.231.749.575.98 1.033.234.455.351 1.023.351 1.705V201h-1.592v-5.012c0-.601-.155-1.066-.464-1.396-.309-.334-.738-.501-1.289-.501-.376 0-.713.08-1.012.24-.295.16-.527.394-.698.703-.166.305-.25.675-.25 1.108Zm10.957 5.023c-.806 0-1.5-.172-2.083-.517a3.51 3.51 0 0 1-1.342-1.464c-.312-.633-.469-1.373-.469-2.222 0-.838.157-1.576.469-2.216a3.632 3.632 0 0 1 1.321-1.496c.568-.359 1.232-.538 1.992-.538.462 0 .909.076 1.343.229.433.152.822.392 1.166.719.345.327.616.751.815 1.273.199.518.298 1.149.298 1.891v.564h-6.503v-1.193h4.943c0-.419-.086-.79-.256-1.113a1.925 1.925 0 0 0-.719-.772c-.305-.189-.664-.283-1.076-.283-.448 0-.838.11-1.172.331-.33.216-.586.5-.767.852a2.453 2.453 0 0 0-.266 1.134v.933c0 .547.096 1.012.287 1.395.196.384.467.677.815.879.348.199.755.298 1.22.298.302 0 .577-.042.826-.127a1.712 1.712 0 0 0 1.06-1.039l1.507.272a2.732 2.732 0 0 1-.65 1.166 3.14 3.14 0 0 1-1.166.772c-.465.182-.996.272-1.593.272Zm5.278-.165v-8.182h1.528v1.332h.102c.17-.451.449-.803.836-1.055.387-.256.85-.383 1.39-.383.547 0 1.005.127 1.374.383.373.256.648.607.826 1.055h.085c.196-.437.506-.785.932-1.044.427-.263.934-.394 1.524-.394.742 0 1.348.232 1.816.697.473.466.709 1.167.709 2.104V201h-1.593v-5.337c0-.554-.151-.956-.453-1.204a1.644 1.644 0 0 0-1.081-.373c-.519 0-.922.16-1.209.479-.288.316-.432.723-.432 1.22V201h-1.587v-5.439c0-.443-.139-.8-.416-1.07-.277-.27-.637-.405-1.081-.405-.302 0-.58.08-.836.24a1.761 1.761 0 0 0-.613.655c-.152.28-.229.605-.229.975V201h-1.592Zm15.637.181c-.518 0-.987-.096-1.406-.288a2.367 2.367 0 0 1-.996-.846c-.241-.37-.362-.823-.362-1.359 0-.461.089-.841.266-1.14.178-.298.417-.534.719-.708.302-.174.64-.306 1.012-.394a9.987 9.987 0 0 1 1.14-.203l1.193-.138c.306-.039.528-.101.666-.187.139-.085.208-.223.208-.415v-.037c0-.466-.131-.826-.394-1.082-.259-.255-.646-.383-1.161-.383-.537 0-.959.119-1.268.357-.305.234-.517.495-.634.783l-1.497-.341c.178-.497.437-.899.778-1.204a3.14 3.14 0 0 1 1.188-.671 4.636 4.636 0 0 1 1.411-.213c.327 0 .673.039 1.039.117.369.074.714.213 1.033.415.324.203.588.492.794.869.206.372.309.857.309 1.454V201h-1.555v-1.119h-.064a2.273 2.273 0 0 1-.464.608c-.206.198-.47.364-.793.495-.324.131-.711.197-1.162.197Zm.347-1.278c.44 0 .816-.087 1.129-.261a1.83 1.83 0 0 0 .719-.682c.167-.284.25-.588.25-.911v-1.055c-.056.057-.167.11-.33.16-.16.046-.343.087-.549.123-.205.032-.406.062-.601.09l-.491.064a3.96 3.96 0 0 0-.846.197 1.46 1.46 0 0 0-.608.4c-.149.17-.223.397-.223.682 0 .394.145.692.436.894.292.199.663.299 1.114.299Zm6.862 1.198c-.291 0-.542-.103-.751-.309a1.028 1.028 0 0 1-.315-.756c0-.291.105-.54.315-.746.209-.209.46-.314.751-.314s.541.105.751.314c.209.206.314.455.314.746 0 .195-.05.375-.149.538-.096.16-.224.288-.384.383a1.011 1.011 0 0 1-.532.144Z" fill="#8B949E"/><path d="M492.495 204.068v-11.25h1.556v1.327h.133c.092-.171.226-.368.4-.592.174-.223.415-.419.724-.586.309-.17.717-.255 1.225-.255.661 0 1.25.167 1.769.5.518.334.925.815 1.219 1.444.299.628.448 1.385.448 2.269 0 .884-.148 1.642-.442 2.275-.295.628-.7 1.113-1.215 1.454a3.146 3.146 0 0 1-1.763.506c-.497 0-.904-.084-1.22-.251a2.314 2.314 0 0 1-.735-.585 4.516 4.516 0 0 1-.41-.597h-.096v4.341h-1.593Zm1.561-7.159c0 .575.084 1.08.251 1.513.166.433.408.772.724 1.017.316.242.703.362 1.161.362.476 0 .874-.126 1.193-.378.32-.255.561-.602.725-1.038a4.11 4.11 0 0 0 .25-1.476c0-.54-.082-1.024-.245-1.454-.16-.43-.401-.769-.724-1.017-.32-.249-.719-.373-1.199-.373-.461 0-.852.119-1.172.357-.316.237-.555.569-.719.996-.163.426-.245.923-.245 1.491Zm12.88.698v-4.789h1.598V201h-1.566v-1.417h-.085c-.188.437-.49.801-.906 1.092-.412.288-.925.432-1.539.432-.526 0-.991-.116-1.396-.347a2.432 2.432 0 0 1-.948-1.038c-.227-.459-.341-1.025-.341-1.7v-5.204h1.593v5.013c0 .557.154 1.001.463 1.331.309.331.711.496 1.204.496.299 0 .595-.075.89-.224.298-.149.545-.375.74-.677.199-.301.297-.685.293-1.15Zm3.866 3.393v-10.909h1.593v4.054h.096c.092-.171.225-.368.399-.592.174-.223.416-.419.725-.586.308-.17.717-.255 1.225-.255a3.2 3.2 0 0 1 1.768.5c.519.334.925.815 1.22 1.444.298.628.447 1.385.447 2.269 0 .884-.147 1.642-.442 2.275-.294.628-.699 1.113-1.214 1.454a3.149 3.149 0 0 1-1.763.506c-.498 0-.904-.084-1.22-.251a2.292 2.292 0 0 1-.735-.585 4.33 4.33 0 0 1-.41-.597h-.134V201h-1.555Zm1.561-4.091c0 .575.083 1.08.25 1.513.167.433.408.772.725 1.017.316.242.703.362 1.161.362.476 0 .873-.126 1.193-.378.32-.255.561-.602.724-1.038a4.11 4.11 0 0 0 .251-1.476c0-.54-.082-1.024-.245-1.454a2.224 2.224 0 0 0-.725-1.017c-.319-.249-.719-.373-1.198-.373-.462 0-.853.119-1.172.357-.316.237-.556.569-.719.996-.164.426-.245.923-.245 1.491Zm9.294-6.818V201h-1.593v-10.909h1.593ZM523.799 201v-8.182h1.593V201h-1.593Zm.805-9.444c-.277 0-.515-.093-.714-.277a.898.898 0 0 1-.293-.671.89.89 0 0 1 .293-.672c.199-.188.437-.282.714-.282.277 0 .513.094.708.282a.884.884 0 0 1 .298.672.892.892 0 0 1-.298.671.995.995 0 0 1-.708.277Zm6.377 9.609c-.792 0-1.474-.179-2.046-.538a3.557 3.557 0 0 1-1.31-1.497c-.305-.635-.458-1.363-.458-2.184 0-.831.156-1.564.469-2.2a3.583 3.583 0 0 1 1.321-1.496c.568-.359 1.237-.538 2.008-.538.621 0 1.175.115 1.662.346a2.98 2.98 0 0 1 1.177.959c.302.412.481.893.538 1.443h-1.55a1.861 1.861 0 0 0-.586-.991c-.302-.277-.707-.415-1.214-.415-.444 0-.833.117-1.167.352-.33.23-.588.561-.772.99-.185.426-.277.931-.277 1.513 0 .597.09 1.112.271 1.545.181.433.437.769.767 1.007.334.238.727.356 1.178.356.301 0 .575-.055.82-.165.248-.113.456-.275.623-.484.171-.21.29-.462.357-.757h1.55a3.009 3.009 0 0 1-.517 1.417 2.965 2.965 0 0 1-1.156.98c-.479.238-1.042.357-1.688.357Z" fill="#F8FCFF"/><rect x="422.5" y="177.5" width="149" height="37" rx="4.5" stroke="#363A43"/><path d="M441.004 239.091V250h-1.513l-5.545-8.001h-.102V250h-1.645v-10.909h1.523l5.55 8.011h.102v-8.011h1.63Zm5.799 11.074c-.806 0-1.5-.172-2.083-.517a3.504 3.504 0 0 1-1.342-1.464c-.313-.633-.469-1.373-.469-2.222 0-.838.156-1.576.469-2.216a3.632 3.632 0 0 1 1.321-1.496c.568-.359 1.232-.538 1.992-.538.462 0 .909.076 1.342.229.434.152.823.392 1.167.719.344.327.616.751.815 1.273.199.518.298 1.149.298 1.891v.564h-6.504v-1.193h4.944c0-.419-.086-.79-.256-1.113a1.932 1.932 0 0 0-.719-.772 2.004 2.004 0 0 0-1.076-.283c-.448 0-.838.11-1.172.331-.33.216-.586.5-.767.852a2.453 2.453 0 0 0-.266 1.134v.933c0 .547.095 1.012.287 1.395.195.384.467.677.815.879.348.199.755.298 1.22.298.302 0 .577-.042.826-.127a1.712 1.712 0 0 0 1.06-1.039l1.507.272a2.732 2.732 0 0 1-.65 1.166c-.309.33-.698.588-1.166.772-.466.182-.996.272-1.593.272Zm7.037-.165-2.408-8.182h1.646l1.603 6.009h.08l1.609-6.009h1.646l1.598 5.982h.08l1.592-5.982h1.646L460.53 250h-1.625l-1.662-5.907h-.122L455.459 250h-1.619Zm18.393-8.182v1.279h-4.469v-1.279h4.469Zm-3.271-1.96h1.593v7.74c0 .309.046.541.138.697a.73.73 0 0 0 .357.315c.149.053.311.08.485.08.128 0 .24-.009.335-.027l.224-.043.288 1.316a3.166 3.166 0 0 1-1.034.171 2.805 2.805 0 0 1-1.171-.224 2 2 0 0 1-.879-.725c-.224-.326-.336-.736-.336-1.23v-8.07Zm7.414 10.323c-.519 0-.988-.096-1.407-.288a2.367 2.367 0 0 1-.996-.846c-.241-.37-.362-.823-.362-1.359 0-.461.089-.841.266-1.14.178-.298.418-.534.719-.708.302-.174.64-.306 1.012-.394a9.987 9.987 0 0 1 1.14-.203l1.194-.138c.305-.039.527-.101.665-.187.139-.085.208-.223.208-.415v-.037c0-.466-.131-.826-.394-1.082-.259-.255-.646-.383-1.161-.383-.536 0-.959.119-1.268.357-.305.234-.517.495-.634.783l-1.497-.341c.178-.497.437-.899.778-1.204a3.14 3.14 0 0 1 1.188-.671 4.636 4.636 0 0 1 1.411-.213c.327 0 .673.039 1.039.117.369.074.714.213 1.034.415a2.3 2.3 0 0 1 .793.869c.206.372.309.857.309 1.454V250h-1.555v-1.119h-.064a2.273 2.273 0 0 1-.464.608c-.206.198-.47.364-.793.495-.323.131-.71.197-1.161.197Zm.346-1.278c.44 0 .817-.087 1.129-.261a1.83 1.83 0 0 0 .719-.682c.167-.284.25-.588.25-.911v-1.055c-.056.057-.166.11-.33.16-.16.046-.342.087-.548.123-.206.032-.407.062-.602.09a54.56 54.56 0 0 0-.49.064 3.955 3.955 0 0 0-.847.197 1.467 1.467 0 0 0-.608.4c-.149.17-.223.397-.223.682 0 .394.145.692.436.894.292.199.663.299 1.114.299Zm5.94 1.097v-10.909h1.593v4.054h.096c.092-.171.225-.368.399-.592.174-.223.416-.419.725-.586.309-.17.717-.255 1.225-.255.661 0 1.25.167 1.768.5.519.334.926.815 1.22 1.444.299.628.448 1.385.448 2.269 0 .884-.148 1.642-.442 2.275-.295.628-.7 1.113-1.215 1.454a3.146 3.146 0 0 1-1.763.506c-.497 0-.904-.084-1.22-.251a2.314 2.314 0 0 1-.735-.585 4.516 4.516 0 0 1-.41-.597h-.133V250h-1.556Zm1.561-4.091c0 .575.084 1.08.25 1.513.167.433.409.772.725 1.017.316.242.703.362 1.161.362.476 0 .874-.126 1.193-.378.32-.255.561-.602.725-1.038a4.11 4.11 0 0 0 .25-1.476c0-.54-.082-1.024-.245-1.454-.16-.43-.401-.769-.724-1.017-.32-.249-.719-.373-1.199-.373-.462 0-.852.119-1.172.357-.316.237-.556.569-.719.996-.163.426-.245.923-.245 1.491Zm9.294-6.818V250h-1.593v-10.909h1.593Zm5.669 11.074c-.806 0-1.501-.172-2.083-.517a3.504 3.504 0 0 1-1.342-1.464c-.313-.633-.469-1.373-.469-2.222 0-.838.156-1.576.469-2.216a3.632 3.632 0 0 1 1.321-1.496c.568-.359 1.232-.538 1.992-.538.462 0 .909.076 1.342.229.434.152.822.392 1.167.719.344.327.616.751.815 1.273.199.518.298 1.149.298 1.891v.564h-6.504v-1.193h4.943c0-.419-.085-.79-.255-1.113a1.932 1.932 0 0 0-.719-.772 2.004 2.004 0 0 0-1.076-.283c-.448 0-.838.11-1.172.331-.331.216-.586.5-.767.852a2.454 2.454 0 0 0-.267 1.134v.933c0 .547.096 1.012.288 1.395.195.384.467.677.815.879.348.199.755.298 1.22.298.302 0 .577-.042.825-.127.249-.089.464-.221.645-.395.181-.174.32-.388.415-.644l1.508.272a2.732 2.732 0 0 1-.65 1.166c-.309.33-.698.588-1.167.772-.465.182-.996.272-1.592.272Z" fill="#DFECF5"/><path d="M551 238v14M544 245h14" stroke="#DFECF5" stroke-width="1.5" stroke-linecap="round" stroke-linejoin="round"/><rect x="423" y="272" width="148" height="36" rx="4" fill="#162945"/><path d="M437.254 291.607v-4.789h1.598V295h-1.566v-1.417h-.086c-.188.437-.49.801-.905 1.092-.412.288-.925.432-1.54.432-.525 0-.99-.116-1.395-.347a2.42 2.42 0 0 1-.948-1.038c-.228-.459-.341-1.025-.341-1.7v-5.204h1.592v5.013c0 .557.155 1.001.464 1.331.309.331.71.496 1.204.496.298 0 .594-.075.889-.224a1.88 1.88 0 0 0 .741-.677c.198-.301.296-.685.293-1.15Zm9.869-2.791-1.444.255a1.698 1.698 0 0 0-.288-.527 1.403 1.403 0 0 0-.522-.41c-.22-.107-.495-.16-.825-.16-.451 0-.828.101-1.129.304-.302.199-.453.456-.453.772 0 .274.101.494.303.661.203.166.529.303.98.41l1.3.298c.753.174 1.314.442 1.683.804.37.363.554.833.554 1.412 0 .49-.142.927-.426 1.31-.28.38-.673.679-1.177.895-.501.217-1.081.325-1.742.325-.916 0-1.663-.195-2.242-.586-.579-.394-.934-.953-1.066-1.678l1.54-.234c.096.401.293.705.591.911.298.202.687.303 1.167.303.522 0 .939-.108 1.251-.325.313-.22.469-.488.469-.804a.834.834 0 0 0-.288-.644c-.188-.174-.477-.306-.868-.395l-1.385-.303c-.763-.174-1.328-.451-1.694-.831-.362-.38-.543-.861-.543-1.444 0-.483.135-.905.405-1.267.27-.363.643-.645 1.118-.847.476-.206 1.021-.309 1.636-.309.884 0 1.58.191 2.088.575.508.38.843.889 1.007 1.529Zm5.437 6.349c-.806 0-1.501-.172-2.083-.517a3.504 3.504 0 0 1-1.342-1.464c-.313-.633-.469-1.373-.469-2.222 0-.838.156-1.576.469-2.216a3.632 3.632 0 0 1 1.321-1.496c.568-.359 1.232-.538 1.992-.538.462 0 .909.076 1.342.229.434.152.822.392 1.167.719.344.327.616.751.815 1.273.199.518.298 1.149.298 1.891v.564h-6.504v-1.193h4.943c0-.419-.085-.79-.255-1.113a1.932 1.932 0 0 0-.719-.772 2.004 2.004 0 0 0-1.076-.283c-.448 0-.838.11-1.172.331-.331.216-.586.5-.767.852a2.454 2.454 0 0 0-.267 1.134v.933c0 .547.096 1.012.288 1.395.195.384.467.677.815.879.348.199.755.298 1.22.298.302 0 .577-.042.825-.127.249-.089.464-.221.645-.395.181-.174.32-.388.415-.644l1.508.272a2.732 2.732 0 0 1-.65 1.166c-.309.33-.698.588-1.166.772-.466.182-.997.272-1.593.272Zm5.277-.165v-8.182h1.54v1.3h.085a1.98 1.98 0 0 1 .788-1.039c.38-.255.81-.383 1.289-.383a6.848 6.848 0 0 1 .677.037v1.523a3.01 3.01 0 0 0-.341-.058 3.233 3.233 0 0 0-.49-.037c-.377 0-.712.079-1.007.239a1.78 1.78 0 0 0-.948 1.604V295h-1.593Zm11.888-6.184-1.443.255a1.74 1.74 0 0 0-.288-.527 1.419 1.419 0 0 0-.522-.41c-.22-.107-.495-.16-.826-.16-.451 0-.827.101-1.129.304-.302.199-.453.456-.453.772 0 .274.101.494.304.661.202.166.529.303.98.41l1.3.298c.753.174 1.314.442 1.683.804.369.363.554.833.554 1.412 0 .49-.142.927-.426 1.31-.281.38-.673.679-1.177.895-.501.217-1.082.325-1.742.325-.916 0-1.664-.195-2.243-.586-.579-.394-.934-.953-1.065-1.678l1.539-.234c.096.401.293.705.592.911.298.202.687.303 1.166.303.522 0 .939-.108 1.252-.325.312-.22.469-.488.469-.804a.834.834 0 0 0-.288-.644c-.188-.174-.478-.306-.868-.395l-1.385-.303c-.764-.174-1.328-.451-1.694-.831-.362-.38-.543-.861-.543-1.444 0-.483.135-.905.404-1.267.27-.363.643-.645 1.119-.847.476-.206 1.021-.309 1.635-.309.885 0 1.581.191 2.088.575.508.38.844.889 1.007 1.529Z" fill="#3888FF"/><path d="M432.071 330.818h1.592v8.715c0 .547-.099 1.008-.298 1.385a1.939 1.939 0 0 1-.874.857c-.383.196-.857.293-1.422.293h-.16c-.053 0-.108-.002-.165-.005v-1.369H431c.376 0 .648-.101.815-.304.17-.199.256-.488.256-.868v-8.704Zm.788-1.262c-.277 0-.515-.093-.714-.277a.901.901 0 0 1-.293-.671c0-.263.098-.487.293-.672.199-.188.437-.282.714-.282.277 0 .513.094.708.282a.884.884 0 0 1 .299.672c0 .259-.1.483-.299.671a.995.995 0 0 1-.708.277Zm6.393 9.609c-.767 0-1.436-.176-2.008-.527a3.557 3.557 0 0 1-1.331-1.476c-.316-.632-.475-1.37-.475-2.216 0-.848.159-1.591.475-2.226a3.546 3.546 0 0 1 1.331-1.481c.572-.352 1.241-.527 2.008-.527.767 0 1.437.175 2.009.527a3.553 3.553 0 0 1 1.331 1.481c.316.635.474 1.378.474 2.226 0 .846-.158 1.584-.474 2.216a3.564 3.564 0 0 1-1.331 1.476c-.572.351-1.242.527-2.009.527Zm.006-1.337c.497 0 .909-.131 1.236-.394.326-.263.568-.613.724-1.049.16-.437.24-.918.24-1.444 0-.522-.08-1.001-.24-1.438a2.34 2.34 0 0 0-.724-1.06c-.327-.267-.739-.4-1.236-.4-.501 0-.916.133-1.247.4-.326.266-.57.619-.729 1.06a4.224 4.224 0 0 0-.235 1.438c0 .526.078 1.007.235 1.444.159.436.403.786.729 1.049.331.263.746.394 1.247.394Zm10.769-2.221v-4.789h1.598V339h-1.566v-1.417h-.085c-.188.437-.49.801-.906 1.092-.412.288-.925.432-1.539.432-.526 0-.991-.116-1.396-.347a2.432 2.432 0 0 1-.948-1.038c-.227-.459-.341-1.025-.341-1.7v-5.204h1.593v5.013c0 .557.154 1.001.463 1.331.309.331.71.496 1.204.496.298 0 .595-.075.89-.224.298-.149.545-.375.74-.677.199-.301.297-.685.293-1.15Zm3.738 3.393v-8.182h1.539v1.3h.086a1.98 1.98 0 0 1 .788-1.039c.38-.255.81-.383 1.289-.383a6.878 6.878 0 0 1 .677.037v1.523a3.01 3.01 0 0 0-.341-.058 3.243 3.243 0 0 0-.49-.037c-.377 0-.712.079-1.007.239a1.777 1.777 0 0 0-.948 1.604V339h-1.593Zm7.35-4.858V339h-1.593v-8.182h1.529v1.332h.101c.188-.433.483-.781.884-1.044.405-.263.914-.394 1.529-.394.557 0 1.046.117 1.465.351.419.231.744.575.974 1.034.231.458.347 1.024.347 1.699V339h-1.593v-5.012c0-.593-.154-1.057-.463-1.391-.309-.337-.734-.506-1.274-.506-.369 0-.697.08-.985.24-.284.16-.51.394-.676.703-.164.305-.245.675-.245 1.108Zm9.753 5.039c-.519 0-.987-.096-1.407-.288a2.367 2.367 0 0 1-.996-.846c-.241-.37-.362-.823-.362-1.359 0-.461.089-.841.266-1.14.178-.298.418-.534.72-.708a3.717 3.717 0 0 1 1.012-.394 9.987 9.987 0 0 1 1.14-.203l1.193-.138c.305-.039.527-.101.666-.187.138-.085.207-.223.207-.415v-.037c0-.466-.131-.826-.394-1.082-.259-.255-.646-.383-1.161-.383-.536 0-.959.119-1.268.357-.305.234-.516.495-.634.783l-1.496-.341c.177-.497.436-.899.777-1.204a3.155 3.155 0 0 1 1.188-.671 4.642 4.642 0 0 1 1.412-.213c.326 0 .673.039 1.038.117.37.074.714.213 1.034.415a2.3 2.3 0 0 1 .793.869c.206.372.309.857.309 1.454V339h-1.555v-1.119h-.064a2.268 2.268 0 0 1-.463.608 2.473 2.473 0 0 1-.794.495c-.323.131-.71.197-1.161.197Zm.346-1.278c.44 0 .817-.087 1.129-.261a1.83 1.83 0 0 0 .719-.682c.167-.284.251-.588.251-.911v-1.055c-.057.057-.167.11-.331.16a5.23 5.23 0 0 1-.548.123c-.206.032-.407.062-.602.09l-.49.064a3.969 3.969 0 0 0-.847.197 1.457 1.457 0 0 0-.607.4c-.15.17-.224.397-.224.682 0 .394.145.692.437.894.291.199.662.299 1.113.299Zm7.405-9.812V339h-1.592v-10.909h1.592Zm8.274 4.725-1.443.255a1.74 1.74 0 0 0-.288-.527 1.419 1.419 0 0 0-.522-.41c-.22-.107-.495-.16-.826-.16-.451 0-.827.101-1.129.304-.302.199-.453.456-.453.772 0 .274.101.494.304.661.202.166.529.303.98.41l1.3.298c.753.174 1.314.442 1.683.804.369.363.554.833.554 1.412 0 .49-.142.927-.426 1.31-.281.38-.673.679-1.177.895-.501.217-1.082.325-1.742.325-.916 0-1.664-.195-2.243-.586-.579-.394-.934-.953-1.065-1.678l1.539-.234c.096.401.293.705.592.911.298.202.687.303 1.166.303.522 0 .939-.108 1.252-.325.312-.22.469-.488.469-.804a.834.834 0 0 0-.288-.644c-.188-.174-.478-.306-.868-.395l-1.385-.303c-.764-.174-1.328-.451-1.694-.831-.362-.38-.543-.861-.543-1.444 0-.483.135-.905.404-1.267.27-.363.643-.645 1.119-.847.476-.206 1.021-.309 1.635-.309.885 0 1.581.191 2.088.575.508.38.844.889 1.007 1.529ZM435.89 374.818v1.279h-4.469v-1.279h4.469Zm-3.271-1.96h1.593v7.74c0 .309.046.541.138.697a.73.73 0 0 0 .357.315c.15.053.311.08.485.08.128 0 .24-.009.336-.027l.223-.043.288 1.316a3.163 3.163 0 0 1-1.033.171 2.81 2.81 0 0 1-1.172-.224 2.01 2.01 0 0 1-.879-.725c-.224-.326-.336-.736-.336-1.23v-8.07Zm7.414 10.323c-.519 0-.987-.096-1.406-.288a2.363 2.363 0 0 1-.997-.846c-.241-.37-.362-.823-.362-1.359 0-.461.089-.841.267-1.14a1.96 1.96 0 0 1 .719-.708 3.717 3.717 0 0 1 1.012-.394 9.987 9.987 0 0 1 1.14-.203l1.193-.138c.305-.039.527-.101.666-.187.138-.085.207-.223.207-.415v-.037c0-.466-.131-.826-.394-1.082-.259-.255-.646-.383-1.161-.383-.536 0-.959.119-1.268.357-.305.234-.516.495-.634.783l-1.496-.341c.177-.497.436-.899.777-1.204a3.155 3.155 0 0 1 1.188-.671 4.642 4.642 0 0 1 1.412-.213c.326 0 .673.039 1.038.117.37.074.714.213 1.034.415a2.3 2.3 0 0 1 .793.869c.206.372.309.857.309 1.454V383h-1.555v-1.119h-.064a2.268 2.268 0 0 1-.463.608 2.473 2.473 0 0 1-.794.495c-.323.131-.71.197-1.161.197Zm.346-1.278c.44 0 .817-.087 1.129-.261a1.83 1.83 0 0 0 .719-.682c.167-.284.251-.588.251-.911v-1.055c-.057.057-.167.11-.331.16a5.23 5.23 0 0 1-.548.123c-.206.032-.407.062-.602.09l-.49.064a3.969 3.969 0 0 0-.847.197 1.457 1.457 0 0 0-.607.4c-.15.17-.224.397-.224.682 0 .394.146.692.437.894.291.199.662.299 1.113.299Zm9.243 4.336c-.65 0-1.209-.086-1.678-.256-.465-.17-.845-.396-1.14-.677a2.831 2.831 0 0 1-.66-.921l1.369-.565c.096.157.224.322.383.496.164.177.384.328.661.452.28.125.641.187 1.081.187.604 0 1.103-.147 1.497-.442.394-.291.591-.757.591-1.396v-1.608h-.101a3.634 3.634 0 0 1-.415.58 2.248 2.248 0 0 1-.736.554c-.312.156-.719.234-1.219.234-.647 0-1.229-.15-1.748-.452-.514-.306-.923-.755-1.225-1.348-.298-.597-.447-1.33-.447-2.2 0-.87.147-1.616.442-2.237.298-.622.707-1.097 1.225-1.428a3.193 3.193 0 0 1 1.763-.5c.508 0 .918.085 1.231.255.312.167.555.363.729.586.178.224.315.421.411.592h.117v-1.327h1.561v8.363c0 .703-.164 1.28-.49 1.731a2.888 2.888 0 0 1-1.327 1.002c-.554.216-1.179.325-1.875.325Zm-.016-4.683c.458 0 .845-.106 1.161-.319.32-.217.561-.526.725-.927.167-.405.25-.89.25-1.454 0-.551-.081-1.035-.245-1.454-.163-.419-.403-.746-.719-.98-.316-.238-.707-.357-1.172-.357-.479 0-.879.124-1.198.373-.32.245-.561.578-.725 1.001-.16.423-.239.895-.239 1.417 0 .536.081 1.007.245 1.411.163.405.404.721.724.949.323.227.721.34 1.193.34Zm11.975-4.74-1.444.255a1.698 1.698 0 0 0-.288-.527 1.403 1.403 0 0 0-.522-.41c-.22-.107-.495-.16-.825-.16-.451 0-.828.101-1.129.304-.302.199-.453.456-.453.772 0 .274.101.494.303.661.203.166.529.303.98.41l1.3.298c.753.174 1.314.442 1.683.804.37.363.554.833.554 1.412 0 .49-.142.927-.426 1.31-.28.38-.673.679-1.177.895-.501.217-1.081.325-1.742.325-.916 0-1.663-.195-2.242-.586-.579-.394-.934-.953-1.066-1.678l1.54-.234c.096.401.293.705.591.911.298.202.687.303 1.167.303.522 0 .939-.108 1.251-.325.313-.22.469-.488.469-.804a.834.834 0 0 0-.288-.644c-.188-.174-.477-.306-.868-.395l-1.385-.303c-.763-.174-1.328-.451-1.694-.831-.362-.38-.543-.861-.543-1.444 0-.483.135-.905.405-1.267.27-.363.643-.645 1.118-.847.476-.206 1.021-.309 1.636-.309.884 0 1.58.191 2.088.575.508.38.843.889 1.007 1.529Z" fill="#DFECF5"/></g></g><defs><clipPath id="a"><rect width="485" height="287.969" rx="10.698" fill="#fff"/></clipPath><clipPath id="b"><path fill="#fff" transform="translate(19.613 18.024)" d="M0 0h14.265v14.265H0z"/></clipPath><clipPath id="d"><path fill="#fff" transform="translate(0 49.035)" d="M0 0h485v238.934H0z"/></clipPath><clipPath id="e"><path d="M0 49.035h909.375v33.879H0V49.035Z" fill="#fff"/></clipPath><clipPath id="j"><path d="M0 82.914h909.375v41.011H0v-41.01Z" fill="#fff"/></clipPath><clipPath id="o"><path d="M0 123.925h909.375v41.011H0v-41.011Z" fill="#fff"/></clipPath><clipPath id="t"><path d="M0 164.936h909.375v41.011H0v-41.011Z" fill="#fff"/></clipPath><clipPath id="y"><path d="M0 205.947h909.375v41.011H0v-41.011Z" fill="#fff"/></clipPath><clipPath id="E"><path d="M407 174c0-6.627 5.373-12 12-12h156c6.627 0 12 5.373 12 12v230c0 6.627-5.373 12-12 12H419c-6.627 0-12-5.373-12-12V174Z" fill="#fff"/></clipPath><filter id="D" x="375" y="146" width="244" height="318" filterUnits="userSpaceOnUse" color-interpolation-filters="sRGB"><feFlood flood-opacity="0" result="BackgroundImageFix"/><feColorMatrix in="SourceAlpha" values="0 0 0 0 0 0 0 0 0 0 0 0 0 0 0 0 0 0 127 0" result="hardAlpha"/><feOffset dy="16"/><feGaussianBlur stdDeviation="16"/><feColorMatrix values="0 0 0 0 0 0 0 0 0 0 0 0 0 0 0 0 0 0 0.32 0"/><feBlend in2="BackgroundImageFix" result="effect1_dropShadow_31_736"/><feBlend in="SourceGraphic" in2="effect1_dropShadow_31_736" result="shape"/></filter></defs></svg>