<svg width="1358" height="1358" viewBox="0 0 1358 1358" fill="none" xmlns="http://www.w3.org/2000/svg">
<g opacity="0.6">
<g opacity="0.19" filter="url(#filter0_f_38_837)">
<circle cx="679" cy="679" r="304" fill="url(#paint0_linear_38_837)" fill-opacity="0.9"/>
</g>
<g opacity="0.4" filter="url(#filter1_f_38_837)">
<circle cx="679" cy="679" r="107" fill="url(#paint1_linear_38_837)"/>
</g>
<g opacity="0.4" filter="url(#filter2_f_38_837)">
<circle cx="679" cy="679" r="118" fill="black"/>
</g>
<g opacity="0.9" filter="url(#filter3_f_38_837)">
<circle cx="679" cy="679" r="125" fill="url(#paint2_linear_38_837)" fill-opacity="0.9"/>
</g>
<g opacity="0.3" filter="url(#filter4_f_38_837)">
<circle cx="679" cy="679" r="82" fill="black"/>
</g>
<mask id="mask0_38_837" style="mask-type:alpha" maskUnits="userSpaceOnUse" x="384" y="384" width="589" height="589">
<circle opacity="0.5" cx="678.5" cy="678.5" r="293.5" fill="url(#paint3_linear_38_837)" stroke="#E535AB"/>
</mask>
<g mask="url(#mask0_38_837)">
<circle opacity="0.5" cx="679" cy="679" r="71.5" stroke="#E535AB"/>
<circle opacity="0.4" cx="679" cy="679" r="95.5" stroke="#E535AB"/>
<circle opacity="0.3" cx="679" cy="679" r="119.5" stroke="#E535AB"/>
<circle opacity="0.1" cx="679" cy="679" r="143.5" stroke="#E535AB"/>
<circle opacity="0.1" cx="679" cy="679" r="167.5" stroke="#E535AB"/>
</g>
</g>
<g filter="url(#filter5_bd_38_837)">
<rect x="627" y="627" width="104" height="104" rx="52" fill="black"/>
<rect x="627.25" y="627.25" width="103.5" height="103.5" rx="51.75" stroke="url(#paint4_linear_38_837)" stroke-opacity="0.2" stroke-width="0.5"/>
<path d="M660.171 690.323L661.896 691.319L681.114 658.034L679.389 657.038L660.171 690.323Z" fill="white"/>
<path d="M698.212 687.664H659.776V689.656H698.212V687.664Z" fill="white"/>
<path d="M660.537 688.783L679.762 699.883L680.758 698.158L661.533 687.058L660.537 688.783Z" fill="white"/>
<path d="M677.238 659.854L696.463 670.954L697.459 669.228L678.234 658.128L677.238 659.854Z" fill="white"/>
<path d="M660.542 669.221L661.538 670.946L680.763 659.846L679.767 658.121L660.542 669.221Z" fill="white"/>
<path d="M676.89 658.034L696.108 691.319L697.833 690.323L678.615 657.038L676.89 658.034Z" fill="white"/>
<path d="M663.292 667.9H661.3V690.1H663.292V667.9Z" fill="white"/>
<path d="M696.7 667.9H694.708V690.1H696.7V667.9Z" fill="white"/>
<path d="M678.553 697.533L679.423 699.04L696.143 689.386L695.273 687.879L678.553 697.533Z" fill="white"/>
<path d="M699.34 690.748C698.188 692.752 695.62 693.436 693.616 692.284C691.612 691.132 690.928 688.564 692.08 686.56C693.232 684.556 695.8 683.872 697.804 685.024C699.82 686.188 700.504 688.744 699.34 690.748Z" fill="white"/>
<path d="M665.908 671.44C664.756 673.444 662.188 674.128 660.184 672.976C658.18 671.824 657.496 669.256 658.648 667.252C659.8 665.248 662.368 664.564 664.372 665.716C666.376 666.88 667.06 669.436 665.908 671.44Z" fill="white"/>
<path d="M658.66 690.748C657.508 688.744 658.192 686.188 660.196 685.024C662.2 683.872 664.756 684.556 665.92 686.56C667.072 688.564 666.388 691.12 664.384 692.284C662.368 693.436 659.812 692.752 658.66 690.748Z" fill="white"/>
<path d="M692.092 671.44C690.94 669.436 691.624 666.88 693.628 665.716C695.632 664.564 698.188 665.248 699.352 667.252C700.504 669.256 699.82 671.812 697.816 672.976C695.812 674.128 693.244 673.444 692.092 671.44Z" fill="white"/>
<path d="M679 702.496C676.684 702.496 674.812 700.624 674.812 698.308C674.812 695.992 676.684 694.12 679 694.12C681.316 694.12 683.188 695.992 683.188 698.308C683.188 700.612 681.316 702.496 679 702.496Z" fill="white"/>
<path d="M679 663.88C676.684 663.88 674.812 662.008 674.812 659.692C674.812 657.376 676.684 655.504 679 655.504C681.316 655.504 683.188 657.376 683.188 659.692C683.188 662.008 681.316 663.88 679 663.88Z" fill="white"/>
</g>
<defs>
<filter id="filter0_f_38_837" x="0.609589" y="0.609589" width="1356.78" height="1356.78" filterUnits="userSpaceOnUse" color-interpolation-filters="sRGB">
<feFlood flood-opacity="0" result="BackgroundImageFix"/>
<feBlend mode="normal" in="SourceGraphic" in2="BackgroundImageFix" result="shape"/>
<feGaussianBlur stdDeviation="187.195" result="effect1_foregroundBlur_38_837"/>
</filter>
<filter id="filter1_f_38_837" x="463.778" y="463.778" width="430.444" height="430.444" filterUnits="userSpaceOnUse" color-interpolation-filters="sRGB">
<feFlood flood-opacity="0" result="BackgroundImageFix"/>
<feBlend mode="normal" in="SourceGraphic" in2="BackgroundImageFix" result="shape"/>
<feGaussianBlur stdDeviation="54.1111" result="effect1_foregroundBlur_38_837"/>
</filter>
<filter id="filter2_f_38_837" x="476.177" y="476.177" width="405.646" height="405.646" filterUnits="userSpaceOnUse" color-interpolation-filters="sRGB">
<feFlood flood-opacity="0" result="BackgroundImageFix"/>
<feBlend mode="normal" in="SourceGraphic" in2="BackgroundImageFix" result="shape"/>
<feGaussianBlur stdDeviation="42.4114" result="effect1_foregroundBlur_38_837"/>
</filter>
<filter id="filter3_f_38_837" x="480.877" y="480.877" width="396.246" height="396.246" filterUnits="userSpaceOnUse" color-interpolation-filters="sRGB">
<feFlood flood-opacity="0" result="BackgroundImageFix"/>
<feBlend mode="normal" in="SourceGraphic" in2="BackgroundImageFix" result="shape"/>
<feGaussianBlur stdDeviation="36.5616" result="effect1_foregroundBlur_38_837"/>
</filter>
<filter id="filter4_f_38_837" x="512.177" y="512.177" width="333.646" height="333.646" filterUnits="userSpaceOnUse" color-interpolation-filters="sRGB">
<feFlood flood-opacity="0" result="BackgroundImageFix"/>
<feBlend mode="normal" in="SourceGraphic" in2="BackgroundImageFix" result="shape"/>
<feGaussianBlur stdDeviation="42.4114" result="effect1_foregroundBlur_38_837"/>
</filter>
<filter id="filter5_bd_38_837" x="611" y="612" width="136" height="139" filterUnits="userSpaceOnUse" color-interpolation-filters="sRGB">
<feFlood flood-opacity="0" result="BackgroundImageFix"/>
<feGaussianBlur in="BackgroundImageFix" stdDeviation="7.5"/>
<feComposite in2="SourceAlpha" operator="in" result="effect1_backgroundBlur_38_837"/>
<feColorMatrix in="SourceAlpha" type="matrix" values="0 0 0 0 0 0 0 0 0 0 0 0 0 0 0 0 0 0 127 0" result="hardAlpha"/>
<feOffset dy="4"/>
<feGaussianBlur stdDeviation="8"/>
<feComposite in2="hardAlpha" operator="out"/>
<feColorMatrix type="matrix" values="0 0 0 0 0 0 0 0 0 0 0 0 0 0 0 0 0 0 0.25 0"/>
<feBlend mode="normal" in2="effect1_backgroundBlur_38_837" result="effect2_dropShadow_38_837"/>
<feBlend mode="normal" in="SourceGraphic" in2="effect2_dropShadow_38_837" result="shape"/>
</filter>
<linearGradient id="paint0_linear_38_837" x1="375" y1="679" x2="983" y2="679" gradientUnits="userSpaceOnUse">
<stop stop-color="#3A0027"/>
<stop offset="1" stop-color="#910061"/>
</linearGradient>
<linearGradient id="paint1_linear_38_837" x1="572" y1="679" x2="786" y2="679" gradientUnits="userSpaceOnUse">
<stop stop-color="#3A0027"/>
<stop offset="1" stop-color="#910061"/>
</linearGradient>
<linearGradient id="paint2_linear_38_837" x1="554" y1="679" x2="804" y2="679" gradientUnits="userSpaceOnUse">
<stop stop-color="#3A0027"/>
<stop offset="1" stop-color="#910061"/>
</linearGradient>
<linearGradient id="paint3_linear_38_837" x1="678.5" y1="385" x2="678.5" y2="972" gradientUnits="userSpaceOnUse">
<stop offset="0.0636093" stop-color="#C4C4C4" stop-opacity="0"/>
<stop offset="0.477083" stop-color="#C4C4C4"/>
<stop offset="0.788912" stop-color="#C4C4C4" stop-opacity="0"/>
</linearGradient>
<linearGradient id="paint4_linear_38_837" x1="679" y1="627" x2="679" y2="731" gradientUnits="userSpaceOnUse">
<stop stop-color="white"/>
<stop offset="1" stop-color="white" stop-opacity="0"/>
</linearGradient>
</defs>
</svg>
