<svg width="132" height="132" fill="none" xmlns="http://www.w3.org/2000/svg"><g filter="url(#a)"><rect x="16" y="12" width="100" height="100" rx="50" fill="#000"/><rect x="16.25" y="12.25" width="99.5" height="99.5" rx="49.75" stroke="url(#b)" stroke-opacity=".2" stroke-width=".5"/><g filter="url(#c)"><path d="M85.519 46.972 67.679 36.69a5.227 5.227 0 0 0-5.192 0 5.19 5.19 0 0 0-2.593 4.484v1.342l-1.162-.672a5.227 5.227 0 0 0-5.192 0 5.192 5.192 0 0 0-2.593 4.491v1.34l-1.163-.67a5.227 5.227 0 0 0-5.19 0 5.192 5.192 0 0 0-2.595 4.486v32.207a2.44 2.44 0 0 0 3.95 1.912l8.846-6.964 13.644 7.86a2.476 2.476 0 0 0 2.441 0 2.445 2.445 0 0 0 1.22-2.11V65.018a8.95 8.95 0 0 0-4.474-7.734l-4.473-2.578V41.178a1.935 1.935 0 0 1 2.903-1.671l17.84 10.277a5.698 5.698 0 0 1 2.846 4.92v24.135c0 .688-.37 1.328-.967 1.672l-4.727 2.724V59.858a8.949 8.949 0 0 0-4.474-7.732L65.592 45.8v3.747l9.356 5.39a5.693 5.693 0 0 1 2.847 4.92v24.78c0 .864.467 1.675 1.22 2.11a2.478 2.478 0 0 0 2.441 0l5.949-3.428a5.193 5.193 0 0 0 2.594-4.486V54.698a8.972 8.972 0 0 0-4.48-7.726ZM65.992 60.094a5.692 5.692 0 0 1 2.847 4.922v17.979l-11.296-6.509 3.626-2.85a5.14 5.14 0 0 0 1.977-4.066V58.46l2.847 1.636-.001-.002Zm-6.1-3.514v12.984c0 .596-.27 1.151-.736 1.516L45.25 82.02V51.487a1.934 1.934 0 0 1 2.901-1.672l2.795 1.608V74.44l3.252-2.56V46.333a1.934 1.934 0 0 1 2.903-1.671l2.79 1.605v6.562l-3.25-1.875v3.751l3.254 1.876h-.003Z" fill="#fff"/></g></g><defs><filter id="a" x="0" y="-3" width="132" height="135" filterUnits="userSpaceOnUse" color-interpolation-filters="sRGB"><feFlood flood-opacity="0" result="BackgroundImageFix"/><feGaussianBlur in="BackgroundImageFix" stdDeviation="7.5"/><feComposite in2="SourceAlpha" operator="in" result="effect1_backgroundBlur_32_737"/><feColorMatrix in="SourceAlpha" values="0 0 0 0 0 0 0 0 0 0 0 0 0 0 0 0 0 0 127 0" result="hardAlpha"/><feOffset dy="4"/><feGaussianBlur stdDeviation="8"/><feComposite in2="hardAlpha" operator="out"/><feColorMatrix values="0 0 0 0 0 0 0 0 0 0 0 0 0 0 0 0 0 0 0.25 0"/><feBlend in2="effect1_backgroundBlur_32_737" result="effect2_dropShadow_32_737"/><feBlend in="SourceGraphic" in2="effect2_dropShadow_32_737" result="shape"/></filter><filter id="c" x="24.587" y="24.247" width="82.823" height="85.892" filterUnits="userSpaceOnUse" color-interpolation-filters="sRGB"><feFlood flood-opacity="0" result="BackgroundImageFix"/><feColorMatrix in="SourceAlpha" values="0 0 0 0 0 0 0 0 0 0 0 0 0 0 0 0 0 0 127 0" result="hardAlpha"/><feOffset dy="5.659"/><feGaussianBlur stdDeviation="8.706"/><feColorMatrix values="0 0 0 0 0 0 0 0 0 0 0 0 0 0 0 0 0 0 0.3 0"/><feBlend in2="BackgroundImageFix" result="effect1_dropShadow_32_737"/><feBlend in="SourceGraphic" in2="effect1_dropShadow_32_737" result="shape"/></filter><linearGradient id="b" x1="66" y1="12" x2="66" y2="112" gradientUnits="userSpaceOnUse"><stop stop-color="#fff"/><stop offset="1" stop-color="#fff" stop-opacity="0"/></linearGradient></defs></svg>