<svg width="470" height="470" fill="none" xmlns="http://www.w3.org/2000/svg"><g clip-path="url(#a)"><g opacity=".6"><g opacity=".19" filter="url(#b)"><circle cx="235" cy="235" r="235" fill="url(#c)" fill-opacity=".9"/></g><g opacity=".4" filter="url(#d)"><circle cx="235" cy="235" r="82.901" fill="url(#e)"/></g><g opacity=".4" filter="url(#f)"><circle cx="235" cy="235" r="91.123" fill="#000"/></g><g opacity=".9" filter="url(#g)"><circle cx="235" cy="235" r="96.603" fill="url(#h)" fill-opacity=".9"/></g><g opacity=".3" filter="url(#i)"><circle cx="235" cy="235" r="63.717" fill="#000"/></g><circle opacity=".05" cx="235" cy="235" r="84.956" stroke="url(#j)" stroke-opacity=".6" stroke-width="1.462"/><circle opacity=".1" cx="235" cy="235" r="67.143" stroke="url(#k)" stroke-opacity=".6" stroke-width="1.462"/><circle opacity=".2" cx="235" cy="235" r="50.7" stroke="url(#l)" stroke-opacity=".6" stroke-width="1.462"/></g><g filter="url(#m)"><rect x="183" y="183" width="104" height="104" rx="52" fill="#000"/><rect x="183.25" y="183.25" width="103.5" height="103.5" rx="51.75" stroke="url(#n)" stroke-opacity=".2" stroke-width=".5"/><g filter="url(#o)"><path d="m255.3 219.371-18.553-10.693a5.43 5.43 0 0 0-5.4 0 5.402 5.402 0 0 0-2.697 4.663v1.395l-1.209-.698a5.43 5.43 0 0 0-5.4 0 5.39 5.39 0 0 0-2.696 4.671v1.394l-1.21-.697a5.437 5.437 0 0 0-5.398 0 5.395 5.395 0 0 0-2.698 4.664v33.496a2.536 2.536 0 0 0 4.109 1.988l9.199-7.243 14.19 8.175a2.576 2.576 0 0 0 2.538 0 2.543 2.543 0 0 0 1.269-2.194v-20.154a9.3 9.3 0 0 0-4.652-8.043l-4.653-2.681v-14.068a2.014 2.014 0 0 1 3.019-1.739l18.553 10.688a5.922 5.922 0 0 1 2.961 5.117v25.101c0 .715-.386 1.38-1.006 1.738l-4.916 2.833v-24.312a9.31 9.31 0 0 0-4.653-8.041l-11.421-6.58v3.898l9.73 5.606a5.92 5.92 0 0 1 2.961 5.117v25.771c0 .898.485 1.742 1.269 2.194a2.576 2.576 0 0 0 2.538 0l6.187-3.565a5.402 5.402 0 0 0 2.698-4.666v-25.101a9.322 9.322 0 0 0-4.659-8.034Zm-20.308 13.647a5.925 5.925 0 0 1 2.961 5.119v18.697l-11.748-6.768 3.771-2.965a5.34 5.34 0 0 0 2.056-4.228v-11.555l2.961 1.702-.001-.002Zm-6.343-3.655v13.503a1.99 1.99 0 0 1-.767 1.577l-14.461 11.378v-31.756a2.006 2.006 0 0 1 1.007-1.74 2.017 2.017 0 0 1 2.011.002l2.906 1.672v23.937l3.382-2.661v-26.57a2.003 2.003 0 0 1 1.007-1.741 2.017 2.017 0 0 1 2.012.003l2.903 1.67v6.824l-3.381-1.95v3.901l3.384 1.951h-.003Z" fill="#fff"/></g></g></g><defs><linearGradient id="c" x1="0" y1="235" x2="470" y2="235" gradientUnits="userSpaceOnUse"><stop stop-color="#001638"/><stop offset="1" stop-color="#00398E"/></linearGradient><linearGradient id="e" x1="152.099" y1="235" x2="317.901" y2="235" gradientUnits="userSpaceOnUse"><stop stop-color="#001638"/><stop offset="1" stop-color="#00398E"/></linearGradient><linearGradient id="h" x1="138.396" y1="235" x2="331.603" y2="235" gradientUnits="userSpaceOnUse"><stop stop-color="#001638"/><stop offset="1" stop-color="#00398E"/></linearGradient><linearGradient id="j" x1="235" y1="150.044" x2="235" y2="319.956" gradientUnits="userSpaceOnUse"><stop stop-color="#4791FF"/><stop offset="1" stop-color="#99C2FF"/></linearGradient><linearGradient id="k" x1="235" y1="167.857" x2="235" y2="302.143" gradientUnits="userSpaceOnUse"><stop stop-color="#4791FF"/><stop offset="1" stop-color="#99C2FF"/></linearGradient><linearGradient id="l" x1="235" y1="184.3" x2="235" y2="285.7" gradientUnits="userSpaceOnUse"><stop stop-color="#4791FF"/><stop offset="1" stop-color="#99C2FF"/></linearGradient><linearGradient id="n" x1="235" y1="183" x2="235" y2="287" gradientUnits="userSpaceOnUse"><stop stop-color="#fff"/><stop offset="1" stop-color="#fff" stop-opacity="0"/></linearGradient><filter id="b" x="-374.39" y="-374.39" width="1218.78" height="1218.78" filterUnits="userSpaceOnUse" color-interpolation-filters="sRGB"><feFlood flood-opacity="0" result="BackgroundImageFix"/><feBlend in="SourceGraphic" in2="BackgroundImageFix" result="shape"/><feGaussianBlur stdDeviation="187.195" result="effect1_foregroundBlur_20_3393"/></filter><filter id="d" x="43.877" y="43.877" width="382.246" height="382.246" filterUnits="userSpaceOnUse" color-interpolation-filters="sRGB"><feFlood flood-opacity="0" result="BackgroundImageFix"/><feBlend in="SourceGraphic" in2="BackgroundImageFix" result="shape"/><feGaussianBlur stdDeviation="54.111" result="effect1_foregroundBlur_20_3393"/></filter><filter id="f" x="59.055" y="59.055" width="351.891" height="351.891" filterUnits="userSpaceOnUse" color-interpolation-filters="sRGB"><feFlood flood-opacity="0" result="BackgroundImageFix"/><feBlend in="SourceGraphic" in2="BackgroundImageFix" result="shape"/><feGaussianBlur stdDeviation="42.411" result="effect1_foregroundBlur_20_3393"/></filter><filter id="g" x="65.273" y="65.273" width="339.453" height="339.453" filterUnits="userSpaceOnUse" color-interpolation-filters="sRGB"><feFlood flood-opacity="0" result="BackgroundImageFix"/><feBlend in="SourceGraphic" in2="BackgroundImageFix" result="shape"/><feGaussianBlur stdDeviation="36.562" result="effect1_foregroundBlur_20_3393"/></filter><filter id="i" x="86.46" y="86.46" width="297.08" height="297.08" filterUnits="userSpaceOnUse" color-interpolation-filters="sRGB"><feFlood flood-opacity="0" result="BackgroundImageFix"/><feBlend in="SourceGraphic" in2="BackgroundImageFix" result="shape"/><feGaussianBlur stdDeviation="42.411" result="effect1_foregroundBlur_20_3393"/></filter><filter id="m" x="167" y="168" width="136" height="139" filterUnits="userSpaceOnUse" color-interpolation-filters="sRGB"><feFlood flood-opacity="0" result="BackgroundImageFix"/><feGaussianBlur in="BackgroundImageFix" stdDeviation="7.5"/><feComposite in2="SourceAlpha" operator="in" result="effect1_backgroundBlur_20_3393"/><feColorMatrix in="SourceAlpha" values="0 0 0 0 0 0 0 0 0 0 0 0 0 0 0 0 0 0 127 0" result="hardAlpha"/><feOffset dy="4"/><feGaussianBlur stdDeviation="8"/><feComposite in2="hardAlpha" operator="out"/><feColorMatrix values="0 0 0 0 0 0 0 0 0 0 0 0 0 0 0 0 0 0 0.25 0"/><feBlend in2="effect1_backgroundBlur_20_3393" result="effect2_dropShadow_20_3393"/><feBlend in="SourceGraphic" in2="effect2_dropShadow_20_3393" result="shape"/></filter><filter id="o" x="192.627" y="196.207" width="84.743" height="87.935" filterUnits="userSpaceOnUse" color-interpolation-filters="sRGB"><feFlood flood-opacity="0" result="BackgroundImageFix"/><feColorMatrix in="SourceAlpha" values="0 0 0 0 0 0 0 0 0 0 0 0 0 0 0 0 0 0 127 0" result="hardAlpha"/><feOffset dy="5.659"/><feGaussianBlur stdDeviation="8.706"/><feColorMatrix values="0 0 0 0 0 0 0 0 0 0 0 0 0 0 0 0 0 0 0.3 0"/><feBlend in2="BackgroundImageFix" result="effect1_dropShadow_20_3393"/><feBlend in="SourceGraphic" in2="effect1_dropShadow_20_3393" result="shape"/></filter><clipPath id="a"><path fill="#fff" d="M0 0h470v470H0z"/></clipPath></defs></svg>