<svg width="72" height="24" fill="none" xmlns="http://www.w3.org/2000/svg"><g clip-path="url(#a)" fill="#fff"><path fill-rule="evenodd" clip-rule="evenodd" d="M37.993 11.414h3.594V8.563h1.901v7.314h-1.901v-2.852h-3.594v2.852h-1.835V8.563h1.834v2.85h.001ZM50.74 8.563h-2.935c-.813 0-1.308.153-1.682.527-.373.372-.516.845-.516 1.678v2.906c0 .834.142 1.305.516 1.678.373.374.868.528 1.682.528h2.935c.813 0 1.308-.154 1.682-.528.375-.372.516-.844.516-1.678v-2.905c0-.834-.142-1.305-.516-1.68-.375-.373-.869-.526-1.682-.526Zm.362 5.154c0 .427-.142.547-.659.547h-2.34c-.517 0-.66-.12-.66-.547v-2.994c0-.429.143-.549.66-.549h2.34c.529 0 .66.11.66.548v2.995Zm6.384-2.228h2.626c.813 0 1.319.154 1.682.527.33.33.516.867.516 1.448v.44c0 .582-.187 1.107-.516 1.447-.363.373-.858.527-1.682.527h-5.01v-1.612h4.703c.516 0 .66-.12.66-.548V13.5c0-.428-.145-.548-.66-.548h-2.626c-.815 0-1.32-.155-1.682-.527-.329-.33-.517-.866-.517-1.448v-.439c0-.581.187-1.107.517-1.447.364-.374.857-.527 1.682-.527h4.75v1.611h-4.443c-.516 0-.659.12-.659.548v.219c0 .429.143.549.66.549Zm5.988-1.315V8.563h7.472v1.613h-2.813v5.702h-1.836v-5.703h-2.824Z"/><path d="M31.766 8.505h-2.934c-.813 0-1.308.153-1.683.527-.372.372-.516.845-.516 1.677v5.166h1.835v-5.21c0-.427.144-.547.66-.547h2.341c.528 0 .66.109.66.547v5.211h1.836V10.71c0-.834-.144-1.305-.517-1.677-.373-.375-.867-.529-1.682-.529v.001Zm-11.36-3.361L12.041.323a2.451 2.451 0 0 0-2.434 0A2.434 2.434 0 0 0 8.39 2.425v.629l-.545-.315a2.451 2.451 0 0 0-2.435 0 2.434 2.434 0 0 0-1.215 2.106v.629l-.546-.315a2.451 2.451 0 0 0-2.433 0A2.434 2.434 0 0 0 0 7.262v15.102a1.144 1.144 0 0 0 1.853.896L6 19.995l6.398 3.685a1.16 1.16 0 0 0 1.144 0c.353-.203.572-.581.572-.989v-9.086a4.198 4.198 0 0 0-2.098-3.626L9.92 8.769V2.428a.908.908 0 0 1 1.361-.784l8.365 4.819a2.672 2.672 0 0 1 1.335 2.307v11.317a.907.907 0 0 1-.454.784l-2.216 1.277V11.186a4.196 4.196 0 0 0-2.098-3.626l-5.15-2.966V6.35l4.387 2.528a2.67 2.67 0 0 1 1.335 2.306v11.62c0 .404.22.785.573.989a1.162 1.162 0 0 0 1.144 0l2.79-1.608a2.435 2.435 0 0 0 1.216-2.103V8.766a4.207 4.207 0 0 0-2.101-3.622Zm-9.156 6.152a2.67 2.67 0 0 1 1.335 2.308v8.43l-5.297-3.051 1.7-1.337a2.41 2.41 0 0 0 .928-1.907V10.53l1.335.767h-.001ZM8.39 9.65v6.088c0 .28-.127.54-.346.71l-6.52 5.13V7.26a.907.907 0 0 1 1.361-.784l1.31.754v10.793l1.525-1.2V4.843a.907.907 0 0 1 1.362-.783l1.308.753v3.076L6.866 7.01v1.76l1.526.88H8.39Z"/></g><defs><clipPath id="a"><path fill="#fff" d="M0 0h71.25v24H0z"/></clipPath></defs></svg>