<svg width="24" height="24" fill="none" xmlns="http://www.w3.org/2000/svg"><path d="M20.406 5.144 12.041.323a2.451 2.451 0 0 0-2.434 0A2.434 2.434 0 0 0 8.39 2.425v.629l-.545-.315a2.451 2.451 0 0 0-2.435 0 2.434 2.434 0 0 0-1.215 2.106v.629l-.546-.315a2.451 2.451 0 0 0-2.433 0A2.434 2.434 0 0 0 0 7.262v15.102a1.144 1.144 0 0 0 1.853.896L6 19.995l6.398 3.685a1.16 1.16 0 0 0 1.144 0c.353-.203.572-.581.572-.989v-9.086a4.198 4.198 0 0 0-2.098-3.626L9.92 8.769V2.428a.908.908 0 0 1 1.361-.784l8.365 4.819a2.672 2.672 0 0 1 1.335 2.307v11.317a.907.907 0 0 1-.454.784l-2.216 1.277V11.186a4.196 4.196 0 0 0-2.098-3.626l-5.15-2.966V6.35l4.387 2.528a2.67 2.67 0 0 1 1.335 2.306v11.62c0 .404.22.785.573.989a1.162 1.162 0 0 0 1.144 0l2.79-1.608a2.435 2.435 0 0 0 1.216-2.103V8.766a4.207 4.207 0 0 0-2.101-3.622Zm-9.156 6.152a2.67 2.67 0 0 1 1.335 2.308v8.43l-5.297-3.051 1.7-1.337a2.41 2.41 0 0 0 .928-1.907V10.53l1.335.767h-.001ZM8.39 9.65v6.088c0 .28-.127.54-.346.71l-6.52 5.13V7.26a.907.907 0 0 1 1.361-.784l1.31.754v10.793l1.525-1.2V4.843a.907.907 0 0 1 1.362-.783l1.308.753v3.076L6.866 7.01v1.76l1.526.88H8.39Z" fill="#fff"/></svg>