<svg width="50" height="50" fill="none" xmlns="http://www.w3.org/2000/svg"><path d="M1 25c0 13.255 10.745 24 24 24s24-10.745 24-24S38.255 1 25 1 1 11.745 1 25Z" fill="#080808"/><path d="M1 25c0 13.255 10.745 24 24 24s24-10.745 24-24S38.255 1 25 1 1 11.745 1 25Z" stroke="url(#a)" stroke-opacity=".5"/><path d="M1 25c0 13.255 10.745 24 24 24s24-10.745 24-24S38.255 1 25 1 1 11.745 1 25Z" stroke="url(#b)"/><path d="M49 25C49 11.745 38.255 1 25 1S1 11.745 1 25s10.745 24 24 24 24-10.745 24-24Z" stroke="url(#c)" stroke-opacity=".15"/><defs><linearGradient id="a" x1="49.511" y1="49.511" x2="38.787" y2="29.596" gradientUnits="userSpaceOnUse"><stop/><stop offset="1" stop-opacity="0"/></linearGradient><linearGradient id="b" x1="49" y1="49" x2="-9.207" y2="-14.977" gradientUnits="userSpaceOnUse"><stop stop-color="#000C1F" stop-opacity=".16"/><stop offset=".141" stop-color="#000C3D" stop-opacity=".2"/><stop offset=".336" stop-color="#000C3D" stop-opacity=".24"/><stop offset=".49" stop-color="#0052CD"/><stop offset=".639" stop-color="#00061F" stop-opacity=".56"/><stop offset=".869" stop-color="#00061F" stop-opacity=".56"/></linearGradient><radialGradient id="c" cx="0" cy="0" r="1" gradientUnits="userSpaceOnUse" gradientTransform="matrix(0 63.0274 -63.0274 0 25 .49)"><stop stop-color="#fff"/><stop offset="1" stop-color="#fff"/></radialGradient></defs></svg>